<svg width="331" height="314" viewBox="0 0 331 314" fill="none" xmlns="http://www.w3.org/2000/svg">
<path d="M282.1 152.029C217.28 115.086 112.533 115.086 48.1347 152.029C-16.264 188.972 -15.9199 248.882 48.893 285.825C113.706 322.768 218.467 322.775 282.866 285.825C347.264 248.875 346.92 188.979 282.1 152.029Z" fill="#F5F5F5"/>
<path d="M241.52 36.4794L243.71 35.2246L266.855 48.3686V50.8712L241.52 36.4794Z" fill="#F5F5F5"/>
<path d="M241.523 36.4785L266.858 50.8703V53.7196L241.516 39.3486L241.523 36.4785Z" fill="#E0E0E0"/>
<path d="M269.258 52.2157L271.449 50.9609L294.593 64.1049V66.6006L269.258 52.2157Z" fill="#F5F5F5"/>
<path d="M269.261 52.2158L294.596 66.6007V69.4569L269.254 55.0859L269.261 52.2158Z" fill="#E0E0E0"/>
<path d="M241.649 12.4647L243.833 11.21L243.706 96.2921L241.516 97.5469L241.649 12.4647Z" fill="#F0F0F0"/>
<path d="M241.516 97.5468L243.706 96.292L268.915 110.58L266.725 111.835L241.516 97.5468Z" fill="#F5F5F5"/>
<path d="M239.134 8.17383L269.385 25.3317L269.237 116.147L238.986 98.9891L239.134 8.17383ZM266.723 111.835L266.857 26.7528L241.648 12.465L241.514 97.5471L266.723 111.835Z" fill="#E0E0E0"/>
<path d="M239.137 8.17372L241.328 6.91895L271.578 24.0768L269.387 25.3316L239.137 8.17372Z" fill="#F5F5F5"/>
<path d="M269.384 25.3309L271.575 24.0762L271.427 114.871L269.236 116.125L269.384 25.3309Z" fill="#F0F0F0"/>
<path d="M269.387 28.2011L271.578 26.9463L271.445 112.028L269.254 113.283L269.387 28.2011Z" fill="#F0F0F0"/>
<path d="M269.254 113.284L271.445 112.029L296.654 126.317L294.463 127.572L269.254 113.284Z" fill="#F5F5F5"/>
<path d="M266.87 23.9102L297.121 41.068L296.973 131.883L266.723 114.725L266.87 23.9102ZM294.46 127.571L294.593 42.4892L269.384 28.2014L269.251 113.283L294.46 127.571Z" fill="#E0E0E0"/>
<path d="M266.869 23.911L269.06 22.6562L299.311 39.8141L297.12 41.0689L266.869 23.911Z" fill="#F5F5F5"/>
<path d="M297.122 41.0683L299.313 39.8135L299.165 130.608L296.975 131.863L297.122 41.0683Z" fill="#F0F0F0"/>
<path d="M308.479 231.579C303.683 228.847 295.938 228.847 291.177 231.579C286.416 234.31 286.437 238.747 291.233 241.478C296.029 244.21 303.774 244.21 308.535 241.478C313.296 238.747 313.275 234.31 308.479 231.579Z" fill="#EBEBEB"/>
<path d="M263.812 211.26C242.746 199.239 208.627 199.239 187.666 211.26C169.149 221.887 167.091 238.338 181.409 250.324C169.851 249.631 157.879 251.794 149.052 256.855C133.561 265.742 133.646 280.148 149.235 289.035C164.823 297.923 190.018 297.923 205.509 289.035C217.832 281.964 220.255 271.399 212.931 262.9C230.69 265.437 250.232 262.74 264.065 254.81C285.019 242.782 284.913 223.288 263.812 211.26Z" fill="#EBEBEB"/>
<path d="M150.796 216.085L66.4201 264.176C65.9931 264.419 65.5087 264.547 65.0157 264.547C64.5226 264.547 64.0382 264.419 63.6113 264.176L57.5794 260.71C57.4306 260.625 57.307 260.503 57.221 260.357C57.1351 260.21 57.0898 260.044 57.0898 259.874C57.0898 259.705 57.1351 259.538 57.221 259.392C57.307 259.245 57.4306 259.123 57.5794 259.039L142.047 210.969C142.474 210.726 142.958 210.598 143.451 210.598C143.944 210.598 144.429 210.726 144.856 210.969L150.796 214.38C150.954 214.462 151.085 214.584 151.177 214.735C151.269 214.885 151.318 215.057 151.318 215.233C151.318 215.408 151.269 215.58 151.177 215.731C151.085 215.881 150.954 216.004 150.796 216.085Z" fill="#EBEBEB"/>
<path d="M143.44 205.125L40.4136 263.413C39.9729 263.665 39.4727 263.798 38.9635 263.798C38.4543 263.798 37.9541 263.665 37.5135 263.413L31.292 259.871C31.1406 259.783 31.0151 259.657 30.9279 259.506C30.8408 259.355 30.7949 259.185 30.7949 259.011C30.7949 258.838 30.8408 258.667 30.9279 258.516C31.0151 258.365 31.1406 258.24 31.292 258.152L134.41 199.919C134.852 199.665 135.355 199.531 135.867 199.531C136.379 199.531 136.882 199.665 137.324 199.919L143.44 203.434C143.587 203.522 143.708 203.646 143.792 203.795C143.876 203.943 143.921 204.11 143.921 204.279C143.921 204.449 143.876 204.616 143.792 204.764C143.708 204.912 143.587 205.037 143.44 205.125Z" fill="#EBEBEB"/>
<path d="M231.506 72.5063C231.174 71.927 230.688 71.4478 230.102 71.1198L207.631 58.1699C205.974 57.234 202.014 58.5096 202.014 61.144V85.2065C202.014 85.8513 202.187 86.4845 202.515 87.042C202.843 87.5996 203.315 88.0617 203.882 88.3816L218.501 96.6312L215.973 95.2031L217.188 98.6001C217.207 98.6478 217.244 98.6867 217.291 98.7086C217.338 98.7305 217.392 98.7338 217.441 98.7179C217.659 98.6139 218.607 98.1078 219.154 97.7543H219.189C219.208 97.7399 219.224 97.7236 219.239 97.7058L219.534 97.2344L226.338 101.304C226.885 101.649 227.515 101.844 228.163 101.869C228.812 101.894 229.455 101.747 230.027 101.445C230.599 101.143 231.08 100.696 231.419 100.149C231.758 99.6028 231.943 98.9772 231.955 98.3366V74.2948C231.961 73.6708 231.806 73.0555 231.506 72.5063Z" fill="#FDC70A"/>
<path opacity="0.2" d="M219.323 97.6917C219.308 97.7096 219.292 97.7259 219.274 97.7402H219.239C218.691 98.0938 217.743 98.5999 217.525 98.7039C217.574 98.6947 217.617 98.6673 217.645 98.6276L218.817 96.7489L218.586 96.6172L219.618 97.1995L219.323 97.6917Z" fill="white"/>
<path opacity="0.4" d="M227.856 74.572C227.618 74.0985 227.28 73.6802 226.866 73.345C226.725 73.2316 226.575 73.1296 226.417 73.04L203.946 60.0901C203.758 59.9846 203.546 59.9296 203.329 59.9306C203.113 59.9317 202.901 59.9887 202.714 60.0961C202.527 60.2035 202.372 60.3574 202.264 60.5424C202.156 60.7275 202.1 60.9373 202.1 61.1508C202.1 58.5164 206.032 57.2409 207.717 58.1768L230.188 71.1266C230.774 71.4546 231.26 71.9339 231.592 72.5131L227.856 74.572Z" fill="white"/>
<path opacity="0.2" d="M228.269 100.236V76.208C228.279 76.0649 228.279 75.9213 228.269 75.7782C228.208 75.3578 228.078 74.9501 227.882 74.5719L231.562 72.4922C231.872 73.0389 232.036 73.6543 232.039 74.2808V98.3087C232.027 98.9492 231.842 99.5749 231.503 100.121C231.164 100.668 230.683 101.115 230.111 101.417C229.539 101.719 228.896 101.866 228.247 101.841C227.599 101.816 226.969 101.621 226.422 101.276C226.608 101.383 226.819 101.439 227.035 101.44C227.25 101.441 227.462 101.386 227.649 101.281C227.836 101.176 227.991 101.024 228.1 100.84C228.209 100.657 228.267 100.448 228.269 100.236Z" fill="white"/>
<path d="M220.153 83.6329C220.727 82.7831 221.014 81.7763 220.975 80.7559C220.967 80.4172 220.939 80.0792 220.89 79.7437C220.823 79.2751 220.722 78.8118 220.588 78.3573C220.337 77.4862 219.996 76.643 219.57 75.8408C219.437 75.5843 219.296 75.3347 219.142 75.0851C218.846 74.5991 218.52 74.1314 218.166 73.6848C217.955 73.4213 217.73 73.1648 217.506 72.9222C216.843 72.2086 216.076 71.5965 215.231 71.1059C210.835 68.5964 208.068 72.4231 210.259 77.9968L212.071 82.6207L215.174 90.5445L220.153 83.6329ZM218.046 79.2377C218.046 80.9916 216.789 81.6987 215.238 80.8183C214.834 80.58 214.468 80.2858 214.149 79.9448L214.072 79.8547C213.682 79.421 213.351 78.9385 213.089 78.4197C212.834 77.9339 212.647 77.4161 212.534 76.8806C212.477 76.6069 212.446 76.3283 212.443 76.0488C212.443 74.2948 213.714 73.5947 215.252 74.4751C215.655 74.7134 216.021 75.0075 216.34 75.3486C216.567 75.5906 216.773 75.8503 216.958 76.125C217.099 76.3262 217.226 76.537 217.337 76.7559C217.606 77.2431 217.802 77.7662 217.92 78.3087C217.993 78.6133 218.033 78.9247 218.039 79.2377H218.046Z" fill="white"/>
<path d="M138.207 7.38921C137.561 5.12923 132.912 0.838033 128.292 0.928155C127.848 0.942443 127.409 1.0267 126.993 1.17772L37.2236 51.5975C35.9128 52.347 34.8226 53.4208 34.0603 54.713C33.2981 56.0053 32.8903 57.4714 32.877 58.9667V250.691C32.877 255.544 38.5858 260.237 43.9366 257.991H43.9787C44.0969 257.954 44.212 257.907 44.3228 257.852L134.106 207.342C135.422 206.6 136.515 205.527 137.276 204.233C138.037 202.939 138.438 201.469 138.439 199.973V8.31123C138.436 7.99016 138.357 7.67424 138.207 7.38921Z" fill="#FDC70A"/>
<path d="M45.4258 79.2309C45.4252 78.4827 45.6258 77.7477 46.007 77.101C46.3882 76.4543 46.9364 75.919 47.5956 75.5498L130.94 28.7626C131.266 28.5798 131.635 28.4846 132.01 28.4864C132.385 28.4881 132.753 28.5868 133.078 28.7725C133.402 28.9583 133.672 29.2247 133.86 29.5453C134.048 29.8658 134.147 30.2294 134.149 30.5997V185.194C134.146 185.942 133.944 186.677 133.563 187.324C133.183 187.972 132.636 188.509 131.979 188.882L48.6138 235.745C48.2884 235.925 47.9211 236.018 47.5483 236.015C47.1754 236.011 46.8099 235.912 46.4878 235.726C46.1658 235.541 45.8984 235.275 45.7121 234.956C45.5259 234.638 45.4272 234.276 45.4258 233.908V79.2309Z" fill="#37474F"/>
<path opacity="0.3" d="M32.877 58.9678V250.692C32.877 255.545 38.5858 260.238 43.9366 257.992H43.9787C43.6558 258.116 43.3068 258.16 42.9626 258.119C42.6184 258.079 42.2897 257.955 42.0056 257.759C41.7215 257.563 41.4909 257.3 41.3341 256.995C41.1773 256.69 41.0992 256.351 41.1067 256.009V64.2642C41.1131 62.5969 41.6188 60.9688 42.5603 59.5847L33.7687 55.252C33.1889 56.4074 32.8839 57.6783 32.877 58.9678Z" fill="black"/>
<path opacity="0.1" d="M128.284 0.921319C127.84 0.935607 127.401 1.01986 126.985 1.17089L37.2224 51.5976C35.7226 52.4419 34.5179 53.7159 33.7676 55.251L42.5591 59.5838C43.288 58.4785 44.2693 57.5572 45.4241 56.894L135.228 6.46729C135.482 6.32061 135.764 6.22793 136.056 6.19521C136.348 6.16248 136.643 6.19043 136.924 6.27727C137.204 6.36411 137.463 6.50791 137.684 6.69942C137.905 6.89094 138.082 7.12593 138.206 7.38931C137.567 5.12239 132.918 0.831197 128.284 0.921319Z" fill="white"/>
<path d="M100.844 38.1279C101.469 37.7674 101.996 38.0517 101.996 38.7657C101.972 39.1579 101.856 39.5392 101.658 39.8797C101.459 40.2201 101.183 40.5104 100.851 40.7276L83.2333 50.7658C82.6013 51.1263 82.0957 50.8212 82.0957 50.1072C82.1141 49.7182 82.2263 49.3391 82.4229 49.0015C82.6195 48.6639 82.895 48.3775 83.2262 48.1661L100.844 38.1279Z" fill="#263238"/>
<path d="M78.7012 50.7455C79.3332 50.3919 79.8388 50.6762 79.8458 51.3902C79.8249 51.7814 79.711 52.1621 79.5134 52.5017C79.3158 52.8414 79.0399 53.1303 78.7082 53.3452C78.0763 53.7057 77.5566 53.4076 77.5566 52.6935C77.5778 52.3026 77.6925 51.9222 77.8915 51.5835C78.0905 51.2449 78.368 50.9577 78.7012 50.7455Z" fill="#263238"/>
<path d="M89.9817 36.6722C91.2387 35.9789 92.2569 36.5197 92.2569 37.9547C92.2172 38.7349 91.9917 39.4949 91.5989 40.173C91.206 40.8511 90.6568 41.4283 89.9958 41.8577C88.7318 42.5509 87.6926 41.9894 87.6855 40.5613C87.7285 39.7797 87.9592 39.0195 88.3584 38.3433C88.7577 37.667 89.3141 37.0943 89.9817 36.6722Z" fill="#263238"/>
<path d="M89.9802 217.16C92.5502 215.697 94.6217 216.861 94.6287 219.773C94.5458 221.363 94.085 222.911 93.2835 224.293C92.482 225.674 91.3624 226.85 90.0153 227.725C87.4452 229.18 85.3246 227.988 85.3105 225.076C85.4046 223.487 85.8763 221.943 86.6876 220.567C87.4989 219.192 88.6268 218.024 89.9802 217.16Z" fill="#263238"/>
<path d="M151.712 15.0556C151.115 12.9759 146.902 9.10758 142.703 9.19077C142.302 9.20379 141.906 9.28105 141.53 9.41954L60.0331 55.1738C58.8437 55.8541 57.8546 56.8291 57.1637 58.0024C56.4729 59.1756 56.104 60.5065 56.0938 61.8636V235.868C56.0938 240.305 61.276 244.534 66.1352 242.496C66.2412 242.462 66.3445 242.42 66.4442 242.371L147.984 196.527C149.178 195.852 150.17 194.879 150.861 193.704C151.552 192.529 151.915 191.195 151.916 189.837V15.8945C151.913 15.6033 151.843 15.3166 151.712 15.0556Z" fill="#455A64"/>
<path opacity="0.1" d="M56.1016 61.8709V235.876C56.1016 240.313 61.2838 244.541 66.143 242.503C65.8502 242.609 65.5358 242.644 65.2266 242.604C64.9173 242.565 64.6223 242.452 64.3665 242.276C64.1108 242.099 63.902 241.865 63.7577 241.592C63.6134 241.319 63.538 241.016 63.5379 240.708V66.7029C63.5441 65.1888 64.0033 63.7104 64.858 62.4533L56.874 58.5156C56.3635 59.5622 56.0995 60.7093 56.1016 61.8709Z" fill="white"/>
<path opacity="0.2" d="M142.712 9.18393C142.311 9.19694 141.915 9.27421 141.539 9.4127L60.042 55.167C58.6866 55.9385 57.596 57.0925 56.9102 58.4807L64.8942 62.4183C65.5631 61.4149 66.4599 60.5793 67.5134 59.9781L149.004 14.203C149.235 14.0733 149.491 13.9919 149.755 13.9637C150.02 13.9355 150.287 13.9612 150.541 14.0392C150.795 14.1172 151.031 14.2458 151.232 14.417C151.434 14.5883 151.598 14.7986 151.714 15.0349C151.124 12.9968 146.911 9.10074 142.712 9.18393Z" fill="white"/>
<path d="M151.712 15.0557C151.598 14.8176 151.436 14.6052 151.235 14.4318C151.034 14.2584 150.799 14.1277 150.545 14.0477C150.291 13.9677 150.022 13.9402 149.757 13.9669C149.492 13.9937 149.235 14.074 149.002 14.203L67.5468 59.9573C66.3597 60.6402 65.3725 61.6158 64.682 62.7884C63.9915 63.9611 63.6212 65.2907 63.6074 66.6471V240.652C63.6076 240.96 63.683 241.263 63.8273 241.536C63.9715 241.809 64.1804 242.044 64.4361 242.22C64.6918 242.396 64.9868 242.509 65.2961 242.548C65.6054 242.588 65.9198 242.553 66.2126 242.447C66.3186 242.414 66.4219 242.372 66.5215 242.323L147.984 196.527C149.178 195.853 150.171 194.879 150.861 193.704C151.552 192.529 151.916 191.195 151.916 189.837V15.8945C151.913 15.6034 151.843 15.3167 151.712 15.0557Z" fill="#455A64"/>
<path d="M67.6016 77.5027C67.6015 76.7613 67.8265 76.0369 68.2476 75.423C68.5642 74.9359 68.9955 74.5316 69.5045 74.2445L147.884 30.2441V187.14C147.884 187.795 147.709 188.439 147.376 189.007C147.043 189.574 146.564 190.044 145.988 190.37L67.6016 234.468V77.5027Z" fill="#455A64"/>
<path opacity="0.3" d="M67.6016 77.5027C67.6015 76.7613 67.8265 76.0369 68.2476 75.423C68.5642 74.9359 68.9955 74.5316 69.5045 74.2445L147.884 30.2441V187.14C147.884 187.795 147.709 188.439 147.376 189.007C147.043 189.574 146.564 190.044 145.988 190.37L67.6016 234.468V77.5027Z" fill="black"/>
<path d="M143.139 24.2691L143.146 26.2379L145.674 24.796L145.667 22.8271L143.139 24.2691Z" fill="#FDC70A"/>
<path d="M147.992 20.8447L142.557 23.9435V27.2295L147.992 24.1307V23.0077L148.378 22.7858V21.7459L148.237 21.8291L147.992 21.9678V20.8447ZM145.674 24.7962L143.146 26.2382V24.2694L145.674 22.8274V24.7962Z" fill="white"/>
<path d="M101.459 47.3685L101.466 50.6614L114.801 43.0565L114.787 39.7705L101.459 47.3685Z" fill="white"/>
<path d="M135.168 28.1515L135.182 31.4375L140.104 28.6298L140.097 25.3369L135.168 28.1515Z" fill="white"/>
<path d="M69.541 66.0297L69.548 68.8443L70.2221 68.463L70.2151 65.6484L69.541 66.0297Z" fill="white"/>
<path d="M80.1176 62.8277L83.0176 61.1708L83.0106 57.8779L81.3324 58.8346L80.1035 59.5348L80.1176 62.8277Z" fill="white"/>
<path d="M73.1848 66.7725L78.6198 63.6806L78.6128 60.3877L73.1777 63.4865L73.1848 66.7725Z" fill="white"/>
<path d="M70.6633 68.2133L71.0635 67.9845L71.3374 67.825L71.3304 64.5391L70.6562 64.9204L70.6633 68.2133Z" fill="white"/>
<path d="M68.4289 69.4825L68.9204 69.2052L69.103 69.1012L69.096 66.8828L68.9134 66.9868L68.4219 67.2641L68.4289 69.4825Z" fill="white"/>
<path d="M67.3215 70.1207L67.9886 69.7394L67.9815 68.1172L67.3145 68.4915L67.3215 70.1207Z" fill="white"/>
<path d="M141.102 129.823L147.885 126.003V122.842L141.024 126.71L140.652 112.027L147.885 107.722V104.561L140.575 108.914L140.315 98.6473L147.885 93.7391V90.564L140.224 95.5277L139.971 84.9141L136.657 73.1289L147.892 63.0629V57.5724L135.793 68.4217L133.904 51.4303L147.878 40.7889V37.5723L133.574 48.4701L132.5 38.8825L129.691 40.4562L130.878 51.1599L117.824 70.7302L107.22 53.0871L102.003 56.0196L104.636 60.3939L99.1451 66.8203L97.1088 62.9312L85.8736 73.3299L86.9269 84.4218L67.6375 95.4167V98.5779L90.0095 85.8291L88.872 73.8845L95.6412 67.6453L97.8882 71.9365L105.935 62.5014L107.712 65.4616L81.7306 105.268L67.6094 117.746V121.032L81.7517 108.554L90.5151 120.193L83.0929 132.672L67.6445 148.616V154.239L75.9726 145.67L78.7814 155.944L78.8235 169.379L67.6304 174.71V177.885L78.6901 172.617L77.2084 190.641L72.7284 196.804L72.0964 212.846L67.6304 215.716V220.998L107.347 195.487L106.701 212.471L109.51 210.905L110.373 187.154L125.056 178.502L126.369 201.379L131.025 198.759L130.456 188.811L147.885 177.594V174.419L130.281 185.747L129.206 167.147L142.443 159.604L141.481 142.689L147.885 139.639V136.457L141.347 139.577L141.102 129.823ZM131.271 54.6608L133.061 70.7788L123.181 79.6454L119.158 72.8862L131.271 54.6608ZM104.124 144.485L100.037 146.814L96.2731 148.956L93.9208 133.511L103.892 125.448L106.588 143.077L104.124 144.485ZM107.038 145.982L108.442 155.272L105.001 156.908L104.299 147.521L107.038 145.982ZM93.4784 130.668L92.4953 124.235L107.22 99.4722L107.838 98.9246L108.962 105.164L104.51 109.76L105.577 112.082L116.173 101.115L115.106 98.779L111.595 102.425L110.528 96.4705L119.86 88.1238L121.026 108.353L93.4784 130.668ZM121.194 111.479L123.301 148.221L118.989 150.301L115.24 116.297L121.194 111.479ZM102.481 77.6072L105.619 81.9608L95.6763 97.1568L92.5374 92.8656L102.481 77.6072ZM84.2234 105.656L90.3677 96.1308L94.946 102.37L109.187 80.5882L104.615 74.2658L108.962 67.6106L118.631 83.7078L105.353 95.6178L104.791 96.1169L92.5374 116.713L84.2234 105.656ZM78.5567 143.05L85.7121 135.68L90.0868 128.332L93.8786 153.476L100.023 149.975L101.533 149.109L102.193 158.246L81.5691 168.104V155.535L86.962 151.459L86.4985 148.596L81.1899 152.617L78.5567 143.05ZM84.5956 204.901L74.8912 211.14L75.4459 197.04L79.8557 190.981L81.4708 171.362L86.1755 169.123L84.5956 204.901ZM107.543 190.163L87.3974 203.106L88.9633 167.757L108.702 158.35L107.543 190.163ZM106.645 123.271L112.55 118.502L116.202 151.632L111.342 153.948L106.645 123.271ZM110.5 183.958L111.434 157.012L123.476 151.272L124.881 175.452L110.5 183.958ZM124.445 84.0614L134.016 75.4859L137.225 86.9522L137.485 97.3509L125.632 105.018L124.445 84.0614ZM125.85 108.103L137.576 100.477L137.836 110.592L126.383 117.407L125.85 108.103ZM126.552 120.478L137.907 113.718L138.272 128.311L127.352 134.467L126.552 120.478ZM127.528 137.531L138.349 131.431L138.595 140.97L128.02 146.01L127.528 137.531ZM129.066 164.152L128.202 149.095L138.735 144.083L139.536 158.197L129.066 164.152Z" fill="#455A64"/>
<g opacity="0.3">
<path d="M141.102 129.822L147.885 126.002V122.841L141.024 126.709L140.652 112.026L147.885 107.721V104.56L140.575 108.913L140.315 98.6463L147.885 93.7381V90.563L140.224 95.5267L139.971 84.9131L136.657 73.1279L147.892 63.062V57.5714L135.793 68.4207L133.904 51.4293L147.878 40.788V37.5713L133.574 48.4691L132.5 38.8815L129.691 40.4552L130.878 51.1589L117.824 70.7293L107.22 53.0861L102.003 56.0186L104.636 60.393L99.1451 66.8194L97.1088 62.9302L85.8736 73.3289L86.9269 84.4209L67.6375 95.4158V98.577L90.0095 85.8282L88.872 73.8835L95.6412 67.6443L97.8882 71.9355L105.935 62.5004L107.712 65.4606L81.7306 105.267L67.6094 117.745V121.031L81.7517 108.553L90.5151 120.192L83.0929 132.671L67.6445 148.615V154.238L75.9726 145.669L78.7814 155.943L78.8235 169.378L67.6304 174.709V177.884L78.6901 172.616L77.2084 190.64L72.7284 196.803L72.0964 212.845L67.6304 215.715V220.997L107.347 195.486L106.701 212.47L109.51 210.904L110.373 187.153L125.056 178.501L126.369 201.378L131.025 198.758L130.456 188.81L147.885 177.593V174.418L130.281 185.746L129.206 167.146L142.443 159.603L141.481 142.688L147.885 139.638V136.456L141.347 139.576L141.102 129.822ZM131.271 54.6598L133.061 70.7778L123.181 79.6444L119.158 72.8853L131.271 54.6598ZM104.124 144.484L100.037 146.813L96.2731 148.955L93.9208 133.51L103.892 125.447L106.588 143.076L104.124 144.484ZM107.038 145.981L108.442 155.271L105.001 156.907L104.299 147.52L107.038 145.981ZM93.4784 130.667L92.4953 124.234L107.22 99.4713L107.838 98.9236L108.962 105.163L104.51 109.759L105.577 112.081L116.173 101.114L115.106 98.778L111.595 102.424L110.528 96.4695L119.86 88.1228L121.026 108.352L93.4784 130.667ZM121.194 111.478L123.301 148.22L118.989 150.3L115.24 116.296L121.194 111.478ZM102.481 77.6063L105.619 81.9599L95.6763 97.1558L92.5374 92.8646L102.481 77.6063ZM84.2234 105.655L90.3677 96.1298L94.946 102.369L109.187 80.5872L104.615 74.2648L108.962 67.6097L118.631 83.7068L105.353 95.6168L104.791 96.1159L92.5374 116.712L84.2234 105.655ZM78.5567 143.049L85.7121 135.679L90.0868 128.331L93.8786 153.475L100.023 149.974L101.533 149.108L102.193 158.245L81.5691 168.103V155.534L86.962 151.458L86.4985 148.595L81.1899 152.616L78.5567 143.049ZM84.5956 204.9L74.8912 211.139L75.4459 197.039L79.8557 190.98L81.4708 171.361L86.1755 169.122L84.5956 204.9ZM107.543 190.162L87.3974 203.105L88.9633 167.756L108.702 158.349L107.543 190.162ZM106.645 123.27L112.55 118.501L116.202 151.631L111.342 153.947L106.645 123.27ZM110.5 183.957L111.434 157.011L123.476 151.271L124.881 175.451L110.5 183.957ZM124.445 84.0604L134.016 75.4849L137.225 86.9512L137.485 97.3499L125.632 105.017L124.445 84.0604ZM125.85 108.102L137.576 100.476L137.836 110.591L126.383 117.406L125.85 108.102ZM126.552 120.477L137.907 113.717L138.272 128.31L127.352 134.466L126.552 120.477ZM127.528 137.53L138.349 131.43L138.595 140.969L128.02 146.009L127.528 137.53ZM129.066 164.151L128.202 149.094L138.735 144.082L139.536 158.196L129.066 164.151Z" fill="white"/>
</g>
<path d="M163.997 135.626C164.636 135.266 165.141 135.557 165.148 136.271L165.191 151.738C165.17 152.128 165.056 152.508 164.858 152.846C164.66 153.185 164.385 153.472 164.053 153.686L126.977 174.816L126.928 156.757L163.997 135.626Z" fill="#FDC70A"/>
<g opacity="0.3">
<path d="M163.997 135.626C164.636 135.266 165.141 135.557 165.148 136.271L165.191 151.738C165.17 152.128 165.056 152.508 164.858 152.846C164.66 153.185 164.385 153.472 164.053 153.686L126.977 174.816L126.928 156.757L163.997 135.626Z" fill="white"/>
</g>
<path d="M162.643 148.438L162.65 149.678L135.341 165.249L135.334 164.001L162.643 148.438Z" fill="white"/>
<path d="M146.447 160.32L146.454 161.568L135.345 167.898L135.338 166.657L146.447 160.32Z" fill="white"/>
<path d="M162.635 145.79L162.642 147.038L135.333 162.601L135.326 161.36L162.635 145.79Z" fill="white"/>
<path d="M162.627 143.142V144.383L135.325 159.953L135.318 158.705L162.627 143.142Z" fill="white"/>
<path d="M155.322 143.404L155.329 145.893L135.31 157.297L135.303 154.815L155.322 143.404Z" fill="white"/>
<path d="M116.998 150.545C121.338 148.07 125.685 147.474 129.013 149.345C135.136 152.812 135.712 163.508 130.354 174.226L117.139 200.646L103.832 189.346C98.4183 184.763 98.9169 173.401 105.019 163.002C108.319 157.373 112.659 153.02 116.998 150.545Z" fill="#FDC70A"/>
<path d="M127.245 175.533C132.887 165.946 132.903 155.56 127.28 152.334C121.657 149.108 112.524 154.265 106.881 163.851C101.238 173.438 101.223 183.825 106.846 187.051C112.469 190.277 121.602 185.12 127.245 175.533Z" fill="#455A64"/>
<path d="M117.119 186.066C121.171 183.751 124.844 179.765 127.442 175.21C126.732 174.638 125.9 174.232 125.008 174.025C124.116 173.817 123.188 173.812 122.295 174.011L120.364 174.441L114.24 175.73L108.728 179.82C107.766 180.536 106.975 181.451 106.411 182.502C105.846 183.552 105.523 184.712 105.463 185.9V185.983C108.089 188.562 112.33 188.791 117.119 186.066Z" fill="#FDC70A"/>
<path opacity="0.2" d="M117.119 186.066C121.171 183.751 124.844 179.765 127.442 175.21C126.732 174.638 125.9 174.232 125.008 174.025C124.116 173.817 123.188 173.812 122.295 174.011L120.364 174.441L114.24 175.73L108.728 179.82C107.766 180.536 106.975 181.451 106.411 182.502C105.846 183.552 105.523 184.712 105.463 185.9V185.983C108.089 188.562 112.33 188.791 117.119 186.066Z" fill="black"/>
<path d="M125.637 169.083C126.57 168.421 127.219 167.439 127.457 166.33C127.694 165.221 127.504 164.064 126.922 163.086C127.443 162.854 127.871 162.456 128.137 161.956C128.239 161.711 128.268 161.443 128.221 161.183C128.174 160.922 128.052 160.681 127.87 160.486C127.678 160.304 127.438 160.179 127.177 160.126C126.916 160.073 126.645 160.095 126.395 160.188C126.532 159.796 126.532 159.369 126.396 158.976C126.26 158.584 125.995 158.247 125.644 158.018C125.285 157.824 124.869 157.759 124.466 157.832C124.063 157.905 123.698 158.113 123.432 158.42C123.442 158.165 123.367 157.912 123.219 157.702C123.071 157.492 122.857 157.335 122.611 157.256C122.103 157.125 121.566 157.159 121.08 157.353C120.588 157.519 120.125 157.762 119.626 157.914C118.774 158.124 117.899 158.234 117.021 158.24C116.135 158.259 115.268 158.497 114.5 158.933C114.078 159.189 113.753 159.574 113.574 160.03C113.395 160.486 113.372 160.987 113.51 161.457C113.384 161.298 113.226 161.167 113.046 161.073C112.866 160.979 112.667 160.923 112.464 160.909C112.262 160.904 112.062 160.941 111.877 161.019C111.692 161.097 111.525 161.213 111.389 161.36C111.937 161.693 112.464 162.053 113.019 162.393C112.704 162.305 112.37 162.321 112.066 162.44C111.763 162.56 111.507 162.774 111.34 163.051C111.08 163.596 110.978 164.2 111.045 164.798C111.119 167.072 111.528 169.324 112.26 171.481C112.632 172.597 113.18 173.776 114.247 174.289L125.637 169.083Z" fill="#263238"/>
<path d="M119.815 174.449L119.576 177.118C119.564 177.322 119.616 177.525 119.723 177.7C119.875 177.979 119.934 178.297 119.892 178.61C119.851 178.924 119.71 179.216 119.492 179.447C119.141 179.701 118.719 179.841 118.284 179.849C117.461 179.893 116.639 179.764 115.87 179.471C115.102 179.179 114.405 178.728 113.825 178.151C113.707 178.03 113.615 177.886 113.554 177.729C113.494 177.571 113.466 177.404 113.474 177.236L113.649 170.483L119.815 174.449Z" fill="#FFA8A7"/>
<path opacity="0.3" d="M114.191 170.829L119.808 174.448L119.598 176.812C118.278 176.594 117.026 176.079 115.939 175.307C115.287 174.769 114.784 174.075 114.478 173.292C114.172 172.508 114.073 171.661 114.191 170.829Z" fill="black"/>
<path d="M125.945 163.599C126.36 166.688 126.154 169.829 125.341 172.84C125.185 173.502 124.934 174.14 124.596 174.732C124.257 175.332 123.723 175.802 123.08 176.063C122.259 176.285 121.393 176.285 120.573 176.063C119.027 175.89 117.528 175.436 116.149 174.725C115.464 174.361 114.893 173.819 114.497 173.159C114.101 172.498 113.896 171.743 113.902 170.975C113.527 171.216 113.094 171.355 112.648 171.378C112.201 171.401 111.756 171.307 111.358 171.106C110.96 170.905 110.622 170.603 110.38 170.232C110.137 169.861 109.998 169.433 109.977 168.992C109.896 168.648 109.93 168.288 110.073 167.964C110.217 167.641 110.463 167.372 110.775 167.198C111.086 167.024 111.446 166.954 111.801 166.999C112.156 167.044 112.486 167.201 112.743 167.446C113.144 167.79 113.491 168.19 113.775 168.632C113.905 168.847 114.079 169.031 114.288 169.173C114.392 169.242 114.514 169.279 114.639 169.279C114.764 169.279 114.887 169.242 114.99 169.173C115.078 169.068 115.142 168.945 115.176 168.813C115.21 168.681 115.214 168.544 115.187 168.41L115.103 166.476C115.101 166.331 115.141 166.19 115.219 166.067C115.296 165.944 115.406 165.846 115.538 165.783C115.941 165.563 116.252 165.209 116.416 164.784C116.554 164.412 116.637 164.022 116.662 163.627C116.667 163.552 116.691 163.48 116.73 163.416C116.769 163.352 116.823 163.298 116.887 163.258C116.951 163.218 117.024 163.194 117.1 163.187C117.175 163.18 117.251 163.19 117.322 163.218C120.089 164.209 123.098 164.342 125.945 163.599Z" fill="#FFA8A7"/>
<path d="M121.642 168.285L123.404 171.211L121.305 171.606L121.642 168.285Z" fill="#F28F8F"/>
<path d="M119.273 172.61L120.867 173.38C120.73 173.558 120.538 173.687 120.32 173.748C120.103 173.81 119.871 173.8 119.659 173.72C119.476 173.606 119.339 173.434 119.268 173.232C119.198 173.03 119.2 172.811 119.273 172.61Z" fill="#F28F8F"/>
<path opacity="0.3" d="M119.273 172.61L120.867 173.38C120.73 173.558 120.538 173.687 120.32 173.748C120.103 173.81 119.871 173.8 119.659 173.72C119.476 173.606 119.339 173.434 119.268 173.232C119.198 173.03 119.2 172.811 119.273 172.61Z" fill="black"/>
<path d="M120.217 173.768C120.031 173.805 119.839 173.788 119.662 173.72C119.516 173.638 119.398 173.515 119.322 173.368C119.245 173.22 119.215 173.053 119.234 172.888C119.481 172.882 119.721 172.97 119.904 173.134C120.087 173.298 120.199 173.525 120.217 173.768Z" fill="#F28F8F"/>
<path d="M118.601 168.404C118.593 168.481 118.599 168.559 118.622 168.634C118.644 168.709 118.681 168.779 118.73 168.839C118.78 168.9 118.841 168.95 118.911 168.987C118.98 169.024 119.056 169.047 119.135 169.055C119.215 169.066 119.296 169.06 119.374 169.039C119.452 169.018 119.524 168.981 119.587 168.932C119.651 168.883 119.703 168.822 119.742 168.752C119.781 168.682 119.806 168.606 119.814 168.526C119.822 168.447 119.815 168.367 119.791 168.291C119.768 168.215 119.729 168.144 119.678 168.083C119.626 168.022 119.563 167.972 119.492 167.935C119.42 167.898 119.342 167.876 119.261 167.87C119.182 167.861 119.102 167.868 119.026 167.891C118.95 167.913 118.879 167.95 118.818 168C118.756 168.049 118.705 168.111 118.668 168.18C118.631 168.249 118.608 168.325 118.601 168.404Z" fill="#263238"/>
<path d="M123.655 168.715C123.643 168.833 123.667 168.951 123.723 169.055C123.779 169.159 123.866 169.245 123.971 169.3C124.076 169.356 124.196 169.38 124.315 169.368C124.434 169.357 124.546 169.311 124.639 169.236C124.731 169.161 124.799 169.061 124.834 168.948C124.869 168.836 124.869 168.715 124.834 168.602C124.8 168.489 124.732 168.389 124.639 168.314C124.547 168.239 124.434 168.193 124.315 168.182C124.156 168.166 123.997 168.214 123.874 168.314C123.75 168.414 123.671 168.558 123.655 168.715Z" fill="#263238"/>
<path d="M124.477 166.414L125.719 167.454C125.793 167.297 125.817 167.121 125.787 166.95C125.756 166.779 125.674 166.621 125.551 166.497C125.398 166.386 125.216 166.319 125.026 166.304C124.836 166.289 124.646 166.327 124.477 166.414Z" fill="#263238"/>
<path d="M119.352 165.831C118.874 166.088 118.397 166.344 117.947 166.608C117.907 166.439 117.919 166.262 117.982 166.101C118.044 165.939 118.154 165.799 118.298 165.7C118.469 165.624 118.658 165.596 118.844 165.619C119.029 165.643 119.205 165.716 119.352 165.831Z" fill="#263238"/>
<path d="M121.723 93.0747C122.362 92.7142 122.868 93.0054 122.875 93.7194L122.917 109.186C122.895 109.576 122.781 109.955 122.583 110.293C122.386 110.632 122.11 110.92 121.78 111.134L84.7035 132.264L84.6543 114.205L121.723 93.0747Z" fill="#FDC70A"/>
<g opacity="0.3">
<path d="M121.725 93.0747C122.364 92.7142 122.87 93.0054 122.877 93.7194L122.919 109.186C122.897 109.576 122.783 109.955 122.585 110.293C122.388 110.632 122.112 110.92 121.782 111.134L84.7054 132.264L84.6562 114.205L121.725 93.0747Z" fill="white"/>
</g>
<path d="M120.369 105.886L120.376 107.127L93.0676 122.69L93.0605 121.449L120.369 105.886Z" fill="white"/>
<path d="M104.177 117.769L104.184 119.016L93.0754 125.346L93.0684 124.098L104.177 117.769Z" fill="white"/>
<path d="M120.361 103.237L120.368 104.485L93.0598 120.049L93.0527 118.801L120.361 103.237Z" fill="white"/>
<path d="M120.353 100.59L120.36 101.831L93.0449 117.394V116.153L120.353 100.59Z" fill="white"/>
<path d="M113.053 100.854L113.06 103.335L93.0402 114.746L93.0332 112.257L113.053 100.854Z" fill="white"/>
<path d="M74.727 107.099C79.0666 104.624 83.4132 104.028 86.7417 105.9C92.8648 109.366 93.4406 120.063 88.0758 130.781L74.8675 157.221L61.5748 145.921C56.1679 141.339 56.6594 129.976 62.7686 119.578C66.0478 113.949 70.3874 109.595 74.727 107.099Z" fill="#FDC70A"/>
<path d="M84.975 132.108C90.6176 122.522 90.6334 112.135 85.0102 108.909C79.387 105.683 70.2542 110.84 64.6115 120.427C58.9688 130.013 58.953 140.4 64.5763 143.626C70.1995 146.852 79.3323 141.695 84.975 132.108Z" fill="#455A64"/>
<path d="M74.8439 142.642C79.0571 140.244 82.8209 136.036 85.4471 131.266C83.7698 130.358 81.8135 130.09 79.9489 130.51L76.6626 131.245L69.9144 132.673L64.0721 137.013C63.0302 137.792 62.1016 138.709 61.3125 139.738C63.384 144.757 68.6645 146.164 74.8439 142.642Z" fill="white"/>
<path d="M66.3879 124.223C66.5708 123.796 66.9055 123.451 67.3288 123.252C67.4183 123.207 67.5125 123.172 67.6097 123.148C67.8939 123.102 68.1852 123.125 68.4582 123.216C68.7312 123.306 68.9775 123.462 69.1756 123.668C69.5663 124.084 69.8293 124.601 69.934 125.159C70.0391 125.715 70.1025 126.278 70.1236 126.843C70.2061 127.842 70.3633 128.834 70.5941 129.81C70.7151 130.343 70.9516 130.844 71.2874 131.279C71.6231 131.713 72.0502 132.071 72.5392 132.327L72.6094 132.361C74.0276 133.055 75.5726 133.461 77.1526 133.554V135.252C78.4095 136.937 78.7606 140.16 75.4533 139.197C72.1459 138.233 69.9972 136.063 69.9972 133.935C69.9972 133.034 69.9551 131.855 69.927 130.843C69.927 129.457 69.8708 128.285 69.8708 128.285C69.5631 128.637 69.1313 128.86 68.663 128.909C68.452 128.936 68.2377 128.924 68.031 128.874C67.7285 128.778 67.4485 128.622 67.2073 128.418C66.9662 128.213 66.7688 127.963 66.6266 127.682C66.347 127.115 66.1938 126.496 66.1772 125.866C66.1163 125.309 66.1885 124.747 66.3879 124.223Z" fill="#FFA8A7"/>
<path opacity="0.3" d="M66.3879 124.223C66.5708 123.796 66.9055 123.451 67.3288 123.252C67.4183 123.207 67.5125 123.172 67.6097 123.148C67.8939 123.102 68.1852 123.125 68.4582 123.216C68.7312 123.306 68.9775 123.462 69.1756 123.668C69.5663 124.084 69.8293 124.601 69.934 125.159C70.0391 125.715 70.1025 126.278 70.1236 126.843C70.2061 127.842 70.3633 128.834 70.5941 129.81C70.7151 130.343 70.9516 130.844 71.2874 131.279C71.6231 131.713 72.0502 132.071 72.5392 132.327L72.6094 132.361C74.0276 133.055 75.5726 133.461 77.1526 133.554V135.252C78.4095 136.937 78.7606 140.16 75.4533 139.197C72.1459 138.233 69.9972 136.063 69.9972 133.935C69.9972 133.034 69.9551 131.855 69.927 130.843C69.927 129.457 69.8708 128.285 69.8708 128.285C69.5631 128.637 69.1313 128.86 68.663 128.909C68.452 128.936 68.2377 128.924 68.031 128.874C67.7285 128.778 67.4485 128.622 67.2073 128.418C66.9662 128.213 66.7688 127.963 66.6266 127.682C66.347 127.115 66.1938 126.496 66.1772 125.866C66.1163 125.309 66.1885 124.747 66.3879 124.223Z" fill="black"/>
<path d="M67.4583 118.33C68.1186 117.564 69.0454 117.069 70.0565 116.943L83.63 118.191C85.1959 121.47 83.946 123.633 83.946 123.633C84.1566 128.625 84.3322 131.8 82.1062 132.853C80.5351 133.478 78.8337 133.716 77.1487 133.547C75.5686 133.454 74.0236 133.048 72.6055 132.354L72.5352 132.313C72.0446 132.057 71.6164 131.699 71.2804 131.263C70.9445 130.827 70.7089 130.324 70.5901 129.789C70.3594 128.818 70.2022 127.831 70.1197 126.836C70.0986 126.271 70.0352 125.708 69.9301 125.151C69.8254 124.594 69.5624 124.077 69.1717 123.661C68.9736 123.455 68.7273 123.299 68.4543 123.209C68.1813 123.118 67.89 123.095 67.6058 123.141C67.5086 123.165 67.4144 123.2 67.3249 123.245C66.9387 121.034 66.8264 119.113 67.4583 118.33Z" fill="#263238"/>
<path d="M72.4294 118.712C72.6636 119.644 72.5998 120.625 72.2469 121.52C71.8958 122.409 71.6096 123.322 71.3902 124.251C71.2056 125.191 71.3362 126.164 71.7623 127.024C71.9743 127.447 72.2779 127.82 72.6516 128.114C73.0254 128.409 73.4601 128.619 73.9251 128.729C75.3787 129.035 76.8041 128.196 78.2717 127.918C79.6719 127.668 81.1168 127.913 82.3515 128.612C82.4557 128.674 82.5748 128.709 82.6968 128.713C82.8189 128.716 82.9398 128.688 83.0476 128.632C83.1553 128.575 83.2463 128.492 83.3114 128.39C83.3765 128.288 83.4135 128.171 83.4188 128.05C83.5944 125.18 83.5944 120.674 83.159 118.56L72.4294 118.712Z" fill="#FFA8A7"/>
<path opacity="0.3" d="M72.4294 118.712C72.6636 119.644 72.5998 120.625 72.2469 121.52C71.8958 122.409 71.6096 123.322 71.3902 124.251C71.2056 125.191 71.3362 126.164 71.7623 127.024C71.9743 127.447 72.2779 127.82 72.6516 128.114C73.0254 128.409 73.4601 128.619 73.9251 128.729C75.3787 129.035 76.8041 128.196 78.2717 127.918C79.6719 127.668 81.1168 127.913 82.3515 128.612C82.4557 128.674 82.5748 128.709 82.6968 128.713C82.8189 128.716 82.9398 128.688 83.0476 128.632C83.1553 128.575 83.2463 128.492 83.3114 128.39C83.3765 128.288 83.4135 128.171 83.4188 128.05C83.5944 125.18 83.5944 120.674 83.159 118.56L72.4294 118.712Z" fill="black"/>
<path d="M82.9368 116.111L84.6221 114.953C84.7965 115.51 84.8288 116.101 84.7161 116.673C84.6034 117.245 84.3492 117.781 83.9761 118.233C83.2041 119.117 82.1571 119.724 80.9988 119.959C79.8446 120.197 78.6592 120.251 77.4878 120.118C75.7789 119.979 74.0879 119.675 72.439 119.21C71.6936 119.057 71.0072 118.699 70.4588 118.177C70.1147 117.746 69.9189 117.218 69.9 116.669C69.881 116.12 70.0399 115.58 70.3534 115.127C70.68 114.679 71.0994 114.306 71.5837 114.031C72.0681 113.756 72.6062 113.586 73.1622 113.532C74.2881 113.447 75.4206 113.536 76.5187 113.796C77.6191 114.057 78.7556 114.136 79.8823 114.031C80.4436 113.973 80.9825 113.782 81.4531 113.474C81.9237 113.166 82.3122 112.751 82.5857 112.264C83.5337 113.782 82.9368 116.111 82.9368 116.111Z" fill="#263238"/>
<path d="M78.6719 123.813L81.1506 126.774L78.8755 127.564L78.6719 123.813Z" fill="#F28F8F"/>
<path opacity="0.3" d="M78.6719 123.813L81.1506 126.774L78.8755 127.564L78.6719 123.813Z" fill="black"/>
<path d="M76.8001 129.034L78.7172 129.61C78.5961 129.833 78.4045 130.012 78.1713 130.118C77.9381 130.225 77.6761 130.253 77.4251 130.199C77.2023 130.104 77.019 129.937 76.9054 129.725C76.7918 129.513 76.7547 129.27 76.8001 129.034Z" fill="#F28F8F"/>
<path opacity="0.3" d="M76.8001 129.034L78.7172 129.61C78.5961 129.833 78.4045 130.012 78.1713 130.118C77.9381 130.225 77.6761 130.253 77.4251 130.199C77.2023 130.104 77.019 129.937 76.9054 129.725C76.7918 129.513 76.7547 129.27 76.8001 129.034Z" fill="black"/>
<path d="M78.0476 130.157C77.849 130.236 77.6301 130.25 77.4226 130.198C77.2462 130.132 77.0936 130.016 76.9837 129.864C76.8738 129.712 76.8115 129.532 76.8047 129.346C77.0469 129.316 77.2926 129.362 77.5069 129.477C77.6387 129.549 77.7546 129.646 77.8475 129.763C77.9404 129.879 78.0084 130.013 78.0476 130.157Z" fill="#F28F8F"/>
<path d="M75.3086 124.43C75.3092 124.57 75.3525 124.706 75.4328 124.821C75.5131 124.936 75.6267 125.025 75.7588 125.075C75.8908 125.125 76.0351 125.134 76.1727 125.102C76.3104 125.07 76.4349 124.997 76.5301 124.894C76.6254 124.791 76.6867 124.662 76.7063 124.523C76.7258 124.385 76.7026 124.244 76.6396 124.119C76.5766 123.994 76.4769 123.891 76.3534 123.822C76.2299 123.754 76.0885 123.725 75.9476 123.737C75.7725 123.753 75.6098 123.833 75.4914 123.961C75.3731 124.089 75.3079 124.257 75.3086 124.43Z" fill="#263238"/>
<path d="M80.9949 123.938C80.9726 124.042 80.9748 124.15 81.0013 124.253C81.0279 124.356 81.078 124.451 81.1479 124.532C81.2178 124.613 81.3056 124.677 81.4045 124.719C81.5034 124.761 81.6107 124.78 81.7182 124.774C81.8257 124.769 81.9304 124.739 82.0244 124.687C82.1183 124.635 82.1989 124.563 82.26 124.475C82.3211 124.388 82.361 124.288 82.3766 124.183C82.3922 124.077 82.3832 123.97 82.3501 123.869C82.3724 123.765 82.3702 123.657 82.3436 123.555C82.3171 123.452 82.2669 123.356 82.197 123.275C82.1271 123.194 82.0393 123.131 81.9405 123.089C81.8416 123.047 81.7343 123.028 81.6268 123.033C81.5193 123.039 81.4146 123.068 81.3206 123.12C81.2267 123.172 81.146 123.245 81.085 123.332C81.0239 123.42 80.984 123.52 80.9684 123.625C80.9528 123.73 80.9618 123.837 80.9949 123.938Z" fill="#263238"/>
<path d="M81.5098 121.234L83.0686 122.184C83.1267 121.997 83.124 121.797 83.0611 121.612C82.9981 121.427 82.878 121.266 82.7175 121.151C82.5285 121.052 82.3151 121.008 82.1016 121.022C81.8881 121.037 81.6831 121.11 81.5098 121.234Z" fill="#263238"/>
<path d="M75.6966 121.463L74.243 122.572C74.1676 122.392 74.15 122.193 74.1927 122.002C74.2354 121.811 74.3363 121.637 74.4818 121.505C74.6605 121.388 74.8687 121.322 75.0832 121.314C75.2977 121.307 75.5101 121.358 75.6966 121.463Z" fill="#263238"/>
<path opacity="0.2" d="M71.6919 132.271C71.3116 131.79 71.0409 131.235 70.8984 130.642C71.2489 131.36 71.8219 131.95 72.5346 132.326L72.6048 132.361C74.023 133.055 75.568 133.46 77.148 133.553V134.697C76.2343 134.621 75.3335 134.435 74.4656 134.142C73.3803 133.79 72.4185 133.141 71.6919 132.271Z" fill="black"/>
<path d="M182.635 29.0249C183.267 28.6644 183.779 28.9556 183.779 29.6696L183.821 45.136C183.802 45.5264 183.688 45.9066 183.49 46.2453C183.293 46.584 183.016 46.8714 182.684 47.084L145.615 68.2141L145.559 50.1897L182.635 29.0249Z" fill="#FDC70A"/>
<g opacity="0.3">
<path d="M182.635 29.0249C183.267 28.6644 183.779 28.9556 183.779 29.6696L183.821 45.136C183.802 45.5264 183.688 45.9066 183.49 46.2453C183.293 46.584 183.016 46.8714 182.684 47.084L145.615 68.2141L145.559 50.1897L182.635 29.0249Z" fill="white"/>
</g>
<path d="M181.283 41.8359V43.0768L153.975 58.6472V57.3993L181.283 41.8359Z" fill="white"/>
<path d="M165.08 53.7188L165.087 54.9666L153.979 61.2959V60.055L165.08 53.7188Z" fill="white"/>
<path d="M181.264 39.1875L181.271 40.4353L153.962 55.9987L153.955 54.7578L181.264 39.1875Z" fill="white"/>
<path d="M181.257 36.54L181.264 37.781L153.955 53.3513V52.1034L181.257 36.54Z" fill="white"/>
<path d="M173.956 36.8037L173.963 39.2925L153.95 50.6964L153.943 48.2145L173.956 36.8037Z" fill="white"/>
<path d="M134.645 45.7185C138.985 43.2436 143.332 42.6474 146.66 44.5192C152.783 47.9854 153.359 58.6822 147.994 69.3998L134.786 95.8194L121.444 84.5195C116.037 79.9371 116.529 68.5748 122.638 58.1761C125.966 52.5469 130.306 48.1726 134.645 45.7185Z" fill="#FDC70A"/>
<path d="M144.895 70.712C150.538 61.1251 150.553 50.7383 144.93 47.5125C139.307 44.2866 130.174 49.4432 124.531 59.0301C118.889 68.617 118.873 79.0038 124.496 82.2296C130.119 85.4555 139.252 80.2989 144.895 70.712Z" fill="#455A64"/>
<path d="M134.767 81.2415C138.447 79.1618 141.789 75.6955 144.331 71.6331C142.565 70.775 140.574 70.4748 138.629 70.7735L136.712 71.0508L130.554 72.2016L125.927 74.9122C124.082 75.9909 122.656 77.6478 121.875 79.6193C124.298 83.5778 129.157 84.4374 134.767 81.2415Z" fill="#FDC70A"/>
<path opacity="0.2" d="M134.767 81.2415C138.447 79.1618 141.789 75.6955 144.331 71.6331C142.565 70.775 140.574 70.4748 138.629 70.7735L136.712 71.0508L130.554 72.2016L125.927 74.9122C124.082 75.9909 122.656 77.6478 121.875 79.6193C124.298 83.5778 129.157 84.4374 134.767 81.2415Z" fill="white"/>
<path d="M123.971 60.0556C123.971 60.4092 124.028 60.7489 124.049 61.1232C124.14 62.0624 124.018 63.0098 123.691 63.8962C123.262 64.9153 122.413 65.7403 122.139 66.8079C122.013 67.3004 122.019 67.8169 122.158 68.3062C122.296 68.7956 122.561 69.2408 122.927 69.5979C123.293 69.955 123.747 70.2117 124.244 70.3424C124.741 70.4731 125.265 70.4735 125.762 70.3434C125.555 69.601 125.463 68.8321 125.488 68.0626C125.58 69.0956 126.619 69.8997 127.595 70.2464C128.607 70.5341 129.665 70.6259 130.713 70.5167L134.406 70.3781L138.711 70.2117C139.478 70.2273 140.241 70.0955 140.958 69.8235C141.554 69.5042 142.053 69.0342 142.405 68.4617C142.756 67.8892 142.948 67.2347 142.959 66.5652C142.937 65.1407 142.602 63.738 141.976 62.4543C142.898 61.536 143.471 60.3321 143.599 59.0454C143.727 57.7587 143.402 56.4678 142.678 55.3901C143.066 55.2391 143.393 54.968 143.611 54.6174C143.83 54.2669 143.927 53.8559 143.888 53.4462C143.849 53.0366 143.676 52.6504 143.396 52.3459C143.116 52.0414 142.743 51.8349 142.334 51.7575C141.631 51.7171 140.926 51.8161 140.262 52.0486C139.083 52.26 137.875 52.26 136.695 52.0486C135.509 51.8823 134.336 51.6258 133.184 51.5426C132.218 51.4538 131.244 51.5455 130.312 51.8129C127.768 54.2101 125.628 56.9926 123.971 60.0556Z" fill="#263238"/>
<path d="M136.709 68.3673V72.2425C136.709 72.2425 139.918 74.2668 138.57 75.3413C136.021 77.3656 130.551 72.2217 130.551 72.2217V65.7676L136.709 68.3673Z" fill="#FFA8A7"/>
<path opacity="0.3" d="M130.566 65.7676C131.514 68.5406 134.955 70.655 136.725 71.0709V68.3673L130.566 65.7676Z" fill="black"/>
<path d="M131.307 61.3445C131.389 61.8276 131.413 62.3187 131.377 62.8073C131.324 63.177 131.152 63.52 130.885 63.7848C130.754 63.908 130.596 63.9988 130.422 64.0494C130.249 64.1 130.066 64.1091 129.888 64.0759C129.974 63.5991 129.873 63.1077 129.606 62.7016C129.339 62.2955 128.925 62.0051 128.448 61.8895C127.972 61.7739 127.468 61.8417 127.041 62.0791C126.613 62.3165 126.293 62.7058 126.145 63.1678C126.061 63.5071 126.054 63.8604 126.123 64.2029C126.192 64.5454 126.336 64.8689 126.546 65.1504C126.97 65.7122 127.523 66.1661 128.161 66.4746C128.522 66.5944 128.915 66.585 129.271 66.4482C129.626 66.3114 129.922 66.0557 130.106 65.7258C131.981 68.069 135.253 69.8368 138.322 69.5803C139.161 69.536 139.97 69.2545 140.653 68.7692C141.811 67.8818 141.896 66.5439 142.057 65.2267C142.274 63.5551 142.262 61.8623 142.022 60.1937C141.708 57.8611 140.566 55.7142 138.799 54.1348C137.732 59.1539 133.083 60.991 131.307 61.3445Z" fill="#FFA8A7"/>
<path d="M137.686 60.7891L139.785 63.3471L137.833 64.0057L137.686 60.7891Z" fill="#F28F8F"/>
<path d="M136.043 65.2539L137.679 65.7669C137.574 65.957 137.408 66.1076 137.207 66.1953C137.007 66.2831 136.782 66.3031 136.569 66.2522C136.378 66.1716 136.221 66.028 136.125 65.846C136.029 65.664 136 65.4548 136.043 65.2539Z" fill="#F28F8F"/>
<path opacity="0.3" d="M136.043 65.2539L137.679 65.7669C137.574 65.957 137.408 66.1076 137.207 66.1953C137.007 66.2831 136.782 66.3031 136.569 66.2522C136.378 66.1716 136.221 66.028 136.125 65.846C136.029 65.664 136 65.4548 136.043 65.2539Z" fill="black"/>
<path d="M137.103 66.2323C136.929 66.2841 136.744 66.2841 136.57 66.2323C136.423 66.1792 136.296 66.0854 136.203 65.9622C136.109 65.8391 136.054 65.6918 136.043 65.5382C136.261 65.5036 136.485 65.5453 136.675 65.6562C136.782 65.7193 136.874 65.8027 136.948 65.9016C137.021 66.0006 137.074 66.113 137.103 66.2323Z" fill="#F28F8F"/>
<path d="M134.799 61.3449C134.802 61.4202 134.82 61.4942 134.852 61.5626C134.884 61.631 134.929 61.6925 134.985 61.7434C135.042 61.7944 135.107 61.8338 135.179 61.8594C135.251 61.885 135.327 61.8963 135.403 61.8926C135.519 61.8883 135.63 61.8503 135.724 61.7833C135.817 61.7164 135.889 61.6235 135.929 61.5164C135.968 61.4094 135.975 61.2931 135.948 61.1822C135.921 61.0714 135.861 60.971 135.776 60.8938C135.691 60.8167 135.584 60.7662 135.47 60.7489C135.356 60.7315 135.239 60.7481 135.135 60.7964C135.03 60.8448 134.942 60.9227 134.883 61.0204C134.823 61.118 134.794 61.231 134.799 61.3449Z" fill="#263238"/>
<path d="M139.672 60.9221C139.678 61.0357 139.718 61.1451 139.786 61.2365C139.855 61.3279 139.949 61.3971 140.058 61.4354C140.166 61.4738 140.284 61.4796 140.396 61.452C140.507 61.4244 140.608 61.3648 140.686 61.2806C140.763 61.1964 140.814 61.0914 140.831 60.9789C140.848 60.8664 140.831 60.7514 140.782 60.6485C140.733 60.5456 140.654 60.4594 140.555 60.4008C140.456 60.3421 140.342 60.3137 140.227 60.319C140.073 60.328 139.929 60.3961 139.825 60.5088C139.721 60.6216 139.667 60.7699 139.672 60.9221Z" fill="#263238"/>
<path d="M140.137 58.6063L141.471 59.4313C141.519 59.2703 141.516 59.0987 141.464 58.9391C141.411 58.7794 141.311 58.6393 141.176 58.537C141.013 58.4529 140.83 58.4148 140.646 58.427C140.463 58.4393 140.287 58.5013 140.137 58.6063Z" fill="#263238"/>
<path d="M135.151 58.7585L133.901 59.6944C133.838 59.5398 133.825 59.3701 133.863 59.2078C133.9 59.0455 133.987 58.8984 134.112 58.7862C134.265 58.6854 134.443 58.6293 134.627 58.6244C134.811 58.6195 134.993 58.666 135.151 58.7585Z" fill="#263238"/>
<path d="M197.855 169.828C190.664 174.757 182.561 178.147 176.55 184.782C165.315 197.135 165.069 217.011 173.882 231.139C182.694 245.268 199.091 253.753 215.782 255.694C233.295 257.732 251.671 252.921 265.406 242.044C279.141 231.167 287.877 214.085 287.877 196.671C287.877 179.257 278.832 161.932 264.065 152.421C250.59 143.742 231.23 141.267 217.72 151.194C210.888 156.213 206.33 163.624 199.512 168.657C198.964 169.059 198.41 169.447 197.855 169.828Z" fill="#FDC70A"/>
<path opacity="0.3" d="M197.855 169.828C190.664 174.757 182.561 178.147 176.55 184.782C165.315 197.135 165.069 217.011 173.882 231.139C182.694 245.268 199.091 253.753 215.782 255.694C233.295 257.732 251.671 252.921 265.406 242.044C279.141 231.167 287.877 214.085 287.877 196.671C287.877 179.257 278.832 161.932 264.065 152.421C250.59 143.742 231.23 141.267 217.72 151.194C210.888 156.213 206.33 163.624 199.512 168.657C198.964 169.059 198.41 169.447 197.855 169.828Z" fill="#A5A5A4"/>
<path opacity="0.1" d="M200.788 242.197C200.788 242.079 200.788 241.961 200.838 241.843C201.436 237.994 203.235 234.424 205.985 231.632C208.736 228.84 212.299 226.964 216.181 226.266C223.128 224.956 229.785 222.44 235.842 218.834C240.133 216.269 244.191 213.129 249.015 211.736C253.703 210.408 258.708 210.697 263.207 212.554C259.162 208.353 252.217 206.509 246.67 208.394C250.511 202.592 253.889 196.339 255.209 189.531C256.529 182.723 255.595 175.257 251.438 169.669C249.665 167.289 247.379 165.326 244.745 163.922C242.111 162.519 239.195 161.709 236.206 161.551C233.217 161.393 230.23 161.891 227.459 163.01C224.689 164.128 222.204 165.839 220.183 168.019C216.068 172.47 213.744 178.723 211.055 184.131C209.109 188.006 207.101 191.978 203.899 194.931C199.068 199.396 192.123 201.004 187.11 205.275C181.436 210.127 178.985 217.85 178.957 225.254C179.051 230.25 179.789 235.215 181.155 240.027C187.028 245.559 194.031 249.788 201.694 252.429C200.577 249.137 200.267 245.63 200.788 242.197Z" fill="black"/>
<path d="M278.478 194.287C278.255 182.266 273.721 170.713 265.683 161.68C257.645 152.648 246.623 146.722 234.577 144.956C232.905 145.119 231.246 145.395 229.612 145.781C242.277 146.446 254.217 151.821 263.031 160.823C271.845 169.826 276.88 181.79 277.123 194.308C277.439 210.509 269.399 227.023 255.643 238.482C244.857 247.494 230.525 253.414 214.768 255.564L215.779 255.688C217.183 255.855 218.588 255.973 220.041 256.049C234.036 253.366 246.725 247.667 256.52 239.508C270.599 227.792 278.808 210.891 278.478 194.287Z" fill="white"/>
<path d="M181.506 239.168C182.001 241.732 182.282 244.331 182.348 246.94L184.216 246.246C185.098 245.924 186.056 245.862 186.973 246.069C187.89 246.275 188.725 246.742 189.378 247.411L189.469 247.508C189.803 247.852 190.258 248.056 190.741 248.078C191.223 248.1 191.695 247.938 192.06 247.626C192.256 247.458 192.414 247.252 192.525 247.02C192.636 246.789 192.698 246.537 192.706 246.281L192.959 238.44L181.506 239.168Z" fill="#916160"/>
<path d="M188.708 268.333C184.832 272.423 177.698 276.001 172.516 272.493L173.098 273.789C178.281 277.255 185.415 273.706 189.291 269.63C193.167 265.553 190.653 262.697 194.136 259.071C195.451 257.827 196.481 256.319 197.156 254.649C197.001 254.26 196.854 253.747 196.671 253.165C195.916 254.868 194.863 256.426 193.561 257.768C190.078 261.408 192.584 264.243 188.708 268.333Z" fill="white"/>
<path d="M194.763 248.893C194.167 248.062 193.751 247.118 193.541 246.12C193.507 245.887 193.42 245.664 193.288 245.467C193.155 245.27 192.981 245.105 192.776 244.983L192.734 246.294C192.721 246.659 192.6 247.012 192.386 247.31C192.171 247.608 191.873 247.836 191.527 247.967C191.182 248.098 190.805 248.126 190.444 248.046C190.082 247.967 189.753 247.784 189.496 247.521L189.405 247.424C188.751 246.749 187.91 246.279 186.988 246.072C186.065 245.865 185.101 245.93 184.216 246.259L182.32 246.952C182.035 247.056 181.79 247.246 181.62 247.495C181.45 247.744 181.363 248.039 181.372 248.339C181.491 253.704 178.956 260.817 176.295 264.741C173.556 265.864 171.19 269.545 172.398 272.249L172.517 272.519C177.699 275.985 184.834 272.429 188.71 268.36C192.586 264.29 190.072 261.427 193.562 257.802C194.864 256.459 195.917 254.901 196.673 253.198C196.242 251.683 195.599 250.234 194.763 248.893Z" fill="#FDC70A"/>
<path d="M187.179 256.645C187.333 256.707 187.505 256.709 187.661 256.652C187.817 256.596 187.946 256.483 188.022 256.338C188.099 256.192 188.117 256.023 188.074 255.864C188.031 255.706 187.93 255.569 187.79 255.48C186.654 254.847 185.373 254.515 184.068 254.515C182.764 254.515 181.482 254.847 180.347 255.48C180.227 255.903 180.108 256.326 179.975 256.742C181.064 256.11 182.301 255.769 183.564 255.752C184.827 255.735 186.073 256.043 187.179 256.645Z" fill="white"/>
<path d="M188.134 253.739C188.29 253.819 188.471 253.835 188.638 253.783C188.805 253.731 188.945 253.616 189.026 253.462C189.107 253.309 189.123 253.13 189.07 252.964C189.017 252.799 188.9 252.662 188.745 252.582C187.558 251.943 186.226 251.613 184.875 251.624C183.523 251.635 182.197 251.986 181.021 252.644C180.944 253.081 180.852 253.518 180.754 253.954C182.994 252.783 185.269 252.311 188.134 253.739Z" fill="white"/>
<path d="M186.132 259.529C186.287 259.609 186.469 259.624 186.636 259.572C186.803 259.52 186.943 259.405 187.024 259.251C187.105 259.098 187.121 258.919 187.068 258.754C187.015 258.589 186.898 258.451 186.743 258.371C185.633 257.752 184.383 257.42 183.108 257.407C181.834 257.393 180.577 257.699 179.454 258.295C179.292 258.752 179.117 259.196 178.941 259.633C180.029 259.003 181.262 258.662 182.523 258.644C183.783 258.626 185.027 258.931 186.132 259.529Z" fill="white"/>
<path d="M176.295 264.735C173.556 265.858 171.19 269.539 172.398 272.242L172.517 272.513C177.629 275.979 184.623 272.513 188.534 268.513C185.269 262.197 178.451 263.771 176.295 264.735Z" fill="white"/>
<path d="M184.988 262.385C185.144 262.459 185.324 262.47 185.489 262.414C185.653 262.358 185.789 262.241 185.866 262.087C185.945 261.936 185.961 261.76 185.909 261.598C185.858 261.436 185.744 261.3 185.592 261.22C184.48 260.601 183.228 260.271 181.952 260.26C180.676 260.249 179.418 260.558 178.296 261.158C178.064 261.657 177.825 262.135 177.594 262.6C179.841 261.387 182.123 260.915 184.988 262.385Z" fill="white"/>
<path d="M173.36 254.76C172.763 257.302 171.958 259.792 170.951 262.205L172.945 262.309C173.89 262.361 174.798 262.685 175.557 263.242C176.316 263.8 176.893 264.565 177.215 265.443L177.264 265.567C177.427 266.017 177.76 266.388 178.193 266.601C178.626 266.814 179.126 266.854 179.588 266.711C179.835 266.635 180.064 266.51 180.259 266.343C180.455 266.176 180.614 265.971 180.726 265.741L184.16 258.663L173.36 254.76Z" fill="#916160"/>
<path d="M168.031 284.327C162.813 286.524 154.822 286.954 151.508 281.692V283.121C154.822 288.375 162.813 287.973 168.031 285.748C173.248 283.523 172.11 279.952 176.78 278.018C178.493 277.407 180.053 276.438 181.351 275.176C181.351 274.76 181.443 274.233 181.513 273.623C180.125 274.882 178.523 275.889 176.78 276.597C172.11 278.531 173.227 282.122 168.031 284.327Z" fill="white"/>
<path d="M181.512 268.95C181.298 267.949 181.298 266.915 181.512 265.914C181.574 265.686 181.584 265.448 181.543 265.215C181.502 264.983 181.41 264.762 181.273 264.569L180.697 265.754C180.539 266.086 180.284 266.363 179.965 266.551C179.647 266.739 179.279 266.83 178.908 266.811C178.537 266.793 178.18 266.666 177.882 266.447C177.585 266.228 177.36 265.926 177.236 265.581L177.186 265.456C176.864 264.578 176.288 263.813 175.529 263.256C174.77 262.699 173.861 262.374 172.917 262.323L170.895 262.212C170.597 262.202 170.303 262.281 170.052 262.439C169.802 262.598 169.606 262.828 169.49 263.099C167.384 268.056 162.166 273.567 158.129 276.091C155.173 276.021 151.5 278.448 151.5 281.401V281.692C154.814 286.954 162.805 286.545 168.023 284.326C173.24 282.108 172.103 278.531 176.772 276.597C178.515 275.888 180.117 274.882 181.505 273.623C181.727 272.073 181.73 270.5 181.512 268.95Z" fill="#FDC70A"/>
<path d="M171.405 273.019C171.523 273.143 171.682 273.219 171.853 273.234C172.024 273.25 172.194 273.203 172.332 273.103C172.466 272.996 172.553 272.842 172.573 272.673C172.592 272.505 172.544 272.335 172.438 272.201C171.657 271.17 170.62 270.356 169.426 269.837C168.233 269.318 166.924 269.113 165.626 269.241C165.345 269.581 165.064 269.934 164.77 270.253C166.024 270.106 167.295 270.284 168.459 270.769C169.622 271.254 170.638 272.029 171.405 273.019Z" fill="white"/>
<path d="M173.466 270.745C173.584 270.868 173.743 270.945 173.913 270.96C174.084 270.975 174.255 270.928 174.393 270.828C174.527 270.722 174.614 270.568 174.633 270.399C174.653 270.23 174.604 270.061 174.498 269.927C173.674 268.865 172.588 268.029 171.344 267.498C170.101 266.966 168.74 266.757 167.392 266.891C167.139 267.265 166.879 267.625 166.605 267.993C169.154 267.813 171.43 268.291 173.466 270.745Z" fill="white"/>
<path d="M169.275 275.237C169.385 275.372 169.545 275.459 169.719 275.478C169.894 275.497 170.069 275.446 170.206 275.338C170.343 275.229 170.43 275.072 170.449 274.899C170.468 274.727 170.417 274.554 170.307 274.419C169.543 273.415 168.534 272.616 167.374 272.098C166.214 271.579 164.941 271.357 163.672 271.452C163.335 271.806 162.969 272.145 162.646 272.471C163.899 272.327 165.169 272.506 166.33 272.991C167.492 273.476 168.507 274.25 169.275 275.237Z" fill="white"/>
<path d="M158.137 276.09C155.18 276.021 151.508 278.447 151.508 281.401V281.692C154.773 286.877 162.574 286.544 167.792 284.416C167.392 277.338 160.51 276.063 158.137 276.09Z" fill="white"/>
<path d="M167.068 277.366C167.185 277.49 167.344 277.566 167.515 277.581C167.686 277.597 167.856 277.55 167.994 277.45C168.129 277.343 168.215 277.189 168.235 277.02C168.255 276.852 168.206 276.682 168.1 276.548C167.337 275.538 166.327 274.735 165.163 274.216C164 273.697 162.722 273.479 161.45 273.581C161.036 273.942 160.621 274.275 160.207 274.614C162.756 274.434 165.031 274.912 167.068 277.366Z" fill="white"/>
<path d="M204.01 187.764L177.895 202.128C175.528 203.43 173.634 205.433 172.481 207.855C171.328 210.277 170.975 212.995 171.47 215.625L176.54 242.579L172.383 255.619C175.964 260.367 184.201 260.603 184.201 260.603C188.793 251.508 192.164 247.646 194.776 240.028C197.388 232.409 199.123 227.147 199.123 227.147L220.814 221.296C225.773 219.965 230.215 217.196 233.566 213.348C236.917 209.5 239.022 204.749 239.612 199.708C239.977 196.464 239.998 194.252 239.998 194.252L204.01 187.764Z" fill="#37474F"/>
<path opacity="0.2" d="M204.212 195.009C204.214 197.886 205.249 200.668 207.133 202.863L188.672 214.253C185.976 215.929 183.981 218.509 183.055 221.519L176.531 242.579L182.416 219.12C183.089 216.423 184.809 214.095 187.205 212.638L204.219 202.239C202.492 197.955 204.212 195.009 204.212 195.009Z" fill="black"/>
<path d="M198.259 174.745C196.398 178.211 183.148 176.658 183.702 170.987C187.185 163.812 198.154 168.443 198.259 174.745Z" fill="#FDC70A"/>
<path d="M206.839 143.459H206.137C201.629 143.508 195.92 146.537 193.125 154.315L182.354 175.036L194.726 180.458L201.495 160.894L206.839 143.459Z" fill="#916160"/>
<path d="M198.156 157.212C197.292 159.659 197.236 162.301 197.103 164.886C196.969 167.472 196.66 170.606 195.459 172.907C194.137 172.004 192.554 171.547 190.947 171.604C189.34 171.662 187.794 172.231 186.541 173.226C185.646 173.969 184.956 174.923 184.533 175.999L194.694 180.45L201.463 160.886L204.827 150.113C203.292 150.798 201.911 151.779 200.765 152.998C199.62 154.217 198.733 155.65 198.156 157.212Z" fill="#7A4C4A"/>
<path d="M194.805 176.72C194.333 175.564 193.569 174.546 192.586 173.764C191.602 172.983 190.432 172.463 189.187 172.256C186.708 171.86 183.9 173.136 182.298 175.029C180.95 176.644 181.161 178.821 182.011 180.734C182.724 182.22 183.936 183.417 185.441 184.121C186.946 184.824 188.652 184.992 190.268 184.595C193.485 183.729 196.012 179.777 194.805 176.72Z" fill="#916160"/>
<path d="M206.839 143.457C201.446 142.868 194.578 144.151 183.701 170.986C190.112 164.705 198.258 174.744 198.258 174.744C202.913 163.943 211.143 145.87 211.143 145.87L206.839 143.457Z" fill="#FDC70A"/>
<path opacity="0.2" d="M206.839 143.457C201.446 142.868 194.578 144.151 183.701 170.986C190.112 164.705 198.258 174.744 198.258 174.744C202.913 163.943 211.143 145.87 211.143 145.87L206.839 143.457Z" fill="white"/>
<path d="M242.676 206.176C232.213 214.759 210.838 193.989 199.371 190.287C202.882 182.377 202.882 175.16 202.18 167.181C201.478 159.202 196.731 145.24 205.754 143.611C217.804 141.288 223.892 143.424 233.73 145.947C247.844 166.023 243.399 191.195 242.676 206.176Z" fill="#FDC70A"/>
<path opacity="0.7" d="M242.676 206.176C232.213 214.759 210.838 193.989 199.371 190.287C202.882 182.377 202.882 175.16 202.18 167.181C201.478 159.202 196.731 145.24 205.754 143.611C217.804 141.288 223.892 143.424 233.73 145.947C247.844 166.023 243.399 191.195 242.676 206.176Z" fill="#FDD23B"/>
<path d="M210.996 139.576L211.467 144.734C211.49 145.134 211.387 145.531 211.172 145.871C210.881 146.409 210.768 147.023 210.85 147.628C210.932 148.232 211.204 148.796 211.628 149.24C212.302 149.742 213.122 150.017 213.966 150.023C215.559 150.106 217.152 149.857 218.64 149.29C220.129 148.724 221.479 147.854 222.604 146.737C222.835 146.504 223.016 146.228 223.137 145.924C223.258 145.62 223.315 145.295 223.306 144.969L222.962 131.881L210.996 139.576Z" fill="#916160"/>
<path d="M222.943 131.881L211.006 139.576L211.42 144.151C213.955 143.562 216.504 142.841 218.505 141.233C221.047 139.188 223.287 137.156 222.943 131.881Z" fill="#7A4C4A"/>
<path d="M226.594 123.957C227.788 122.573 228.383 120.78 228.251 118.966C228.038 117.087 227.119 115.355 225.674 114.113C226.164 113.221 226.382 112.207 226.302 111.195C226.222 110.183 225.848 109.215 225.224 108.408C224.555 107.647 223.677 107.095 222.696 106.818C221.715 106.541 220.673 106.552 219.698 106.848C219.144 106.087 218.427 105.456 217.598 105C216.769 104.543 215.849 104.273 214.902 104.207C213.006 104.082 211.117 104.415 209.832 105.787C209.081 105.341 208.236 105.07 207.362 104.996C206.488 104.921 205.608 105.045 204.79 105.358C203.95 105.724 203.2 106.266 202.594 106.947C201.988 107.629 201.539 108.432 201.279 109.302C200.344 109.127 199.38 109.189 198.476 109.482C197.572 109.776 196.758 110.291 196.111 110.98C194.84 112.366 194.426 115.015 194.988 116.803C194.599 117.374 194.336 118.019 194.216 118.697C194.097 119.374 194.123 120.069 194.293 120.736C194.463 121.403 194.774 122.027 195.204 122.568C195.635 123.108 196.176 123.554 196.792 123.874C196.616 125.267 196.925 126.677 197.67 127.873C198.414 129.069 199.548 129.979 200.886 130.453C201.327 131.519 202.024 132.463 202.915 133.206C203.806 133.948 204.867 134.467 206.005 134.717C208.356 135.119 210.771 134.928 213.027 134.162C218.532 132.498 222.809 128.283 226.594 123.957Z" fill="#263238"/>
<path d="M215.034 117.496C215.214 118.366 215.535 119.201 215.982 119.971C216.245 120.429 216.61 120.821 217.049 121.119C217.488 121.417 217.99 121.612 218.517 121.69C218.637 121.708 218.748 121.765 218.832 121.851C218.916 121.938 218.968 122.049 218.981 122.169L219.57 126.508C219.567 126.772 219.624 127.034 219.735 127.273C219.847 127.513 220.011 127.725 220.216 127.895C220.439 127.997 220.687 128.031 220.929 127.991C221.171 127.952 221.395 127.841 221.572 127.673C221.919 127.344 222.194 126.947 222.379 126.508C222.771 125.569 223.298 124.691 223.945 123.902C224.271 123.508 224.678 123.188 225.139 122.963C225.601 122.738 226.106 122.614 226.621 122.598C228.299 122.64 229.577 124.29 229.752 125.94C229.835 126.791 229.7 127.649 229.362 128.435C229.024 129.222 228.492 129.913 227.814 130.446C227.115 130.939 226.302 131.25 225.449 131.351C224.596 131.451 223.731 131.338 222.934 131.021C223.692 133.891 222.176 136.969 219.908 138.917C217.639 140.865 214.753 141.919 211.931 142.931C210.386 143.486 208.75 144.04 207.142 143.749C205.827 143.456 204.648 142.739 203.792 141.711C202.953 140.684 202.26 139.548 201.735 138.335C199.165 132.858 197.71 126.937 197.451 120.907C199.719 120.623 213.749 117.995 215.034 117.496Z" fill="#916160"/>
<path d="M207.229 128.422L204.855 134.592L208.998 134.64L207.229 128.422Z" fill="#F28F8F"/>
<path d="M207.229 128.422L204.855 134.592L208.998 134.64L207.229 128.422Z" fill="#7A4C4A"/>
<path d="M213.196 135.896L210.387 137.885C210.709 138.18 211.119 138.364 211.556 138.409C211.993 138.454 212.433 138.358 212.809 138.135C213.124 137.862 213.334 137.49 213.405 137.083C213.475 136.675 213.401 136.256 213.196 135.896Z" fill="#F28F8F"/>
<path opacity="0.4" d="M213.196 135.896L210.387 137.885C210.709 138.18 211.119 138.364 211.556 138.409C211.993 138.454 212.433 138.358 212.809 138.135C213.124 137.862 213.334 137.49 213.405 137.083C213.475 136.675 213.401 136.256 213.196 135.896Z" fill="black"/>
<path d="M211.796 138.412C212.163 138.422 212.524 138.326 212.835 138.134C213.087 137.931 213.272 137.658 213.367 137.351C213.461 137.044 213.462 136.716 213.369 136.408C212.932 136.482 212.534 136.699 212.239 137.025C211.911 137.412 211.752 137.91 211.796 138.412Z" fill="#F28F8F"/>
<path d="M213.063 127.646C213.124 127.865 213.118 128.097 213.045 128.313C212.973 128.528 212.837 128.718 212.655 128.858C212.473 128.997 212.254 129.081 212.024 129.097C211.795 129.114 211.565 129.063 211.365 128.951C211.165 128.839 211.002 128.671 210.899 128.468C210.795 128.266 210.754 128.037 210.782 127.811C210.81 127.586 210.904 127.373 211.054 127.201C211.204 127.028 211.402 126.903 211.624 126.842C211.772 126.801 211.927 126.789 212.079 126.807C212.232 126.825 212.379 126.873 212.513 126.948C212.647 127.023 212.764 127.123 212.859 127.243C212.953 127.362 213.023 127.499 213.063 127.646Z" fill="#263238"/>
<path d="M203.52 129.906C203.581 130.125 203.575 130.357 203.502 130.573C203.43 130.789 203.294 130.978 203.112 131.118C202.931 131.257 202.711 131.341 202.481 131.357C202.252 131.374 202.022 131.323 201.822 131.211C201.622 131.099 201.459 130.931 201.356 130.728C201.252 130.526 201.211 130.297 201.239 130.071C201.267 129.846 201.361 129.633 201.511 129.461C201.661 129.288 201.859 129.163 202.081 129.102C202.38 129.021 202.699 129.06 202.969 129.211C203.238 129.361 203.437 129.611 203.52 129.906Z" fill="#263238"/>
<path d="M201.166 125.815L199.158 128.206C198.962 127.931 198.857 127.603 198.857 127.267C198.857 126.931 198.962 126.603 199.158 126.328C199.411 126.067 199.733 125.88 200.088 125.79C200.443 125.699 200.816 125.708 201.166 125.815Z" fill="#263238"/>
<path d="M210.762 122.98L213.739 123.992C213.761 123.657 213.679 123.323 213.503 123.036C213.327 122.748 213.067 122.521 212.756 122.384C212.4 122.291 212.025 122.297 211.673 122.402C211.321 122.508 211.005 122.708 210.762 122.98Z" fill="#263238"/>
<path opacity="0.15" d="M207.571 195.729C207.571 195.729 207.571 195.729 207.571 195.688V195.653C207.574 195.639 207.574 195.625 207.571 195.612C207.568 195.598 207.568 195.584 207.571 195.57V195.528V195.487L199.369 180.582L198.26 181.837L206.356 196.728C206.408 196.811 206.444 196.902 206.461 196.998C206.468 197.027 206.469 197.056 206.463 197.085C206.457 197.114 206.444 197.141 206.426 197.164L207.536 195.903C207.542 195.885 207.542 195.865 207.536 195.847C207.539 195.831 207.539 195.815 207.536 195.799C207.554 195.779 207.566 195.755 207.571 195.729Z" fill="black"/>
<path opacity="0.2" d="M199.347 180.513V180.471V180.423L199.312 180.381C199.313 180.365 199.313 180.349 199.312 180.333V180.284L199.27 180.236L199.235 180.187L199.2 180.145L199.164 180.104V180.069V180.035L199.052 179.931H199.01H198.968L198.926 179.896H198.877H198.827L198.771 179.861L189.46 174.69H189.404H189.355H189.299H189.249H189.2H189.151H189.102H189.053H189.004H188.828C188.802 174.688 188.776 174.693 188.752 174.702C188.728 174.712 188.706 174.726 188.688 174.745L187.578 176C187.627 175.944 187.719 175.931 187.852 175.951C188.033 175.998 188.205 176.07 188.365 176.166L197.676 181.338C197.858 181.443 198.034 181.559 198.202 181.685C198.381 181.818 198.552 181.962 198.715 182.114C198.872 182.26 199.019 182.415 199.157 182.579C199.272 182.716 199.375 182.862 199.466 183.016L200.576 181.761L199.347 180.513Z" fill="black"/>
<path d="M239.683 149.995C238.363 147.756 236.341 146.182 233.721 145.981L232.156 148.345C230.524 151.292 229.687 154.603 229.726 157.961L230.007 182.8L228.16 183.562C222.967 185.775 217.537 187.403 211.974 188.415C209.073 186.146 205.465 184.939 201.764 184.997L203.169 187.521C200.564 189.164 194.686 186.204 194.686 186.204C194.251 189.822 196.631 193.58 199.777 195.486C202.923 197.393 233.012 194.592 239.388 190.516C243.601 187.833 242.59 162.217 242.59 162.217C242.885 157.948 241.872 153.689 239.683 149.995Z" fill="#916160"/>
<path d="M188.305 178.676C188.108 179.656 187.993 180.651 187.961 181.65C188.198 184.024 189.22 186.255 190.868 188C191.208 188.381 191.633 188.678 192.111 188.867C192.352 188.958 192.613 188.986 192.868 188.947C193.123 188.908 193.363 188.804 193.564 188.645C193.918 188.226 194.099 187.691 194.07 187.147C194.145 186.343 194.101 185.533 193.937 184.742C193.764 183.946 193.308 183.237 192.652 182.745C192.138 182.451 191.591 182.219 191.023 182.052C190.464 181.82 189.966 181.464 189.569 181.012L188.305 178.676Z" fill="#916160"/>
<path d="M233.72 145.981C245.152 148.415 244.063 159.846 245.166 166.966C245.868 171.188 246.935 180.464 246.935 180.464C240.707 186.148 229.647 182.405 226.895 179.451C227.934 165.157 225.82 148.408 233.72 145.981Z" fill="#FDC70A"/>
<path opacity="0.2" d="M233.72 145.981C245.152 148.415 244.063 159.846 245.166 166.966C245.868 171.188 246.935 180.464 246.935 180.464C240.707 186.148 229.647 182.405 226.895 179.451C227.934 165.157 225.82 148.408 233.72 145.981Z" fill="white"/>
<path d="M207.573 195.729C207.573 195.729 207.573 195.729 207.573 195.688V195.653C207.576 195.639 207.576 195.625 207.573 195.611C207.57 195.598 207.57 195.584 207.573 195.57V195.528V195.487L199.371 180.582V180.54V180.499V180.45L199.336 180.409C199.338 180.392 199.338 180.376 199.336 180.36V180.311L199.294 180.263L199.259 180.214L199.224 180.173L199.189 180.131V180.097V180.062L199.076 179.958H199.034H198.992L198.95 179.923H198.901H198.852L198.796 179.889L189.484 174.717H189.428H189.379H189.323H189.274H189.225H189.175H189.126H189.077H189.028H188.852C188.826 174.716 188.8 174.72 188.776 174.73C188.752 174.739 188.73 174.754 188.712 174.772L187.603 176.027H187.638C187.546 176.097 187.539 176.242 187.673 176.485L195.776 191.376C196.227 192.065 196.838 192.638 197.56 193.046L206.871 198.218C207.355 198.481 207.643 198.488 207.678 198.294C207.678 198.294 207.678 198.364 207.678 198.377L208.788 197.116C208.794 197.098 208.794 197.078 208.788 197.06C208.791 197.044 208.791 197.028 208.788 197.012C208.873 196.933 208.942 196.838 208.99 196.733C209.038 196.629 209.065 196.515 209.069 196.4C209.073 196.285 209.054 196.17 209.013 196.062C208.972 195.954 208.91 195.855 208.83 195.771C208.75 195.687 208.654 195.619 208.548 195.571C208.442 195.523 208.327 195.497 208.21 195.493C208.094 195.489 207.977 195.508 207.868 195.549C207.759 195.589 207.658 195.651 207.573 195.729ZM186.57 174.759C186.57 174.759 186.605 174.759 186.634 174.759C186.612 174.757 186.591 174.757 186.57 174.759ZM197.251 180.693C197.335 180.769 197.426 180.831 197.504 180.908C197.433 180.831 197.342 180.769 197.258 180.693H197.251ZM206.45 196.998C206.444 196.892 206.41 196.789 206.351 196.7C206.403 196.783 206.439 196.874 206.457 196.97C206.457 196.97 206.457 196.984 206.457 196.998H206.45Z" fill="#E0E0E0"/>
<path d="M311.46 215.855L299.853 216.188L288.245 215.855C287.747 223.592 289.271 231.481 291.384 235.336C291.886 236.323 292.689 237.131 293.68 237.644C297.107 239.592 302.641 239.592 306.046 237.644C307.055 237.125 307.862 236.292 308.342 235.273C310.442 231.398 311.959 223.564 311.46 215.855Z" fill="white"/>
<path d="M308.048 211.162C312.598 213.755 312.619 217.956 308.104 220.549C303.589 223.142 296.23 223.142 291.687 220.549C287.144 217.956 287.115 213.755 291.631 211.162C296.146 208.57 303.484 208.57 308.048 211.162Z" fill="#EBEBEB"/>
<path d="M306.234 212.196C309.78 214.214 309.801 217.493 306.276 219.517C302.751 221.541 297.014 221.541 293.468 219.517C289.922 217.493 289.901 214.214 293.426 212.196C296.951 210.179 302.688 210.172 306.234 212.196Z" fill="#E0E0E0"/>
<g opacity="0.15">
<path d="M306.238 212.195C309.784 214.213 309.805 217.492 306.28 219.516C302.755 221.54 297.018 221.54 293.472 219.516C289.926 217.492 289.904 214.213 293.429 212.195C296.955 210.178 302.692 210.171 306.238 212.195Z" fill="black"/>
</g>
<path d="M318.938 166.954C292.774 175.412 292.543 192.687 298.441 204.993C299.923 207.481 304.424 208.819 308.342 193.512L301.475 194.386L309.48 190.379L311.586 184.244L304.915 184.729L313.384 181.214C314.936 176.353 316.791 171.59 318.938 166.954Z" fill="#FDC70A"/>
<path opacity="0.2" d="M318.938 166.954C292.774 175.412 292.543 192.687 298.441 204.993C299.923 207.481 304.424 208.819 308.342 193.512L301.475 194.386L309.48 190.379L311.586 184.244L304.915 184.729L313.384 181.214C314.936 176.353 316.791 171.59 318.938 166.954Z" fill="black"/>
<path opacity="0.2" d="M318.938 166.954C292.774 175.412 292.543 192.687 298.441 204.993C299.923 207.481 304.424 208.819 308.342 193.512L301.475 194.386L309.48 190.379L311.586 184.244L304.915 184.729L313.384 181.214C314.936 176.353 316.791 171.59 318.938 166.954Z" fill="white"/>
<path d="M311.558 171.273C297.767 181.61 296.517 193.457 300.414 205.832C299.017 194.941 297.514 183.925 311.558 171.273Z" fill="white"/>
<path d="M274.629 184.5C300.414 188.084 303.545 204.14 300.119 216.563C299.157 219.128 295.203 221.11 288.968 207.502L295.512 207.19L287.381 204.771L284.411 199.391L290.73 198.753L282.248 196.868C279.968 192.594 277.424 188.464 274.629 184.5Z" fill="#FDC70A"/>
<path opacity="0.2" d="M274.629 184.5C300.414 188.084 303.545 204.14 300.119 216.563C299.157 219.128 295.203 221.11 288.968 207.502L295.512 207.19L287.381 204.771L284.411 199.391L290.73 198.753L282.248 196.868C279.968 192.594 277.424 188.464 274.629 184.5Z" fill="white"/>
<path opacity="0.1" d="M274.629 184.5C300.414 188.084 303.545 204.14 300.119 216.563C299.157 219.128 295.203 221.11 288.968 207.502L295.512 207.19L287.381 204.771L284.411 199.391L290.73 198.753L282.248 196.868C279.968 192.594 277.424 188.464 274.629 184.5Z" fill="black"/>
<path d="M282.248 187.314C296.812 194.677 299.986 205.54 298.441 217.672C297.893 207.301 297.423 196.798 282.248 187.314Z" fill="white"/>
<path d="M326.483 190.518C302.833 190.899 298.192 205.02 299.87 216.598C300.446 219.017 303.802 221.242 310.951 209.665L305.087 208.66L312.692 207.377L315.978 202.857L310.361 201.589L318.218 200.826C320.757 197.226 323.517 193.783 326.483 190.518Z" fill="#FDC70A"/>
<path d="M319.285 192.209C305.304 197.235 301.231 206.649 301.252 217.783C302.937 208.493 304.538 199.079 319.285 192.209Z" fill="white"/>
<path opacity="0.2" d="M326.483 190.518C302.833 190.899 298.192 205.02 299.87 216.598C300.446 219.017 303.802 221.242 310.951 209.665L305.087 208.66L312.692 207.377L315.978 202.857L310.361 201.589L318.218 200.826C320.757 197.226 323.517 193.783 326.483 190.518Z" fill="white"/>
</svg>
