<svg width="324" height="282" viewBox="0 0 324 282" fill="none" xmlns="http://www.w3.org/2000/svg">
<path d="M11.9141 234.786L322.651 244.471" stroke="#263238" stroke-linecap="round" stroke-linejoin="round"/>
<path d="M11.9141 250.959L322.651 260.644" stroke="#263238" stroke-linecap="round" stroke-linejoin="round"/>
<path d="M11.9141 244.713L322.651 257.224" stroke="#263238" stroke-linecap="round" stroke-linejoin="round"/>
<path d="M5.56641 265.245L315.123 281.072" stroke="#263238" stroke-linecap="round" stroke-linejoin="round"/>
<path opacity="0.3" d="M195.437 8.2284C195.437 8.2284 191.982 0.590505 186.641 1.01724C181.301 1.44397 179.42 6.11329 177.85 9.50242C176.28 12.8915 175.653 10.7764 171.571 9.07569C167.489 7.37494 165.622 10.3497 164.661 13.3183C163.7 16.2869 164.034 14.1717 160.268 13.3183C156.502 12.4648 156.401 15.5076 153.985 17.1403C152.017 18.47 151.596 18.5257 149.408 17.7588C146.694 16.7692 145.807 17.598 145.18 19.2925H208.891C208.891 19.2925 207.683 12.4895 204.855 10.8074C202.027 9.12516 198.26 12.471 195.437 8.2284Z" stroke="black" stroke-miterlimit="10"/>
<path opacity="0.3" d="M83.1066 25.2415C83.1066 25.2415 81.1845 20.9865 78.2099 21.2215C75.2353 21.4566 74.1919 24.0479 73.3178 25.9465C72.4437 27.8452 72.0959 26.6578 69.8215 25.7115C67.547 24.7653 66.5036 26.4227 65.9774 28.074C65.4511 29.7253 65.6296 28.544 63.529 28.074C61.4285 27.604 61.3827 29.3109 60.0373 30.2015C58.939 30.9374 58.7056 30.9684 57.4974 30.5293C55.9872 29.9727 55.493 30.4365 55.1406 31.3827H90.5934C90.5934 31.3827 89.9207 27.604 88.3464 26.6578C86.7722 25.7115 84.6762 27.604 83.1066 25.2415Z" stroke="black" stroke-miterlimit="10"/>
<path opacity="0.3" d="M302.644 40.2518C302.644 40.2518 301.189 37.0359 298.942 37.2152C296.695 37.3946 295.898 39.3551 295.239 40.7837C294.58 42.2123 294.324 41.3218 292.594 40.6105C290.865 39.8993 290.082 41.1424 289.688 42.3917C289.295 43.641 289.423 42.7504 287.835 42.3917C286.247 42.033 286.21 43.3132 285.194 43.9997C284.366 44.5625 284.188 44.5872 283.272 44.2532C282.128 43.8327 281.758 44.179 281.492 44.8717H308.305C308.305 44.8717 307.797 42.0144 306.607 41.297C305.417 40.5796 303.834 42.0392 302.644 40.2518Z" stroke="black" stroke-miterlimit="10"/>
<path opacity="0.3" d="M205.389 27.7035C205.389 27.7035 204.387 25.4895 202.84 25.6132C201.294 25.7368 200.744 27.0913 200.291 28.087C199.838 29.0827 199.651 28.458 198.461 27.9633C198.27 27.8505 198.064 27.7934 197.856 27.7956C197.648 27.7978 197.443 27.8593 197.254 27.976C197.065 28.0928 196.896 28.2621 196.759 28.4731C196.621 28.684 196.518 28.9318 196.456 29.2002C196.186 30.0598 196.273 29.4476 195.184 29.2002C194.095 28.9528 194.063 29.8186 193.354 30.3072C193.162 30.485 192.94 30.5941 192.709 30.6244C192.478 30.6547 192.244 30.6052 192.031 30.4804C191.244 30.1897 190.988 30.4309 190.805 30.9195H209.27C209.27 30.9195 208.922 28.9528 208.103 28.4457C207.284 27.9385 206.209 28.9342 205.389 27.7035Z" stroke="black" stroke-miterlimit="10"/>
<g opacity="0.3">
<path d="M34.4609 196.189H46.2953V51.5698H77.4189V120.404H84.1095V205.917H91.8252V78.2685H106.231V26.541H129.383V121.789H138.128V83.9026H157.679V92.2455H174.4V204.878H181.086V184.364H199.351V204.532H208.096V103.019H237.677V198.273H246.166V65.4727H256.458V41.1427H261.602V27.2337H269.835V117.274H283.212V203.14H293.499" stroke="black" stroke-miterlimit="10"/>
<path d="M77.4205 47.0498H46.2969V51.5707H77.4205V47.0498Z" stroke="black" stroke-miterlimit="10"/>
<path d="M106.232 78.2676H91.7383V80.5559H106.232V78.2676Z" stroke="black" stroke-miterlimit="10"/>
<path d="M129.384 26.541H106.164V28.7674H129.384V26.541Z" stroke="black" stroke-miterlimit="10"/>
<path d="M143.351 79.1775H139.969V83.8963H143.351V79.1775Z" stroke="black" stroke-miterlimit="10"/>
<path d="M152.142 81.1567H150.453V83.8965H152.142V81.1567Z" stroke="black" stroke-miterlimit="10"/>
<path d="M174.456 92.2461H157.68V95.0168H174.456V92.2461Z" stroke="black" stroke-miterlimit="10"/>
<path d="M237.671 100.954H208.094V103.019H237.671V100.954Z" stroke="black" stroke-miterlimit="10"/>
<path d="M227.423 96.8401H215.703V100.953H227.423V96.8401Z" stroke="black" stroke-miterlimit="10"/>
<path d="M224.941 96.9957V93.186H233.504V100.799" stroke="black" stroke-miterlimit="10"/>
<path d="M168.492 91.1073V60.3331H195.602V85.8319H204.924V42.4536H234.853V94.917H244.18" stroke="black" stroke-miterlimit="10"/>
<path d="M148.969 75.8628V41.8665H130.531" stroke="black" stroke-miterlimit="10"/>
<path d="M90.8524 84.3664H84.7796V60.624H78.9219" stroke="black" stroke-miterlimit="10"/>
<path d="M45.3046 77.9158H40.3164V170.238" stroke="black" stroke-miterlimit="10"/>
<path d="M253.289 60.9154V49.7832H255.893" stroke="black" stroke-miterlimit="10"/>
<path d="M270.859 50.0737H280.186V96.6742H296.015V150.603" stroke="black" stroke-miterlimit="10"/>
<path d="M110.314 33.0723H107.984V39.2259H110.314V33.0723Z" stroke="black" stroke-miterlimit="10"/>
<path d="M114.501 33.0723H112.172V39.2259H114.501V33.0723Z" stroke="black" stroke-miterlimit="10"/>
<path d="M118.693 33.0723H116.363V39.2259H118.693V33.0723Z" stroke="black" stroke-miterlimit="10"/>
<path d="M122.88 33.0723H120.551V39.2259H122.88V33.0723Z" stroke="black" stroke-miterlimit="10"/>
<path d="M127.064 33.0723H124.734V39.2259H127.064V33.0723Z" stroke="black" stroke-miterlimit="10"/>
<path d="M110.314 43.48H107.984V49.6336H110.314V43.48Z" stroke="black" stroke-miterlimit="10"/>
<path d="M114.501 43.48H112.172V49.6336H114.501V43.48Z" stroke="black" stroke-miterlimit="10"/>
<path d="M118.693 43.48H116.363V49.6336H118.693V43.48Z" stroke="black" stroke-miterlimit="10"/>
<path d="M122.88 43.48H120.551V49.6336H122.88V43.48Z" stroke="black" stroke-miterlimit="10"/>
<path d="M127.064 43.48H124.734V49.6336H127.064V43.48Z" stroke="black" stroke-miterlimit="10"/>
<path d="M110.314 53.8835H107.984V60.0372H110.314V53.8835Z" stroke="black" stroke-miterlimit="10"/>
<path d="M114.501 53.8835H112.172V60.0372H114.501V53.8835Z" stroke="black" stroke-miterlimit="10"/>
<path d="M118.693 53.8835H116.363V60.0372H118.693V53.8835Z" stroke="black" stroke-miterlimit="10"/>
<path d="M122.88 53.8835H120.551V60.0372H122.88V53.8835Z" stroke="black" stroke-miterlimit="10"/>
<path d="M127.064 53.8835H124.734V60.0372H127.064V53.8835Z" stroke="black" stroke-miterlimit="10"/>
<path d="M110.314 64.2852H107.984V70.4388H110.314V64.2852Z" stroke="black" stroke-miterlimit="10"/>
<path d="M114.501 64.2852H112.172V70.4388H114.501V64.2852Z" stroke="black" stroke-miterlimit="10"/>
<path d="M118.693 64.2852H116.363V70.4388H118.693V64.2852Z" stroke="black" stroke-miterlimit="10"/>
<path d="M122.88 64.2852H120.551V70.4388H122.88V64.2852Z" stroke="black" stroke-miterlimit="10"/>
<path d="M127.064 64.2852H124.734V70.4388H127.064V64.2852Z" stroke="black" stroke-miterlimit="10"/>
<path d="M110.314 74.6948H107.984V80.8484H110.314V74.6948Z" stroke="black" stroke-miterlimit="10"/>
<path d="M114.501 74.6948H112.172V80.8484H114.501V74.6948Z" stroke="black" stroke-miterlimit="10"/>
<path d="M118.693 74.6948H116.363V80.8484H118.693V74.6948Z" stroke="black" stroke-miterlimit="10"/>
<path d="M122.88 74.6948H120.551V80.8484H122.88V74.6948Z" stroke="black" stroke-miterlimit="10"/>
<path d="M127.064 74.6948H124.734V80.8484H127.064V74.6948Z" stroke="black" stroke-miterlimit="10"/>
<path d="M110.314 85.0955H107.984V91.2491H110.314V85.0955Z" stroke="black" stroke-miterlimit="10"/>
<path d="M114.501 85.0955H112.172V91.2491H114.501V85.0955Z" stroke="black" stroke-miterlimit="10"/>
<path d="M118.693 85.0955H116.363V91.2491H118.693V85.0955Z" stroke="black" stroke-miterlimit="10"/>
<path d="M122.88 85.0955H120.551V91.2491H122.88V85.0955Z" stroke="black" stroke-miterlimit="10"/>
<path d="M127.064 85.0955H124.734V91.2491H127.064V85.0955Z" stroke="black" stroke-miterlimit="10"/>
<path d="M96.0325 85.0955H93.7031V91.2491H96.0325V85.0955Z" stroke="black" stroke-miterlimit="10"/>
<path d="M100.22 85.0955H97.8906V91.2491H100.22V85.0955Z" stroke="black" stroke-miterlimit="10"/>
<path d="M104.411 85.0955H102.082V91.2491H104.411V85.0955Z" stroke="black" stroke-miterlimit="10"/>
<path d="M96.0325 95.2075H93.7031V101.361H96.0325V95.2075Z" stroke="black" stroke-miterlimit="10"/>
<path d="M100.22 95.2075H97.8906V101.361H100.22V95.2075Z" stroke="black" stroke-miterlimit="10"/>
<path d="M104.411 95.2075H102.082V101.361H104.411V95.2075Z" stroke="black" stroke-miterlimit="10"/>
<path d="M96.0325 105.32H93.7031V111.473H96.0325V105.32Z" stroke="black" stroke-miterlimit="10"/>
<path d="M100.22 105.32H97.8906V111.473H100.22V105.32Z" stroke="black" stroke-miterlimit="10"/>
<path d="M104.411 105.32H102.082V111.473H104.411V105.32Z" stroke="black" stroke-miterlimit="10"/>
<path d="M96.0325 115.432H93.7031V121.585H96.0325V115.432Z" stroke="black" stroke-miterlimit="10"/>
<path d="M100.22 115.432H97.8906V121.585H100.22V115.432Z" stroke="black" stroke-miterlimit="10"/>
<path d="M104.411 115.432H102.082V121.585H104.411V115.432Z" stroke="black" stroke-miterlimit="10"/>
<path d="M96.0325 125.544H93.7031V131.697H96.0325V125.544Z" stroke="black" stroke-miterlimit="10"/>
<path d="M100.22 125.544H97.8906V131.697H100.22V125.544Z" stroke="black" stroke-miterlimit="10"/>
<path d="M104.411 125.544H102.082V131.697H104.411V125.544Z" stroke="black" stroke-miterlimit="10"/>
<path d="M96.0325 135.655H93.7031V141.808H96.0325V135.655Z" stroke="black" stroke-miterlimit="10"/>
<path d="M100.22 135.655H97.8906V141.808H100.22V135.655Z" stroke="black" stroke-miterlimit="10"/>
<path d="M104.411 135.655H102.082V141.808H104.411V135.655Z" stroke="black" stroke-miterlimit="10"/>
<path d="M96.0325 145.766H93.7031V151.919H96.0325V145.766Z" stroke="black" stroke-miterlimit="10"/>
<path d="M100.22 145.766H97.8906V151.919H100.22V145.766Z" stroke="black" stroke-miterlimit="10"/>
<path d="M104.411 145.766H102.082V151.919H104.411V145.766Z" stroke="black" stroke-miterlimit="10"/>
<path d="M96.0325 155.878H93.7031V162.032H96.0325V155.878Z" stroke="black" stroke-miterlimit="10"/>
<path d="M100.22 155.878H97.8906V162.032H100.22V155.878Z" stroke="black" stroke-miterlimit="10"/>
<path d="M104.411 155.878H102.082V162.032H104.411V155.878Z" stroke="black" stroke-miterlimit="10"/>
<path d="M96.0325 165.99H93.7031V172.144H96.0325V165.99Z" stroke="black" stroke-miterlimit="10"/>
<path d="M100.22 165.99H97.8906V172.144H100.22V165.99Z" stroke="black" stroke-miterlimit="10"/>
<path d="M104.411 165.99H102.082V172.144H104.411V165.99Z" stroke="black" stroke-miterlimit="10"/>
<path d="M96.0325 176.101H93.7031V182.255H96.0325V176.101Z" stroke="black" stroke-miterlimit="10"/>
<path d="M100.22 176.101H97.8906V182.255H100.22V176.101Z" stroke="black" stroke-miterlimit="10"/>
<path d="M104.411 176.101H102.082V182.255H104.411V176.101Z" stroke="black" stroke-miterlimit="10"/>
<path d="M96.0325 186.213H93.7031V192.367H96.0325V186.213Z" stroke="black" stroke-miterlimit="10"/>
<path d="M100.22 186.213H97.8906V192.367H100.22V186.213Z" stroke="black" stroke-miterlimit="10"/>
<path d="M104.411 186.213H102.082V192.367H104.411V186.213Z" stroke="black" stroke-miterlimit="10"/>
<path d="M133.384 126.718H131.055V132.872H133.384V126.718Z" stroke="black" stroke-miterlimit="10"/>
<path d="M137.568 126.718H135.238V132.872H137.568V126.718Z" stroke="black" stroke-miterlimit="10"/>
<path d="M133.384 136.83H131.055V142.984H133.384V136.83Z" stroke="black" stroke-miterlimit="10"/>
<path d="M137.568 136.83H135.238V142.984H137.568V136.83Z" stroke="black" stroke-miterlimit="10"/>
<path d="M133.384 146.941H131.055V153.095H133.384V146.941Z" stroke="black" stroke-miterlimit="10"/>
<path d="M137.568 146.941H135.238V153.095H137.568V146.941Z" stroke="black" stroke-miterlimit="10"/>
<path d="M133.384 157.053H131.055V163.207H133.384V157.053Z" stroke="black" stroke-miterlimit="10"/>
<path d="M137.568 157.053H135.238V163.207H137.568V157.053Z" stroke="black" stroke-miterlimit="10"/>
<path d="M133.384 167.165H131.055V173.319H133.384V167.165Z" stroke="black" stroke-miterlimit="10"/>
<path d="M137.568 167.165H135.238V173.319H137.568V167.165Z" stroke="black" stroke-miterlimit="10"/>
<path d="M133.384 177.277H131.055V183.431H133.384V177.277Z" stroke="black" stroke-miterlimit="10"/>
<path d="M137.568 177.277H135.238V183.431H137.568V177.277Z" stroke="black" stroke-miterlimit="10"/>
<path d="M133.384 187.388H131.055V193.542H133.384V187.388Z" stroke="black" stroke-miterlimit="10"/>
<path d="M137.568 187.388H135.238V193.542H137.568V187.388Z" stroke="black" stroke-miterlimit="10"/>
<path d="M110.314 95.5051H107.984V101.659H110.314V95.5051Z" stroke="black" stroke-miterlimit="10"/>
<path d="M114.501 95.5051H112.172V101.659H114.501V95.5051Z" stroke="black" stroke-miterlimit="10"/>
<path d="M118.693 95.5051H116.363V101.659H118.693V95.5051Z" stroke="black" stroke-miterlimit="10"/>
<path d="M122.88 95.5051H120.551V101.659H122.88V95.5051Z" stroke="black" stroke-miterlimit="10"/>
<path d="M127.064 95.5051H124.734V101.659H127.064V95.5051Z" stroke="black" stroke-miterlimit="10"/>
<path d="M110.314 105.907H107.984V112.06H110.314V105.907Z" stroke="black" stroke-miterlimit="10"/>
<path d="M114.501 105.907H112.172V112.06H114.501V105.907Z" stroke="black" stroke-miterlimit="10"/>
<path d="M118.693 105.907H116.363V112.06H118.693V105.907Z" stroke="black" stroke-miterlimit="10"/>
<path d="M122.88 105.907H120.551V112.06H122.88V105.907Z" stroke="black" stroke-miterlimit="10"/>
<path d="M127.064 105.907H124.734V112.06H127.064V105.907Z" stroke="black" stroke-miterlimit="10"/>
<path d="M110.314 116.31H107.984V122.464H110.314V116.31Z" stroke="black" stroke-miterlimit="10"/>
<path d="M114.501 116.31H112.172V122.464H114.501V116.31Z" stroke="black" stroke-miterlimit="10"/>
<path d="M118.693 116.31H116.363V122.464H118.693V116.31Z" stroke="black" stroke-miterlimit="10"/>
<path d="M122.88 116.31H120.551V122.464H122.88V116.31Z" stroke="black" stroke-miterlimit="10"/>
<path d="M127.064 116.31H124.734V122.464H127.064V116.31Z" stroke="black" stroke-miterlimit="10"/>
<path d="M110.314 126.718H107.984V132.872H110.314V126.718Z" stroke="black" stroke-miterlimit="10"/>
<path d="M114.501 126.718H112.172V132.872H114.501V126.718Z" stroke="black" stroke-miterlimit="10"/>
<path d="M118.693 126.718H116.363V132.872H118.693V126.718Z" stroke="black" stroke-miterlimit="10"/>
<path d="M122.88 126.718H120.551V132.872H122.88V126.718Z" stroke="black" stroke-miterlimit="10"/>
<path d="M127.064 126.718H124.734V132.872H127.064V126.718Z" stroke="black" stroke-miterlimit="10"/>
<path d="M110.314 137.121H107.984V143.274H110.314V137.121Z" stroke="black" stroke-miterlimit="10"/>
<path d="M114.501 137.121H112.172V143.274H114.501V137.121Z" stroke="black" stroke-miterlimit="10"/>
<path d="M118.693 137.121H116.363V143.274H118.693V137.121Z" stroke="black" stroke-miterlimit="10"/>
<path d="M122.88 137.121H120.551V143.274H122.88V137.121Z" stroke="black" stroke-miterlimit="10"/>
<path d="M127.064 137.121H124.734V143.274H127.064V137.121Z" stroke="black" stroke-miterlimit="10"/>
<path d="M110.314 147.523H107.984V153.677H110.314V147.523Z" stroke="black" stroke-miterlimit="10"/>
<path d="M114.501 147.523H112.172V153.677H114.501V147.523Z" stroke="black" stroke-miterlimit="10"/>
<path d="M118.693 147.523H116.363V153.677H118.693V147.523Z" stroke="black" stroke-miterlimit="10"/>
<path d="M122.88 147.523H120.551V153.677H122.88V147.523Z" stroke="black" stroke-miterlimit="10"/>
<path d="M127.064 147.523H124.734V153.677H127.064V147.523Z" stroke="black" stroke-miterlimit="10"/>
<path d="M110.314 157.932H107.984V164.085H110.314V157.932Z" stroke="black" stroke-miterlimit="10"/>
<path d="M114.501 157.932H112.172V164.085H114.501V157.932Z" stroke="black" stroke-miterlimit="10"/>
<path d="M118.693 157.932H116.363V164.085H118.693V157.932Z" stroke="black" stroke-miterlimit="10"/>
<path d="M122.88 157.932H120.551V164.085H122.88V157.932Z" stroke="black" stroke-miterlimit="10"/>
<path d="M127.064 157.932H124.734V164.085H127.064V157.932Z" stroke="black" stroke-miterlimit="10"/>
<path d="M110.314 168.333H107.984V174.487H110.314V168.333Z" stroke="black" stroke-miterlimit="10"/>
<path d="M114.501 168.333H112.172V174.487H114.501V168.333Z" stroke="black" stroke-miterlimit="10"/>
<path d="M118.693 168.333H116.363V174.487H118.693V168.333Z" stroke="black" stroke-miterlimit="10"/>
<path d="M122.88 168.333H120.551V174.487H122.88V168.333Z" stroke="black" stroke-miterlimit="10"/>
<path d="M127.064 168.333H124.734V174.487H127.064V168.333Z" stroke="black" stroke-miterlimit="10"/>
<path d="M110.314 178.736H107.984V184.89H110.314V178.736Z" stroke="black" stroke-miterlimit="10"/>
<path d="M114.501 178.736H112.172V184.89H114.501V178.736Z" stroke="black" stroke-miterlimit="10"/>
<path d="M118.693 178.736H116.363V184.89H118.693V178.736Z" stroke="black" stroke-miterlimit="10"/>
<path d="M122.88 178.736H120.551V184.89H122.88V178.736Z" stroke="black" stroke-miterlimit="10"/>
<path d="M127.064 178.736H124.734V184.89H127.064V178.736Z" stroke="black" stroke-miterlimit="10"/>
<path d="M110.314 189.435H107.984V195.589H110.314V189.435Z" stroke="black" stroke-miterlimit="10"/>
<path d="M114.501 189.435H112.172V195.589H114.501V189.435Z" stroke="black" stroke-miterlimit="10"/>
<path d="M118.693 189.435H116.363V195.589H118.693V189.435Z" stroke="black" stroke-miterlimit="10"/>
<path d="M122.88 189.435H120.551V195.589H122.88V189.435Z" stroke="black" stroke-miterlimit="10"/>
<path d="M127.064 189.435H124.734V195.589H127.064V189.435Z" stroke="black" stroke-miterlimit="10"/>
<path d="M106.23 80.5566V205.998" stroke="black" stroke-miterlimit="10"/>
<path d="M141.812 86.4133V204.235" stroke="black" stroke-miterlimit="10"/>
<path d="M146.371 86.4133V204.235" stroke="black" stroke-miterlimit="10"/>
<path d="M150.922 86.4133V204.235" stroke="black" stroke-miterlimit="10"/>
<path d="M155.477 86.4133V204.235" stroke="black" stroke-miterlimit="10"/>
<path d="M160.031 98.1389V204.235" stroke="black" stroke-miterlimit="10"/>
<path d="M164.59 98.1389V204.235" stroke="black" stroke-miterlimit="10"/>
<path d="M169.141 98.1389V204.235" stroke="black" stroke-miterlimit="10"/>
<path d="M47.4766 58.2808H75.8864" stroke="black" stroke-miterlimit="10"/>
<path d="M47.4766 65.8987H75.8864" stroke="black" stroke-miterlimit="10"/>
<path d="M47.4766 73.5188H75.8864" stroke="black" stroke-miterlimit="10"/>
<path d="M47.4766 81.1387H75.8864" stroke="black" stroke-miterlimit="10"/>
<path d="M47.4766 88.7637H75.8864" stroke="black" stroke-miterlimit="10"/>
<path d="M47.4766 96.3828H75.8864" stroke="black" stroke-miterlimit="10"/>
<path d="M47.4766 104.003H75.8864" stroke="black" stroke-miterlimit="10"/>
<path d="M47.4766 111.622H75.8864" stroke="black" stroke-miterlimit="10"/>
<path d="M47.4766 119.241H75.8864" stroke="black" stroke-miterlimit="10"/>
<path d="M47.4766 126.861H75.8864" stroke="black" stroke-miterlimit="10"/>
<path d="M47.4766 134.486H75.8864" stroke="black" stroke-miterlimit="10"/>
<path d="M47.4766 142.106H75.8864" stroke="black" stroke-miterlimit="10"/>
<path d="M47.4766 149.725H75.8864" stroke="black" stroke-miterlimit="10"/>
<path d="M47.4766 157.344H75.8864" stroke="black" stroke-miterlimit="10"/>
<path d="M47.4766 164.964H75.8864" stroke="black" stroke-miterlimit="10"/>
<path d="M47.4766 172.583H75.8864" stroke="black" stroke-miterlimit="10"/>
<path d="M47.4766 180.202H75.8864" stroke="black" stroke-miterlimit="10"/>
<path d="M47.4766 187.828H75.8864" stroke="black" stroke-miterlimit="10"/>
<path d="M47.4766 195.448H75.8864" stroke="black" stroke-miterlimit="10"/>
<path d="M51.1602 46.8506V200.747" stroke="black" stroke-miterlimit="10"/>
<path d="M246.355 79.3826H252.643V83.4829H246.355" stroke="black" stroke-miterlimit="10"/>
<path d="M283.001 125.395H275.844V129.502H283.001" stroke="black" stroke-miterlimit="10"/>
<path d="M283.001 135.068H275.844V139.174H283.001" stroke="black" stroke-miterlimit="10"/>
<path d="M283.001 144.74H275.844V148.846H283.001" stroke="black" stroke-miterlimit="10"/>
<path d="M283.001 154.412H275.844V158.519H283.001" stroke="black" stroke-miterlimit="10"/>
<path d="M283.001 164.086H275.844V168.187H283.001" stroke="black" stroke-miterlimit="10"/>
<path d="M283.001 173.758H275.844V177.858H283.001" stroke="black" stroke-miterlimit="10"/>
<path d="M283.001 183.43H275.844V187.53H283.001" stroke="black" stroke-miterlimit="10"/>
<path d="M283.001 193.104H275.844V197.204H283.001" stroke="black" stroke-miterlimit="10"/>
<path d="M246.355 90.52H252.643V94.6204H246.355" stroke="black" stroke-miterlimit="10"/>
<path d="M246.355 101.658H252.643V105.759H246.355" stroke="black" stroke-miterlimit="10"/>
<path d="M246.355 112.797H252.643V116.897H246.355" stroke="black" stroke-miterlimit="10"/>
<path d="M246.355 123.928H252.643V128.035H246.355" stroke="black" stroke-miterlimit="10"/>
<path d="M246.355 135.068H252.643V139.174H246.355" stroke="black" stroke-miterlimit="10"/>
<path d="M246.355 146.205H252.643V150.312H246.355" stroke="black" stroke-miterlimit="10"/>
<path d="M246.355 157.344H252.643V161.45H246.355" stroke="black" stroke-miterlimit="10"/>
<path d="M246.355 168.482H252.643V172.583H246.355" stroke="black" stroke-miterlimit="10"/>
<path d="M246.355 179.62H252.643V183.72H246.355" stroke="black" stroke-miterlimit="10"/>
<path d="M236.372 106.056H209.047V109.575H236.372V106.056Z" stroke="black" stroke-miterlimit="10"/>
<path d="M236.372 112.209H209.047V115.728H236.372V112.209Z" stroke="black" stroke-miterlimit="10"/>
<path d="M236.372 118.363H209.047V121.882H236.372V118.363Z" stroke="black" stroke-miterlimit="10"/>
<path d="M236.372 124.516H209.047V128.035H236.372V124.516Z" stroke="black" stroke-miterlimit="10"/>
<path d="M236.372 130.67H209.047V134.189H236.372V130.67Z" stroke="black" stroke-miterlimit="10"/>
<path d="M236.372 136.83H209.047V140.349H236.372V136.83Z" stroke="black" stroke-miterlimit="10"/>
<path d="M236.372 142.983H209.047V146.502H236.372V142.983Z" stroke="black" stroke-miterlimit="10"/>
<path d="M236.372 149.137H209.047V152.656H236.372V149.137Z" stroke="black" stroke-miterlimit="10"/>
<path d="M236.372 155.29H209.047V158.809H236.372V155.29Z" stroke="black" stroke-miterlimit="10"/>
<path d="M236.372 161.444H209.047V164.963H236.372V161.444Z" stroke="black" stroke-miterlimit="10"/>
<path d="M236.372 167.604H209.047V171.123H236.372V167.604Z" stroke="black" stroke-miterlimit="10"/>
<path d="M236.372 173.758H209.047V177.277H236.372V173.758Z" stroke="black" stroke-miterlimit="10"/>
<path d="M236.372 179.911H209.047V183.43H236.372V179.911Z" stroke="black" stroke-miterlimit="10"/>
<path d="M236.372 186.065H209.047V189.584H236.372V186.065Z" stroke="black" stroke-miterlimit="10"/>
<path d="M236.372 192.218H209.047V195.737H236.372V192.218Z" stroke="black" stroke-miterlimit="10"/>
<path d="M236.372 198.378H209.047V201.897H236.372V198.378Z" stroke="black" stroke-miterlimit="10"/>
<path d="M236.372 204.531H209.047V208.05H236.372V204.531Z" stroke="black" stroke-miterlimit="10"/>
<path d="M256.539 69.7087V205.7" stroke="black" stroke-miterlimit="10"/>
<path d="M262.18 43.9194V205.701" stroke="black" stroke-miterlimit="10"/>
<path d="M197.337 174.636H183.672V184.309H197.337V174.636Z" stroke="black" stroke-miterlimit="10"/>
<path d="M194.083 157.634H186.926V174.636H194.083V157.634Z" stroke="black" stroke-miterlimit="10"/>
<path d="M129.383 121.795V205.763" stroke="black" stroke-miterlimit="10"/>
<path d="M207.857 112.586H174.684" stroke="black" stroke-miterlimit="10"/>
<path d="M207.857 117.596H174.684" stroke="black" stroke-miterlimit="10"/>
<path d="M181.225 121.356H176.164V126.365H181.225V121.356Z" stroke="black" stroke-miterlimit="10"/>
<path d="M187.468 121.356H182.406V126.365H187.468V121.356Z" stroke="black" stroke-miterlimit="10"/>
<path d="M193.706 121.356H188.645V126.365H193.706V121.356Z" stroke="black" stroke-miterlimit="10"/>
<path d="M199.948 121.356H194.887V126.365H199.948V121.356Z" stroke="black" stroke-miterlimit="10"/>
<path d="M206.19 121.356H201.129V126.365H206.19V121.356Z" stroke="black" stroke-miterlimit="10"/>
<path d="M181.225 129.118H176.164V134.127H181.225V129.118Z" stroke="black" stroke-miterlimit="10"/>
<path d="M187.468 129.118H182.406V134.127H187.468V129.118Z" stroke="black" stroke-miterlimit="10"/>
<path d="M193.706 129.118H188.645V134.127H193.706V129.118Z" stroke="black" stroke-miterlimit="10"/>
<path d="M199.948 129.118H194.887V134.127H199.948V129.118Z" stroke="black" stroke-miterlimit="10"/>
<path d="M206.19 129.118H201.129V134.127H206.19V129.118Z" stroke="black" stroke-miterlimit="10"/>
<path d="M181.225 136.885H176.164V141.895H181.225V136.885Z" stroke="black" stroke-miterlimit="10"/>
<path d="M187.468 136.885H182.406V141.895H187.468V136.885Z" stroke="black" stroke-miterlimit="10"/>
<path d="M193.706 136.885H188.645V141.895H193.706V136.885Z" stroke="black" stroke-miterlimit="10"/>
<path d="M199.948 136.885H194.887V141.895H199.948V136.885Z" stroke="black" stroke-miterlimit="10"/>
<path d="M206.19 136.885H201.129V141.895H206.19V136.885Z" stroke="black" stroke-miterlimit="10"/>
<path d="M181.225 150.912H176.164V155.922H181.225V150.912Z" stroke="black" stroke-miterlimit="10"/>
<path d="M187.468 150.912H182.406V155.922H187.468V150.912Z" stroke="black" stroke-miterlimit="10"/>
<path d="M193.706 150.912H188.645V155.922H193.706V150.912Z" stroke="black" stroke-miterlimit="10"/>
<path d="M199.948 150.912H194.887V155.922H199.948V150.912Z" stroke="black" stroke-miterlimit="10"/>
<path d="M206.19 150.912H201.129V155.922H206.19V150.912Z" stroke="black" stroke-miterlimit="10"/>
</g>
<path d="M321.749 125.581C321.749 148.464 307.265 167.017 289.403 167.017C271.542 167.017 257.062 148.464 257.062 125.581C257.062 102.698 271.565 69.5986 289.413 69.5986C307.26 69.5986 321.749 102.711 321.749 125.581Z" fill="#FDC70A"/>
<path opacity="0.32" d="M321.749 125.581C321.749 148.464 307.265 167.017 289.403 167.017C271.542 167.017 257.062 148.464 257.062 125.581C257.062 102.698 271.565 69.5986 289.413 69.5986C307.26 69.5986 321.749 102.711 321.749 125.581Z" fill="white"/>
<path d="M286.656 247.045L287.168 160.498L277.375 140.541L287.159 155.266V139.941L281.823 116.502L287.603 135.136L288.61 104.671L289.159 137.838L289.383 143.25L304.947 123.713L290.051 147.455L289.827 155.266L296.275 148.055L302.723 134.833L298.174 147.233L308.283 146.552L297.387 148.797L290.271 158.117L290.72 247.026L286.656 247.045Z" fill="#787878"/>
<path d="M47.937 148.358C47.937 165.31 37.2055 179.052 23.9662 179.052C10.7269 179.052 0 165.304 0 148.358C0 131.413 10.7178 106.866 23.9891 106.866C37.2604 106.866 47.937 131.406 47.937 148.358Z" fill="#FDC70A"/>
<path opacity="0.32" d="M47.937 148.358C47.937 165.31 37.2055 179.052 23.9662 179.052C10.7269 179.052 0 165.304 0 148.358C0 131.413 10.7178 106.866 23.9891 106.866C37.2604 106.866 47.937 131.406 47.937 148.358Z" fill="white"/>
<path d="M21.929 238.895L22.3088 174.229L15.0508 159.442L22.2997 170.351V158.997L18.3457 141.631L22.6292 155.434L23.3751 132.861L23.787 157.438L23.9517 161.446L35.4841 146.974L24.446 164.563L24.2812 170.351L29.0589 165.008L33.8366 155.212L30.4638 164.402L37.9553 163.895L29.8827 165.558L24.6107 172.46L24.9402 238.882L21.929 238.895Z" fill="#787878"/>
<path d="M250.343 137.703C250.343 158.328 237.282 175.051 221.173 175.051C205.065 175.051 192.004 158.353 192.004 137.703C192.004 117.053 205.065 87.2122 221.173 87.2122C237.282 87.2122 250.343 117.071 250.343 137.703Z" fill="#FDC70A"/>
<path opacity="0.32" d="M250.343 137.703C250.343 158.328 237.282 175.051 221.173 175.051C205.065 175.051 192.004 158.353 192.004 137.703C192.004 117.053 205.065 87.2122 221.173 87.2122C237.282 87.2122 250.343 117.071 250.343 137.703Z" fill="white"/>
<path d="M218.694 244.578L219.157 169.188L210.324 151.191L219.147 164.469V150.653L214.333 129.515L219.55 146.312L220.452 118.846L220.95 148.755L221.152 153.634L235.187 136.014L221.756 157.425L221.555 164.469L227.371 157.97L233.183 146.046L229.083 157.227L238.199 156.615L228.373 158.637L221.953 167.042L222.355 244.559L218.694 244.578Z" fill="#787878"/>
<path d="M263.502 244.583L238.529 239.981C238.529 239.981 236.241 222.887 229.45 216.969C222.658 211.05 209.991 207.989 206.568 217.847C203.145 227.705 204.28 234.718 204.28 234.718L98.887 225.732C98.887 225.732 95.9673 212.126 88.819 209.739C81.6708 207.352 80.3071 210.976 77.9137 215.719C75.5202 220.463 74.7377 230.686 74.7377 230.686L57.3477 231.434V240.414H73.5616L74.3716 254.02C74.3716 254.02 74.0512 254.898 75.9962 254.898H108.099L110.534 249.203L115.719 249.419C116.958 250.635 118.325 251.596 119.773 252.27C121.883 253.142 124.963 253.142 124.963 253.142L182.039 252.709L205.836 253.377C206.188 255.919 207.044 261.615 207.749 262.159C208.664 262.858 215.528 262.159 215.528 262.159L216.233 253.668L236.529 254.243L237.248 259.679L263.662 259.061L264.312 261.25L276.146 261.473V244.583H263.502Z" fill="#263238" stroke="#263238" stroke-linecap="round" stroke-linejoin="round"/>
<path d="M101.825 220.036H94.9235V226.901C93.1387 231.187 92.0312 237.118 92.0312 243.68C92.0312 250.241 93.1387 256.172 94.9235 260.458V267.342H101.843C107.257 267.342 111.65 256.748 111.65 243.68C111.65 230.612 107.238 220.036 101.825 220.036Z" fill="#263238" stroke="#263238" stroke-linecap="round" stroke-linejoin="round"/>
<path d="M94.9015 267.373C100.32 267.373 104.713 256.776 104.713 243.704C104.713 230.633 100.32 220.036 94.9015 220.036C89.4827 220.036 85.0898 230.633 85.0898 243.704C85.0898 256.776 89.4827 267.373 94.9015 267.373Z" fill="#263238" stroke="#263238" stroke-linecap="round" stroke-linejoin="round"/>
<path d="M94.9021 257.539C98.069 257.539 100.636 251.345 100.636 243.704C100.636 236.064 98.069 229.87 94.9021 229.87C91.7352 229.87 89.168 236.064 89.168 243.704C89.168 251.345 91.7352 257.539 94.9021 257.539Z" fill="white" stroke="#263238" stroke-linecap="round" stroke-linejoin="round"/>
<path d="M93.8696 220.036H86.9547V226.901C85.17 231.187 84.0625 237.118 84.0625 243.68C84.0625 250.241 85.17 256.172 86.9547 260.458V267.342H93.8696C99.2879 267.342 103.681 256.748 103.681 243.68C103.681 230.612 99.2879 220.036 93.8696 220.036Z" fill="#263238" stroke="#263238" stroke-linecap="round" stroke-linejoin="round"/>
<path d="M86.9601 267.373C92.3789 267.373 96.7717 256.776 96.7717 243.704C96.7717 230.633 92.3789 220.036 86.9601 220.036C81.5413 220.036 77.1484 230.633 77.1484 243.704C77.1484 256.776 81.5413 267.373 86.9601 267.373Z" fill="#616161" stroke="#263238" stroke-linecap="round" stroke-linejoin="round"/>
<path d="M86.9607 257.539C90.1276 257.539 92.6948 251.345 92.6948 243.704C92.6948 236.064 90.1276 229.87 86.9607 229.87C83.7938 229.87 81.2266 236.064 81.2266 243.704C81.2266 251.345 83.7938 257.539 86.9607 257.539Z" fill="white" stroke="#263238" stroke-linecap="round" stroke-linejoin="round"/>
<path d="M155.487 216.276H148.573C148.399 216.276 148.229 216.276 148.06 216.307C147.891 216.338 147.717 216.276 147.543 216.276H140.628C135.21 216.276 130.816 226.87 130.816 239.938C130.816 253.006 135.21 263.607 140.628 263.607H147.547C147.721 263.607 147.891 263.607 148.065 263.576C148.238 263.545 148.403 263.607 148.577 263.607H155.492C160.91 263.607 165.304 253.012 165.304 239.938C165.304 226.864 160.906 216.276 155.487 216.276Z" fill="#263238" stroke="#263238" stroke-linecap="round" stroke-linejoin="round"/>
<path d="M228.33 122.433C228.33 122.433 63.2989 129.297 53.144 131.499C42.9892 133.701 33.5574 135.668 31.2006 142.792C28.8438 149.917 28.8438 232.987 28.8438 232.987L77.2659 234.911C77.2659 234.911 78.7165 213.376 85.9609 212.152C93.2052 210.927 96.8525 236.179 96.8525 236.179L179.226 239.592L180.956 256.693L183.794 257.484H202.016V149.125C202.016 149.125 203.998 135.946 210.917 131.419C217.837 126.892 232.426 124.399 232.426 124.399L228.33 122.433Z" fill="#FDC70A" stroke="#263238" stroke-linecap="round" stroke-linejoin="round"/>
<path d="M182.203 241.392H197.424" stroke="#263238" stroke-linecap="round" stroke-linejoin="round"/>
<path d="M181.781 250.26H197.007" stroke="#263238" stroke-linecap="round" stroke-linejoin="round"/>
<path d="M207.388 143.243H179.77V232.387H207.388V143.243Z" fill="#616161" stroke="#263238" stroke-linecap="round" stroke-linejoin="round"/>
<path d="M30.2461 151.358L203.08 144.524C204.284 140.275 206.673 134.208 210.933 131.419C217.857 126.885 232.442 124.399 232.442 124.399L228.323 122.433C228.323 122.433 63.2917 129.297 53.1369 131.499C42.982 133.701 33.5594 135.668 31.2025 142.792C30.8273 143.912 30.5115 146.991 30.2461 151.358Z" fill="white" stroke="#263238" stroke-linecap="round" stroke-linejoin="round"/>
<path d="M229.273 223.562H221.749V231.051C219.809 235.714 218.605 242.183 218.605 249.302C218.605 256.42 219.809 262.908 221.749 267.552V275.042H229.273C235.167 275.042 239.945 263.514 239.945 249.302C239.945 235.089 235.167 223.562 229.273 223.562Z" fill="#263238" stroke="#263238" stroke-linecap="round" stroke-linejoin="round"/>
<path d="M221.749 275.042C227.641 275.042 232.417 263.517 232.417 249.302C232.417 235.086 227.641 223.562 221.749 223.562C215.858 223.562 211.082 235.086 211.082 249.302C211.082 263.517 215.858 275.042 221.749 275.042Z" fill="#616161" stroke="#263238" stroke-linecap="round" stroke-linejoin="round"/>
<path d="M221.749 264.349C225.194 264.349 227.987 257.612 227.987 249.302C227.987 240.991 225.194 234.255 221.749 234.255C218.304 234.255 215.512 240.991 215.512 249.302C215.512 257.612 218.304 264.349 221.749 264.349Z" fill="white" stroke="#263238" stroke-linecap="round" stroke-linejoin="round"/>
<path d="M288.999 219.795H281.481V227.284C279.536 231.948 278.332 238.417 278.332 245.535C278.332 252.653 279.536 259.141 281.481 263.786V271.275H288.999C294.894 271.275 299.671 259.753 299.671 245.535C299.671 231.317 294.907 219.795 288.999 219.795Z" fill="#263238" stroke="#263238" stroke-linecap="round" stroke-linejoin="round"/>
<path d="M281.476 271.275C287.367 271.275 292.143 259.751 292.143 245.535C292.143 231.319 287.367 219.795 281.476 219.795C275.585 219.795 270.809 231.319 270.809 245.535C270.809 259.751 275.585 271.275 281.476 271.275Z" fill="#263238" stroke="#263238" stroke-linecap="round" stroke-linejoin="round"/>
<path d="M281.48 260.582C284.925 260.582 287.717 253.845 287.717 245.535C287.717 237.225 284.925 230.488 281.48 230.488C278.035 230.488 275.242 237.225 275.242 245.535C275.242 253.845 278.035 260.582 281.48 260.582Z" fill="#263238" stroke="#263238" stroke-linecap="round" stroke-linejoin="round"/>
<path d="M224.624 122.945C224.624 122.945 213.925 124.553 207.98 129.371C202.036 134.189 202.356 143.249 202.031 146.465C201.706 149.681 202.031 257.484 202.031 257.484L203.436 256.754H206.466C206.466 256.754 204.951 233.253 209.815 223.153C214.68 213.054 222.57 214.099 225.599 217.309C228.629 220.519 229.26 225.349 231.324 232.207C233.388 239.066 234.569 246.234 237.054 246.815C239.539 247.397 276.941 249.45 287.425 247.693C297.91 245.937 300.72 244.917 301.694 243.315C302.669 241.713 303.983 228.559 303.639 227.099C303.466 226.263 303.132 225.505 302.669 224.903C302.669 224.903 302.669 216.437 301.804 214.68C300.939 212.924 292.615 205.329 292.29 204.167C291.542 200.86 290.207 197.851 288.4 195.403C285.696 191.897 281.051 188.538 281.051 188.538C281.051 188.538 279.646 185.619 278.456 185.18C278.456 185.18 278.236 182.706 277.696 182.403C277.156 182.1 275.866 181.234 275.866 181.234V142.958C275.866 142.958 276.621 134.776 269.916 129.519C263.212 124.263 250.133 121.628 243.433 121.479C236.733 121.331 231.974 121.337 224.624 122.945Z" fill="#FDC70A" stroke="#263238" stroke-linecap="round" stroke-linejoin="round"/>
<path d="M208.726 144.944H275.348V181.754H208.726C207.319 181.754 205.97 180.999 204.975 179.655C203.981 178.311 203.422 176.487 203.422 174.586V152.112C203.422 150.211 203.981 148.388 204.975 147.043C205.97 145.699 207.319 144.944 208.726 144.944Z" fill="#616161" stroke="#263238" stroke-linecap="round" stroke-linejoin="round"/>
<path d="M231.802 151.37H220.484V169.527H231.802V151.37Z" fill="white"/>
<path d="M249.006 151.69H233.918V171.759H249.006V151.69Z" fill="white"/>
<path d="M273.987 151.53H255.719V180.046H273.987V151.53Z" fill="white"/>
<path d="M217.891 151.53H207.164V168.259H217.891V151.53Z" fill="white"/>
<path d="M229.504 179.676C229.504 179.676 230.09 166.497 232.25 164.586C234.41 162.675 238.657 162.477 240.634 163.967C241.338 164.499 243.242 179.181 243.242 179.181L229.504 179.676Z" fill="#263238" stroke="#263238" stroke-linecap="round" stroke-linejoin="round"/>
<path d="M238.428 168.149C238.428 168.149 235.11 169.794 233.989 171.643C232.868 173.492 232.383 178.495 232.383 178.495H251.429C251.429 178.495 250.647 171.971 249.086 170.387C247.526 168.804 244.405 167.951 243.677 168.279C242.95 168.606 241.389 168.347 241.389 168.347L238.428 168.149Z" fill="#FDC70A" stroke="#263238" stroke-linecap="round" stroke-linejoin="round"/>
<path d="M239.125 167.357C239.125 167.357 238.787 166.948 238.43 168.142C238.073 169.336 238.618 171.636 238.618 172.007C238.618 172.378 241.07 170.443 241.07 170.443L243.317 172.298C243.317 172.298 245.226 170.443 245.29 168.89C245.354 167.338 243.523 166.868 243.523 166.868L239.125 167.357Z" fill="white" stroke="#263238" stroke-linecap="round" stroke-linejoin="round"/>
<path d="M247.207 175.854L247.656 177.116" stroke="#263238" stroke-width="0.75" stroke-linecap="round" stroke-linejoin="round"/>
<path d="M236.545 177.116L236.16 175.44" stroke="#263238" stroke-width="0.75" stroke-linecap="round" stroke-linejoin="round"/>
<path d="M246.488 172.081L246.671 173.281" stroke="#263238" stroke-width="0.75" stroke-linecap="round" stroke-linejoin="round"/>
<path d="M242.737 157.015C242.737 157.015 244.156 157.362 244.513 158.728C244.734 159.847 244.819 161.006 244.765 162.161C244.765 162.161 245.222 161.883 245.222 163.051C245.222 164.22 245.172 164.969 244.865 165.173C244.559 165.377 244.207 165.587 244.207 165.587C244.306 166.587 244.339 167.597 244.307 168.605C244.206 169.285 241.214 171.481 240.706 171.697C240.198 171.914 239.287 168.605 239.287 168.407C239.251 168.061 239.201 167.719 239.136 167.381C238.769 166.772 238.54 166.033 238.477 165.253C238.427 164.09 238.829 159.155 239.237 158.129C239.644 157.102 241.964 156.18 242.737 157.015Z" fill="white" stroke="#263238" stroke-linecap="round" stroke-linejoin="round"/>
<path d="M239.309 157.938C239.881 156.985 242.004 156.225 242.727 157.004C242.727 157.004 244.146 157.35 244.503 158.717C244.724 159.835 244.809 160.994 244.754 162.149C244.754 162.149 244.196 162.836 243.995 162.558C243.793 162.279 243.995 161.531 243.844 161.259C243.693 160.987 243.235 160.708 243.18 160.022C243.125 159.335 243.386 159.267 243.18 158.785C242.974 158.303 241.963 158.031 241.103 158.099C240.502 158.183 239.896 158.128 239.309 157.938Z" fill="#263238" stroke="#263238" stroke-linecap="round" stroke-linejoin="round"/>
<path d="M241.512 162.044C241.512 162.329 241.635 162.558 241.791 162.558C241.946 162.558 242.07 162.329 242.07 162.044C242.07 161.76 241.942 161.531 241.791 161.531C241.64 161.531 241.512 161.76 241.512 162.044Z" fill="#263238"/>
<path d="M239.426 162.15C239.426 162.434 239.554 162.663 239.705 162.663C239.856 162.663 239.984 162.434 239.984 162.15C239.984 161.865 239.861 161.636 239.705 161.636C239.549 161.636 239.426 161.865 239.426 162.15Z" fill="#263238"/>
<path d="M242.279 161.345C241.882 161.106 241.44 161.032 241.012 161.134" stroke="#263238" stroke-width="0.75" stroke-linecap="round" stroke-linejoin="round"/>
<path d="M240.087 161.117C239.939 161.04 239.781 161.007 239.624 161.02C239.466 161.033 239.312 161.091 239.172 161.191" stroke="#263238" stroke-width="0.75" stroke-linecap="round" stroke-linejoin="round"/>
<path d="M240.037 163.311C239.996 163.386 239.967 163.472 239.952 163.563C239.938 163.654 239.938 163.748 239.953 163.839C239.967 163.929 239.996 164.015 240.038 164.089C240.079 164.164 240.132 164.225 240.192 164.27C240.321 164.372 240.464 164.436 240.612 164.46C240.76 164.483 240.91 164.465 241.053 164.406" stroke="#263238" stroke-width="0.75" stroke-linecap="round" stroke-linejoin="round"/>
<path d="M239.531 165.229C239.531 165.229 241.412 166.262 241.916 165.161" stroke="#263238" stroke-width="0.75" stroke-linecap="round" stroke-linejoin="round"/>
<path d="M239.125 167.356C239.652 167.83 240.268 168.092 240.901 168.111C241.412 168.196 241.931 168.127 242.42 167.907L239.532 169.348C239.422 168.675 239.286 168.01 239.125 167.356Z" fill="#263238" stroke="#263238" stroke-linecap="round" stroke-linejoin="round"/>
<path d="M246.182 174.14C245.791 174.352 245.415 174.615 245.061 174.926C244.965 175.123 244.768 175.655 245.304 175.785C245.831 175.813 246.358 175.723 246.864 175.519L246.182 174.14Z" fill="white" stroke="#263238" stroke-linecap="round" stroke-linejoin="round"/>
<path d="M256.365 180.251H245.135C245.018 180.251 244.905 180.191 244.82 180.083C244.735 179.975 244.684 179.827 244.677 179.67C244.466 176.726 246.855 173.757 250.233 172.761C253.816 171.71 257.01 173.287 257.5 176.349C257.585 176.993 257.563 177.655 257.434 178.286C257.306 178.918 257.075 179.502 256.758 179.997C256.714 180.081 256.654 180.147 256.585 180.192C256.517 180.236 256.441 180.256 256.365 180.251ZM245.62 178.965H256.118C256.304 178.634 256.438 178.256 256.512 177.853C256.586 177.45 256.598 177.03 256.548 176.621C256.182 174.345 253.377 173.157 250.416 174.023C247.853 174.778 245.83 176.905 245.62 178.965Z" fill="#263238"/>
<path d="M246.674 173.282C246.674 173.282 245.987 173.548 246.184 174.141C246.381 174.735 246.642 175.855 247.209 175.855C247.776 175.855 247.063 173.61 247.063 173.61C247.063 173.61 247.063 173.548 246.674 173.282Z" fill="white" stroke="#263238" stroke-linecap="round" stroke-linejoin="round"/>
<path d="M247.649 172.688C247.649 172.688 246.967 172.953 247.159 173.547C247.351 174.141 247.617 175.26 248.184 175.26C248.752 175.26 248.038 173.015 248.038 173.015C248.038 173.015 248.038 172.953 247.649 172.688Z" fill="white" stroke="#263238" stroke-linecap="round" stroke-linejoin="round"/>
<path d="M248.683 172.619C248.683 172.619 248.066 172.854 248.226 173.386C248.386 173.918 248.619 174.926 249.141 174.926C249.663 174.926 249.008 172.916 249.008 172.916C249.008 172.916 249.013 172.854 248.683 172.619Z" fill="white" stroke="#263238" stroke-linecap="round" stroke-linejoin="round"/>
<path d="M208.949 181.754H275.347V180.746C274.097 179.62 272.642 178.488 271.585 178.216C269.338 177.635 263.439 177.202 263.439 177.202C261.066 176.016 258.571 175.332 256.044 175.174C252.186 175.025 246.937 177.647 246.937 177.647C246.937 177.647 240.292 177.938 238.242 177.647C236.191 177.357 229.771 179.095 229.771 179.095L204.551 178.829C205.066 179.743 205.732 180.484 206.495 180.991C207.258 181.499 208.098 181.76 208.949 181.754Z" fill="#263238" stroke="#263238" stroke-linecap="round" stroke-linejoin="round"/>
<path d="M297.789 217.252H302.334C302.274 216.359 302.096 215.488 301.808 214.68C301.386 213.832 299.236 211.631 297.08 209.441C295.79 209.441 294.435 209.559 294.966 210.171C295.881 211.26 298.256 213.263 298.526 214.803C298.593 215.264 298.558 215.741 298.427 216.176C298.297 216.611 298.075 216.985 297.789 217.252Z" fill="#263238" stroke="#263238" stroke-linecap="round" stroke-linejoin="round"/>
<path d="M297.043 210.624L297.514 208.991L297.043 208.354V207.08H299.125V208.261L298.855 208.898L299.798 213.531L297.043 210.624Z" fill="#263238" stroke="#263238" stroke-linecap="round" stroke-linejoin="round"/>
<path d="M298.11 208.725C297.989 208.725 297.872 208.66 297.786 208.544C297.701 208.428 297.652 208.27 297.652 208.106V196.368C297.654 195.426 297.931 194.522 298.424 193.855C298.918 193.189 299.586 192.814 300.284 192.812H312.754C313.156 192.812 313.541 192.596 313.825 192.212C314.109 191.829 314.269 191.308 314.269 190.765V186.912C314.269 186.741 314.319 186.578 314.408 186.457C314.498 186.337 314.619 186.269 314.745 186.269C314.871 186.269 314.992 186.337 315.081 186.457C315.171 186.578 315.221 186.741 315.221 186.912V190.765C315.223 191.205 315.161 191.641 315.038 192.048C314.916 192.456 314.734 192.826 314.505 193.138C314.276 193.45 314.003 193.698 313.702 193.867C313.402 194.036 313.08 194.123 312.754 194.123H300.275C299.83 194.125 299.403 194.364 299.088 194.79C298.774 195.215 298.596 195.791 298.595 196.393V208.106C298.595 208.191 298.583 208.274 298.558 208.352C298.533 208.43 298.497 208.499 298.451 208.557C298.406 208.615 298.352 208.66 298.294 208.689C298.235 208.718 298.172 208.73 298.11 208.725Z" fill="#263238"/>
<path d="M311.895 179.373L313.51 187.549H315.995C315.995 187.549 316.128 180.554 315.794 180.127C315.459 179.7 313.775 179.465 311.895 179.373Z" fill="#263238" stroke="#263238" stroke-linecap="round" stroke-linejoin="round"/>
<path d="M311.899 179.373C311.899 179.373 309.881 179.645 309.748 180.733C309.616 181.822 310.824 184.642 311.428 185.644C312.032 186.646 313.515 187.549 313.515 187.549L311.899 179.373Z" fill="white" stroke="#263238" stroke-linecap="round" stroke-linejoin="round"/>
<path d="M280.593 223.989H280.822C281.009 216.085 280.332 204.817 280.048 200.574C279.997 200.575 279.946 200.587 279.897 200.611C279.652 200.799 279.438 201.052 279.266 201.353C279.76 206.394 280.803 217.953 280.593 223.989Z" fill="#263238"/>
<path d="M263.519 222.535L264.1 222.702C263.294 215.367 261.267 205.756 260.301 201.408C260.073 201.458 259.844 201.513 259.684 201.569C260.658 205.787 262.567 214.581 263.519 222.535Z" fill="#263238"/>
<path d="M287.459 223.915C288.164 215.547 288.159 205.256 288.127 201.452L287.605 201.372C287.849 208.892 287.742 216.425 287.285 223.927L287.459 223.915Z" fill="#263238"/>
<path d="M261.955 201.149C261.708 201.18 261.498 201.205 261.246 201.242C262.253 205.794 264.303 215.565 265.076 222.918L265.342 222.968C264.399 214.371 262.683 204.952 261.955 201.149Z" fill="#263238"/>
<path d="M283.514 224C284.049 215.026 283.582 204.544 283.381 200.814L282.594 200.728C283.084 208.467 283.28 216.234 283.18 224H283.514Z" fill="#263238"/>
<path d="M281.772 223.995H282.23C282.333 216.198 282.134 208.399 281.635 200.63L281.008 200.58C281.296 204.953 281.96 216.091 281.772 223.995Z" fill="#263238"/>
<path d="M286.321 223.976C286.787 216.415 286.894 208.821 286.641 201.242L285.945 201.143C286.147 205.113 286.591 215.633 286.092 223.982L286.321 223.976Z" fill="#263238"/>
<path d="M288.422 223.809C288.614 223.772 288.783 223.735 288.944 223.691C289.574 216.381 289.773 209.015 289.538 201.662L289.081 201.6C289.108 205.49 289.104 215.516 288.422 223.809Z" fill="#263238"/>
<path d="M263.783 200.988L262.941 201.056C263.701 205.076 265.413 214.551 266.346 223.135L267.261 223.265C266.404 215.759 265.243 208.322 263.783 200.988Z" fill="#263238"/>
<path d="M285.135 224.001C285.648 215.559 285.177 204.786 284.98 201.019L284.344 200.933C284.554 204.854 284.994 215.126 284.472 224.001H285.135Z" fill="#263238"/>
<path d="M277.183 204.476C277.058 204.625 276.925 204.761 276.785 204.884C277.202 209.337 277.87 217.322 278.039 223.976H278.341C278.117 217.699 277.517 208.904 277.183 204.476Z" fill="#263238"/>
<path d="M274.815 204.34C274.618 204.173 274.417 203.994 274.211 203.796C274.669 208.564 275.405 217.26 275.62 223.914H276.133C275.945 216.938 275.231 208.478 274.815 204.34Z" fill="#263238"/>
<path d="M258.812 202.101C257.787 204.117 261.352 220.71 262.345 221.935C262.392 221.989 262.442 222.037 262.496 222.077C261.575 215.322 260.344 208.651 258.812 202.101Z" fill="#263238"/>
<path d="M291.286 204.142C290.98 202.478 290.714 201.971 290.499 201.816C290.717 208.95 290.532 216.095 289.945 223.19C290.065 223.091 290.176 222.973 290.275 222.838C291.204 221.477 291.703 206.424 291.286 204.142Z" fill="#263238"/>
<path d="M265.669 200.927L264.754 200.964C266.225 208.353 267.39 215.848 268.241 223.414L268.575 223.451C268.085 214.292 266.319 204.334 265.669 200.927Z" fill="#263238"/>
<path d="M278.43 202.67C278.306 202.874 278.178 203.072 278.055 203.288C278.348 207.216 279.057 217.123 279.295 224.007H279.638C279.835 218.558 278.947 208.149 278.43 202.67Z" fill="#263238"/>
<path d="M273.147 202.732C272.781 202.342 272.446 201.977 272.172 201.662C272.831 206.554 274.076 216.449 274.46 223.864H274.675C274.423 216.653 273.559 207.036 273.147 202.732Z" fill="#263238"/>
<path d="M269.404 200.821H268.488C269.772 208.352 270.716 215.981 271.316 223.667L271.737 223.698C271.467 214.594 270.117 205.218 269.404 200.821Z" fill="#263238"/>
<path d="M267.486 200.839H266.648C267.349 204.587 269.065 214.445 269.532 223.493L270.328 223.568C269.721 215.921 268.772 208.331 267.486 200.839Z" fill="#263238"/>
<path d="M271.111 200.833H270.406C271.138 205.397 272.456 214.724 272.694 223.772L273.518 223.821C273.079 215.886 271.683 205.156 271.111 200.833Z" fill="#263238"/>
<path d="M234.577 215.769C234.577 215.769 234.069 217.364 235.25 219.078C236.431 220.791 239.895 223.407 245.547 225.262C251.199 227.117 256.855 227.198 257.024 226.171C257.194 225.145 253.903 218.873 252.906 218.416C251.908 217.958 251.35 217.76 251.35 217.76C251.35 217.76 239.218 217.717 234.577 215.769Z" fill="white" stroke="#263238" stroke-linecap="round" stroke-linejoin="round"/>
<path d="M297.784 217.252C297.784 217.252 296.352 217.828 296.183 218.854C296.013 219.881 295.336 226.152 295.336 226.152C295.336 226.152 300.709 226.511 302.658 224.915C302.878 222.358 302.764 219.768 302.319 217.265L297.784 217.252Z" fill="white" stroke="#263238" stroke-linecap="round" stroke-linejoin="round"/>
<path d="M302.878 225.195C302.234 226.065 301.483 226.777 300.658 227.298C298.466 228.782 278.884 229.463 257.87 228.325C239.885 227.348 231.611 226.29 229.602 226.005C230.114 227.861 230.64 229.92 231.327 232.19C233.382 239.061 234.571 246.217 237.056 246.798C239.541 247.379 276.944 249.433 287.428 247.676C297.912 245.92 300.722 244.899 301.697 243.297C302.672 241.696 303.985 228.541 303.642 227.082C303.489 226.387 303.229 225.744 302.878 225.195Z" fill="#263238" stroke="#263238" stroke-linecap="round" stroke-linejoin="round"/>
<path d="M279.831 150.294H277.557C276.857 150.294 276.289 151.061 276.289 152.007V160.684C276.289 161.63 276.857 162.397 277.557 162.397H279.831C280.531 162.397 281.099 161.63 281.099 160.684V152.007C281.099 151.061 280.531 150.294 279.831 150.294Z" fill="#263238" stroke="#263238" stroke-linecap="round" stroke-linejoin="round"/>
<path d="M279.831 165.197H277.557C276.857 165.197 276.289 165.964 276.289 166.91V175.587C276.289 176.533 276.857 177.3 277.557 177.3H279.831C280.531 177.3 281.099 176.533 281.099 175.587V166.91C281.099 165.964 280.531 165.197 279.831 165.197Z" fill="#263238" stroke="#263238" stroke-linecap="round" stroke-linejoin="round"/>
<path d="M213.459 152.074H207.135C206.435 152.074 205.867 152.841 205.867 153.787V164.047C205.867 164.994 206.435 165.761 207.135 165.761H213.459C214.159 165.761 214.727 164.994 214.727 164.047V153.787C214.727 152.841 214.159 152.074 213.459 152.074Z" fill="#263238" stroke="#263238" stroke-linecap="round" stroke-linejoin="round"/>
<path d="M213.459 167.022H207.135C206.435 167.022 205.867 167.789 205.867 168.735V178.995C205.867 179.941 206.435 180.708 207.135 180.708H213.459C214.159 180.708 214.727 179.941 214.727 178.995V168.735C214.727 167.789 214.159 167.022 213.459 167.022Z" fill="#263238" stroke="#263238" stroke-linecap="round" stroke-linejoin="round"/>
<path d="M201.724 151.054H213.833C214.247 151.054 214.644 151.276 214.937 151.672C215.229 152.067 215.394 152.604 215.394 153.163V181.055C215.392 181.613 215.227 182.148 214.935 182.542C214.642 182.937 214.246 183.158 213.833 183.158H200.594" stroke="#263238" stroke-width="2" stroke-linecap="round" stroke-linejoin="round"/>
<path d="M249.516 205.256C250.797 205.906 252.041 206.679 253.241 207.569" stroke="#263238" stroke-linecap="round" stroke-linejoin="round"/>
<path d="M207.914 196.709H214.097C214.097 196.709 234.503 198.521 247.353 204.211" stroke="#263238" stroke-linecap="round" stroke-linejoin="round"/>
<path d="M214.923 189.911C214.896 190.698 214.699 191.456 214.356 192.092C214.013 192.729 213.539 193.215 212.993 193.491C212.448 193.767 211.854 193.82 211.286 193.644C210.719 193.468 210.202 193.071 209.799 192.501C209.397 191.932 209.128 191.215 209.024 190.44C208.92 189.666 208.987 188.867 209.217 188.143C209.446 187.42 209.828 186.803 210.314 186.37C210.8 185.936 211.37 185.705 211.953 185.706C212.759 185.733 213.524 186.191 214.08 186.98C214.637 187.768 214.94 188.822 214.923 189.911Z" fill="white" stroke="#263238" stroke-linecap="round" stroke-linejoin="round"/>
<path d="M212.193 185.725C211.563 185.621 210.925 185.778 210.363 186.176C209.8 186.574 209.341 187.194 209.046 187.953C208.751 188.713 208.634 189.575 208.71 190.427C208.787 191.278 209.053 192.078 209.474 192.72C209.895 193.361 210.45 193.815 211.067 194.02C211.683 194.224 212.331 194.171 212.924 193.866C213.517 193.562 214.027 193.02 214.387 192.314C214.747 191.607 214.94 190.77 214.939 189.912C214.953 188.876 214.679 187.87 214.17 187.095C213.662 186.319 212.956 185.83 212.193 185.725Z" fill="white" stroke="#263238" stroke-linecap="round" stroke-linejoin="round"/>
<path d="M226.664 204.259C229.989 204.313 233.3 204.877 236.531 205.941C241.976 207.692 251.948 213.307 253.889 215.429" stroke="#263238" stroke-linecap="round" stroke-linejoin="round"/>
<path d="M208.461 223.29C208.461 223.29 210.214 212.158 216.309 207.439C218.383 205.896 220.661 204.919 223.014 204.563" stroke="#263238" stroke-linecap="round" stroke-linejoin="round"/>
<path d="M224.98 184.76C238.655 183.845 267.998 183.981 271.43 185.379C275.769 187.129 280.015 188.378 280.015 188.378" stroke="#263238" stroke-linecap="round" stroke-linejoin="round"/>
<path d="M212.41 206.919C212.662 204.531 213.005 201.526 213.266 200.202C213.482 199.013 213.758 197.845 214.094 196.708C214.094 196.708 215.389 187.604 218.158 185.731C218.584 185.44 220.039 185.192 222.213 184.982" stroke="#263238" stroke-linecap="round" stroke-linejoin="round"/>
<path d="M212.078 210.308C212.078 210.308 212.151 209.516 212.27 208.36" stroke="#263238" stroke-linecap="round" stroke-linejoin="round"/>
<path d="M273.586 191.86C274.037 192.481 274.458 193.143 274.844 193.839" stroke="#263238" stroke-linecap="round" stroke-linejoin="round"/>
<path d="M266.992 186.084C268.918 187.088 270.712 188.504 272.305 190.277" stroke="#263238" stroke-linecap="round" stroke-linejoin="round"/>
<path d="M233.297 215.509C233.297 215.509 237.571 214.272 238.665 213.036C239.404 212.077 239.965 210.897 240.303 209.591L240.834 208.651L240.482 208.236V206.931H242.733V208.168L242.276 208.527C242.649 209.057 242.933 209.69 243.109 210.382C243.472 211.758 244.072 212.997 244.859 213.998C245.645 214.999 246.597 215.733 247.635 216.14C250.664 217.21 251.323 217.742 251.323 217.742C251.323 217.742 244.733 217.68 240.038 217.21C235.342 216.74 233.297 215.509 233.297 215.509Z" fill="#263238" stroke="#263238" stroke-linecap="round" stroke-linejoin="round"/>
<path d="M241.567 208.583C241.446 208.583 241.329 208.518 241.243 208.402C241.158 208.286 241.109 208.129 241.109 207.965V194.384C241.109 193.712 241.306 193.068 241.657 192.593C242.008 192.118 242.484 191.85 242.981 191.848H247.859C248.095 191.848 248.321 191.722 248.487 191.497C248.654 191.272 248.747 190.966 248.747 190.648V185.466C248.747 185.294 248.798 185.13 248.887 185.009C248.977 184.887 249.099 184.819 249.225 184.819C249.352 184.819 249.474 184.887 249.564 185.009C249.653 185.13 249.704 185.294 249.704 185.466V190.624C249.704 191.28 249.511 191.909 249.168 192.373C248.824 192.837 248.359 193.097 247.873 193.097H242.963C242.72 193.097 242.487 193.228 242.316 193.46C242.144 193.692 242.048 194.006 242.048 194.334V207.891C242.056 207.981 242.049 208.072 242.028 208.158C242.007 208.244 241.973 208.323 241.927 208.389C241.881 208.455 241.825 208.507 241.763 208.54C241.701 208.574 241.634 208.589 241.567 208.583Z" fill="#263238"/>
<path d="M245.559 178.303C245.559 178.303 243.431 178.303 243.235 179.206C243.038 180.109 244.1 184.859 245.225 185.941C246.351 187.023 252.337 187.283 253.266 186.745C254.195 186.207 255.861 181.179 255.659 179.942C255.458 178.705 254.332 178.507 254.131 178.507L245.559 178.303Z" fill="#263238" stroke="#263238" stroke-linecap="round" stroke-linejoin="round"/>
<path d="M204.173 142.012H228.181C228.181 142.012 226.556 126.075 225.893 124.695C225.542 124.025 225.113 123.438 224.62 122.958C224.62 122.958 211.454 127.534 208.562 130.435C205.67 133.335 203.743 140.998 204.173 142.012Z" fill="#263238" stroke="#263238" stroke-linecap="round" stroke-linejoin="round"/>
<path d="M269.912 129.52C267.409 127.553 264.023 125.958 260.407 124.721L260.33 124.919C260.364 126.374 260.256 127.83 260.009 129.248C259.579 132.291 257.652 142.854 257.652 142.854H275.862C275.916 142.05 276.241 134.486 269.912 129.52Z" fill="#263238" stroke="#263238" stroke-linecap="round" stroke-linejoin="round"/>
<path d="M266.764 137.139C266.764 139.749 265.505 141.864 263.954 141.864C262.402 141.864 261.148 139.749 261.148 137.139C261.148 134.529 262.402 132.414 263.954 132.414C265.505 132.414 266.764 134.529 266.764 137.139Z" fill="white" stroke="#263238" stroke-linecap="round" stroke-linejoin="round"/>
<path d="M269.852 141.864C271.401 141.864 272.657 139.749 272.657 137.139C272.657 134.53 271.401 132.414 269.852 132.414C268.303 132.414 267.047 134.53 267.047 137.139C267.047 139.749 268.303 141.864 269.852 141.864Z" fill="white" stroke="#263238" stroke-linecap="round" stroke-linejoin="round"/>
<path d="M216.477 141.864C218.026 141.864 219.282 139.749 219.282 137.139C219.282 134.53 218.026 132.414 216.477 132.414C214.928 132.414 213.672 134.53 213.672 137.139C213.672 139.749 214.928 141.864 216.477 141.864Z" fill="white" stroke="#263238" stroke-linecap="round" stroke-linejoin="round"/>
<path d="M222.376 141.864C223.925 141.864 225.181 139.749 225.181 137.139C225.181 134.53 223.925 132.414 222.376 132.414C220.826 132.414 219.57 134.53 219.57 137.139C219.57 139.749 220.826 141.864 222.376 141.864Z" fill="white" stroke="#263238" stroke-linecap="round" stroke-linejoin="round"/>
<path d="M256.795 128.537H228.5V140.127H256.795V128.537Z" fill="white" stroke="#263238" stroke-linecap="round" stroke-linejoin="round"/>
<path d="M229.57 142.297H256.584" stroke="#263238" stroke-linecap="round" stroke-linejoin="round"/>
<path d="M164.718 148.098L179.976 147.597V181.964H164.718V148.098ZM151.983 181.964H162.192V148.005L152.001 148.327L151.983 181.964ZM137.897 181.964H149.575V148.358L137.897 148.828V181.964ZM123.893 181.964H135.192V148.908L123.907 149.36L123.893 181.964ZM110.361 181.964H121.271V149.465L110.361 149.898V181.964ZM97.268 181.964H107.826V150.003L97.268 150.423V181.964ZM86.0194 181.964H95.5198V150.491L86.0194 150.875V181.964ZM74.9035 181.964H84.1339V150.949L74.9035 151.32V181.964ZM64.1033 181.964H73.0729V151.394L64.1033 151.753V181.964ZM53.6053 181.964H62.3232V151.821L53.6053 152.173V181.964ZM43.3909 181.964H51.8708V152.242L43.3909 152.582V181.964ZM32.2109 181.964H41.7068V152.65L32.2247 153.027L32.2109 181.964Z" fill="#969696" stroke="#263238" stroke-linecap="round" stroke-linejoin="round"/>
<path d="M84.1282 166.417H74.9023V167.882H84.1282V166.417Z" fill="white" stroke="#263238" stroke-linecap="round" stroke-linejoin="round"/>
<path d="M95.52 166.417H86.0195V167.882H95.52V166.417Z" fill="white" stroke="#263238" stroke-linecap="round" stroke-linejoin="round"/>
<path d="M73.0751 166.417H64.1055V167.882H73.0751V166.417Z" fill="white" stroke="#263238" stroke-linecap="round" stroke-linejoin="round"/>
<path d="M62.3234 166.417H53.6055V167.882H62.3234V166.417Z" fill="white" stroke="#263238" stroke-linecap="round" stroke-linejoin="round"/>
<path d="M51.8745 166.417H43.3945V167.882H51.8745V166.417Z" fill="white" stroke="#263238" stroke-linecap="round" stroke-linejoin="round"/>
<path d="M41.7068 166.417H32.2109V167.882H41.7068V166.417Z" fill="white" stroke="#263238" stroke-linecap="round" stroke-linejoin="round"/>
<path d="M121.269 166.417H110.359V167.882H121.269V166.417Z" fill="white" stroke="#263238" stroke-linecap="round" stroke-linejoin="round"/>
<path d="M162.172 166.417H151.98V167.882H162.172V166.417Z" fill="white" stroke="#263238" stroke-linecap="round" stroke-linejoin="round"/>
<path d="M179.976 166.417H164.719V167.882H179.976V166.417Z" fill="white" stroke="#263238" stroke-linecap="round" stroke-linejoin="round"/>
<path d="M107.819 166.417H97.2656V167.882H107.819V166.417Z" fill="white" stroke="#263238" stroke-linecap="round" stroke-linejoin="round"/>
<path d="M149.577 166.417H137.898V167.882H149.577V166.417Z" fill="white" stroke="#263238" stroke-linecap="round" stroke-linejoin="round"/>
<path d="M135.18 166.417H123.895V167.882H135.18V166.417Z" fill="white" stroke="#263238" stroke-linecap="round" stroke-linejoin="round"/>
<path d="M180.556 205.515L29.0938 203.462V199.72H180.556V205.515Z" fill="#263238" stroke="#263238" stroke-linecap="round" stroke-linejoin="round"/>
<path d="M180.556 188.137L29.0938 188.119V184.377H180.556V188.137Z" fill="#263238" stroke="#263238" stroke-linecap="round" stroke-linejoin="round"/>
<path d="M77.9643 215.719L29.0938 214.872V219.177L77.9643 220.506V215.719Z" fill="#263238" stroke="#263238" stroke-linecap="round" stroke-linejoin="round"/>
<path d="M95.4062 216.017V220.977L180.553 223.296V217.495L95.4062 216.017Z" fill="#263238" stroke="#263238" stroke-linecap="round" stroke-linejoin="round"/>
<path d="M98.4531 231.59V236.216L179.239 239.574L180.136 239.197V234.707L98.4531 231.59Z" fill="#263238" stroke="#263238" stroke-linecap="round" stroke-linejoin="round"/>
<path d="M74.7855 230.685L33.1043 229.09V219.195H29.0909L28.8849 219.368C28.8437 227.556 28.8438 232.974 28.8438 232.974L74.7855 234.792V230.685Z" fill="#263238" stroke="#263238" stroke-linecap="round" stroke-linejoin="round"/>
<path d="M174.116 257.484H183.809V149.124H174.116V257.484Z" fill="#263238" stroke="#263238" stroke-linecap="round" stroke-linejoin="round"/>
<path d="M181.8 151.654H176.309V198.205H181.8V151.654Z" fill="#969696" stroke="#263238" stroke-linecap="round" stroke-linejoin="round"/>
<path d="M181.8 201.748H176.309V248.299H181.8V201.748Z" fill="#969696" stroke="#263238" stroke-linecap="round" stroke-linejoin="round"/>
<path d="M192.565 257.484H202.258V149.124H192.565V257.484Z" fill="#263238" stroke="#263238" stroke-linecap="round" stroke-linejoin="round"/>
<path d="M200.249 151.654H194.758V198.205H200.249V151.654Z" fill="#969696" stroke="#263238" stroke-linecap="round" stroke-linejoin="round"/>
<path d="M200.249 201.748H194.758V248.299H200.249V201.748Z" fill="#969696" stroke="#263238" stroke-linecap="round" stroke-linejoin="round"/>
<path d="M231.175 137.132C230.953 137.144 230.733 137.073 230.539 136.928C230.361 136.787 230.224 136.569 230.15 136.31C230.056 136.008 230.008 135.685 230.008 135.358L230.667 135.184C230.672 135.38 230.692 135.575 230.726 135.766C230.753 135.912 230.805 136.048 230.877 136.162C230.951 136.252 231.048 136.301 231.147 136.298C231.198 136.305 231.249 136.295 231.295 136.268C231.342 136.24 231.382 136.198 231.413 136.143C231.467 136.029 231.494 135.895 231.491 135.76C231.498 135.541 231.455 135.325 231.367 135.141C231.271 134.964 231.158 134.804 231.033 134.665L230.502 134.046C230.357 133.884 230.236 133.687 230.145 133.465C230.049 133.222 230.004 132.949 230.012 132.673C230.003 132.481 230.025 132.288 230.075 132.108C230.126 131.928 230.204 131.764 230.305 131.628C230.526 131.372 230.811 131.241 231.102 131.263C231.271 131.257 231.439 131.299 231.596 131.387C231.721 131.461 231.83 131.579 231.912 131.727C231.991 131.879 232.05 132.048 232.085 132.228C232.126 132.43 232.151 132.637 232.159 132.847L231.504 133.001C231.498 132.839 231.482 132.678 231.458 132.519C231.441 132.397 231.4 132.284 231.34 132.191C231.305 132.149 231.264 132.117 231.22 132.097C231.176 132.077 231.13 132.069 231.083 132.074C231.034 132.069 230.985 132.08 230.94 132.106C230.895 132.132 230.854 132.171 230.822 132.222C230.762 132.331 230.73 132.463 230.731 132.599C230.725 132.766 230.755 132.931 230.818 133.075C230.89 133.218 230.976 133.347 231.074 133.459L231.6 134.077C231.778 134.276 231.932 134.509 232.058 134.77C232.186 135.061 232.249 135.396 232.241 135.735C232.244 135.987 232.198 136.237 232.108 136.458C232.02 136.667 231.892 136.84 231.738 136.959C231.564 137.081 231.37 137.141 231.175 137.132Z" fill="#263238"/>
<path d="M233.817 137.133C233.561 137.15 233.308 137.064 233.089 136.886C232.915 136.722 232.786 136.485 232.723 136.212C232.65 135.894 232.614 135.562 232.618 135.229V133.194C232.613 132.85 232.649 132.508 232.723 132.18C232.785 131.909 232.914 131.675 233.089 131.518C233.31 131.347 233.562 131.266 233.817 131.283C234.055 131.266 234.292 131.336 234.503 131.487C234.668 131.615 234.793 131.819 234.855 132.062C234.928 132.34 234.964 132.633 234.961 132.928V133.404H234.219V132.897C234.227 132.753 234.227 132.608 234.219 132.464C234.211 132.347 234.176 132.237 234.119 132.149C234.08 132.105 234.036 132.072 233.988 132.052C233.94 132.031 233.889 132.024 233.839 132.031C233.735 132.021 233.632 132.066 233.551 132.155C233.486 132.246 233.446 132.363 233.437 132.489C233.417 132.642 233.408 132.797 233.409 132.953V135.426C233.407 135.599 233.42 135.771 233.446 135.94C233.462 136.059 233.509 136.166 233.579 136.243C233.655 136.315 233.747 136.349 233.839 136.342C233.889 136.35 233.939 136.343 233.986 136.323C234.033 136.303 234.077 136.269 234.114 136.224C234.171 136.131 234.206 136.017 234.215 135.896C234.222 135.744 234.222 135.591 234.215 135.439V134.919H234.956V135.371C234.961 135.677 234.927 135.983 234.855 136.274C234.795 136.528 234.673 136.746 234.508 136.892C234.3 137.062 234.059 137.146 233.817 137.133Z" fill="#263238"/>
<path d="M235.504 137.052V131.344H236.273V133.737H237.133V131.344H237.902V137.052H237.133V134.473H236.273V137.052H235.504Z" fill="#263238"/>
<path d="M239.697 137.133C239.448 137.15 239.2 137.071 238.983 136.904C238.809 136.761 238.675 136.543 238.603 136.286C238.521 135.966 238.483 135.629 238.489 135.29V133.15C238.483 132.814 238.521 132.479 238.603 132.161C238.673 131.901 238.807 131.683 238.983 131.542C239.207 131.396 239.453 131.319 239.702 131.319C239.951 131.319 240.196 131.396 240.42 131.542C240.594 131.685 240.728 131.903 240.8 132.161C240.884 132.478 240.924 132.813 240.919 133.15V135.296C240.923 135.633 240.883 135.968 240.8 136.286C240.724 136.541 240.592 136.757 240.42 136.904C240.199 137.069 239.949 137.148 239.697 137.133ZM239.697 136.36C239.744 136.369 239.792 136.365 239.838 136.348C239.884 136.332 239.928 136.303 239.965 136.264C240.003 136.225 240.035 136.176 240.059 136.121C240.083 136.065 240.098 136.003 240.104 135.939C240.127 135.799 240.138 135.656 240.136 135.513V132.897C240.138 132.751 240.128 132.606 240.104 132.464C240.088 132.349 240.044 132.245 239.981 132.167C239.898 132.094 239.801 132.055 239.702 132.055C239.603 132.055 239.506 132.094 239.423 132.167C239.357 132.244 239.314 132.348 239.299 132.464C239.276 132.606 239.265 132.751 239.267 132.897V135.525C239.266 135.668 239.275 135.811 239.294 135.952C239.308 136.071 239.352 136.18 239.418 136.261C239.499 136.339 239.598 136.374 239.697 136.36Z" fill="#263238"/>
<path d="M242.63 137.133C242.381 137.15 242.133 137.071 241.916 136.904C241.742 136.761 241.609 136.543 241.537 136.286C241.457 135.965 241.418 135.628 241.422 135.29V133.15C241.418 132.814 241.457 132.479 241.537 132.161C241.609 131.903 241.742 131.685 241.916 131.542C242.14 131.396 242.386 131.319 242.635 131.319C242.884 131.319 243.129 131.396 243.353 131.542C243.529 131.683 243.663 131.901 243.733 132.161C243.817 132.478 243.857 132.813 243.852 133.15V135.296C243.857 135.633 243.816 135.968 243.733 136.286C243.659 136.542 243.526 136.759 243.353 136.904C243.132 137.069 242.882 137.148 242.63 137.133ZM242.63 136.36C242.733 136.371 242.836 136.332 242.919 136.249C242.982 136.166 243.024 136.057 243.038 135.939C243.06 135.799 243.071 135.656 243.07 135.513V132.897C243.072 132.751 243.061 132.606 243.038 132.464C243.023 132.35 242.981 132.246 242.919 132.167C242.836 132.084 242.733 132.044 242.63 132.056C242.532 132.047 242.434 132.087 242.356 132.167C242.29 132.244 242.247 132.348 242.232 132.464C242.209 132.606 242.198 132.751 242.2 132.897V135.525C242.199 135.668 242.209 135.811 242.228 135.952C242.241 136.071 242.285 136.18 242.351 136.261C242.432 136.338 242.532 136.373 242.63 136.36Z" fill="#263238"/>
<path d="M244.422 137.052V131.344H245.195V136.334H246.216V137.052H244.422Z" fill="#263238"/>
<path d="M247.859 137.052V131.344H248.898C249.069 131.341 249.24 131.366 249.406 131.418C249.547 131.457 249.68 131.537 249.795 131.653C249.907 131.769 249.994 131.922 250.047 132.098C250.112 132.325 250.143 132.567 250.138 132.809C250.146 133.02 250.121 133.231 250.065 133.428C250.026 133.582 249.955 133.718 249.859 133.817C249.76 133.921 249.644 133.989 249.521 134.015C249.673 134.041 249.817 134.122 249.937 134.25C250.05 134.372 250.135 134.535 250.18 134.72C250.238 134.942 250.266 135.177 250.262 135.413C250.266 135.658 250.241 135.902 250.189 136.137C250.144 136.331 250.067 136.508 249.964 136.656C249.862 136.8 249.734 136.909 249.594 136.972C249.425 137.045 249.249 137.08 249.072 137.077L247.859 137.052ZM248.633 133.681H248.894C249.015 133.69 249.136 133.658 249.246 133.589C249.329 133.528 249.391 133.426 249.42 133.304C249.456 133.15 249.473 132.989 249.47 132.828C249.476 132.665 249.45 132.502 249.392 132.358C249.342 132.246 249.262 132.164 249.168 132.129C249.042 132.088 248.913 132.069 248.784 132.073H248.633V133.681ZM248.633 136.322H248.921C249.005 136.332 249.09 136.317 249.169 136.278C249.248 136.238 249.32 136.175 249.379 136.093C249.472 135.879 249.515 135.631 249.502 135.382C249.508 135.193 249.487 135.005 249.443 134.826C249.409 134.689 249.339 134.575 249.246 134.504C249.133 134.426 249.007 134.389 248.88 134.399H248.614L248.633 136.322Z" fill="#263238"/>
<path d="M251.924 137.132C251.67 137.151 251.417 137.069 251.196 136.897C251.024 136.739 250.896 136.505 250.835 136.235C250.766 135.901 250.734 135.556 250.739 135.209V131.344H251.489V135.326C251.48 135.495 251.48 135.665 251.489 135.833C251.503 135.973 251.546 136.104 251.613 136.211C251.65 136.262 251.695 136.301 251.745 136.325C251.795 136.35 251.848 136.359 251.901 136.353C251.955 136.36 252.01 136.351 252.062 136.327C252.113 136.302 252.16 136.263 252.199 136.211C252.263 136.102 252.304 135.971 252.318 135.833C252.336 135.666 252.346 135.496 252.345 135.326V131.344H253.091V135.209C253.097 135.556 253.063 135.902 252.99 136.235C252.934 136.507 252.807 136.742 252.633 136.897C252.418 137.065 252.172 137.146 251.924 137.132Z" fill="#263238"/>
<path d="M254.776 137.132C254.555 137.142 254.335 137.071 254.14 136.928C253.964 136.786 253.829 136.568 253.756 136.31C253.663 136.007 253.614 135.684 253.609 135.357L254.273 135.184C254.276 135.38 254.296 135.575 254.332 135.765C254.355 135.913 254.407 136.05 254.483 136.161C254.52 136.207 254.562 136.242 254.608 136.266C254.655 136.289 254.704 136.3 254.753 136.297C254.804 136.304 254.855 136.293 254.901 136.266C254.947 136.239 254.988 136.197 255.019 136.143C255.073 136.028 255.1 135.895 255.097 135.759C255.104 135.541 255.061 135.324 254.973 135.141C254.875 134.965 254.763 134.806 254.639 134.664L254.108 134.046C253.963 133.883 253.841 133.686 253.747 133.465C253.653 133.22 253.608 132.948 253.614 132.673C253.606 132.481 253.628 132.288 253.678 132.108C253.729 131.928 253.806 131.765 253.907 131.628C254.128 131.374 254.413 131.243 254.703 131.263C254.874 131.256 255.044 131.298 255.202 131.387C255.326 131.463 255.435 131.58 255.518 131.727C255.596 131.88 255.654 132.049 255.692 132.228C255.73 132.43 255.754 132.637 255.765 132.846L255.106 133.001C255.1 132.839 255.087 132.678 255.065 132.518C255.047 132.396 255.004 132.282 254.941 132.191C254.907 132.148 254.868 132.116 254.824 132.096C254.781 132.076 254.735 132.068 254.689 132.073C254.64 132.069 254.591 132.08 254.546 132.106C254.501 132.131 254.46 132.171 254.429 132.222C254.365 132.328 254.332 132.462 254.337 132.599C254.331 132.766 254.362 132.931 254.424 133.075C254.495 133.219 254.581 133.349 254.68 133.458L255.207 134.077C255.384 134.275 255.538 134.509 255.664 134.77C255.793 135.06 255.858 135.395 255.852 135.734C255.855 135.987 255.809 136.236 255.719 136.458C255.63 136.665 255.502 136.838 255.348 136.959C255.172 137.083 254.975 137.143 254.776 137.132Z" fill="#263238"/>
<path d="M187.503 240.464L185.38 252.023C185.968 252.824 186.67 253.455 187.444 253.879C188.45 254.274 188.45 254.831 188.272 255.313C188.093 255.796 186.972 256.668 186.089 256.909C185.206 257.15 184.556 258.764 183.316 258.498C182.076 258.233 181.426 257.385 181.426 256.983C181.426 256.581 183.435 242.87 184.025 241.998C184.615 241.126 187.503 240.464 187.503 240.464Z" fill="white" stroke="#263238" stroke-linecap="round" stroke-linejoin="round"/>
<path d="M187.444 253.861C186.67 253.438 185.968 252.807 185.38 252.006C185.38 252.006 185.087 253.601 184.849 253.762C183.838 254.014 182.817 254.19 181.792 254.288C181.572 255.791 181.426 256.842 181.426 256.947C181.426 257.349 182.076 258.228 183.316 258.463C184.556 258.698 185.206 257.108 186.089 256.873C186.972 256.638 188.093 255.754 188.272 255.277C188.45 254.801 188.45 254.257 187.444 253.861Z" fill="white" stroke="#263238" stroke-linecap="round" stroke-linejoin="round"/>
<path d="M178.601 256.013C178.601 256.013 176.949 258.882 176.711 260.397C176.473 261.913 174.999 269.643 174.999 269.643C174.999 269.643 172.757 273.552 172.345 274.671C171.933 275.791 172.698 276.422 174.88 277.541C177.063 278.66 178.656 278.098 178.999 277.621C179.165 277.34 179.259 276.995 179.27 276.636C179.281 276.277 179.207 275.922 179.059 275.624C178.761 275.228 178.642 275.308 178.528 274.189C178.413 273.07 178.111 271.876 178.23 271.097C178.349 270.317 182.537 258.901 182.537 257.386C182.537 255.87 178.601 256.013 178.601 256.013Z" fill="white" stroke="#263238" stroke-linecap="round" stroke-linejoin="round"/>
<path d="M179.072 275.624C178.775 275.228 178.656 275.309 178.542 274.189C178.455 273.398 178.285 272.575 178.235 271.876L177.123 272.439C176.665 272.674 176.061 271.481 175.828 270.683C175.594 269.885 174.588 270.442 174.588 270.442H174.556C173.761 271.799 173.023 273.216 172.345 274.684C171.933 275.797 172.698 276.434 174.88 277.554C177.063 278.673 178.656 278.11 178.999 277.634C179.169 277.354 179.267 277.007 179.28 276.645C179.294 276.284 179.221 275.926 179.072 275.624Z" fill="white" stroke="#263238" stroke-linecap="round" stroke-linejoin="round"/>
<path d="M176.707 239.828C176.707 239.828 177.828 246.124 178.181 248.115C178.533 250.107 177.65 256.248 177.65 256.489C177.65 256.73 181.132 258.345 182.546 257.367C183.961 256.39 184.606 242.933 184.606 242.933C184.606 242.933 186.258 243.094 186.963 242.135C187.667 241.176 189.205 238.152 188.853 237.033C188.5 235.913 184.015 233.606 184.015 233.606C184.015 233.606 177.709 236.798 176.707 239.828Z" fill="#263238" stroke="#263238" stroke-linecap="round" stroke-linejoin="round"/>
<path d="M183.574 213.327C184.208 213.645 184.749 214.231 185.117 214.997C185.486 215.764 185.662 216.67 185.619 217.582C185.56 220.928 184.498 229.382 184.379 230.736C184.26 232.091 184.91 235.066 185.029 235.839C185.148 236.612 182.489 238.547 181.254 238.628C180.018 238.708 177.062 237.669 176.59 237.193C176.119 236.717 176.357 222.523 176.357 219.573C176.357 216.623 176.709 214.069 177.002 213.432C177.295 212.795 179.13 211.039 180.485 211.682C181.839 212.325 183.574 213.327 183.574 213.327Z" fill="white" stroke="#263238" stroke-linecap="round" stroke-linejoin="round"/>
<path d="M184.349 199.647C184.349 199.647 182.564 198.497 181.031 199.876C179.498 201.255 178.651 202.634 179.246 205.621C179.46 206.926 179.775 208.196 180.184 209.413L179.928 211.021L184.349 213.204L184.17 212.319C184.17 212.319 185.685 211.75 186.188 210.328C186.563 209.102 186.696 207.766 186.573 206.45C186.518 205.621 187.131 202.591 186.408 201.317C185.865 200.488 185.146 199.904 184.349 199.647Z" fill="white" stroke="#263238" stroke-linecap="round" stroke-linejoin="round"/>
<path d="M185.35 206.122C185.35 206.122 184.517 207.47 184.741 208.07C184.966 208.67 185.24 207.996 185.465 207.396C185.689 206.796 185.982 205.448 185.35 206.122Z" fill="white" stroke="#263238" stroke-linecap="round" stroke-linejoin="round"/>
<path d="M186.408 201.317C185.865 200.488 185.146 199.904 184.349 199.647C184.349 199.647 182.564 198.497 181.031 199.876C179.498 201.255 178.651 202.634 179.246 205.621C179.46 206.926 179.775 208.196 180.184 209.413C180.184 209.413 182.472 209.722 183.022 209.499C183.571 209.276 184.019 208.973 184.188 208.219C184.358 207.464 184.742 205.671 185.351 205.597C185.96 205.522 185.465 207.396 185.465 207.396C185.743 207.223 185.989 206.967 186.184 206.648C186.687 205.968 186.243 204.694 186.641 204.242C186.698 204.176 186.75 204.104 186.797 204.026C186.829 203.067 186.797 202.01 186.408 201.317Z" fill="#263238" stroke="#263238" stroke-linecap="round" stroke-linejoin="round"/>
<path d="M183.961 212.951L184.185 210.848" stroke="#263238" stroke-linecap="round" stroke-linejoin="round"/>
<path d="M183.573 213.327C183.573 213.327 182.242 211.076 181.075 210.625C179.908 210.173 179.244 209.87 178.242 211.076C177.24 212.282 176.965 213.55 177.299 214.372C177.633 215.195 178.077 216.024 179.519 215.127C180.823 214.346 182.181 213.743 183.573 213.327Z" fill="white" stroke="#263238" stroke-linecap="round" stroke-linejoin="round"/>
<path d="M179.832 237.831L184.788 228.585C184.933 229.394 184.993 230.227 184.967 231.059C184.848 231.677 180.303 239.352 180.303 239.352L179.832 237.831Z" fill="#263238" stroke="#263238" stroke-linecap="round" stroke-linejoin="round"/>
<path d="M172.743 241.455C172.655 242.876 172.451 244.281 172.134 245.642C171.942 246.329 171.698 246.988 171.406 247.608L172.619 248.103C172.994 247.274 173.301 246.393 173.534 245.475C173.713 244.491 174.262 241.949 174.262 241.949L172.743 241.455Z" fill="white" stroke="#263238" stroke-linecap="round" stroke-linejoin="round"/>
<path d="M175.541 241.702C175.541 241.702 175.294 243.341 175.115 244.411C174.91 245.413 174.666 246.4 174.383 247.367L175.783 247.608C175.783 247.608 176.57 244.819 176.698 243.996C176.827 243.174 177.184 241.621 177.184 241.621L175.541 241.702Z" fill="white" stroke="#263238" stroke-linecap="round" stroke-linejoin="round"/>
<path d="M183.574 213.328C183.574 213.328 180.192 215.029 180.013 216.222C179.835 217.416 180.073 236.878 180.251 237.25C180.43 237.621 181.194 239.723 180.073 240.342C178.952 240.96 174.764 242.494 173.757 242.574C172.751 242.655 170.041 240.818 168.627 239.482C167.213 238.146 165.845 224.918 166.618 223.811C167.124 223.011 167.583 222.159 167.991 221.263C168.403 220.545 170.234 216.933 170.883 216.556C171.533 216.179 173.95 214.961 174.892 214.002C175.835 213.043 176.663 212.728 177.432 213.049C178.201 213.371 178.906 213.668 178.906 213.668C178.906 213.668 181.885 210.823 183.574 213.328Z" fill="#919191" stroke="#263238" stroke-linecap="round" stroke-linejoin="round"/>
<path d="M179.979 225.078L175.403 226.828C175.403 226.828 175.229 220.372 174.579 219.333C174.121 218.622 172.085 217.298 170.858 216.55C170.469 216.915 170.129 217.367 169.852 217.886L169.975 217.978C169.975 217.978 173.458 220.211 173.751 222.202C174.043 224.194 174.281 242.197 174.574 242.444C176.436 241.921 178.271 241.233 180.066 240.385C181.187 239.767 180.418 237.67 180.244 237.293C180.153 237.052 180.034 230.737 179.979 225.078Z" fill="#FDC70A" stroke="#263238" stroke-linecap="round" stroke-linejoin="round"/>
<path d="M167.094 223.08C167.094 223.08 170.512 224.675 170.631 226.351C170.75 228.027 171.812 238.547 171.4 239.184C170.988 239.821 168.627 239.506 168.627 239.506C168.627 239.506 170.279 241.361 171.281 241.658C172.283 241.955 172.462 241.497 172.521 240.619C172.581 239.741 172.224 225.869 171.574 225.158C170.436 224.113 169.233 223.207 167.977 222.449C167.675 222.362 167.094 223.08 167.094 223.08Z" fill="#FDC70A" stroke="#263238" stroke-linecap="round" stroke-linejoin="round"/>
<path d="M187.864 223.563C187.864 223.563 189.465 224.503 190.289 225.109C191.113 225.715 193.95 227.329 193.95 227.329H195.817C195.817 227.329 197.163 228.566 197.236 229.048C197.258 229.411 197.178 229.771 197.012 230.056L196.339 230.458C196.339 230.458 195.817 231.572 195.296 231.77C194.774 231.967 192.98 230.359 192.98 230.359C192.98 230.359 188.495 229.45 187.15 229.048C185.804 228.646 184.459 228.22 184.235 227.57C184.01 226.921 184.015 224.602 184.537 223.996C185.058 223.389 186.706 222.715 187.864 223.563Z" fill="white" stroke="#263238" stroke-linecap="round" stroke-linejoin="round"/>
<path d="M184.973 225.047C185.741 223.773 187.865 223.538 187.865 223.538L187.929 223.049L187.215 222.258L186.625 220.106C186.625 220.106 187.334 217.236 186.625 215.64C185.915 214.045 185.032 213.785 184.501 214.366C184.501 214.366 182.968 216.277 182.79 218.751C182.611 221.225 183.32 226.791 184.03 227.44C184.093 227.492 184.163 227.527 184.236 227.546C184.311 226.639 184.566 225.776 184.973 225.047Z" fill="white" stroke="#263238" stroke-linecap="round" stroke-linejoin="round"/>
<path d="M154.151 197.482C154.151 197.482 152.477 199.955 152.477 201.891C152.477 203.827 154.307 208.447 154.307 208.447V210.37L158.829 212.065L159.163 210.933C159.163 210.933 160.586 210.481 160.993 209.35C161.4 208.218 161.162 205.28 161.162 205.28C161.4 203.9 161.37 202.46 161.075 201.1C160.853 200.063 160.435 199.123 159.863 198.369C159.291 197.616 158.585 197.076 157.813 196.801C155.991 196.01 154.151 197.482 154.151 197.482Z" fill="white" stroke="#263238" stroke-linecap="round" stroke-linejoin="round"/>
<path d="M161.093 201.1C160.813 201.466 160.649 201.965 160.635 202.491C160.535 203.53 160.635 203.877 160.379 204.081C160.123 204.285 159.152 204.909 159.152 204.909C159.152 204.909 158.182 205.12 157.926 205.948C157.67 206.777 157.519 207.532 156.906 207.804C156.292 208.076 155.78 207.389 155.533 207.458C155.285 207.526 155.194 207.86 154.764 208.15C154.334 208.441 153.18 205.386 152.668 204.211C152.408 203.662 152.257 203.032 152.231 202.382C152.204 201.732 152.303 201.083 152.517 200.5C153.086 199.117 153.85 197.896 154.764 196.907C155.377 196.356 157.88 196.146 158.425 196.356C159.329 196.83 160.187 197.454 160.978 198.212C161.235 198.558 162.155 198.422 161.894 198.762C161.633 199.102 161.331 199.455 161.331 199.455L162.049 199.665C162.049 199.665 161.592 200.562 161.486 200.766C161.379 200.921 161.243 201.036 161.093 201.1Z" fill="#263238" stroke="#263238" stroke-linecap="round" stroke-linejoin="round"/>
<path d="M159.497 204.019C159.497 204.019 158.476 205.744 158.733 206.492C158.989 207.241 159.602 207.321 159.703 206.839C159.789 206.146 159.943 205.473 160.161 204.835C160.472 204.08 160.009 203.53 159.497 204.019Z" fill="white" stroke="#263238" stroke-linecap="round" stroke-linejoin="round"/>
<path d="M150.81 242.128C149.311 242.049 147.81 242.094 146.316 242.264C145.245 242.548 144.2 242.987 143.199 243.575L143.355 245.994C144.193 245.186 145.12 244.56 146.101 244.138C147.634 243.52 151.469 244.002 151.469 244.002L150.81 242.128Z" fill="#919191" stroke="#263238" stroke-linecap="round" stroke-linejoin="round"/>
<path d="M142.046 245.369C142.046 245.369 141.076 250.687 140.925 251.72C140.774 252.753 139.342 259.525 139.287 259.729C139.232 259.933 140.513 260.422 140.513 260.422L142.801 249.908L143.364 245.975L142.046 245.369Z" fill="#919191" stroke="#263238" stroke-linecap="round" stroke-linejoin="round"/>
<path d="M142.587 225.002C142.587 225.002 142.994 229.832 143.2 230.457C143.406 231.081 143.3 239.573 142.792 240.537C142.284 241.502 141.42 244.613 141.717 245.096C142.014 245.578 143.149 246.128 143.355 245.992C143.561 245.856 145.497 239.158 145.552 238.119C145.607 237.08 145.959 232.25 145.959 232.25L145.653 229.158C145.653 229.158 143.25 224.866 142.587 225.002Z" fill="#919191" stroke="#263238" stroke-linecap="round" stroke-linejoin="round"/>
<path d="M150.51 255.591C150.51 255.591 148.72 258.906 148.464 260.836C148.208 262.765 148.006 271.881 148.006 271.881C147.551 272.858 147.223 273.933 147.036 275.06C146.785 276.786 146.373 276.916 147.192 277.682C148.011 278.449 150.716 278.443 151.311 278.443C151.905 278.443 153.969 278.029 153.864 276.996C153.759 275.963 152.894 274.714 152.436 274.368C151.979 274.021 151.567 273.056 151.21 272.092C150.853 271.127 152.024 265.876 152.281 264.565C152.537 263.254 154.477 258.832 154.633 257.762C154.789 256.692 154.889 255.826 154.889 255.826L150.51 255.591Z" fill="white" stroke="#263238" stroke-linecap="round" stroke-linejoin="round"/>
<path d="M153.88 276.996C153.779 275.957 152.91 274.713 152.452 274.367C152.057 273.974 151.742 273.453 151.537 272.852C151.137 273.168 150.711 273.421 150.269 273.606C150.113 273.606 149.656 272.988 149.244 272.574C148.832 272.159 147.871 272.784 147.871 272.784L147.619 272.87C147.365 273.566 147.175 274.302 147.052 275.06C146.8 276.785 146.388 276.915 147.208 277.682C148.027 278.449 150.731 278.443 151.326 278.443C151.921 278.443 153.985 278.028 153.88 276.996Z" fill="white" stroke="#263238" stroke-linecap="round" stroke-linejoin="round"/>
<path d="M153.876 276.997C153.876 276.947 153.876 276.898 153.853 276.848C153.499 277.059 153.119 277.178 152.732 277.201C152.178 277.114 151.872 277.529 150.522 277.782C149.359 277.992 147.318 276.867 146.737 276.545C146.65 277.009 146.705 277.244 147.195 277.689C148.009 278.45 150.719 278.45 151.314 278.45C151.908 278.45 153.982 278.029 153.876 276.997Z" fill="#263238" stroke="#263238" stroke-linecap="round" stroke-linejoin="round"/>
<path d="M157.661 257.249C157.661 257.249 155.972 259.389 155.716 261.665C155.46 263.941 154.032 267.466 154.032 267.466C154.032 267.466 151.066 270.156 150.865 271.127C150.719 271.583 150.712 272.099 150.845 272.562C150.979 273.026 151.243 273.399 151.579 273.601C152.448 274.294 153.519 275.19 153.519 275.19C153.519 275.19 153.419 276.297 155.258 277.955C157.098 279.612 158.576 281.127 159.139 280.577C159.387 280.271 159.562 279.873 159.644 279.433C159.725 278.993 159.709 278.531 159.597 278.103C159.391 277.417 157.858 274.028 157.4 272.098C156.942 270.168 156.737 270.094 156.888 269.544C157.039 268.993 159.441 264.089 160.617 261.881C161.793 259.673 162.201 257.806 162.251 257.045C162.301 256.284 158.631 256.903 157.661 257.249Z" fill="white" stroke="#263238" stroke-linecap="round" stroke-linejoin="round"/>
<path d="M157.404 272.092C157.276 271.547 157.166 271.158 157.079 270.855C156.702 270.91 156.33 271.022 155.972 271.189C155.766 271.257 154.644 270.082 154.182 269.463C153.893 269.07 153.588 268.701 153.267 268.356L153.043 268.406C152.16 269.278 150.993 270.521 150.869 271.121C150.723 271.577 150.716 272.093 150.849 272.556C150.983 273.019 151.247 273.393 151.583 273.595C152.452 274.287 153.523 275.184 153.523 275.184C153.523 275.184 153.423 276.291 155.262 277.948C157.102 279.606 158.58 281.121 159.143 280.571C159.391 280.265 159.566 279.867 159.648 279.427C159.729 278.987 159.713 278.524 159.601 278.097C159.395 277.41 157.862 274.021 157.404 272.092Z" fill="white" stroke="#263238" stroke-linecap="round" stroke-linejoin="round"/>
<path d="M150.97 271.838H150.91C150.94 272.158 151.031 272.462 151.172 272.722C151.314 272.982 151.503 273.188 151.72 273.322C152.585 274.015 153.661 274.911 153.661 274.911C153.661 274.911 153.555 276.012 155.395 277.67C157.235 279.327 158.713 280.842 159.276 280.292C159.276 280.292 155.638 276.581 154.164 274.837C153.175 273.697 152.105 272.692 150.97 271.838Z" fill="#263238" stroke="#263238" stroke-linecap="round" stroke-linejoin="round"/>
<path d="M149.125 244.403L149.075 249.308L148.512 255.245C149.636 256.043 150.873 256.513 152.141 256.624C153.218 256.615 154.292 256.453 155.344 256.142L156.214 257.997L159.175 257.311C160.044 257.1 163.01 257.447 163.01 257.447L162.703 249.574L161.984 241.361L149.212 242.047L149.125 244.403Z" fill="#FDC70A" stroke="#263238" stroke-linecap="round" stroke-linejoin="round"/>
<path d="M154.273 249.445L154.955 251.863L155.413 255.661" fill="white"/>
<path d="M154.273 249.445L154.955 251.863L155.413 255.661" stroke="#263238" stroke-linecap="round" stroke-linejoin="round"/>
<path d="M153.676 247.236L153.923 248.133" stroke="#263238" stroke-linecap="round" stroke-linejoin="round"/>
<path d="M159.804 212.504C159.007 211.557 158.091 210.809 157.099 210.296C155.768 209.746 153.626 210.16 153.264 210.643C152.964 211.094 152.692 211.578 152.45 212.09C152.45 212.09 150.047 215.801 149.64 217.959C149.233 220.117 148.414 233.631 148.67 237.36C148.823 239.565 148.823 241.785 148.67 243.99C148.67 243.99 158.884 243.093 159.804 243.093C160.724 243.093 162.207 243.297 162.207 243.297C162.207 243.297 162.362 231.008 162.307 230.18C162.252 229.351 161.694 217.81 161.085 215.541C160.477 213.271 159.804 212.504 159.804 212.504Z" fill="white" stroke="#263238" stroke-linecap="round" stroke-linejoin="round"/>
<path d="M152.449 212.09C152.449 212.09 155.872 210.853 158.325 212.158L152.449 212.09Z" fill="white"/>
<path d="M152.449 212.09C152.449 212.09 155.872 210.853 158.325 212.158" stroke="#263238" stroke-linecap="round" stroke-linejoin="round"/>
<path d="M161.236 224.724C161.236 224.724 163.588 230.872 164.201 231.7L165.066 232.875C165.444 232.891 165.814 233.033 166.142 233.29C166.398 233.63 167.318 234.805 167.514 235.015C167.711 235.225 168.43 234.947 168.283 235.498C168.137 236.048 167.514 236.048 167.514 236.048C167.514 236.048 167.972 236.666 167.972 237.155C167.973 237.243 167.959 237.33 167.933 237.41C167.906 237.491 167.868 237.562 167.819 237.621C167.771 237.679 167.714 237.723 167.652 237.75C167.59 237.776 167.524 237.784 167.46 237.773H167.254C166.793 238.025 166.315 238.211 165.826 238.33C165.469 238.33 164.343 236.326 164.192 235.776C163.993 235.281 163.733 234.835 163.423 234.459C163.423 234.459 160.156 230.94 158.874 229.511C158.161 228.725 157.526 227.819 156.984 226.814C156.984 226.814 159.14 224.792 161.236 224.724Z" fill="white" stroke="#263238" stroke-linecap="round" stroke-linejoin="round"/>
<path d="M155.82 218.243L156.841 227.842C156.841 227.842 158.475 226.252 159.495 225.986C160.375 225.796 161.263 225.68 162.154 225.64C162.154 225.64 162.053 218.46 161.797 216.876C161.541 215.293 160.47 211.347 158.218 212.733" fill="white"/>
<path d="M155.82 218.243L156.841 227.842C156.841 227.842 158.475 226.252 159.495 225.986C160.375 225.796 161.263 225.68 162.154 225.64C162.154 225.64 162.053 218.46 161.797 216.876C161.541 215.293 160.47 211.347 158.218 212.733" stroke="#263238" stroke-linecap="round" stroke-linejoin="round"/>
<path d="M159.396 211.885C158.717 211.713 158.019 211.741 157.349 211.968C156.68 212.194 156.054 212.613 155.515 213.197C153.57 215.2 150.609 218.923 150.609 218.923L151.982 218.787C151.982 218.787 155.868 215.336 157.044 214.025C158.22 212.714 158.476 211.743 159.396 211.885Z" fill="#919191" stroke="#263238" stroke-linecap="round" stroke-linejoin="round"/>
<path d="M150.604 218.924C150.604 218.924 147.945 222.016 146.668 223.346C145.392 224.676 143.415 227.211 145.703 233.012C147.991 238.814 150.252 244.819 152.11 245.647C153.968 246.476 156.146 244.887 156.809 244.268C157.473 243.65 161.303 239.432 161.711 237.638C162.118 235.845 161.816 232.116 160.846 230.39C159.876 228.665 155.99 222.239 154.613 220.792C153.235 219.345 152.494 217.341 150.604 218.924Z" fill="#919191" stroke="#263238" stroke-linecap="round" stroke-linejoin="round"/>
<path d="M159.025 242.295L158.719 249.438L160.54 249.611L160.325 240.538L159.025 242.295Z" fill="#919191" stroke="#263238" stroke-linecap="round" stroke-linejoin="round"/>
<path d="M158.524 228.522C156.94 225.349 154.538 221.756 152.753 221.341C150.968 220.927 148.254 223.481 147.746 224.31C147.609 224.532 145.701 225.695 145.243 228.639C144.786 231.583 147.49 238.441 148.305 239.889C149.119 241.336 149.943 244.836 152.089 245.622C154.236 246.407 157.352 244.515 158.524 243.204C159.695 241.892 161.896 237.749 161.846 236.784C161.796 235.819 160.112 231.7 158.524 228.522ZM151.934 243.296C150.657 243.092 146.058 233.358 145.801 230.872C145.667 229.33 145.92 227.773 146.52 226.45C147.133 224.934 150.25 222.931 151.577 222.739C152.904 222.547 156.634 227.229 157.81 229.647C158.986 232.065 159.855 235.72 159.444 237.242C159.032 238.763 153.215 243.507 151.938 243.296H151.934Z" fill="#263238" stroke="#263238" stroke-linecap="round" stroke-linejoin="round"/>
<path d="M145.805 230.872C145.805 230.872 151.067 230.253 153.626 224.106" stroke="#263238" stroke-linecap="round" stroke-linejoin="round"/>
<path d="M147.033 223.135C147.033 223.135 144.379 223.209 144.022 223.549C143.665 223.89 142.077 224.242 142.589 225.003C143.102 225.763 144.736 228.039 144.736 228.039C144.736 228.039 144.887 225.831 145.5 225.003C146.113 224.174 147.033 223.135 147.033 223.135Z" fill="#919191" stroke="#263238" stroke-linecap="round" stroke-linejoin="round"/>
<path d="M102.181 155.05H92.2912C91.0603 155.05 90.0625 156.398 90.0625 158.062V179.244C90.0625 180.907 91.0603 182.256 92.2912 182.256H102.181C103.411 182.256 104.409 180.907 104.409 179.244V158.062C104.409 156.398 103.411 155.05 102.181 155.05Z" fill="white" stroke="#263238" stroke-linecap="round" stroke-linejoin="round"/>
<path d="M98.086 155.879H96.0312V277.467H98.086V155.879Z" fill="#919191" stroke="#263238" stroke-linecap="round" stroke-linejoin="round"/>
</svg>
