<svg width="295" height="284" viewBox="0 0 295 284" fill="none" xmlns="http://www.w3.org/2000/svg">
<path d="M169.631 167.339L166.651 165.641C165.519 165.071 164.265 164.773 162.994 164.773C161.723 164.773 160.47 165.071 159.337 165.641L1.98985 255.431C-0.0226591 256.582 -0.0226591 258.46 1.98985 259.59L4.96304 261.288C6.09652 261.855 7.34929 262.151 8.61992 262.151C9.89055 262.151 11.1433 261.855 12.2768 261.288L60.0792 234.049L81.3473 246.185C86.8309 249.311 95.7995 249.311 101.283 246.185L134.241 227.368C138.925 224.693 138.925 220.319 134.241 217.665L111.542 204.662L169.631 171.512C171.644 170.361 171.644 168.483 169.631 167.339Z" fill="#E0E0E0"/>
<path d="M66.0609 31.9837L68.7045 30.4034C68.6817 30.2218 68.67 30.0389 68.6694 29.8559V28.5668C68.739 27.3171 69.1054 26.1011 69.7389 25.0174C70.3724 23.9337 71.2552 23.0127 72.3158 22.3289C72.632 22.1203 72.9871 21.9761 73.3603 21.9047C73.7336 21.8333 74.1175 21.8362 74.4896 21.9131C74.8192 18.6486 77.1122 14.9822 79.903 13.3603C82.9113 11.6415 85.3586 13.0346 85.3586 16.4723V18.406C85.3465 19.3479 85.1904 20.2826 84.8958 21.1784L88.6263 19.0298C89.7482 18.3922 90.6528 18.9051 90.6528 20.1803C90.6151 20.8749 90.4119 21.5509 90.0597 22.1531C89.7075 22.7553 89.2164 23.2668 88.6263 23.6458L66.0469 36.5997C64.9319 37.2373 64.0273 36.7244 64.0273 35.4492C64.0669 34.7542 64.2717 34.0783 64.625 33.4762C64.9783 32.8741 65.4703 32.3627 66.0609 31.9837Z" fill="#EBEBEB"/>
<path d="M43.4196 26.7155L40.6147 27.769V21.7391C40.6147 16.9568 36.758 15.8132 32.5647 18.1974C28.4134 20.5747 25.0195 26.4036 25.0195 31.186V32.0593C24.4318 31.8812 23.8109 31.8373 23.2035 31.9309C22.5962 32.0246 22.0183 32.2533 21.5134 32.5999C19.9242 33.6228 18.6018 35.0022 17.6538 36.6257C16.7058 38.2492 16.159 40.0709 16.0579 41.9428V42.3378L12.1871 44.5418C11.1401 45.2159 10.2687 46.1245 9.64363 47.1939C9.01859 48.2633 8.65755 49.4633 8.58984 50.6965C8.58984 52.9629 10.2027 53.8778 12.1871 52.7758L43.4196 34.9217C44.4649 34.2465 45.3347 33.3375 45.9585 32.2682C46.5822 31.199 46.9424 29.9995 47.0099 28.7671C47.0099 26.5007 45.4041 25.5789 43.4196 26.7155Z" fill="#EBEBEB"/>
<path d="M101.661 241.325L128.946 225.73C131.751 224.122 133.153 222.022 133.153 219.922C133.153 217.822 133.153 216.166 133.153 216.166L107.481 201.77C106.691 201.26 106.034 200.573 105.563 199.765C105.091 198.957 104.819 198.051 104.768 197.119V163.851L57.1406 191.076V224.344C57.1925 225.275 57.466 226.181 57.9387 226.988C58.4115 227.795 59.0702 228.48 59.8614 228.988L81.3048 241.325C86.9216 244.534 96.0375 244.534 101.661 241.325Z" fill="#263238"/>
<path opacity="0.15" d="M68.5745 230.229V233.965L59.8583 228.988C59.0679 228.479 58.4102 227.792 57.9387 226.984C57.4672 226.176 57.1951 225.269 57.1445 224.338V191.076L66.2254 185.899C66.4077 188.179 66.6181 190.536 66.8004 192.83L60.4403 196.469V222.446C60.4884 223.376 60.7588 224.282 61.2292 225.089C61.6997 225.896 62.3569 226.582 63.147 227.089L68.5745 230.229Z" fill="black"/>
<path d="M60.4257 222.466C60.4771 223.398 60.7502 224.305 61.223 225.113C61.6957 225.921 62.3547 226.607 63.1464 227.116L81.2941 237.575C86.9039 240.791 96.0198 240.791 101.665 237.575L128.956 221.987C134.566 218.778 134.566 213.573 128.956 210.364L110.788 199.892C109.997 199.384 109.339 198.698 108.867 197.891C108.396 197.084 108.124 196.179 108.074 195.248V169.278L60.3906 196.489L60.4257 222.466Z" fill="#455A64"/>
<path opacity="0.3" d="M116.328 203.059L110.795 199.899C110.005 199.391 109.347 198.705 108.875 197.898C108.404 197.091 108.132 196.186 108.082 195.255V169.278L60.3984 196.489V222.466C60.4498 223.398 60.723 224.305 61.1957 225.113C61.6685 225.921 62.3275 226.607 63.1192 227.116L68.5537 230.221L116.328 203.059Z" fill="black"/>
<path d="M3.66402 242.968C4.69276 243.46 5.82429 243.706 6.967 243.686C8.10971 243.665 9.23149 243.379 10.2415 242.85L167.014 153.386C168.001 152.75 168.822 151.892 169.411 150.883C169.999 149.873 170.339 148.741 170.401 147.578V6.40893C170.361 5.27966 170.052 4.17563 169.499 3.18679C168.946 2.19795 168.164 1.35227 167.217 0.718647C166.189 0.2265 165.057 -0.0192885 163.914 0.00118143C162.772 0.0216514 161.65 0.307806 160.64 0.836474L3.87439 90.2938C2.88478 90.9332 2.0617 91.7942 1.47199 92.807C0.882283 93.8198 0.542578 94.9558 0.480469 96.1227V237.278C0.521308 238.407 0.830849 239.51 1.38398 240.499C1.93711 241.488 2.71825 242.334 3.66402 242.968Z" fill="#455A64"/>
<path d="M10.2455 242.843L167.018 153.386C168.006 152.748 168.828 151.889 169.417 150.879C170.007 149.868 170.348 148.735 170.412 147.571V6.40181C170.412 4.26015 168.89 3.39379 167.018 4.46808L10.2455 93.9254C9.25826 94.5623 8.43659 95.42 7.84698 96.429C7.25736 97.438 6.91636 98.5701 6.85156 99.7335V240.909C6.85156 243.058 8.37322 243.91 10.2455 242.843Z" fill="#37474F"/>
<path d="M11.3359 218.875V101.229C11.3754 100.512 11.5867 99.8147 11.9525 99.1941C12.3182 98.5735 12.8279 98.0477 13.4396 97.66L163.824 11.8275C164.981 11.1344 165.928 11.7028 165.928 13.0196V130.665C165.888 131.383 165.676 132.081 165.31 132.703C164.945 133.325 164.435 133.852 163.824 134.241L13.4186 220.067C12.2686 220.725 11.3359 220.185 11.3359 218.875Z" fill="#FDC70A"/>
<path opacity="0.7" d="M11.3359 218.875V101.229C11.3754 100.512 11.5867 99.8147 11.9525 99.1941C12.3182 98.5735 12.8279 98.0477 13.4396 97.66L163.824 11.8275C164.981 11.1344 165.928 11.7028 165.928 13.0196V130.665C165.888 131.383 165.676 132.081 165.31 132.703C164.945 133.325 164.435 133.852 163.824 134.241L13.4186 220.067C12.2686 220.725 11.3359 220.185 11.3359 218.875Z" fill="white"/>
<path d="M1.48552 92.7881L7.84562 96.413C7.24378 97.4228 6.89963 98.5622 6.84287 99.7329V240.909C6.84287 242.856 8.18221 243.951 10.2368 242.849C9.22836 243.383 8.10605 243.672 6.96243 243.692C5.81881 243.713 4.68665 243.464 3.65932 242.967C2.72381 242.418 1.94193 241.647 1.38472 240.723C0.827511 239.8 0.512648 238.753 0.46875 237.679V96.1219C0.51328 94.9429 0.863387 93.795 1.48552 92.7881Z" fill="#263238"/>
<path d="M85.6513 190.897L93.3297 186.537C94.0309 186.149 94.5779 186.426 94.5779 187.161C94.5459 187.574 94.4163 187.975 94.1996 188.33C93.9828 188.685 93.6849 188.985 93.3297 189.206L85.6513 193.558C84.9501 193.953 84.4102 193.676 84.4102 192.934C84.4397 192.522 84.5676 192.122 84.7833 191.768C84.999 191.414 85.2965 191.115 85.6513 190.897Z" fill="#FDC70A"/>
<path d="M47.88 265.091L53.2303 262.034C53.2303 262.034 56.4209 248.942 55.1516 237.159C53.3635 220.601 42.3333 214.37 38.1259 215.798C33.9186 217.226 32.7195 222.036 39.6546 231.912C43.7357 237.728 48.7986 249.85 47.88 265.091Z" fill="#FDC70A"/>
<g opacity="0.3">
<path d="M47.88 265.091L53.2303 262.034C53.2303 262.034 56.4209 248.942 55.1516 237.159C53.3635 220.601 42.3333 214.371 38.1259 215.798C33.9186 217.226 32.7195 222.036 39.6546 231.913C43.7357 237.728 48.7986 249.85 47.88 265.091Z" fill="white"/>
</g>
<path d="M50.1023 258.659H50.0532C50.0049 258.651 49.9587 258.633 49.9176 258.607C49.8764 258.581 49.841 258.546 49.8135 258.506C49.786 258.466 49.767 258.421 49.7576 258.373C49.7481 258.326 49.7485 258.277 49.7587 258.229C52.6898 242.981 47.2903 225.793 40.6427 218.647C40.6075 218.614 40.5795 218.574 40.5603 218.53C40.5411 218.486 40.5312 218.439 40.5312 218.391C40.5312 218.343 40.5411 218.295 40.5603 218.251C40.5795 218.207 40.6075 218.167 40.6427 218.134C40.6773 218.1 40.7183 218.073 40.7634 218.054C40.8085 218.036 40.8569 218.026 40.9057 218.026C40.9546 218.026 41.0029 218.036 41.048 218.054C41.0932 218.073 41.1341 218.1 41.1687 218.134C47.9775 225.405 53.4751 242.85 50.5019 258.333C50.4897 258.428 50.4415 258.514 50.3673 258.574C50.293 258.635 50.1983 258.665 50.1023 258.659Z" fill="white"/>
<path d="M34.3967 272.784C33.5973 273.186 31.4726 271.398 30.8906 270.947C29.8692 270.183 29.0649 269.17 28.5555 268.008C27.9845 266.698 27.8423 265.244 28.1488 263.85C28.309 263.113 28.5222 262.388 28.7869 261.68L29.4882 259.601C29.7749 258.928 29.9204 258.204 29.9159 257.473C29.7967 256.004 28.5134 254.916 27.3985 254.008C26.1293 252.968 24.825 251.61 24.9232 249.849C25.0899 248.494 25.7064 247.231 26.6762 246.259C27.5808 245.24 28.6327 244.346 29.4811 243.265C30.124 242.513 30.4877 241.567 30.5119 240.583C30.4571 239.978 30.2832 239.389 30 238.85C29.3389 237.72 28.7737 236.538 28.3101 235.315C27.9384 234.068 28.0787 232.543 29.0885 231.711C29.5381 231.414 30.0431 231.208 30.574 231.106C31.1049 231.003 31.6512 231.007 32.1808 231.115C33.189 231.281 34.1471 231.667 34.9857 232.245C37.7275 233.936 39.1931 237.311 42.0962 238.649C43.2621 239.077 44.4542 239.431 45.6654 239.709C46.2729 239.851 46.8435 240.117 47.3401 240.491C47.8366 240.865 48.248 241.338 48.5474 241.879C49.5361 244.097 47.3623 246.668 48.0215 249.004C48.5965 251.083 50.5599 251.949 51.5907 253.855C52.0048 254.689 52.1398 255.63 51.9764 256.545C51.8043 258.099 51.3406 259.608 50.609 260.994C49.794 262.417 48.8924 263.789 47.9093 265.104C47.9093 265.104 34.5229 272.721 34.3967 272.784Z" fill="#FDC70A"/>
<g opacity="0.65">
<path d="M34.3967 272.784C33.5973 273.186 31.4726 271.398 30.8906 270.948C29.8692 270.183 29.0649 269.171 28.5555 268.009C27.9845 266.699 27.8423 265.244 28.1488 263.85C28.309 263.113 28.5222 262.388 28.7869 261.681L29.4882 259.602C29.7749 258.928 29.9204 258.204 29.9159 257.474C29.7967 256.005 28.5134 254.916 27.3985 254.008C26.1293 252.969 24.825 251.61 24.9232 249.85C25.0899 248.494 25.7064 247.232 26.6762 246.26C27.5808 245.241 28.6327 244.347 29.4811 243.265C30.124 242.514 30.4877 241.567 30.5119 240.583C30.4571 239.978 30.2832 239.39 30 238.85C29.3389 237.72 28.7737 236.538 28.3101 235.316C27.9384 234.068 28.0787 232.543 29.0885 231.712C29.5381 231.414 30.0431 231.209 30.574 231.106C31.1049 231.004 31.6512 231.007 32.1808 231.116C33.189 231.282 34.1471 231.668 34.9857 232.245C37.7275 233.936 39.1931 237.312 42.0962 238.65C43.2621 239.077 44.4542 239.431 45.6654 239.71C46.2729 239.851 46.8435 240.118 47.3401 240.491C47.8366 240.865 48.248 241.338 48.5474 241.879C49.5361 244.097 47.3623 246.669 48.0215 249.004C48.5965 251.084 50.5599 251.95 51.5907 253.856C52.0048 254.689 52.1398 255.631 51.9764 256.545C51.8043 258.099 51.3406 259.608 50.609 260.995C49.794 262.417 48.8924 263.79 47.9093 265.105C47.9093 265.105 34.5229 272.722 34.3967 272.784Z" fill="white"/>
</g>
<path d="M42.1509 268.792C42.1042 268.789 42.0586 268.776 42.0169 268.755C41.9752 268.734 41.9383 268.705 41.9082 268.669C41.8781 268.634 41.8556 268.592 41.8419 268.548C41.8281 268.504 41.8236 268.457 41.8284 268.411C43.1046 254.674 37.3195 239.149 32.7756 234.491C32.7427 234.459 32.7166 234.421 32.6988 234.378C32.681 234.336 32.6719 234.291 32.6719 234.245C32.6719 234.199 32.681 234.154 32.6988 234.112C32.7166 234.07 32.7427 234.031 32.7756 233.999C32.8423 233.935 32.9316 233.899 33.0245 233.899C33.1175 233.899 33.2067 233.935 33.2735 233.999C37.9085 238.747 43.7918 254.535 42.5156 268.467C42.5101 268.557 42.4689 268.642 42.4007 268.703C42.3325 268.764 42.2428 268.796 42.1509 268.792Z" fill="white"/>
<path d="M40.7697 251.846C40.735 251.853 40.6993 251.853 40.6646 251.846C37.4098 250.799 34.0502 250.102 30.6441 249.767C30.598 249.763 30.553 249.751 30.5118 249.73C30.4706 249.71 30.434 249.681 30.404 249.646C30.374 249.611 30.3513 249.571 30.3372 249.528C30.323 249.484 30.3177 249.438 30.3215 249.393C30.325 249.347 30.3378 249.302 30.3593 249.261C30.3808 249.22 30.4105 249.184 30.4466 249.155C30.4827 249.126 30.5244 249.104 30.5692 249.091C30.614 249.079 30.6609 249.075 30.7072 249.081C34.1777 249.424 37.5993 250.145 40.91 251.229C40.9968 251.264 41.067 251.329 41.1061 251.413C41.1452 251.497 41.1503 251.592 41.1204 251.68C41.0858 251.739 41.0337 251.787 40.9712 251.817C40.9086 251.846 40.8383 251.857 40.7697 251.846Z" fill="white"/>
<path d="M230.3 9.78225C230.291 9.65294 230.268 9.52503 230.23 9.40105C230.236 9.38821 230.24 9.37395 230.24 9.35947C230.24 9.34499 230.236 9.33072 230.23 9.31788C230.213 9.19183 230.18 9.0684 230.131 8.95054C230.077 8.76361 229.995 8.58598 229.886 8.42379C229.853 8.3442 229.806 8.27134 229.746 8.20894C229.714 8.15243 229.674 8.10102 229.627 8.05645C229.546 7.95626 229.454 7.86556 229.353 7.78615C229.241 7.70737 229.121 7.64003 228.995 7.58515C228.534 7.41416 228.038 7.35698 227.549 7.41858C227.06 7.48017 226.594 7.65868 226.191 7.93863L83.4495 89.3422C81.1425 90.6522 79.2422 93.8681 79.2422 98.4703V228.446C79.2414 228.945 79.3738 229.435 79.6262 229.867C79.8786 230.3 80.2419 230.658 80.6794 230.907C81.117 231.156 81.6133 231.286 82.1181 231.285C82.623 231.284 83.1186 231.151 83.5547 230.899L226.141 149.489C227.363 148.705 228.381 147.648 229.112 146.403C229.843 145.158 230.267 143.76 230.349 142.322V10.2951C230.321 10.1219 230.314 9.94166 230.3 9.78225Z" fill="#FAFAFA"/>
<path d="M227.993 8.02122C228.235 8.0144 228.475 8.06428 228.694 8.16677C228.761 8.193 228.825 8.22796 228.883 8.27073H228.925C228.977 8.31159 229.024 8.35809 229.066 8.40935L229.122 8.48559L229.171 8.5549L229.206 8.59648V8.65193L229.255 8.72817C229.325 8.83241 229.377 8.9471 229.409 9.06779C229.423 9.10404 229.435 9.14107 229.444 9.17868V9.23413L229.528 9.4975C229.55 9.5699 229.564 9.64418 229.57 9.71929C229.57 9.86484 229.57 10.0243 229.57 10.1767V142.301C229.489 143.618 229.098 144.899 228.43 146.041C227.762 147.184 226.835 148.157 225.721 148.885L83.162 230.323C82.8299 230.521 82.4489 230.624 82.0611 230.621C81.4777 230.62 80.9187 230.39 80.5062 229.982C80.0937 229.574 79.8611 229.022 79.8593 228.445V98.4697C79.8593 93.7844 81.8507 90.9774 83.709 89.9169L226.471 8.48559C226.929 8.20361 227.453 8.04363 227.993 8.02122ZM227.993 7.32812C227.336 7.35127 226.698 7.5449 226.141 7.88953L83.4495 89.3417C81.1425 90.6516 79.2422 93.8675 79.2422 98.4697V228.445C79.2422 228.818 79.3165 229.188 79.461 229.533C79.6055 229.877 79.8173 230.191 80.0843 230.455C80.3512 230.718 80.6682 230.928 81.017 231.071C81.3658 231.213 81.7397 231.287 82.1172 231.287C82.6111 231.282 83.0949 231.148 83.5197 230.899L226.141 149.488C227.363 148.705 228.381 147.647 229.112 146.402C229.843 145.157 230.267 143.759 230.349 142.322V10.2946C230.349 10.1213 230.349 9.94108 230.349 9.78167C230.34 9.65236 230.317 9.52445 230.279 9.40047C230.285 9.38763 230.289 9.37336 230.289 9.35888C230.289 9.34441 230.285 9.33014 230.279 9.3173C230.262 9.19124 230.229 9.06781 230.181 8.94996C230.126 8.76303 230.044 8.58539 229.935 8.42321C229.902 8.34361 229.855 8.27075 229.795 8.20835C229.763 8.15185 229.723 8.10044 229.676 8.05587C229.595 7.95568 229.504 7.86498 229.402 7.78557C229.29 7.70679 229.17 7.63945 229.045 7.58457C228.745 7.4434 228.416 7.37226 228.084 7.37664L227.993 7.32812Z" fill="#E0E0E0"/>
<path d="M120.502 86.7484L215.7 32.417V36.7835L120.502 91.108C119.604 91.6209 118.875 91.1981 118.875 90.1792V89.5347C118.903 88.976 119.066 88.4321 119.348 87.9476C119.631 87.4632 120.027 87.0521 120.502 86.7484Z" fill="#E0E0E0"/>
<path d="M223.346 28.0592L217.582 31.3444V35.7109L223.346 32.4187C223.818 32.1147 224.211 31.7055 224.493 31.224C224.776 30.7425 224.94 30.2021 224.973 29.6463V29.0018C224.973 27.9621 224.244 27.5463 223.346 28.0592Z" fill="#E0E0E0"/>
<path d="M220.543 32.91C220.429 32.9115 220.317 32.8802 220.221 32.8199C220.079 32.7195 219.967 32.5839 219.896 32.4269C219.824 32.2699 219.796 32.0971 219.814 31.9258C219.819 31.5505 219.914 31.1817 220.091 30.8494C220.268 30.517 220.521 30.2305 220.831 30.0129C220.945 29.9366 221.079 29.8919 221.217 29.8833C221.355 29.8748 221.493 29.9028 221.616 29.9644C221.756 30.0658 221.868 30.2015 221.939 30.3583C222.01 30.515 222.039 30.6874 222.023 30.8585C222.019 31.2342 221.924 31.6035 221.748 31.9361C221.571 32.2687 221.317 32.555 221.006 32.7714C220.866 32.8564 220.707 32.9042 220.543 32.91ZM221.286 30.2208C221.188 30.2262 221.091 30.2547 221.006 30.304C220.748 30.492 220.536 30.7359 220.388 31.017C220.24 31.2981 220.158 31.6089 220.15 31.9258C220.137 32.0379 220.152 32.1515 220.194 32.2565C220.236 32.3616 220.302 32.4551 220.389 32.5288C220.46 32.5608 220.539 32.5731 220.616 32.5646C220.694 32.5561 220.768 32.5269 220.831 32.4803C221.089 32.2923 221.3 32.0485 221.448 31.7674C221.597 31.4863 221.678 31.1754 221.686 30.8585C221.699 30.7464 221.684 30.6329 221.642 30.5278C221.601 30.4227 221.534 30.3292 221.448 30.2555C221.398 30.2303 221.342 30.2184 221.286 30.2208Z" fill="#FAFAFA"/>
<path d="M222.328 32.6186C222.294 32.6274 222.257 32.6274 222.223 32.6186L221.473 32.0576C221.442 32.0256 221.426 31.9835 221.426 31.9399C221.426 31.8962 221.442 31.8542 221.473 31.8221C221.485 31.8044 221.501 31.7893 221.52 31.7779C221.538 31.7665 221.559 31.7589 221.581 31.7557C221.602 31.7525 221.624 31.7536 221.646 31.7591C221.667 31.7645 221.687 31.7742 221.704 31.7875L222.461 32.3485C222.491 32.3805 222.508 32.4226 222.508 32.4662C222.508 32.5099 222.491 32.5519 222.461 32.584C222.443 32.5995 222.422 32.6108 222.399 32.6168C222.376 32.6228 222.351 32.6234 222.328 32.6186Z" fill="#FAFAFA"/>
<path d="M83.4495 89.3418C81.1425 90.6518 79.2422 93.8677 79.2422 98.4698V228.445C79.2414 228.944 79.3738 229.435 79.6262 229.867C79.8786 230.299 80.2419 230.658 80.6794 230.907C81.117 231.156 81.6133 231.286 82.1181 231.285C82.623 231.283 83.1186 231.15 83.5547 230.899L115.257 212.809V83.7971L115.306 71.1689L83.4495 89.3418Z" fill="#F0F0F0"/>
<path d="M114.612 72.3264L114.556 83.7971V212.428L83.2252 230.324C82.8931 230.521 82.5121 230.624 82.1243 230.622C81.5409 230.62 80.9819 230.39 80.5694 229.982C80.1569 229.574 79.9243 229.022 79.9225 228.445V98.4698C79.9225 93.7845 81.9139 90.9775 83.7722 89.9171L114.626 72.3264M115.327 71.1689L83.4847 89.3418C81.1777 90.6518 79.2773 93.8677 79.2773 98.4698V228.445C79.2773 228.818 79.3517 229.188 79.4962 229.533C79.6407 229.878 79.8524 230.191 80.1194 230.455C80.3864 230.719 80.7033 230.928 81.0521 231.071C81.4009 231.213 81.7748 231.287 82.1524 231.287C82.6463 231.282 83.13 231.148 83.5548 230.899L115.257 212.809V83.7971L115.306 71.1689H115.327Z" fill="#E0E0E0"/>
<path d="M91.8549 104.721L108.586 95.1774C109.175 94.8447 109.652 95.115 109.652 95.7873V97.1735C109.632 97.5388 109.525 97.8944 109.34 98.2111C109.155 98.5279 108.897 98.7969 108.586 98.9963L91.8549 108.526C91.2659 108.859 90.7891 108.589 90.7891 107.916V106.53C90.811 106.167 90.9189 105.814 91.104 105.5C91.2892 105.186 91.5464 104.919 91.8549 104.721Z" fill="#E0E0E0"/>
<path d="M87.4618 108.449V109.835C87.4415 110.2 87.3344 110.556 87.1492 110.873C86.964 111.189 86.706 111.458 86.3959 111.658L85.9682 111.915C85.3792 112.254 84.9023 111.977 84.9023 111.305V109.918C84.9227 109.552 85.0298 109.196 85.2149 108.878C85.4 108.56 85.658 108.29 85.9682 108.089L86.3959 107.832C86.985 107.5 87.4618 107.777 87.4618 108.449Z" fill="#FDC70A"/>
<path d="M91.8549 112.304L108.586 102.76C109.175 102.428 109.652 102.698 109.652 103.37V104.756C109.632 105.122 109.525 105.477 109.34 105.794C109.155 106.111 108.897 106.38 108.586 106.579L91.8549 116.123C91.2659 116.456 90.7891 116.186 90.7891 115.513V114.127C90.8089 113.762 90.9157 113.406 91.101 113.089C91.2862 112.773 91.5445 112.504 91.8549 112.304Z" fill="#E0E0E0"/>
<path d="M87.4618 116.032V117.418C87.442 117.783 87.3351 118.139 87.1499 118.455C86.9647 118.772 86.7063 119.041 86.3959 119.241L85.9682 119.497C85.3792 119.837 84.9023 119.566 84.9023 118.894V117.508C84.9227 117.142 85.0298 116.785 85.2149 116.468C85.4 116.15 85.658 115.879 85.9682 115.678L86.3959 115.422C86.985 115.082 87.4618 115.359 87.4618 116.032Z" fill="#FDC70A"/>
<path d="M91.8549 119.887L108.586 110.343C109.175 110.011 109.652 110.281 109.652 110.953V112.339C109.632 112.705 109.525 113.06 109.34 113.377C109.155 113.694 108.897 113.963 108.586 114.162L91.8549 123.706C91.2659 124.039 90.7891 123.769 90.7891 123.096V121.71C90.8089 121.345 90.9157 120.989 91.101 120.672C91.2862 120.356 91.5445 120.087 91.8549 119.887Z" fill="#E0E0E0"/>
<path d="M87.4618 123.616V125.003C87.442 125.368 87.3351 125.723 87.1499 126.04C86.9647 126.357 86.7063 126.626 86.3959 126.825L85.9682 127.082C85.3792 127.421 84.9023 127.151 84.9023 126.479V125.093C84.9227 124.727 85.0298 124.37 85.2149 124.052C85.4 123.735 85.658 123.464 85.9682 123.263L86.3959 123.006C86.985 122.674 87.4618 122.944 87.4618 123.616Z" fill="#FDC70A"/>
<path d="M91.8549 145.031L108.586 135.487C109.175 135.154 109.652 135.425 109.652 136.097V137.483C109.632 137.848 109.525 138.204 109.34 138.521C109.155 138.837 108.897 139.107 108.586 139.306L91.8549 148.85C91.2659 149.182 90.7891 148.912 90.7891 148.24V146.854C90.8089 146.488 90.9157 146.133 91.101 145.816C91.2862 145.499 91.5445 145.23 91.8549 145.031Z" fill="#E0E0E0"/>
<path d="M87.4618 148.796V150.182C87.442 150.547 87.3351 150.903 87.1499 151.219C86.9647 151.536 86.7063 151.805 86.3959 152.005L85.9682 152.261C85.3792 152.601 84.9023 152.33 84.9023 151.658V150.272C84.9227 149.906 85.0298 149.549 85.2149 149.232C85.4 148.914 85.658 148.643 85.9682 148.442L86.3959 148.186C86.985 147.818 87.4618 148.102 87.4618 148.796Z" fill="#FDC70A"/>
<path d="M91.8549 151.747L108.586 142.203C109.175 141.87 109.652 142.14 109.652 142.813V144.199C109.632 144.564 109.525 144.92 109.34 145.237C109.155 145.553 108.897 145.822 108.586 146.022L91.8549 155.566C91.2659 155.898 90.7891 155.628 90.7891 154.956V153.569C90.8089 153.204 90.9157 152.849 91.101 152.532C91.2862 152.215 91.5445 151.946 91.8549 151.747Z" fill="#E0E0E0"/>
<path d="M87.4618 155.478V156.864C87.442 157.23 87.3351 157.585 87.1499 157.902C86.9647 158.219 86.7063 158.488 86.3959 158.687L85.9682 158.944C85.3792 159.283 84.9023 159.013 84.9023 158.341V156.954C84.9227 156.588 85.0298 156.232 85.2149 155.914C85.4 155.596 85.658 155.326 85.9682 155.125L86.3959 154.868C86.985 154.536 87.4618 154.806 87.4618 155.478Z" fill="#FDC70A"/>
<path d="M91.8549 158.498L108.586 148.954C109.175 148.621 109.652 148.891 109.652 149.564V150.95C109.632 151.315 109.525 151.671 109.34 151.988C109.155 152.304 108.897 152.573 108.586 152.773L91.8549 162.317C91.2659 162.649 90.7891 162.379 90.7891 161.707V160.32C90.8089 159.955 90.9157 159.6 91.101 159.283C91.2862 158.966 91.5445 158.697 91.8549 158.498Z" fill="#E0E0E0"/>
<path d="M87.4618 162.193V163.579C87.442 163.944 87.3351 164.3 87.1499 164.617C86.9647 164.933 86.7063 165.202 86.3959 165.402L85.9682 165.658C85.3792 165.998 84.9023 165.727 84.9023 165.055V163.669C84.9227 163.303 85.0298 162.947 85.2149 162.629C85.4 162.311 85.658 162.04 85.9682 161.839L86.3959 161.583C86.985 161.271 87.4618 161.52 87.4618 162.193Z" fill="#FDC70A"/>
<path d="M91.5742 127.732V130.103L93.6498 127.732H91.5742Z" fill="#FDC70A"/>
<path d="M94.918 127.247C94.918 127.684 95.2335 127.864 95.6192 127.635L108.942 120.053C109.147 119.919 109.318 119.74 109.44 119.529C109.561 119.318 109.631 119.082 109.644 118.84C109.644 118.396 109.328 118.216 108.942 118.438L95.6192 126.062C95.4171 126.192 95.2484 126.367 95.1267 126.572C95.005 126.778 94.9335 127.009 94.918 127.247Z" fill="#E0E0E0"/>
<path d="M91.5742 131.536V133.907L93.6498 131.536H91.5742Z" fill="#FDC70A"/>
<path d="M94.918 131.051C94.918 131.487 95.2335 131.661 95.6192 131.439L108.942 123.843C109.147 123.709 109.318 123.53 109.44 123.319C109.561 123.108 109.631 122.872 109.644 122.63C109.644 122.186 109.328 122.006 108.942 122.228L95.6192 129.852C95.4152 129.983 95.2455 130.16 95.1236 130.368C95.0018 130.577 94.9314 130.811 94.918 131.051Z" fill="#E0E0E0"/>
<path d="M91.5742 135.342V137.705L93.6498 135.342H91.5742Z" fill="#FDC70A"/>
<path d="M94.918 134.856C94.918 135.293 95.2335 135.466 95.6192 135.244L108.942 127.662C109.147 127.528 109.316 127.348 109.438 127.137C109.56 126.927 109.63 126.691 109.644 126.449C109.644 126.005 109.328 125.825 108.942 126.047L95.6192 133.671C95.4171 133.801 95.2484 133.976 95.1267 134.182C95.005 134.387 94.9335 134.618 94.918 134.856Z" fill="#E0E0E0"/>
<path d="M91.5742 139.146V141.51L93.6498 139.146H91.5742Z" fill="#FDC70A"/>
<path d="M94.918 138.663C94.918 139.1 95.2335 139.273 95.6192 139.051L108.942 131.469C109.147 131.334 109.316 131.155 109.438 130.944C109.56 130.734 109.63 130.498 109.644 130.256C109.644 129.812 109.328 129.632 108.942 129.854L95.6192 137.478C95.4163 137.607 95.2471 137.782 95.1253 137.987C95.0034 138.193 94.9324 138.425 94.918 138.663Z" fill="#E0E0E0"/>
<path d="M228.954 7.55692C228.492 7.38592 227.996 7.32874 227.507 7.39034C227.018 7.45193 226.552 7.63045 226.149 7.91039L83.4499 89.3417C82.2281 90.1237 81.2103 91.1797 80.4792 92.4238C79.7481 93.6679 79.3244 95.0649 79.2426 96.5014V104.52L73.9062 101.422V93.5003C73.9862 92.0677 74.407 90.674 75.1344 89.4323C75.8618 88.1907 76.8753 87.1362 78.0926 86.3545L220.799 4.92317C221.991 4.23007 223.063 4.23008 223.835 4.68058C224.606 5.13109 228.063 7.09254 228.954 7.55692Z" fill="#FDC70A"/>
<path d="M230.314 10.2673C230.314 7.66131 228.434 6.60088 226.106 7.91776L83.4495 89.3422C82.2269 90.1233 81.2085 91.1791 80.4773 92.4233C79.7461 93.6676 79.3229 95.0651 79.2422 96.5018V104.528L230.314 18.3419V10.2673Z" fill="#FDC70A"/>
<g opacity="0.2">
<path d="M226.13 7.9105L83.4448 89.3418C82.2193 90.1034 81.2067 91.1567 80.4997 92.4053L75.1914 89.3696C75.8803 88.1347 76.8772 87.0944 78.0875 86.3477L220.793 4.92328C221.228 4.61132 221.741 4.42312 222.276 4.37913C222.812 4.33514 223.349 4.43704 223.83 4.67377C224.58 5.13121 228.037 7.07879 228.935 7.5501C228.473 7.37949 227.976 7.32314 227.487 7.38596C226.998 7.44878 226.532 7.62886 226.13 7.9105Z" fill="white"/>
</g>
<path opacity="0.15" d="M73.918 101.443V93.5003C73.9712 92.0282 74.411 90.5951 75.1942 89.3418L80.5165 92.3706C79.745 93.6071 79.3147 95.0217 79.2683 96.4737V104.5L73.918 101.443Z" fill="black"/>
<path d="M213.842 18.7575C212.965 19.2565 212.25 20.7467 212.25 22.0843C212.25 23.422 212.951 24.0943 213.842 23.5953C214.732 23.0962 215.427 21.6061 215.427 20.2684C215.427 18.9308 214.718 18.2585 213.842 18.7575Z" fill="#37474F"/>
<path d="M219.557 15.485C218.673 15.9841 217.965 17.4742 217.965 18.8119C217.965 20.1495 218.666 20.8218 219.557 20.3228C220.447 19.8238 221.141 18.3336 221.141 16.996C221.141 15.6583 220.44 14.986 219.557 15.485Z" fill="#37474F"/>
<path d="M225.272 12.2155C224.396 12.7215 223.688 14.2047 223.688 15.5423C223.688 16.88 224.389 17.5523 225.272 17.0533C226.156 16.5542 226.864 15.0641 226.864 13.7264C226.864 12.3888 226.156 11.7165 225.272 12.2155Z" fill="#37474F"/>
<path d="M80.5445 230.822L76.1408 228.306C75.5532 227.971 75.0507 227.508 74.6716 226.952C74.2925 226.395 74.0467 225.761 73.953 225.097C73.9427 224.898 73.9427 224.7 73.953 224.501V101.429L79.2963 104.52V228.445C79.297 228.593 79.3087 228.741 79.3314 228.888C79.3426 228.968 79.3614 229.047 79.3875 229.124C79.3803 229.158 79.3803 229.194 79.3875 229.228C79.4105 229.316 79.441 229.402 79.4786 229.484C79.478 229.496 79.478 229.507 79.4786 229.519L79.6259 229.824C79.682 229.921 79.7521 230.018 79.8152 230.108C79.8651 230.178 79.9189 230.245 79.9765 230.309C80.1988 230.561 80.4647 230.773 80.7619 230.933L80.5445 230.822Z" fill="#E0E0E0"/>
<path d="M126.772 283.048C125.917 283.068 125.072 282.87 124.318 282.473L94.221 265.305L95.7427 264.432L93.5899 262.547C93.5126 262.478 93.4531 262.391 93.4165 262.295C93.3799 262.198 93.3672 262.095 93.3796 261.992C93.3964 261.881 93.4404 261.776 93.5075 261.685C93.5747 261.595 93.6632 261.522 93.7652 261.472L107.215 253.793C107.581 253.608 108.007 253.573 108.4 253.696L111.815 254.964C111.911 254.996 112.012 255.009 112.113 255.001C112.215 254.994 112.313 254.968 112.404 254.923L137.837 240.409L138.012 240.513L167.541 257.362C167.829 257.526 168.068 257.762 168.233 258.048C168.398 258.333 168.484 258.656 168.481 258.984C168.483 259.313 168.397 259.635 168.23 259.919C168.064 260.203 167.823 260.438 167.534 260.599L129.219 282.473C128.466 282.867 127.624 283.065 126.772 283.048ZM95.6235 265.305L124.654 281.87C125.308 282.191 126.028 282.358 126.758 282.358C127.488 282.358 128.208 282.191 128.861 281.87L167.183 259.996C167.364 259.894 167.514 259.746 167.618 259.567C167.723 259.389 167.778 259.187 167.778 258.981C167.778 258.775 167.723 258.573 167.618 258.394C167.514 258.216 167.364 258.068 167.183 257.965L137.837 241.22L112.768 255.533C112.589 255.628 112.392 255.685 112.19 255.702C111.987 255.719 111.783 255.694 111.59 255.63L108.168 254.361C108.072 254.331 107.97 254.319 107.869 254.328C107.768 254.336 107.669 254.364 107.579 254.41L94.1229 262.082L96.2826 263.968C96.3595 264.037 96.4187 264.123 96.4552 264.22C96.4918 264.316 96.5048 264.42 96.493 264.522C96.4734 264.632 96.4285 264.736 96.3616 264.826C96.2947 264.917 96.2077 264.99 96.1073 265.042L95.6235 265.305Z" fill="#E0E0E0"/>
<path d="M144.012 283.062C143.156 283.075 142.312 282.872 141.557 282.473L111.44 265.305L112.968 264.432L110.809 262.547C110.731 262.478 110.672 262.391 110.635 262.295C110.599 262.198 110.586 262.095 110.598 261.992C110.618 261.882 110.663 261.778 110.73 261.688C110.797 261.598 110.884 261.524 110.984 261.472L124.44 253.793C124.805 253.608 125.228 253.573 125.619 253.696L129.033 254.964C129.23 255.028 129.444 255.013 129.63 254.923L155.056 240.409L155.238 240.513L177.86 253.453L177.509 254.056L155.07 241.248L129.987 255.533C129.808 255.628 129.611 255.685 129.408 255.702C129.206 255.719 129.002 255.694 128.809 255.63L125.394 254.361C125.197 254.3 124.983 254.317 124.798 254.41L111.349 262.082L113.501 263.975C113.579 264.042 113.638 264.127 113.675 264.223C113.711 264.318 113.724 264.421 113.712 264.522C113.695 264.633 113.651 264.738 113.584 264.829C113.517 264.92 113.428 264.993 113.326 265.042L112.863 265.312L141.908 281.87C142.562 282.191 143.282 282.358 144.012 282.358C144.741 282.358 145.461 282.191 146.115 281.87L177.839 263.76L178.189 264.37L146.466 282.473C145.712 282.872 144.867 283.075 144.012 283.062Z" fill="#FDC70A"/>
<path d="M185.506 265.929C182.514 265.989 179.555 265.295 176.909 263.912C174.532 262.526 173.242 260.724 173.27 258.762C173.298 256.801 174.616 255.04 176.958 253.703C181.706 250.993 189.433 250.993 194.18 253.703C196.551 255.054 197.848 256.87 197.841 258.811C197.834 260.751 196.516 262.567 194.138 263.912C191.479 265.292 188.51 265.986 185.506 265.929ZM177.267 263.302C181.797 265.887 189.188 265.887 193.788 263.302C195.934 262.089 197.126 260.495 197.133 258.811C197.14 257.127 195.969 255.526 193.83 254.306C189.272 251.707 181.867 251.707 177.309 254.306C175.205 255.519 174.006 257.078 173.978 258.776C173.95 260.474 175.121 262.082 177.267 263.302Z" fill="#FDC70A"/>
<path d="M189.477 261.77C189.354 261.77 189.233 261.739 189.126 261.679L181.287 257.202C181.207 257.157 181.136 257.096 181.08 257.024C181.023 256.951 180.982 256.869 180.958 256.78C180.934 256.692 180.928 256.6 180.939 256.51C180.951 256.419 180.981 256.332 181.027 256.252C181.073 256.173 181.135 256.104 181.208 256.048C181.281 255.992 181.365 255.951 181.454 255.928C181.543 255.904 181.636 255.898 181.728 255.909C181.819 255.921 181.908 255.951 181.988 255.996L189.835 260.466C189.915 260.512 189.986 260.574 190.042 260.647C190.099 260.72 190.14 260.803 190.164 260.892C190.187 260.981 190.192 261.074 190.179 261.165C190.166 261.256 190.135 261.344 190.087 261.423C190.025 261.529 189.936 261.616 189.829 261.677C189.722 261.738 189.6 261.77 189.477 261.77Z" fill="#FDC70A"/>
<path d="M181.633 261.769C181.476 261.773 181.321 261.725 181.195 261.631C181.069 261.538 180.978 261.405 180.938 261.254C180.897 261.104 180.909 260.944 180.972 260.801C181.034 260.658 181.144 260.54 181.283 260.466L189.122 255.996C189.202 255.95 189.29 255.92 189.381 255.907C189.473 255.895 189.566 255.9 189.655 255.923C189.744 255.947 189.828 255.987 189.901 256.042C189.975 256.097 190.037 256.166 190.083 256.245C190.131 256.324 190.162 256.412 190.175 256.503C190.188 256.594 190.183 256.687 190.16 256.776C190.136 256.865 190.095 256.948 190.038 257.021C189.982 257.095 189.911 257.156 189.831 257.202L181.984 261.679C181.877 261.739 181.756 261.77 181.633 261.769Z" fill="#FDC70A"/>
<path d="M81.5172 71.4561C82.2184 71.8927 85.5492 73.7641 86.3837 74.1869C85.9412 74.0271 85.466 73.9764 84.9992 74.0392C84.5324 74.102 84.0882 74.2764 83.705 74.5473L28.0349 106.332C26.8804 107.082 25.9212 108.09 25.2352 109.275C24.5492 110.461 24.1558 111.789 24.087 113.152V175.78C24.0582 176.912 24.4814 178.01 25.265 178.837C25.3582 178.923 25.4566 179.004 25.5595 179.079C22.383 176.848 19.0592 176.882 18.9961 172.918V110.29C19.0738 108.924 19.4747 107.596 20.1664 106.411C20.8582 105.227 21.8216 104.219 22.979 103.47L78.6492 71.6848C79.065 71.4017 79.5489 71.2315 80.0522 71.1914C80.5556 71.1512 81.0608 71.2425 81.5172 71.4561Z" fill="#263238"/>
<path d="M85.482 74.0063C84.8515 74.0286 84.2377 74.2126 83.7008 74.54L28.0377 106.325C26.8856 107.077 25.9282 108.086 25.2425 109.271C24.5568 110.455 24.162 111.782 24.0898 113.145V175.773C24.0898 177.755 25.2048 179.446 26.7615 179.446C27.2268 179.433 27.6808 179.302 28.0798 179.065L83.813 147.259C84.9616 146.513 85.9171 145.511 86.6027 144.334C87.2884 143.157 87.6851 141.837 87.7609 140.481L87.6838 76.848C87.6838 75.0668 86.7862 74.0757 85.482 74.0757V74.0063Z" fill="#37474F"/>
<path d="M83.6926 74.5408L28.0435 106.326C26.8731 107.05 25.9079 108.057 25.2386 109.251L20.1758 106.354C20.8453 105.173 21.8113 104.182 22.9807 103.477L78.6508 71.6922C79.065 71.3966 79.553 71.2184 80.0621 71.1769C80.5713 71.1353 81.0822 71.232 81.5398 71.4565C82.2411 71.8932 85.5649 73.7507 86.3993 74.2289C85.9573 74.0556 85.4786 73.9933 85.0062 74.0477C84.5338 74.1022 84.0825 74.2716 83.6926 74.5408Z" fill="#455A64"/>
<path d="M41.8906 110.283V147.709C41.8906 149.421 43.1037 150.114 44.6044 149.262L77.3936 130.549C78.1812 130.042 78.8376 129.36 79.3101 128.557C79.7826 127.754 80.0581 126.853 80.1143 125.926V88.4986C80.1143 86.7867 78.9012 86.0936 77.4006 86.9461L44.6114 105.66C43.8234 106.166 43.1666 106.848 42.6941 107.651C42.2215 108.454 41.9463 109.355 41.8906 110.283Z" fill="#FDC70A"/>
<path opacity="0.3" d="M65.038 103.913C65.038 102.201 63.8179 101.508 62.3173 102.36L41.8906 114.018V147.702C41.8906 149.414 43.1037 150.107 44.6044 149.255L65.031 137.597L65.038 103.913Z" fill="black"/>
<path d="M31.707 127.728V165.155C31.707 166.867 32.9201 167.56 34.4208 166.708L67.21 147.994C68.0008 147.485 68.6587 146.798 69.1302 145.99C69.6018 145.182 69.8737 144.275 69.9237 143.344V105.917C69.9237 104.205 68.7106 103.512 67.21 104.364L34.4208 123.078C33.6308 123.588 32.9734 124.275 32.502 125.083C32.0305 125.891 31.7582 126.797 31.707 127.728Z" fill="#FDC70A"/>
<path opacity="0.3" d="M31.707 127.728V165.155C31.707 166.867 32.9201 167.56 34.4208 166.708L67.21 147.994C68.0008 147.485 68.6587 146.798 69.1302 145.99C69.6018 145.182 69.8737 144.275 69.9237 143.344V105.917C69.9237 104.205 68.7106 103.512 67.21 104.364L34.4208 123.078C33.6308 123.588 32.9734 124.275 32.502 125.083C32.0305 125.891 31.7582 126.797 31.707 127.728Z" fill="white"/>
<path d="M62.2781 132.558V128.774C62.2781 128.08 61.7942 127.81 61.1982 128.157L54.6347 131.899V124.414C54.6347 123.721 54.1509 123.451 53.5478 123.79L50.238 125.682C49.9218 125.886 49.6586 126.16 49.4698 126.483C49.2809 126.805 49.1718 127.168 49.1511 127.54V135.025L42.5947 138.768C42.2781 138.971 42.0146 139.245 41.8257 139.568C41.6368 139.891 41.5279 140.253 41.5078 140.625V144.41C41.5078 145.103 41.9917 145.366 42.5947 145.027L49.1511 141.284V148.797C49.1511 149.49 49.642 149.76 50.238 149.414L53.5478 147.529C53.8646 147.324 54.1281 147.049 54.3169 146.725C54.5058 146.401 54.6146 146.038 54.6347 145.664V138.158L61.1982 134.415C61.5119 134.21 61.7729 133.935 61.9603 133.613C62.1478 133.29 62.2566 132.929 62.2781 132.558Z" fill="white"/>
<path d="M105.815 156.844L101.938 154.633V194.125L105.815 196.329L113.325 180.748L124.012 174.656L105.815 156.844Z" fill="#E0E0E0"/>
<path d="M105.812 196.663C105.751 196.663 105.691 196.649 105.637 196.621L101.766 194.41C101.715 194.381 101.673 194.34 101.644 194.29C101.614 194.24 101.598 194.184 101.598 194.126V154.62C101.599 154.561 101.615 154.504 101.645 154.453C101.674 154.402 101.716 154.36 101.766 154.329C101.819 154.301 101.878 154.287 101.938 154.287C101.998 154.287 102.057 154.301 102.11 154.329L105.98 156.54L106.043 156.588L124.24 174.442C124.277 174.479 124.306 174.524 124.323 174.573C124.34 174.622 124.345 174.675 124.338 174.726C124.333 174.777 124.315 174.825 124.287 174.867C124.259 174.909 124.221 174.944 124.177 174.969L113.582 181.013L106.142 196.476C106.122 196.517 106.093 196.553 106.058 196.583C106.023 196.613 105.982 196.635 105.938 196.649C105.898 196.664 105.855 196.669 105.812 196.663ZM102.306 193.932L105.686 195.866L113.049 180.618C113.077 180.557 113.124 180.506 113.182 180.472L123.483 174.595L105.602 157.115L102.278 155.216L102.306 193.932Z" fill="#455A64"/>
<path d="M105.809 156.844V196.329L113.319 180.748L124.005 174.656L105.809 156.844Z" fill="#FAFAFA"/>
<path d="M105.812 196.662H105.735C105.66 196.646 105.592 196.605 105.544 196.546C105.495 196.486 105.469 196.412 105.469 196.336V156.83C105.467 156.763 105.486 156.698 105.522 156.642C105.559 156.586 105.611 156.542 105.673 156.516C105.735 156.49 105.804 156.483 105.87 156.495C105.936 156.508 105.996 156.54 106.044 156.587L124.241 174.441C124.278 174.478 124.306 174.523 124.323 174.572C124.34 174.621 124.346 174.674 124.339 174.725C124.333 174.776 124.316 174.824 124.288 174.866C124.26 174.908 124.222 174.943 124.177 174.968L113.582 181.012L106.142 196.475C106.113 196.536 106.066 196.586 106.007 196.62C105.948 196.653 105.88 196.668 105.812 196.662ZM106.149 157.641V194.853L113.021 180.603C113.05 180.542 113.096 180.491 113.154 180.457L123.455 174.58L106.149 157.641Z" fill="#455A64"/>
<path d="M94.777 154.564L90.9062 152.353V191.845L94.777 194.049L102.294 178.468L112.974 172.369L94.777 154.564Z" fill="#263238"/>
<path d="M94.7773 154.563V194.049L102.294 178.468L112.974 172.369L94.7773 154.563Z" fill="#455A64"/>
<path d="M179.08 164.442C179.026 164.442 178.972 164.427 178.925 164.399C178.878 164.371 178.84 164.331 178.814 164.283C178.773 164.212 178.762 164.128 178.783 164.049C178.804 163.97 178.855 163.902 178.926 163.86L180.553 162.931C180.626 162.89 180.712 162.879 180.793 162.9C180.874 162.922 180.942 162.974 180.984 163.046C181.026 163.117 181.037 163.203 181.016 163.282C180.994 163.362 180.941 163.431 180.869 163.472L179.242 164.401C179.193 164.428 179.137 164.443 179.08 164.442ZM176.823 163.881C176.781 163.882 176.741 163.875 176.702 163.86C176.664 163.845 176.629 163.822 176.6 163.794C176.57 163.766 176.547 163.732 176.531 163.694C176.515 163.657 176.507 163.616 176.507 163.576C176.504 163.56 176.504 163.543 176.507 163.527V161.698C176.507 161.615 176.54 161.536 176.599 161.477C176.659 161.419 176.739 161.386 176.823 161.386C176.906 161.386 176.987 161.419 177.046 161.477C177.105 161.536 177.138 161.615 177.138 161.698V163.562C177.138 163.647 177.104 163.728 177.044 163.787C176.983 163.847 176.901 163.881 176.816 163.881H176.823ZM183.428 161.961C183.358 161.964 183.289 161.943 183.233 161.901C183.176 161.86 183.136 161.801 183.118 161.734C183.1 161.667 183.106 161.596 183.134 161.533C183.162 161.47 183.212 161.418 183.274 161.386L184.901 160.457C184.936 160.436 184.975 160.422 185.016 160.416C185.057 160.41 185.098 160.413 185.138 160.423C185.178 160.433 185.215 160.452 185.248 160.476C185.281 160.501 185.308 160.532 185.328 160.568C185.369 160.639 185.381 160.723 185.36 160.802C185.339 160.881 185.287 160.949 185.216 160.991L183.582 161.919C183.534 161.949 183.478 161.966 183.421 161.968L183.428 161.961ZM187.769 159.487C187.714 159.487 187.66 159.472 187.613 159.444C187.566 159.415 187.528 159.375 187.502 159.327C187.461 159.256 187.45 159.172 187.471 159.093C187.492 159.014 187.543 158.946 187.614 158.904L189.248 157.976C189.284 157.951 189.325 157.933 189.369 157.925C189.412 157.916 189.456 157.917 189.499 157.927C189.542 157.936 189.583 157.954 189.618 157.981C189.654 158.007 189.683 158.04 189.705 158.078C189.726 158.115 189.74 158.157 189.744 158.201C189.748 158.244 189.743 158.288 189.729 158.329C189.715 158.371 189.693 158.409 189.663 158.441C189.633 158.473 189.597 158.499 189.557 158.516L187.93 159.445C187.879 159.474 187.821 159.488 187.762 159.487H187.769ZM176.823 158.911C176.739 158.911 176.659 158.878 176.599 158.82C176.54 158.761 176.507 158.682 176.507 158.599V156.742C176.507 156.659 176.54 156.58 176.599 156.521C176.659 156.463 176.739 156.43 176.823 156.43C176.906 156.43 176.987 156.463 177.046 156.521C177.105 156.58 177.138 156.659 177.138 156.742V158.599C177.138 158.641 177.13 158.682 177.113 158.72C177.097 158.759 177.073 158.793 177.043 158.822C177.013 158.852 176.978 158.874 176.938 158.89C176.899 158.905 176.858 158.912 176.816 158.911H176.823ZM192.116 157.005C192.061 157.004 192.008 156.99 191.96 156.963C191.912 156.937 191.872 156.899 191.843 156.853C191.802 156.781 191.792 156.696 191.814 156.617C191.837 156.538 191.89 156.471 191.962 156.43L193.589 155.501C193.659 155.472 193.738 155.47 193.81 155.494C193.883 155.518 193.944 155.567 193.982 155.632C194.021 155.697 194.034 155.774 194.02 155.848C194.006 155.922 193.965 155.989 193.904 156.035L192.271 156.964C192.222 156.992 192.166 157.007 192.109 157.005H192.116ZM196.464 154.531C196.408 154.532 196.352 154.518 196.304 154.49C196.256 154.462 196.216 154.421 196.19 154.372C196.149 154.301 196.138 154.217 196.159 154.138C196.18 154.058 196.232 153.991 196.303 153.949L197.936 153.02C197.972 152.995 198.013 152.978 198.057 152.969C198.1 152.961 198.144 152.961 198.187 152.971C198.23 152.98 198.271 152.999 198.306 153.025C198.342 153.051 198.371 153.084 198.393 153.122C198.414 153.16 198.428 153.202 198.432 153.245C198.436 153.289 198.431 153.332 198.417 153.374C198.403 153.415 198.381 153.453 198.351 153.485C198.321 153.517 198.285 153.543 198.245 153.561L196.611 154.489C196.564 154.516 196.511 154.53 196.457 154.531H196.464ZM176.83 153.956C176.746 153.956 176.666 153.923 176.606 153.864C176.547 153.806 176.514 153.727 176.514 153.644V151.786C176.514 151.704 176.547 151.624 176.606 151.566C176.666 151.507 176.746 151.474 176.83 151.474C176.913 151.474 176.994 151.507 177.053 151.566C177.112 151.624 177.145 151.704 177.145 151.786V153.651C177.144 153.692 177.135 153.733 177.118 153.771C177.101 153.809 177.076 153.843 177.045 153.872C177.015 153.9 176.978 153.922 176.939 153.937C176.9 153.951 176.858 153.958 176.816 153.956H176.83ZM200.811 152.05C200.744 152.047 200.68 152.023 200.628 151.981C200.575 151.939 200.538 151.882 200.521 151.818C200.503 151.754 200.507 151.686 200.532 151.624C200.556 151.562 200.6 151.51 200.657 151.474L202.284 150.546C202.32 150.525 202.36 150.511 202.401 150.505C202.442 150.499 202.484 150.501 202.525 150.511C202.565 150.522 202.603 150.54 202.636 150.565C202.67 150.59 202.698 150.621 202.719 150.657C202.759 150.728 202.769 150.813 202.747 150.892C202.725 150.971 202.672 151.039 202.6 151.079L200.973 152.008C200.926 152.035 200.873 152.049 200.818 152.05H200.811ZM205.159 149.575C205.103 149.574 205.049 149.559 205.001 149.531C204.953 149.503 204.913 149.464 204.886 149.416C204.845 149.344 204.835 149.26 204.857 149.18C204.879 149.101 204.933 149.034 205.005 148.993L206.632 148.064C206.704 148.024 206.79 148.014 206.87 148.036C206.95 148.058 207.018 148.111 207.059 148.182C207.1 148.253 207.112 148.337 207.091 148.416C207.07 148.495 207.018 148.563 206.947 148.605L205.313 149.534C205.263 149.564 205.204 149.578 205.145 149.575H205.159ZM176.83 148.993C176.746 148.993 176.666 148.96 176.606 148.902C176.547 148.843 176.514 148.764 176.514 148.681V146.824C176.514 146.783 176.522 146.742 176.538 146.704C176.554 146.667 176.577 146.632 176.606 146.603C176.636 146.574 176.671 146.551 176.709 146.536C176.747 146.52 176.788 146.512 176.83 146.512C176.871 146.512 176.912 146.52 176.95 146.536C176.989 146.551 177.023 146.574 177.053 146.603C177.082 146.632 177.105 146.667 177.121 146.704C177.137 146.742 177.145 146.783 177.145 146.824V148.681C177.145 148.723 177.137 148.765 177.12 148.804C177.103 148.843 177.079 148.878 177.048 148.907C177.017 148.936 176.981 148.959 176.941 148.974C176.901 148.988 176.858 148.995 176.816 148.993H176.83ZM209.507 147.094C209.451 147.095 209.397 147.082 209.349 147.055C209.301 147.028 209.261 146.989 209.233 146.942C209.192 146.871 209.181 146.787 209.202 146.708C209.223 146.629 209.274 146.561 209.345 146.519L210.979 145.59C211.014 145.568 211.053 145.553 211.094 145.547C211.135 145.541 211.177 145.543 211.218 145.553C211.258 145.564 211.295 145.582 211.328 145.608C211.36 145.633 211.387 145.665 211.407 145.701C211.447 145.773 211.458 145.857 211.435 145.937C211.413 146.016 211.36 146.083 211.288 146.124L209.661 147.053C209.61 147.081 209.551 147.096 209.493 147.094H209.507ZM213.847 144.62C213.792 144.62 213.738 144.605 213.691 144.577C213.645 144.549 213.606 144.508 213.581 144.46C213.559 144.425 213.545 144.387 213.54 144.346C213.534 144.306 213.536 144.265 213.547 144.226C213.557 144.186 213.575 144.149 213.6 144.117C213.626 144.085 213.657 144.058 213.693 144.038L215.32 143.109C215.392 143.067 215.478 143.056 215.559 143.078C215.64 143.099 215.709 143.152 215.751 143.223C215.793 143.295 215.804 143.38 215.782 143.46C215.761 143.54 215.708 143.608 215.635 143.649L214.008 144.578C213.957 144.616 213.896 144.637 213.833 144.641L213.847 144.62ZM176.83 144.038C176.746 144.038 176.666 144.005 176.606 143.946C176.547 143.888 176.514 143.808 176.514 143.726V141.868C176.514 141.785 176.547 141.706 176.606 141.648C176.666 141.589 176.746 141.556 176.83 141.556C176.913 141.556 176.994 141.589 177.053 141.648C177.112 141.706 177.145 141.785 177.145 141.868V143.726C177.145 143.768 177.137 143.81 177.12 143.848C177.103 143.887 177.079 143.922 177.048 143.951C177.017 143.98 176.981 144.003 176.941 144.018C176.901 144.033 176.858 144.039 176.816 144.038H176.83ZM217.809 141.702C217.761 141.715 217.71 141.715 217.662 141.702C217.625 141.684 217.592 141.658 217.566 141.627C217.539 141.596 217.519 141.56 217.507 141.522C217.494 141.483 217.49 141.442 217.494 141.402C217.497 141.361 217.509 141.322 217.529 141.286C217.743 140.891 217.863 140.452 217.879 140.004V139.63C217.89 139.556 217.928 139.488 217.985 139.44C218.043 139.391 218.116 139.364 218.191 139.364C218.267 139.364 218.34 139.391 218.397 139.44C218.454 139.488 218.492 139.556 218.503 139.63V140.004C218.49 140.551 218.346 141.088 218.083 141.57C218.052 141.616 218.008 141.653 217.958 141.676C217.907 141.7 217.851 141.708 217.795 141.702H217.809ZM176.816 139.096C176.733 139.096 176.654 139.064 176.595 139.007C176.536 138.95 176.502 138.872 176.5 138.791V136.926C176.5 136.844 176.533 136.764 176.592 136.706C176.652 136.647 176.732 136.615 176.816 136.615C176.899 136.615 176.979 136.647 177.039 136.706C177.098 136.764 177.131 136.844 177.131 136.926V138.791C177.129 138.872 177.095 138.95 177.036 139.007C176.977 139.064 176.898 139.096 176.816 139.096ZM218.188 136.829C218.104 136.829 218.024 136.797 217.965 136.738C217.905 136.68 217.872 136.6 217.872 136.518V134.66C217.865 134.616 217.868 134.57 217.881 134.527C217.894 134.484 217.915 134.444 217.945 134.41C217.975 134.376 218.011 134.349 218.053 134.33C218.094 134.311 218.139 134.302 218.184 134.302C218.23 134.302 218.275 134.311 218.316 134.33C218.357 134.349 218.394 134.376 218.423 134.41C218.453 134.444 218.475 134.484 218.487 134.527C218.5 134.57 218.503 134.616 218.496 134.66V136.518C218.491 136.597 218.455 136.671 218.397 136.725C218.338 136.779 218.261 136.809 218.181 136.809L218.188 136.829ZM176.816 134.14C176.732 134.14 176.652 134.107 176.592 134.049C176.533 133.99 176.5 133.911 176.5 133.828V131.971C176.5 131.888 176.533 131.809 176.592 131.75C176.652 131.692 176.732 131.659 176.816 131.659C176.899 131.659 176.979 131.692 177.039 131.75C177.098 131.809 177.131 131.888 177.131 131.971V133.828C177.126 133.907 177.09 133.982 177.032 134.036C176.973 134.09 176.896 134.12 176.816 134.119V134.14ZM218.188 131.867C218.106 131.867 218.027 131.835 217.97 131.778C217.912 131.72 217.879 131.643 217.879 131.562V129.698C217.89 129.624 217.928 129.556 217.985 129.508C218.043 129.459 218.116 129.432 218.191 129.432C218.267 129.432 218.34 129.459 218.397 129.508C218.454 129.556 218.492 129.624 218.503 129.698V131.562C218.496 131.642 218.458 131.717 218.396 131.77C218.335 131.823 218.255 131.85 218.174 131.846L218.188 131.867ZM176.816 129.185C176.732 129.185 176.652 129.152 176.592 129.093C176.533 129.035 176.5 128.955 176.5 128.873V127.015C176.5 126.933 176.533 126.853 176.592 126.795C176.652 126.736 176.732 126.703 176.816 126.703C176.899 126.703 176.979 126.736 177.039 126.795C177.098 126.853 177.131 126.933 177.131 127.015V128.873C177.126 128.952 177.09 129.026 177.032 129.08C176.973 129.134 176.896 129.164 176.816 129.164V129.185ZM218.188 126.911C218.105 126.909 218.027 126.876 217.969 126.818C217.911 126.759 217.879 126.681 217.879 126.599V124.742C217.872 124.698 217.875 124.652 217.888 124.609C217.901 124.566 217.922 124.526 217.952 124.492C217.982 124.458 218.018 124.431 218.06 124.412C218.101 124.393 218.146 124.384 218.191 124.384C218.237 124.384 218.282 124.393 218.323 124.412C218.364 124.431 218.401 124.458 218.43 124.492C218.46 124.526 218.482 124.566 218.494 124.609C218.507 124.652 218.51 124.698 218.503 124.742V126.599C218.498 126.681 218.46 126.757 218.399 126.812C218.337 126.866 218.256 126.894 218.174 126.891L218.188 126.911ZM176.816 124.222C176.732 124.222 176.652 124.189 176.592 124.131C176.533 124.072 176.5 123.993 176.5 123.91V122.053C176.5 121.97 176.533 121.891 176.592 121.832C176.652 121.774 176.732 121.741 176.816 121.741C176.899 121.741 176.979 121.774 177.039 121.832C177.098 121.891 177.131 121.97 177.131 122.053V123.91C177.126 123.989 177.09 124.063 177.032 124.117C176.973 124.172 176.896 124.201 176.816 124.201V124.222ZM218.188 121.956C218.105 121.954 218.027 121.92 217.969 121.862C217.911 121.804 217.879 121.725 217.879 121.644V119.786C217.872 119.742 217.875 119.697 217.888 119.654C217.901 119.61 217.922 119.57 217.952 119.536C217.982 119.502 218.018 119.475 218.06 119.456C218.101 119.438 218.146 119.428 218.191 119.428C218.237 119.428 218.282 119.438 218.323 119.456C218.364 119.475 218.401 119.502 218.43 119.536C218.46 119.57 218.482 119.61 218.494 119.654C218.507 119.697 218.51 119.742 218.503 119.786V121.644C218.498 121.725 218.46 121.801 218.399 121.856C218.337 121.91 218.256 121.939 218.174 121.935L218.188 121.956ZM176.816 119.267C176.732 119.267 176.652 119.234 176.592 119.175C176.533 119.117 176.5 119.037 176.5 118.955V117.097C176.5 117.014 176.533 116.935 176.592 116.877C176.652 116.818 176.732 116.785 176.816 116.785C176.899 116.785 176.979 116.818 177.039 116.877C177.098 116.935 177.131 117.014 177.131 117.097V118.955C177.126 119.034 177.09 119.108 177.032 119.162C176.973 119.216 176.896 119.246 176.816 119.246V119.267ZM218.188 116.993C218.105 116.993 218.026 116.961 217.967 116.904C217.908 116.847 217.874 116.77 217.872 116.688V114.838C217.872 114.755 217.905 114.676 217.965 114.617C218.024 114.559 218.104 114.526 218.188 114.526C218.271 114.526 218.352 114.559 218.411 114.617C218.47 114.676 218.503 114.755 218.503 114.838V116.702C218.493 116.78 218.453 116.851 218.392 116.901C218.331 116.951 218.253 116.977 218.174 116.972L218.188 116.993ZM176.816 114.304C176.733 114.304 176.654 114.272 176.595 114.215C176.536 114.158 176.502 114.081 176.5 113.999V112.135C176.5 112.052 176.533 111.973 176.592 111.914C176.652 111.856 176.732 111.823 176.816 111.823C176.899 111.823 176.979 111.856 177.039 111.914C177.098 111.973 177.131 112.052 177.131 112.135V113.999C177.124 114.077 177.088 114.149 177.029 114.202C176.971 114.254 176.895 114.283 176.816 114.283V114.304ZM218.188 112.038C218.104 112.038 218.024 112.005 217.965 111.946C217.905 111.888 217.872 111.808 217.872 111.726V109.847C217.872 109.765 217.905 109.685 217.965 109.627C218.024 109.568 218.104 109.535 218.188 109.535C218.271 109.535 218.352 109.568 218.411 109.627C218.47 109.685 218.503 109.765 218.503 109.847V111.705C218.503 111.747 218.495 111.789 218.478 111.828C218.461 111.866 218.437 111.901 218.406 111.93C218.375 111.96 218.339 111.982 218.299 111.997C218.259 112.012 218.216 112.019 218.174 112.017L218.188 112.038ZM176.816 109.348C176.732 109.348 176.652 109.316 176.592 109.257C176.533 109.199 176.5 109.119 176.5 109.036V107.179C176.5 107.096 176.533 107.017 176.592 106.958C176.652 106.9 176.732 106.867 176.816 106.867C176.899 106.867 176.979 106.9 177.039 106.958C177.098 107.017 177.131 107.096 177.131 107.179V109.036C177.126 109.116 177.09 109.19 177.032 109.244C176.973 109.298 176.896 109.328 176.816 109.328V109.348ZM218.188 107.082C218.104 107.082 218.024 107.049 217.965 106.991C217.905 106.932 217.872 106.853 217.872 106.77V104.913C217.865 104.868 217.868 104.823 217.881 104.78C217.894 104.737 217.915 104.697 217.945 104.663C217.975 104.629 218.011 104.601 218.053 104.583C218.094 104.564 218.139 104.554 218.184 104.554C218.23 104.554 218.275 104.564 218.316 104.583C218.357 104.601 218.394 104.629 218.423 104.663C218.453 104.697 218.475 104.737 218.487 104.78C218.5 104.823 218.503 104.868 218.496 104.913V106.77C218.491 106.85 218.454 106.925 218.394 106.98C218.334 107.034 218.255 107.063 218.174 107.061L218.188 107.082ZM176.816 104.393C176.732 104.393 176.652 104.36 176.592 104.301C176.533 104.243 176.5 104.164 176.5 104.081V102.223C176.5 102.141 176.533 102.061 176.592 102.003C176.652 101.944 176.732 101.911 176.816 101.911C176.899 101.911 176.979 101.944 177.039 102.003C177.098 102.061 177.131 102.141 177.131 102.223V104.081C177.126 104.16 177.09 104.234 177.032 104.288C176.973 104.342 176.896 104.372 176.816 104.372V104.393ZM218.188 102.119C218.104 102.119 218.024 102.087 217.965 102.028C217.905 101.97 217.872 101.89 217.872 101.808V99.95C217.865 99.9057 217.868 99.8604 217.881 99.8172C217.894 99.7741 217.915 99.7342 217.945 99.7002C217.975 99.6662 218.011 99.6389 218.053 99.6202C218.094 99.6015 218.139 99.5918 218.184 99.5918C218.23 99.5918 218.275 99.6015 218.316 99.6202C218.357 99.6389 218.394 99.6662 218.423 99.7002C218.453 99.7342 218.475 99.7741 218.487 99.8172C218.5 99.8604 218.503 99.9057 218.496 99.95V101.808C218.491 101.888 218.454 101.963 218.394 102.017C218.334 102.071 218.255 102.101 218.174 102.099L218.188 102.119ZM176.816 99.4302C176.733 99.4302 176.654 99.3983 176.595 99.3413C176.536 99.2843 176.502 99.2068 176.5 99.1253V97.2608C176.5 97.1781 176.533 97.0988 176.592 97.0403C176.652 96.9818 176.732 96.949 176.816 96.949C176.899 96.949 176.979 96.9818 177.039 97.0403C177.098 97.0988 177.131 97.1781 177.131 97.2608V99.1253C177.124 99.2031 177.088 99.2755 177.029 99.3281C176.971 99.3807 176.895 99.4097 176.816 99.4094V99.4302ZM218.188 97.1638C218.104 97.1638 218.024 97.1309 217.965 97.0725C217.905 97.014 217.872 96.9346 217.872 96.8519V94.9944C217.865 94.9501 217.868 94.9048 217.881 94.8616C217.894 94.8185 217.915 94.7786 217.945 94.7446C217.975 94.7106 218.011 94.6833 218.053 94.6646C218.094 94.6459 218.139 94.6362 218.184 94.6362C218.23 94.6362 218.275 94.6459 218.316 94.6646C218.357 94.6833 218.394 94.7106 218.423 94.7446C218.453 94.7786 218.475 94.8185 218.487 94.8616C218.5 94.9048 218.503 94.9501 218.496 94.9944V96.8173C218.498 96.86 218.491 96.9026 218.476 96.9425C218.46 96.9825 218.437 97.0188 218.407 97.0494C218.376 97.0799 218.34 97.104 218.3 97.1201C218.26 97.1362 218.217 97.144 218.174 97.143L218.188 97.1638ZM177.552 94.634C177.484 94.6335 177.417 94.6117 177.362 94.5716C177.296 94.522 177.251 94.4481 177.239 94.3662C177.228 94.2844 177.249 94.2012 177.299 94.135C177.569 93.7671 177.91 93.456 178.302 93.2201L178.849 92.9082C178.921 92.8676 179.006 92.8565 179.086 92.8772C179.166 92.898 179.234 92.9489 179.277 93.0191C179.298 93.054 179.312 93.0928 179.318 93.1331C179.324 93.1734 179.321 93.2145 179.311 93.2539C179.301 93.2933 179.282 93.3303 179.257 93.3626C179.232 93.3948 179.201 93.4218 179.165 93.4419L178.618 93.7538C178.299 93.9472 178.022 94.2017 177.804 94.5023C177.772 94.5405 177.731 94.5704 177.685 94.5897C177.638 94.609 177.588 94.6171 177.538 94.6132L177.552 94.634ZM218.181 92.2013C218.099 92.2013 218.02 92.1691 217.963 92.1119C217.905 92.0548 217.872 91.9772 217.872 91.8963V90.0319C217.883 89.958 217.921 89.8906 217.978 89.8419C218.036 89.7932 218.109 89.7664 218.184 89.7664C218.26 89.7664 218.333 89.7932 218.39 89.8419C218.447 89.8906 218.485 89.958 218.496 90.0319V91.8963C218.489 91.9766 218.451 92.051 218.389 92.104C218.328 92.157 218.248 92.1844 218.167 92.1805L218.181 92.2013ZM181.717 91.9379C181.661 91.9391 181.606 91.9248 181.557 91.8966C181.509 91.8685 181.47 91.8276 181.444 91.7785C181.403 91.7075 181.391 91.6235 181.412 91.5444C181.433 91.4654 181.485 91.3976 181.556 91.3557L183.19 90.427C183.261 90.3864 183.346 90.3752 183.426 90.396C183.506 90.4167 183.575 90.4677 183.617 90.5379C183.659 90.6099 183.67 90.695 183.649 90.7752C183.628 90.8554 183.577 90.9244 183.505 90.9676L181.885 91.8755C181.832 91.9056 181.771 91.92 181.71 91.9171L181.717 91.9379ZM186.058 89.4566C185.991 89.4536 185.926 89.4295 185.874 89.3879C185.822 89.3462 185.784 89.2891 185.767 89.225C185.75 89.1608 185.754 89.0929 185.778 89.0311C185.803 88.9693 185.847 88.9168 185.903 88.8814L187.53 87.9457C187.603 87.9043 187.689 87.8932 187.77 87.9146C187.851 87.936 187.92 87.9884 187.961 88.0601C188.003 88.1317 188.015 88.2169 187.993 88.2969C187.971 88.3768 187.918 88.4449 187.846 88.4863L186.219 89.4151C186.166 89.4367 186.108 89.4439 186.051 89.4358L186.058 89.4566ZM218.174 87.2457C218.09 87.2457 218.01 87.2128 217.951 87.1543C217.891 87.0958 217.858 87.0165 217.858 86.9338V85.0347C217.858 84.952 217.891 84.8727 217.951 84.8142C218.01 84.7557 218.09 84.7228 218.174 84.7228C218.257 84.7228 218.338 84.7557 218.397 84.8142C218.456 84.8727 218.489 84.952 218.489 85.0347V86.8922C218.492 86.9354 218.486 86.9789 218.471 87.0196C218.456 87.0604 218.433 87.0976 218.402 87.1289C218.372 87.1602 218.335 87.1849 218.295 87.2014C218.254 87.218 218.211 87.2259 218.167 87.2249L218.174 87.2457ZM190.405 86.9754C190.35 86.9744 190.297 86.96 190.249 86.9334C190.201 86.9068 190.161 86.8688 190.132 86.8229C190.091 86.7511 190.081 86.6664 190.103 86.5873C190.126 86.5081 190.179 86.4408 190.251 86.4001L191.878 85.4714C191.913 85.4503 191.952 85.4365 191.993 85.4307C192.034 85.4249 192.076 85.4272 192.115 85.4376C192.155 85.4479 192.193 85.466 192.225 85.4909C192.258 85.5157 192.285 85.5468 192.306 85.5822C192.347 85.6532 192.358 85.7372 192.337 85.8163C192.316 85.8954 192.264 85.9632 192.193 86.005L190.56 86.9338C190.509 86.9552 190.453 86.9624 190.398 86.9546L190.405 86.9754ZM194.753 84.501C194.702 84.4973 194.652 84.4808 194.609 84.4529C194.566 84.425 194.531 84.3867 194.507 84.3416C194.466 84.2707 194.455 84.1866 194.476 84.1075C194.497 84.0285 194.549 83.9607 194.62 83.9188L196.246 82.9901C196.319 82.9491 196.405 82.9378 196.487 82.9585C196.568 82.9792 196.638 83.0303 196.681 83.101C196.702 83.1363 196.716 83.1754 196.721 83.216C196.727 83.2567 196.724 83.2979 196.712 83.3374C196.701 83.3769 196.682 83.4137 196.656 83.4457C196.631 83.4777 196.598 83.5043 196.562 83.5238L194.935 84.4594C194.876 84.4851 194.81 84.4923 194.746 84.4802L194.753 84.501ZM218.174 82.2901C218.09 82.2901 218.01 82.2572 217.951 82.1987C217.891 82.1402 217.858 82.0609 217.858 81.9782V80.1207C217.858 80.038 217.891 79.9586 217.951 79.9001C218.01 79.8417 218.09 79.8088 218.174 79.8088C218.257 79.8088 218.338 79.8417 218.397 79.9001C218.456 79.9586 218.489 80.038 218.489 80.1207V81.9782C218.482 82.0572 218.445 82.1306 218.385 82.1834C218.325 82.2362 218.247 82.2644 218.167 82.2623L218.174 82.2901ZM199.093 82.0198C199.039 82.0188 198.985 82.0044 198.937 81.9778C198.889 81.9512 198.849 81.9132 198.82 81.8673C198.779 81.7944 198.769 81.7087 198.791 81.6284C198.813 81.5481 198.866 81.4796 198.939 81.4376L200.566 80.5088C200.639 80.4688 200.724 80.4587 200.804 80.4808C200.884 80.5028 200.953 80.5553 200.994 80.6266C201.035 80.6976 201.046 80.7816 201.025 80.8607C201.004 80.9398 200.953 81.0075 200.882 81.0494L199.248 81.9782C199.197 81.9996 199.141 82.0068 199.086 81.999L199.093 82.0198ZM203.441 79.5385C203.386 79.5396 203.331 79.526 203.283 79.4992C203.235 79.4724 203.195 79.4333 203.168 79.386C203.126 79.3151 203.115 79.231 203.136 79.1519C203.157 79.0729 203.209 79.0051 203.28 78.9632L204.914 78.0345C204.949 78.0145 204.988 78.0015 205.029 77.9964C205.069 77.9914 205.11 77.9942 205.15 78.0048C205.189 78.0154 205.226 78.0336 205.258 78.0583C205.291 78.083 205.318 78.1138 205.338 78.1488C205.358 78.1839 205.371 78.2225 205.376 78.2626C205.381 78.3026 205.379 78.3432 205.368 78.3822C205.357 78.4211 205.339 78.4576 205.314 78.4895C205.289 78.5214 205.258 78.5481 205.222 78.5682L203.623 79.49C203.562 79.5087 203.496 79.5087 203.434 79.49L203.441 79.5385ZM218.167 77.3275C218.084 77.3276 218.005 77.2956 217.946 77.2386C217.887 77.1816 217.853 77.1041 217.851 77.0226V75.1582C217.851 75.0754 217.884 74.9961 217.944 74.9376C218.003 74.8791 218.083 74.8463 218.167 74.8463C218.25 74.8463 218.331 74.8791 218.39 74.9376C218.449 74.9961 218.482 75.0754 218.482 75.1582V77.0226C218.475 77.1004 218.439 77.1728 218.38 77.2254C218.322 77.278 218.246 77.307 218.167 77.3067V77.3275ZM207.775 77.0642C207.719 77.0631 207.665 77.0479 207.617 77.02C207.569 76.9921 207.529 76.9524 207.501 76.9047C207.461 76.833 207.45 76.7483 207.473 76.6691C207.495 76.5899 207.548 76.5227 207.62 76.482L209.247 75.5532C209.319 75.5126 209.404 75.5015 209.484 75.5222C209.564 75.543 209.633 75.5939 209.675 75.6641C209.696 75.699 209.71 75.7378 209.716 75.7781C209.722 75.8184 209.72 75.8595 209.709 75.8989C209.699 75.9383 209.68 75.9753 209.655 76.0076C209.63 76.0398 209.599 76.0668 209.563 76.0869L207.936 77.0226C207.885 77.0422 207.829 77.0493 207.775 77.0434V77.0642ZM212.122 74.5829C212.067 74.584 212.012 74.5704 211.964 74.5436C211.916 74.5168 211.876 74.4777 211.849 74.4304C211.807 74.3584 211.796 74.2733 211.817 74.1931C211.838 74.1129 211.889 74.0439 211.961 74.0007L213.595 73.0719C213.631 73.0469 213.672 73.0295 213.715 73.0211C213.758 73.0126 213.803 73.0132 213.846 73.0228C213.889 73.0324 213.929 73.0508 213.965 73.0768C214 73.1028 214.029 73.1358 214.051 73.1738C214.073 73.2117 214.086 73.2537 214.09 73.2971C214.095 73.3405 214.09 73.3843 214.076 73.4256C214.062 73.4669 214.039 73.5049 214.01 73.5371C213.98 73.5693 213.944 73.595 213.903 73.6126L212.276 74.5413C212.227 74.5606 212.175 74.5677 212.122 74.5621V74.5829ZM218.054 72.3858C217.992 72.3858 217.932 72.3673 217.88 72.3327C217.829 72.298 217.79 72.2489 217.767 72.1917C217.599 71.7967 217.178 71.7412 216.694 72.0184L216.624 72.06C216.588 72.0812 216.548 72.0952 216.507 72.1011C216.466 72.107 216.424 72.1047 216.383 72.0944C216.343 72.084 216.305 72.0659 216.271 72.041C216.238 72.016 216.21 71.9848 216.189 71.9491C216.168 71.9138 216.155 71.8747 216.149 71.8341C216.144 71.7935 216.147 71.7522 216.158 71.7127C216.169 71.6733 216.188 71.6364 216.214 71.6044C216.24 71.5724 216.272 71.5458 216.308 71.5263L216.379 71.4848C216.532 71.3642 216.71 71.2798 216.901 71.238C217.092 71.1962 217.29 71.1981 217.481 71.2436C217.671 71.2891 217.848 71.3769 217.998 71.5004C218.149 71.6239 218.269 71.7797 218.349 71.9561C218.379 72.0324 218.377 72.1174 218.345 72.1926C218.312 72.2678 218.25 72.3272 218.174 72.3581C218.135 72.3706 218.094 72.373 218.054 72.365V72.3858Z" fill="#FDC70A"/>
<path d="M176.812 113.354C176.758 113.354 176.705 113.34 176.658 113.313L175.024 112.384C174.953 112.342 174.902 112.274 174.881 112.195C174.86 112.116 174.871 112.032 174.912 111.961C174.953 111.89 175.021 111.837 175.101 111.815C175.182 111.793 175.267 111.803 175.34 111.843L176.974 112.758C177.046 112.8 177.1 112.869 177.122 112.949C177.144 113.029 177.134 113.115 177.093 113.188C177.067 113.239 177.026 113.281 176.977 113.311C176.927 113.34 176.87 113.355 176.812 113.354ZM172.465 110.873C172.411 110.872 172.358 110.858 172.311 110.831L170.663 109.903C170.599 109.858 170.554 109.792 170.536 109.716C170.519 109.641 170.531 109.562 170.569 109.494C170.608 109.427 170.67 109.376 170.745 109.352C170.819 109.327 170.9 109.331 170.971 109.362L172.605 110.298C172.676 110.34 172.728 110.407 172.749 110.486C172.77 110.566 172.758 110.65 172.717 110.721C172.691 110.765 172.655 110.802 172.611 110.829C172.567 110.855 172.516 110.871 172.465 110.873ZM168.124 108.392C168.068 108.392 168.012 108.378 167.963 108.35L166.336 107.421C166.264 107.381 166.211 107.313 166.189 107.234C166.166 107.155 166.176 107.07 166.217 106.999C166.238 106.963 166.266 106.932 166.299 106.907C166.332 106.882 166.37 106.864 166.411 106.853C166.451 106.843 166.493 106.841 166.535 106.847C166.576 106.853 166.616 106.867 166.652 106.888L168.279 107.816C168.335 107.852 168.379 107.904 168.404 107.966C168.428 108.028 168.432 108.096 168.415 108.16C168.398 108.224 168.36 108.281 168.308 108.323C168.256 108.365 168.191 108.389 168.124 108.392ZM163.777 105.91C163.72 105.914 163.663 105.899 163.615 105.869L161.989 104.94C161.953 104.92 161.921 104.893 161.896 104.861C161.871 104.828 161.853 104.792 161.842 104.752C161.832 104.713 161.829 104.672 161.835 104.631C161.841 104.591 161.855 104.552 161.876 104.517C161.919 104.447 161.987 104.396 162.067 104.375C162.147 104.355 162.232 104.366 162.304 104.406L163.931 105.335C163.988 105.371 164.032 105.423 164.056 105.485C164.081 105.547 164.085 105.615 164.067 105.679C164.05 105.743 164.013 105.8 163.96 105.842C163.908 105.883 163.844 105.907 163.777 105.91Z" fill="#FDC70A"/>
<path d="M217.641 64.013C221.266 61.9338 224.204 63.6249 224.204 67.7627C224.204 71.9004 221.266 76.9392 217.641 79.0046C214.015 81.07 211.07 79.3997 211.07 75.2619C211.07 71.1241 214.001 66.0854 217.641 64.013Z" fill="#FAFAFA"/>
<path d="M214.696 80.1825C214.049 80.192 213.412 80.0292 212.851 79.7112C211.526 78.9557 210.797 77.3824 210.797 75.2823C210.797 71.0614 213.805 65.9117 217.501 63.8047C219.338 62.7512 221.084 62.5918 222.409 63.3473C223.734 64.1028 224.471 65.683 224.471 67.7831C224.471 72.004 221.462 77.1467 217.767 79.2607C216.841 79.8244 215.783 80.142 214.696 80.1825ZM220.565 63.4097C219.571 63.4486 218.604 63.7424 217.76 64.2622C214.212 66.286 211.323 71.2277 211.323 75.2823C211.323 77.1814 211.961 78.5953 213.111 79.2537C214.261 79.9122 215.825 79.7528 217.494 78.7963C221.042 76.7725 223.924 71.8307 223.924 67.7831C223.924 65.8771 223.286 64.4701 222.136 63.8117C221.66 63.5346 221.117 63.3886 220.565 63.3889V63.4097Z" fill="#FDC70A"/>
<path d="M221.851 69.8691V68.3374C221.851 68.0602 221.655 67.9493 221.41 68.0879L218.745 69.6058V66.5631C218.745 66.2859 218.549 66.175 218.31 66.3136L216.943 67.0829C216.814 67.1656 216.707 67.2771 216.63 67.4084C216.554 67.5396 216.509 67.687 216.501 67.8384V70.8741L213.836 72.392C213.708 72.4747 213.601 72.5862 213.524 72.7175C213.447 72.8487 213.403 72.9961 213.395 73.1475V74.6861C213.395 74.9634 213.591 75.0743 213.836 74.9356L216.501 73.4178V76.4535C216.501 76.7307 216.697 76.8486 216.943 76.71L218.289 75.9406C218.416 75.8568 218.521 75.7448 218.597 75.6137C218.672 75.4825 218.716 75.3358 218.724 75.1851V72.1494L221.388 70.6246C221.521 70.5443 221.632 70.4338 221.713 70.3024C221.793 70.171 221.841 70.0224 221.851 69.8691Z" fill="#FDC70A"/>
<path d="M220.115 87.5693V135.628C220.096 135.987 219.992 136.336 219.81 136.646C219.629 136.957 219.375 137.221 219.071 137.416L183.925 157.475C183.821 157.553 183.697 157.601 183.567 157.613C183.437 157.625 183.306 157.601 183.189 157.544L181.226 156.428C181.113 156.354 181.025 156.249 180.971 156.126C180.918 156.003 180.901 155.867 180.924 155.735V97.7092C180.942 97.3514 181.046 97.0029 181.226 96.6922C181.406 96.3814 181.659 96.1172 181.962 95.921L208.356 80.874L220.115 87.5693Z" fill="#F0F0F0"/>
<path d="M184.846 98.7549L181.179 96.7588C181.016 97.0504 180.925 97.3756 180.912 97.7083V155.727C180.89 155.859 180.906 155.995 180.959 156.118C181.013 156.241 181.101 156.346 181.214 156.42L183.177 157.536C183.294 157.593 183.425 157.617 183.555 157.605C183.686 157.593 183.81 157.545 183.914 157.467L184.832 156.947L184.846 98.7549Z" fill="#E0E0E0"/>
<path d="M220.118 87.5698V135.629C220.097 135.987 219.992 136.335 219.81 136.646C219.629 136.956 219.376 137.22 219.073 137.417L183.928 157.475C183.353 157.801 182.883 157.537 182.883 156.879V98.8326C182.902 98.4743 183.007 98.1256 183.189 97.8149C183.37 97.5041 183.623 97.2402 183.928 97.0444L204.438 85.3311L210.322 81.9766L220.118 87.5698Z" fill="#FAFAFA"/>
<path d="M210.324 82.5657L219.601 87.8678V135.629C219.582 135.897 219.502 136.158 219.366 136.391C219.23 136.624 219.042 136.823 218.816 136.973L183.67 157.031C183.607 157.07 183.535 157.094 183.46 157.101C183.46 157.101 183.411 157.025 183.411 156.879V98.8326C183.429 98.5648 183.509 98.3048 183.644 98.0719C183.779 97.839 183.965 97.6393 184.189 97.488L204.7 85.7747L210.31 82.5657M210.31 81.9766L204.427 85.3311L183.916 97.0444C183.612 97.2402 183.359 97.5041 183.177 97.8149C182.995 98.1256 182.891 98.4743 182.871 98.8326V156.851C182.871 157.316 183.11 157.586 183.453 157.586C183.617 157.581 183.777 157.534 183.916 157.447L219.047 137.389C219.351 137.193 219.603 136.928 219.785 136.618C219.966 136.307 220.071 135.959 220.092 135.601V87.5698L210.275 81.9766H210.31Z" fill="#E0E0E0"/>
<path d="M214.98 87.9509C215.359 87.9509 215.625 88.2489 215.625 88.7687V129.661C215.603 130.058 215.486 130.444 215.286 130.789C215.085 131.133 214.805 131.426 214.468 131.643L188.523 146.434C188.368 146.534 188.188 146.589 188.004 146.593C187.625 146.593 187.366 146.295 187.366 145.776V104.883C187.388 104.486 187.504 104.1 187.705 103.756C187.906 103.411 188.186 103.119 188.523 102.901L206.053 92.8996L214.468 88.1103C214.622 88.0162 214.799 87.9636 214.98 87.9578M214.98 87.4796C214.712 87.487 214.451 87.5634 214.223 87.7014L205.808 92.4837L188.277 102.492C187.867 102.751 187.526 103.103 187.282 103.519C187.038 103.935 186.898 104.403 186.875 104.883V145.776C186.856 145.935 186.871 146.096 186.919 146.249C186.966 146.402 187.045 146.544 187.15 146.665C187.255 146.787 187.385 146.886 187.531 146.956C187.676 147.026 187.835 147.065 187.997 147.072C188.267 147.065 188.53 146.989 188.761 146.85L214.706 132.059C215.117 131.799 215.458 131.446 215.702 131.028C215.946 130.611 216.085 130.142 216.109 129.661V88.7687C216.128 88.6095 216.114 88.448 216.067 88.2945C216.02 88.141 215.942 87.9988 215.836 87.8769C215.731 87.7551 215.601 87.6562 215.454 87.5866C215.308 87.517 215.149 87.4782 214.987 87.4727L214.98 87.4796Z" fill="#FDC70A"/>
<path d="M210.32 91.964V81.9766L220.137 87.5698L211.386 92.5601C210.79 92.8928 210.32 92.6571 210.32 91.964Z" fill="#E0E0E0"/>
<path d="M192.673 118.377L210.337 108.195C210.724 107.956 211.049 107.63 211.285 107.243C211.521 106.857 211.662 106.421 211.697 105.971C211.697 105.167 211.087 104.862 210.337 105.277L192.666 115.452C192.279 115.693 191.954 116.02 191.719 116.408C191.484 116.796 191.345 117.233 191.312 117.684C191.313 118.502 191.923 118.807 192.673 118.377ZM210.337 111.723L192.666 121.905C192.279 122.145 191.954 122.473 191.719 122.861C191.484 123.248 191.345 123.686 191.312 124.136C191.313 124.934 191.923 125.238 192.673 124.83L210.337 114.648C210.725 114.408 211.05 114.08 211.286 113.693C211.523 113.305 211.663 112.868 211.697 112.416C211.697 111.598 211.087 111.293 210.337 111.723ZM210.337 118.162L192.666 128.344C192.278 128.582 191.954 128.908 191.719 129.295C191.483 129.682 191.344 130.118 191.312 130.568C191.312 131.372 191.923 131.677 192.673 131.261L210.337 121.073C210.725 120.835 211.051 120.509 211.287 120.122C211.524 119.735 211.664 119.299 211.697 118.848C211.697 118.037 211.087 117.732 210.337 118.162Z" fill="#FDC70A"/>
<path opacity="0.3" d="M192.673 118.377L210.337 108.195C210.724 107.956 211.049 107.63 211.285 107.243C211.521 106.857 211.662 106.421 211.697 105.971C211.697 105.167 211.087 104.862 210.337 105.277L192.666 115.452C192.279 115.693 191.954 116.02 191.719 116.408C191.484 116.796 191.345 117.233 191.312 117.684C191.313 118.502 191.923 118.807 192.673 118.377ZM210.337 111.723L192.666 121.905C192.279 122.145 191.954 122.473 191.719 122.861C191.484 123.248 191.345 123.686 191.312 124.136C191.313 124.934 191.923 125.238 192.673 124.83L210.337 114.648C210.725 114.408 211.05 114.08 211.286 113.693C211.523 113.305 211.663 112.868 211.697 112.416C211.697 111.598 211.087 111.293 210.337 111.723ZM210.337 118.162L192.666 128.344C192.278 128.582 191.954 128.908 191.719 129.295C191.483 129.682 191.344 130.118 191.312 130.568C191.312 131.372 191.923 131.677 192.673 131.261L210.337 121.073C210.725 120.835 211.051 120.509 211.287 120.122C211.524 119.735 211.664 119.299 211.697 118.848C211.697 118.037 211.087 117.732 210.337 118.162Z" fill="white"/>
<path d="M163.17 90.0158V138.047C163.15 138.405 163.044 138.753 162.863 139.064C162.681 139.374 162.429 139.639 162.125 139.835L126.98 159.886C126.873 159.962 126.748 160.008 126.618 160.02C126.487 160.032 126.356 160.01 126.237 159.956L124.28 158.84C124.168 158.765 124.079 158.66 124.026 158.537C123.972 158.414 123.956 158.279 123.979 158.147V100.156C123.998 99.7982 124.102 99.4501 124.282 99.1395C124.463 98.8289 124.714 98.5645 125.017 98.3675L151.411 83.3066L163.17 90.0158Z" fill="#F0F0F0"/>
<path d="M127.883 101.202L124.237 99.2061C124.07 99.4963 123.976 99.822 123.963 100.156V158.181C123.946 158.314 123.965 158.448 124.019 158.571C124.074 158.693 124.161 158.798 124.272 158.874L126.228 159.99C126.346 160.049 126.479 160.074 126.61 160.061C126.742 160.049 126.867 160 126.972 159.921L127.883 159.401V101.202Z" fill="#E0E0E0"/>
<path d="M163.172 90.0167V138.048C163.152 138.406 163.047 138.754 162.865 139.065C162.684 139.375 162.431 139.64 162.128 139.836L126.982 159.887C126.407 160.213 125.938 159.95 125.938 159.291V101.279C125.957 100.921 126.062 100.572 126.243 100.262C126.425 99.951 126.678 99.687 126.982 99.4913L147.521 87.8057L153.397 84.4512L163.172 90.0167Z" fill="#FAFAFA"/>
<path d="M153.365 85.0328L162.649 90.3349V138.068C162.629 138.336 162.548 138.596 162.412 138.829C162.276 139.062 162.088 139.261 161.864 139.413L126.718 159.471C126.652 159.511 126.578 159.535 126.501 159.54C126.461 159.473 126.444 159.396 126.452 159.318V101.279C126.471 101.01 126.551 100.75 126.687 100.517C126.823 100.284 127.011 100.084 127.237 99.9342L147.748 88.221L153.358 85.012M153.358 84.4229L147.517 87.8051L127.006 99.5184C126.702 99.7142 126.448 99.9782 126.267 100.289C126.085 100.6 125.98 100.948 125.961 101.307V159.325C125.961 159.79 126.199 160.06 126.543 160.06C126.707 160.055 126.867 160.008 127.006 159.921L162.151 139.863C162.455 139.667 162.707 139.402 162.889 139.092C163.07 138.781 163.175 138.433 163.196 138.075V90.0438L153.379 84.4506L153.358 84.4229Z" fill="#E0E0E0"/>
<path d="M158.035 90.3972C158.413 90.3972 158.673 90.6952 158.673 91.215V132.107C158.65 132.504 158.534 132.891 158.333 133.235C158.132 133.579 157.852 133.872 157.516 134.09L131.57 148.88C131.415 148.979 131.236 149.034 131.052 149.04C130.673 149.04 130.413 148.742 130.413 148.222V107.329C130.436 106.932 130.552 106.546 130.753 106.202C130.954 105.858 131.234 105.565 131.57 105.347L149.101 95.3459L157.516 90.5566C157.673 90.4633 157.851 90.4109 158.035 90.4041M158.035 89.9259C157.767 89.9323 157.505 90.0088 157.277 90.1477L148.863 94.93L131.332 104.938C130.922 105.197 130.581 105.55 130.337 105.966C130.093 106.382 129.953 106.849 129.93 107.329V148.222C129.911 148.381 129.926 148.542 129.973 148.695C130.021 148.848 130.1 148.99 130.205 149.111C130.31 149.233 130.44 149.332 130.585 149.402C130.731 149.472 130.89 149.511 131.052 149.518C131.319 149.511 131.581 149.435 131.809 149.296L157.754 134.506C158.164 134.245 158.506 133.892 158.75 133.475C158.994 133.057 159.133 132.589 159.157 132.107V91.215C159.175 91.056 159.16 90.8949 159.113 90.7418C159.065 90.5888 158.987 90.447 158.881 90.3253C158.776 90.2037 158.646 90.1049 158.501 90.0349C158.355 89.965 158.196 89.9255 158.035 89.9189V89.9259Z" fill="#FDC70A"/>
<path d="M153.371 94.4103V84.4229L163.188 90.0161L154.437 95.0064C153.827 95.339 153.371 95.0687 153.371 94.4103Z" fill="#E0E0E0"/>
<path d="M135.721 120.824L153.391 110.677C153.779 110.437 154.103 110.111 154.34 109.725C154.576 109.338 154.717 108.902 154.752 108.452C154.752 107.648 154.142 107.343 153.391 107.759L135.721 117.933C135.333 118.173 135.008 118.501 134.772 118.889C134.537 119.277 134.398 119.714 134.367 120.165C134.367 120.948 134.97 121.253 135.721 120.824ZM153.391 114.17L135.721 124.352C135.333 124.591 135.008 124.919 134.772 125.307C134.537 125.695 134.398 126.132 134.367 126.583C134.367 127.38 134.97 127.685 135.721 127.276L153.391 117.095C153.779 116.854 154.105 116.527 154.341 116.14C154.577 115.752 154.718 115.315 154.752 114.863C154.752 114.045 154.142 113.747 153.391 114.142V114.17ZM153.391 120.609L135.721 130.776C135.332 131.014 135.006 131.34 134.771 131.727C134.536 132.114 134.397 132.551 134.367 133.001C134.367 133.805 134.97 134.11 135.721 133.694L153.391 123.513C153.78 123.274 154.105 122.949 154.342 122.562C154.578 122.175 154.719 121.739 154.752 121.288C154.752 120.484 154.142 120.179 153.391 120.609Z" fill="#FDC70A"/>
<path opacity="0.3" d="M135.721 120.824L153.391 110.677C153.779 110.437 154.103 110.111 154.34 109.725C154.576 109.338 154.717 108.902 154.752 108.452C154.752 107.648 154.142 107.343 153.391 107.759L135.721 117.933C135.333 118.173 135.008 118.501 134.772 118.889C134.537 119.277 134.398 119.714 134.367 120.165C134.367 120.948 134.97 121.253 135.721 120.824ZM153.391 114.17L135.721 124.352C135.333 124.591 135.008 124.919 134.772 125.307C134.537 125.695 134.398 126.132 134.367 126.583C134.367 127.38 134.97 127.685 135.721 127.276L153.391 117.095C153.779 116.854 154.105 116.527 154.341 116.14C154.577 115.752 154.718 115.315 154.752 114.863C154.752 114.045 154.142 113.747 153.391 114.142V114.17ZM153.391 120.609L135.721 130.776C135.332 131.014 135.006 131.34 134.771 131.727C134.536 132.114 134.397 132.551 134.367 133.001C134.367 133.805 134.97 134.11 135.721 133.694L153.391 123.513C153.78 123.274 154.105 122.949 154.342 122.562C154.578 122.175 154.719 121.739 154.752 121.288C154.752 120.484 154.142 120.179 153.391 120.609Z" fill="white"/>
<path d="M239.747 248.826C239.803 251.834 240.042 256.207 239.747 257.455C239.453 258.702 234.383 259.922 230.414 260.102C226.445 260.283 221.67 259.693 221.382 262.466C221.095 265.238 223.584 267.089 225.407 267.92C228.5 269.341 231.95 269.029 234.986 268.614C238.022 268.198 239.642 268.489 242.847 269.265C246.051 270.041 247.86 269.563 249.228 268.884C251.261 267.879 250.721 264.448 250.006 262.216C249.291 259.985 249.368 257.94 249.635 254.842C249.901 251.744 250.799 247.218 250.799 247.218L239.747 248.826Z" fill="#FFBDA7"/>
<path d="M250.005 262.159C250.005 262.159 250.005 263.109 247.902 263.546C245.798 263.982 242.376 263.864 239.957 264.024C236.331 264.253 233.583 264.662 229.438 264.024C225.792 263.456 225.932 260.6 229.214 260.143C225.54 260.205 221.634 259.955 221.374 262.437C221.087 265.209 223.576 267.06 225.399 267.891C228.492 269.312 231.942 269 234.978 268.584C238.014 268.169 239.634 268.46 242.839 269.236C246.043 270.012 247.853 269.534 249.22 268.855C251.261 267.822 250.721 264.391 250.005 262.159Z" fill="#455A64"/>
<path d="M277.43 241.361C279.134 243.8 281.939 248.416 282.339 249.56C282.738 250.703 283.082 255.008 282.339 256.276C281.273 257.045 279.604 257.489 278.18 258.182C276.119 259.187 275.677 260.857 277.023 262.133C278.896 263.914 281.932 264.122 283.755 264.018C286.42 263.616 286.602 260.67 286.981 258.057C287.359 255.444 286.932 250.322 288.937 247.169C290.943 244.015 294.484 243.703 294.947 244.771C294.729 243.183 293.839 243.142 291.924 242.068C290.01 240.993 288.334 241.028 287.275 238.54C286.013 235.594 284.87 232.08 284.87 232.08L277.43 241.361Z" fill="#FFBDA7"/>
<path d="M281.176 264.066C283.083 264.378 284.429 264.378 287.816 262.735C290.747 261.314 291.491 260.711 291.94 259.928C292.641 258.68 291.883 255.603 292.494 252.955C292.947 251.09 293.595 249.275 294.429 247.542C295.095 245.934 295.046 245.241 294.941 244.77C294.709 243.765 292.641 243.64 290.67 244.77C288.7 245.9 287.424 248.055 286.772 253.191C286.119 258.327 287.122 263.941 281.176 264.066Z" fill="#263238"/>
<path d="M294.942 244.77C294.718 243.183 294.164 242.947 292.249 241.88C291.548 241.478 290.847 241.187 290.181 240.868C288.322 240.522 285.398 241.963 285.272 245.817C285.146 249.67 285.791 254.557 284.62 256.366C283.617 257.911 281.976 257.807 282.355 256.276C279.718 257.232 278.814 257.246 277.327 258.05C275.616 258.979 275.041 261.398 276.626 262.368C278.718 263.776 281.265 264.364 283.772 264.017C286.436 263.615 286.618 260.67 286.997 258.057C287.376 255.444 286.948 250.322 288.954 247.168C290.959 244.015 294.479 243.751 294.942 244.77Z" fill="#455A64"/>
<path d="M277.951 242.893C277.951 242.893 268.281 228.858 263.12 219.764C259.298 213.041 258.954 211.738 258.015 207.337C256.002 197.89 255.532 195.673 255.532 195.673L252.531 214.76C253.015 216.84 253.983 220.936 254.018 223.348C253.992 228.06 253.605 232.763 252.861 237.417C252.162 242.663 251.181 247.869 249.923 253.012C249.172 253.525 246.992 253.629 245.098 253.566C243.254 253.455 241.431 253.118 239.671 252.562C239.671 252.562 238.093 230.071 237.728 223.881C237.287 216.458 237.132 213.54 236.894 209.465C236.522 202.971 235.632 193.572 235.884 181.637C236.389 157.906 241.739 147.073 241.739 147.073L268.835 143.351C271.086 151.349 275.763 152.278 276.254 163.194C276.366 165.669 275.041 170.59 274.991 174.429C274.851 186.905 273.722 206.492 273.722 206.492C276.695 209.202 278.876 211.655 280.931 217.942C282.179 221.761 284.949 231.436 286.12 235.359C282.691 235.359 277.895 241.361 277.951 242.893Z" fill="#455A64"/>
<path d="M250.531 160.754L251.232 160.644C251.864 164.948 252.901 169.827 253.469 170.208C254.465 170.901 258.154 171.428 258.981 171.22C259.808 171.012 260.545 170.347 262.017 168.372C263.048 166.985 262.936 166.119 262.719 164.213C262.627 163.52 262.522 162.702 262.459 161.69L263.16 161.642C263.223 162.626 263.322 163.423 263.413 164.123C263.658 166.029 263.805 167.172 262.592 168.801C261.001 170.936 260.201 171.671 259.149 171.92C258.998 171.957 258.842 171.975 258.686 171.976C257.228 172.045 254.058 171.47 253.077 170.811C252.004 170.077 250.854 162.931 250.531 160.754Z" fill="#37474F"/>
<path d="M239.437 160.125L240.139 160.326C238.084 167.61 238.533 174.285 242.207 176.316C242.908 171.395 243.82 166.307 245.117 160.867L245.819 161.033C241.611 178.561 241.134 192.368 241.674 208.953C242.081 221.595 242.894 243.317 243.273 253.401L242.537 253.277C242.158 243.137 241.352 221.554 240.945 208.981C240.58 197.746 240.7 187.786 242.102 177.099C237.895 174.971 237.236 167.936 239.437 160.125Z" fill="#37474F"/>
<path d="M275.926 166.66C275.476 167.087 274.931 167.405 274.334 167.588C273.191 167.637 271.298 166.029 270.758 164.816C270.504 164.106 270.351 163.364 270.302 162.612C270.192 161.512 269.99 160.422 269.699 159.354L270.4 159.146C270.704 160.253 270.915 161.382 271.032 162.522C271.072 163.202 271.207 163.874 271.431 164.518C271.887 165.544 273.535 166.888 274.306 166.854C274.999 166.515 275.616 166.044 276.122 165.467C276.052 165.8 275.982 166.292 275.926 166.66Z" fill="#37474F"/>
<path d="M280.208 239.117C280.376 238.923 280.551 238.736 280.727 238.548C276.098 230.571 266.162 213.126 265.3 208.891C264.164 203.471 262.207 185.291 262.123 175.512H261.422C261.499 185.326 263.462 203.589 264.605 209.037C265.496 213.472 275.615 231.202 280.208 239.117Z" fill="#37474F"/>
<path d="M266.023 157.906C267.861 160.796 268.975 165.87 266.605 171.428L265.939 171.144C268.197 165.842 267.145 161.032 265.406 158.301L266.023 157.906Z" fill="#37474F"/>
<path d="M255.508 195.674L258.453 175.664C258.453 175.664 266.075 174.611 267.127 167.541C267.309 171.7 265.619 175.338 260.886 177.244L257.1 195.715L257.99 207.304L255.508 195.674Z" fill="#37474F"/>
<path d="M271.122 111.023C276.031 112.18 278.731 113.532 280.757 120.158C282.679 126.396 285.897 137.021 286.746 141.512C287.152 143.702 287.342 145.788 284.263 147.057C277.307 149.968 270.597 152.005 270.597 152.005L267.883 143.889L275.316 140.216L273.465 134.297L271.122 111.023Z" fill="#FFBDA7"/>
<path d="M275.318 140.229C275.948 141.636 277.027 142.799 278.39 143.542C276.574 143.757 274.807 141.885 274.344 140.707L275.318 140.229Z" fill="#F0997A"/>
<path d="M271.473 110.967C273.675 111.362 276.69 111.82 278.892 115.126C281.094 118.432 284.67 129.958 284.67 129.958C284.67 129.958 282.924 132.107 278.359 133.313C273.794 134.519 271.873 133.493 271.873 133.493L268.465 122.459L271.473 110.967Z" fill="#FDC70A"/>
<path opacity="0.2" d="M271.473 110.967C273.675 111.362 276.69 111.82 278.892 115.126C281.094 118.432 284.67 129.958 284.67 129.958C284.67 129.958 282.924 132.107 278.359 133.313C273.794 134.519 271.873 133.493 271.873 133.493L268.465 122.459L271.473 110.967Z" fill="black"/>
<path d="M247.17 86.7579C246.308 85.6212 246.434 83.9162 247.051 82.5993C247.668 81.2824 248.86 80.0002 252.163 78.5933C256.09 76.9229 266.804 75.8209 270.913 82.9043C271.524 83.9647 260.325 102.699 260.542 106.684C258.088 103.732 250.024 93.4115 250.024 93.4115C248.012 92.3927 246.805 91.561 246.518 89.5926C246.431 88.6036 246.659 87.6127 247.17 86.7579Z" fill="#263238"/>
<path d="M248.337 92.2544C248.337 92.2544 245.21 96.5862 245.49 96.9743C246.107 97.5317 246.771 98.0349 247.475 98.4784L248.337 92.2544Z" fill="#F0997A"/>
<path d="M252.418 84.2354C250.475 84.9839 248.736 86.3146 247.86 90.3415C247.628 91.395 248.365 92.9129 247.86 94.306C245.756 100.267 247.369 105.472 248.484 106.678C249.234 107.489 253.435 108.119 255.692 107.662C258.497 107.094 264.738 104.834 267.922 100.731C271.659 95.9278 272.936 89.2048 269.366 86.2245C264.374 82.0452 254.493 83.4383 252.418 84.2354Z" fill="#FFBDA7"/>
<path d="M265.883 104.058L266.234 110.116C269.642 112.077 262.602 114.642 255.134 111.502L254.594 106.04L265.883 104.058Z" fill="#FFBDA7"/>
<path d="M254.847 108.513C254.98 109.9 255.121 111.979 252.926 112.589C250.857 113.129 247.519 113.469 244.266 114.668C244.266 114.668 255.99 116.498 262.147 115.493C268.304 114.488 269.369 110.579 269.369 110.579C267.154 110.281 266.228 109.886 266.144 108.5L254.847 108.513Z" fill="#FFBDA7"/>
<path d="M248.719 106.843C249.665 107.453 251.804 108.001 254.777 107.806L254.644 106.289C253.709 106.584 252.749 106.795 251.776 106.919C250.759 107.045 249.728 107.019 248.719 106.843Z" fill="#F0997A"/>
<path d="M249.48 86.2245C249.186 88.8582 250.806 89.8147 251.963 90.4177C251.438 91.3593 251.195 92.4289 251.262 93.502C251.43 94.8881 251.872 95.9971 253.176 96.5377C253.968 96.8634 254.235 96.5377 254.578 95.9139C255.055 95.0337 255.672 93.6822 257.622 94.0841C259.859 94.5485 260.216 97.9516 258.737 100.059C258.45 100.506 258.058 100.878 257.593 101.142C257.129 101.406 256.607 101.555 256.072 101.576C255.781 101.548 255.499 101.46 255.244 101.318C254.989 101.176 254.767 100.983 254.592 100.752C254.592 100.752 254.529 103.69 258.218 105.7C258.218 105.7 261.913 108.112 265.931 107.232C267.853 105.413 269.674 103.492 271.387 101.479C275.98 95.8238 276.94 85.0878 269.984 82.6343C269.655 82.5234 263.947 81.0956 260.77 81.5461C251.009 82.9531 249.53 85.767 249.48 86.2245Z" fill="#263238"/>
<path d="M270.934 82.9536C272.027 82.9536 275.344 84.624 275.33 91.9014C275.33 96.8224 274.131 103.4 272.525 106.456C268.262 111.1 255.92 112.001 250.465 110.04C253.971 108.439 254.63 104.1 254.616 100.738C256.229 103.15 259.181 103.726 262.757 101.951C266.334 100.177 270.934 82.9536 270.934 82.9536Z" fill="#263238"/>
<path d="M275.907 117.046C274.883 112.132 272.19 111.064 270.998 110.85L267.899 110.316C267.899 110.898 268.32 112.291 262.822 112.97C259.316 113.407 253.18 112.513 253.18 112.513C250.833 112.889 248.51 113.402 246.224 114.052C242.655 115.057 240.776 119.174 238.441 124.614C236.603 128.912 237.291 133.285 240.579 136.487C240.68 139.168 240.614 141.853 240.383 144.527C238.997 149.726 238.169 155.056 237.915 160.426C237.915 160.426 240.018 162.367 256.728 162C269.673 161.709 275.661 155.991 275.661 155.991C275.29 154.085 273.936 149.988 271.489 143.626C271.784 137.402 278.116 127.685 275.907 117.046Z" fill="#FDC70A"/>
<path d="M217.682 129.952C217.682 129.952 199.282 126.334 198.23 125.586C197.34 124.948 197.052 123.902 196.603 122.966C196.073 121.902 195.388 120.922 194.57 120.055C194.051 119.473 193.42 118.974 192.929 118.371C192.438 117.768 192.291 117.109 191.849 116.541C191.407 115.973 190.818 116.381 190.538 116.929C190.232 117.731 190.255 118.618 190.601 119.403C190.734 119.75 190.853 120.096 190.994 120.45C191.156 120.759 191.285 121.084 191.379 121.42C191.425 121.593 191.41 121.776 191.337 121.94C191.141 122.266 190.517 122.051 190.243 121.94C188.387 121.2 186.702 120.094 185.293 118.689C184.69 118.086 184.213 117.407 183.568 116.846C182.976 116.315 182.307 115.876 181.583 115.543C181.1 115.303 180.557 115.207 180.019 115.266C179.227 115.557 180.111 116.811 180.321 117.234C180.581 117.697 180.707 118.222 180.686 118.752C180.656 119.063 180.689 119.377 180.783 119.676C180.877 119.974 181.03 120.252 181.233 120.492C181.694 121.002 182.039 121.605 182.242 122.259C182.256 122.49 182.256 122.721 182.242 122.952C182.312 123.67 182.606 124.348 183.084 124.893C183.548 125.39 183.813 126.039 183.827 126.715C183.988 128.254 185.615 129.384 186.828 130.119C188.235 130.944 189.737 131.6 191.302 132.073C192.144 132.343 192.957 132.683 193.798 132.932C194.64 133.182 195.327 133.3 196.063 133.577C197.809 134.236 211.357 139.337 216.756 140.813C219.421 141.541 220.136 142.199 223.888 140.265C230.641 136.8 237.253 134.395 241.138 132.045C246.46 128.822 248.718 127.02 249.448 123.59C251.123 115.633 245.822 114.164 245.822 114.164C243.88 114.656 242.877 115.099 236.966 118.482C230.655 122.099 217.682 129.952 217.682 129.952Z" fill="#FFBDA7"/>
<path d="M245.823 114.176C242.562 114.544 240.865 115.431 237.247 117.683C233.629 119.936 227.465 123.88 227.465 123.88C227.879 127.458 229.38 130.829 231.77 133.548C234.673 136.826 237.03 136.556 237.03 136.556C237.03 136.556 246.755 129.487 248.719 126.763C250.682 124.039 252.141 115.874 245.823 114.176Z" fill="#FDC70A"/>
<path opacity="0.2" d="M245.823 114.176C242.562 114.544 240.865 115.431 237.247 117.683C233.629 119.936 227.465 123.88 227.465 123.88C227.879 127.458 229.38 130.829 231.77 133.548C234.673 136.826 237.03 136.556 237.03 136.556C237.03 136.556 246.755 129.487 248.719 126.763C250.682 124.039 252.141 115.874 245.823 114.176Z" fill="black"/>
<path d="M262.143 65.2362L260.306 61.8331L261.785 57.6261V55.0547L257.27 57.6261V60.2044L259.212 63.5243C259.24 63.577 259.288 63.6168 259.345 63.6352L262.143 65.2362Z" fill="#FDC70A"/>
<path opacity="0.2" d="M262.143 65.2362L260.306 61.8331L261.785 57.6261V55.0547L257.27 57.6261V60.2044L259.212 63.5243C259.24 63.577 259.288 63.6168 259.345 63.6352L262.143 65.2362Z" fill="black"/>
<path d="M272.912 34.5886C272.887 34.1244 272.752 33.6726 272.517 33.2702C272.281 32.8678 271.953 32.5262 271.558 32.2737L270.457 31.6637C270.037 31.4553 269.574 31.3467 269.104 31.3467C268.634 31.3467 268.17 31.4553 267.751 31.6637L250.865 41.2977C250.471 41.5511 250.143 41.8928 249.908 42.2951C249.673 42.6973 249.537 43.1487 249.512 43.6126V61.9796C249.536 62.4437 249.671 62.8955 249.907 63.298C250.142 63.7004 250.47 64.0419 250.865 64.2945L252.001 64.9321C252.42 65.1438 252.884 65.2542 253.354 65.2542C253.825 65.2542 254.289 65.1438 254.708 64.9321L260.135 61.834L262.071 65.147C262.099 65.1933 262.141 65.2306 262.19 65.2549C262.239 65.2792 262.294 65.2894 262.349 65.2843C262.404 65.2793 262.456 65.2592 262.5 65.2263C262.543 65.1935 262.577 65.1492 262.597 65.0985L264.623 59.2488L271.579 55.2704C271.974 55.0178 272.302 54.6763 272.538 54.2739C272.773 53.8715 272.908 53.4197 272.933 52.9555L272.912 34.5886Z" fill="#FDC70A"/>
<path d="M268.606 47.1611V45.0818C268.606 44.7075 268.332 44.555 268.003 44.7422L264.384 46.8214V42.6629C264.384 42.2886 264.118 42.1292 263.788 42.3233L261.958 43.3629C261.784 43.4757 261.64 43.6273 261.536 43.8055C261.433 43.9837 261.373 44.1835 261.362 44.3887V48.5472L257.744 50.6265C257.567 50.7373 257.421 50.8883 257.316 51.0668C257.211 51.2453 257.151 51.4461 257.141 51.6523V53.7316C257.141 54.1058 257.407 54.2583 257.744 54.0712L261.362 51.9919V56.1505C261.362 56.5317 261.628 56.6841 261.958 56.4901L263.788 55.4504C263.962 55.3376 264.107 55.186 264.21 55.0078C264.314 54.8296 264.373 54.6299 264.384 54.4247V50.2661L268.003 48.1868C268.178 48.0748 268.324 47.9235 268.428 47.7453C268.533 47.567 268.594 47.3669 268.606 47.1611Z" fill="#FAFAFA"/>
<path opacity="0.2" d="M249.515 61.9807C249.539 62.4448 249.674 62.8967 249.91 63.2991C250.145 63.7015 250.473 64.043 250.868 64.2956L252.004 64.9332C252.385 65.1244 252.803 65.2332 253.23 65.2523C253.657 65.2714 254.083 65.2005 254.479 65.0441C253.841 65.2798 253.358 64.9263 253.358 64.1639V45.797C253.371 45.3319 253.507 44.8782 253.75 44.4801L249.9 42.2969C249.66 42.6964 249.525 43.1492 249.508 43.6138L249.515 61.9807Z" fill="black"/>
<path opacity="0.3" d="M272.874 34.2074C272.713 33.6391 272.173 33.4588 271.563 33.8123L254.671 43.4463C254.271 43.6897 253.944 44.0343 253.724 44.4444L249.902 42.3027C250.125 41.8923 250.454 41.5479 250.856 41.3046L267.755 31.6637C268.175 31.4553 268.639 31.3467 269.109 31.3467C269.579 31.3467 270.042 31.4553 270.462 31.6637L271.563 32.2945C271.901 32.5095 272.191 32.7898 272.416 33.1185C272.642 33.4473 272.798 33.8176 272.874 34.2074Z" fill="white"/>
</svg>
