<svg width="88" height="77" viewBox="0 0 88 77" fill="none" xmlns="http://www.w3.org/2000/svg">
<path d="M11.5 43C11.5 61.2259 26.2741 76 44.5 76C62.7259 76 77.5 61.2259 77.5 43C77.5 24.7741 62.7259 10 44.5 10C26.2741 10 11.5 24.7741 11.5 43Z" stroke="#FDC70A" stroke-width="1.5" stroke-linecap="round" stroke-linejoin="round"/>
<path d="M47.803 10.1646C47.803 10.1646 57.703 23.1995 57.703 42.9995C57.703 62.7995 47.803 75.8346 47.803 75.8346M41.203 75.8346C41.203 75.8346 31.303 62.7995 31.303 42.9995C31.303 23.1995 41.203 10.1646 41.203 10.1646M13.582 54.5495H75.424M13.582 31.4495H75.424" stroke="#FDC70A" stroke-width="1.5" stroke-linecap="round" stroke-linejoin="round"/>
<path d="M78.95 5.5C80.975 5.5 83 3.475 83 1.45C83 3.475 85.025 5.5 87.05 5.5C85.025 5.5 83 7.525 83 9.55C83 7.525 80.975 5.5 78.95 5.5ZM78.5 8.875C78.8748 8.875 79.625 8.12485 79.625 7.75C79.625 8.12485 80.3751 8.875 80.75 8.875C80.3751 8.875 79.625 9.62515 79.625 10C79.625 9.62515 78.8748 8.875 78.5 8.875ZM84.8 2.35C85.25 2.35 86.15 1.45 86.15 1C86.15 1.45 87.05 2.35 87.5 2.35C87.05 2.35 86.15 3.25 86.15 3.7C86.15 3.25 85.25 2.35 84.8 2.35Z" stroke="#FDC70A" stroke-linecap="round" stroke-linejoin="round"/>
<path d="M4.71591 52.2354C4.85286 51.9215 5.32033 51.9215 5.45728 52.2354L5.65005 52.6758L6.14925 52.714C6.50507 52.7408 6.64965 53.164 6.37816 53.3853L5.99784 53.6954L6.11431 54.1595C6.19704 54.4902 5.81913 54.7516 5.51431 54.5743L5.0866 54.3258L4.65888 54.5743C4.35406 54.7516 3.97615 54.4902 4.05888 54.1595L4.17535 53.6954L3.79503 53.3853C3.52354 53.164 3.66772 52.7412 4.02394 52.7136L4.52354 52.6754L4.71591 52.2354ZM5.27897 52.8226L5.0866 52.3822L4.89382 52.8226C4.86551 52.8875 4.81898 52.9436 4.75933 52.985C4.69968 53.0263 4.62921 53.0512 4.55567 53.0569L4.05607 53.0952L4.43639 53.4048C4.49259 53.4506 4.53443 53.5102 4.55732 53.5771C4.58021 53.644 4.58325 53.7156 4.56611 53.7841L4.44965 54.2482L4.87736 53.9997C4.94037 53.9631 5.01277 53.9437 5.0866 53.9437C5.16042 53.9437 5.23282 53.9631 5.29583 53.9997L5.72354 54.2482L5.60708 53.7841C5.59002 53.7157 5.5931 53.6441 5.61598 53.5773C5.63887 53.5104 5.68067 53.4509 5.7368 53.4052L6.11712 53.0948L5.61792 53.0566C5.54428 53.051 5.47368 53.0262 5.41388 52.985C5.35408 52.9437 5.3074 52.8875 5.27897 52.8226ZM2.70788 54.5291C2.84482 54.2153 3.3123 54.2153 3.44924 54.5291L3.96049 55.699L5.287 55.7999C5.64322 55.827 5.7874 56.2502 5.51591 56.4716L4.50547 57.2954L4.81471 58.5279C4.89704 58.8586 4.51912 59.1201 4.2143 58.9427L3.07856 58.2825L1.94281 58.9427C1.63799 59.1201 1.26008 58.8586 1.34281 58.5279L1.65205 57.2954L0.640804 56.472C0.36972 56.2506 0.513896 55.8274 0.870122 55.8003L2.19663 55.6993L2.70788 54.5291ZM3.58981 55.8458L3.07856 54.6759L2.56772 55.8458C2.53929 55.9107 2.4926 55.9668 2.4328 56.0081C2.373 56.0494 2.3024 56.0742 2.22876 56.0797L0.902251 56.181L1.9131 57.0053C1.96922 57.051 2.01099 57.1106 2.0338 57.1775C2.05662 57.2445 2.0596 57.3161 2.04241 57.3845L1.73318 58.6166L2.86932 57.9564C2.93234 57.9198 3.00473 57.9004 3.07856 57.9004C3.15239 57.9004 3.22478 57.9198 3.2878 57.9564L4.42354 58.6166L4.11511 57.3845C4.09792 57.3161 4.1009 57.2445 4.12372 57.1775C4.14653 57.1106 4.1883 57.051 4.24443 57.0053L5.25487 56.181L3.92836 56.0797C3.85479 56.0741 3.78428 56.0493 3.72455 56.008C3.66483 55.9667 3.61821 55.9106 3.58981 55.8458ZM7.27656 54.4798C7.26039 54.4469 7.23469 54.419 7.20246 54.3995C7.17024 54.38 7.13283 54.3696 7.09463 54.3696C7.05643 54.3696 7.01903 54.38 6.9868 54.3995C6.95458 54.419 6.92887 54.4469 6.9127 54.4798L6.56009 55.1985L5.80507 55.5342C5.77046 55.5496 5.74118 55.5741 5.72067 55.6047C5.70016 55.6354 5.68926 55.671 5.68926 55.7074C5.68926 55.7437 5.70016 55.7793 5.72067 55.81C5.74118 55.8407 5.77046 55.8652 5.80507 55.8805L6.56009 56.2162L6.9127 56.9349C6.92887 56.9679 6.95458 56.9957 6.9868 57.0152C7.01903 57.0348 7.05643 57.0451 7.09463 57.0451C7.13283 57.0451 7.17024 57.0348 7.20246 57.0152C7.23469 56.9957 7.26039 56.9679 7.27656 56.9349L7.62917 56.2162L8.38419 55.8805C8.4188 55.8652 8.44808 55.8407 8.46859 55.81C8.4891 55.7793 8.5 55.7437 8.5 55.7074C8.5 55.671 8.4891 55.6354 8.46859 55.6047C8.44808 55.5741 8.4188 55.5496 8.38419 55.5342L7.62917 55.1985L7.27656 54.4798ZM6.89343 55.4233L7.09463 55.0124L7.29624 55.4233C7.31609 55.464 7.35036 55.4968 7.39303 55.5158L7.82475 55.7074L7.39303 55.8993C7.35042 55.9183 7.31617 55.9509 7.29624 55.9914L7.09463 56.4024L6.89302 55.9914C6.87317 55.9507 6.83891 55.918 6.79624 55.8989L6.36451 55.7074L6.79624 55.5155C6.83884 55.4965 6.87309 55.4639 6.89302 55.4233" fill="#FDC70A"/>
</svg>
