<svg width="227" height="226" viewBox="0 0 227 226" fill="none" xmlns="http://www.w3.org/2000/svg">
<path d="M12.276 113.484C14.536 132.563 23.2416 154.747 40.639 164.935C66.9454 180.348 64.7261 204.024 116.033 214.321C123.516 215.858 131.143 216.578 138.782 216.468C142.519 216.404 146.248 216.102 149.946 215.564C182.558 210.8 204.503 188.132 212.553 160.768C223.148 124.784 201.994 101.226 187.973 87.033C173.952 72.8402 163.673 28.6075 113.316 18.0804C105.635 16.4458 97.7905 15.7011 89.9387 15.8611C72.0169 16.3131 52.4769 22.1891 38.9531 34.4654C37.9376 35.3875 36.9492 36.3427 35.9879 37.3311C17.1893 56.6269 9.20243 87.476 12.276 113.484Z" fill="#A2BDFF"/>
<path opacity="0.7" d="M12.276 113.484C14.536 132.563 23.2416 154.747 40.639 164.935C66.9454 180.348 64.7261 204.024 116.033 214.321C123.516 215.858 131.143 216.578 138.782 216.468C142.519 216.404 146.248 216.102 149.946 215.564C182.558 210.8 204.503 188.132 212.553 160.768C223.148 124.784 201.994 101.226 187.973 87.033C173.952 72.8402 163.673 28.6075 113.316 18.0804C105.635 16.4458 97.7905 15.7011 89.9387 15.8611C72.0169 16.3131 52.4769 22.1891 38.9531 34.4654C37.9376 35.3875 36.9492 36.3427 35.9879 37.3311C17.1893 56.6269 9.20243 87.476 12.276 113.484Z" fill="white"/>
<path d="M24.2832 109.809V116.367" stroke="#263238" stroke-miterlimit="10"/>
<path d="M27.5605 113.086H21.002" stroke="#263238" stroke-miterlimit="10"/>
<path d="M173.457 168.36V172.406" stroke="#263238" stroke-miterlimit="10"/>
<path d="M175.478 170.381H171.438" stroke="#263238" stroke-miterlimit="10"/>
<path d="M194.822 31.4814V35.5268" stroke="#263238" stroke-miterlimit="10"/>
<path d="M196.848 33.5068H192.803" stroke="#263238" stroke-miterlimit="10"/>
<path d="M140.457 196.584V200.629" stroke="#263238" stroke-miterlimit="10"/>
<path d="M142.481 198.608H138.436" stroke="#263238" stroke-miterlimit="10"/>
<path d="M192.256 187.57V197.383" stroke="#263238" stroke-miterlimit="10"/>
<path d="M197.164 192.475H187.352" stroke="#263238" stroke-miterlimit="10"/>
<path d="M42.2461 46.3525V56.17" stroke="#263238" stroke-miterlimit="10"/>
<path d="M47.1553 51.2607H37.3379" stroke="#263238" stroke-miterlimit="10"/>
<path d="M26.489 78.806C26.489 79.1565 26.3851 79.499 26.1904 79.7904C25.9957 80.0818 25.719 80.3089 25.3952 80.443C25.0714 80.5771 24.7152 80.6122 24.3715 80.5438C24.0278 80.4754 23.7121 80.3067 23.4643 80.0589C23.2165 79.8111 23.0477 79.4954 22.9794 79.1517C22.911 78.808 22.9461 78.4517 23.0802 78.128C23.2143 77.8042 23.4414 77.5275 23.7328 77.3328C24.0241 77.1381 24.3667 77.0342 24.7172 77.0342C25.1871 77.0342 25.6377 77.2209 25.97 77.5531C26.3023 77.8854 26.489 78.3361 26.489 78.806Z" stroke="#263238" stroke-miterlimit="10"/>
<path d="M201.364 181.703C201.364 181.946 201.292 182.183 201.157 182.384C201.023 182.585 200.832 182.742 200.608 182.835C200.384 182.928 200.138 182.952 199.9 182.905C199.662 182.858 199.444 182.741 199.273 182.57C199.102 182.398 198.985 182.18 198.938 181.942C198.89 181.705 198.915 181.458 199.007 181.235C199.1 181.011 199.257 180.82 199.458 180.685C199.66 180.55 199.897 180.479 200.139 180.479C200.464 180.479 200.775 180.608 201.005 180.837C201.235 181.067 201.364 181.379 201.364 181.703Z" stroke="#263238" stroke-miterlimit="10"/>
<path d="M156.728 190.138C156.729 190.381 156.658 190.619 156.523 190.822C156.389 191.025 156.197 191.183 155.973 191.277C155.748 191.371 155.501 191.396 155.262 191.349C155.023 191.302 154.804 191.185 154.631 191.013C154.459 190.842 154.341 190.623 154.293 190.384C154.246 190.145 154.27 189.898 154.363 189.673C154.456 189.448 154.613 189.256 154.815 189.121C155.018 188.985 155.256 188.913 155.499 188.913C155.66 188.912 155.82 188.944 155.969 189.005C156.118 189.066 156.254 189.156 156.368 189.27C156.482 189.384 156.573 189.519 156.635 189.668C156.697 189.817 156.728 189.977 156.728 190.138Z" stroke="#263238" stroke-miterlimit="10"/>
<path d="M31.2349 87.6079C32.1165 85.6286 31.2267 83.3093 29.2474 82.4276C27.2681 81.546 24.9488 82.4358 24.0671 84.4151C23.1854 86.3945 24.0753 88.7138 26.0546 89.5954C28.0339 90.4771 30.3532 89.5873 31.2349 87.6079Z" stroke="#263238" stroke-miterlimit="10"/>
<path d="M207.041 120.616C209.207 120.616 210.964 118.86 210.964 116.693C210.964 114.526 209.207 112.77 207.041 112.77C204.874 112.77 203.117 114.526 203.117 116.693C203.117 118.86 204.874 120.616 207.041 120.616Z" stroke="#263238" stroke-miterlimit="10"/>
<path d="M85.4778 37.4473C85.9737 35.338 84.6657 33.226 82.5564 32.7301C80.4471 32.2342 78.3352 33.5422 77.8393 35.6515C77.3434 37.7608 78.6513 39.8727 80.7606 40.3686C82.8699 40.8645 84.9819 39.5566 85.4778 37.4473Z" stroke="#263238" stroke-miterlimit="10"/>
<path d="M77.6382 58.0771C53.3703 58.0771 33.627 77.4092 33.627 101.166V125.335H46.1519V101.166C46.1519 84.1801 60.2678 70.358 77.6201 70.358C94.9724 70.358 109.084 84.1801 109.084 101.166V125.335H121.636V101.166C121.636 77.4092 101.902 58.0771 77.6382 58.0771Z" stroke="#263238" stroke-miterlimit="10"/>
<path d="M125.063 191.11V125.335H63.5907M59.4233 125.335H28.9766V204.824H125.072V195.87M81.5216 167.357L83.2798 185.415H69.8193L71.5776 167.357C69.9266 166.499 68.5418 165.206 67.573 163.617C66.6042 162.029 66.0883 160.205 66.0812 158.345C66.1381 155.608 67.2653 153.002 69.221 151.086C71.1768 149.171 73.8053 148.098 76.5428 148.098C79.2803 148.098 81.9088 149.171 83.8645 151.086C85.8202 153.002 86.9474 155.608 87.0043 158.345C86.9972 160.205 86.4818 162.027 85.5139 163.616C84.546 165.204 83.1623 166.498 81.5125 167.357H81.5216Z" stroke="#263238" stroke-miterlimit="10"/>
<path d="M81.5133 167.357L83.2716 185.414H69.8201L71.5784 167.357C69.9274 166.499 68.5426 165.205 67.5738 163.617C66.605 162.028 66.0891 160.205 66.082 158.344C66.1389 155.607 67.2661 153.001 69.2218 151.086C71.1776 149.17 73.8061 148.098 76.5436 148.098C79.2811 148.098 81.9096 149.17 83.8653 151.086C85.821 153.001 86.9482 155.607 87.0051 158.344C86.998 160.204 86.4826 162.027 85.5147 163.615C84.5468 165.204 83.1631 166.498 81.5133 167.357Z" stroke="#263238" stroke-miterlimit="10"/>
<path d="M81.5133 167.357L83.2716 185.414H69.8201L71.5784 167.357C69.9274 166.499 68.5426 165.205 67.5738 163.617C66.605 162.028 66.0891 160.205 66.082 158.344C66.1389 155.607 67.2661 153.001 69.2218 151.086C71.1776 149.17 73.8061 148.098 76.5436 148.098C79.2811 148.098 81.9096 149.17 83.8653 151.086C85.821 153.001 86.9482 155.607 87.0051 158.344C86.998 160.204 86.4826 162.027 85.5147 163.615C84.5468 165.204 83.1631 166.498 81.5133 167.357Z" stroke="#263238" stroke-miterlimit="10"/>
<path d="M99.8828 42.9668H206.84V169.626C206.84 170.751 206.393 171.829 205.598 172.624C204.803 173.419 203.724 173.866 202.6 173.866H104.127C103.003 173.866 101.924 173.419 101.129 172.624C100.334 171.829 99.8873 170.751 99.8873 169.626V42.9668H99.8828Z" fill="#263238" stroke="#263238" stroke-linecap="round" stroke-linejoin="round"/>
<path d="M97.6445 41.0098H204.601V167.669C204.601 168.794 204.155 169.872 203.359 170.667C202.564 171.462 201.486 171.909 200.362 171.909H101.889C100.764 171.909 99.686 171.462 98.8908 170.667C98.0957 169.872 97.649 168.794 97.649 167.669V41.0098H97.6445Z" fill="white" stroke="#263238" stroke-miterlimit="10"/>
<path d="M200.438 41.0098V171.909H200.663C201.708 171.909 202.709 171.494 203.447 170.756C204.186 170.018 204.6 169.016 204.6 167.972V41.0098H200.438Z" fill="white" stroke="#263238" stroke-miterlimit="10"/>
<path d="M204.6 75.8594H200.438V102.893H204.6V75.8594Z" fill="white" stroke="#263238" stroke-miterlimit="10"/>
<path d="M204.601 41.0098H97.6445V50.2667H204.601V41.0098Z" fill="#263238" stroke="#263238" stroke-miterlimit="10"/>
<path d="M192.886 45.7328C192.887 45.4698 192.81 45.2124 192.665 44.9933C192.519 44.7742 192.312 44.6031 192.069 44.5019C191.826 44.4006 191.559 44.3736 191.301 44.4244C191.043 44.4752 190.806 44.6014 190.619 44.787C190.433 44.9727 190.306 45.2095 190.254 45.4674C190.203 45.7253 190.229 45.9927 190.329 46.2358C190.43 46.4789 190.6 46.6867 190.819 46.8329C191.037 46.9791 191.294 47.0572 191.557 47.0572C191.909 47.0572 192.246 46.9178 192.495 46.6696C192.745 46.4213 192.885 46.0845 192.886 45.7328Z" fill="white" stroke="#263238" stroke-miterlimit="10"/>
<path d="M195.725 47.0579C196.456 47.0579 197.049 46.465 197.049 45.7335C197.049 45.0021 196.456 44.4092 195.725 44.4092C194.993 44.4092 194.4 45.0021 194.4 45.7335C194.4 46.465 194.993 47.0579 195.725 47.0579Z" fill="white" stroke="#263238" stroke-miterlimit="10"/>
<path d="M199.891 47.0579C200.622 47.0579 201.215 46.465 201.215 45.7335C201.215 45.0021 200.622 44.4092 199.891 44.4092C199.159 44.4092 198.566 45.0021 198.566 45.7335C198.566 46.465 199.159 47.0579 199.891 47.0579Z" fill="white" stroke="#263238" stroke-miterlimit="10"/>
<path d="M145.959 144.464C136.174 138.588 128.462 131.473 123.048 123.328C118.898 117.086 117.624 112.453 117.402 111.576L117.131 110.482V68.8757L150.705 54.5156L184.28 68.8757V110.496L184.004 111.59C183.792 112.453 182.513 117.086 178.359 123.342C172.935 131.478 165.251 138.597 155.451 144.477L150.705 147.325L145.959 144.464Z" fill="#CFCFCF" stroke="white" stroke-linecap="round" stroke-linejoin="round"/>
<path d="M148.331 140.509C126.251 127.252 122.043 111.156 121.876 110.478L121.74 109.931V71.918L150.704 59.5332L179.669 71.918V109.931L179.533 110.478C179.366 111.156 175.153 127.252 153.077 140.509L150.704 141.928L148.331 140.509Z" fill="white"/>
<path d="M150.704 64.6992L126.346 74.7517V109.384C126.346 109.384 130.011 124.146 150.704 136.572C171.397 124.133 175.058 109.384 175.058 109.384V74.7517L150.704 64.6992Z" fill="#A2BDFF"/>
<path d="M162.65 106.408C169.384 99.6739 169.384 88.7558 162.65 82.0216C155.916 75.2875 144.998 75.2875 138.264 82.0216C131.529 88.7558 131.529 99.6739 138.264 106.408C144.998 113.142 155.916 113.142 162.65 106.408Z" fill="white"/>
<path d="M156.895 89.7039C157.783 86.151 155.623 82.5511 152.07 81.6633C148.517 80.7755 144.917 82.936 144.029 86.4888C143.142 90.0417 145.302 93.6416 148.855 94.5294C152.408 95.4172 156.008 93.2567 156.895 89.7039Z" fill="#263238"/>
<path d="M150.457 111.458C154.882 111.465 159.139 109.763 162.34 106.708C161.994 103.799 160.594 101.119 158.404 99.1743C156.215 97.2294 153.388 96.1553 150.459 96.1553C147.53 96.1553 144.703 97.2294 142.514 99.1743C140.324 101.119 138.924 103.799 138.578 106.708C141.778 109.762 146.033 111.463 150.457 111.458Z" fill="#263238"/>
<path opacity="0.19" d="M155.451 144.464C165.237 138.588 172.943 131.473 178.358 123.328C182.512 117.086 183.782 112.453 184.004 111.576L184.28 110.482V68.8757L150.705 54.5156V147.311L155.451 144.464Z" fill="black"/>
<path d="M109.938 164.026V152.807H112.722C113.283 152.78 113.841 152.907 114.335 153.173C114.735 153.423 115.043 153.796 115.212 154.236C115.409 154.772 115.503 155.341 115.488 155.912C115.5 156.442 115.394 156.967 115.176 157.449C114.986 157.87 114.67 158.22 114.272 158.453C113.805 158.703 113.279 158.824 112.749 158.805H111.515V164.026H109.938ZM111.501 157.698H112.22C112.582 157.71 112.943 157.658 113.287 157.544C113.411 157.498 113.524 157.426 113.62 157.335C113.715 157.243 113.791 157.133 113.843 157.011C113.968 156.668 114.025 156.304 114.01 155.94C114.022 155.525 113.983 155.11 113.892 154.706C113.86 154.576 113.798 154.455 113.713 154.352C113.628 154.249 113.521 154.166 113.4 154.109C113.025 153.979 112.63 153.922 112.234 153.942H111.501V157.698Z" fill="#263238"/>
<path d="M116.582 164.026V152.807H118.842C119.473 152.788 120.102 152.889 120.695 153.105C121.162 153.283 121.549 153.623 121.785 154.064C122.041 154.6 122.162 155.191 122.137 155.786C122.142 156.185 122.095 156.583 121.997 156.97C121.916 157.301 121.762 157.611 121.545 157.874C121.333 158.123 121.056 158.307 120.745 158.407L122.336 164.03H120.826L119.375 158.764H118.16V164.026H116.582ZM118.15 157.643H118.743C119.11 157.654 119.476 157.598 119.823 157.476C120.093 157.373 120.311 157.168 120.433 156.907C120.58 156.552 120.646 156.169 120.627 155.786C120.67 155.285 120.543 154.785 120.266 154.366C120.026 154.077 119.552 153.914 118.842 153.914H118.15V157.643Z" fill="#263238"/>
<path d="M123.855 164.026V152.808H125.392V164.026H123.855Z" fill="#263238"/>
<path d="M129.156 164.026L126.652 152.808H128.117L129.893 161.075L131.579 152.808H133.007L130.53 164.026H129.156Z" fill="#263238"/>
<path d="M133.201 164.026L135.583 152.808H137.093L139.488 164.026H138.006L137.495 161.201H135.194L134.657 164.026H133.201ZM135.416 160.08H137.287L136.343 155.036L135.416 160.08Z" fill="#263238"/>
<path d="M143.382 164.148C142.728 164.19 142.078 164.015 141.533 163.651C141.092 163.309 140.775 162.833 140.629 162.295C140.454 161.682 140.369 161.047 140.376 160.41V156.451C140.365 155.782 140.45 155.115 140.629 154.471C140.773 153.944 141.092 153.482 141.533 153.16C142.088 152.823 142.734 152.665 143.382 152.708C143.963 152.677 144.542 152.812 145.05 153.097C145.468 153.353 145.786 153.743 145.954 154.204C146.147 154.76 146.239 155.347 146.225 155.935V156.839H144.742V156.048C144.744 155.681 144.723 155.314 144.679 154.95C144.658 154.67 144.538 154.407 144.34 154.209C144.076 154.006 143.745 153.911 143.413 153.942C143.065 153.912 142.718 154.014 142.442 154.227C142.223 154.443 142.084 154.726 142.048 155.031C141.985 155.432 141.954 155.837 141.958 156.243V160.686C141.942 161.142 141.99 161.598 142.098 162.042C142.157 162.323 142.318 162.573 142.55 162.742C142.811 162.892 143.109 162.964 143.409 162.95C143.571 162.965 143.734 162.947 143.889 162.898C144.044 162.849 144.188 162.77 144.313 162.666C144.509 162.449 144.629 162.174 144.656 161.884C144.709 161.499 144.733 161.11 144.729 160.722V159.89H146.211V160.722C146.222 161.334 146.136 161.944 145.958 162.53C145.817 163.02 145.516 163.45 145.104 163.75C144.584 164.057 143.983 164.196 143.382 164.148Z" fill="#263238"/>
<path d="M149.415 164.026V160.067L146.992 152.808H148.448L150.165 158.232L151.856 152.808H153.32L150.911 160.067V164.026H149.415Z" fill="#263238"/>
<path d="M157.533 164.026V152.808H160.313C160.874 152.78 161.432 152.906 161.927 153.174C162.329 153.422 162.639 153.795 162.808 154.236C163.005 154.772 163.099 155.341 163.084 155.913C163.096 156.442 162.99 156.967 162.772 157.45C162.58 157.868 162.264 158.218 161.868 158.453C161.4 158.702 160.875 158.824 160.345 158.806H159.111V164.026H157.533ZM159.097 157.698H159.816C160.178 157.711 160.539 157.659 160.883 157.544C161.007 157.498 161.12 157.427 161.215 157.335C161.311 157.243 161.387 157.133 161.438 157.011C161.562 156.668 161.617 156.304 161.601 155.94C161.616 155.525 161.576 155.11 161.484 154.706C161.454 154.575 161.395 154.454 161.31 154.35C161.225 154.247 161.118 154.164 160.996 154.109C160.621 153.98 160.225 153.923 159.829 153.942H159.097V157.698Z" fill="#263238"/>
<path d="M167.043 164.149C166.409 164.178 165.781 164.021 165.235 163.697C164.777 163.398 164.436 162.951 164.268 162.431C164.061 161.809 163.962 161.156 163.974 160.501V156.257C163.959 155.61 164.06 154.965 164.272 154.354C164.45 153.85 164.793 153.42 165.244 153.133C165.796 152.827 166.422 152.681 167.052 152.713C167.684 152.678 168.312 152.827 168.86 153.142C169.306 153.431 169.644 153.858 169.823 154.358C170.033 154.969 170.133 155.611 170.117 156.257V160.524C170.131 161.173 170.031 161.82 169.823 162.435C169.647 162.95 169.309 163.394 168.86 163.701C168.313 164.029 167.68 164.185 167.043 164.149ZM167.043 162.919C167.378 162.943 167.711 162.852 167.988 162.661C168.207 162.476 168.358 162.224 168.417 161.943C168.494 161.585 168.531 161.22 168.526 160.853V155.94C168.531 155.579 168.495 155.218 168.417 154.864C168.358 154.591 168.206 154.347 167.988 154.173C167.699 154.013 167.374 153.929 167.043 153.929C166.713 153.929 166.388 154.013 166.098 154.173C165.868 154.34 165.707 154.586 165.646 154.864C165.569 155.218 165.532 155.579 165.538 155.94V160.853C165.533 161.22 165.569 161.585 165.646 161.943C165.707 162.228 165.867 162.483 166.098 162.661C166.375 162.852 166.708 162.943 167.043 162.919Z" fill="#263238"/>
<path d="M171.641 164.026V152.808H173.209V162.905H176.075V164.026H171.641Z" fill="#263238"/>
<path d="M177.23 164.026V152.808H178.767V164.026H177.23Z" fill="#263238"/>
<path d="M183.388 164.148C182.734 164.19 182.084 164.015 181.539 163.651C181.098 163.309 180.781 162.833 180.635 162.295C180.458 161.683 180.373 161.047 180.382 160.41V156.451C180.369 155.782 180.455 155.115 180.635 154.471C180.78 153.944 181.098 153.482 181.539 153.16C182.094 152.823 182.74 152.665 183.388 152.708C183.969 152.677 184.548 152.812 185.056 153.097C185.474 153.353 185.793 153.743 185.96 154.204C186.153 154.76 186.245 155.347 186.231 155.935V156.839H184.748V156.048C184.751 155.681 184.729 155.314 184.685 154.95C184.664 154.67 184.544 154.407 184.346 154.209C184.082 154.006 183.751 153.911 183.42 153.942C183.071 153.912 182.725 154.014 182.448 154.227C182.229 154.443 182.091 154.726 182.055 155.031C181.991 155.432 181.961 155.837 181.964 156.243V160.686C181.949 161.142 181.996 161.598 182.104 162.042C182.163 162.323 182.324 162.573 182.556 162.742C182.817 162.892 183.115 162.964 183.415 162.95C183.577 162.965 183.74 162.947 183.895 162.898C184.051 162.849 184.195 162.77 184.319 162.666C184.515 162.449 184.635 162.174 184.663 161.884C184.715 161.499 184.739 161.11 184.735 160.722V159.89H186.217V160.722C186.228 161.334 186.142 161.944 185.964 162.53C185.825 163.022 185.522 163.453 185.106 163.75C184.588 164.058 183.988 164.197 183.388 164.148Z" fill="#263238"/>
<path d="M189.434 164.026V160.067L187.012 152.808H188.467L190.185 158.232L191.871 152.808H193.34L190.931 160.067V164.026H189.434Z" fill="#263238"/>
</svg>
