<svg width="19" height="19" viewBox="0 0 19 19" fill="none" xmlns="http://www.w3.org/2000/svg">
<path d="M13.0669 0.589964C13.4448 0.21221 13.9572 0 14.4915 0C15.0258 0 15.5382 0.21221 15.9161 0.589964L18.4095 3.08353C18.5967 3.27065 18.7452 3.49281 18.8465 3.73734C18.9479 3.98186 19 4.24395 19 4.50863C19 4.77332 18.9479 5.03541 18.8465 5.27993C18.7452 5.52445 18.5967 5.74662 18.4095 5.93374L6.42768 17.9159L0 19L1.08505 12.5722L13.0669 0.589964ZM12.8362 3.66989L15.3297 6.16345L16.985 4.50813L14.4915 2.01558L12.8362 3.66989ZM13.9041 7.58906L11.4116 5.0955L2.96499 13.5424L2.45823 16.5417L5.45748 16.0359L13.9041 7.58906Z" fill="#FDC70A"/>
</svg>
