<svg width="162" height="329" viewBox="0 0 162 329" fill="none" xmlns="http://www.w3.org/2000/svg">
<path d="M45.5187 328.225H0L3.44099 288.377L45.5187 288.048V328.225Z" fill="#A2BDFF"/>
<g opacity="0.4">
<path d="M45.5187 328.225H0L3.44099 288.377L45.5187 288.048V328.225Z" fill="#A3705F"/>
</g>
<path d="M52.1554 288.048H6.63672V328.218H52.1554V288.048Z" fill="#A2BDFF"/>
<g opacity="0.2">
<path d="M52.1593 288.048H6.64062V328.218H52.1593V288.048Z" fill="#A3705F"/>
</g>
<path d="M52.5379 307.5C52.5379 307.6 42.2983 307.686 29.6714 307.686C17.0445 307.686 6.79297 307.6 6.79297 307.5C6.79297 307.4 17.0326 307.307 29.6714 307.307C42.3102 307.307 52.5379 307.393 52.5379 307.5Z" fill="black"/>
<path d="M14.7486 311.366C14.5421 309.366 14.5421 307.344 14.7486 305.345C14.955 307.344 14.955 309.366 14.7486 311.366Z" fill="black"/>
<path d="M46.3969 311.151C46.1906 309.367 46.1906 307.558 46.3969 305.774C46.6033 307.558 46.6033 309.367 46.3969 311.151Z" fill="black"/>
<path d="M36.3705 288.256C36.3705 288.256 36.3705 287.819 36.2634 287.068C36.1047 286.002 35.7597 284.99 35.2513 284.096C34.501 282.771 33.4606 281.72 32.2449 281.061C30.7469 280.268 29.1177 279.898 27.4823 279.98C25.8372 279.996 24.2137 280.433 22.7197 281.261C21.5103 281.941 20.4638 282.978 19.6776 284.275C19.1506 285.152 18.7723 286.144 18.5643 287.196C18.4214 287.948 18.4155 288.378 18.3857 288.378C18.3766 288.273 18.3766 288.167 18.3857 288.063C18.3865 287.762 18.4105 287.463 18.4572 287.168C18.6241 286.075 18.9833 285.037 19.5109 284.125C20.2956 282.762 21.3627 281.669 22.6066 280.954C24.1239 280.088 25.7793 279.629 27.4585 279.608C29.1398 279.524 30.814 279.916 32.3461 280.753C33.5976 281.453 34.6601 282.562 35.4121 283.953C35.9214 284.883 36.2453 285.941 36.3586 287.046C36.3805 287.344 36.3805 287.643 36.3586 287.941C36.3776 288.044 36.3816 288.151 36.3705 288.256Z" fill="black"/>
<path d="M124.024 31.0703C124.473 31.0703 130.545 32.0339 130.545 32.0339L138.76 41.8751L139.997 43.7391L128.917 50.4762L124.024 43.589L119.871 41.0221C120.489 40.573 121.226 40.2948 122 40.2182C122.774 40.1415 123.555 40.2694 124.257 40.5877C125.894 41.2423 127.656 41.5703 129.432 41.5513L127.97 37.6021L123.468 36.7491L124.024 31.0703Z" fill="#EB996E"/>
<path d="M124.537 24.1829C124.709 24.14 124.889 24.1321 125.065 24.1596C125.24 24.187 125.408 24.2493 125.557 24.3424C125.706 24.4355 125.832 24.5573 125.928 24.6999C126.025 24.8425 126.088 25.0028 126.115 25.1702C126.788 29.2062 128.823 41.3537 129.437 44.9158C129.489 45.1994 129.428 45.4911 129.265 45.7337C129.102 45.9764 128.849 46.1522 128.557 46.2269L118.78 48.8254C118.612 48.8711 118.435 48.8815 118.261 48.8559C118.088 48.8302 117.922 48.7691 117.776 48.6767C117.63 48.5844 117.507 48.463 117.415 48.3209C117.323 48.1789 117.265 48.0195 117.244 47.8539L114.569 27.6897C114.529 27.3947 114.604 27.0959 114.78 26.8499C114.956 26.6039 115.221 26.4278 115.524 26.3549L124.537 24.1829Z" fill="black"/>
<path d="M117.974 46.3373L127.942 43.6914L125.3 26.9156C125.265 26.6896 125.18 26.4733 125.051 26.2808C124.921 26.0883 124.751 25.924 124.55 25.7987C124.349 25.6733 124.123 25.5898 123.886 25.5537C123.648 25.5175 123.406 25.5294 123.174 25.5887L115.191 27.6027L117.974 46.3373Z" fill="#EBEBEB"/>
<path d="M127.735 34.0635L123.258 37.2228C123.258 37.2228 123.632 38.3443 124.313 38.4233C125.764 38.2429 127.197 37.9524 128.599 37.5545L127.735 34.0635Z" fill="#EB996E"/>
<path d="M127.196 31.5137L122.503 33.4724C122.503 33.4724 122.204 34.9257 123.957 34.7203L122.387 35.7945C122.387 35.7945 122.777 36.4422 124.737 36.5211C126.698 36.6001 128.6 34.0095 128.6 34.0095L127.196 31.5137Z" fill="#EB996E"/>
<path d="M131.856 36.4806C131.856 36.5359 131.283 36.4332 130.66 35.8803C130.317 35.5748 129.957 35.2874 129.58 35.0194C129.369 34.8715 129.121 34.7779 128.861 34.7474C128.6 34.717 128.336 34.7508 128.094 34.8457C126.791 35.5591 125.43 36.1719 124.023 36.678C125.238 35.8006 126.554 35.0561 127.944 34.4586C128.262 34.3354 128.61 34.2972 128.949 34.3481C129.249 34.4151 129.531 34.5387 129.78 34.7114C130.169 34.9964 130.525 35.3194 130.843 35.675C131.161 35.9656 131.499 36.2347 131.856 36.4806Z" fill="#C27D5F"/>
<path d="M130.934 47.6021C130.13 46.6782 129.63 45.5492 129.497 44.3565C129.364 43.1637 129.604 41.9602 130.186 40.8965C129.959 42.0201 129.873 43.1655 129.929 44.3085C130.124 45.4406 130.462 46.5464 130.934 47.6021Z" fill="#C27D5F"/>
<path d="M130.352 33.4795C130.294 33.5269 130.045 33.1872 129.447 33.0056C128.647 32.7932 127.791 32.8868 127.063 33.2662C126.182 33.669 125.402 34.1824 124.779 34.4273C124.156 34.6721 123.715 34.7274 123.707 34.68C123.699 34.6326 124.073 34.4905 124.637 34.1666C125.202 33.8428 125.933 33.3215 126.888 32.895C127.339 32.6805 127.831 32.5542 128.334 32.5238C128.753 32.5004 129.172 32.5735 129.555 32.737C130.178 33.0293 130.352 33.4637 130.352 33.4795Z" fill="#C27D5F"/>
<path d="M129.961 61.4629L154.373 76.3668L147.903 93.9641C147.903 93.9641 131.199 89.0593 131.506 88.5459C131.813 88.0325 129.961 61.4629 129.961 61.4629Z" fill="#A2BDFF"/>
<path d="M123.65 299.658L119.804 316.473C119.804 316.473 136.492 325.832 136.101 328.999L101.547 323.092L106.398 296.656L123.65 299.658Z" fill="black"/>
<path d="M101.547 323.092L102.145 320.446L135.055 327.104C135.055 327.104 136.467 328.005 136.101 329L101.547 323.092Z" fill="#455A64"/>
<path d="M84.3433 301.506L83.7701 318.7C83.7701 318.7 101.969 325.019 102.185 328.218L67.0744 328.368L66.8086 301.514L84.3433 301.506Z" fill="black"/>
<g opacity="0.6">
<path d="M67.0742 328.368L67.1573 325.659L100.79 326.536C100.79 326.536 102.36 327.176 102.185 328.218L67.0742 328.368Z" fill="#455A64"/>
</g>
<path d="M89.4365 19.4917L93.0165 58.9828L113.782 57.4031C113.907 55.0968 113.733 46.1719 113.733 46.1719C113.733 46.1719 122.379 44.8923 122.487 36.694C122.537 32.6975 121.939 24.4518 121.308 17.0195C120.982 13.052 119.034 9.36381 115.882 6.74594C112.73 4.12808 108.624 2.78903 104.446 3.01599C102.313 3.13421 100.226 3.65757 98.3093 4.55517C96.3924 5.45277 94.684 6.70642 93.2849 8.24213C91.8858 9.77784 90.8245 11.5645 90.1635 13.4966C89.5026 15.4287 89.2554 17.4672 89.4365 19.4917Z" fill="#EB996E"/>
<path d="M113.74 46.0233C109.748 46.0922 105.825 45.031 102.469 42.9746C102.469 42.9746 105.135 48.8904 113.757 48.1479L113.74 46.0233Z" fill="#C27D5F"/>
<path d="M117.979 22.7621C117.981 23.0688 117.857 23.3643 117.634 23.5856C117.411 23.8069 117.105 23.9365 116.783 23.9468C116.626 23.9586 116.468 23.9404 116.318 23.8933C116.169 23.8462 116.031 23.7711 115.912 23.6724C115.794 23.5738 115.698 23.4536 115.629 23.319C115.56 23.1843 115.52 23.0379 115.512 22.8884C115.509 22.583 115.632 22.2886 115.854 22.0675C116.075 21.8465 116.379 21.716 116.7 21.7037C116.857 21.6919 117.015 21.71 117.165 21.757C117.315 21.8041 117.454 21.8791 117.573 21.9776C117.692 22.0761 117.789 22.1963 117.859 22.331C117.929 22.4657 117.969 22.6122 117.979 22.7621Z" fill="black"/>
<path d="M119.472 21.1032C119.322 21.2612 118.384 20.5978 117.055 20.6057C115.726 20.6135 114.754 21.2375 114.613 21.0874C114.471 20.9374 114.696 20.7399 115.119 20.4477C115.695 20.0698 116.38 19.8686 117.079 19.8711C117.772 19.8688 118.447 20.0763 119.007 20.4635C119.414 20.7557 119.555 21.0401 119.472 21.1032Z" fill="black"/>
<path d="M105.221 22.7624C105.225 23.0685 105.104 23.364 104.881 23.5855C104.659 23.807 104.355 23.9369 104.033 23.9472C103.876 23.959 103.717 23.9409 103.567 23.8938C103.418 23.8468 103.279 23.7718 103.16 23.6733C103.041 23.5747 102.944 23.4546 102.874 23.3199C102.804 23.1852 102.763 23.0387 102.754 22.8888C102.754 22.5826 102.878 22.2883 103.101 22.0674C103.324 21.8465 103.628 21.7163 103.95 21.7041C104.107 21.6934 104.264 21.7123 104.413 21.7598C104.562 21.8074 104.7 21.8825 104.818 21.981C104.936 22.0794 105.033 22.1992 105.102 22.3333C105.171 22.4674 105.211 22.6133 105.221 22.7624Z" fill="black"/>
<path d="M106.413 21.3408C106.264 21.4909 105.325 20.8353 103.996 20.8432C102.667 20.8511 101.695 21.4751 101.554 21.3171C101.413 21.1592 101.637 20.9775 102.061 20.6853C102.634 20.3012 103.32 20.0994 104.021 20.1087C104.714 20.1036 105.39 20.3113 105.948 20.7011C106.355 20.9933 106.488 21.2697 106.413 21.3408Z" fill="black"/>
<path d="M111.246 30.7075C111.947 30.4995 112.673 30.3748 113.406 30.3363C113.738 30.3363 114.062 30.2416 114.12 30.0204C114.147 29.6877 114.069 29.3549 113.896 29.0647C113.572 28.2749 113.24 27.4851 112.891 26.6084C111.495 23.1095 110.49 20.2345 110.64 20.1871C110.789 20.1397 112.035 22.9278 113.431 26.4188C113.763 27.2876 114.087 28.109 114.386 28.891C114.6 29.2817 114.665 29.7314 114.569 30.1626C114.519 30.2768 114.443 30.3785 114.345 30.4594C114.246 30.5404 114.13 30.5983 114.004 30.6286C113.817 30.6786 113.625 30.7051 113.431 30.7075C112.706 30.7978 111.971 30.7978 111.246 30.7075Z" fill="black"/>
<path d="M107.326 31.5841C107.542 31.5841 107.542 32.9426 108.78 33.9536C110.018 34.9646 111.546 34.7434 111.563 34.9725C111.579 35.2015 111.222 35.2331 110.566 35.2489C109.72 35.2537 108.899 34.974 108.248 34.4591C107.604 33.9724 107.188 33.2622 107.094 32.4845C107.094 31.9158 107.227 31.5762 107.326 31.5841Z" fill="black"/>
<path d="M106.763 16.3882C106.63 16.7357 105.301 16.5699 103.739 16.7515C102.178 16.9332 100.923 17.336 100.716 17.028C100.624 16.8779 100.84 16.5541 101.355 16.2381C102.032 15.8281 102.799 15.5715 103.597 15.4879C104.395 15.4044 105.202 15.4962 105.957 15.7563C106.53 15.9538 106.813 16.2302 106.763 16.3882Z" fill="black"/>
<path d="M118.989 17.4465C118.756 17.7388 117.834 17.4465 116.738 17.4465C115.641 17.4465 114.703 17.644 114.487 17.3438C114.395 17.1938 114.545 16.9094 114.952 16.633C115.5 16.3092 116.136 16.147 116.78 16.1666C117.425 16.1863 118.049 16.3871 118.574 16.7436C118.964 17.0121 119.089 17.3122 118.989 17.4465Z" fill="black"/>
<path d="M98.7886 10.4802H98.7388C97.3731 11.5191 96.4807 13.0182 96.2469 14.6663V14.8321C95.9063 17.2016 95.9728 19.571 95.6073 21.9405C95.2418 24.31 94.3946 26.6794 92.5672 28.2591C91.8196 28.9225 90.4989 29.3806 89.8842 28.6066C89.6738 28.2847 89.567 27.9113 89.5769 27.5324C89.1117 21.8694 87.4837 16.8462 87.5003 10.9462C87.4913 10.153 87.6819 9.36926 88.0561 8.66032C88.4303 7.95138 88.9774 7.33779 89.6516 6.87071C90.9557 5.98611 92.5423 5.06202 93.9959 5.71757C95.4495 6.37312 97.3184 8.94794 98.4397 10.0379" fill="black"/>
<path d="M92.3504 23.2113C92.2009 23.1481 86.4113 21.5368 86.5941 27.1604C86.7768 32.7839 92.6826 31.4412 92.6826 31.2832C92.6826 31.1253 92.3504 23.2113 92.3504 23.2113Z" fill="#EB996E"/>
<path d="M90.8052 29.2074C90.8052 29.2074 90.7056 29.2785 90.5394 29.3575C90.2971 29.4656 90.0201 29.4798 89.7669 29.397C89.3781 29.1789 89.057 28.8666 88.8367 28.4919C88.6163 28.1173 88.5045 27.6937 88.5127 27.2645C88.4821 26.7821 88.5644 26.2993 88.7536 25.8507C88.8011 25.6711 88.8941 25.5053 89.0244 25.3677C89.1547 25.23 89.3183 25.1247 89.5011 25.0609C89.6188 25.0284 89.7445 25.035 89.8578 25.0795C89.971 25.124 90.0649 25.2038 90.1241 25.3057C90.2072 25.4637 90.174 25.5743 90.2072 25.5822C90.2404 25.5901 90.3235 25.4874 90.2736 25.2583C90.2354 25.1186 90.1473 24.9957 90.0244 24.9108C89.856 24.8036 89.6522 24.7587 89.4513 24.7844C89.2108 24.8404 88.989 24.9529 88.8061 25.1116C88.6233 25.2703 88.4852 25.4701 88.4047 25.6927C88.1696 26.1878 88.0668 26.7304 88.1057 27.2724C88.1804 28.4097 88.8283 29.4444 89.6839 29.6418C89.8446 29.6805 90.0125 29.6842 90.175 29.6528C90.3375 29.6213 90.4904 29.5555 90.6225 29.4602C90.8052 29.3417 90.8302 29.2153 90.8052 29.2074Z" fill="#C27D5F"/>
<path d="M93.8051 6.58638C92.3515 4.33539 96.3386 1.10502 99.2541 0.267811C102.17 -0.5694 106.015 0.741703 108.914 1.6579C110.75 2.23447 112.569 3.04008 114.505 2.969C115.793 2.83851 117.054 2.53262 118.251 2.06071C119.446 1.58 120.732 1.33805 122.03 1.34987C122.678 1.36292 123.31 1.54422 123.858 1.87415C124.405 2.20407 124.847 2.67007 125.137 3.22174C125.627 4.35909 124.929 5.92294 123.642 6.0888C124.052 5.87668 124.51 5.76205 124.977 5.75465C125.445 5.74724 125.907 5.8473 126.324 6.04629C126.742 6.24527 127.103 6.5373 127.376 6.8975C127.65 7.2577 127.828 7.6754 127.895 8.11502C127.962 8.55464 127.916 9.00316 127.761 9.42239C127.607 9.84161 127.348 10.2191 127.007 10.5228C126.666 10.8264 126.253 11.0472 125.803 11.1663C125.353 11.2854 124.879 11.2993 124.422 11.2068C125.253 10.5987 126.549 11.6018 126.441 12.5969C126.328 13.0884 126.082 13.5434 125.728 13.9173C125.375 14.2912 124.924 14.5711 124.422 14.7295C121.93 15.7562 119.081 15.4245 116.531 14.611C113.981 13.7975 111.614 12.5258 109.056 11.6491C106.497 10.7724 102.286 9.1928 99.7525 10.0695C97.8835 10.7014 96.5794 12.8418 95.5245 12.3679C95.0267 12.1151 94.5982 11.7547 94.2736 11.3157C93.949 10.8768 93.7373 10.3714 93.6556 9.84045C93.5161 8.78823 93.5554 7.72153 93.7719 6.68116" fill="black"/>
<path d="M124.347 5.90676C124.297 5.90676 124.048 6.31746 123.408 6.97301C122.504 7.8888 121.377 8.58025 120.127 8.98706C118.289 9.61529 116.267 9.53881 114.487 8.77381C112.477 7.9129 110.758 6.17529 108.756 4.59565C106.92 2.96049 104.6 1.90165 102.111 1.56273C101.083 1.44288 100.04 1.54779 99.0607 1.86945C98.0819 2.1911 97.1932 2.72103 96.4624 3.41881C95.9911 3.9062 95.6287 4.47955 95.3974 5.10408C95.1661 5.72861 95.0706 6.39132 95.1168 7.052C95.1494 7.40693 95.2361 7.75547 95.3743 8.08666C95.4823 8.30781 95.5487 8.41839 95.5653 8.41049C95.4533 7.96127 95.3783 7.50442 95.3411 7.0441C95.3422 5.793 95.851 4.59058 96.7614 3.68735C97.4679 3.05238 98.3154 2.57649 99.2413 2.29487C100.167 2.01324 101.148 1.93309 102.111 2.06032C104.478 2.41822 106.678 3.44466 108.424 5.00635C110.367 6.586 112.145 8.3473 114.296 9.2398C115.882 9.88432 117.644 10.0257 119.322 9.64302C120.999 9.26032 122.502 8.37391 123.608 7.11518C123.844 6.8468 124.05 6.5556 124.222 6.24637C124.314 6.03312 124.363 5.91465 124.347 5.90676Z" fill="#455A64"/>
<path d="M90.8405 22.9673C90.8405 22.9673 91.098 22.8093 91.3222 22.367C91.6139 21.726 91.7172 21.0217 91.6213 20.3293C91.4884 18.5206 89.8022 16.5776 89.5862 14.0739C89.436 12.9174 89.6652 11.745 90.2424 10.7171C90.7466 9.90502 91.5169 9.27247 92.4353 8.91634C93.0589 8.66628 93.7406 8.5764 94.4122 8.6557C94.8857 8.73468 95.1432 8.83736 95.1681 8.78997C94.9703 8.61686 94.7259 8.4993 94.462 8.45035C93.7459 8.27299 92.9901 8.30603 92.2941 8.54513C91.2579 8.89238 90.3784 9.56703 89.8022 10.4565C89.1393 11.571 88.8686 12.8579 89.0297 14.1292C89.1832 15.3639 89.5687 16.5624 90.1677 17.6676C90.6422 18.5269 90.9915 19.4436 91.2059 20.3925C91.3693 21.266 91.2415 22.1662 90.8405 22.9673Z" fill="#455A64"/>
<path d="M125.538 314.08C125.538 314.08 143.538 230.122 143.555 228.448L111.401 212.319L98.9414 310.85L125.538 314.08Z" fill="black"/>
<path d="M85.048 316.892L109.909 171.383V139.995L73.9092 142.444C73.4773 143.668 64.3984 317.081 64.3984 317.081L67.9037 316.892H85.048Z" fill="black"/>
<path d="M129.455 137.775L143.551 228.447L112.037 221.181L99.1953 140.729L129.455 137.775Z" fill="black"/>
<path d="M134.889 176.832C134.889 176.832 140.372 172.354 140.911 168.981C141.451 165.609 134.341 111.324 134.341 111.324L130.711 66.4468C130.711 67.2366 130.811 60.7916 129.714 60.4046C126.392 59.212 119.564 57.0479 119.564 57.0479L115.66 53.7148C115.66 53.7148 122.671 82.2116 124.033 89.9993L134.889 176.832Z" fill="#A2BDFF"/>
<path d="M89.8782 50.6182L83.9806 54.354L61.8609 62.6235L71.6873 97.8574L70.3666 118.33L69.1123 131.322C69.1123 131.322 62.5254 163.492 56.7109 183.04C56.7109 183.04 63.1982 194.729 68.5309 196.356L70.7487 197.612L78.6563 142.553L85.4426 133.865C86.0988 133.028 86.7051 132.167 87.2783 131.283C88.9395 128.7 92.7438 122.832 95.7756 118.306C99.7793 112.327 104.913 98.742 103.393 92.9447C101.873 87.1474 89.8782 50.6182 89.8782 50.6182Z" fill="#A2BDFF"/>
<path d="M74.8516 172.086C80.0306 168.101 84.3323 163.184 87.5104 157.616L74.8516 172.086Z" fill="black"/>
<path d="M89.878 50.6186L95.2023 83.104C95.0578 87.2572 94.3344 91.3739 93.051 95.3462L83.5485 124.57C83.5485 124.57 76.0728 140.5 78.6561 142.538C81.2394 144.576 101.332 142.538 101.332 142.538L128.527 138.786C129.134 138.702 129.684 138.399 130.062 137.941C130.441 137.482 130.62 136.903 130.562 136.322L126.526 96.6573C125.163 93.9166 124.607 88.3089 124.034 86.3185L115.661 53.7226L113.95 53.5093L110.229 55.9341L108.268 56.0842L91.8134 48.5098L89.878 50.6186Z" fill="#EBEBEB"/>
<path d="M84.9181 120.328C89.3122 107.304 95.002 86.1289 95.002 86.1289C96.7712 97.1864 94.8359 108.52 90.5083 118.946C86.9698 127.444 82.692 133.874 79.7516 142.585L79.6602 142.941C79.6602 142.941 77.9989 143.028 78.1152 140.698C78.2315 138.368 80.6071 131.433 82.1936 127.595C83.7801 123.756 84.9181 120.328 84.9181 120.328Z" fill="#E0E0E0"/>
<path d="M111.176 58.6914H107.48L106.375 63.5014L109.606 67.2215L112.862 66.9134L113.925 63.4619L113.053 61.5348L111.176 58.6914Z" fill="#A2BDFF"/>
<path d="M132.728 86.7771C133.891 86.9983 146.733 95.2124 151.401 94.3278C156.069 93.4432 159.848 89.2572 160.347 88.6964C162.996 85.7109 161.335 79.5108 160.571 77.1729C160.385 76.6025 160.131 76.054 159.815 75.538L139.988 43.1553L128.301 49.9083L140.428 70.9412L132.728 86.7771Z" fill="#A2BDFF"/>
<path d="M37.0976 125.928C36.3292 124.018 35.9956 121.974 36.1187 119.932C36.2418 117.89 36.8189 115.896 37.8119 114.081C40.5032 109.018 44.7726 100.844 45.6697 98.1582C46.9987 94.1696 59.425 63.564 61.8588 62.6162L72.657 97.2815L60.1144 122.398L74.8166 148.738L62.5648 161.297C62.5648 161.297 39.3818 130.557 37.4713 126.758C37.3384 126.484 37.2139 126.207 37.0976 125.928Z" fill="#A2BDFF"/>
<path d="M75.3957 169.29C77.7143 167.227 79.7741 164.915 81.5341 162.402C81.5178 162.369 81.5093 162.333 81.5093 162.296C81.5093 162.259 81.5178 162.222 81.5341 162.189C81.5624 162.15 81.5994 162.117 81.6424 162.092C81.6854 162.068 81.7334 162.052 81.7833 162.047C82.487 161.01 83.1304 159.937 83.7104 158.832C81.6587 157.561 78.9757 155.673 81.8913 155.247C85.4879 154.757 88.0546 153.098 88.4201 152.19C88.7855 151.282 87.5894 150.468 86.6425 151.045C85.5526 151.576 84.3894 151.959 83.1871 152.182C82.2271 152.397 81.2356 152.456 80.2549 152.356C79.117 152.237 74.4405 150.31 73.6099 150.168L64.8633 158.919C64.8633 158.919 71.5831 165.72 75.3957 169.29Z" fill="#EB996E"/>
<path d="M132.646 87.741C132.503 87.4302 132.399 87.104 132.339 86.7696C132.164 86.1377 131.948 85.1899 131.707 84.0605C131.092 81.0702 130.64 78.0517 130.354 75.017C130.068 71.9815 129.952 68.9338 130.005 65.8867C130.005 64.7177 130.071 63.7779 130.121 63.1223C130.128 62.7827 130.167 62.4444 130.237 62.1113C130.296 62.4479 130.313 62.7899 130.287 63.1302C130.287 63.8647 130.287 64.7888 130.287 65.8867C130.287 68.2561 130.428 71.4154 130.761 74.9854C131.093 78.5554 131.591 81.7147 131.99 84.0131C132.181 85.0951 132.347 86.0113 132.48 86.738C132.569 87.0666 132.624 87.4024 132.646 87.741Z" fill="black"/>
<path d="M142.813 89.6122C142.813 89.6122 142.713 89.6122 142.531 89.549C142.274 89.46 142.027 89.349 141.791 89.2173C140.927 88.7083 140.203 88.0095 139.682 87.1795C138.952 85.9516 138.441 84.6171 138.17 83.2304C137.745 81.5557 137.415 79.8604 137.181 78.1519C136.833 74.5029 136.542 71.2251 136.351 68.8398C136.268 67.7104 136.201 66.7626 136.143 66.0123C136.103 65.6658 136.103 65.3162 136.143 64.9697C136.236 65.306 136.298 65.6497 136.326 65.9965C136.409 66.7863 136.525 67.6867 136.658 68.8083C136.932 71.1777 137.273 74.4871 137.613 78.1045C137.854 79.9053 138.211 81.6113 138.569 83.1435C138.809 84.5202 139.274 85.8527 139.947 87.0926C140.431 87.9028 141.095 88.6035 141.891 89.1462C142.489 89.4542 142.855 89.5806 142.813 89.6122Z" fill="black"/>
<g opacity="0.3">
<path d="M136.115 65.002C135.104 68.6411 134.404 72.3523 134.022 76.099C133.672 78.3349 133.796 80.615 134.388 82.8045C135.102 84.9529 136.772 86.9353 139.064 87.5435C138.018 80.2139 137.096 72.8712 136.298 65.5153" fill="#A3705F"/>
</g>
<g opacity="0.3">
<path d="M68.1055 136.014C68.1055 136.014 71.9928 143.588 74.1442 147.553C78.6296 129.932 72.9398 111.387 74.7921 93.3477L71.5526 99.5636L70.6389 113.946L69.9412 122.382C69.9412 122.382 69.2767 131.457 68.1055 136.014Z" fill="#A3705F"/>
</g>
<path d="M71.2461 62.9473C71.4972 63.2531 71.7169 63.581 71.9023 63.9266C72.11 64.2505 72.3425 64.6533 72.5917 65.1272C72.8409 65.6011 73.1483 66.146 73.4224 66.7621C74.0996 68.2016 74.6849 69.6786 75.175 71.1851C76.3569 74.8874 76.9504 78.7368 76.9359 82.6059C76.9316 84.191 76.8178 85.774 76.5954 87.3449C76.5289 88.0162 76.396 88.6165 76.2963 89.1377C76.1967 89.659 76.097 90.1171 76.0056 90.4805C75.9315 90.8641 75.8174 91.2398 75.6651 91.602C75.6875 91.2135 75.7458 90.8276 75.8395 90.4489C75.9059 90.0776 75.989 89.659 76.0638 89.0983C76.1385 88.5375 76.2382 87.9767 76.2963 87.3133C76.4671 85.7574 76.5475 84.1939 76.5372 82.6296C76.5115 80.7189 76.3589 78.8116 76.0804 76.9192C75.7737 75.029 75.3437 73.1588 74.7929 71.3194C74.3286 69.8186 73.7739 68.3445 73.1316 66.9043C72.8824 66.2803 72.5917 65.7432 72.3675 65.2535C72.1432 64.7639 71.9272 64.361 71.7445 64.0293C71.5406 63.6855 71.3736 63.323 71.2461 62.9473Z" fill="black"/>
<path d="M59.9973 122.612C59.9391 122.651 59.3826 121.822 58.336 120.519C56.9401 118.876 55.2839 117.451 53.4269 116.293C52.4324 115.654 51.2305 115.374 50.038 115.503C49.0698 115.673 48.1534 116.045 47.355 116.593C45.9512 117.509 45.1871 118.228 45.1289 118.173C45.2639 117.967 45.4321 117.783 45.6273 117.628C46.1127 117.167 46.6317 116.739 47.1806 116.348C47.9966 115.761 48.9426 115.359 49.9466 115.172C51.2309 114.997 52.5377 115.278 53.618 115.961C55.5218 117.138 57.1897 118.628 58.5436 120.361C58.954 120.881 59.3312 121.424 59.6733 121.988C59.8147 122.178 59.9239 122.389 59.9973 122.612Z" fill="black"/>
<path d="M57.2568 114.311C58.9054 116.703 59.8517 119.47 59.9979 122.327C59.865 122.327 59.541 120.479 58.7769 118.275C58.0127 116.072 57.1654 114.382 57.2568 114.311Z" fill="black"/>
<path d="M67.847 135.524C68.0855 135.843 68.294 136.182 68.4699 136.535L70.0481 139.371C71.3688 141.78 73.1713 145.137 75.1731 148.904L75.2479 149.038L75.1399 149.141L74.3093 149.931C71.0449 153.161 68.0795 156.076 65.9116 158.161L63.3283 160.625C63.0245 160.94 62.6939 161.23 62.3398 161.494C62.5876 161.146 62.8655 160.818 63.1705 160.514L65.6624 157.963C67.7722 155.815 70.7126 152.877 73.9687 149.646L74.7994 148.857V149.094C72.8058 145.318 71.0449 141.985 69.8155 139.497L68.3619 136.606C68.1536 136.263 67.9811 135.9 67.847 135.524Z" fill="black"/>
<path d="M84.0298 119.635C84.0082 119.406 84.0082 119.176 84.0298 118.947C84.0298 118.466 84.0298 117.818 84.0298 116.997C84.0713 115.267 84.1295 112.818 84.2043 109.817C84.279 106.816 84.3621 103.183 84.5365 99.1782C84.6423 94.813 85.2665 90.473 86.3971 86.241C87.0251 84.0722 87.9055 81.9767 89.0219 79.9935L89.1797 80.2936C88.1459 80.1254 87.206 79.6199 86.5217 78.864C85.8694 78.1558 85.3951 77.3159 85.1346 76.4077C84.7542 74.7272 84.6089 73.0063 84.7026 71.2896C84.7026 68.0751 84.7026 65.2001 84.7026 62.7991C84.7026 60.398 84.7026 58.5261 84.7026 57.1676C84.7026 56.5358 84.7026 56.0303 84.7026 55.6512C84.6831 55.4779 84.6831 55.3031 84.7026 55.1299C84.7341 55.302 84.748 55.4765 84.7442 55.6512C84.7442 56.0303 84.7442 56.5358 84.7857 57.1676C84.7857 58.5261 84.8355 60.4296 84.8771 62.7911C84.9186 65.1527 84.9352 68.0672 84.9684 71.2896C84.8854 72.9729 85.0362 74.6592 85.417 76.305C85.6652 77.1519 86.111 77.9348 86.7211 78.5955C87.3403 79.2815 88.1925 79.7398 89.1299 79.8908L89.4289 79.9382L89.2877 80.1909C88.1872 82.1462 87.3207 84.2127 86.7045 86.3515C85.5864 90.5542 84.9569 94.8608 84.8272 99.194C84.6362 103.191 84.5282 106.8 84.3953 109.833C84.2624 112.866 84.1627 115.267 84.088 117.005L83.9883 118.955C84.014 119.181 84.0279 119.408 84.0298 119.635Z" fill="black"/>
<path d="M119.621 57.5137C119.704 57.6511 119.771 57.7968 119.82 57.9481C119.937 58.2798 120.103 58.7379 120.294 59.2197L122.013 63.9586C122.728 65.9885 123.583 68.3974 124.505 71.067C124.962 72.4334 125.527 73.8235 125.951 75.3636C126.178 76.1646 126.215 77.0038 126.059 77.82C125.977 78.2555 125.805 78.671 125.551 79.0415C125.297 79.412 124.966 79.7299 124.58 79.9762L124.646 79.684C125.344 80.6713 126.083 81.7217 126.773 82.8433C127.809 84.4309 128.593 86.1556 129.099 87.9613C129.487 89.662 129.613 91.4074 129.472 93.1425C129.273 96.4203 129.049 99.3663 128.866 101.831C128.683 104.295 128.526 106.269 128.409 107.699C128.351 108.354 128.301 108.884 128.268 109.279C128.259 109.465 128.232 109.65 128.185 109.831C128.165 109.645 128.165 109.457 128.185 109.271C128.185 108.868 128.226 108.331 128.251 107.691C128.326 106.254 128.434 104.255 128.567 101.815C128.7 99.3742 128.891 96.3729 129.09 93.1267C129.205 91.4301 129.074 89.7265 128.7 88.064C128.195 86.3003 127.423 84.6161 126.407 83.0644C125.726 81.9745 124.995 80.9319 124.298 79.9051L124.173 79.7314L124.364 79.6208C124.701 79.4049 124.989 79.1265 125.211 78.8021C125.432 78.4777 125.582 78.114 125.652 77.7331C125.8 76.9726 125.769 76.1903 125.56 75.4426C125.161 73.9578 124.597 72.5282 124.148 71.1776C123.234 68.4685 122.412 66.0516 121.714 64.0139C121.017 61.9762 120.51 60.4044 120.128 59.275C119.953 58.7458 119.82 58.3114 119.712 57.9797C119.67 57.8267 119.64 57.6709 119.621 57.5137Z" fill="black"/>
<path d="M87.2933 155.657C87.2017 155.89 87.0728 156.109 86.9112 156.305C86.6454 156.708 86.2467 157.276 85.74 157.971C84.7183 159.361 83.2481 161.249 81.5868 163.287C79.9256 165.325 78.3141 167.11 77.1346 168.373C76.5449 169.005 76.0548 169.511 75.706 169.85C75.3571 170.19 75.1577 170.372 75.1328 170.356C75.6716 169.596 76.2626 168.87 76.9021 168.184C78.0234 166.873 79.5684 165.025 81.2463 163.034C82.9242 161.044 84.411 159.148 85.4908 157.798C86.0418 157.047 86.6439 156.332 87.2933 155.657Z" fill="#455A64"/>
<path d="M100.307 145.469C100.307 145.469 100.307 145.619 100.307 145.911C100.307 146.203 100.224 146.653 100.157 147.214C100.024 148.367 99.8168 150.05 99.5593 152.206C99.0194 156.542 98.2137 162.821 97.1505 170.561C95.049 186.05 91.8594 207.414 88.4289 231.014C86.7177 242.822 85.1063 254.069 83.8105 264.321C83.47 266.88 83.1959 269.384 82.8138 271.809C82.4317 274.233 82.0413 276.548 81.6758 278.838L79.6657 291.475C78.4446 299.2 77.4811 305.447 76.8498 309.775C76.5342 311.932 76.3016 313.614 76.1604 314.759C76.0939 315.328 76.0441 315.762 76.0275 316.054C76.02 316.165 76.02 316.276 76.0275 316.386C76.0275 316.481 76.0856 316.386 76.0856 316.386C76.0856 316.386 76.0192 316.386 76.0275 316.347C76.0117 316.237 76.0117 316.125 76.0275 316.015C76.0275 315.723 76.069 315.28 76.1272 314.712C76.2352 313.567 76.4428 311.876 76.7335 309.712C77.315 305.376 78.2287 299.121 79.4082 291.396C80.0145 287.526 80.6707 283.301 81.3685 278.759C81.7339 276.484 82.0994 274.139 82.4815 271.722C82.8636 269.305 83.1294 266.801 83.47 264.242C84.7824 253.974 86.344 242.735 88.0468 230.927C91.4773 207.32 94.6918 185.971 96.9013 170.49C97.9728 162.766 98.8367 156.503 99.4431 152.159C99.7338 150.002 99.9663 148.328 100.124 147.167C100.207 146.614 100.265 146.18 100.307 145.872C100.348 145.564 100.307 145.469 100.307 145.469Z" fill="#455A64"/>
<path d="M119.266 313.299C119.277 313.156 119.297 313.013 119.324 312.872C119.374 312.572 119.44 312.153 119.531 311.608C119.739 310.487 120.03 308.868 120.362 306.783C121.135 302.573 122.256 296.515 123.635 289.035L134.632 230.486C134.952 229.096 135.042 227.668 134.898 226.252C134.707 224.846 134.458 223.425 134.242 222.035C133.793 219.239 133.348 216.487 132.905 213.781C132.008 208.379 131.119 203.166 130.255 198.206C128.519 188.286 126.841 179.368 125.346 171.897C123.851 164.425 122.53 158.399 121.533 154.252C121.06 152.175 120.628 150.572 120.362 149.513C120.237 148.984 120.138 148.565 120.063 148.273C119.988 147.981 119.972 147.847 119.972 147.847C120.024 147.984 120.068 148.124 120.105 148.265L120.453 149.497C120.744 150.579 121.201 152.175 121.699 154.236C122.746 158.367 124.108 164.393 125.645 171.857C127.182 179.321 128.884 188.238 130.629 198.158C131.509 203.118 132.398 208.331 133.303 213.734C133.746 216.445 134.195 219.197 134.649 221.987C134.873 223.393 135.114 224.783 135.313 226.221C135.46 227.681 135.367 229.155 135.039 230.588C130.712 253.422 126.799 274.1 123.959 289.083C122.522 296.554 121.359 302.604 120.553 306.806C120.146 308.891 119.822 310.51 119.606 311.624C119.498 312.161 119.407 312.58 119.349 312.872C119.291 313.164 119.266 313.299 119.266 313.299Z" fill="#455A64"/>
<path d="M109.911 170.355C110.036 170.355 108.566 179.77 106.63 191.349C104.695 202.928 103.042 212.319 102.942 212.319C102.843 212.319 104.296 202.904 106.223 191.325C108.15 179.746 109.795 170.34 109.911 170.355Z" fill="#455A64"/>
<path d="M85.35 316.631C85.0795 316.706 84.8007 316.751 84.5193 316.766C83.996 316.821 83.2318 316.892 82.2849 316.963C80.3994 317.105 77.7829 317.239 74.8923 317.279C72.0017 317.318 69.3769 317.279 67.483 317.192C66.5361 317.192 65.7719 317.113 65.2486 317.066C64.9674 317.07 64.6871 317.033 64.418 316.955C65.4377 316.881 66.4613 316.865 67.483 316.908C69.3769 316.908 71.9851 316.908 74.8757 316.868C77.7663 316.829 80.3661 316.742 82.26 316.671C83.2879 316.592 84.3202 316.578 85.35 316.631Z" fill="#455A64"/>
<path d="M125.534 314.08C125.181 314.095 124.828 314.076 124.479 314.024L121.622 313.74C119.213 313.48 115.89 313.085 112.219 312.634C108.547 312.184 105.225 311.75 102.824 311.418L99.9836 311.007C99.6326 310.967 99.2855 310.901 98.9453 310.81C99.3 310.778 99.6576 310.791 100.009 310.849C100.681 310.905 101.67 310.999 102.866 311.126C105.275 311.386 108.606 311.773 112.277 312.224C115.948 312.674 119.263 313.116 121.663 313.448L124.504 313.867C124.855 313.899 125.201 313.97 125.534 314.08Z" fill="#455A64"/>
<path d="M90.4805 55.8711C90.8034 56.0295 91.1094 56.2173 91.3942 56.4319L93.8362 58.0115C95.9128 59.3621 98.82 61.1708 102.143 62.9716C103.389 63.6508 104.634 64.2827 105.731 64.8514L105.432 64.9777C106.13 62.3555 106.744 60.1045 107.193 58.517C107.409 57.7746 107.592 57.1585 107.741 56.653C107.794 56.4263 107.875 56.2062 107.982 55.9975C107.976 56.2299 107.94 56.4607 107.874 56.6846C107.758 57.198 107.616 57.822 107.45 58.5723C107.06 60.1519 106.503 62.4424 105.789 65.0725L105.731 65.3095L105.498 65.1989C104.36 64.6381 103.131 64.0063 101.885 63.327C99.0364 61.7805 96.28 60.085 93.6286 58.2485C92.6152 57.5455 91.8095 56.9453 91.2613 56.5266C90.9764 56.3361 90.7146 56.1163 90.4805 55.8711Z" fill="black"/>
<path d="M117.894 61.6841C116.737 62.5643 115.509 63.3566 114.222 64.0536L114.039 64.1642L113.94 63.9746L112.818 61.8974C111.988 60.3177 111.199 58.8171 110.675 57.7429C110.349 57.1786 110.088 56.5829 109.895 55.9658C110.306 56.4782 110.656 57.0317 110.941 57.6166C111.539 58.6512 112.345 60.0966 113.2 61.7078L114.322 63.8325L114.039 63.7535C115.27 62.976 116.558 62.2844 117.894 61.6841Z" fill="black"/>
<path d="M112.476 60.9111C112.255 61.1182 112.01 61.301 111.745 61.4561C111.288 61.7799 110.64 62.2459 109.918 62.6803C109.195 63.1147 108.539 63.5649 108.057 63.8651C107.795 64.0376 107.517 64.1883 107.227 64.3153C107.449 64.1065 107.694 63.9212 107.958 63.7624C108.423 63.4465 109.071 63.0121 109.785 62.5461L111.646 61.3613C111.908 61.1887 112.186 61.0381 112.476 60.9111Z" fill="black"/>
<path d="M109.984 62.5446C109.391 62.102 108.836 61.6161 108.323 61.0914C107.786 60.6012 107.289 60.0731 106.836 59.5117C107.413 59.955 107.951 60.4409 108.447 60.965C109.002 61.4532 109.515 61.9813 109.984 62.5446Z" fill="black"/>
<path d="M94.3371 132.609C94.5826 134.584 95.1632 136.507 96.0565 138.304C97.0715 140.04 98.3791 141.606 99.9272 142.94C99.3579 142.687 98.8426 142.336 98.4072 141.906C96.1513 139.941 94.7079 137.274 94.3371 134.386C94.2262 133.799 94.2262 133.197 94.3371 132.609Z" fill="black"/>
<path d="M99.1724 143.021C96.4072 142.797 93.8176 141.64 91.8711 139.759C91.9542 139.664 93.3829 140.746 95.393 141.639C97.4031 142.531 99.1973 142.894 99.1724 143.021Z" fill="black"/>
<path d="M115.398 117.738C115.541 118.005 115.645 118.29 115.706 118.583C115.88 119.136 116.104 119.942 116.354 120.953C116.869 122.951 117.475 125.739 117.957 128.851C118.439 131.963 118.713 134.791 118.837 136.852C118.895 137.879 118.929 138.708 118.929 139.285C118.97 139.581 118.97 139.881 118.929 140.177C118.851 139.888 118.807 139.591 118.796 139.293C118.729 138.629 118.655 137.823 118.563 136.868C118.364 134.83 118.048 132.01 117.566 128.914C117.085 125.818 116.52 123.03 116.088 121.016C115.889 120.076 115.714 119.278 115.573 118.647C115.479 118.351 115.421 118.046 115.398 117.738Z" fill="black"/>
<path d="M109.871 68.0264C108.791 76.2326 107.994 94.0905 107.695 102.376C107.446 109.295 107.471 116.221 107.495 123.148C107.495 125.383 107.495 127.69 108.501 129.719C110.237 133.376 114.481 135.248 118.377 136.733L109.871 68.0264Z" fill="#E0E0E0"/>
<path d="M119.556 135.549L124.017 125.155L112.862 66.9131L109.605 67.2211C109.605 67.2211 110.062 127.753 109.913 128.298L119.556 135.549Z" fill="#A2BDFF"/>
<path d="M112.744 66.9131C112.241 67.064 111.718 67.1462 111.191 67.1572C110.672 67.222 110.147 67.222 109.629 67.1572C110.142 67.0729 110.661 67.0255 111.182 67.0155C111.7 66.9503 112.222 66.9161 112.744 66.9131Z" fill="black"/>
</svg>
