<svg width="328" height="304" viewBox="0 0 328 304" fill="none" xmlns="http://www.w3.org/2000/svg">
<path d="M48.6146 230.604C57.5362 250.781 72.083 254.981 82.3105 250.781C102.09 242.659 153.471 233.584 206.241 254.916C276.132 283.17 291.002 240.542 268.697 197.423C246.391 154.305 238.831 110.7 264.545 86.6763C290.259 62.6525 256.609 25.0707 196.851 64.1908C158.234 89.4715 129.893 83.8422 114.673 76.6955C100.33 69.9599 84.3784 62.9182 69.4333 68.4164C51.299 75.0881 44.1535 89.5527 71.744 121.867C110.842 167.659 28.6156 185.375 48.6146 230.604Z" fill="#DEE9FF"/>
<path d="M84.9395 132.31H223.787V231.279C223.787 231.48 223.7 231.674 223.547 231.816C223.393 231.959 223.184 232.039 222.967 232.039H85.7595C85.542 232.039 85.3334 231.959 85.1796 231.816C85.0258 231.674 84.9395 231.48 84.9395 231.279V132.31Z" fill="#A2BDFF"/>
<path d="M188.954 93.5264H124.393L84.9395 132.31H223.787L188.954 93.5264Z" fill="#418DF9"/>
<path d="M98.0916 78.0132L124.394 93.5266L84.9403 132.31L55.0508 111.256L98.0916 78.0132Z" fill="#699CFF"/>
<path d="M215.258 78.0132L188.955 93.5266L223.787 132.31L258.298 111.256L215.258 78.0132Z" fill="#699CFF"/>
<path d="M141.355 78.8062C142.097 78.48 142.675 77.9006 142.967 77.189C143.259 76.4774 143.243 75.6888 142.922 74.9878L131.09 49.1284C130.922 48.7621 130.676 48.431 130.367 48.155C130.058 47.879 129.692 47.6638 129.291 47.5224C128.889 47.3809 128.461 47.3161 128.033 47.3319C127.604 47.3477 127.183 47.4437 126.795 47.6141L124.515 48.616C124.127 48.7864 123.781 49.0278 123.496 49.3256C123.211 49.6235 122.995 49.9715 122.859 50.349C122.723 50.7264 122.671 51.1254 122.706 51.5219C122.741 51.9184 122.862 52.3044 123.062 52.6564L137.173 77.5139C137.556 78.1877 138.205 78.6984 138.984 78.9392C139.763 79.1801 140.613 79.1324 141.355 78.8062Z" fill="#418DF9"/>
<path d="M156.189 76.2996C156.726 76.2642 157.228 76.0377 157.589 75.6675C157.951 75.2973 158.143 74.8121 158.128 74.3132L157.543 55.9035C157.535 55.6427 157.47 55.3862 157.352 55.1494C157.234 54.9125 157.066 54.7002 156.857 54.5252C156.648 54.3502 156.403 54.2162 156.137 54.1311C155.871 54.0461 155.589 54.0118 155.308 54.0303L153.658 54.1392C153.377 54.1578 153.104 54.2287 152.853 54.3477C152.603 54.4668 152.381 54.6315 152.201 54.832C152.021 55.0326 151.887 55.2647 151.806 55.5146C151.726 55.7644 151.7 56.0268 151.732 56.2859L153.967 74.5868C154.027 75.0829 154.292 75.5382 154.706 75.8574C155.121 76.1766 155.652 76.3351 156.189 76.2996Z" fill="#418DF9"/>
<path d="M167.642 83.1049C169.12 83.8966 171.194 83.1701 172.345 81.4575L192.773 51.0495C193.994 49.2329 193.704 47.0189 192.137 46.1791L189.953 45.0087C188.386 44.1687 186.171 45.0409 185.081 46.9274L166.837 78.5057C165.809 80.2842 166.164 82.313 167.642 83.1049Z" fill="#418DF9"/>
<path d="M130.641 165.459C132.921 165.459 134.769 163.175 134.769 160.358C134.769 157.541 132.921 155.257 130.641 155.257C128.362 155.257 126.514 157.541 126.514 160.358C126.514 163.175 128.362 165.459 130.641 165.459Z" fill="white"/>
<path d="M178.672 165.459C180.952 165.459 182.8 163.175 182.8 160.358C182.8 157.541 180.952 155.257 178.672 155.257C176.393 155.257 174.545 157.541 174.545 160.358C174.545 163.175 176.393 165.459 178.672 165.459Z" fill="white"/>
<path d="M173.603 195.428C173.443 195.429 173.285 195.394 173.145 195.328C173.005 195.262 172.887 195.166 172.803 195.05C172.753 194.983 167.594 188.179 155.604 187.326C150.614 186.971 145.877 188.157 141.533 190.854C139.595 192.042 137.874 193.468 136.425 195.086C136.281 195.259 136.063 195.377 135.817 195.413C135.572 195.449 135.32 195.401 135.116 195.279C134.913 195.157 134.774 194.971 134.73 194.762C134.686 194.553 134.74 194.337 134.882 194.162C134.961 194.066 136.857 191.778 140.369 189.587C145.037 186.674 150.36 185.338 155.76 185.722C168.731 186.644 174.175 193.89 174.4 194.197C174.489 194.319 174.539 194.459 174.543 194.603C174.548 194.746 174.507 194.888 174.426 195.014C174.344 195.139 174.225 195.244 174.08 195.317C173.935 195.39 173.77 195.429 173.602 195.429L173.603 195.428Z" fill="white"/>
</svg>
