<svg width="195" height="195" viewBox="0 0 195 195" fill="none" xmlns="http://www.w3.org/2000/svg">
<path d="M186.842 130.6C167.135 175.06 115.113 194.156 74.3529 190.9C63.2238 190.011 40.8318 188.223 23.3479 172.265C-10.2287 141.618 -5.05758 77.5587 27.0849 39.8441C31.2242 34.9873 59.8756 2.44668 104.524 2.88226C137.212 3.2012 160.156 21.0235 162.946 23.2438C166.471 26.0487 174.244 32.7139 181.25 43.2879C197.711 68.133 199.158 102.817 186.842 130.6Z" fill="url(#paint0_linear_2151_28947)"/>
<path opacity="0.48" d="M187.008 83.3495C185.203 87.1433 183.327 90.8949 181.421 94.6313C179.513 98.3664 177.565 102.079 175.577 105.768C173.589 109.458 171.56 113.123 169.492 116.764C167.422 120.404 165.299 124.011 163.135 127.591C158.795 134.742 154.258 141.769 149.373 148.53C146.941 151.917 144.393 155.216 141.732 158.412C139.066 161.602 136.28 164.691 133.274 167.54C133.108 167.697 132.858 167.684 132.714 167.512C132.571 167.34 132.588 167.074 132.754 166.917L132.755 166.916L132.756 166.914C135.742 164.111 138.523 161.058 141.188 157.899C143.849 154.735 146.4 151.462 148.84 148.097C153.739 141.383 158.298 134.392 162.663 127.273C164.84 123.71 166.976 120.117 169.06 116.492C171.143 112.865 173.185 109.213 175.188 105.537C177.191 101.861 179.154 98.1608 181.077 94.4379C182.998 90.7147 184.89 86.9723 186.708 83.1952L186.709 83.1937C186.752 83.1051 186.853 83.0684 186.935 83.1117C187.018 83.1549 187.05 83.2609 187.008 83.3495Z" fill="white"/>
<path d="M132.647 184.732L36.5109 183.331C28.6024 183.216 22.2123 177.989 22.1052 171.547C21.6296 142.935 20.9373 42.8784 21.8392 15.6614C21.9942 10.9836 26.6485 7.26004 32.3938 7.20868C54.7354 7.00913 108.453 6.93905 133.339 10.4575C138.58 11.1984 142.452 14.8654 142.557 19.1934C143.138 43.1693 144.533 149.246 143.373 176.446C143.173 181.137 138.41 184.816 132.647 184.732Z" fill="#052A43"/>
<path d="M131.028 179.837L36.5017 178.46C31.723 178.39 27.8746 175.315 27.8596 171.554L27.7579 19.7094C27.743 15.9804 31.6002 12.98 36.3381 13.0352L130.024 14.1462C133.411 14.1856 136.155 16.3499 136.198 19.0163L137.852 174.499C137.899 177.481 134.817 179.893 131.028 179.837Z" fill="#91B3FA"/>
<path d="M142.828 163.733C141.731 160.428 139.799 157.49 137.268 155.109C134.066 152.097 129.905 149.977 125.259 149.132C125.259 149.132 119.229 148.106 112.613 146.428C110.452 145.88 108.139 146.339 106.405 147.651C101.783 151.148 93.1034 155.701 79.4696 155.394C67.1194 155.116 60.0212 151.476 56.1732 148.343C54.3825 146.885 51.916 146.366 49.6244 146.985C44.6431 148.33 40.4999 149.132 40.4999 149.132C32.1803 150.645 21.6031 156.248 19.1181 163.733C16.7372 170.903 14.8923 178.568 14.6332 188.451C14.539 192.044 15.9909 193.965 19.8838 193.965L142.748 194.999C146.641 194.999 147.743 190.32 147.649 186.728C147.39 176.845 145.209 170.903 142.828 163.733Z" fill="#052A43"/>
<path d="M79.4703 156.006C96.2814 156.41 108.068 149.768 111.495 146.238C104.68 144.159 95.7783 140.591 95.6717 137.632L94.6453 109.132H67.5698L66.5434 137.632C66.4297 140.79 56.0536 144.915 49.625 147.038C52.3736 150.496 63.5368 155.624 79.4703 156.006Z" fill="#FEBBBA"/>
<path d="M57.3585 83.8584C57.3585 83.8584 61.2548 125.417 72.6335 129.884C72.6335 129.884 81.8669 133.799 89.5799 129.369C89.5799 129.369 102.302 117.969 101.387 84.1748C101.387 84.1748 102.441 64.5938 80.4979 62.9732C54.7876 61.0746 57.3585 83.8584 57.3585 83.8584Z" fill="#FEBBBA"/>
<path d="M99.1387 98.4709C99.1387 98.4709 101.067 92.7749 104.281 92.7749C107.494 92.7749 103.638 107.964 99.1387 107.964V98.4709Z" fill="#FEBBBA"/>
<path d="M61.5829 97.1712C61.5829 97.1712 58.9317 92.3475 55.7471 92.7743C52.5628 93.201 57.1247 108.535 61.5829 107.938V97.1712Z" fill="#FEBBBA"/>
<path d="M60.8649 94.3798C59.6305 94.9193 58.1907 94.3172 57.7296 93.0671C56.9186 90.8681 55.6731 87.5262 54.6644 84.9723C53.022 80.8137 44.3403 75.5 53.4912 65.1034C62.6421 54.7069 67.8244 65.9906 73.9148 63.0056C80.0053 60.0207 87.279 53.0897 93.6143 57.4793C99.9495 61.869 95.726 66.0276 97.8378 67.1828C99.9495 68.338 103.235 62.3311 105.581 70.4172C107.396 76.6735 104.439 88.1914 103.008 93.0842C102.66 94.2725 101.287 94.8394 100.183 94.2509C99.5996 93.9403 99.2151 93.3633 99.1591 92.7131C99.0006 90.8695 98.628 86.7851 98.0725 82.2C97.3167 75.9606 91.5334 84.605 80.2554 85.8283C68.9774 87.0517 69.9159 81.0448 64.5193 81.0448C62.2425 81.0448 62.1735 88.8644 62.2496 92.2352C62.2703 93.1596 61.7232 94.0048 60.8649 94.3798Z" fill="#052A43"/>
<g opacity="0.31">
<path d="M57.539 88.5711C57.7687 88.4241 57.7786 88.0928 57.7202 87.8074C57.6938 87.6622 57.6393 87.5156 57.5912 87.3656C57.5408 87.2174 57.4988 87.0669 57.4416 86.921C57.2242 86.3337 56.9524 85.7673 56.66 85.2114C56.0555 84.108 55.3676 83.0458 54.6923 81.963C54.3591 81.4187 54.0252 80.872 53.7265 80.301C53.4269 79.7317 53.1421 79.1482 52.9289 78.5331C52.476 77.3103 52.2776 75.9996 52.2961 74.699C52.3348 73.3982 52.581 72.0993 53.0674 70.885C53.5465 69.6694 54.2685 68.5443 55.1692 67.5916C56.9753 65.6909 59.4928 64.4686 62.0875 64.2761C62.1369 64.2724 62.18 64.309 62.1837 64.3577C62.1872 64.4033 62.1541 64.4435 62.1093 64.4515C59.5962 64.8879 57.2933 66.1729 55.6251 68.0017C53.9606 69.834 53.0136 72.2569 52.9431 74.7145C52.9182 75.9415 53.0791 77.1781 53.4933 78.3403C53.8893 79.5109 54.4878 80.6204 55.1215 81.7135C55.7558 82.8075 56.4383 83.8904 56.9932 85.0471C57.2656 85.6276 57.5171 86.2192 57.7122 86.8311C57.7638 86.9829 57.8003 87.1399 57.8448 87.2938C57.8871 87.4471 57.9343 87.6018 57.9549 87.7705C57.9763 87.9361 57.9818 88.108 57.9424 88.2813C57.9063 88.4529 57.7985 88.6305 57.6314 88.7225C57.5881 88.7463 57.5335 88.7311 57.5093 88.6885C57.4861 88.6476 57.4998 88.5963 57.539 88.5711Z" fill="white"/>
</g>
<path opacity="0.31" d="M58.6839 89.0438C58.6765 89.0438 58.669 89.0431 58.6617 89.0418C58.5983 89.0299 58.5569 88.9698 58.5689 88.9074C59.0544 86.4042 57.7913 83.9977 56.5698 81.6706C55.3819 79.4076 54.1535 77.0672 54.4596 74.5797C54.8892 71.0894 58.1769 68.6986 60.6125 67.2039C60.6667 67.1711 60.7389 67.1866 60.7733 67.2407C60.8073 67.2945 60.7907 67.3654 60.736 67.3991C58.3409 68.8687 55.1086 71.2148 54.6911 74.6076C54.3939 77.0247 55.6054 79.3328 56.7771 81.5652C58.0167 83.927 59.2986 86.3691 58.7981 88.9504C58.7875 89.0054 58.7385 89.0438 58.6839 89.0438Z" fill="white"/>
<g opacity="0.31">
<path d="M75.1525 80.0582C75.3632 80.7169 75.7909 81.2954 76.3463 81.7116C76.8955 82.1372 77.5553 82.4139 78.2349 82.5591C78.9171 82.6955 79.6228 82.6857 80.3134 82.5631C81.0043 82.4462 81.6748 82.2172 82.3223 81.9382C82.9686 81.6532 83.5938 81.3173 84.2044 80.9508C84.8144 80.5826 85.4225 80.2099 86.0191 79.8156C87.2166 79.035 88.3928 78.2121 89.6062 77.4324C90.2103 77.0393 90.8308 76.6663 91.4582 76.3038C92.0932 75.9529 92.7374 75.614 93.4094 75.3276C94.7491 74.7495 96.1505 74.2809 97.6491 74.1776C98.0228 74.1546 98.4027 74.1689 98.7788 74.2293C99.1546 74.2881 99.5275 74.3961 99.8726 74.5666L100.002 74.631L100.124 74.706C100.205 74.7569 100.288 74.8049 100.367 74.8586C100.515 74.9785 100.673 75.088 100.802 75.2282C101.077 75.49 101.296 75.8001 101.48 76.1215C101.85 76.7683 102.044 77.48 102.176 78.1859C102.309 78.8943 102.362 79.6086 102.393 80.3197C102.395 80.3685 102.356 80.4097 102.307 80.4118C102.259 80.4137 102.219 80.3782 102.214 80.3326C102.133 79.6293 102.046 78.9269 101.885 78.2446C101.808 77.9025 101.705 77.5686 101.588 77.2422C101.522 77.0823 101.463 76.9192 101.385 76.7656L101.273 76.5337L101.144 76.3122C100.966 76.0216 100.761 75.7479 100.51 75.5239C100.393 75.4021 100.25 75.3115 100.118 75.2091C100.047 75.1641 99.9728 75.1247 99.901 75.082L99.7924 75.0189L99.6785 74.9664C99.0681 74.6857 98.3684 74.6277 97.6808 74.6753C97.3355 74.7001 96.9899 74.7518 96.6466 74.8233C96.3034 74.8961 95.9629 74.9978 95.6214 75.084C94.9485 75.2982 94.2785 75.5269 93.6346 75.8241C92.9839 76.1037 92.3587 76.4423 91.7326 76.7782C91.1141 77.13 90.5011 77.4928 89.8996 77.8785C88.6926 78.6424 87.5116 79.4567 86.2993 80.2353C85.6951 80.6268 85.0798 81.0062 84.4507 81.3634C83.8227 81.723 83.1727 82.0557 82.4968 82.3374C81.8189 82.6132 81.1119 82.8393 80.3779 82.9485C79.6486 83.0637 78.8861 83.0614 78.1594 82.8864C77.438 82.707 76.7484 82.3895 76.178 81.9165C75.5992 81.4561 75.1682 80.8121 74.9795 80.1052C74.9669 80.0581 74.9956 80.0098 75.0435 79.9974C75.0899 79.9854 75.1373 80.0115 75.1517 80.056L75.1525 80.0582Z" fill="white"/>
</g>
<path d="M73.1191 117.192C77.9098 123.383 82.6125 122.574 88.6855 117.192C83.7859 118.195 78.0187 118.514 73.1191 117.192Z" fill="white"/>
<path d="M84.2695 94.242C84.2695 94.7463 84.7703 95.1054 85.2563 94.9463C87.6127 94.175 93.7146 92.6173 98.3258 95.3003C98.3258 95.3003 95.7488 89.4641 84.7519 93.5499C84.4608 93.658 84.2695 93.9355 84.2695 94.242Z" fill="#052A43"/>
<path d="M76.3591 94.242C76.3591 94.7463 75.8584 95.1054 75.3723 94.9463C73.0158 94.175 66.9139 92.6173 62.3027 95.3003C62.3027 95.3003 64.8798 89.4641 75.8766 93.5499C76.1679 93.658 76.3591 93.9355 76.3591 94.242Z" fill="#052A43"/>
<path d="M48.1024 63.5967C47.4579 63.5967 46.9355 63.0824 46.9355 62.4477V52.9086C46.9355 50.4674 48.9527 48.4812 51.432 48.4812H58.1367C58.7813 48.4812 59.3036 48.9956 59.3036 49.6301C59.3036 50.2647 58.7813 50.7791 58.1367 50.7791H51.432C50.2394 50.7791 49.2693 51.7344 49.2693 52.9086V62.4477C49.2693 63.0824 48.747 63.5967 48.1024 63.5967Z" fill="white"/>
<path d="M113.098 63.5967C112.453 63.5967 111.931 63.0824 111.931 62.4477V52.9086C111.931 51.7343 110.96 50.7791 109.768 50.7791H103.063C102.419 50.7791 101.896 50.2648 101.896 49.6301C101.896 48.9955 102.419 48.4812 103.063 48.4812H109.768C112.247 48.4812 114.265 50.4674 114.265 52.9086V62.4477C114.265 63.0824 113.742 63.5967 113.098 63.5967Z" fill="white"/>
<path d="M58.1367 139.08H51.432C48.9527 139.08 46.9355 137.094 46.9355 134.652V125.113C46.9355 124.479 47.4579 123.964 48.1024 123.964C48.7469 123.964 49.2693 124.479 49.2693 125.113V134.652C49.2693 135.827 50.2395 136.782 51.432 136.782H58.1367C58.7813 136.782 59.3036 137.296 59.3036 137.931C59.3036 138.566 58.7812 139.08 58.1367 139.08Z" fill="white"/>
<path d="M109.768 139.08H103.063C102.419 139.08 101.896 138.566 101.896 137.931C101.896 137.296 102.419 136.782 103.063 136.782H109.768C110.96 136.782 111.931 135.827 111.931 134.652V125.113C111.931 124.479 112.453 123.964 113.098 123.964C113.742 123.964 114.265 124.479 114.265 125.113V134.652C114.265 137.094 112.247 139.08 109.768 139.08Z" fill="white"/>
<path d="M64.3113 84.5125C65.1315 84.5125 65.7964 83.8578 65.7964 83.0502C65.7964 82.2426 65.1315 81.5879 64.3113 81.5879C63.4911 81.5879 62.8262 82.2426 62.8262 83.0502C62.8262 83.8578 63.4911 84.5125 64.3113 84.5125Z" fill="white"/>
<path d="M70.573 102.33C71.3932 102.33 72.0582 101.676 72.0582 100.868C72.0582 100.06 71.3932 99.4058 70.573 99.4058C69.7528 99.4058 69.0879 100.06 69.0879 100.868C69.0879 101.676 69.7528 102.33 70.573 102.33Z" fill="white"/>
<path d="M54.2156 100.96C55.0358 100.96 55.7007 100.305 55.7007 99.4977C55.7007 98.6901 55.0358 98.0354 54.2156 98.0354C53.3954 98.0354 52.7305 98.6901 52.7305 99.4977C52.7305 100.305 53.3954 100.96 54.2156 100.96Z" fill="white"/>
<path d="M64.0074 120.403C64.1958 119.617 63.7015 118.829 62.9033 118.644C62.1051 118.458 61.3052 118.945 61.1167 119.731C60.9282 120.517 61.4225 121.305 62.2207 121.49C63.019 121.676 63.8189 121.189 64.0074 120.403Z" fill="white"/>
<path d="M82.0535 84.5125C82.8737 84.5125 83.5386 83.8578 83.5386 83.0502C83.5386 82.2426 82.8737 81.5879 82.0535 81.5879C81.2333 81.5879 80.5684 82.2426 80.5684 83.0502C80.5684 83.8578 81.2333 84.5125 82.0535 84.5125Z" fill="white"/>
<path d="M81.5811 133.744C82.3389 133.435 82.6988 132.579 82.3849 131.833C82.071 131.087 81.2022 130.733 80.4444 131.042C79.6866 131.351 79.3267 132.206 79.6406 132.952C79.9545 133.699 80.8233 134.053 81.5811 133.744Z" fill="white"/>
<path d="M100.151 84.5125C100.971 84.5125 101.636 83.8578 101.636 83.0502C101.636 82.2426 100.971 81.5879 100.151 81.5879C99.3309 81.5879 98.666 82.2426 98.666 83.0502C98.666 83.8578 99.3309 84.5125 100.151 84.5125Z" fill="white"/>
<path d="M90.0594 102.33C90.8796 102.33 91.5445 101.676 91.5445 100.868C91.5445 100.06 90.8796 99.4058 90.0594 99.4058C89.2391 99.4058 88.5742 100.06 88.5742 100.868C88.5742 101.676 89.2391 102.33 90.0594 102.33Z" fill="white"/>
<path d="M108.846 102.33C109.667 102.33 110.332 101.676 110.332 100.868C110.332 100.06 109.667 99.4058 108.846 99.4058C108.026 99.4058 107.361 100.06 107.361 100.868C107.361 101.676 108.026 102.33 108.846 102.33Z" fill="white"/>
<path d="M100.574 120.292C100.706 119.495 100.156 118.744 99.3461 118.614C98.5365 118.485 97.7736 119.026 97.6422 119.823C97.5108 120.621 98.0607 121.372 98.8703 121.501C99.6799 121.63 100.443 121.089 100.574 120.292Z" fill="white"/>
<path d="M81.0087 132.601L80.9098 132.535L62.4271 120.172L54.0332 99.4879L64.2408 82.8916L100.252 82.904L100.299 83.001L109.037 100.882L108.999 100.958L99.2361 120.173L99.1994 120.198L81.0087 132.601ZM62.7106 119.947L81.0067 132.185L98.965 119.941L108.65 100.88L100.033 83.2467H82.1258L64.4366 83.2343L54.4206 99.5195L62.7106 119.947Z" fill="white"/>
<path d="M81.0247 132.983L70.377 100.845L70.4214 100.777L82.1597 82.7141L90.2399 100.857L90.223 100.916L81.0247 132.983ZM70.7589 100.893L81.0009 131.805L89.871 100.881L82.102 83.4381L70.7589 100.893Z" fill="white"/>
<path d="M90.1353 101.065H70.5686L54.2578 99.6997L54.2871 99.3584L70.5832 100.723L90.1743 100.722L108.927 100.71V101.053L90.1353 101.065Z" fill="white"/>
<path d="M62.3047 120.23L62.4057 119.992L70.7999 100.207L64.1735 83.123L64.4984 83.0005L71.1744 100.213L71.1476 100.275L62.8274 119.887L98.8289 119.885L89.8515 100.198L100.432 82.9607L100.729 83.138L90.2436 100.221L99.3666 120.227L62.3047 120.23Z" fill="white"/>
<g opacity="0.3">
<path d="M50.6066 16.4233C50.3177 16.7118 49.8461 16.7149 49.5533 16.4305C48.9843 15.878 48.3825 15.3416 47.7645 14.8362C47.4518 14.5805 47.4058 14.126 47.6584 13.8147C47.6614 13.811 47.6643 13.8073 47.6674 13.8035C47.9302 13.492 48.3998 13.4493 48.7162 13.7081C49.3666 14.2401 50.0002 14.8048 50.5992 15.3865C50.8731 15.6523 50.8935 16.076 50.6586 16.3655C50.6425 16.3854 50.6252 16.4049 50.6066 16.4233ZM44.5852 12.5794C43.9034 12.1619 43.197 11.7691 42.4849 11.4118C42.1187 11.228 41.9728 10.7864 42.1596 10.4255C42.3483 10.0639 42.795 9.92132 43.1614 10.1053C43.9105 10.4812 44.6542 10.8946 45.3717 11.3339C45.721 11.5477 45.828 12 45.6108 12.3439C45.595 12.3689 45.5779 12.3927 45.5597 12.4151C45.3274 12.7013 44.9091 12.7777 44.5852 12.5794ZM38.8796 9.90349C38.1226 9.64654 37.345 9.41895 36.568 9.22701C36.1692 9.12847 35.9269 8.72999 36.0269 8.3372C36.1274 7.9449 36.5316 7.70612 36.9306 7.80446C37.7488 8.00661 38.5679 8.24641 39.3649 8.51693C39.7537 8.64887 39.9602 9.06628 39.8264 9.44919C39.7978 9.53079 39.756 9.6043 39.7043 9.66807C39.5133 9.90355 39.1855 10.0074 38.8796 9.90349ZM32.7094 8.55136C31.9122 8.46736 31.1021 8.41675 30.3015 8.40029C29.8902 8.39172 29.5637 8.05667 29.5724 7.65188C29.5814 7.24702 29.9216 6.9259 30.3325 6.93399C31.1756 6.95141 32.0284 7.00489 32.8674 7.09287C33.2763 7.13594 33.5725 7.49725 33.5288 7.89991C33.5132 8.04398 33.4562 8.17386 33.3707 8.27926C33.2172 8.46845 32.9721 8.57879 32.7094 8.55136ZM26.3872 8.58633C25.5929 8.67863 24.7912 8.8057 24.0049 8.96438C23.6018 9.04543 23.2083 8.78965 23.1258 8.39295C23.0432 7.99598 23.3032 7.60854 23.7062 7.52763C24.5334 7.36079 25.3769 7.22707 26.2127 7.12997C26.6211 7.08238 26.9913 7.36998 27.0395 7.77229C27.0638 7.97493 27.0018 8.1681 26.8818 8.31588C26.7637 8.46132 26.5898 8.56281 26.3872 8.58633ZM20.2303 9.99784C19.4753 10.2612 18.7226 10.5597 17.9926 10.8852C17.618 11.0523 17.1766 10.8887 17.007 10.52C16.8372 10.151 17.0031 9.71656 17.3779 9.54924C18.1459 9.20658 18.9385 8.89244 19.7331 8.61527C20.1208 8.48018 20.5463 8.67993 20.6838 9.06175C20.773 9.30971 20.7185 9.57337 20.5632 9.76483C20.4793 9.86817 20.3663 9.95046 20.2303 9.99784ZM1.37889 29.9223C0.980187 29.8231 0.738457 29.4244 0.8393 29.0317C1.04586 28.2273 1.29093 27.4209 1.56769 26.6351C1.70245 26.2524 2.12679 26.0498 2.51533 26.1826C2.9038 26.3151 3.10959 26.7329 2.97483 27.1155C2.71207 27.8616 2.47946 28.6273 2.28342 29.3911C2.25653 29.4959 2.20806 29.5896 2.14364 29.6689C1.96703 29.8867 1.67125 29.9952 1.37889 29.9223ZM14.5479 12.7164C13.8717 13.1382 13.2057 13.594 12.5688 14.0715C12.2413 14.3167 11.774 14.2544 11.525 13.9321C11.2757 13.6097 11.3406 13.1511 11.6666 12.9044C12.3374 12.4017 13.0386 11.9215 13.7509 11.4774C14.0983 11.2607 14.5584 11.3623 14.7786 11.7046C14.9532 11.9759 14.9243 12.3171 14.7315 12.5547C14.6812 12.6167 14.6197 12.6714 14.5479 12.7164ZM3.51157 23.886C3.14553 23.7015 3.00081 23.2594 3.18829 22.899C3.57244 22.1607 3.9942 21.429 4.44109 20.7239C4.65761 20.3791 5.11844 20.276 5.46735 20.4903C5.81612 20.7047 5.92233 21.1571 5.70455 21.5008C5.27966 22.1708 4.87894 22.8662 4.51401 23.5679C4.49075 23.6127 4.46324 23.6539 4.43252 23.6917C4.21607 23.9584 3.832 24.0477 3.51157 23.886ZM9.62587 16.6165C9.06288 17.1763 8.51701 17.7674 8.00347 18.3737C7.74008 18.685 7.27054 18.7267 6.9545 18.4673C6.64278 18.2114 6.59731 17.7575 6.84948 17.4467C6.85276 17.4426 6.8561 17.4385 6.85958 17.4347C7.40001 16.7962 7.97464 16.1738 8.56709 15.5845C8.85673 15.2968 9.32815 15.2945 9.62051 15.5794C9.89351 15.8455 9.9135 16.2684 9.67887 16.5575C9.6625 16.5778 9.64467 16.5975 9.62587 16.6165Z" fill="#BDD0FB"/>
<path d="M1.32705 34.7542C1.41856 34.6414 1.47747 34.5009 1.48792 34.3458C1.51327 33.9685 1.54733 33.5856 1.58841 33.2072C1.63243 32.8046 1.33645 32.443 0.927644 32.3998C0.518701 32.3564 0.150915 32.6476 0.107667 33.0506C0.0641402 33.4485 0.0285524 33.8512 0.00167026 34.2483C-0.0256298 34.6523 0.284978 35.0019 0.695175 35.0286C0.948188 35.0454 1.17996 34.9354 1.32705 34.7542Z" fill="#BDD0FB"/>
</g>
<g opacity="0.3">
<path d="M8.7843 55.8707C9.00862 55.5942 9.00249 55.1906 8.75303 54.9203C8.49472 54.6407 8.23795 54.3509 7.99023 54.0593C7.72621 53.7486 7.25654 53.7074 6.94113 53.9672C6.62439 54.2282 6.58393 54.6897 6.84767 55.0002C7.10862 55.3073 7.3789 55.6124 7.65086 55.907C7.92755 56.2066 8.39855 56.2287 8.70296 55.9563C8.73283 55.9295 8.75992 55.9008 8.7843 55.8707Z" fill="#BDD0FB"/>
<path d="M51.9662 55.629C51.6941 55.9327 51.2234 55.9616 50.9149 55.6934C50.6065 55.4255 50.5775 54.9628 50.8495 54.6585C51.3677 54.0804 51.8688 53.4715 52.3451 52.8422C52.5886 52.5183 53.0576 52.4505 53.3874 52.6925C53.7172 52.9345 53.7853 53.394 53.5396 53.7188C53.3332 53.9914 53.123 54.2597 52.9092 54.5233C52.604 54.8994 52.2868 55.2715 51.9662 55.629ZM54.7265 50.647C54.3666 50.4512 54.236 50.0051 54.435 49.6507C54.8167 48.97 55.1735 48.2663 55.4952 47.5588C55.6619 47.1891 56.1037 47.0236 56.4793 47.189C56.8545 47.3544 57.0226 47.7882 56.8546 48.1578C56.516 48.9028 56.1404 49.6437 55.7385 50.3598C55.7177 50.397 55.694 50.4317 55.6681 50.4637C55.4458 50.7376 55.0489 50.8223 54.7265 50.647ZM49.0787 58.4369C48.4507 58.969 47.7909 59.4822 47.1174 59.9616C46.7841 60.1989 46.3185 60.1252 46.0774 59.7969C45.8365 59.4688 45.9116 59.0108 46.2446 58.773C46.8843 58.3178 47.5107 57.8307 48.107 57.3253C48.4189 57.0611 48.889 57.0957 49.1575 57.4028C49.3948 57.6743 49.3944 58.068 49.1752 58.3381C49.1467 58.3733 49.1146 58.4065 49.0787 58.4369ZM57.3318 44.9047C56.937 44.7915 56.7098 44.3844 56.825 43.9957C57.0455 43.2503 57.2361 42.4868 57.3918 41.7263C57.4729 41.3289 57.8655 41.0722 58.2689 41.1523C58.6721 41.2323 58.9331 41.6188 58.8519 42.0158C58.6879 42.8167 58.4872 43.6208 58.2552 44.4057C58.227 44.5004 58.1814 44.5856 58.1224 44.6583C57.9395 44.8835 57.6302 44.9902 57.3318 44.9047ZM43.6755 62.0733C42.9444 62.4562 42.1864 62.8135 41.4225 63.1356C41.0444 63.295 40.6068 63.1225 40.4448 62.7503C40.2827 62.3779 40.4581 61.9468 40.8362 61.7875C41.5618 61.4814 42.2818 61.1421 42.976 60.7784C43.3392 60.5883 43.7903 60.724 43.9834 61.0816C44.1273 61.348 44.0875 61.6624 43.9077 61.884C43.8462 61.9598 43.768 62.0248 43.6755 62.0733ZM37.5934 64.4546C36.7931 64.6714 35.9741 64.8574 35.1593 65.0077C34.7549 65.082 34.366 64.8199 34.2902 64.4217C34.2145 64.023 34.4809 63.6401 34.8854 63.5661C35.6595 63.4234 36.4378 63.2466 37.1984 63.0407C37.595 62.9333 38.0049 63.1628 38.1141 63.5533C38.1797 63.7887 38.1211 64.0287 37.9774 64.2059C37.8826 64.3226 37.7509 64.4121 37.5934 64.4546ZM31.1285 65.4745C30.2988 65.5145 29.4581 65.5205 28.6301 65.4924C28.2189 65.4783 27.8974 65.1389 27.9115 64.7342C27.9257 64.3289 28.2705 64.0127 28.6814 64.0267C29.4683 64.0536 30.2669 64.0477 31.0556 64.0097C31.4664 63.9898 31.8158 64.3017 31.8359 64.7061C31.8452 64.892 31.7835 65.0649 31.6742 65.1995C31.5453 65.3582 31.3506 65.4636 31.1285 65.4745ZM24.5917 65.0813C23.7733 64.9417 22.9513 64.7662 22.1488 64.5592C21.751 64.4567 21.5127 64.0559 21.617 63.6641C21.721 63.2729 22.1282 63.038 22.5262 63.1406C23.288 63.337 24.0683 63.5037 24.846 63.6362C25.2512 63.7053 25.5228 64.0847 25.4526 64.4837C25.4304 64.6098 25.3769 64.7226 25.3012 64.8159C25.1371 65.0181 24.8692 65.1285 24.5917 65.0813ZM18.2992 63.2825C17.534 62.9696 16.7722 62.6202 16.0348 62.244C15.6695 62.0577 15.5268 61.615 15.7161 61.2555C15.9049 60.8971 16.3547 60.7554 16.7199 60.9417C17.4203 61.2991 18.1439 61.6309 18.8707 61.9283C19.2504 62.0834 19.4305 62.5127 19.2727 62.8866C19.2452 62.9517 19.2094 63.011 19.1668 63.0635C18.9649 63.3123 18.6129 63.4108 18.2992 63.2825ZM12.5673 60.1704C12.0679 59.8244 11.5732 59.4591 11.097 59.0845C10.9245 58.9487 10.7542 58.8117 10.5856 58.673C10.2701 58.4135 10.2184 57.9499 10.4916 57.6403C10.7551 57.3293 11.2248 57.2878 11.5406 57.5475C11.7008 57.6791 11.8629 57.8097 12.0267 57.9387C12.4795 58.2948 12.9495 58.642 13.4244 58.971C13.7608 59.204 13.8416 59.6615 13.6049 59.9926C13.5959 60.0051 13.5868 60.0173 13.5773 60.029C13.3334 60.3294 12.8909 60.3947 12.5673 60.1704Z" fill="#BDD0FB"/>
<path d="M59.2117 38.4464C59.3041 38.3325 59.363 38.1906 59.3729 38.0342C59.3977 37.6379 59.4144 37.2337 59.4225 36.8326C59.4309 36.4276 59.1043 36.0927 58.6931 36.0846C58.2819 36.0766 57.9417 36.3977 57.9334 36.8029C57.9256 37.1839 57.9097 37.5679 57.8862 37.9441C57.8608 38.3481 58.1731 38.696 58.5836 38.721C58.8354 38.7362 59.0655 38.6265 59.2117 38.4464Z" fill="#BDD0FB"/>
</g>
<path d="M50.7705 29.019C50.7391 28.876 50.6192 28.7684 50.4718 28.7509L46.2657 28.2524C45.4188 26.4918 44.2807 24.8516 42.867 23.409L43.8778 19.3608C43.9132 19.2188 43.8533 19.0704 43.7285 18.991L39.4589 16.2778C39.3341 16.1984 39.1719 16.2059 39.0552 16.2961L35.7252 18.8705C33.8078 18.1962 31.821 17.8506 29.8428 17.816L27.649 14.2475C27.5721 14.1224 27.423 14.0592 27.2779 14.09L22.3103 15.1441C22.1652 15.1749 22.0558 15.2931 22.0381 15.4382L21.5319 19.5797C19.7438 20.4136 18.0779 21.5341 16.6128 22.9263L12.5015 21.931C12.3573 21.8961 12.2065 21.9551 12.126 22.078L9.37039 26.282C9.28988 26.4049 9.2974 26.5645 9.38912 26.6795L12.0037 29.9584C11.3188 31.8463 10.9679 33.8026 10.9327 35.7503L7.30847 37.9104C7.18145 37.9861 7.1171 38.1328 7.1485 38.2758L8.21906 43.1671C8.25033 43.31 8.37032 43.4177 8.51768 43.4351L12.7239 43.9337C13.5707 45.6943 14.7088 47.3344 16.1226 48.7771L15.1118 52.8252C15.0763 52.9672 15.1363 53.1157 15.2611 53.195L19.5307 55.9083C19.6555 55.9875 19.8176 55.9801 19.9344 55.8899L23.2645 53.3155C25.1818 53.9898 27.1687 54.3353 29.1468 54.37L31.3406 57.9385C31.4175 58.0636 31.5665 58.1269 31.7118 58.0961L36.6793 57.042C36.8245 57.0112 36.9338 56.8931 36.9516 56.748L37.4578 52.6064C39.2459 51.7726 40.9117 50.6519 42.3768 49.2599L46.4881 50.2552C46.6322 50.29 46.7831 50.231 46.8636 50.1081L49.6192 45.9041C49.6997 45.7812 49.6923 45.6217 49.6005 45.5066L46.9861 42.2278C47.6709 40.3398 48.0217 38.3835 48.057 36.4358L51.6813 34.2757C51.8083 34.2 51.8725 34.0531 51.8412 33.9103L50.7705 29.019Z" fill="#7D97F4"/>
<path d="M32.976 39.7726C30.9159 41.6637 27.6775 41.5522 25.7567 39.5236C24.8262 38.541 24.3401 37.2604 24.388 35.9178C24.4356 34.5755 25.0113 33.3314 26.0096 32.4153C28.0697 30.5243 31.3081 30.6358 33.229 32.6644C34.9763 34.5098 35.0401 37.3155 33.4859 39.231C33.3318 39.4208 33.1617 39.6021 32.976 39.7726ZM25.5789 35.959C25.5423 36.9885 25.9149 37.9702 26.6284 38.7237C28.1009 40.2788 30.5841 40.3645 32.1635 38.9146C33.7439 37.4647 33.8299 35.0196 32.3573 33.4643C30.8849 31.9092 28.4016 31.8235 26.8222 33.2734C26.679 33.405 26.5473 33.5451 26.4274 33.693C25.9061 34.3354 25.6087 35.1223 25.5789 35.959Z" fill="#BDD0FB"/>
<path d="M39.1851 43.8436C39.4521 43.5146 39.7037 43.1705 39.9388 42.8119C40.0128 42.6991 40.085 42.585 40.1553 42.4698C40.5018 41.9018 40.8019 41.3077 41.0509 40.6964C41.0543 40.6881 41.0577 40.6797 41.0612 40.6714C41.0707 40.6478 41.0802 40.6241 41.0895 40.6003C41.108 40.5541 41.1259 40.5077 41.1437 40.4614C41.1905 40.3395 41.1494 40.2061 41.0513 40.1287C41.0274 40.11 41.0001 40.0945 40.9701 40.0834C40.8162 40.0261 40.6446 40.1031 40.5863 40.2543C40.2875 41.0343 39.9012 41.7876 39.4382 42.4936C37.1398 46.0012 33.2543 47.9044 29.2999 47.8823C27.1005 47.8703 24.8796 47.2625 22.8985 46.0034C22.551 45.7828 22.2175 45.5463 21.8989 45.2955C19.7545 43.6082 18.2768 41.2656 17.6909 38.5877C17.0176 35.5118 17.6011 32.3617 19.334 29.718C22.9133 24.2584 30.3312 22.686 35.8736 26.2082C36.2153 26.4253 36.5447 26.6587 36.8603 26.9072C38.2282 27.9836 39.3416 29.3427 40.1159 30.891C40.136 30.9309 40.1639 30.9645 40.1972 30.9905C40.2844 31.0591 40.4078 31.0764 40.5147 31.0245C40.6622 30.9524 40.7235 30.7773 40.6503 30.6316C39.8374 29.0062 38.6685 27.5791 37.2325 26.4491C36.9012 26.1883 36.5555 25.9434 36.1969 25.7153C30.3779 22.0173 22.5877 23.6722 18.8334 29.3998C17.0141 32.1752 16.4016 35.4821 17.1085 38.7113C17.7237 41.5226 19.2749 43.9819 21.5261 45.7533C21.8607 46.0165 22.2108 46.2646 22.5753 46.4964C25.3943 48.2877 28.7527 48.891 32.0322 48.195C34.8879 47.5891 37.386 46.061 39.1851 43.8436Z" fill="#BDD0FB"/>
<g opacity="0.3">
<path d="M81.8628 8.876C81.987 8.72295 82 8.50214 81.8798 8.33345C81.6558 8.01856 81.419 7.706 81.1759 7.40462C81.018 7.20878 80.7289 7.17613 80.5297 7.33159C80.3298 7.48657 80.2976 7.77204 80.4555 7.96795C80.6871 8.25514 80.9128 8.55295 81.1267 8.85344C81.2722 9.0582 81.5591 9.10778 81.7674 8.96446C81.8042 8.93895 81.836 8.90905 81.8628 8.876Z" fill="#BDD0FB"/>
<path d="M79.5406 6.25266C79.3625 6.43102 79.0716 6.4339 78.8901 6.25863C78.4322 5.81667 77.9461 5.39262 77.4452 4.99866C77.3396 4.91555 77.2326 4.8334 77.1245 4.75201C76.923 4.59998 76.8845 4.31581 77.0388 4.11708C77.1924 3.93495 77.4818 3.88078 77.684 4.03274C77.7971 4.11804 77.9089 4.20403 78.0195 4.29099C78.5445 4.704 79.0543 5.14856 79.5343 5.61226C79.7042 5.77622 79.7173 6.03851 79.5719 6.21783C79.5622 6.22969 79.5516 6.24121 79.5406 6.25266ZM75.1862 3.46811C74.516 3.08039 73.8154 2.72998 73.1038 2.42702C72.8706 2.32759 72.7635 2.06139 72.8643 1.83153C72.9649 1.60332 73.2358 1.49621 73.4691 1.59564C74.2148 1.91307 74.9494 2.28035 75.6521 2.68705C75.8712 2.81385 75.9444 3.09136 75.8158 3.30723C75.8045 3.32609 75.7916 3.34399 75.7781 3.36079C75.6377 3.53394 75.3859 3.58351 75.1862 3.46811ZM70.906 1.64742C70.1608 1.43347 69.3942 1.26354 68.627 1.14203C68.3764 1.10226 68.2057 0.869794 68.246 0.622999C68.2866 0.375312 68.522 0.207719 68.7732 0.247628C69.5777 0.374969 70.382 0.553601 71.1632 0.77763C71.4071 0.847712 71.5475 1.09917 71.4763 1.33925C71.4587 1.39767 71.4305 1.4502 71.3941 1.49511C71.2813 1.63411 71.0903 1.70015 70.906 1.64742ZM66.3021 0.917794C65.5252 0.890296 64.7393 0.910114 63.9675 0.976973C63.7142 0.998711 63.4911 0.814455 63.469 0.565328C63.447 0.31675 63.6338 0.0965597 63.8868 0.074479C64.6968 0.00453425 65.5202 -0.0162424 66.3352 0.0125584C66.589 0.0214729 66.7875 0.231718 66.7785 0.4816C66.7744 0.582265 66.7377 0.674222 66.6782 0.747526C66.5904 0.855872 66.4536 0.923211 66.3021 0.917794ZM61.6569 1.3171C60.8968 1.47639 60.14 1.68355 59.4067 1.93261C59.1668 2.01428 58.9048 1.88859 58.822 1.65208C58.7391 1.41557 58.8662 1.15753 59.1069 1.07627C59.8753 0.81514 60.6688 0.598175 61.4652 0.430856C61.7137 0.379015 61.958 0.534949 62.0108 0.779413C62.0407 0.917588 62.0033 1.05453 61.9202 1.15684C61.8562 1.23577 61.765 1.29426 61.6569 1.3171ZM57.2508 2.81453C56.5537 3.15075 55.8716 3.53298 55.2231 3.951C55.0108 4.08794 54.7254 4.02938 54.5864 3.82016C54.4475 3.61094 54.5066 3.3311 54.7193 3.19299C55.3992 2.75467 56.115 2.35365 56.8462 2.00098C57.0743 1.89119 57.3499 1.9839 57.4615 2.20841C57.5423 2.371 57.5153 2.55814 57.4077 2.69069C57.3666 2.74123 57.314 2.78415 57.2508 2.81453ZM53.3521 5.32644C52.762 5.81928 52.1954 6.35518 51.6684 6.91974C51.4962 7.10366 51.2053 7.11566 51.0184 6.94628C50.8314 6.77718 50.8219 6.49335 50.9911 6.30608C51.544 5.71463 52.138 5.15268 52.7569 4.63577C52.9507 4.47408 53.2411 4.49753 53.4054 4.68823C53.5499 4.85596 53.5487 5.09761 53.4141 5.26342C53.3959 5.28591 53.3753 5.3071 53.3521 5.32644ZM48.332 10.8362C48.1088 10.7166 48.0264 10.4418 48.1479 10.222C48.4839 9.61365 48.8597 9.01308 49.2633 8.43837C49.3241 8.35066 49.3861 8.26433 49.4485 8.1782C49.5897 7.97166 49.8839 7.92798 50.0905 8.07438C50.297 8.22017 50.3441 8.5029 50.1963 8.70642C50.1374 8.78693 50.0793 8.86832 50.0213 8.95198C49.6347 9.50201 49.2764 10.0749 48.9558 10.6549C48.9427 10.6788 48.9274 10.7011 48.9109 10.7215C48.7742 10.8899 48.5307 10.9427 48.332 10.8362Z" fill="#BDD0FB"/>
</g>
<g opacity="0.3">
<path d="M80.9498 31.9858C80.4413 32.5962 79.8904 33.1809 79.313 33.7247C79.1292 33.8973 78.8382 33.8911 78.6625 33.7101C78.4868 33.5291 78.4965 33.2429 78.6774 33.0696C79.2284 32.5514 79.7536 31.9933 80.2387 31.4111C80.3997 31.2176 80.6897 31.1896 80.8859 31.3482C81.0807 31.5056 81.1105 31.7878 80.9538 31.981C80.9524 31.9826 80.951 31.9843 80.9498 31.9858ZM81.7281 30.2032C81.514 30.0689 81.4508 29.7888 81.5874 29.578C81.9978 28.9433 82.3734 28.2777 82.7034 27.5996C82.8132 27.3757 83.0879 27.2788 83.3172 27.3873C83.5463 27.4954 83.6427 27.7656 83.5331 27.9914C83.1871 28.7019 82.7936 29.3995 82.3633 30.0645C82.3541 30.0786 82.3447 30.0917 82.3342 30.1045C82.1896 30.2828 81.9285 30.3288 81.7281 30.2032ZM77.4721 35.2558C76.8285 35.7273 76.1504 36.1641 75.4564 36.5539C75.2357 36.6778 74.9544 36.6021 74.8288 36.3849C74.7026 36.1677 74.7796 35.8921 75.0001 35.767C75.6624 35.3952 76.3091 34.9786 76.9233 34.5291C77.1272 34.3798 77.4153 34.4216 77.5667 34.6219C77.6942 34.7908 77.6845 35.0181 77.5572 35.175C77.5331 35.2048 77.5047 35.232 77.4721 35.2558ZM83.8569 26.0772C83.6161 25.9976 83.4866 25.7407 83.5675 25.5036C83.8109 24.7905 84.0121 24.0556 84.1653 23.3191C84.2167 23.0744 84.4599 22.9164 84.7081 22.9662C84.957 23.0165 85.1176 23.2558 85.0665 23.5009C84.9061 24.2734 84.695 25.0444 84.4395 25.7922C84.4217 25.8439 84.3955 25.8904 84.3628 25.9306C84.2456 26.075 84.0451 26.1395 83.8569 26.0772ZM73.2963 37.6005C72.5582 37.905 71.7933 38.1681 71.0229 38.3829C70.7784 38.4509 70.5241 38.3109 70.4549 38.0702C70.3857 37.8295 70.5274 37.579 70.7724 37.5109C71.5075 37.3065 72.2367 37.0554 72.9406 36.7647C73.1748 36.6681 73.4444 36.7766 73.5426 37.0076C73.61 37.1656 73.5791 37.3403 73.4775 37.4656C73.4311 37.5229 73.3698 37.5701 73.2963 37.6005ZM68.6706 38.8905C67.8783 39.0123 67.0713 39.0877 66.2725 39.1149C66.0188 39.1236 65.806 38.9282 65.7972 38.6782C65.7882 38.4285 65.9869 38.2185 66.2411 38.2098C67.0027 38.1838 67.7725 38.1116 68.5286 37.9954C68.7796 37.9567 69.0149 38.126 69.0541 38.3731C69.0747 38.5037 69.0366 38.63 68.9588 38.7259C68.8895 38.8112 68.7887 38.8723 68.6706 38.8905ZM63.8637 39.0529C63.0643 38.9845 62.2622 38.867 61.4801 38.7041C61.2314 38.6522 61.0727 38.4119 61.1253 38.1671C61.1777 37.9225 61.4223 37.7664 61.6704 37.8177C62.4163 37.9734 63.1811 38.0853 63.9432 38.1501C64.1963 38.1718 64.3838 38.3914 64.3616 38.6406C64.3537 38.7332 64.3178 38.8164 64.2631 38.8838C64.1703 38.9982 64.0231 39.0664 63.8637 39.0529Z" fill="#BDD0FB"/>
<path d="M85.3079 21.377C85.3633 21.3088 85.3992 21.2241 85.4068 21.1304C85.4381 20.744 85.4576 20.3549 85.4655 19.9739C85.4705 19.724 85.2688 19.5169 85.0149 19.5118C84.7614 19.5075 84.5512 19.7056 84.5455 19.9556C84.5382 20.319 84.5193 20.6902 84.4897 21.0589C84.4696 21.3083 84.6588 21.5265 84.9119 21.5462C85.0699 21.5584 85.2158 21.4905 85.3079 21.377Z" fill="#BDD0FB"/>
</g>
<path d="M79.7068 14.7448C79.6857 14.6492 79.6056 14.5772 79.5069 14.5654L76.6923 14.2318C76.1256 13.0537 75.364 11.9562 74.4181 10.9909L75.0944 8.282C75.1181 8.18696 75.0781 8.08766 74.9946 8.03452L72.1375 6.21897C72.0541 6.16583 71.9455 6.17083 71.8675 6.23118L69.6392 7.95388C68.3561 7.50267 67.0267 7.27137 65.703 7.24819L64.235 4.86033C64.1836 4.7766 64.0838 4.73429 63.9867 4.75493L60.6626 5.46028C60.5655 5.48085 60.4923 5.55991 60.4804 5.65708L60.1417 8.42834C58.9452 8.98632 57.8305 9.73617 56.8501 10.6677L54.099 10.0018C54.0025 9.97844 53.9015 10.0179 53.8477 10.1001L52.0038 12.9132C51.9499 12.9955 51.955 13.1022 52.0163 13.1792L53.7658 15.3733C53.3076 16.6366 53.0727 17.9457 53.0492 19.249L50.624 20.6945C50.539 20.7451 50.496 20.8433 50.517 20.9389L51.2333 24.212C51.2543 24.3076 51.3345 24.3796 51.4331 24.3913L54.2477 24.7249C54.8144 25.903 55.5759 27.0006 56.522 27.9659L55.8456 30.6748C55.8219 30.7697 55.862 30.8691 55.9455 30.9222L58.8025 32.7378C58.886 32.7908 58.9945 32.7859 59.0727 32.7254L61.301 31.0028C62.584 31.454 63.9135 31.6853 65.2372 31.7084L66.7051 34.0963C66.7566 34.18 66.8562 34.2223 66.9535 34.2018L70.2775 33.4964C70.3747 33.4758 70.4478 33.3968 70.4597 33.2996L70.7985 30.5283C71.9949 29.9703 73.1096 29.2205 74.0901 28.2889L76.8412 28.9549C76.9376 28.9782 77.0385 28.9387 77.0925 28.8565L78.9364 26.0434C78.9902 25.9612 78.9853 25.8543 78.9238 25.7775L77.1744 23.5834C77.6327 22.3201 77.8674 21.011 77.891 19.7077L80.3162 18.2622C80.4012 18.2116 80.4442 18.1134 80.4232 18.0178L79.7068 14.7448Z" fill="#7D97F4"/>
<path d="M67.8425 21.9841C67.1628 22.6085 66.2767 22.9345 65.3478 22.9023C64.4193 22.8704 63.5586 22.4842 62.9249 21.8147C61.6167 20.4332 61.6943 18.2648 63.0971 16.9724C64.5008 15.6846 66.7066 15.7608 68.0144 17.1422C68.6483 17.8114 68.9795 18.6838 68.9469 19.5983C68.9205 20.3417 68.6562 21.0407 68.1931 21.6116C68.0865 21.7427 67.9694 21.8674 67.8425 21.9841ZM63.5975 21.1969C64.0638 21.6894 64.6967 21.9736 65.3802 21.9972C66.0632 22.0207 66.715 21.7808 67.215 21.3218C67.7145 20.8622 68.0035 20.2395 68.0275 19.5665C68.0516 18.894 67.8076 18.2523 67.3417 17.7601C66.3794 16.7438 64.7569 16.6877 63.7244 17.635C63.6313 17.7206 63.5462 17.8113 63.469 17.9066C62.6902 18.8663 62.7221 20.2725 63.5975 21.1969Z" fill="#BDD0FB"/>
<path d="M72.1702 24.8178C72.3519 24.5939 72.5233 24.3591 72.6847 24.1134C73.0047 23.6255 73.2746 23.1051 73.4874 22.5651C73.4968 22.5407 73.5061 22.5164 73.5155 22.492C73.5878 22.3037 73.5243 22.0979 73.3728 21.9784C73.336 21.9495 73.2938 21.9256 73.2475 21.9084C73.0099 21.82 72.7453 21.9391 72.655 22.1723C72.4612 22.6783 72.211 23.1659 71.9118 23.6218L71.9117 23.622C71.8954 23.6471 71.8785 23.672 71.8619 23.6967C71.1439 24.7694 70.1816 25.6253 69.06 26.214C68.4511 26.5335 67.7948 26.7742 67.1043 26.9271C67.0987 26.9283 67.0931 26.9295 67.0875 26.9308C67.0702 26.9345 67.0532 26.9384 67.036 26.9419C65.0136 27.3709 62.9425 26.999 61.2043 25.8944C60.9792 25.7515 60.7636 25.5986 60.5572 25.4362C59.1689 24.3439 58.2125 22.8272 57.8329 21.0935C57.3972 19.1022 57.7752 17.0631 58.8969 15.3518C60.0186 13.642 61.7503 12.4615 63.7725 12.032C65.7949 11.603 67.866 11.9749 69.6041 13.0795C69.8254 13.2199 70.0385 13.3712 70.2427 13.5318C71.1284 14.2288 71.8491 15.1085 72.3503 16.1108C72.3813 16.1726 72.4243 16.2243 72.4757 16.2644C72.6105 16.3704 72.801 16.3972 72.9661 16.317C73.1936 16.2058 73.2879 15.9352 73.1754 15.7103C72.6146 14.589 71.8081 13.6044 70.8177 12.8247C70.5889 12.6447 70.3506 12.4757 70.1032 12.3184C68.1582 11.0825 65.8413 10.6664 63.5785 11.1466C61.3162 11.6269 59.3783 12.9438 58.124 14.8604C56.8687 16.7752 56.446 19.0564 56.934 21.2844C57.3582 23.224 58.4285 24.9208 59.9817 26.1429C60.2123 26.3242 60.4539 26.4956 60.7053 26.6555C64.4706 29.0478 69.4311 28.1935 72.1702 24.8178Z" fill="#BDD0FB"/>
<defs>
<linearGradient id="paint0_linear_2151_28947" x1="205.701" y1="216.878" x2="66.1506" y2="63.9027" gradientUnits="userSpaceOnUse">
<stop stop-color="#DAE3FE"/>
<stop offset="1" stop-color="#E9EFFD"/>
</linearGradient>
</defs>
</svg>
