<svg width="170" height="340" viewBox="0 0 170 340" fill="none" xmlns="http://www.w3.org/2000/svg">
<path d="M68.1563 86.6777L62.8105 104.156L30.5605 121.634L32.0172 129.152C32.0172 129.152 67.2678 123.191 69.8897 119.71C72.5117 116.229 81.1932 91.9668 81.1932 91.9668L68.1563 86.6777Z" fill="#E9B376"/>
<path opacity="0.3" d="M66.8468 90.9648L66.002 93.7123L76.1838 98.7329L77.4147 102.366L78.2668 100.102L77.8735 94.1329L66.8468 90.9648Z" fill="black"/>
<path d="M37.8501 119.727C37.8501 119.727 36.6192 116.461 34.3323 115.467C32.0454 114.474 30.4431 112.944 28.7024 112.353C26.9617 111.762 28.3164 114.25 29.2559 115.396C30.1954 116.541 31.2442 117.848 30.4285 118.582C29.6128 119.316 21.0113 120.399 19.9917 121.598C18.972 122.797 20.3923 123.11 20.3923 123.11C20.3923 123.11 18.3093 123.459 18.2073 124.506C18.2073 124.784 18.4695 125.473 19.4382 125.5C21.6231 125.562 26.197 125.392 26.197 125.392C25.9348 125.392 20.2903 126.099 19.46 126.341C18.3675 126.654 18.0034 127.487 18.1563 128.256C18.3967 129.357 25.4395 128.775 25.7235 129.008C25.7235 129.008 21.6741 129.169 21.1352 130.476C20.5962 131.782 23.1526 131.854 25.4177 131.371C27.4861 130.941 31.6448 130.771 33.7205 130.082C36.2769 129.187 37.8355 127.961 38.2361 124.954C38.4738 123.2 38.3409 121.4 37.8501 119.727Z" fill="#E9B376"/>
<path opacity="0.3" d="M20.6487 123.084C20.629 123.077 20.6116 123.062 20.5992 123.042C20.5868 123.022 20.5801 122.997 20.5801 122.972C20.5801 122.947 20.5868 122.922 20.5992 122.902C20.6116 122.882 20.629 122.867 20.6487 122.86C22.3239 122.636 24.0281 122.502 25.7033 122.466C25.7154 122.465 25.7275 122.467 25.739 122.472C25.7504 122.476 25.7609 122.484 25.7698 122.494C25.7787 122.504 25.7858 122.517 25.7907 122.53C25.7955 122.544 25.798 122.559 25.798 122.574C25.798 122.604 25.788 122.634 25.7702 122.656C25.7525 122.678 25.7284 122.69 25.7033 122.69C24.0354 122.69 22.3384 122.86 20.6706 123.084H20.6487Z" fill="black"/>
<path opacity="0.3" d="M27.2739 129.116C27.257 129.116 27.2405 129.111 27.2263 129.099C27.2121 129.088 27.2008 129.072 27.1937 129.054C26.3926 126.521 26.2103 123.756 26.6694 121.098C26.6722 121.083 26.6773 121.07 26.6844 121.058C26.6914 121.047 26.7003 121.037 26.7104 121.029C26.7206 121.022 26.7318 121.017 26.7435 121.015C26.7552 121.013 26.7671 121.013 26.7786 121.017C26.7901 121.021 26.8009 121.027 26.8104 121.035C26.8199 121.044 26.8279 121.055 26.834 121.067C26.8401 121.08 26.8441 121.094 26.8459 121.108C26.8476 121.122 26.847 121.137 26.8442 121.151C26.3937 123.762 26.5734 126.477 27.3613 128.964C27.3709 128.993 27.371 129.025 27.3614 129.053C27.3567 129.067 27.3497 129.08 27.341 129.091C27.3322 129.102 27.3218 129.11 27.3103 129.116H27.2739Z" fill="black"/>
<path opacity="0.3" d="M34.8939 123.2C34.0241 123.206 33.177 122.859 32.4851 122.211C31.7933 121.563 31.2957 120.652 31.0702 119.62C31.0656 119.591 31.0697 119.562 31.0818 119.537C31.094 119.512 31.1132 119.494 31.1357 119.485C31.1589 119.477 31.1839 119.479 31.2056 119.493C31.2273 119.506 31.244 119.529 31.2523 119.557C31.4729 120.597 31.9825 121.508 32.6929 122.134C33.4033 122.76 34.2695 123.061 35.1415 122.985C35.1662 122.984 35.1901 122.995 35.2089 123.015C35.2277 123.035 35.2399 123.062 35.2435 123.092C35.2445 123.107 35.243 123.122 35.239 123.136C35.2351 123.15 35.2288 123.163 35.2206 123.174C35.2124 123.185 35.2024 123.194 35.1913 123.2C35.1802 123.205 35.1682 123.209 35.1561 123.208L34.8939 123.2Z" fill="black"/>
<path d="M44.874 71.9287C44.874 71.9287 51.0064 71.9287 52.9219 81.0392C54.8374 90.1498 54.4514 124.695 55.4273 129.805C56.4033 134.915 64.575 172.968 66.4322 191.359C66.4322 191.359 57.7652 192.254 56.9641 192.084C56.1629 191.914 43.2207 117.025 43.2207 117.025L44.874 71.9287Z" fill="#A2BDFF"/>
<g opacity="0.3">
<path d="M44.8701 71.9287C44.8701 71.9287 51.0025 71.9287 52.918 81.0392C54.8335 90.1498 54.4475 124.695 55.4234 129.805C56.3994 134.915 64.5711 172.968 66.4283 191.359C66.4283 191.359 57.7613 192.254 56.9602 192.084C56.159 191.914 43.2168 117.025 43.2168 117.025L44.8701 71.9287Z" fill="black"/>
</g>
<path d="M57.0648 88.4852C61.3837 99.2245 68.259 110.581 68.259 110.581C70.444 110.17 85.0832 102.822 85.0832 102.822L86.6927 110.501C83.697 114.125 80.4484 117.419 76.9843 120.345C68.1571 127.505 64.9015 127.012 60.4005 121.24C55.8995 115.468 46.7227 94.1949 46.7227 94.1949L49.9273 74.8999L49.1261 73.7812C53.984 76.3766 54.9526 83.3213 57.0648 88.4852Z" fill="#A2BDFF"/>
<g opacity="0.3">
<path d="M57.0667 88.4852C61.3857 99.2245 68.261 110.581 68.261 110.581C70.4459 110.17 85.0851 102.822 85.0851 102.822L86.6947 110.501C83.699 114.125 80.4504 117.419 76.9862 120.345C68.159 127.505 64.9034 127.012 60.4024 121.24C55.9014 115.468 46.7246 94.1949 46.7246 94.1949L49.9292 74.8999L49.1281 73.7812C53.9859 76.3766 54.9546 83.3213 57.0667 88.4852Z" fill="black"/>
</g>
<path opacity="0.3" d="M54.6316 111.163C54.6316 111.163 55.3599 101.874 54.6316 96.71C53.9032 91.5462 53.1094 86.6777 53.1094 86.6777C53.1094 86.6777 55.8916 94.4906 56.2047 100.191C56.5179 105.892 56.3213 114.51 56.3213 114.51L54.6316 111.163Z" fill="black"/>
<path opacity="0.3" d="M76.8399 106.867C76.7816 106.867 78.0416 119.459 78.0416 119.459L80.1173 117.571L78.7845 105.937L76.8399 106.867Z" fill="black"/>
<path d="M6.06836 328.84L13.9196 329.78L18.2094 305.142L6.06836 303.746V328.84Z" fill="#E9B376"/>
<path d="M15.0585 325.852H12.2545C11.9406 325.857 11.6321 325.954 11.3539 326.132C11.0756 326.311 10.8353 326.567 10.6522 326.881C9.03532 329.566 7.82632 328.563 6.06379 325.986C4.94218 325.825 4.64357 327.409 4.55617 327.829L2.45861 337.199C2.3777 337.571 2.41859 337.966 2.57249 338.301C2.72638 338.636 2.981 338.883 3.28161 338.989C3.39474 339.033 3.51272 339.054 3.6312 339.052H25.8158C29.3481 339.052 30.0837 334.676 28.6271 334.273C22.0722 332.483 17.4474 330.129 15.4227 327.785C15.0804 327.427 15.4591 327.131 15.0585 325.852Z" fill="#A2BDFF"/>
<path opacity="0.3" d="M15.0585 325.852H12.2545C11.9406 325.857 11.6321 325.954 11.3539 326.132C11.0756 326.311 10.8353 326.567 10.6522 326.881C9.03532 329.566 7.82632 328.563 6.06379 325.986C4.94218 325.825 4.64357 327.409 4.55617 327.829L2.45861 337.199C2.3777 337.571 2.41859 337.966 2.57249 338.301C2.72638 338.636 2.981 338.883 3.28161 338.989C3.39474 339.033 3.51272 339.054 3.6312 339.052H25.8158C29.3481 339.052 30.0837 334.676 28.6271 334.273C22.0722 332.483 17.4474 330.129 15.4227 327.785C15.0804 327.427 15.4591 327.131 15.0585 325.852Z" fill="black"/>
<path d="M21.1439 328.518C21.2893 328.389 21.4079 328.219 21.4901 328.023C21.5724 327.828 21.6159 327.611 21.6173 327.39C21.6316 327.274 21.6178 327.155 21.5777 327.049C21.5376 326.942 21.4728 326.852 21.3915 326.791C20.5103 326.021 17.0216 328.035 16.6138 328.267C16.5926 328.278 16.5733 328.294 16.557 328.314C16.5408 328.334 16.5279 328.357 16.5191 328.384C16.505 328.432 16.507 328.486 16.5247 328.533C16.5424 328.58 16.5744 328.616 16.6138 328.634C17.4762 328.883 18.3573 329.021 19.243 329.046C19.9063 329.124 20.5725 328.939 21.1439 328.518ZM21.1439 327.113C21.1795 327.138 21.2073 327.178 21.2231 327.225C21.2389 327.271 21.2417 327.323 21.2313 327.372C21.2239 327.531 21.1897 327.687 21.1308 327.828C21.0718 327.97 20.9895 328.095 20.889 328.196C20.0879 328.921 18.1651 328.607 17.1309 328.375C18.6167 327.587 20.7215 326.701 21.1731 327.131L21.1439 327.113Z" fill="#263238"/>
<path d="M16.7282 328.679C17.7842 328.133 19.991 325.994 19.8672 324.884C19.8672 324.651 19.7143 324.365 19.2409 324.293C17.3181 324.016 16.4878 328.258 16.4878 328.437C16.48 328.474 16.4807 328.512 16.4897 328.549C16.4987 328.585 16.5157 328.618 16.5388 328.643H16.6481L16.7282 328.679ZM19.1753 324.642C19.5322 324.642 19.5322 324.839 19.5322 324.893C19.6342 325.582 18.0319 327.345 16.8884 328.088C17.1215 327.103 17.8279 324.624 19.0734 324.624L19.1753 324.642Z" fill="#263238"/>
<path d="M14.0267 330.621C13.9959 330.633 13.9629 330.633 13.932 330.621C13.8919 330.59 13.8634 330.54 13.8525 330.484C13.8416 330.427 13.8493 330.367 13.8738 330.317C14.1516 329.783 14.5199 329.329 14.9536 328.986C15.3872 328.643 15.876 328.42 16.3865 328.33C16.4337 328.322 16.4815 328.338 16.5197 328.373C16.5578 328.408 16.5832 328.46 16.5904 328.518C16.5945 328.547 16.5938 328.577 16.5882 328.605C16.5827 328.634 16.5724 328.66 16.5581 328.684C16.5438 328.707 16.5257 328.727 16.5049 328.742C16.4842 328.756 16.4612 328.765 16.4375 328.769C15.9793 328.849 15.5407 329.051 15.1522 329.36C14.7636 329.669 14.4343 330.078 14.187 330.558C14.1663 330.584 14.141 330.603 14.1131 330.614C14.0852 330.625 14.0556 330.627 14.0267 330.621Z" fill="#263238"/>
<path d="M15.6975 332.053C15.6668 332.066 15.6335 332.066 15.6028 332.053C15.5822 332.038 15.5643 332.018 15.5501 331.995C15.5359 331.971 15.5257 331.945 15.5203 331.916C15.5148 331.888 15.5142 331.858 15.5183 331.829C15.5225 331.8 15.5314 331.773 15.5446 331.748C15.8209 331.213 16.1888 330.758 16.6228 330.415C17.0567 330.072 17.5462 329.849 18.0573 329.762C18.1045 329.754 18.1523 329.769 18.1905 329.805C18.2286 329.84 18.254 329.892 18.2612 329.95C18.2674 330.01 18.2542 330.071 18.2242 330.12C18.1943 330.168 18.15 330.2 18.101 330.209C17.6428 330.29 17.2042 330.491 16.8157 330.8C16.4271 331.109 16.0978 331.518 15.8505 331.999C15.8297 332.021 15.8052 332.037 15.7788 332.047C15.7524 332.056 15.7247 332.058 15.6975 332.053Z" fill="#263238"/>
<path d="M18.0788 333.493C18.0477 333.502 18.0153 333.502 17.9842 333.493C17.9633 333.478 17.9452 333.457 17.9309 333.433C17.9167 333.409 17.9065 333.381 17.9011 333.352C17.8956 333.323 17.895 333.292 17.8993 333.263C17.9036 333.233 17.9126 333.205 17.9259 333.18C18.2022 332.645 18.5702 332.19 19.0041 331.847C19.438 331.503 19.9275 331.281 20.4386 331.193C20.4858 331.186 20.5337 331.201 20.5718 331.236C20.6099 331.271 20.6353 331.323 20.6425 331.381C20.6466 331.411 20.6457 331.441 20.6397 331.47C20.6337 331.499 20.6228 331.527 20.6077 331.55C20.5926 331.574 20.5736 331.593 20.552 331.607C20.5304 331.621 20.5067 331.63 20.4823 331.632C20.0248 331.715 19.5872 331.918 19.199 332.227C18.8108 332.536 18.4809 332.943 18.2318 333.422C18.2123 333.447 18.1884 333.467 18.1619 333.479C18.1355 333.491 18.1071 333.496 18.0788 333.493Z" fill="#263238"/>
<path d="M44.1309 328.088L51.9821 329.036L55.6237 304.309L44.4659 302.814L44.1309 328.088Z" fill="#E9B376"/>
<path d="M53.1249 325.107H50.3209C50.0075 325.112 49.6992 325.206 49.4209 325.383C49.1426 325.56 48.9021 325.815 48.7186 326.128C47.1017 328.812 45.8927 327.819 44.1302 325.233C43.0159 325.072 42.71 326.647 42.6226 327.067L40.525 336.437C40.4441 336.809 40.485 337.204 40.6389 337.539C40.7928 337.874 41.0474 338.121 41.348 338.227C41.4615 338.268 41.5795 338.286 41.6976 338.281H63.9113C67.4437 338.281 68.1793 333.905 66.7226 333.502C60.1678 331.712 55.5429 329.358 53.5182 327.023C53.1468 326.683 53.5328 326.378 53.1249 325.107Z" fill="#A2BDFF"/>
<path d="M59.2068 327.775C59.3517 327.645 59.47 327.476 59.5522 327.28C59.6344 327.084 59.6782 326.868 59.6802 326.647C59.6941 326.53 59.6802 326.41 59.6401 326.302C59.6001 326.194 59.5356 326.103 59.4544 326.039C58.5731 325.278 55.0845 327.292 54.6766 327.525C54.6458 327.537 54.6188 327.561 54.5997 327.593C54.5806 327.625 54.5703 327.664 54.5703 327.704C54.5703 327.743 54.5806 327.782 54.5997 327.814C54.6188 327.846 54.6458 327.87 54.6766 327.883C55.5387 328.135 56.4199 328.276 57.3059 328.303C57.9689 328.377 58.634 328.192 59.2068 327.775ZM59.2068 326.37C59.2418 326.394 59.2693 326.432 59.2851 326.477C59.3009 326.522 59.3041 326.573 59.2942 326.621C59.2877 326.78 59.2538 326.936 59.1948 327.077C59.1358 327.219 59.053 327.344 58.9519 327.444C58.1507 328.178 56.2279 327.865 55.1937 327.623C56.6795 326.835 58.7479 325.949 59.2359 326.37H59.2068Z" fill="#263238"/>
<path d="M54.7955 327.927C55.8516 327.39 58.0584 325.242 57.9346 324.141C57.9346 323.9 57.7816 323.622 57.3082 323.542C55.3855 323.273 54.5625 327.515 54.5625 327.694C54.5514 327.728 54.5497 327.766 54.5576 327.801C54.5655 327.837 54.5825 327.868 54.6062 327.891C54.6234 327.9 54.642 327.905 54.6608 327.905C54.6796 327.905 54.6982 327.9 54.7154 327.891L54.7955 327.927ZM57.2427 323.891C57.5996 323.935 57.5996 324.096 57.5996 324.15C57.7015 324.839 56.0992 326.602 54.9558 327.345C55.1888 326.352 55.8953 323.882 57.1407 323.882L57.2427 323.891Z" fill="#263238"/>
<path d="M52.6882 329.878C52.6571 329.887 52.6247 329.887 52.5935 329.878C52.5727 329.863 52.5546 329.842 52.5403 329.818C52.526 329.793 52.5159 329.766 52.5104 329.737C52.505 329.707 52.5044 329.677 52.5087 329.648C52.5129 329.618 52.522 329.59 52.5353 329.565C52.8108 329.031 53.1776 328.576 53.6102 328.233C54.0428 327.89 54.5309 327.667 55.0407 327.578C55.0895 327.573 55.1383 327.59 55.1773 327.626C55.2164 327.663 55.243 327.716 55.2519 327.775C55.2561 327.834 55.2419 327.893 55.2122 327.939C55.1824 327.986 55.1393 328.017 55.0917 328.026C54.6338 328.107 54.1956 328.309 53.8072 328.618C53.4187 328.927 53.0892 329.336 52.8412 329.816C52.8213 329.84 52.7972 329.858 52.7706 329.869C52.7441 329.88 52.7159 329.883 52.6882 329.878Z" fill="#263238"/>
<path d="M54.4296 331.488C54.3984 331.496 54.3662 331.496 54.335 331.488C54.2943 331.455 54.2656 331.404 54.2548 331.346C54.2439 331.288 54.2518 331.227 54.2767 331.175C54.5552 330.642 54.9237 330.189 55.3573 329.846C55.7908 329.503 56.2792 329.279 56.7894 329.188C56.8374 329.183 56.8852 329.201 56.9231 329.237C56.961 329.274 56.9861 329.327 56.9933 329.385C56.9964 329.415 56.9946 329.445 56.9882 329.473C56.9818 329.502 56.9708 329.528 56.9559 329.552C56.941 329.575 56.9224 329.595 56.9013 329.609C56.8803 329.623 56.8571 329.633 56.8331 329.636C56.3749 329.716 55.9364 329.918 55.5478 330.227C55.1592 330.536 54.8299 330.945 54.5826 331.426C54.5631 331.451 54.539 331.469 54.5123 331.48C54.4857 331.491 54.4574 331.494 54.4296 331.488Z" fill="#263238"/>
<path d="M56.5961 332.84C56.5628 332.852 56.5274 332.852 56.4941 332.84C56.4741 332.825 56.4568 332.805 56.4434 332.781C56.4299 332.757 56.4205 332.73 56.4157 332.701C56.4109 332.673 56.4109 332.644 56.4156 332.615C56.4204 332.587 56.4297 332.56 56.4432 332.536C56.7188 332.002 57.0855 331.547 57.5181 331.204C57.9507 330.861 58.4388 330.638 58.9486 330.549C58.9725 330.544 58.9971 330.545 59.0207 330.552C59.0444 330.558 59.0668 330.571 59.0864 330.588C59.1061 330.606 59.1228 330.628 59.1354 330.654C59.148 330.679 59.1563 330.708 59.1598 330.737C59.164 330.796 59.1498 330.855 59.1201 330.901C59.0903 330.948 59.0472 330.979 58.9996 330.988C58.5421 331.071 58.1045 331.274 57.7163 331.583C57.328 331.891 56.9982 332.299 56.7491 332.778C56.7292 332.802 56.7051 332.82 56.6785 332.831C56.652 332.842 56.6238 332.845 56.5961 332.84Z" fill="#263238"/>
<path d="M56.7581 145.529C57.3262 147.597 63.6698 213.599 63.597 227.864C63.5387 239.391 56.5979 319.148 56.5979 319.148H41.3032C41.3032 319.148 43.2988 278.169 42.8982 264.843C42.4976 251.517 45.0832 226.486 45.0832 226.486L28.7324 166.381L29.3442 146.218L56.7581 145.529Z" fill="#263238"/>
<path d="M7.91228 234.208C8.27644 232.284 8.84452 228.382 9.55099 223.227H9.48545C10.0026 216.408 8.22545 181.111 9.97342 160.957C11.3281 148.115 13.8189 141.269 16.5283 137.035L16.907 136.436C17.3586 135.756 17.6353 135.38 17.6353 135.38C18.1451 135.532 18.655 135.684 19.1575 135.818L19.7256 135.962C38.7129 140.848 53.891 134.458 53.891 134.458C55.639 139.756 57.4889 152.312 58.7634 164.045C56.7751 166.73 49.0477 169.209 39.0479 171.509L36.2002 187.358C34.6998 197.202 32.7698 206.814 31.1019 215.495L29.3977 224.999C29.2884 225.617 29.1865 226.234 29.0918 226.843C28.2251 232.266 18.5384 319.532 18.5384 319.532L4.58386 319.138C4.58386 319.138 3.04711 260.251 7.91228 234.208Z" fill="#263238"/>
<path opacity="0.3" d="M53.1249 325.107H50.3209C50.0075 325.112 49.6992 325.206 49.4209 325.383C49.1426 325.56 48.9021 325.815 48.7186 326.128C47.1017 328.812 45.8927 327.819 44.1302 325.233C43.0159 325.072 42.71 326.647 42.6226 327.067L40.525 336.437C40.4441 336.809 40.485 337.204 40.6389 337.539C40.7928 337.874 41.0474 338.121 41.348 338.227C41.4615 338.268 41.5795 338.286 41.6976 338.281H63.9113C67.4437 338.281 68.1793 333.905 66.7226 333.502C60.1678 331.712 55.5429 329.358 53.5182 327.023C53.1468 326.683 53.5328 326.378 53.1249 325.107Z" fill="black"/>
<path d="M11.8644 99.6091L9.81055 77.2356C12.9787 71.4274 25.7024 68.3398 25.7024 68.3398L36.03 69.0379C36.03 69.0379 41.4924 70.6219 44.8936 71.9823C46.485 74.7226 47.8167 77.6772 48.863 80.7885C48.863 80.7885 53.8592 93.9173 53.0799 103.162C52.7522 107.046 52.0384 121.848 52.9197 128.516L57.6028 146.182C38.7321 164.242 15.4623 145.368 15.4623 145.368C16.3071 142.173 18.1716 135.112 18.5576 131.997C18.2809 128.015 17.3705 125.41 16.0013 118.439C15.7391 117.069 12.3232 100.916 11.8644 99.6091Z" fill="#A2BDFF"/>
<path d="M34.2754 119.244L38.0772 118.832L39.5921 125.428L35.7757 127.039L34.2754 119.244Z" fill="#E9B376"/>
<path d="M36.9579 118.483C36.9579 118.483 37.526 115.243 39.4051 113.785C41.2841 112.326 42.4786 110.545 43.9352 109.578C45.3919 108.612 45.6322 110.625 44.984 111.887C44.3358 113.149 42.5733 115.145 43.4254 115.592C44.2775 116.04 52.1652 114.894 53.3014 115.682C54.4376 116.469 53.1922 117.141 53.1922 117.141C53.1922 117.141 54.9693 116.899 55.3771 117.839C55.785 118.778 54.7289 119.342 54.7289 119.342C54.7289 119.342 55.9233 119.226 55.8942 120.237C55.8651 121.248 48.8077 123.11 48.5673 123.387C48.5673 123.387 52.6678 121.597 53.367 122.644C54.0661 123.692 51.8302 124.819 50.0604 125.777C48.1227 126.705 46.0345 127.061 43.9644 126.815C41.5099 126.546 38.0941 126.904 37.2347 124.3C36.7346 122.423 36.6393 120.419 36.9579 118.483Z" fill="#E9B376"/>
<path d="M22.3585 100.191C21.5283 88.3594 19.6346 69.7625 15.6362 71.9909C13.0798 73.396 11.4702 74.3536 10.1519 75.7407C9.28524 76.6357 9.13957 78.8104 8.55692 81.1104C6.94005 87.5361 9.80963 133.25 9.80963 133.25L0.632812 196.862L19.2632 199.86C19.2632 199.86 23.1961 112.031 22.3585 100.191Z" fill="#A2BDFF"/>
<path opacity="0.3" d="M22.3614 100.191C21.5311 88.3594 19.6375 69.7625 15.639 71.9909C13.0826 73.396 11.473 74.3536 10.1548 75.7407C9.28809 76.6357 9.14242 78.8104 8.55977 81.1104C6.9429 87.5361 9.95814 132.382 9.95814 132.382L0.621094 196.961L19.266 199.86C19.266 199.86 23.199 112.031 22.3614 100.191Z" fill="black"/>
<path opacity="0.3" d="M13.6635 124.435C13.6635 124.435 16.7661 102.231 16.5767 91.9307L10.6992 119.674L13.6635 124.435Z" fill="black"/>
<path opacity="0.3" d="M8.70508 132.838C9.53971 134.115 10.601 135.141 11.8077 135.836C14.3423 137.134 21.8512 134.315 21.8512 134.315L21.9532 130.377L8.70508 132.838Z" fill="black"/>
<path d="M16.5626 91.9307C16.0965 91.9307 12.8263 117.759 12.8263 117.759L35.9577 117.123L37.2541 128.57C37.2541 128.57 27.1305 131.595 15.929 133.841C4.37784 136.15 0.0516324 129.867 0.000650174 120.238C-0.0503321 111.405 2.91392 89.9528 2.91392 89.9528C4.41426 81.5046 7.36394 78.3902 10.991 74.9268L16.5626 91.9307Z" fill="#A2BDFF"/>
<path opacity="0.3" d="M16.5626 91.9307C16.0965 91.9307 12.8263 117.759 12.8263 117.759L35.9577 117.123L37.2541 128.57C37.2541 128.57 27.1305 131.595 15.929 133.841C4.37784 136.15 0.0516324 129.867 0.000650174 120.238C-0.0503321 111.405 2.91392 89.9528 2.91392 89.9528C4.41426 81.5046 7.36394 78.3902 10.991 74.9268L16.5626 91.9307Z" fill="black"/>
<path d="M22.8569 24.953C22.8569 24.953 25.6099 19.9055 32.9222 19.2433C40.2345 18.581 48.4281 21.1853 52.3902 33.5087L49.1928 34.4931C51.3257 43.7696 52.2596 53.4002 51.9605 63.0328C51.9605 63.0328 29.5428 66.72 15.042 63.6503C14.9811 55.2841 15.4878 46.9263 16.5569 38.6635C18.3559 24.1386 22.8569 24.953 22.8569 24.953Z" fill="#263238"/>
<path d="M23.4004 69.5933C23.4004 69.5933 26.6924 72.4571 30.9531 76.6186C31.843 77.4855 32.8078 78.2298 33.8299 78.8381C36.5902 80.4669 39.0811 81.3529 39.6929 79.733C39.832 79.3669 39.9371 78.9826 40.006 78.5875C40.4867 75.9027 40.1299 72.126 38.3164 70.4882C36.2698 68.6447 35.2574 67.0248 35.5342 64.3758C35.7118 62.8076 36.0444 61.2719 36.5247 59.8026L34.1795 58.2186L25.68 48.4727C26.8162 54.6388 27.5882 65.7092 23.4004 69.5933Z" fill="#E9B376"/>
<path opacity="0.2" d="M35.4851 64.9127C33.1836 63.3824 30.6272 60.6618 30.8166 57.3952C30.8789 56.198 31.0574 55.0143 31.3482 53.8691L36.1478 61.0734C35.8203 62.3219 35.5982 63.6084 35.4851 64.9127Z" fill="black"/>
<path d="M23.7318 37.1153C24.8316 47.3981 25.1229 51.7655 29.6312 56.9651C36.4118 64.7958 46.3825 61.574 47.7517 51.2554C49.0117 41.9748 47.0234 26.716 38.6186 22.7783C30.3595 18.8942 22.6321 26.8324 23.7318 37.1153Z" fill="#E9B376"/>
<path d="M35.1553 39.953C35.2354 41.0359 35.7452 41.913 36.2988 41.904C36.8523 41.8951 37.2383 41.0091 37.1582 39.9083C37.0781 38.8075 36.5755 37.9394 36.022 37.9573C35.4685 37.9752 35.0825 38.8612 35.1553 39.953Z" fill="#263238"/>
<path d="M43.6922 39.487C43.765 40.543 44.2748 41.3843 44.8284 41.3753C45.3819 41.3664 45.7606 40.4804 45.6878 39.4333C45.6149 38.3862 45.1051 37.536 44.5516 37.545C43.9981 37.5539 43.6121 38.431 43.6922 39.487Z" fill="#263238"/>
<path d="M32.8494 36.2748C32.903 36.2791 32.9566 36.2693 33.0068 36.2462C33.0571 36.223 33.1027 36.187 33.1408 36.1406C33.49 35.698 33.9224 35.3677 34.3999 35.1789C34.8775 34.9901 35.3855 34.9484 35.8792 35.0577C35.93 35.0749 35.9832 35.0789 36.0353 35.0694C36.0874 35.0599 36.1373 35.0372 36.1819 35.0027C36.2264 34.9681 36.2646 34.9226 36.294 34.8689C36.3234 34.8152 36.3434 34.7545 36.3526 34.6908C36.369 34.5564 36.3447 34.4193 36.2843 34.3055C36.2239 34.1917 36.1316 34.109 36.0249 34.0733C35.4025 33.9144 34.7576 33.9517 34.1501 34.1818C33.5426 34.4118 32.9925 34.8271 32.5508 35.3888C32.4755 35.4869 32.4336 35.6165 32.4336 35.7513C32.4336 35.8861 32.4755 36.0157 32.5508 36.1137C32.6301 36.212 32.7369 36.2696 32.8494 36.2748Z" fill="#263238"/>
<path d="M45.621 34.2068C45.6635 34.1845 45.7017 34.1515 45.7331 34.1099C45.7644 34.0682 45.7883 34.0189 45.8031 33.9651C45.8335 33.841 45.8276 33.7077 45.7863 33.5883C45.7451 33.469 45.6711 33.3711 45.5773 33.3118C45.063 32.9363 44.4789 32.7292 43.8808 32.7104C43.2827 32.6916 42.6908 32.8617 42.1615 33.2044C42.0847 33.2858 42.0349 33.3989 42.0213 33.5224C42.0077 33.6458 42.0314 33.7711 42.0879 33.8746C42.1443 33.9781 42.2296 34.0526 42.3277 34.0842C42.4258 34.1157 42.5299 34.102 42.6203 34.0457C43.043 33.7858 43.5121 33.661 43.9844 33.6829C44.4567 33.7048 44.9169 33.8727 45.3224 34.171C45.4142 34.2309 45.5215 34.2438 45.621 34.2068Z" fill="#263238"/>
<path d="M40.7285 39.1201C41.5563 41.2866 42.5617 43.3436 43.7292 45.2594C43.7905 45.3575 43.8326 45.4715 43.8522 45.5928C43.8719 45.7141 43.8685 45.8392 43.8425 45.9586C43.8164 46.0781 43.7683 46.1885 43.702 46.2814C43.6356 46.3743 43.5527 46.4472 43.4597 46.4944C42.7378 46.7989 41.9613 46.8516 41.2165 46.6466L40.7285 39.1201Z" fill="#D58745"/>
<path d="M35.7109 38.0107L37.6191 37.3574C37.6191 37.3574 36.6213 39.1742 35.7109 38.0107Z" fill="#263238"/>
<path d="M44.2598 37.5986L46.168 36.9453C46.168 36.9453 45.1774 38.762 44.2598 37.5986Z" fill="#263238"/>
<path d="M28.8059 42.8429C28.8059 42.8429 30.8161 35.388 29.6654 29.4187C29.6654 29.4187 45.1494 20.7646 47.8296 39.7911C47.8296 39.7911 45.7539 18.6078 32.4038 20.2456C19.0538 21.8833 18.0997 46.8522 25.6887 52.9378C25.6887 52.9915 27.058 48.0962 28.8059 42.8429Z" fill="#263238"/>
<path d="M21.4515 45.645C22.4012 47.515 23.9147 48.8471 25.6612 49.3501C27.9044 49.9318 28.9168 45.4839 28.0646 42.7812C27.6708 41.5655 26.9357 40.5633 25.9925 39.9559C25.0494 39.3485 23.9604 39.1761 22.9227 39.4699C20.8179 40.0964 20.2498 43.2824 21.4515 45.645Z" fill="#E9B376"/>
<path opacity="0.2" d="M26.1384 45.0892C26.0937 45.0896 26.0504 45.0697 26.0168 45.0334C25.9833 44.9971 25.9617 44.9469 25.9564 44.8923C25.8737 43.9661 25.4968 43.1173 24.9076 42.5308C24.3184 41.9442 23.5646 41.6672 22.81 41.76C22.7613 41.7629 22.7135 41.7434 22.6758 41.7054C22.6381 41.6673 22.6133 41.6135 22.6061 41.5542C22.6041 41.5248 22.6069 41.4952 22.6142 41.4671C22.6216 41.439 22.6334 41.413 22.6489 41.3905C22.6645 41.3681 22.6835 41.3496 22.7049 41.3362C22.7263 41.3229 22.7497 41.3148 22.7736 41.3125C23.1979 41.2607 23.6264 41.3122 24.0344 41.4641C24.4425 41.616 24.8221 41.8654 25.1516 42.198C25.4811 42.5305 25.754 42.9397 25.9546 43.402C26.1551 43.8644 26.2795 44.3708 26.3205 44.8923C26.3246 44.9503 26.3102 45.0079 26.2803 45.0531C26.2504 45.0982 26.2073 45.1272 26.1603 45.134L26.1384 45.0892Z" fill="black"/>
<path d="M38.507 50.1192C37.9346 50.1017 37.3779 49.8857 36.9011 49.4962C36.4243 49.1066 36.0468 48.5594 35.8122 47.9176C35.8026 47.8906 35.7974 47.8615 35.7969 47.832C35.7965 47.8025 35.8007 47.7732 35.8095 47.7457C35.8183 47.7183 35.8315 47.6933 35.8482 47.6721C35.8649 47.6509 35.8848 47.634 35.9069 47.6223C35.9524 47.6013 36.0027 47.6026 36.0474 47.6259C36.0922 47.6492 36.1279 47.6928 36.1472 47.7476C36.4048 48.4693 36.8687 49.0501 37.4511 49.3799C38.0336 49.7097 38.6943 49.7658 39.3081 49.5375C39.3311 49.5295 39.3552 49.5273 39.3788 49.5312C39.4025 49.5351 39.4253 49.5448 39.4457 49.5599C39.4662 49.575 39.484 49.5951 39.4979 49.619C39.5118 49.6428 39.5216 49.6699 39.5266 49.6986C39.5377 49.7555 39.5302 49.8155 39.5057 49.8657C39.4812 49.9159 39.4416 49.9523 39.3955 49.967C39.1056 50.0626 38.8071 50.1137 38.507 50.1192Z" fill="#263238"/>
<path d="M81.5894 105.543C81.5894 105.543 81.2471 101.963 82.7765 99.654C84.306 97.3451 85.0197 95.0003 86.2506 93.3894C87.4815 91.7785 87.3868 94.7587 87.0736 96.3338C86.7604 97.9089 86.4254 99.7077 87.4232 99.8061C88.421 99.9046 96.2431 95.3314 97.6196 95.6626C98.9962 95.9937 97.9255 97.2198 97.9255 97.2198C97.9255 97.2198 99.8483 96.1727 100.387 96.996C100.533 97.2108 100.577 97.9894 99.7609 98.6338C97.9255 100.084 93.9344 102.885 93.9344 102.885C94.1601 102.715 99.2729 99.6898 100.089 99.3587C101.152 98.9291 101.829 99.3587 102.011 100.155C102.274 101.247 96.0465 105.265 95.879 105.659C95.879 105.659 99.404 103.198 100.416 103.968C101.429 104.737 99.2802 106.438 97.1535 107.494C95.2016 108.451 91.5819 110.975 89.528 111.727C86.9862 112.622 85.1144 112.559 83.4903 110.25C82.5377 108.908 81.883 107.287 81.5894 105.543Z" fill="#E9B376"/>
<path opacity="0.3" d="M93.1819 100.298C93.1661 100.297 93.1506 100.292 93.1367 100.283C93.1228 100.274 93.1108 100.26 93.1018 100.244C93.0911 100.218 93.0889 100.188 93.0956 100.16C93.1024 100.131 93.1176 100.107 93.1382 100.092C94.5948 99.0452 96.0879 98.0608 97.6101 97.1838C97.6206 97.1778 97.632 97.1744 97.6435 97.1739C97.6551 97.1734 97.6666 97.1757 97.6775 97.1807C97.6883 97.1857 97.6983 97.1933 97.7067 97.203C97.7151 97.2128 97.7219 97.2245 97.7266 97.2375C97.7327 97.2501 97.7363 97.2642 97.7373 97.2788C97.7384 97.2934 97.7367 97.3081 97.7325 97.3218C97.7284 97.3356 97.7217 97.348 97.7131 97.3581C97.7046 97.3683 97.6942 97.376 97.6829 97.3807C96.1753 98.2756 94.675 99.2421 93.2256 100.289L93.1819 100.298Z" fill="black"/>
<path opacity="0.3" d="M94.5459 106.778C94.5244 106.776 94.504 106.765 94.4881 106.747C94.4722 106.729 94.4618 106.705 94.4585 106.679C94.0613 104.048 93.049 101.616 91.5452 99.6806C91.5371 99.6706 91.5306 99.6588 91.5262 99.6457C91.5218 99.6327 91.5195 99.6187 91.5195 99.6045C91.5195 99.5904 91.5218 99.5764 91.5262 99.5634C91.5306 99.5503 91.5371 99.5384 91.5452 99.5285C91.5629 99.5077 91.5863 99.4961 91.6108 99.4961C91.6352 99.4961 91.6587 99.5077 91.6763 99.5285C93.1883 101.503 94.2005 103.975 94.5896 106.643C94.5917 106.657 94.5914 106.672 94.5889 106.686C94.5863 106.7 94.5815 106.713 94.5747 106.725C94.5679 106.736 94.5593 106.746 94.5494 106.754C94.5394 106.761 94.5283 106.766 94.5168 106.769L94.5459 106.778Z" fill="black"/>
<path opacity="0.3" d="M85.3065 106.769C85.2856 106.772 85.2645 106.765 85.2471 106.751C85.2297 106.736 85.2171 106.714 85.2118 106.689C85.2065 106.664 85.2087 106.638 85.2181 106.614C85.2275 106.591 85.2434 106.573 85.2628 106.563C86.0321 106.066 86.6427 105.265 86.9962 104.29C87.3301 103.298 87.3764 102.195 87.1273 101.166C87.1206 101.137 87.1237 101.105 87.136 101.078C87.1483 101.051 87.1688 101.032 87.1929 101.023C87.2039 101.019 87.2154 101.018 87.2269 101.019C87.2383 101.02 87.2495 101.025 87.2596 101.031C87.2698 101.038 87.2787 101.047 87.286 101.058C87.2933 101.069 87.2988 101.081 87.3022 101.095C87.5686 102.174 87.5193 103.334 87.1628 104.374C86.8063 105.413 86.1651 106.267 85.3502 106.787L85.3065 106.769Z" fill="black"/>
<path d="M104.187 5.84616C106.015 4.62904 99.6638 11.6096 100.356 18.4917C101.048 25.3738 102.373 41.8229 102.373 41.8229L115.192 37.6345L104.187 5.84616Z" fill="#263238"/>
<path d="M107.739 41.7871C103.369 44.0961 96.457 59.0864 96.457 59.0864L98.2487 62.6124L101.482 64.4739C101.482 64.4739 106.726 54.0031 110.186 52.1237C113.645 50.2443 107.739 41.7871 107.739 41.7871Z" fill="#A2BDFF"/>
<path opacity="0.3" d="M107.739 41.7871C103.369 44.0961 96.457 59.0864 96.457 59.0864L98.2487 62.6124L101.482 64.4739C101.482 64.4739 106.726 54.0031 110.186 52.1237C113.645 50.2443 107.739 41.7871 107.739 41.7871Z" fill="white"/>
<path d="M107.736 41.7859C114.715 37.1361 122.821 35.7227 130.576 37.8034C132.871 39.1816 134.589 41.4906 137.168 58.3871C138.02 64.0073 142.645 64.1058 144.618 69.4933C145.181 70.4368 145.416 71.6165 145.271 72.7728C145.127 73.9291 144.614 74.9675 143.846 75.6595C143.6 75.8844 143.331 76.0679 143.045 76.2054C136.177 79.5704 123.271 85.0474 115.886 82.6042C115.893 82.6132 108.21 60.0875 107.736 41.7859Z" fill="#A2BDFF"/>
<path opacity="0.3" d="M107.736 41.7859C114.715 37.1361 122.821 35.7227 130.576 37.8034C132.871 39.1816 134.589 41.4906 137.168 58.3871C138.02 64.0073 142.645 64.1058 144.618 69.4933C145.181 70.4368 145.416 71.6165 145.271 72.7728C145.127 73.9291 144.614 74.9675 143.846 75.6595C143.6 75.8844 143.331 76.0679 143.045 76.2054C136.177 79.5704 123.271 85.0474 115.886 82.6042C115.893 82.6132 108.21 60.0875 107.736 41.7859Z" fill="white"/>
<path d="M143.689 124.872C150.899 148.016 156.289 163.086 156.289 163.086L151.65 166.04C151.65 166.04 141.002 152.105 131.33 127.817C129 121.986 126.917 116.012 125.088 109.918L137.171 97.3887C138.856 106.714 141.034 115.894 143.689 124.872Z" fill="#E9B376"/>
<path opacity="0.2" d="M125.088 109.954L133.777 104.289C134.957 111.493 140.266 110.178 142.342 120.201C139.611 121.203 132.466 123.629 129.545 123.208C127.814 118.921 126.324 114.493 125.088 109.954Z" fill="black"/>
<path d="M148.977 162.407L155.102 159.955C155.201 159.908 155.31 159.911 155.407 159.963C155.504 160.015 155.58 160.112 155.619 160.233L157.498 166.077C157.579 166.388 157.557 166.725 157.437 167.016C157.317 167.308 157.109 167.529 156.857 167.634C154.709 168.448 153.645 168.672 150.951 169.755C148.575 170.831 146.142 171.701 143.667 172.359C141.286 172.824 140.987 169.916 141.963 169.442C144.265 168.359 146.967 165.226 148.11 163.123C148.324 162.77 148.63 162.518 148.977 162.407Z" fill="#263238"/>
<path d="M146.191 164.412C146.071 164.333 145.972 164.216 145.903 164.072C145.835 163.928 145.801 163.764 145.805 163.597C145.794 163.494 145.805 163.39 145.835 163.293C145.866 163.196 145.915 163.11 145.98 163.042C146.562 162.452 148.456 163.114 148.674 163.204C148.697 163.218 148.717 163.238 148.734 163.263C148.75 163.288 148.762 163.316 148.769 163.347C148.772 163.378 148.767 163.411 148.754 163.438C148.741 163.466 148.72 163.487 148.696 163.499C148.259 163.838 147.792 164.118 147.305 164.331C146.955 164.527 146.558 164.556 146.191 164.412ZM146.191 163.32C146.157 163.352 146.131 163.395 146.115 163.444C146.1 163.492 146.096 163.546 146.103 163.597C146.103 163.701 146.124 163.803 146.165 163.894C146.206 163.985 146.265 164.061 146.336 164.116C146.679 164.322 147.407 164.072 148.317 163.481C147.589 163.23 146.497 163.033 146.176 163.356L146.191 163.32Z" fill="#A2BDFF"/>
<path d="M148.602 163.553C147.954 163.374 146.767 162.291 146.701 161.512C146.687 161.373 146.712 161.231 146.774 161.112C146.835 160.993 146.927 160.903 147.036 160.859C147.131 160.806 147.234 160.778 147.338 160.778C147.443 160.778 147.546 160.806 147.641 160.859C148.369 161.298 148.748 163.302 148.77 163.356C148.77 163.411 148.754 163.465 148.726 163.508C148.717 163.514 148.707 163.518 148.697 163.518C148.686 163.518 148.676 163.514 148.668 163.508C148.651 163.533 148.628 163.549 148.602 163.553ZM147.145 161.154C147.116 161.16 147.088 161.172 147.063 161.192C147.037 161.211 147.016 161.237 146.999 161.267C146.983 161.298 146.972 161.332 146.967 161.368C146.962 161.404 146.963 161.441 146.971 161.477C147.267 162.245 147.786 162.848 148.427 163.168C148.289 162.533 147.939 161.45 147.502 161.199C147.455 161.171 147.402 161.156 147.349 161.156C147.296 161.156 147.244 161.171 147.196 161.199L147.145 161.154Z" fill="#A2BDFF"/>
<path d="M156.144 119.872C163.355 143.016 168.744 158.086 168.744 158.086L164.105 161.04C164.105 161.04 153.457 147.105 143.785 122.817C141.455 116.986 139.372 111.012 137.543 104.918L149.626 92.3887C151.312 101.714 153.489 110.894 156.144 119.872Z" fill="#E9B376"/>
<path d="M161.432 157.407L167.557 154.955C167.656 154.908 167.765 154.911 167.862 154.963C167.959 155.015 168.035 155.112 168.074 155.233L169.953 161.077C170.034 161.388 170.012 161.725 169.892 162.016C169.772 162.308 169.564 162.529 169.312 162.634C167.164 163.448 166.101 163.672 163.406 164.755C161.03 165.831 158.597 166.701 156.123 167.359C153.741 167.824 153.442 164.916 154.418 164.442C156.72 163.359 159.422 160.226 160.565 158.123C160.779 157.77 161.085 157.518 161.432 157.407Z" fill="#263238"/>
<path d="M158.644 159.412C158.524 159.333 158.425 159.216 158.357 159.072C158.288 158.928 158.254 158.764 158.258 158.597C158.247 158.494 158.258 158.39 158.288 158.293C158.319 158.196 158.368 158.11 158.433 158.042C159.015 157.452 160.909 158.114 161.127 158.204C161.15 158.218 161.171 158.238 161.187 158.263C161.203 158.288 161.215 158.316 161.222 158.347C161.226 158.378 161.22 158.411 161.207 158.438C161.194 158.466 161.174 158.487 161.149 158.499C160.712 158.838 160.245 159.118 159.758 159.331C159.408 159.527 159.011 159.556 158.644 159.412ZM158.644 158.32C158.61 158.352 158.584 158.395 158.569 158.444C158.553 158.492 158.549 158.546 158.557 158.597C158.556 158.701 158.577 158.803 158.618 158.894C158.659 158.985 158.718 159.061 158.79 159.116C159.132 159.322 159.86 159.072 160.771 158.481C160.042 158.23 158.95 158.033 158.629 158.356L158.644 158.32Z" fill="#A2BDFF"/>
<path d="M161.055 158.553C160.407 158.374 159.22 157.291 159.154 156.512C159.14 156.373 159.166 156.231 159.227 156.112C159.288 155.993 159.381 155.903 159.489 155.859C159.584 155.806 159.687 155.778 159.792 155.778C159.896 155.778 159.999 155.806 160.094 155.859C160.822 156.298 161.201 158.302 161.223 158.356C161.223 158.411 161.207 158.465 161.179 158.508C161.17 158.514 161.16 158.518 161.15 158.518C161.14 158.518 161.13 158.514 161.121 158.508C161.104 158.533 161.081 158.549 161.055 158.553ZM159.599 156.154C159.569 156.16 159.541 156.172 159.516 156.192C159.49 156.211 159.469 156.237 159.452 156.267C159.436 156.298 159.425 156.332 159.42 156.368C159.415 156.404 159.416 156.441 159.424 156.477C159.72 157.245 160.24 157.848 160.88 158.168C160.742 157.533 160.392 156.45 159.955 156.199C159.908 156.171 159.855 156.156 159.802 156.156C159.749 156.156 159.697 156.171 159.65 156.199L159.599 156.154Z" fill="#A2BDFF"/>
<path d="M123.595 38.1804C123.595 38.1804 119.757 43.6127 115.853 44.257C112.809 44.7492 112.94 41.5096 112.94 41.5096C113.239 40.9581 113.47 40.3548 113.625 39.7197C114.688 35.5224 111.199 32.4796 111.199 32.4796L114.324 30.4839L121.155 26.0986C119.269 34.1531 123.595 38.1804 123.595 38.1804Z" fill="#E9B376"/>
<path opacity="0.2" d="M120.559 29.5352C120.559 29.5352 118.505 38.2787 113.669 39.7017C114.725 35.5044 111.244 32.4616 111.244 32.4616L114.369 30.4659L120.559 29.5352Z" fill="black"/>
<path d="M125.19 15.4397C125.998 23.1183 123.915 32.3809 118.999 34.8062C109.954 39.2809 105.926 37.9475 103.464 29.6514C101.221 22.1965 101.418 9.50619 108.81 5.29996C116.202 1.09373 124.054 4.77195 125.19 15.4397Z" fill="#E9B376"/>
<path d="M111.469 21.1487C111.6 22.1242 111.279 23.0012 110.784 23.0997C110.289 23.1981 109.743 22.4911 109.611 21.5156C109.48 20.5401 109.801 19.7257 110.296 19.5825C110.791 19.4393 111.338 20.1642 111.469 21.1487Z" fill="#263238"/>
<path d="M105.092 22.0352C105.216 22.9302 104.917 23.8251 104.407 23.9057C103.898 23.9862 103.417 23.315 103.293 22.3932C103.169 21.4714 103.475 20.6033 103.978 20.5317C104.48 20.4601 105.005 21.1134 105.092 22.0352Z" fill="#263238"/>
<path d="M108.535 16.7288C108.471 16.6843 108.42 16.6152 108.39 16.5319C108.372 16.478 108.364 16.4203 108.365 16.3623C108.367 16.3043 108.378 16.2473 108.397 16.1946C108.417 16.1419 108.445 16.0947 108.48 16.0557C108.515 16.0168 108.556 15.987 108.601 15.9681C109.133 15.7084 109.709 15.6119 110.279 15.6867C110.849 15.7615 111.395 16.0055 111.871 16.3977C111.908 16.4328 111.94 16.4766 111.964 16.5268C111.987 16.5769 112.002 16.6322 112.008 16.6896C112.015 16.747 112.011 16.8054 111.999 16.8612C111.987 16.9171 111.965 16.9694 111.937 17.0152C111.878 17.1057 111.793 17.1653 111.7 17.1819C111.606 17.1985 111.511 17.1709 111.434 17.1047C111.05 16.8021 110.612 16.6187 110.158 16.5704C109.704 16.5221 109.247 16.6102 108.827 16.8272C108.723 16.8424 108.618 16.8071 108.535 16.7288Z" fill="#263238"/>
<path d="M102.464 18.3755C102.388 18.3751 102.315 18.347 102.253 18.295C102.186 18.2113 102.148 18.0989 102.148 17.9817C102.148 17.8646 102.186 17.7522 102.253 17.6685C102.618 17.126 103.086 16.7014 103.615 16.4315C104.144 16.1617 104.719 16.0548 105.29 16.1203C105.383 16.1358 105.468 16.1964 105.525 16.2887C105.583 16.3809 105.608 16.4974 105.596 16.6125C105.578 16.728 105.525 16.8309 105.448 16.9006C105.371 16.9704 105.275 17.0017 105.18 16.9883C104.726 16.95 104.271 17.0472 103.854 17.2715C103.436 17.4959 103.07 17.8409 102.784 18.2771C102.74 18.3216 102.688 18.3535 102.633 18.3705C102.578 18.3876 102.52 18.3893 102.464 18.3755Z" fill="#263238"/>
<path d="M106.485 22.9209L107.847 26.8676C107.046 27.2898 106.161 27.4082 105.305 27.2077C105.906 25.8786 106.306 24.426 106.485 22.9209Z" fill="#D58745"/>
<path d="M118.998 21.7756C118.998 21.7756 119.923 16.7371 122.116 17.7484C124.308 18.7597 125.094 26.6978 122.174 27.3332C119.253 27.9686 118.059 24.6395 118.998 21.7756Z" fill="#E9B376"/>
<path d="M108.203 30.2146C108.923 31.0166 109.594 31.881 110.213 32.801L110.658 32.4878C112.646 31.0111 113.178 29.5255 113.156 28.3263C113.109 27.3943 112.809 26.5086 112.304 25.8115C111.619 27.3598 109.849 28.8991 108.888 29.6687C108.67 29.8692 108.441 30.0516 108.203 30.2146Z" fill="#263238"/>
<path d="M108.854 29.7045L109.465 30.4563C111.337 29.0691 112.502 27.7715 112.75 26.6528C112.626 26.346 112.466 26.0627 112.277 25.8115C111.621 27.3956 109.851 28.9349 108.854 29.7045Z" fill="white"/>
<path d="M110.66 32.4877C112.648 31.011 113.18 29.5254 113.158 28.3262C112.413 28.9009 111.755 29.6307 111.214 30.483C110.863 31.0633 110.669 31.7646 110.66 32.4877Z" fill="#C15854"/>
<path d="M118.319 56.1505C118.319 56.1505 122.099 50.4229 124.364 54.5933C127.175 59.7572 118.253 67.8027 118.253 67.8027C118.253 67.8027 111.83 61.3502 113.534 56.4548C115.69 50.2797 118.319 56.1505 118.319 56.1505Z" fill="white"/>
<path d="M114.215 79.2315C112.11 85.7199 113.137 107.78 117.31 122.395C117.31 122.395 122.831 124.498 138.293 119.119C151.024 114.698 158.649 108.577 158.649 108.577C154.141 97.1125 146.436 70.0226 144.6 69.1992L114.215 79.2315Z" fill="#A2BDFF"/>
<path opacity="0.2" d="M158.649 108.54C158.649 108.54 157.52 109.435 155.423 110.804C154.425 111.448 153.238 112.2 151.781 113.006C150.514 113.721 149.079 114.491 147.484 115.252C146.397 115.801 145.234 116.341 143.996 116.872C142.24 117.632 140.354 118.384 138.293 119.091C137.739 119.288 137.208 119.467 136.683 119.637C135.707 119.959 134.768 120.255 133.872 120.478C131.687 121.114 129.764 121.597 128.045 121.919C126.676 122.197 125.511 122.385 124.448 122.501C123.151 122.672 121.848 122.75 120.544 122.734C120.057 122.75 119.571 122.726 119.087 122.662C118.465 122.628 117.848 122.517 117.244 122.331C113.078 107.681 112.052 85.6382 114.156 79.1767L144.542 69.0996C146.435 69.9946 154.141 97.1292 158.649 108.54Z" fill="black"/>
<path opacity="0.2" d="M116.805 100.102L120.577 122.77C120.091 122.787 119.604 122.763 119.121 122.699L116.805 100.102Z" fill="black"/>
<path opacity="0.2" d="M124.479 122.538L121.748 88.3418L128.048 121.929C126.737 122.189 125.543 122.421 124.479 122.538Z" fill="black"/>
<path opacity="0.2" d="M133.875 120.542L128.66 86.0332L136.672 119.674C135.71 119.96 134.771 120.256 133.875 120.542Z" fill="black"/>
<path opacity="0.2" d="M144 116.873L137.168 82.6504L147.517 115.253C146.403 115.799 145.267 116.345 144 116.873Z" fill="black"/>
<path opacity="0.2" d="M155.424 110.804C154.426 111.448 153.239 112.2 151.782 113.005L143.684 80.4922L155.424 110.804Z" fill="black"/>
<path opacity="0.2" d="M107.559 54.6028L107.937 47.667L108.717 53.2246L107.559 54.6028Z" fill="black"/>
<path d="M135.066 30.4037C134.592 29.1418 129.05 6.3924 122.728 2.32936C119.305 -0.265977 114.527 -0.516563 109.939 0.754256C103.275 2.54414 101.629 8.94298 105.569 11.4936C105.635 11.8873 113.136 13.7667 115.867 19.0737C118.781 24.7477 116.348 27.343 118.052 31.5134C119.757 35.6839 120.507 36.364 120.507 36.364L132.888 32.2025C132.888 32.2025 135.568 31.7998 135.066 30.4037Z" fill="#263238"/>
<path d="M78.7551 306.153L72.0473 329.081L65.791 326.674L67.7502 302.537L78.7551 306.153Z" fill="#E9B376"/>
<path d="M73.0463 335.838C72.9006 337.512 72.7987 338.666 72.7987 338.666H67.1396C66.5815 338.289 65.962 338.069 65.3261 338.022C64.6561 338.129 62.3255 338.684 62.3255 338.684H47.293C47.396 337.98 47.5421 337.286 47.73 336.608C47.9113 335.94 48.1557 335.3 48.4583 334.702C48.8128 333.911 49.3291 333.247 49.9562 332.776C50.5834 332.305 51.2997 332.043 52.0343 332.017C54.1392 331.847 60.7741 326.397 60.7741 326.397C61.4757 326.066 62.086 325.496 62.5336 324.754C62.9812 324.012 63.2475 323.129 63.3014 322.208C63.3451 321.036 64.758 319.595 65.4354 319.47C66.8046 319.219 67.5766 320.293 67.7733 321.976L68.0136 323.936L71.1818 323.327C71.1818 323.327 74.4083 321.313 74.2553 323.255" fill="#263238"/>
<g opacity="0.2">
<path d="M47.2891 338.765H62.3216C62.3216 338.765 64.6522 338.21 65.3222 338.103C65.9581 338.15 66.5776 338.37 67.1357 338.747H72.7948C72.7948 338.747 72.8967 337.592 73.0424 335.919L47.7261 336.742C47.5403 337.402 47.3942 338.078 47.2891 338.765Z" fill="white"/>
</g>
<path d="M57.4387 328.517C57.4754 328.483 57.5201 328.465 57.5661 328.465C57.6122 328.465 57.6569 328.483 57.6936 328.517C58.0798 328.837 58.3911 329.275 58.5967 329.788C58.706 330.075 58.3709 330.343 58.2544 330.057C58.0779 329.604 57.8063 329.218 57.4678 328.938C57.4449 328.915 57.4264 328.885 57.4138 328.852C57.4011 328.819 57.3945 328.782 57.3945 328.746C57.3945 328.709 57.4011 328.673 57.4138 328.639C57.4264 328.606 57.4449 328.577 57.4678 328.553L57.4387 328.517Z" fill="#A2BDFF"/>
<path d="M58.6276 327.65C58.6643 327.616 58.709 327.598 58.755 327.598C58.801 327.598 58.8458 327.616 58.8825 327.65C59.2687 327.97 59.58 328.408 59.7856 328.921C59.8948 329.198 59.5598 329.476 59.4433 329.19C59.2689 328.736 58.9969 328.349 58.6567 328.071C58.6301 328.051 58.6075 328.024 58.5907 327.992C58.574 327.959 58.5634 327.923 58.5599 327.885C58.5564 327.847 58.56 327.808 58.5705 327.772C58.5809 327.736 58.598 327.704 58.6203 327.677L58.6276 327.65Z" fill="#A2BDFF"/>
<path d="M59.8614 326.836C59.8981 326.802 59.9428 326.783 59.9888 326.783C60.0348 326.783 60.0796 326.802 60.1163 326.836C60.5043 327.153 60.8162 327.591 61.0194 328.107C61.1287 328.393 60.7936 328.67 60.6844 328.384C60.5051 327.929 60.2313 327.54 59.8905 327.256C59.8651 327.236 59.8437 327.21 59.8278 327.178C59.8118 327.147 59.8017 327.111 59.7982 327.075C59.7948 327.038 59.798 327 59.8076 326.965C59.8173 326.93 59.8331 326.898 59.8541 326.872L59.8614 326.836Z" fill="#A2BDFF"/>
<path d="M122.004 303.611L124.961 328.428L131.552 328.759L133.497 304.775L122.004 303.611Z" fill="#E9B376"/>
<path d="M137.256 339.82L122.515 339.999C122.515 339.999 122.187 339.247 122.515 337.216C122.563 336.906 122.636 336.557 122.733 336.169C122.733 336.169 122.733 336.169 122.733 336.115C122.872 335.551 123.025 334.862 123.185 334.11C123.833 331.077 124.598 327.103 124.598 327.103C124.598 327.103 127.001 320.615 129.885 322.19C132.413 323.577 131.852 327.631 131.852 327.631C132.148 329.383 132.918 330.96 134.037 332.106C135.231 333.386 136.411 334.379 136.994 335.981C137.101 336.293 137.187 336.617 137.249 336.947C137.253 336.989 137.253 337.031 137.249 337.073C137.388 337.98 137.391 338.912 137.256 339.82Z" fill="#263238"/>
<g opacity="0.2">
<path d="M122.536 337.216C122.187 339.248 122.536 339.999 122.536 339.999L137.277 339.82C137.43 338.903 137.443 337.96 137.314 337.037L122.536 337.216Z" fill="white"/>
</g>
<path d="M131.297 328.652C130.909 328.277 130.422 328.094 129.931 328.137C129.439 328.18 128.978 328.446 128.638 328.885C128.434 329.135 128.128 328.759 128.325 328.518C128.747 327.98 129.318 327.657 129.924 327.61C130.531 327.564 131.129 327.798 131.602 328.267C131.828 328.482 131.515 328.858 131.297 328.652Z" fill="#A2BDFF"/>
<path d="M131.724 330.344C131.338 329.967 130.85 329.782 130.358 329.825C129.866 329.868 129.405 330.136 129.066 330.576C128.862 330.818 128.556 330.442 128.753 330.2C129.175 329.663 129.746 329.339 130.353 329.294C130.96 329.25 131.559 329.487 132.03 329.959C132.256 330.165 131.943 330.549 131.724 330.344Z" fill="#A2BDFF"/>
<path d="M132.155 331.891C131.768 331.515 131.281 331.33 130.789 331.373C130.297 331.416 129.836 331.684 129.497 332.124C129.476 332.149 129.453 332.169 129.426 332.183C129.4 332.197 129.371 332.204 129.343 332.205C129.285 332.206 129.229 332.178 129.187 332.128C129.146 332.078 129.122 332.01 129.121 331.939C129.12 331.868 129.143 331.799 129.183 331.748C129.606 331.212 130.177 330.89 130.784 330.845C131.39 330.8 131.989 331.036 132.461 331.506C132.687 331.721 132.373 332.097 132.155 331.891Z" fill="#A2BDFF"/>
<path d="M136.682 146.629L105.809 147.318L86.4285 146.835C86.4285 146.835 73.3989 219.075 72.3501 232.66C71.3014 246.245 61.957 317.84 61.957 317.84L77.0551 321.76C77.0551 321.76 93.5733 245.135 94.7459 237.77C95.7729 231.362 107.346 190.186 110.303 179.715C110.623 181.845 110.958 183.984 111.293 186.114C112.138 195.725 114.847 226.386 116.013 237.77C116.013 237.77 118.868 302.94 121.73 321.841L135.903 321.698C137.564 294.796 138.008 200.37 138.008 200.37C138.889 179.813 136.682 146.629 136.682 146.629Z" fill="#263238"/>
<g opacity="0.5">
<path d="M94.4603 157.512C93.5763 161.135 91.9796 164.435 89.8112 167.119C87.6429 169.804 84.9697 171.791 82.0279 172.905C81.7147 173.021 81.8531 173.639 82.1736 173.513C85.2003 172.37 87.9509 170.327 90.1817 167.566C92.4125 164.804 94.0547 161.409 94.9629 157.682C94.9731 157.603 94.9594 157.523 94.9245 157.457C94.8896 157.39 94.8358 157.341 94.7736 157.32C94.7113 157.299 94.6449 157.307 94.5871 157.342C94.5293 157.378 94.4842 157.438 94.4603 157.512Z" fill="black"/>
<path d="M110.63 157.315C110.333 163.687 110.037 170.056 109.741 176.422C109.741 176.834 109.209 176.843 109.224 176.422C109.379 173.153 109.53 169.871 109.675 166.578C108.408 167.804 106.901 166.354 106.471 164.743C105.743 162.121 106.005 158.998 106.515 156.367C106.539 156.295 106.583 156.236 106.64 156.202C106.697 156.167 106.762 156.159 106.823 156.178C106.884 156.198 106.937 156.244 106.973 156.308C107.009 156.373 107.024 156.45 107.017 156.528C106.651 158.371 106.524 160.274 106.638 162.166C106.648 163.18 106.824 164.181 107.155 165.11C107.571 166.095 108.612 166.9 109.435 166.005C109.471 165.966 109.516 165.94 109.564 165.93C109.611 165.921 109.66 165.928 109.705 165.951C109.843 163.07 109.981 160.17 110.112 157.288C110.127 156.912 110.644 156.912 110.63 157.315Z" fill="black"/>
<path d="M125.867 158.219C125.879 162.281 127.139 166.189 129.396 169.158C131.653 172.127 134.74 173.938 138.037 174.229C138.365 174.229 138.358 173.63 138.037 173.603C134.871 173.322 131.909 171.578 129.747 168.723C127.585 165.867 126.383 162.11 126.384 158.21C126.384 158.127 126.357 158.047 126.31 157.988C126.262 157.929 126.197 157.896 126.129 157.896C126.062 157.896 125.997 157.929 125.949 157.988C125.901 158.047 125.874 158.127 125.874 158.21L125.867 158.219Z" fill="black"/>
</g>
<path d="M74.7539 58.7812C68.6505 63.1844 64.084 89.8537 64.084 89.8537L81.1703 96.7089L87.0989 81.4323L74.7539 58.7812Z" fill="#A2BDFF"/>
<path opacity="0.2" d="M78.8204 80.6183L77.8445 95.4743L73.5547 93.6844C75.2881 87.9926 74.4287 66.9883 74.4287 66.9883C74.4287 66.9883 77.2473 76.8505 78.8204 80.6183Z" fill="black"/>
<path d="M78.1364 56.8585C82.5063 55.3192 97.029 49.0993 115.892 48.625L124.581 71.3565L133.955 127.416C133.955 127.416 135.797 133.841 137.341 146.093C120.08 160.215 96.4463 159.911 82.7175 153.978C82.1786 146.747 83.0963 148.152 81.8144 134.217C79.5566 109.678 75.2596 81.5141 74.5312 59.0421C74.6186 58.5141 77.6994 57.0285 78.1364 56.8585Z" fill="#A2BDFF"/>
<path d="M104.429 49.1348C101.042 42.1453 95.8857 36.6056 95.9512 26.2422L85.4707 45.573C85.9716 46.2301 86.434 46.9299 86.8545 47.6671C87.6469 48.9787 88.1488 50.5205 88.3111 52.1418C88.4131 53.4842 86.4685 56.4107 86.4685 56.4107C86.4685 56.4107 91.4211 59.6683 99.7749 56.2138C104.749 54.1734 104.429 49.1348 104.429 49.1348Z" fill="#E9B376"/>
<path opacity="0.2" d="M94.0193 35.4414C96.816 43.1469 91.2954 49.5547 88.3238 52.1142C88.1554 50.5085 87.6538 48.983 86.8672 47.6842L94.0193 35.4414Z" fill="black"/>
<path d="M95.6208 21.1764C96.2034 31.4682 96.6987 37.2853 93.0425 43.1383C87.551 51.9713 77.0195 49.027 73.946 39.12C71.1784 30.1705 70.6977 14.8581 78.4252 9.58686C80.1374 8.41753 82.063 7.8007 84.0219 7.794C85.9809 7.7873 87.9092 8.39095 89.6267 9.54853C91.3443 10.7061 92.7949 12.3798 93.8432 14.4133C94.8914 16.4468 95.503 18.7736 95.6208 21.1764Z" fill="#E9B376"/>
<path d="M93.1234 6.56205C89.5474 0.744925 82.1404 5.06749 79.2417 8.45933C78.8047 8.9605 86.0514 12.0391 85.6217 11.9496L87.8067 14.4912C88.1126 14.357 88.535 17.9099 88.9429 20.9975C89.2851 23.8245 90.2497 26.4828 91.7323 28.685C93.1744 30.8588 94.795 32.8441 96.5684 34.6096C99.285 32.399 98.7897 26.1613 99.3141 22.322C100.108 16.5854 100.538 5.7924 93.1234 6.56205Z" fill="#263238"/>
<path d="M99.815 29.159C99.6272 30.4195 99.2383 31.6219 98.6709 32.6971C98.1034 33.7722 97.3685 34.6988 96.5085 35.4236C94.1851 37.3388 92.9033 34.1528 92.8013 30.8952C92.6994 27.9687 93.0125 24.3263 95.7146 23.7357C98.4167 23.145 100.252 26.0267 99.815 29.159Z" fill="#E9B376"/>
<path d="M86.2187 25.6873C86.3353 26.7344 85.9711 27.6472 85.4103 27.7367C84.8495 27.8262 84.3105 27.0386 84.2013 25.9916C84.092 24.9445 84.4489 24.0316 85.0097 23.9511C85.5705 23.8706 86.1095 24.6402 86.2187 25.6873Z" fill="#263238"/>
<path d="M76.6054 27.459C76.7147 28.5061 76.3578 29.4189 75.797 29.4994C75.2362 29.58 74.6973 28.8014 74.588 27.7632C74.4788 26.7251 74.8356 25.8033 75.3964 25.7138C75.9572 25.6243 76.4962 26.4298 76.6054 27.459Z" fill="#263238"/>
<path d="M78.372 26.5723C78.372 26.5723 76.2308 32.2015 75.5898 34.4567C76.9154 35.5754 78.8891 34.6446 78.8891 34.6446L78.372 26.5723Z" fill="#D58745"/>
<path d="M85.5954 20.7731C85.5339 20.8189 85.4634 20.8431 85.3914 20.8431C85.3195 20.8431 85.249 20.8189 85.1875 20.7731C84.7566 20.4429 84.2691 20.2403 83.7635 20.1813C83.2579 20.1223 82.7481 20.2085 82.2742 20.433C82.2269 20.4621 82.1754 20.4794 82.1227 20.4838C82.0699 20.4883 82.0169 20.4799 81.9668 20.4591C81.9167 20.4383 81.8705 20.4055 81.8307 20.3626C81.791 20.3198 81.7585 20.2676 81.7353 20.2093C81.7118 20.1518 81.6978 20.0892 81.6943 20.025C81.6907 19.9608 81.6976 19.8964 81.7146 19.8356C81.7315 19.7747 81.7582 19.7187 81.793 19.6707C81.8279 19.6226 81.8701 19.5836 81.9174 19.556C82.505 19.2585 83.1418 19.1374 83.7751 19.2028C84.4085 19.2682 85.0199 19.5181 85.5589 19.9318C85.605 19.9634 85.6455 20.006 85.6779 20.0571C85.7103 20.1083 85.734 20.1669 85.7476 20.2295C85.7612 20.2921 85.7644 20.3575 85.757 20.4216C85.7496 20.4858 85.7318 20.5475 85.7046 20.603C85.6796 20.6695 85.6422 20.7278 85.5954 20.7731Z" fill="#263238"/>
<path opacity="0.2" d="M94.1499 30.5374C94.1016 30.5374 94.0553 30.5139 94.0212 30.4719C93.987 30.4299 93.9679 30.373 93.9679 30.3137C93.9509 29.3759 94.1369 28.4494 94.5068 27.6289C94.8004 26.9147 95.287 26.3483 95.8833 26.0269C96.1966 25.8636 96.5426 25.8198 96.8764 25.9012C97.2102 25.9826 97.5163 26.1854 97.7551 26.4833C97.7885 26.5252 97.8072 26.5814 97.8072 26.64C97.8072 26.6985 97.7885 26.7547 97.7551 26.7966C97.7381 26.8182 97.7178 26.8354 97.6952 26.8472C97.6727 26.859 97.6485 26.865 97.624 26.865C97.5995 26.865 97.5753 26.859 97.5528 26.8472C97.5303 26.8354 97.5099 26.8182 97.4929 26.7966C97.3038 26.5711 97.065 26.4186 96.8061 26.3582C96.5472 26.2977 96.2795 26.3319 96.0363 26.4565C95.5202 26.7453 95.0991 27.2406 94.8418 27.8615C94.5078 28.6126 94.3396 29.458 94.3539 30.3137C94.3539 30.3739 94.3349 30.4318 94.301 30.4751C94.267 30.5185 94.2207 30.5441 94.1718 30.5464L94.1499 30.5374Z" fill="black"/>
<path d="M71.5647 23.745C71.4871 23.7362 71.4135 23.6988 71.3535 23.6376C71.2691 23.5563 71.2142 23.4376 71.2006 23.3069C71.1869 23.1763 71.2157 23.0443 71.2806 22.9395C71.6608 22.3153 72.1579 21.8128 72.7297 21.4748C73.3015 21.1367 73.9311 20.973 74.5654 20.9975C74.618 21.0028 74.6692 21.0208 74.7162 21.0504C74.7631 21.08 74.8049 21.1207 74.839 21.1702C74.8732 21.2196 74.8991 21.2768 74.9152 21.3386C74.9314 21.4003 74.9375 21.4654 74.9332 21.53C74.9289 21.5946 74.9142 21.6576 74.8901 21.7153C74.866 21.773 74.8329 21.8243 74.7927 21.8663C74.7524 21.9082 74.7058 21.94 74.6556 21.9599C74.6054 21.9797 74.5524 21.9872 74.4998 21.982C73.9965 21.962 73.4971 22.0954 73.046 22.3702C72.5948 22.6451 72.206 23.0528 71.9143 23.5571C71.8725 23.6205 71.8189 23.6706 71.7581 23.7033C71.6973 23.736 71.6309 23.7503 71.5647 23.745Z" fill="#263238"/>
<path d="M93.124 6.56202C91.5136 4.08772 89.3863 2.19779 86.9693 1.09434C84.5524 -0.00910091 81.9369 -0.284557 79.4024 0.297423C72.1848 1.83672 68.1572 7.96708 67.7493 14.0795C67.5633 16.1318 67.7986 18.2087 68.434 20.1204C68.5145 20.3578 68.6522 20.5592 68.8285 20.6978C69.0049 20.8363 69.2115 20.9053 69.4206 20.8956C69.6298 20.8859 69.8315 20.7978 69.9988 20.6433C70.1661 20.4887 70.291 20.2751 70.3567 20.0309C70.4515 19.7249 70.561 19.4261 70.6845 19.136C70.7082 19.2092 70.7349 19.2809 70.7646 19.3507C70.868 19.59 71.0306 19.7827 71.2289 19.9012C71.4272 20.0197 71.6509 20.0577 71.8679 20.01C72.0849 19.9622 72.284 19.8311 72.4365 19.6354C72.589 19.4397 72.687 19.1897 72.7165 18.9212C72.7409 18.5282 72.7945 18.1387 72.8767 17.7577C72.9774 17.9732 73.1276 18.1474 73.3085 18.2584C73.4894 18.3694 73.693 18.4123 73.8937 18.3817C74.0943 18.3511 74.2832 18.2484 74.4366 18.0865C74.5899 17.9245 74.701 17.7105 74.7558 17.4714C75.0815 16.2535 75.612 15.1334 76.3128 14.1837C77.0135 13.234 77.8689 12.4759 78.8235 11.9586C79.7781 11.4413 80.8105 11.1764 81.8538 11.181C82.897 11.1856 83.9279 11.4597 84.8794 11.9854L87.8509 14.4554C91.4852 12.2181 93.124 6.56202 93.124 6.56202Z" fill="#263238"/>
<path d="M82.627 37.6701C83.6366 38.2838 84.6101 38.9836 85.5402 39.7643C85.6713 39.5853 85.817 39.4153 85.9481 39.2273C87.7907 36.7841 87.9947 34.9048 87.6523 33.5623C87.4717 32.9077 87.17 32.3135 86.7711 31.8261C86.556 31.5504 86.3109 31.3124 86.0428 31.1191C85.6932 33.1328 84.1273 35.5939 83.2387 36.8289C82.8236 37.3479 82.627 37.6701 82.627 37.6701Z" fill="#263238"/>
<path d="M83.1973 36.8289L84.0785 37.4106C85.8046 35.1106 86.7806 33.2133 86.7515 31.8261C86.5368 31.5498 86.2916 31.3119 86.0231 31.1191C85.659 33.1507 84.0858 35.567 83.1973 36.8289Z" fill="white"/>
<path d="M85.9305 39.2275C87.7805 36.7843 87.9844 34.9049 87.6348 33.5625C86.9478 34.5046 86.4028 35.5895 86.0252 36.7664C85.7866 37.5548 85.7535 38.4149 85.9305 39.2275Z" fill="#C15854"/>
<path d="M85.1777 55.4076L87.8944 50.02L94.2089 55.6223L101.361 43.2363L106.903 49.4562L99.6713 63.2025L91.4631 62.3702L85.1777 55.4076Z" fill="#A2BDFF"/>
<path d="M155.04 68.779C151.944 64.3043 131.246 56.9658 126.868 55.0059L120.568 71.0522L126.023 72.6183L147.48 79.4199L152.352 87.716C153.624 85.8983 154.726 83.911 155.637 81.7915C157.305 78.0775 156.496 70.8732 155.04 68.779Z" fill="#E9B376"/>
<path opacity="0.2" d="M137.877 58.8804L134.534 75.3295L127.447 73.2532L129.909 55.9629C129.909 55.9629 133.602 57.4306 137.877 58.8804Z" fill="black"/>
<path d="M110.204 51.4881C108.944 56.5982 109.541 65.8072 115.892 69.9329C120.408 72.8772 130.932 77.0029 130.932 77.0029L138.572 56.1328C138.572 56.1328 112.301 42.9772 110.204 51.4881Z" fill="#A2BDFF"/>
<path opacity="0.3" d="M125.117 74.5686L118.453 70.6846L125.911 79.285L125.117 74.5686Z" fill="black"/>
<g opacity="0.2">
<path d="M111.704 143.041C115.637 141.949 118.885 136.848 120.575 132.355C121.987 128.286 123.222 124.128 124.274 119.897L117.341 130.887C115.998 133.216 114.417 135.321 112.636 137.152C110.08 139.55 106.919 140.732 103.801 141.689C99.7639 142.919 95.6641 143.816 91.5293 144.374C98.2678 145.305 105.085 144.855 111.704 143.041Z" fill="black"/>
</g>
<path d="M102.023 60.223C102.023 60.223 100.835 57.7977 99.2987 57.2429C97.762 56.688 96.5602 55.6409 95.4095 55.3366C94.2588 55.0324 94.6302 56.7417 95.3585 57.5472C96.0869 58.3526 97.6891 59.337 97.274 60.0172C96.8589 60.6973 91.6805 62.344 91.1926 63.3464C90.7046 64.3487 91.6295 64.483 91.6295 64.483C91.6295 64.483 90.4715 64.8767 90.4497 65.7717C90.4278 66.6666 91.2362 66.774 91.2362 66.774C91.2362 66.774 90.4715 67.0783 90.7628 67.9016C91.0542 68.725 95.8611 67.9016 96.1087 68.0359C96.1087 68.0359 93.108 67.9464 92.9478 69.0114C92.7876 70.0763 94.4554 70.2553 95.8028 70.4522C97.2141 70.5701 98.6213 70.1582 99.8377 69.2709C101.294 68.2507 103.479 67.4094 103.355 65.0289C103.178 63.3332 102.725 61.6987 102.023 60.223Z" fill="#E9B376"/>
<path d="M125.435 39.7115C122.15 43.2913 117.096 54.0306 114.838 54.7108C112.58 55.3909 102.289 60.8769 102.289 60.8769L102.755 67.4995C102.755 67.4995 116.309 66.1034 119.572 63.9197C122.835 61.7361 130.985 53.5563 132.609 49.7707C135.697 42.5395 128.356 36.2212 125.435 39.7115Z" fill="#A2BDFF"/>
<g opacity="0.3">
<path d="M125.439 39.7115C122.154 43.2913 117.1 54.0306 114.842 54.7108C112.584 55.3909 102.293 60.8769 102.293 60.8769L102.759 67.4995C102.759 67.4995 116.313 66.1034 119.576 63.9197C122.839 61.7361 130.989 53.5563 132.613 49.7707C135.701 42.5395 128.359 36.2212 125.439 39.7115Z" fill="white"/>
</g>
</svg>
