<svg width="117" height="342" viewBox="0 0 117 342" fill="none" xmlns="http://www.w3.org/2000/svg">
<path d="M32.6992 40.5589C38.4766 40.5589 43.1601 36.5361 43.1601 31.5739C43.1601 26.6116 38.4766 22.5889 32.6992 22.5889C26.9218 22.5889 22.2383 26.6116 22.2383 31.5739C22.2383 36.5361 26.9218 40.5589 32.6992 40.5589Z" fill="#263238" stroke="#263238" stroke-linecap="round" stroke-linejoin="round"/>
<path d="M31.1499 240.99C31.1499 240.99 31.5334 269.364 35.4039 285.443C39.2745 301.521 43.1566 321.383 43.1566 321.383C43.1566 321.383 39.2861 333.678 38.1238 334.302C36.9615 334.926 29.2088 338.719 31.5334 340.298C33.8581 341.878 56.3257 340.298 56.3257 340.298C56.3257 340.298 59.0455 338.085 58.2668 333.678C57.488 329.27 57.8832 314.44 57.8832 314.44C57.8832 314.44 60.2079 262.744 60.2079 254.856V238.777L30.3711 236.886L31.1499 240.99Z" fill="#E9B376" stroke="#263238" stroke-linecap="round" stroke-linejoin="round"/>
<path d="M58.2673 333.677C57.8803 330.181 57.7174 326.67 57.7791 323.16C56.4657 326.518 53.7807 332.344 50.5146 333.677C45.8653 335.569 38.1243 334.302 38.1243 334.302C36.9619 334.935 29.2092 338.718 31.5339 340.298C33.8585 341.877 56.3262 340.298 56.3262 340.298C56.3262 340.298 59.046 338.085 58.2673 333.677Z" fill="#263238" stroke="#263238" stroke-linecap="round" stroke-linejoin="round"/>
<path d="M96.9994 240.99C96.9994 240.99 96.6159 269.364 92.7454 285.443C88.8748 301.521 84.9927 321.383 84.9927 321.383C84.9927 321.383 88.8632 333.678 90.0255 334.302C91.1878 334.926 98.9405 338.719 96.6159 340.298C94.2912 341.878 71.8236 340.298 71.8236 340.298C71.8236 340.298 69.1037 338.085 69.8825 333.678C70.6613 329.27 70.266 314.44 70.266 314.44C70.266 314.44 67.9414 262.744 67.9414 254.856V238.777L97.7782 236.886L96.9994 240.99Z" fill="#E9B376" stroke="#263238" stroke-linecap="round" stroke-linejoin="round"/>
<path d="M69.8902 333.677C70.2771 330.181 70.4401 326.67 70.3784 323.16C71.6918 326.518 74.3768 332.344 77.6429 333.677C82.2922 335.569 90.0332 334.302 90.0332 334.302C91.1955 334.935 98.9482 338.718 96.6236 340.298C94.2989 341.877 71.8313 340.298 71.8313 340.298C71.8313 340.298 69.1114 338.085 69.8902 333.677Z" fill="#263238" stroke="#263238" stroke-linecap="round" stroke-linejoin="round"/>
<path d="M28.8259 130.646C28.8259 130.646 17.2027 155.236 13.7158 173.84C10.2288 192.443 -1.01086 228.374 1.31378 230.899C3.63842 233.424 10.2288 234.049 10.2288 234.049L9.83358 239.099C9.83358 239.099 22.6191 243.507 35.0211 243.828C47.4231 244.15 57.4887 241.303 64.4627 242.561C71.4366 243.819 92.7536 245.086 98.17 242.561C103.586 240.035 109.793 237.832 110.188 236.574C110.389 235.106 110.389 233.625 110.188 232.157L116 229.953C116 229.953 114.442 197.163 110.572 178.247C106.701 159.331 100.89 143.574 98.17 137.9C95.4501 132.225 85.3844 130.958 85.3844 130.958L28.8259 130.646Z" fill="#263238" stroke="#263238" stroke-linecap="round" stroke-linejoin="round"/>
<path d="M10.2305 234.049L13.3222 200.946" stroke="#263238" stroke-linecap="round" stroke-linejoin="round"/>
<path d="M110.193 232.156L103.219 188.972" stroke="#263238" stroke-linecap="round" stroke-linejoin="round"/>
<path d="M46.9359 48.5977L45.1924 62.0751C45.1924 62.0751 12.3568 72.9517 11.1945 74.3704C10.0322 75.7891 31.2446 133.009 31.2446 133.009C31.2446 133.009 41.7054 139.157 60.5932 138.921C79.4809 138.684 90.2323 130.881 90.2323 130.881C90.2323 130.881 102.146 74.3704 100.112 71.0601C98.078 67.7499 67.5671 60.6565 67.5671 60.6565L66.9859 50.4892L46.9359 48.5977Z" fill="#A2BDFF" stroke="#263238" stroke-linecap="round" stroke-linejoin="round"/>
<path d="M56.8137 93.7586L76.2594 62.803C71.3079 61.5261 67.5652 60.656 67.5652 60.656L66.984 50.4888L44.4815 46.9326L45.1905 62.0652C45.1905 62.0652 42.6218 62.9164 38.9023 64.1743L56.8137 93.7586Z" fill="#E9B376" stroke="#263238" stroke-linecap="round" stroke-linejoin="round"/>
<path d="M67.3588 57.0722L66.9869 50.4517L44.4844 46.8955L44.6587 50.6787C47.1461 53.308 53.0274 59.0773 57.7116 60.1366C60.8498 60.8837 64.5344 59.0394 67.3588 57.0722Z" fill="#263238" stroke="#263238" stroke-linecap="round" stroke-linejoin="round"/>
<path d="M37.3449 34.4108C37.3449 34.4108 37.1822 34.0893 36.9148 33.6448C35.9733 32.0747 33.6952 28.9158 32.1144 32.0464C30.0804 36.066 32.405 39.1398 34.4391 41.0314C34.9945 41.5656 35.7421 41.9443 36.5764 42.114C37.4107 42.2837 38.2893 42.2358 39.0884 41.9772C39.0884 41.9772 44.6094 49.7799 48.9681 53.7995C53.3268 57.8191 61.7536 58.5285 65.2406 55.4547C68.7275 52.3808 72.9119 50.0826 74.6554 42.5163C75.0506 40.8233 74.9692 37.4847 75.2481 35.5742C76.1436 29.6991 76.3926 23.7707 75.992 17.8595C75.4109 12.8941 71.6333 5.56428 64.6594 2.49046C57.6855 -0.583349 44.0282 1.07178 37.6355 7.6923C31.2427 14.3128 29.4992 21.4062 32.1144 24.7165C33.4769 26.3565 34.6444 28.0983 35.6014 29.9183L37.3449 34.4108Z" fill="#E9B376" stroke="#263238" stroke-linecap="round" stroke-linejoin="round"/>
<path d="M32.7578 31.1376L37.349 34.41C37.349 34.41 37.1863 34.0884 36.9189 33.6439C36.0937 32.282 34.2572 29.7094 32.7578 31.1376Z" fill="#E9B376" stroke="#263238" stroke-linecap="round" stroke-linejoin="round"/>
<path d="M64.6594 2.49046C57.6855 -0.583349 44.0282 1.07178 37.6355 7.6923C31.2427 14.3128 29.4992 21.4062 32.1144 24.7165C33.4769 26.3565 34.6444 28.0983 35.6014 29.9183L37.3449 34.4108C37.3449 34.4108 37.3449 28.4997 38.5072 26.1352C39.6695 23.7707 44.9 12.6577 59.429 12.4212C73.958 12.1848 73.6674 23.5343 75.1203 26.3716C75.3517 26.8031 75.6655 27.2022 76.0501 27.5539C76.2892 24.3248 76.2698 21.0865 75.992 17.8595C75.4109 12.8941 71.6333 5.56428 64.6594 2.49046Z" fill="#263238" stroke="#263238" stroke-linecap="round" stroke-linejoin="round"/>
<path d="M63.7859 31.1006C63.7859 31.1006 63.2048 35.8295 64.3671 36.3024C65.5294 36.7753 68.1446 37.0118 67.5635 38.6669C66.9823 40.322 64.3671 40.7949 64.3671 40.7949" stroke="#263238" stroke-linecap="round" stroke-linejoin="round"/>
<path d="M53.0391 42.9229C53.0391 42.9229 55.0731 46.4696 63.5 46.2331" stroke="#263238" stroke-linecap="round" stroke-linejoin="round"/>
<path d="M46.6406 33.4655C47.922 32.9745 49.3288 32.7398 50.744 32.781C52.1592 32.8221 53.5418 33.138 54.7769 33.7021" stroke="#263238" stroke-linecap="round" stroke-linejoin="round"/>
<path d="M65.8164 33.465C65.8164 33.465 70.1751 31.8086 72.7903 34.1749" stroke="#263238" stroke-linecap="round" stroke-linejoin="round"/>
<path d="M46.0586 28.0266C47.3781 26.8124 49.1902 26.025 51.164 25.8079C53.1379 25.5909 55.1419 25.9587 56.8101 26.8443" stroke="#263238" stroke-linecap="round" stroke-linejoin="round"/>
<path d="M65.2422 27.7919C65.2422 27.7919 71.0538 24.2425 74.5408 28.0285" stroke="#263238" stroke-linecap="round" stroke-linejoin="round"/>
<path d="M19.0403 71.7695C19.0403 71.7695 7.99829 74.3705 7.70771 75.7891C7.41713 77.2078 14.6816 120.478 14.6816 120.478C14.6816 120.478 10.9041 123.315 12.357 124.97C13.8099 126.625 17.0063 129.936 17.0063 129.936C16.7691 130.556 16.7524 131.218 16.9581 131.845C17.1637 132.473 17.5834 133.041 18.1686 133.482C20.2027 134.901 26.0143 152.871 31.8259 161.383C35.6062 166.816 39.9827 171.96 44.902 176.752C44.902 176.752 48.9701 182.9 51.8759 184.555C54.7817 186.21 56.8158 187.629 58.5592 186.919C60.3027 186.21 62.0462 180.535 62.3368 176.989C62.6274 173.442 53.3288 168.949 52.1665 168.476C50.7074 167.633 49.3457 166.683 48.0984 165.639C48.0984 165.639 40.2527 152.162 38.7998 145.541C37.3469 138.921 33.5693 128.753 33.5693 128.753C33.5693 128.753 35.6034 124.734 35.6034 123.788C35.6034 122.842 32.407 120.478 32.407 119.532V112.438L29.7918 87.8479" fill="#A2BDFF"/>
<path d="M19.0403 71.7695C19.0403 71.7695 7.99829 74.3705 7.70771 75.7891C7.41713 77.2078 14.6816 120.478 14.6816 120.478C14.6816 120.478 10.9041 123.315 12.357 124.97C13.8099 126.625 17.0063 129.936 17.0063 129.936C16.7691 130.556 16.7524 131.218 16.9581 131.845C17.1637 132.473 17.5834 133.041 18.1686 133.482C20.2027 134.901 26.0143 152.871 31.8259 161.383C35.6062 166.816 39.9827 171.96 44.902 176.752C44.902 176.752 48.9701 182.9 51.8759 184.555C54.7817 186.21 56.8158 187.629 58.5592 186.919C60.3027 186.21 62.0462 180.535 62.3368 176.989C62.6274 173.442 53.3288 168.949 52.1665 168.476C50.7074 167.633 49.3457 166.683 48.0984 165.639C48.0984 165.639 40.2527 152.162 38.7998 145.541C37.3469 138.921 33.5693 128.753 33.5693 128.753C33.5693 128.753 35.6034 124.734 35.6034 123.788C35.6034 122.842 32.407 120.478 32.407 119.532V112.438L29.7918 87.8479" stroke="#263238" stroke-linecap="round" stroke-linejoin="round"/>
<path d="M52.1641 168.477C50.705 167.634 49.3434 166.684 48.096 165.64C48.096 165.64 40.2503 152.162 38.7974 145.542C38.1581 142.638 37.0772 139.053 36.0544 135.942C28.5342 133.993 23.4199 136.396 20.8047 138.278C23.5826 144.548 27.6973 155.302 31.8235 161.384C35.6038 166.817 39.9804 171.961 44.8996 176.753C44.8996 176.753 48.9677 182.9 51.8735 184.555C54.7793 186.21 56.8134 187.629 58.5569 186.92C60.3004 186.21 62.0438 180.536 62.3344 176.989C62.625 173.442 53.3264 168.95 52.1641 168.477Z" fill="#E9B376" stroke="#263238" stroke-linecap="round" stroke-linejoin="round"/>
<path d="M19.6172 128.28C19.6172 128.28 26.8817 124.26 31.8216 125.915" stroke="#263238" stroke-linecap="round" stroke-linejoin="round"/>
<path d="M14.9688 125.917C14.9688 125.917 24.2673 120.478 30.0789 122.843" stroke="#263238" stroke-linecap="round" stroke-linejoin="round"/>
<path d="M88.7798 88.7934L86.4551 121.66C86.4551 121.66 81.8059 126.861 82.387 128.28C82.7546 129.278 82.9502 130.312 82.9682 131.354L80.353 133.955L64.0805 169.186C64.0805 169.186 57.1065 173.205 56.816 174.151C56.5254 175.097 53.9102 181.481 53.9102 182.899C53.9102 184.318 53.329 184.318 55.3631 184.318C57.3971 184.318 59.7218 179.116 59.7218 179.116L58.85 185.264C57.1369 185.682 55.3888 185.998 53.6196 186.21C52.4573 186.21 55.3631 189.52 60.0123 189.047C64.6616 188.574 67.5674 186.919 69.0203 183.136C70.4732 179.353 72.5073 168.003 72.5073 168.003C72.5073 168.003 99.5313 139.157 102.146 135.61C104.762 132.063 105.633 128.753 105.343 127.098C104.99 125.43 105.191 123.716 105.924 122.133C106.796 119.768 107.086 117.64 106.505 116.931C105.924 116.221 107.668 93.0495 106.796 85.0103C105.924 76.9711 103.309 72.9515 100.112 71.0599C96.916 69.1683 91.395 68.459 91.395 68.459" fill="#A2BDFF"/>
<path d="M88.7798 88.7934L86.4551 121.66C86.4551 121.66 81.8059 126.861 82.387 128.28C82.7546 129.278 82.9502 130.312 82.9682 131.354L80.353 133.955L64.0805 169.186C64.0805 169.186 57.1065 173.205 56.816 174.151C56.5254 175.097 53.9102 181.481 53.9102 182.899C53.9102 184.318 53.329 184.318 55.3631 184.318C57.3971 184.318 59.7218 179.116 59.7218 179.116L58.85 185.264C57.1369 185.682 55.3888 185.998 53.6196 186.21C52.4573 186.21 55.3631 189.52 60.0123 189.047C64.6616 188.574 67.5674 186.919 69.0203 183.136C70.4732 179.353 72.5073 168.003 72.5073 168.003C72.5073 168.003 99.5313 139.157 102.146 135.61C104.762 132.063 105.633 128.753 105.343 127.098C104.99 125.43 105.191 123.716 105.924 122.133C106.796 119.768 107.086 117.64 106.505 116.931C105.924 116.221 107.668 93.0495 106.796 85.0103C105.924 76.9711 103.309 72.9515 100.112 71.0599C96.916 69.1683 91.395 68.459 91.395 68.459" stroke="#263238" stroke-linecap="round" stroke-linejoin="round"/>
<path d="M80.0621 134.522L64.0453 169.186C64.0453 169.186 57.0714 173.205 56.7808 174.151C56.4902 175.097 53.875 181.481 53.875 182.9C53.875 184.318 53.2938 184.318 55.3279 184.318C57.362 184.318 59.6866 179.116 59.6866 179.116L58.8149 185.264C57.1017 185.682 55.3537 185.998 53.5844 186.21C52.4221 186.21 55.3279 189.52 59.9772 189.047C64.6265 188.574 67.5323 186.919 68.9852 183.136C70.4381 179.353 72.4721 168.003 72.4721 168.003C72.4721 168.003 89.5234 149.806 97.8456 140.575C93.0684 134.21 84.4324 134.106 80.0621 134.522Z" fill="#E9B376" stroke="#263238" stroke-linecap="round" stroke-linejoin="round"/>
<path d="M86.1641 129.7C86.1641 129.7 94.3003 126.153 100.112 130.645" stroke="#263238" stroke-linecap="round" stroke-linejoin="round"/>
<path d="M100.403 124.734C100.403 124.734 91.9765 123.788 86.7461 127.571" stroke="#263238" stroke-linecap="round" stroke-linejoin="round"/>
</svg>
