<svg width="150" height="130" viewBox="0 0 150 130" fill="none" xmlns="http://www.w3.org/2000/svg">
<path d="M127.424 17.4511C120.775 12.7399 112.588 10.2465 104.083 8.95169C97.3714 7.92729 90.5251 7.65169 83.7235 7.84149C52.7327 8.74109 43.2607 22.2299 35.6855 23.8783C14.794 28.4257 4.14209 45.2711 2.49621 62.8185C2.45141 63.2917 2.40959 63.7649 2.37374 64.2381C1.62399 74.0323 2.02724 84.0917 6.57057 93.2333C10.4358 100.999 17.4943 106.774 26.0373 110.653C45.8386 119.647 66.3268 116.649 78.2094 112.302C90.0919 107.954 88.7119 105.708 104.726 109.605C120.739 113.503 134.862 104.52 140.027 94.0185C145.191 83.5171 152.429 60.5799 144.161 40.3649C141.156 33.0199 136.986 25.7113 130.635 20.0199C129.624 19.1095 128.552 18.2517 127.424 17.4511Z" fill="#FDC70A"/>
<path opacity="0.7" d="M127.424 17.4511C120.775 12.7399 112.588 10.2465 104.083 8.95169C97.3714 7.92729 90.5251 7.65169 83.7235 7.84149C52.7327 8.74109 43.2607 22.2299 35.6855 23.8783C14.794 28.4257 4.14209 45.2711 2.49621 62.8185C2.45141 63.2917 2.40959 63.7649 2.37374 64.2381C1.62399 74.0323 2.02724 84.0917 6.57057 93.2333C10.4358 100.999 17.4943 106.774 26.0373 110.653C45.8386 119.647 66.3268 116.649 78.2094 112.302C90.0919 107.954 88.7119 105.708 104.726 109.605C120.739 113.503 134.862 104.52 140.027 94.0185C145.191 83.5171 152.429 60.5799 144.161 40.3649C141.156 33.0199 136.986 25.7113 130.635 20.0199C129.624 19.1095 128.552 18.2517 127.424 17.4511Z" fill="white"/>
<path d="M100.818 121.527H137.296" stroke="#263238" stroke-linecap="round" stroke-linejoin="round"/>
<path d="M12.0312 121.527H98.2828" stroke="#263238" stroke-linecap="round" stroke-linejoin="round"/>
<g opacity="0.3">
<path d="M136.539 40.6199L140.802 44.3301" stroke="black" stroke-width="3" stroke-linecap="round" stroke-linejoin="round"/>
<path d="M140.802 40.6199L136.539 44.3301" stroke="black" stroke-width="3" stroke-linecap="round" stroke-linejoin="round"/>
</g>
<g opacity="0.3">
<path d="M19.7051 108.415L23.9676 112.125" stroke="black" stroke-width="3" stroke-linecap="round" stroke-linejoin="round"/>
<path d="M23.9676 108.415L19.7051 112.125" stroke="black" stroke-width="3" stroke-linecap="round" stroke-linejoin="round"/>
</g>
<g opacity="0.3">
<path d="M8.41406 66.6953L12.6766 70.4055" stroke="black" stroke-width="3" stroke-linecap="round" stroke-linejoin="round"/>
<path d="M12.6766 66.6953L8.41406 70.4055" stroke="black" stroke-width="3" stroke-linecap="round" stroke-linejoin="round"/>
</g>
<g opacity="0.3">
<path d="M89.0684 71.9109L93.3309 75.6211" stroke="black" stroke-width="3" stroke-linecap="round" stroke-linejoin="round"/>
<path d="M93.3309 71.9109L89.0684 75.6211" stroke="black" stroke-width="3" stroke-linecap="round" stroke-linejoin="round"/>
</g>
<path opacity="0.3" d="M138.151 57.8684C138.151 57.6303 138.07 57.3975 137.918 57.1996C137.766 57.0016 137.55 56.8473 137.297 56.7562C137.044 56.6651 136.766 56.6412 136.498 56.6877C136.23 56.7341 135.983 56.8488 135.79 57.0171C135.596 57.1855 135.465 57.4 135.411 57.6335C135.358 57.867 135.385 58.1091 135.49 58.329C135.595 58.549 135.772 58.737 135.999 58.8693C136.227 59.0016 136.494 59.0722 136.768 59.0722C137.134 59.0715 137.486 58.9444 137.745 58.7188C138.004 58.4932 138.15 58.1874 138.151 57.8684Z" stroke="black" stroke-width="3" stroke-linecap="round" stroke-linejoin="round"/>
<path opacity="0.3" d="M24.5434 80.132C24.5434 79.8939 24.4623 79.6612 24.3103 79.4632C24.1583 79.2653 23.9423 79.111 23.6896 79.0199C23.4369 78.9287 23.1588 78.9049 22.8905 78.9514C22.6223 78.9978 22.3758 79.1125 22.1824 79.2808C21.989 79.4492 21.8573 79.6637 21.8039 79.8972C21.7506 80.1307 21.7779 80.3727 21.8826 80.5927C21.9873 80.8127 22.1646 81.0007 22.392 81.1329C22.6194 81.2652 22.8868 81.3358 23.1604 81.3358C23.3421 81.3362 23.5221 81.3053 23.6901 81.2449C23.8581 81.1845 24.0107 81.0959 24.1392 80.984C24.2677 80.8721 24.3695 80.7393 24.4389 80.5931C24.5083 80.4469 24.5438 80.2902 24.5434 80.132Z" stroke="black" stroke-width="3" stroke-linecap="round" stroke-linejoin="round"/>
<path opacity="0.3" d="M78.2152 112.302C78.2152 112.064 78.1341 111.831 77.9822 111.633C77.8302 111.435 77.6142 111.281 77.3615 111.19C77.1088 111.099 76.8307 111.075 76.5624 111.121C76.2941 111.168 76.0477 111.282 75.8543 111.451C75.6609 111.619 75.5292 111.834 75.4758 112.067C75.4224 112.301 75.4498 112.543 75.5545 112.763C75.6592 112.983 75.8364 113.171 76.0639 113.303C76.2913 113.435 76.5587 113.506 76.8322 113.506C77.199 113.506 77.5508 113.379 77.8102 113.153C78.0695 112.927 78.2152 112.621 78.2152 112.302Z" stroke="black" stroke-width="3" stroke-linecap="round" stroke-linejoin="round"/>
<path opacity="0.3" d="M12.3305 44.4315C12.3311 44.1933 12.2505 43.9603 12.0988 43.762C11.9472 43.5637 11.7315 43.409 11.4788 43.3175C11.2261 43.226 10.948 43.2018 10.6795 43.2479C10.411 43.2941 10.1643 43.4085 9.97059 43.5768C9.77687 43.745 9.64485 43.9595 9.59125 44.1931C9.53764 44.4267 9.56485 44.6689 9.66944 44.889C9.77403 45.1091 9.95129 45.2972 10.1788 45.4296C10.4063 45.562 10.6738 45.6327 10.9475 45.6327C11.3137 45.6327 11.6651 45.5062 11.9243 45.281C12.1836 45.0558 12.3297 44.7503 12.3305 44.4315Z" stroke="black" stroke-width="3" stroke-linecap="round" stroke-linejoin="round"/>
<g opacity="0.3">
<path d="M65.7602 77.5034H54.502V101.842H65.7602V77.5034Z" stroke="black" stroke-linecap="round" stroke-linejoin="round"/>
<path d="M83.1919 77.5034H71.9336V101.842H83.1919V77.5034Z" stroke="black" stroke-linecap="round" stroke-linejoin="round"/>
</g>
<g opacity="0.3">
<path d="M21.7969 94.2734L31.3376 89.479V99.0678L21.7969 94.2734Z" stroke="black" stroke-linecap="round" stroke-linejoin="round"/>
<path d="M31.6328 94.2734L41.1735 89.479V99.0678L31.6328 94.2734Z" stroke="black" stroke-linecap="round" stroke-linejoin="round"/>
</g>
<g opacity="0.3">
<path d="M115.897 94.2734L106.354 89.479V99.0678L115.897 94.2734Z" stroke="black" stroke-linecap="round" stroke-linejoin="round"/>
<path d="M106.058 94.2734L96.5176 89.479V99.0678L106.058 94.2734Z" stroke="black" stroke-linecap="round" stroke-linejoin="round"/>
</g>
<path opacity="0.3" d="M98.6756 111.8C98.9985 111.671 99.2505 111.437 99.3778 111.149C99.5051 110.86 99.4975 110.539 99.3566 110.256L96.6683 104.796C96.5667 104.565 96.3643 104.38 96.1055 104.279C95.8468 104.179 95.5529 104.172 95.2883 104.26C95.1174 104.314 94.9653 104.405 94.8466 104.525C94.7278 104.645 94.6464 104.789 94.6102 104.944V104.918C94.5343 104.704 94.3724 104.521 94.1543 104.403C93.9362 104.285 93.6764 104.239 93.4225 104.273C93.1686 104.308 92.9376 104.421 92.7717 104.592C92.6058 104.763 92.5162 104.98 92.5192 105.204C92.3597 105.082 92.1621 105.004 91.9516 104.98C91.7411 104.956 91.5272 104.987 91.3368 105.069C91.1465 105.15 90.9883 105.28 90.8824 105.44C90.7765 105.6 90.7276 105.784 90.7419 105.968L88.5823 101.761C88.5324 101.644 88.4559 101.536 88.3572 101.445C88.2585 101.354 88.1397 101.281 88.0079 101.23C87.876 101.18 87.7339 101.153 87.5899 101.151C87.4459 101.15 87.303 101.173 87.1697 101.221C87.0364 101.268 86.9155 101.339 86.8142 101.428C86.7129 101.517 86.6332 101.623 86.5799 101.739C86.5267 101.856 86.5009 101.98 86.5041 102.106C86.5074 102.231 86.5396 102.354 86.5989 102.469L90.727 110.854L87.3128 109.353C87.1867 109.295 87.0483 109.258 86.9059 109.247C86.7634 109.235 86.6198 109.249 86.4834 109.286C86.347 109.324 86.2206 109.385 86.1117 109.466C86.0027 109.546 85.9135 109.645 85.8491 109.756C85.7847 109.868 85.7466 109.989 85.7368 110.113C85.7271 110.237 85.7461 110.362 85.7926 110.48C85.8391 110.597 85.9121 110.706 86.0075 110.799C86.1029 110.892 86.2187 110.967 86.348 111.02L92.0413 113.747C92.3158 113.879 92.6241 113.948 92.9374 113.948C93.036 113.937 96.8146 112.551 98.6756 111.8Z" stroke="black" stroke-linecap="round" stroke-linejoin="round"/>
<path d="M50.8226 10.8835H39.9198V11.7415H25.9612C24.8303 11.7415 23.7106 11.9356 22.6659 12.3125C21.6212 12.6894 20.6721 13.2419 19.8729 13.9382C19.0736 14.6346 18.4399 15.4613 18.008 16.371C17.576 17.2807 17.3543 18.2556 17.3555 19.2399V59.4594C17.3555 61.446 18.2621 63.3512 19.876 64.756C21.4899 66.1608 23.6788 66.9499 25.9612 66.9499H119.872C122.153 66.9493 124.342 66.1598 125.955 64.7551C127.568 63.3504 128.474 61.4455 128.474 59.4594V19.2399C128.474 17.2538 127.568 15.3489 125.955 13.9442C124.342 12.5395 122.153 11.75 119.872 11.7493H60.1303V10.8913H53.6722V11.7493H50.8226V10.8835Z" fill="#707070" stroke="#263238" stroke-linejoin="round"/>
<path d="M18.541 20.5425L18.541 58.1463C18.541 62.5288 22.6226 66.0815 27.6575 66.0815H118.172C123.207 66.0815 127.288 62.5288 127.288 58.1463V20.5425C127.288 16.1601 123.207 12.6073 118.172 12.6073L27.6575 12.6073C22.6226 12.6073 18.541 16.1601 18.541 20.5425Z" fill="#263238" stroke="#263238" stroke-linejoin="round"/>
<path d="M19.3242 21.58V36.4312L19.3869 36.4468C21.2688 36.8862 22.4935 37.8976 22.4935 39.0182V39.663C22.4935 40.7836 21.2688 41.795 19.3869 42.2344L19.3242 42.25V57.1012C19.3242 61.2378 23.312 64.5892 28.2346 64.5892H117.094C122.017 64.5892 126.004 61.2378 126.004 57.1012V21.58C126.004 17.4434 122.017 14.0894 117.094 14.0894H28.2346C23.3 14.0946 19.3242 17.4486 19.3242 21.58Z" fill="white" stroke="#263238" stroke-linecap="round" stroke-linejoin="round"/>
<path opacity="0.3" d="M110.244 48.3704H122.694" stroke="black" stroke-linecap="round" stroke-linejoin="round"/>
<path opacity="0.3" d="M65.4941 48.3704H108.257" stroke="black" stroke-linecap="round" stroke-linejoin="round"/>
<path opacity="0.3" d="M21.6484 48.3704H62.2486" stroke="black" stroke-linecap="round" stroke-linejoin="round"/>
<g opacity="0.3">
<path d="M119.508 43.6099L123.355 46.8781" stroke="black" stroke-linecap="round" stroke-linejoin="round"/>
<path d="M60.5664 31.1636L82.0942 44.59L102.6 29.25L117.858 42.211" stroke="black" stroke-linecap="round" stroke-linejoin="round"/>
<path d="M21.7344 44.9332L52.9104 26.3926L59.0638 30.2302" stroke="black" stroke-linecap="round" stroke-linejoin="round"/>
<path d="M102.125 23.6886H110.095C110.095 23.6886 110.307 21.3044 107.565 20.7532C105.426 20.3242 102.771 21.8686 100.972 20.5816L100.928 20.5478C100.136 19.9524 99.6491 19.1178 99.0128 18.395C98.3689 17.6569 97.5496 17.0483 96.6109 16.6109C95.6722 16.1734 94.6362 15.9173 93.5734 15.86C91.4496 15.7872 89.275 16.7102 88.1758 18.2936C87.8771 18.7252 87.6172 19.2296 87.0945 19.4428C86.1057 19.8484 85.111 18.9696 84.1074 18.577C80.9411 17.329 80.5797 20.2228 78.9816 21.5254C77.3835 22.828 75.0386 20.9118 73.3928 21.866C72.6293 22.3146 72.0407 22.9548 71.7051 23.7016H99.7686" stroke="black" stroke-linecap="round" stroke-linejoin="round"/>
<path d="M40.9062 21.6579C40.3951 21.4087 39.8245 21.2663 39.2394 21.2419C38.6501 21.2181 38.064 21.3295 37.5397 21.565C37.0155 21.8005 36.5715 22.1517 36.2523 22.5835C36.1272 22.8405 35.9198 23.0607 35.6549 23.2179C35.1083 23.4389 34.5617 22.9579 34.015 22.7395C32.2706 22.0505 32.0704 23.6469 31.1893 24.3645C30.3081 25.0821 29.0177 24.0265 28.1126 24.5517C27.6924 24.7992 27.3685 25.1519 27.1836 25.5631H48.3261C48.3261 25.5631 48.4426 24.2475 46.9341 23.9459C45.7542 23.7093 44.2905 24.5595 43.3018 23.8497C43.2925 23.8451 43.2844 23.8389 43.2779 23.8315C42.8418 23.5039 42.573 23.0515 42.2205 22.6459" stroke="black" stroke-linecap="round" stroke-linejoin="round"/>
</g>
<path d="M115.687 58.2712H29.6445V60.1848H115.687V58.2712Z" fill="white" stroke="#263238" stroke-linecap="round" stroke-linejoin="round"/>
<path d="M82.0258 58.2712H29.6445V60.1848H82.0258V58.2712Z" fill="#FDC70A" stroke="#263238" stroke-linecap="round" stroke-linejoin="round"/>
<path d="M84.1823 59.2281C84.1823 58.9801 84.0978 58.7377 83.9394 58.5315C83.7811 58.3254 83.556 58.1648 83.2928 58.07C83.0295 57.9752 82.7399 57.9506 82.4605 57.9991C82.1811 58.0477 81.9246 58.1673 81.7234 58.3428C81.5221 58.5184 81.3853 58.7419 81.33 58.9852C81.2748 59.2284 81.3038 59.4805 81.4132 59.7094C81.5226 59.9384 81.7076 60.1339 81.9448 60.2713C82.1819 60.4087 82.4606 60.4818 82.7455 60.4812C82.9344 60.4812 83.1215 60.4488 83.296 60.3858C83.4705 60.3228 83.6291 60.2304 83.7625 60.114C83.896 59.9976 84.0017 59.8595 84.0738 59.7074C84.1458 59.5554 84.1827 59.3925 84.1823 59.2281Z" fill="white" stroke="#263238" stroke-linecap="round" stroke-linejoin="round"/>
<path d="M19.7362 40.2011C20.1816 40.2011 20.5427 39.8868 20.5427 39.4991C20.5427 39.1114 20.1816 38.7971 19.7362 38.7971C19.2908 38.7971 18.9297 39.1114 18.9297 39.4991C18.9297 39.8868 19.2908 40.2011 19.7362 40.2011Z" fill="#707070"/>
<path d="M100.803 36.6078L93.4277 32.9028V40.3154L100.803 36.6078Z" fill="white" stroke="#263238" stroke-linecap="round" stroke-linejoin="round"/>
<path d="M104.232 32.5676H102.242V40.651H104.232V32.5676Z" fill="white" stroke="#263238" stroke-linecap="round" stroke-linejoin="round"/>
<path d="M44.5254 36.6078L51.9034 32.9028V40.3154L44.5254 36.6078Z" fill="white" stroke="#263238" stroke-linecap="round" stroke-linejoin="round"/>
<path d="M41.1005 40.6509H43.0898V32.5675H41.1005V40.6509Z" fill="white" stroke="#263238" stroke-linecap="round" stroke-linejoin="round"/>
<path d="M72.6639 42.7649C76.5341 42.7649 79.6716 40.034 79.6716 36.6653C79.6716 33.2966 76.5341 30.5657 72.6639 30.5657C68.7937 30.5657 65.6562 33.2966 65.6562 36.6653C65.6562 40.034 68.7937 42.7649 72.6639 42.7649Z" fill="#FDC70A" stroke="#263238" stroke-linecap="round" stroke-linejoin="round"/>
<path d="M71.8091 33.2852H68.6816V40.0452H71.8091V33.2852Z" fill="white" stroke="#263238" stroke-linecap="round" stroke-linejoin="round"/>
<path d="M76.6489 33.2852H73.5215V40.0452H76.6489V33.2852Z" fill="white" stroke="#263238" stroke-linecap="round" stroke-linejoin="round"/>
<path d="M53.794 49.0775C53.794 49.0775 55.8282 50.0421 56.0134 50.8455C56.1986 51.6489 56.103 52.6967 56.3808 52.9385C56.6586 53.1803 57.9072 53.0191 57.8146 53.7835C57.7749 54.2065 57.6335 54.6176 57.3994 54.9899C57.3994 54.9899 57.3516 56.1157 57.259 57.0387C57.1664 57.9617 57.259 58.3387 56.6616 58.5675C56.0642 58.7963 53.9344 58.6091 53.6118 58.6481C53.2892 58.6871 52.6888 57.3611 52.2736 54.5063C51.8584 51.6515 52.871 48.7967 53.794 49.0775Z" fill="white" stroke="#263238" stroke-linecap="round" stroke-linejoin="round"/>
<path d="M32.8301 84.292L30.9811 86.5462C30.9811 86.5462 28.4869 86.6268 27.6953 86.7464C26.9037 86.866 26.7723 87.1494 26.7723 87.5108C26.7723 87.8722 26.6797 88.6756 26.6797 89.0396C26.7047 89.2308 26.8065 89.4083 26.9672 89.5405C27.1279 89.6728 27.3371 89.7514 27.5579 89.7624C28.0179 89.8014 28.4361 89.882 28.6661 89.7234C28.8715 89.5318 29.0427 89.3144 29.1739 89.0786C29.1739 89.0786 30.0073 89.401 30.9661 88.7172C31.5972 88.3067 32.1896 87.8528 32.7375 87.36C33.0153 87.0792 35.0494 85.5088 35.0494 85.5088L32.8301 84.292Z" fill="white" stroke="#263238" stroke-linecap="round" stroke-linejoin="round"/>
<path d="M29.179 89.0786C29.179 89.0786 28.0708 89.2788 27.793 88.959" stroke="#263238" stroke-linecap="round" stroke-linejoin="round"/>
<path d="M44.3208 83.1453C44.3208 83.1453 42.2955 87.9189 42.4927 89.8507C42.6898 91.7825 42.884 94.5125 42.9497 96.8993C43.0154 99.2861 43.0781 103.945 43.0781 103.945C43.0781 103.945 42.2298 106.446 42.0357 107.754C41.8415 109.062 41.9042 119.61 41.9042 119.61C41.9042 119.61 40.9902 121.656 40.4107 122.395C39.8312 123.133 38.9739 123.695 38.3197 124.215C37.6656 124.735 37.9255 125.465 39.1024 125.634C40.2793 125.803 41.6473 125.692 42.2358 125.408C42.8242 125.125 44.0639 124.888 44.5209 123.986C44.9779 123.084 44.7838 120.008 44.7838 120.008C44.7838 120.008 47.4721 111.106 47.9172 108.55C48.3623 105.994 49.0254 102.071 49.0911 101.616C49.1568 101.161 51.7795 91.1585 51.7795 91.1585L53.0848 91.0441L54.2587 95.7059L55.7523 104.4C55.7523 104.4 55.361 107.923 55.818 110.367C56.275 112.811 56.6006 122.28 56.6006 122.28C56.6006 122.28 56.0779 125.294 56.275 125.749C56.4722 126.204 57.3832 126.269 58.7543 126.204C59.9079 126.121 61.0245 125.809 62.0191 125.294C62.2696 125.18 62.4583 124.985 62.5439 124.751C62.6296 124.516 62.6052 124.262 62.4762 124.043C62.2163 123.523 61.5621 123.076 61.1708 122.509C60.7795 121.942 60.3882 121.656 60.2568 121.144C60.1253 120.632 61.368 111.004 61.1708 108.948C60.9737 106.891 60.9109 104.174 60.9109 104.174C60.9109 104.174 62.4045 99.5123 62.4762 94.6815C62.5479 89.8507 63.196 89.1695 61.825 86.0443C60.4539 82.9191 59.6683 81.7803 59.6683 81.7803L44.6523 82.1209L44.3208 83.1453Z" fill="white" stroke="#263238" stroke-linecap="round" stroke-linejoin="round"/>
<path d="M61.1651 108.94C60.971 106.894 60.9053 104.166 60.9053 104.166C60.9053 104.166 62.3988 99.5045 62.4705 94.6737C62.5422 89.8429 63.1904 89.1617 61.8193 86.0365C60.4482 82.9113 59.6626 81.7725 59.6626 81.7725L44.6467 82.1131L44.3211 83.1375C44.3211 83.1375 42.2958 87.9111 42.493 89.8429C42.6901 91.7747 42.8843 94.5047 42.95 96.8915C43.0157 99.2783 43.0784 103.937 43.0784 103.937C43.0784 103.937 42.2301 106.439 42.036 107.746C41.9135 108.558 41.8926 114.348 41.8926 116.875C42.487 116.615 43.1524 116.504 43.815 116.553C44.4777 116.602 45.1118 116.81 45.6473 117.153C46.4359 115.06 47.6576 109.967 47.9115 108.542C48.3685 105.984 49.0197 102.063 49.0854 101.608C49.1512 101.153 51.7738 91.1507 51.7738 91.1507L53.0791 91.0363L54.2531 95.6981L55.7466 104.392C55.7466 104.392 55.3553 107.915 55.8123 110.359C56.0931 111.857 56.3231 117.434 56.4605 119.74C57.1054 119.957 57.801 120.035 58.488 119.968C59.175 119.9 59.8332 119.689 60.4064 119.353C60.7051 116.922 61.3055 110.417 61.1651 108.94Z" fill="#263238" stroke="#263238" stroke-linecap="round" stroke-linejoin="round"/>
<path d="M61.1651 122.509C60.9679 122.221 60.7678 122.005 60.6035 121.794C60.5318 121.945 60.4392 122.143 60.3048 122.395C60.2449 122.575 60.1137 122.731 59.9344 122.835C59.7551 122.939 59.5393 122.985 59.325 122.964C59.325 122.964 58.2168 122.111 57.4312 122.054C56.6456 121.997 56.5829 122.28 56.5829 122.28C56.5829 122.28 56.0602 125.294 56.2573 125.749C56.4545 126.204 57.3655 126.269 58.7366 126.204C59.8902 126.121 61.0068 125.809 62.0015 125.294C62.252 125.18 62.4406 124.985 62.5263 124.751C62.6119 124.516 62.5875 124.262 62.4585 124.043C62.2106 123.531 61.5564 123.076 61.1651 122.509Z" fill="white" stroke="#263238" stroke-linecap="round" stroke-linejoin="round"/>
<path d="M43.1448 120.746C42.5579 121.095 42.0513 121.536 41.6512 122.046C41.599 121.639 41.4844 121.239 41.3107 120.858C41.0603 121.388 40.7606 121.899 40.4146 122.387C39.8172 123.125 38.9778 123.687 38.3237 124.207C37.6695 124.727 37.9294 125.458 39.1063 125.627C40.2832 125.796 41.6512 125.684 42.2397 125.4C42.8282 125.117 44.0678 124.88 44.5248 123.978C44.8564 123.32 44.8444 121.526 44.8235 120.598L44.6652 120.637C44.6652 120.637 44.0588 120.234 43.1448 120.746Z" fill="white" stroke="#263238" stroke-linecap="round" stroke-linejoin="round"/>
<path d="M43.1447 123.474C41.6511 123.703 40.7938 124.498 39.6199 124.896C39.1061 125.07 38.6521 125.234 38.3086 125.362C38.5432 125.503 38.8139 125.592 39.0972 125.622C40.2711 125.793 41.6422 125.679 42.2306 125.395C42.8191 125.112 44.0587 124.875 44.5157 123.973C44.5068 123.986 44.6472 123.24 43.1447 123.474Z" fill="white" stroke="#263238" stroke-linecap="round" stroke-linejoin="round"/>
<path d="M44.1357 82.6175C44.1357 82.6175 43.7205 83.3819 44.1357 83.8239C44.5509 84.2659 48.5715 85.6725 53.4225 84.9081C58.2735 84.1437 58.8739 83.9435 59.6953 82.8567C60.5168 81.7699 60.1583 81.0887 59.9253 80.5661C59.6924 80.0435 62.5599 82.1755 54.5665 82.7371C46.5732 83.2987 44.5061 81.7725 44.5061 81.7725L44.1357 82.6175Z" fill="#FDC70A" stroke="#263238" stroke-linecap="round" stroke-linejoin="round"/>
<path d="M69.8228 50.4581C69.8228 50.4581 70.1752 47.5981 70.1752 47.4603C69.9548 46.942 69.684 46.4409 69.3657 45.9627C69.067 45.4765 68.9595 45.0371 68.6578 44.4651C68.3561 43.8931 67.1882 43.9789 67.7617 43.5395C68.3352 43.1001 68.6578 43.1417 69.076 43.3627C69.4942 43.5837 69.7869 43.8827 70.1902 43.7137C70.5934 43.5447 71.3043 40.7627 71.4059 40.4091C71.5075 40.0555 72.2154 39.9697 72.317 40.4091C72.4185 40.8485 72.066 43.0091 72.066 43.0091C72.066 43.0091 72.8248 42.6581 73.1294 42.8323C73.3195 42.9532 73.4607 43.1234 73.5327 43.3185C73.5327 43.3185 74.1301 43.5785 74.1898 43.8905L74.2406 44.1999C74.2406 44.1999 74.6469 44.7199 74.5961 45.0813C74.4514 45.7504 74.2137 46.4018 73.8882 47.0209C73.4819 47.8139 72.8248 48.9163 72.6724 49.2673C72.5112 49.8925 72.3925 50.5253 72.317 51.1627L69.8228 50.4581Z" fill="white" stroke="#263238" stroke-linecap="round" stroke-linejoin="round"/>
<path d="M54.3005 59.9766C54.3005 59.9766 56.7051 61.3026 57.0277 61.1414C57.3503 60.9802 59.1515 59.896 60.5375 59.5814C61.9235 59.2668 62.2939 59.1394 62.6285 58.856C62.963 58.5726 67.2047 55.5592 67.4347 55.2784C67.6647 54.9976 69.9767 49.4882 69.9767 49.4882C69.9767 49.4882 71.1297 49.4466 71.6405 49.6468C71.9798 49.7922 72.2912 49.9825 72.5635 50.211C72.5635 50.211 71.7779 56.8462 71.6405 57.2492C71.5031 57.6522 69.7437 59.259 68.7759 60.2236C67.8081 61.1882 60.6421 65.6836 60.3195 66.2166C59.9969 66.7496 58.3779 71.6454 58.1031 73.0936C57.8283 74.5418 60.0417 79.006 60.0895 79.7704C60.1373 80.5348 60.4121 81.5384 59.7191 82.2222C59.0261 82.906 57.3294 83.751 50.8475 84.0734C44.3656 84.3958 43.8727 82.7448 43.8727 82.1416C43.8727 81.5384 44.3805 78.9644 44.1953 77.1548C44.0964 76.1285 43.9268 75.1084 43.6875 74.0998C43.6875 74.0998 42.1163 77.4798 41.7011 78.0804C41.2859 78.681 39.6101 81.658 38.5587 82.7058C37.5072 83.7536 35.706 86.2704 34.5501 86.1508C33.3941 86.0312 32.7578 85.2668 32.7578 84.7442C32.8006 84.2786 32.909 83.8193 33.0804 83.3766C33.0804 83.3766 37.2623 76.8324 37.6417 76.1486C38.021 75.4648 39.1681 71.9678 39.4907 70.5196C39.8133 69.0714 39.7207 65.8552 40.3689 64.9686C41.0171 64.082 46.2833 62.1554 47.6215 61.43C48.9597 60.7046 52.3141 59.7348 54.3005 59.9766Z" fill="#FDC70A" stroke="#263238" stroke-linecap="round" stroke-linejoin="round"/>
<path d="M41.8429 70.5872L43.677 74.092L41.1738 71.2346" stroke="#263238" stroke-linecap="round" stroke-linejoin="round"/>
<path d="M58.0647 68.1252L60.308 66.209L57.5449 70.2" stroke="#263238" stroke-linecap="round" stroke-linejoin="round"/>
<path d="M53.7481 76.6116C53.7481 76.6116 49.8052 81.146 46.6777 82.3108" stroke="#263238" stroke-linecap="round" stroke-linejoin="round"/>
<path d="M51.0777 77.9062C51.0777 77.9062 47.7919 80.9508 47.1348 81.4058" stroke="#263238" stroke-linecap="round" stroke-linejoin="round"/>
<path d="M47.1952 49.1971C46.1885 49.8119 45.4032 50.6631 44.931 51.6515C44.2858 53.1803 44.5636 55.2291 44.5158 55.4319C44.468 55.6347 39.6648 55.7933 39.2944 57.3221C38.924 58.8509 40.3578 59.9767 40.5878 60.7021C40.8178 61.4275 37.6306 61.9085 37.1706 63.7987C36.7106 65.6889 42.0664 65.8501 41.8364 67.0149C41.6064 68.1797 41.0986 68.0211 41.239 69.2275C41.3794 70.4339 43.088 70.9981 45.1222 71.5675C47.1564 72.1369 47.0638 72.5321 48.3094 71.6481C49.555 70.7641 49.6506 70.0387 49.8806 69.1963C50.1106 68.3539 50.3884 68.9935 51.9715 67.8677C53.5547 66.7419 53.9579 65.0077 53.8205 64.2095C53.6831 63.4113 53.7757 64.4097 54.9287 62.9615C56.0817 61.5133 55.5769 60.8295 54.8361 59.4619C54.0953 58.0943 53.7757 57.5717 53.8683 56.6487C53.9609 55.7257 55.2543 52.7071 54.6061 51.5813C53.9579 50.4555 53.5427 50.5413 53.8683 49.8107C54.1939 49.0801 54.9765 48.9267 54.0057 47.9621C53.0349 46.9975 51.4637 46.9559 50.7707 47.3173C50.0777 47.6787 50.4929 47.7593 49.3399 48.0427C48.5319 48.2777 47.7977 48.6729 47.1952 49.1971Z" fill="#263238" stroke="#263238" stroke-linecap="round" stroke-linejoin="round"/>
<path d="M56.3795 55.6528C56.3795 56.841 55.5431 57.803 54.5096 57.803C53.4761 57.803 52.6367 56.841 52.6367 55.6528C52.6367 54.4646 53.4761 53.5 54.5096 53.5C55.5431 53.5 56.3795 54.4646 56.3795 55.6528Z" fill="#787878" stroke="#263238" stroke-linecap="round" stroke-linejoin="round"/>
<path d="M56.4812 55.6529C56.4812 56.5525 55.845 57.2831 55.0624 57.2831C54.2797 57.2831 53.6465 56.5525 53.6465 55.6529C53.6465 54.7533 54.2797 54.0227 55.0624 54.0227C55.845 54.0227 56.4812 54.7533 56.4812 55.6529Z" fill="white" stroke="#263238" stroke-linecap="round" stroke-linejoin="round"/>
<path d="M55.1497 52.351C54.9016 51.1179 54.2383 49.9767 53.2439 49.0723C52.1835 48.1467 50.4152 47.7437 48.7424 48.0323C47.458 48.2611 46.8188 48.7448 46.4484 49.5482C46.3946 49.6678 46.0929 49.9017 46.1497 50.011C46.0093 49.7171 48.0046 48.8877 48.2227 48.8253C48.9597 48.6095 49.7517 48.5784 50.508 48.7356C51.2644 48.8929 51.9547 49.2321 52.5002 49.7146C53.3296 50.4793 53.8877 51.4363 54.1072 52.4705C54.1252 52.5801 54.1879 52.6804 54.2839 52.753C54.3799 52.8256 54.5028 52.8656 54.6299 52.8657H54.7046C54.8411 52.8471 54.9639 52.7829 55.047 52.6868C55.13 52.5907 55.1669 52.4703 55.1497 52.351Z" fill="#787878" stroke="#263238" stroke-linecap="round" stroke-linejoin="round"/>
<path d="M54.961 55.3954C54.7348 55.3944 54.5167 55.3218 54.3474 55.1912C54.1781 55.0606 54.0692 54.8809 54.0409 54.6856C53.9264 53.9408 53.7558 53.2034 53.5302 52.4782C53.464 52.2713 53.495 52.05 53.6163 51.863C53.7375 51.676 53.9392 51.5386 54.1769 51.4811C54.4145 51.4235 54.6687 51.4504 54.8836 51.556C55.0984 51.6616 55.2563 51.8371 55.3224 52.044C55.5733 52.8467 55.7619 53.6632 55.887 54.488C55.902 54.5931 55.8931 54.6999 55.8606 54.802C55.8282 54.9042 55.773 54.9998 55.6981 55.0834C55.6232 55.1669 55.5301 55.2368 55.4241 55.289C55.3181 55.3412 55.2013 55.3747 55.0804 55.3876C55.0409 55.3929 55.001 55.3955 54.961 55.3954Z" fill="white" stroke="#263238" stroke-linecap="round" stroke-linejoin="round"/>
<path d="M119.996 80.0906L123.939 112.981" stroke="#263238" stroke-linecap="round" stroke-linejoin="round"/>
<path d="M123.162 106.551L121.516 105.043" stroke="#263238" stroke-linecap="round" stroke-linejoin="round"/>
<path d="M122.06 105.537C122.056 105.285 121.991 105.037 121.868 104.809C121.746 104.582 121.568 104.379 121.349 104.216C120.889 103.86 118.475 102.976 118.245 103.714C117.988 104.52 120.467 106.101 122.06 105.537Z" fill="#FDC70A" stroke="#263238" stroke-miterlimit="10"/>
<path d="M122.06 105.537L119.76 104.289" stroke="#263238" stroke-linecap="round" stroke-linejoin="round"/>
<path d="M123.572 109.946L121.965 108.784" stroke="#263238" stroke-linecap="round" stroke-linejoin="round"/>
<path d="M122.508 109.275C122.504 109.024 122.439 108.777 122.316 108.549C122.193 108.322 122.016 108.12 121.797 107.957C121.337 107.598 118.923 106.714 118.693 107.455C118.445 108.261 120.915 109.842 122.508 109.275Z" fill="#FDC70A" stroke="#263238" stroke-miterlimit="10"/>
<path d="M122.507 109.275L120.207 108.03" stroke="#263238" stroke-linecap="round" stroke-linejoin="round"/>
<path d="M122.046 97.1855L120.424 95.9141" stroke="#263238" stroke-linecap="round" stroke-linejoin="round"/>
<path d="M120.975 96.408C120.971 96.1563 120.905 95.9081 120.782 95.6803C120.659 95.4525 120.481 95.2502 120.261 95.0872C119.804 94.731 117.387 93.847 117.157 94.588C116.9 95.3914 119.374 96.98 120.975 96.408Z" fill="#FDC70A" stroke="#263238" stroke-miterlimit="10"/>
<path d="M120.966 96.4082L118.666 95.1602" stroke="#263238" stroke-linecap="round" stroke-linejoin="round"/>
<path d="M122.499 101.164L120.871 99.6555" stroke="#263238" stroke-linecap="round" stroke-linejoin="round"/>
<path d="M121.414 100.149C121.41 99.8977 121.345 99.6496 121.222 99.4217C121.099 99.1939 120.921 98.9917 120.7 98.8287C120.243 98.4725 117.827 97.5885 117.6 98.3269C117.349 99.1329 119.822 100.714 121.414 100.149Z" fill="#FDC70A" stroke="#263238" stroke-miterlimit="10"/>
<path d="M121.415 100.15L119.115 98.9016" stroke="#263238" stroke-linecap="round" stroke-linejoin="round"/>
<path d="M121.321 91.2835L119.693 89.8379" stroke="#263238" stroke-linecap="round" stroke-linejoin="round"/>
<path d="M120.238 90.3319C120.235 90.0801 120.169 89.832 120.046 89.6041C119.923 89.3763 119.745 89.1741 119.525 89.0111C119.068 88.6549 116.651 87.7709 116.424 88.5119C116.173 89.3153 118.646 90.8961 120.238 90.3319Z" fill="#FDC70A" stroke="#263238" stroke-miterlimit="10"/>
<path d="M120.238 90.332L117.938 89.084" stroke="#263238" stroke-linecap="round" stroke-linejoin="round"/>
<path d="M120.537 84.7862L118.963 83.7358" stroke="#263238" stroke-linecap="round" stroke-linejoin="round"/>
<path d="M119.506 84.2401C119.502 83.9887 119.437 83.7409 119.313 83.5135C119.19 83.2861 119.012 83.0844 118.792 82.9219C118.335 82.5657 115.919 81.6791 115.692 82.4201C115.441 83.2131 117.914 84.7939 119.506 84.2401Z" fill="#FDC70A" stroke="#263238" stroke-miterlimit="10"/>
<path d="M119.505 84.2271L117.205 82.9817" stroke="#263238" stroke-linecap="round" stroke-linejoin="round"/>
<path d="M123.004 104.473L124.363 102.544" stroke="#263238" stroke-linecap="round" stroke-linejoin="round"/>
<path d="M123.962 103.124C123.906 102.877 123.912 102.623 123.978 102.378C124.045 102.133 124.17 101.903 124.347 101.704C124.709 101.273 126.862 99.9726 127.263 100.664C127.684 101.4 125.641 103.392 123.962 103.124Z" fill="#FDC70A" stroke="#263238" stroke-miterlimit="10"/>
<path d="M123.947 103.124L125.566 101.803" stroke="#263238" stroke-linecap="round" stroke-linejoin="round"/>
<path d="M121.824 94.6296L123.183 92.7004" stroke="#263238" stroke-linecap="round" stroke-linejoin="round"/>
<path d="M122.769 93.2803C122.713 93.0337 122.718 92.7795 122.784 92.5347C122.85 92.2899 122.975 92.0602 123.151 91.8607C123.515 91.4291 125.2 90.3475 125.6 91.0313C126.037 91.7801 124.462 93.5481 122.769 93.2803Z" fill="#FDC70A" stroke="#263238" stroke-miterlimit="10"/>
<path d="M122.768 93.2804L124.838 91.5566" stroke="#263238" stroke-linecap="round" stroke-linejoin="round"/>
<path d="M121.305 90.3032L122.664 88.374" stroke="#263238" stroke-linecap="round" stroke-linejoin="round"/>
<path d="M122.249 88.9539C122.193 88.707 122.199 88.4527 122.265 88.2078C122.332 87.963 122.458 87.7334 122.634 87.5343C122.999 87.1027 125.152 85.8027 125.55 86.4943C125.986 87.2301 123.943 89.2217 122.249 88.9539Z" fill="#FDC70A" stroke="#263238" stroke-miterlimit="10"/>
<path d="M122.248 88.9539L124.321 87.2327" stroke="#263238" stroke-linecap="round" stroke-linejoin="round"/>
<path d="M120.545 83.9619L121.904 82.0327" stroke="#263238" stroke-linecap="round" stroke-linejoin="round"/>
<path d="M121.488 82.6126C121.432 82.3659 121.437 82.1116 121.503 81.8667C121.568 81.6218 121.694 81.392 121.871 81.193C122.235 80.7614 124.389 79.4614 124.789 80.153C125.225 80.8888 123.179 82.8804 121.488 82.6126Z" fill="#FDC70A" stroke="#263238" stroke-miterlimit="10"/>
<path d="M121.49 82.6125L123.56 80.8887" stroke="#263238" stroke-linecap="round" stroke-linejoin="round"/>
<path d="M119.964 79.9085C119.908 79.6618 119.914 79.4076 119.979 79.1628C120.045 78.9181 120.17 78.6883 120.346 78.4889C120.711 78.0573 122.864 76.7573 123.265 77.4489C123.701 78.1847 121.655 80.1763 119.964 79.9085Z" fill="#FDC70A" stroke="#263238" stroke-miterlimit="10"/>
<path d="M119.963 79.9086L122.033 78.1848" stroke="#263238" stroke-linecap="round" stroke-linejoin="round"/>
<path d="M120.079 79.9813C119.791 80.0043 119.501 79.9732 119.229 79.8902C118.956 79.8073 118.707 79.6743 118.499 79.5003C118.042 79.1415 116.784 77.1395 117.602 76.8665C118.505 76.5675 120.566 78.5461 120.079 79.9813Z" fill="#FDC70A" stroke="#263238" stroke-miterlimit="10"/>
<path d="M120.082 79.9812L118.332 78.0078" stroke="#263238" stroke-linecap="round" stroke-linejoin="round"/>
<path d="M125.904 71.2246V112.822" stroke="#263238" stroke-linecap="round" stroke-linejoin="round"/>
<path d="M130.397 84.6196L126.475 117.512" stroke="#263238" stroke-linecap="round" stroke-linejoin="round"/>
<path d="M127.305 110.794L126.396 109.889" stroke="#263238" stroke-linecap="round" stroke-linejoin="round"/>
<path d="M126.397 109.889C126.453 109.642 126.448 109.388 126.382 109.144C126.316 108.899 126.191 108.669 126.015 108.47C125.648 108.041 123.494 106.741 123.097 107.43C122.661 108.16 124.707 110.16 126.397 109.889Z" fill="#FDC70A" stroke="#263238" stroke-miterlimit="10"/>
<path d="M126.397 109.889L124.443 108.256" stroke="#263238" stroke-linecap="round" stroke-linejoin="round"/>
<path d="M128.414 101.403L127.066 100.423" stroke="#263238" stroke-linecap="round" stroke-linejoin="round"/>
<path d="M127.485 100.761C127.541 100.514 127.536 100.26 127.47 100.016C127.404 99.7715 127.279 99.5422 127.102 99.3436C126.738 98.912 124.584 97.612 124.184 98.3036C123.751 99.0394 125.794 101.031 127.485 100.761Z" fill="#FDC70A" stroke="#263238" stroke-miterlimit="10"/>
<path d="M127.485 100.76L125.531 99.1277" stroke="#263238" stroke-linecap="round" stroke-linejoin="round"/>
<path d="M127.987 105.851L126.625 103.922" stroke="#263238" stroke-linecap="round" stroke-linejoin="round"/>
<path d="M127.04 104.502C127.097 104.255 127.092 104.001 127.026 103.756C126.96 103.511 126.834 103.281 126.658 103.082C126.293 102.651 124.137 101.353 123.739 102.042C123.303 102.781 125.349 104.78 127.04 104.502Z" fill="#FDC70A" stroke="#263238" stroke-miterlimit="10"/>
<path d="M127.039 104.502L125.086 102.869" stroke="#263238" stroke-linecap="round" stroke-linejoin="round"/>
<path d="M129.094 95.4071L127.795 94.1045" stroke="#263238" stroke-linecap="round" stroke-linejoin="round"/>
<path d="M128.21 94.6843C128.266 94.4375 128.26 94.1831 128.194 93.9383C128.127 93.6935 128.002 93.4638 127.825 93.2647C127.46 92.8331 125.307 91.5357 124.906 92.2247C124.473 92.9631 126.519 94.9521 128.21 94.6843Z" fill="#FDC70A" stroke="#263238" stroke-miterlimit="10"/>
<path d="M128.209 94.6843L126.256 93.0515" stroke="#263238" stroke-linecap="round" stroke-linejoin="round"/>
<path d="M129.775 89.6976L128.523 88.0024" stroke="#263238" stroke-linecap="round" stroke-linejoin="round"/>
<path d="M128.939 88.5821C128.994 88.3352 128.989 88.0808 128.922 87.836C128.856 87.5912 128.73 87.3615 128.553 87.1624C128.189 86.7308 126.035 85.4334 125.635 86.1224C125.202 86.8582 127.248 88.8499 128.939 88.5821Z" fill="#FDC70A" stroke="#263238" stroke-miterlimit="10"/>
<path d="M128.939 88.582L126.982 86.9492" stroke="#263238" stroke-linecap="round" stroke-linejoin="round"/>
<path d="M127.574 109.021L129.36 107.375" stroke="#263238" stroke-linecap="round" stroke-linejoin="round"/>
<path d="M128.816 107.869C128.82 107.617 128.885 107.369 129.008 107.142C129.13 106.914 129.308 106.711 129.527 106.548C129.984 106.192 132.401 105.305 132.631 106.046C132.879 106.86 130.409 108.433 128.816 107.869Z" fill="#FDC70A" stroke="#263238" stroke-miterlimit="10"/>
<path d="M128.816 107.869L131.251 106.553" stroke="#263238" stroke-linecap="round" stroke-linejoin="round"/>
<path d="M128.744 99.1745L130.533 97.5312" stroke="#263238" stroke-linecap="round" stroke-linejoin="round"/>
<path d="M129.99 98.02C129.994 97.7689 130.059 97.5213 130.182 97.2939C130.304 97.0666 130.481 96.8647 130.701 96.7018C131.158 96.343 133.575 95.459 133.805 96.1974C134.053 97.006 131.582 98.5894 129.99 98.02Z" fill="#FDC70A" stroke="#263238" stroke-miterlimit="10"/>
<path d="M129.99 98.0227L132.422 96.7097" stroke="#263238" stroke-linecap="round" stroke-linejoin="round"/>
<path d="M129.262 94.848L131.048 93.2048" stroke="#263238" stroke-linecap="round" stroke-linejoin="round"/>
<path d="M130.508 93.6989C130.51 93.4475 130.575 93.1995 130.697 92.9716C130.819 92.7438 130.996 92.5414 131.216 92.3781C131.676 92.0193 134.089 91.1353 134.319 91.8737C134.57 92.6797 132.1 94.2631 130.508 93.6989Z" fill="#FDC70A" stroke="#263238" stroke-miterlimit="10"/>
<path d="M130.508 93.6989L132.939 92.3833" stroke="#263238" stroke-linecap="round" stroke-linejoin="round"/>
<path d="M129.996 88.1817L131.803 86.8635" stroke="#263238" stroke-linecap="round" stroke-linejoin="round"/>
<path d="M131.264 87.3601C131.267 87.1085 131.332 86.8603 131.454 86.6325C131.577 86.4046 131.754 86.2023 131.975 86.0393C132.432 85.6831 134.845 84.7965 135.075 85.5375C135.314 86.3383 132.856 87.9217 131.264 87.3601Z" fill="#FDC70A" stroke="#263238" stroke-miterlimit="10"/>
<path d="M131.264 87.355L133.695 86.042" stroke="#263238" stroke-miterlimit="10"/>
<path d="M130.408 84.435C130.412 84.1835 130.477 83.9355 130.6 83.7078C130.722 83.48 130.899 83.2776 131.119 83.1142C131.576 82.758 133.993 81.8714 134.223 82.6124C134.471 83.4184 132 84.9992 130.408 84.435Z" fill="#FDC70A" stroke="#263238" stroke-miterlimit="10"/>
<path d="M130.408 84.4352L132.84 83.1196" stroke="#263238" stroke-linecap="round" stroke-linejoin="round"/>
<path d="M130.507 84.5288C130.22 84.4996 129.944 84.4172 129.697 84.2871C129.449 84.157 129.237 83.9823 129.074 83.7748C128.715 83.3406 127.956 81.1592 128.826 81.037C129.773 80.9044 131.32 83.2002 130.507 84.5288Z" fill="#FDC70A" stroke="#263238" stroke-miterlimit="10"/>
<path d="M130.507 84.5287L129.262 82.2849" stroke="#263238" stroke-linecap="round" stroke-linejoin="round"/>
<path d="M125.838 106.491L124.359 104.77" stroke="#263238" stroke-linecap="round" stroke-linejoin="round"/>
<path d="M124.841 105.3C124.867 105.05 124.832 104.797 124.737 104.559C124.642 104.322 124.49 104.104 124.291 103.922C123.876 103.527 121.582 102.427 121.265 103.142C120.922 103.933 123.189 105.729 124.841 105.3Z" fill="#FDC70A" stroke="#263238" stroke-miterlimit="10"/>
<path d="M124.842 105.311L122.703 103.862" stroke="#263238" stroke-linecap="round" stroke-linejoin="round"/>
<path d="M125.889 98.1943L124.359 96.9541" stroke="#263238" stroke-linecap="round" stroke-linejoin="round"/>
<path d="M124.841 97.5002C124.867 97.2497 124.832 96.9971 124.737 96.7595C124.642 96.5218 124.49 96.3046 124.291 96.1222C123.876 95.727 121.582 94.6298 121.265 95.3422C120.922 96.1144 123.189 97.911 124.841 97.5002Z" fill="#FDC70A" stroke="#263238" stroke-miterlimit="10"/>
<path d="M124.842 97.4924L122.703 96.0442" stroke="#263238" stroke-linecap="round" stroke-linejoin="round"/>
<path d="M125.943 89.5727L124.359 87.7761" stroke="#263238" stroke-linecap="round" stroke-linejoin="round"/>
<path d="M124.841 88.3144C124.867 88.0643 124.832 87.8122 124.737 87.575C124.642 87.3377 124.49 87.1209 124.291 86.939C123.876 86.5412 121.582 85.444 121.265 86.159C120.922 86.939 123.189 88.7356 124.841 88.3144Z" fill="#FDC70A" stroke="#263238" stroke-miterlimit="10"/>
<path d="M124.842 88.3144L122.703 86.8662" stroke="#263238" stroke-linecap="round" stroke-linejoin="round"/>
<path d="M125.838 82.8282L124.359 81.666" stroke="#263238" stroke-linecap="round" stroke-linejoin="round"/>
<path d="M124.841 82.2069C124.867 81.9564 124.832 81.7039 124.737 81.4662C124.642 81.2286 124.49 81.0113 124.291 80.8289C123.876 80.4311 121.582 79.3339 121.265 80.0489C120.922 80.8289 123.189 82.6255 124.841 82.2069Z" fill="#FDC70A" stroke="#263238" stroke-miterlimit="10"/>
<path d="M124.842 82.207L122.703 80.7588" stroke="#263238" stroke-linecap="round" stroke-linejoin="round"/>
<path d="M125.926 76.7158L124.391 75.7356" stroke="#263238" stroke-linecap="round" stroke-linejoin="round"/>
<path d="M124.841 76.0684C124.867 75.8182 124.832 75.5661 124.737 75.3289C124.642 75.0916 124.49 74.8748 124.291 74.693C123.876 74.2952 121.582 73.198 121.265 73.913C120.922 74.693 123.189 76.4896 124.841 76.0684Z" fill="#FDC70A" stroke="#263238" stroke-miterlimit="10"/>
<path d="M124.842 76.0684L122.703 74.6228" stroke="#263238" stroke-linecap="round" stroke-linejoin="round"/>
<path d="M126.215 108.568L127.49 107.156" stroke="#263238" stroke-linecap="round" stroke-linejoin="round"/>
<path d="M127.007 107.697C126.98 107.447 127.016 107.194 127.111 106.956C127.206 106.718 127.359 106.501 127.559 106.319C127.971 105.924 130.268 104.824 130.585 105.539C130.929 106.319 128.658 108.116 127.007 107.697Z" fill="#FDC70A" stroke="#263238" stroke-miterlimit="10"/>
<path d="M127.006 107.697L129.27 106.171" stroke="#263238" stroke-linecap="round" stroke-linejoin="round"/>
<path d="M125.908 96.5224L127.491 94.7258" stroke="#263238" stroke-linecap="round" stroke-linejoin="round"/>
<path d="M127.006 95.2641C126.98 95.0134 127.016 94.7607 127.111 94.523C127.207 94.2853 127.359 94.0681 127.559 93.8861C127.971 93.4909 130.268 92.3937 130.585 93.1061C130.928 93.8861 128.658 95.6801 127.006 95.2641Z" fill="#FDC70A" stroke="#263238" stroke-miterlimit="10"/>
<path d="M127.006 95.2642L129.27 93.738" stroke="#263238" stroke-linecap="round" stroke-linejoin="round"/>
<path d="M125.908 90.3864L127.491 88.5898" stroke="#263238" stroke-linecap="round" stroke-linejoin="round"/>
<path d="M127.006 89.1281C126.98 88.8774 127.016 88.6247 127.111 88.387C127.207 88.1493 127.359 87.9322 127.559 87.7501C127.971 87.3549 130.268 86.2577 130.585 86.9701C130.928 87.7501 128.658 89.5467 127.006 89.1281Z" fill="#FDC70A" stroke="#263238" stroke-miterlimit="10"/>
<path d="M127.006 89.128L129.27 87.6018" stroke="#263238" stroke-linecap="round" stroke-linejoin="round"/>
<path d="M125.908 82.2746L127.491 80.478" stroke="#263238" stroke-linecap="round" stroke-linejoin="round"/>
<path d="M127.007 81.0186C126.98 80.7679 127.016 80.5151 127.111 80.2774C127.206 80.0397 127.359 79.8225 127.559 79.6406C127.971 79.2454 130.268 78.1456 130.585 78.8606C130.929 79.6406 128.658 81.4372 127.007 81.0186Z" fill="#FDC70A" stroke="#263238" stroke-miterlimit="10"/>
<path d="M127.006 81.0186L129.27 79.4924" stroke="#263238" stroke-linecap="round" stroke-linejoin="round"/>
<path d="M125.977 75.2754L127.527 74.2224" stroke="#263238" stroke-linecap="round" stroke-linejoin="round"/>
<path d="M127.007 74.6409C126.98 74.3905 127.016 74.1382 127.111 73.9009C127.206 73.6636 127.359 73.4469 127.559 73.2655C127.971 72.8677 130.268 71.7705 130.585 72.4855C130.929 73.2655 128.658 75.0595 127.007 74.6409Z" fill="#FDC70A" stroke="#263238" stroke-miterlimit="10"/>
<path d="M127.006 74.6409L129.27 73.1147" stroke="#263238" stroke-linecap="round" stroke-linejoin="round"/>
<path d="M125.811 71.8148C125.785 71.5643 125.82 71.3118 125.915 71.0741C126.01 70.8365 126.162 70.6192 126.361 70.4368C126.776 70.039 129.073 68.9418 129.39 69.6568C129.733 70.4368 127.463 72.2334 125.811 71.8148Z" fill="#FDC70A" stroke="#263238" stroke-miterlimit="10"/>
<path d="M125.812 71.8148L128.077 70.2886" stroke="#263238" stroke-linecap="round" stroke-linejoin="round"/>
<path d="M125.922 71.8979C125.633 71.8946 125.349 71.8375 125.087 71.7303C124.826 71.6231 124.594 71.4683 124.408 71.2765C123.998 70.8787 122.983 68.7753 123.834 68.5751C124.76 68.3593 126.573 70.5121 125.922 71.8979Z" fill="#FDC70A" stroke="#263238" stroke-miterlimit="10"/>
<path d="M125.922 71.8978L124.416 69.7788" stroke="#263238" stroke-linecap="round" stroke-linejoin="round"/>
<path d="M127.869 123.609H122.809L122.176 112.484H128.502L127.869 123.609Z" fill="#263238" stroke="#263238" stroke-linecap="round" stroke-linejoin="round"/>
</svg>
