<svg width="18" height="18" viewBox="0 0 18 18" fill="none" xmlns="http://www.w3.org/2000/svg">
<path d="M16.9852 4.84163C16.9384 4.75308 16.8585 4.68665 16.7629 4.65684C16.6673 4.62702 16.5639 4.63625 16.4751 4.68251C16.3863 4.72876 16.3194 4.80829 16.2889 4.90373C16.2585 4.99917 16.2671 5.10278 16.3127 5.19194C17.1263 6.74605 17.4211 8.52009 17.1539 10.2541C16.8867 11.9881 16.0716 13.5908 14.8281 14.8275C11.6168 18.0409 6.39104 18.0419 3.1784 14.8271C3.12538 14.7741 3.05783 14.738 2.9843 14.7233C2.91076 14.7087 2.83455 14.7163 2.76529 14.745C2.69604 14.7737 2.63686 14.8224 2.59524 14.8848C2.55363 14.9472 2.53144 15.0206 2.53149 15.0956V17.2763C2.53149 17.3768 2.57142 17.4733 2.6425 17.5444C2.71357 17.6156 2.80997 17.6555 2.91048 17.6555C3.011 17.6555 3.10739 17.6156 3.17847 17.5444C3.24954 17.4733 3.28947 17.3768 3.28947 17.2763V15.9521C4.89128 17.2697 6.89863 17.9931 8.97202 18.0001C11.0454 18.0071 13.0576 17.2973 14.6683 15.9907C16.279 14.684 17.3893 12.8607 17.8114 10.8292C18.2336 8.7977 17.9417 6.6826 16.9852 4.84163Z" fill="#052A43"/>
<path d="M3.18058 3.16905C6.39288 -0.0453732 11.6186 -0.0450357 14.8302 3.16872C14.8832 3.22184 14.9507 3.25804 15.0242 3.27273C15.0978 3.28741 15.174 3.27992 15.2433 3.25121C15.3126 3.2225 15.3718 3.17385 15.4134 3.11143C15.455 3.04901 15.4772 2.97564 15.4771 2.90059V0.719932C15.4771 0.619341 15.4372 0.52287 15.3661 0.451742C15.2951 0.380613 15.1987 0.340654 15.0981 0.340654C14.9976 0.340654 14.9012 0.380613 14.8302 0.451742C14.7591 0.52287 14.7192 0.619341 14.7192 0.719932V2.04404C11.1891 -0.864895 5.94389 -0.669192 2.64474 2.63247C1.28662 3.98284 0.396437 5.73307 0.104668 7.62663C-0.187101 9.52018 0.13489 11.4575 1.02344 13.1546C1.07025 13.2431 1.15015 13.3095 1.24572 13.3394C1.34128 13.3692 1.44475 13.3599 1.53355 13.3137C1.62234 13.2674 1.68924 13.1879 1.71966 13.0925C1.75008 12.997 1.74154 12.8934 1.69591 12.8042C0.882325 11.2502 0.58752 9.47621 0.854698 7.74227C1.12188 6.00834 1.93699 4.40564 3.18058 3.16905Z" fill="#052A43"/>
<path d="M4.04102 8.94296V13.1372C4.04182 13.4114 4.15102 13.6741 4.34475 13.868C4.53848 14.0619 4.80101 14.1711 5.07498 14.172H12.9331C13.2071 14.1712 13.4696 14.0619 13.6633 13.868C13.8571 13.6741 13.9663 13.4114 13.967 13.1372V8.94296C13.9663 8.66877 13.8571 8.40603 13.6633 8.21215C13.4696 8.01826 13.2071 7.90899 12.9331 7.9082H5.07498C4.80101 7.90902 4.53849 8.0183 4.34476 8.21218C4.15103 8.40606 4.04183 8.66878 4.04102 8.94296ZM11.7613 10.2297C11.9214 10.2297 12.078 10.2772 12.2112 10.3663C12.3444 10.4553 12.4482 10.5819 12.5094 10.73C12.5707 10.8781 12.5868 11.041 12.5555 11.1982C12.5243 11.3554 12.4472 11.4998 12.3339 11.6132C12.2206 11.7265 12.0764 11.8037 11.9193 11.835C11.7622 11.8662 11.5994 11.8502 11.4514 11.7889C11.3034 11.7275 11.1769 11.6236 11.088 11.4904C10.999 11.3571 10.9515 11.2004 10.9515 11.0401C10.9517 10.8252 11.0371 10.6192 11.1889 10.4673C11.3407 10.3153 11.5466 10.2299 11.7613 10.2297ZM9.00403 10.2297C9.1642 10.2297 9.32077 10.2772 9.45394 10.3663C9.58711 10.4553 9.69091 10.5819 9.7522 10.73C9.81349 10.8781 9.82953 11.041 9.79828 11.1982C9.76703 11.3554 9.68991 11.4998 9.57665 11.6132C9.4634 11.7265 9.3191 11.8037 9.16202 11.835C9.00493 11.8662 8.8421 11.8502 8.69413 11.7889C8.54616 11.7275 8.41968 11.6236 8.3307 11.4904C8.24172 11.3571 8.19422 11.2004 8.19422 11.0401C8.19443 10.8252 8.27982 10.6192 8.43164 10.4673C8.58346 10.3153 8.78932 10.2299 9.00403 10.2297ZM6.24678 10.2297C6.40695 10.2297 6.56352 10.2772 6.69669 10.3663C6.82986 10.4553 6.93366 10.5819 6.99495 10.73C7.05624 10.8781 7.07228 11.041 7.04103 11.1982C7.00978 11.3554 6.93266 11.4998 6.8194 11.6132C6.70615 11.7265 6.56185 11.8037 6.40477 11.835C6.24768 11.8662 6.08485 11.8502 5.93688 11.7889C5.78891 11.7275 5.66243 11.6236 5.57345 11.4904C5.48447 11.3571 5.43697 11.2004 5.43697 11.0401C5.43718 10.8252 5.52256 10.6192 5.67439 10.4673C5.82621 10.3153 6.03207 10.2299 6.24678 10.2297Z" fill="#052A43"/>
<path d="M12.3626 7.14919V5.76942C12.3626 4.87849 12.0089 4.02405 11.3794 3.39406C10.7499 2.76408 9.89612 2.41016 9.00587 2.41016C8.11562 2.41016 7.26183 2.76408 6.63232 3.39406C6.00282 4.02405 5.64917 4.87849 5.64917 5.76942V7.14919H6.40716V5.76942C6.40716 5.07967 6.68095 4.41817 7.16831 3.93044C7.65566 3.44271 8.31666 3.16871 9.00588 3.16871C9.69511 3.16871 10.3561 3.44271 10.8435 3.93044C11.3308 4.41817 11.6046 5.07967 11.6046 5.76942V7.14919H12.3626Z" fill="#052A43"/>
</svg>
