<svg width="18" height="18" viewBox="0 0 18 18" fill="none" xmlns="http://www.w3.org/2000/svg">
<path fill-rule="evenodd" clip-rule="evenodd" d="M16.9073 17.1795C16.8776 16.1981 15.6494 14.5936 14.5843 14.453C13.5322 14.317 12.7569 13.7501 12.1373 13.2139C11.9858 13.0827 11.8492 13.0194 11.72 13.0194C11.5665 13.0194 11.4308 13.1073 11.3052 13.2888C10.9705 13.7721 10.5269 14.1594 10.098 14.5345C9.87472 14.7296 9.64374 14.9311 9.43087 15.144C9.35044 15.2228 9.2842 15.2594 9.22233 15.2594C9.16337 15.2594 9.10329 15.2251 9.03885 15.1544C8.81722 14.9101 8.55299 14.7083 8.29729 14.5131C8.14419 14.3962 7.99105 14.2793 7.8455 14.1526C7.12125 13.524 6.82066 12.8156 6.92662 11.9863C6.92986 11.9598 6.92986 11.9304 6.92986 11.9007C6.92968 11.8429 6.92968 11.7828 6.95763 11.755C6.97233 11.7401 6.99574 11.733 7.02935 11.733C7.04355 11.733 7.05937 11.7343 7.07699 11.7369C7.13285 11.7459 7.18762 11.7521 7.23916 11.7521C7.41797 11.7521 7.53054 11.6742 7.5832 11.5141C7.67155 11.2368 7.47594 11.0889 7.30329 10.9587L7.26954 10.9332C6.56434 10.4015 6.02082 9.70112 5.60798 8.79257C5.33436 8.19059 5.30645 7.58731 5.52515 6.99922C5.87355 6.04627 6.3019 5.41068 6.9352 4.92208C7.03905 4.84098 7.10174 4.79207 7.15844 4.79207C7.20931 4.79207 7.26859 4.83148 7.37005 4.93291C8.75668 6.30893 10.0472 7.18193 11.4314 7.68023C11.7577 7.79814 11.8591 7.97371 11.7929 8.30657L11.7503 8.53418C11.5933 9.37814 11.4447 10.1754 10.7602 10.773C10.6649 10.8558 10.6096 10.9591 10.6048 11.065C10.6002 11.16 10.638 11.2518 10.7133 11.3296C10.785 11.4039 10.8681 11.4417 10.9601 11.4417C11.0584 11.4417 11.1637 11.3991 11.2744 11.315C11.6598 11.023 11.9412 10.6447 12.1108 10.1908C12.3557 9.53993 12.501 8.92663 12.5553 8.31561C12.5753 8.07412 12.6021 7.92102 12.8079 7.82877C12.9853 7.7504 13.0592 7.5915 13.0056 7.4033C12.9604 7.24858 12.838 7.15939 12.6613 7.15215C11.7806 7.11288 11.0377 6.74205 10.1926 6.19755C8.70177 5.23764 7.59132 4.29939 7.01743 2.83971C6.92504 2.59987 6.80133 2.4834 6.63901 2.4834C6.58585 2.4834 6.52837 2.49648 6.46811 2.52232C6.36135 2.56848 6.28949 2.6378 6.25475 2.72823C6.21162 2.8408 6.22779 2.98554 6.30162 3.14655C6.41063 3.38449 6.53583 3.61803 6.66844 3.86546C6.73063 3.98144 6.79475 4.10097 6.86014 4.22648C6.65922 4.27802 6.45117 4.34844 6.26948 4.49138C5.33879 5.21694 4.80934 6.21608 4.65089 7.54636C4.50826 8.73274 5.10876 9.69359 5.77909 10.5551C6.19115 11.0856 6.16011 11.6871 6.13009 12.2685C6.11441 12.5703 6.09841 12.8826 6.14366 13.1847C6.1464 13.1996 6.10776 13.2389 6.08453 13.2626C6.06466 13.2829 6.04462 13.3035 6.02975 13.3236C5.62015 13.8811 5.12768 14.4045 4.30502 14.4587C4.09619 14.471 3.88895 14.533 3.68852 14.5931C3.54266 14.6371 3.3918 14.6823 3.24288 14.7075C2.29268 14.8632 1.65804 15.4249 1.30285 16.4248C1.2825 16.4819 1.25553 16.5436 1.22758 16.607C1.13955 16.8076 1.03992 17.0347 1.11406 17.2124C1.15203 17.3034 1.2331 17.3739 1.3552 17.4204C1.41528 17.4436 1.4715 17.4549 1.52219 17.4549C1.78193 17.4549 1.86381 17.1729 1.93616 16.9242C1.95651 16.8544 1.97606 16.7865 1.99884 16.7291C2.2802 16.0145 2.74201 15.5994 3.41051 15.4601C3.76119 15.3871 4.10955 15.3019 4.45781 15.2172C4.66506 15.1668 4.87227 15.1164 5.07997 15.068C5.15362 15.0512 5.21986 15.0428 5.28236 15.0428C5.46261 15.0428 5.61041 15.1132 5.74769 15.2644C6.09092 15.6449 6.45029 16.0196 6.7977 16.3828C6.98361 16.5766 7.16969 16.7708 7.35433 16.9668C7.58854 17.2159 7.76524 17.3221 7.94535 17.3221C8.11817 17.3221 8.30004 17.2204 8.53488 16.9914L8.60157 16.9264C8.86422 16.669 9.00893 16.5272 9.12378 16.5272C9.24687 16.5272 9.37012 16.6935 9.61562 17.0256L9.6602 17.0857C9.71835 17.1671 9.78715 17.2589 9.87338 17.3264C9.96384 17.3952 10.0704 17.4349 10.1661 17.4349C10.263 17.4349 10.3411 17.3958 10.3935 17.3215C10.5944 17.0269 10.869 16.7901 11.1352 16.5611C11.466 16.2762 11.8084 15.9816 12.008 15.5739C12.2332 15.1129 12.5333 14.8981 12.9517 14.8981C13.0987 14.8981 13.2595 14.9246 13.443 14.9782C13.5451 15.0089 13.6524 15.0269 13.7531 15.0418C15.0482 15.2127 15.8245 15.9544 16.1268 17.3099C16.1727 17.5205 16.258 17.7615 16.5142 17.7615C16.5397 17.7615 16.5668 17.7593 16.5959 17.7541C16.9202 17.6951 16.9118 17.3724 16.9073 17.1795ZM11.9906 14.1868L11.9616 14.2482C11.9435 14.2873 11.9254 14.3267 11.9018 14.3642C11.4689 15.0878 10.9459 15.7048 10.3483 16.1981C10.2666 16.265 10.2023 16.2963 10.1454 16.2963C10.0857 16.2963 10.0269 16.2614 9.96001 16.1865C9.82012 16.0282 9.74067 15.9119 9.9077 15.7477C10.1358 15.5265 10.3819 15.3159 10.6203 15.112C10.9873 14.798 11.3666 14.4737 11.6922 14.1009C11.7316 14.056 11.7716 14.033 11.8114 14.033C11.8786 14.0331 11.9451 14.1009 11.9906 14.1868ZM7.75638 16.2633C7.73683 16.2388 7.7176 16.2149 7.69841 16.1945C7.50072 15.9894 7.30624 15.7797 7.11176 15.5701C6.84671 15.2845 6.58149 14.9986 6.30724 14.7224C6.20789 14.6233 6.16008 14.5325 6.16138 14.4452C6.16331 14.3118 6.27961 14.2017 6.39218 14.0958L6.45064 14.0395C6.51041 13.9798 6.5629 13.9494 6.60667 13.9494C6.68485 13.9494 6.74058 14.0518 6.78983 14.1423C6.80983 14.1791 6.82924 14.2143 6.8491 14.2421C7.08961 14.5751 7.41343 14.819 7.7265 15.0549C7.93128 15.2089 8.14306 15.3685 8.32735 15.5504L8.38241 15.6011C8.46397 15.6751 8.54121 15.7449 8.5609 15.8421C8.44379 16.0495 8.2703 16.2249 8.02997 16.3783C7.99959 16.3983 7.97164 16.4081 7.94499 16.4081C7.87317 16.4081 7.81372 16.3344 7.75638 16.2633Z" fill="#052A43"/>
<path fill-rule="evenodd" clip-rule="evenodd" d="M3.50741 9.7843C3.57396 9.79271 3.63534 9.79689 3.69152 9.79689C4.06207 9.79689 4.2247 9.60726 4.23539 9.16292C4.25075 8.45016 4.24977 7.75027 4.2323 7.08286C4.1971 5.89247 4.38719 4.75084 4.81346 3.5929C5.12439 2.74251 5.71329 2.06315 6.56354 1.57374C7.24578 1.18414 7.98393 0.986594 8.75761 0.986594C10.654 0.986594 12.3577 2.17343 12.9011 3.87296C13.2251 4.87874 13.3546 5.78342 13.2971 6.64271C13.332 7.39491 13.2823 8.06116 13.1453 8.67931C13.0022 9.30375 12.8429 9.85824 12.6588 10.3745C12.3286 11.3003 11.7084 11.8992 10.8152 12.1541L10.7668 12.168C10.7006 12.1874 10.6321 12.2071 10.5713 12.2071C10.5029 12.2071 10.455 12.1809 10.4214 12.1241C10.1446 11.6618 9.73077 11.5995 9.36219 11.5995C9.25233 11.5995 9.14057 11.6053 9.02866 11.6111L8.9618 11.6146C8.39631 11.6453 8.03466 12 7.99461 12.5634C7.95084 13.13 8.31489 13.5965 8.86034 13.6724C8.99228 13.6908 9.11167 13.6998 9.22508 13.6998C9.66907 13.6998 10.0131 13.5564 10.277 13.2611C10.4641 13.056 10.7183 12.971 10.9428 12.9148C12.2201 12.586 13.0526 11.7561 13.4871 10.3777C13.5866 10.0643 13.7248 9.95383 14.0346 9.94029C14.7799 9.90345 15.2405 9.52872 15.405 8.8258C15.581 8.07167 15.5293 7.30864 15.2512 6.55791C15.11 6.17752 14.8901 5.9695 14.6151 5.95625C14.1248 5.92636 14.0776 5.61544 14.0226 5.25541L14.0149 5.20355C13.845 4.07936 13.5549 3.22105 13.1007 2.50229C12.4039 1.39008 10.7467 0.192871 8.75532 0.192871C8.25962 0.192871 7.77264 0.270883 7.30808 0.424832C5.80368 0.925211 4.85667 1.67949 4.32789 2.79883C3.89856 3.70772 3.63253 4.55116 3.51448 5.37733C3.4725 5.66888 3.36668 5.7766 3.09566 5.80374C2.61303 5.84944 2.30194 6.161 2.21957 6.6811C2.1553 7.10948 2.08826 7.61646 2.07855 8.12992C2.0576 9.26262 2.39148 9.64895 3.50741 9.7843ZM3.21487 6.61096L3.23361 6.6413C3.3767 6.65308 3.41161 6.75387 3.42145 6.912L3.43713 7.2352C3.45942 7.69634 3.48171 8.15878 3.49626 8.61877L3.49869 8.67628C3.50692 8.83797 3.50062 8.93764 3.34573 8.9562C3.32537 8.9588 3.30547 8.96007 3.28614 8.96007C3.12428 8.96007 2.99961 8.86736 2.93531 8.69952C2.86862 8.51731 2.87379 8.33334 2.87945 8.13839C2.88187 8.05458 2.88412 7.97059 2.88057 7.88755C2.87087 7.50797 2.90578 7.17462 2.98717 6.86802C3.02883 6.7107 3.09847 6.6406 3.2128 6.6406V6.61121C3.21361 6.61128 3.21407 6.61096 3.21487 6.61096ZM14.3186 6.74111C14.4274 6.74111 14.5092 6.81107 14.5615 6.9493C14.6868 7.26719 14.754 7.61977 14.7417 7.89402C14.7356 8.4902 14.6927 8.92874 14.1906 9.14369C14.1053 9.17958 14.0407 9.19684 13.9923 9.19684C13.9561 9.19684 13.9296 9.18704 13.9115 9.1665C13.877 9.12692 13.8672 9.04455 13.8831 8.92146C13.9089 8.72635 13.9428 8.53221 13.9764 8.33787C14.0504 7.90984 14.1273 7.4673 14.1169 7.02036C14.1137 6.86591 14.1415 6.75964 14.2875 6.74283C14.2985 6.74164 14.3086 6.74111 14.3186 6.74111Z" fill="#052A43"/>
</svg>
