<svg width="20" height="20" viewBox="0 0 20 20" fill="none" xmlns="http://www.w3.org/2000/svg">
<path d="M7.31107 10C9.48922 10 11.255 7.98528 11.255 5.5C11.255 3.01472 9.48922 1 7.31107 1C5.13293 1 3.36719 3.01472 3.36719 5.5C3.36719 7.98528 5.13293 10 7.31107 10Z" stroke="#052A43" stroke-linecap="round" stroke-linejoin="round"/>
<path d="M4.15511 13.6001H10.4653C11.3021 13.6001 12.1046 13.9794 12.6963 14.6545C13.288 15.3296 13.6204 16.2453 13.6204 17.2001V19.0001H1V17.2001C1 16.2453 1.33241 15.3296 1.92411 14.6545C2.51581 13.9794 3.31832 13.6001 4.15511 13.6001Z" stroke="#052A43" stroke-linecap="round" stroke-linejoin="round"/>
<path d="M14.5513 7.46191L19 12.5379" stroke="#052A43" stroke-linecap="round" stroke-linejoin="round"/>
<path d="M19 7.46191L14.5513 12.5379" stroke="#052A43" stroke-linecap="round" stroke-linejoin="round"/>
</svg>
