<svg width="18" height="18" viewBox="0 0 18 18" fill="none" xmlns="http://www.w3.org/2000/svg">
<path d="M9.77299 2.83113L13.8827 3.92704C14.3204 4.04378 14.625 4.44023 14.625 4.89328V8.4139C14.625 10.42 13.6224 12.2934 11.9532 13.4062L9.5547 15.0052C9.2188 15.2291 8.7812 15.2291 8.4453 15.0052L6.0468 13.4062C4.37761 12.2934 3.375 10.42 3.375 8.4139V4.89328C3.375 4.44023 3.67958 4.04378 4.11734 3.92704L8.22701 2.83113C8.73349 2.69607 9.26651 2.69607 9.77299 2.83113Z" stroke="#052A43" stroke-linecap="round"/>
<path d="M7.125 8.625L8.44822 9.94822C8.54585 10.0459 8.70415 10.0459 8.80178 9.94822L11.25 7.5" stroke="#052A43" stroke-linecap="round"/>
</svg>
