<svg width="37" height="36" viewBox="0 0 37 36" fill="none" xmlns="http://www.w3.org/2000/svg">
<rect x="2.5" y="2" width="32" height="32" rx="16" fill="#D32B2B" fill-opacity="0.41"/>
<rect x="1.5" y="1" width="34" height="34" rx="17" stroke="#EDA8A8" stroke-opacity="0.64" stroke-width="2"/>
<path d="M18.5 33C15.5333 33 12.6332 32.1203 10.1665 30.4721C7.69972 28.8238 5.77713 26.4812 4.64181 23.7403C3.5065 20.9994 3.20945 17.9834 3.78823 15.0737C4.36701 12.1639 5.79562 9.49119 7.8934 7.3934C9.99119 5.29562 12.6639 3.86701 15.5737 3.28823C18.4834 2.70945 21.4994 3.0065 24.2403 4.14181C26.9812 5.27713 29.3238 7.19972 30.9721 9.66645C32.6203 12.1332 33.5 15.0333 33.5 18C33.5 21.9783 31.9197 25.7936 29.1066 28.6066C26.2936 31.4197 22.4783 33 18.5 33ZM18.5 5.00001C15.9288 5.00001 13.4154 5.76244 11.2776 7.1909C9.13975 8.61936 7.47351 10.6497 6.48957 13.0251C5.50563 15.4006 5.24819 18.0144 5.7498 20.5362C6.25141 23.0579 7.48954 25.3743 9.30762 27.1924C11.1257 29.0105 13.4421 30.2486 15.9638 30.7502C18.4856 31.2518 21.0995 30.9944 23.4749 30.0104C25.8503 29.0265 27.8807 27.3603 29.3091 25.2224C30.7376 23.0846 31.5 20.5712 31.5 18C31.5 14.5522 30.1304 11.2456 27.6924 8.80762C25.2544 6.36965 21.9478 5.00001 18.5 5.00001Z" fill="#D32B2B"/>
<path d="M18.5 26C18.1044 26 17.7178 25.8827 17.3889 25.6629C17.06 25.4432 16.8036 25.1308 16.6522 24.7654C16.5009 24.3999 16.4613 23.9978 16.5384 23.6098C16.6156 23.2219 16.8061 22.8655 17.0858 22.5858C17.3655 22.3061 17.7219 22.1156 18.1098 22.0384C18.4978 21.9613 18.8999 22.0009 19.2654 22.1522C19.6308 22.3036 19.9432 22.56 20.1629 22.8889C20.3827 23.2178 20.5 23.6044 20.5 24C20.5 24.5304 20.2893 25.0391 19.9142 25.4142C19.5391 25.7893 19.0304 26 18.5 26Z" fill="#D32B2B"/>
<path d="M18.5 20C18.2348 20 17.9804 19.8946 17.7929 19.7071C17.6054 19.5196 17.5 19.2652 17.5 19V10C17.5 9.73478 17.6054 9.48043 17.7929 9.29289C17.9804 9.10536 18.2348 9 18.5 9C18.7652 9 19.0196 9.10536 19.2071 9.29289C19.3946 9.48043 19.5 9.73478 19.5 10V19C19.5 19.2652 19.3946 19.5196 19.2071 19.7071C19.0196 19.8946 18.7652 20 18.5 20Z" fill="#D32B2B"/>
</svg>
