<svg width="47" height="47" viewBox="0 0 47 47" fill="none" xmlns="http://www.w3.org/2000/svg">
<rect x="0.5" y="0.5" width="46" height="46" rx="23" fill="#FDC70A"/>
<path d="M24.1354 36.5C23.5337 36.5 22.0578 36.2511 21.2925 33.9491L19.232 27.7646L13.0486 25.7031C10.9284 24.9955 10.545 23.7047 10.5041 22.9971C10.4632 22.2894 10.6984 20.9628 12.7231 20.0182L32.11 10.9657C33.8671 10.1489 35.3857 10.4388 36.1117 11.5829C36.4935 12.1814 36.7867 13.2369 36.0214 14.8789L26.9731 34.2748C26.0715 36.2101 24.8052 36.5 24.1354 36.5ZM14.949 22.743L21.9265 25.0671L24.253 32.0462L32.3912 14.5976L14.949 22.743Z" fill="white"/>
</svg>
