<svg width="47" height="46" viewBox="0 0 47 46" fill="none" xmlns="http://www.w3.org/2000/svg">
<rect x="0.5" width="46" height="46" rx="23" fill="#D32B2B"/>
<path d="M23.1829 30.016C23.1829 25.846 26.3537 22.51 30.3171 22.51C31.189 22.51 31.9817 22.6768 32.6951 22.927V17.1724L34.2805 18.0064V21.676C34.2805 22.1764 34.5976 22.51 35.0732 22.51C35.5488 22.51 35.8659 22.1764 35.8659 21.676V17.506C35.8659 17.1724 35.7073 16.9222 35.3902 16.7554L32.6951 15.3376V14.17C32.6951 11.8348 30.9512 10 28.7317 10H17.6341C15.4146 10 13.6707 11.8348 13.6707 14.17V15.3376L10.9756 16.7554C10.6585 16.9222 10.5 17.1724 10.5 17.506V21.676C10.5 22.1764 10.8171 22.51 11.2927 22.51C11.7683 22.51 12.0854 22.1764 12.0854 21.676V18.0064L13.6707 17.1724V28.348C13.6707 29.0986 13.9878 29.7658 14.4634 30.1828V31.684C14.4634 33.1018 15.4939 34.186 16.8415 34.186H18.4268C19.7744 34.186 20.8049 33.1018 20.8049 31.684V30.85H23.2622C23.1829 30.5998 23.1829 30.2662 23.1829 30.016ZM20.8049 26.8468C20.7256 27.2638 20.4085 27.514 20.0122 27.514C19.9329 27.514 19.8537 27.514 19.8537 27.514L16.6829 26.68C16.2866 26.5966 15.9695 26.0962 16.128 25.6792C16.2073 25.2622 16.6829 24.9286 17.0793 25.0954L20.25 25.9294C20.6463 26.0128 20.8841 26.4298 20.8049 26.8468ZM15.2561 21.0922V14.17C15.2561 12.7522 16.2866 11.668 17.6341 11.668H28.7317C30.0793 11.668 31.1098 12.7522 31.1098 14.17V21.0922C25.9573 22.927 20.4085 22.927 15.2561 21.0922Z" fill="white"/>
<rect x="25.7188" y="25.1163" width="10.7805" height="10.8837" rx="5.39024" fill="white"/>
<path d="M31.8001 27.2855L31.6829 32.4204H30.5394L30.4258 27.2855H31.8001ZM31.1112 34.6364C30.8957 34.6364 30.7111 34.5606 30.5572 34.4091C30.4057 34.2576 30.3299 34.0729 30.3299 33.8551C30.3299 33.642 30.4057 33.4597 30.5572 33.3082C30.7111 33.1567 30.8957 33.081 31.1112 33.081C31.3219 33.081 31.5041 33.1567 31.658 33.3082C31.8143 33.4597 31.8924 33.642 31.8924 33.8551C31.8924 33.9995 31.8557 34.1309 31.7823 34.2493C31.7113 34.3676 31.6166 34.4623 31.4982 34.5334C31.3822 34.602 31.2532 34.6364 31.1112 34.6364Z" fill="#D32B2B"/>
</svg>
