<svg width="47" height="46" viewBox="0 0 47 46" fill="none" xmlns="http://www.w3.org/2000/svg">
<rect x="0.5" width="46" height="46" rx="23" fill="#FDC70A"/>
<path d="M30.5236 24.3014C27.4092 24.3014 24.9336 26.8918 24.9336 30.1507C24.9336 33.4096 27.4092 36 30.5236 36C33.638 36 36.1136 33.4096 36.1136 30.1507C36.1136 26.8918 33.638 24.3014 30.5236 24.3014ZM33.5582 29.9836L30.7632 30.9863C30.6833 30.9863 30.6035 30.9863 30.5236 30.9863C30.3639 30.9863 30.2042 30.9027 30.0445 30.8192C29.8847 30.6521 29.725 30.4014 29.725 30.1507V26.8082C29.725 26.3069 30.0445 25.9726 30.5236 25.9726C31.0027 25.9726 31.3222 26.3069 31.3222 26.8082V28.9808L33.079 28.3959C33.4783 28.2288 33.9575 28.4795 34.1172 28.8973C34.197 29.3151 33.9575 29.8164 33.5582 29.9836Z" fill="white"/>
<path d="M23.5 30.049C23.5 25.8721 26.75 22.5306 30.8125 22.5306C31.7062 22.5306 32.5187 22.6977 33.25 22.9483V17.1842L34.875 18.0196V21.6953C34.875 22.1965 35.2 22.5306 35.6875 22.5306C36.175 22.5306 36.5 22.1965 36.5 21.6953V17.5184C36.5 17.1842 36.3375 16.9336 36.0125 16.7665L33.25 15.3464V14.1769C33.25 11.8378 31.4625 10 29.1875 10H17.8125C15.5375 10 13.75 11.8378 13.75 14.1769V15.3464L10.9875 16.7665C10.6625 16.9336 10.5 17.1842 10.5 17.5184V21.6953C10.5 22.1965 10.825 22.5306 11.3125 22.5306C11.8 22.5306 12.125 22.1965 12.125 21.6953V18.0196L13.75 17.1842V28.3783C13.75 29.1301 14.075 29.7984 14.5625 30.2161V31.7198C14.5625 33.1399 15.6188 34.2259 17 34.2259H18.625C20.0063 34.2259 21.0625 33.1399 21.0625 31.7198V30.8844H23.5813C23.5 30.6338 23.5 30.2996 23.5 30.049ZM21.0625 26.8746C20.9812 27.2923 20.6562 27.5429 20.25 27.5429C20.1687 27.5429 20.0875 27.5429 20.0875 27.5429L16.8375 26.7075C16.4313 26.624 16.1062 26.1228 16.2687 25.7051C16.35 25.2874 16.8375 24.9532 17.2438 25.1203L20.4938 25.9557C20.9 26.0392 21.1438 26.4569 21.0625 26.8746ZM15.375 21.1105V14.1769C15.375 12.7567 16.4313 11.6708 17.8125 11.6708H29.1875C30.5688 11.6708 31.625 12.7567 31.625 14.1769V21.1105C26.3438 22.9483 20.6562 22.9483 15.375 21.1105Z" fill="white"/>
</svg>
