<svg width="47" height="46" viewBox="0 0 47 46" fill="none" xmlns="http://www.w3.org/2000/svg">
<rect x="0.5" width="46" height="46" rx="23" fill="#FDC70A"/>
<path d="M32.6913 13.2043C30.2535 11.1526 26.947 10 23.4994 10C20.0517 10 16.7453 11.1526 14.3074 13.2043C11.8696 15.256 10.5 18.0386 10.5 20.9401C10.5 23.8417 11.8696 26.6243 14.3074 28.676L19.1515 32.7527C19.2617 32.8454 19.3924 32.919 19.5364 32.9692C19.6803 33.0193 19.8346 33.0452 19.9904 33.0452C20.1462 33.0452 20.3004 33.0193 20.4443 32.9692C20.5883 32.919 20.7191 32.8454 20.8292 32.7527C20.9394 32.66 21.0268 32.55 21.0864 32.4288C21.146 32.3077 21.1767 32.1779 21.1767 32.0468C21.1767 31.9157 21.146 31.7858 21.0864 31.6647C21.0268 31.5436 20.9394 31.4335 20.8292 31.3408L15.9851 27.2641C14.4967 26.013 13.4827 24.4184 13.0713 22.6822C12.6599 20.946 12.8697 19.1461 13.6742 17.5102C14.4786 15.8744 15.8415 14.4761 17.5904 13.4923C19.3394 12.5085 21.3957 11.9833 23.4994 11.9833C25.603 11.9833 27.6594 12.5085 29.4083 13.4923C31.1572 14.4761 32.5201 15.8744 33.3246 17.5102C34.129 19.1461 34.3388 20.946 33.9274 22.6822C33.5161 24.4184 32.502 26.013 31.0136 27.2641L22.6605 34.2939C22.5498 34.3864 22.4619 34.4963 22.4019 34.6175C22.3419 34.7387 22.311 34.8686 22.311 34.9999C22.311 35.1312 22.3419 35.2611 22.4019 35.3823C22.4619 35.5035 22.5498 35.6134 22.6605 35.7059C22.7703 35.7991 22.901 35.873 23.045 35.9235C23.189 35.974 23.3434 36 23.4994 36C23.6553 36 23.8098 35.974 23.9537 35.9235C24.0977 35.873 24.2284 35.7991 24.3382 35.7059L32.6913 28.676C33.8988 27.6603 34.8566 26.4543 35.5101 25.127C36.1636 23.7996 36.5 22.3769 36.5 20.9401C36.5 19.5034 36.1636 18.0807 35.5101 16.7533C34.8566 15.426 33.8988 14.22 32.6913 13.2043Z" fill="white"/>
<path d="M29.4086 21.0102C29.4086 20.0269 29.0621 19.0657 28.413 18.2481C27.7639 17.4305 26.8413 16.7933 25.7618 16.417C24.6824 16.0407 23.4946 15.9423 22.3487 16.1341C21.2028 16.3259 20.1502 16.7994 19.324 17.4947C18.4978 18.19 17.9352 19.0759 17.7073 20.0403C17.4793 21.0047 17.5963 22.0043 18.0434 22.9128C18.4905 23.8212 19.2477 24.5977 20.2192 25.144C21.1907 25.6903 22.3328 25.9818 23.5012 25.9818C25.0679 25.9818 26.5705 25.458 27.6783 24.5257C28.7862 23.5933 29.4086 22.3288 29.4086 21.0102ZM19.9567 21.0102C19.9567 20.4202 20.1646 19.8435 20.5541 19.353C20.9435 18.8624 21.4971 18.4801 22.1448 18.2543C22.7924 18.0285 23.5051 17.9694 24.1927 18.0845C24.8802 18.1996 25.5118 18.4837 26.0075 18.9009C26.5032 19.3181 26.8408 19.8496 26.9775 20.4283C27.1143 21.0069 27.0441 21.6067 26.7758 22.1517C26.5075 22.6968 26.0532 23.1627 25.4704 23.4905C24.8875 23.8182 24.2022 23.9932 23.5012 23.9932C22.5611 23.9932 21.6596 23.6789 20.9949 23.1195C20.3302 22.5601 19.9567 21.8013 19.9567 21.0102Z" fill="white"/>
</svg>
