<svg width="322" height="65" viewBox="0 0 322 65" fill="none" xmlns="http://www.w3.org/2000/svg">
<g clip-path="url(#clip0_597_544)">
<path d="M63.2926 30.1659C63.2926 29.493 63.3656 28.8875 63.5116 28.2819C63.5116 28.0801 63.5116 27.8109 63.5116 27.6091C63.5116 27.4745 63.4386 27.2726 63.4386 27.1381C63.4386 26.8689 63.3656 26.6671 63.2926 26.398C63.1466 25.927 63.0005 25.456 62.9275 24.9177C62.7815 24.043 62.4894 23.1683 62.0513 22.3609C61.7593 21.8226 61.4672 21.2844 61.1021 20.8134C60.591 20.2078 60.0799 19.6023 59.4958 19.064C59.0577 18.593 58.4736 18.1893 57.8894 17.9202C57.6704 17.7856 57.4513 17.7183 57.2323 17.5838C56.7942 17.3819 56.3561 17.1801 55.918 16.9782C55.3339 16.7091 54.7497 16.5072 54.0926 16.4399C53.8736 16.4399 53.7275 16.4399 53.5085 16.4399C52.7783 16.3727 52.1212 16.3054 51.464 16.1708C51.318 16.1035 51.172 16.1035 51.0259 16.1035C48.6164 16.1035 46.2799 16.1035 43.8704 16.1035C43.7243 16.1035 43.5053 16.1035 43.3593 16.1708C42.8482 16.2381 42.264 16.3054 41.7529 16.2381C41.0958 16.2381 40.5116 16.2381 39.8545 16.1708C39.4164 16.1708 38.9783 16.1708 38.5402 16.1708C37.591 16.1035 36.5688 16.1035 35.6196 16.1708C35.0355 16.1708 34.5243 16.1708 33.9402 16.1708C33.6482 16.1708 33.4291 16.2381 33.137 16.2381C32.5529 16.3727 32.1878 16.7091 32.0418 17.2473C31.8958 17.7856 31.8958 18.3239 31.8228 18.7949C31.8228 19.4677 31.8228 20.0733 31.8958 20.7461C31.8958 21.0152 31.8958 21.3517 31.9688 21.6208C32.1148 22.2264 32.4799 22.7646 33.064 23.101C33.2101 23.1683 33.3561 23.2356 33.5021 23.3029C33.7942 23.5047 34.0132 23.7066 34.2323 24.043C34.4513 24.3794 34.5974 24.7831 34.6704 25.1868C34.8164 25.8597 34.8164 26.4652 34.7434 27.0708C34.6704 27.6763 34.6704 28.2819 34.7434 28.8202C34.8164 29.5603 34.8164 30.3004 34.8164 30.9733C34.8164 31.3097 34.8164 31.6461 34.6704 31.9825C34.6704 32.1171 34.6704 32.2517 34.6704 32.3862C34.6704 32.9245 34.5974 33.4628 34.6704 34.001C34.6704 34.4047 34.6704 34.8084 34.6704 35.2121C34.6704 35.4813 34.5974 35.7504 34.6704 36.0196C34.7434 36.827 34.8164 37.6344 34.7434 38.4418C34.7434 38.5091 34.7434 38.5763 34.7434 38.6436C34.784 38.9913 34.8002 39.3165 34.8083 39.6305C35.5141 39.3314 36.2199 39.0361 36.9298 38.7446C41.9922 36.6924 47.1196 34.9355 52.3078 33.4441C52.2672 33.4478 52.2307 33.459 52.1942 33.4628C51.6831 33.4628 51.0989 33.4628 50.5878 33.4628C49.8577 33.3955 49.2005 33.3955 48.4704 33.3955C48.3243 33.3955 48.1053 33.3955 47.8862 33.3955C47.3021 33.3282 46.645 33.3955 45.9878 33.3955C45.4037 33.3955 44.8926 33.4628 44.3085 33.3955C44.0894 33.3955 43.7974 33.3955 43.5783 33.3282C43.2862 33.2609 43.0672 33.2609 42.8482 33.2609C42.7751 33.2609 42.6291 33.2609 42.5561 33.2609C42.264 33.2609 41.972 33.0591 41.972 32.7226C41.972 32.5881 41.972 32.5208 41.972 32.3862C41.972 32.3189 41.972 32.1844 41.972 32.1171C41.7529 31.5115 41.7529 30.906 41.7529 30.3004C41.7529 29.6949 41.7529 29.0893 41.7529 28.4838C41.7529 28.0801 41.8259 27.6763 41.8989 27.3399C41.972 27.1381 41.972 27.0035 41.972 26.8689C41.972 26.3307 42.045 25.7924 41.972 25.2541C41.972 24.7831 41.8989 24.3122 41.972 23.8412C41.972 23.7066 41.972 23.572 41.972 23.4375C41.972 23.2356 42.045 23.101 42.264 22.9665C42.4101 22.9665 42.5561 22.8992 42.7021 22.8992C42.8482 22.8992 42.9942 22.8992 43.1402 22.8319C43.4323 22.7646 43.7243 22.6973 44.0164 22.7646C44.9656 22.8319 45.9148 22.7646 46.864 22.6973C47.0831 22.6973 47.3021 22.6973 47.5942 22.6973C48.6164 22.7646 49.6386 22.7646 50.6609 22.6973C51.9751 22.6973 53.1434 22.9665 54.3116 23.572C54.8958 23.8412 55.3339 24.3122 55.5529 24.9177C55.6989 25.3887 55.918 25.8597 55.991 26.3307C56.137 27.0035 56.2101 27.6763 56.137 28.3492C56.137 28.6183 56.137 28.8202 56.137 29.0893C56.137 29.6276 55.991 30.2331 55.772 30.7714C55.5529 31.5788 55.0418 32.1171 54.3847 32.6554C54.1656 32.8124 53.9385 32.9394 53.7032 33.0516C56.855 32.1769 60.0272 31.3957 63.2155 30.7153C63.2155 30.7116 63.2155 30.7079 63.2196 30.7079C63.2196 30.506 63.2926 30.3042 63.2926 30.1659Z" fill="white"/>
<path d="M52.3077 40.9234C47.1196 42.4149 41.9922 44.1717 36.9298 46.2239C36.2199 46.5154 35.5141 46.8107 34.8083 47.1098C34.8123 47.3453 34.8164 47.577 34.8164 47.805C34.8164 48.276 34.8164 48.747 34.8164 49.218C34.8164 49.5544 34.8164 49.8236 34.8164 50.0927C34.8164 50.7655 34.7434 51.4384 34.7434 52.1112C34.7434 52.6495 34.7434 53.1878 34.5243 53.726C34.3053 54.3316 33.9402 54.8699 33.3561 55.2063C33.21 55.2736 33.064 55.3408 32.918 55.4081C32.6989 55.5427 32.5529 55.6773 32.4069 55.8791C32.2608 56.1483 32.1148 56.4174 32.0418 56.7538C31.9688 57.0229 31.9688 57.2921 31.9688 57.5612C31.9688 57.7631 31.9688 58.0322 31.9688 58.234C31.9688 58.705 31.9688 59.2433 32.0418 59.7143C32.0418 60.118 32.0418 60.5217 31.9688 60.9254C31.9688 61.06 31.8958 61.1945 31.8958 61.3964C31.8958 61.8674 32.1878 62.1365 32.6259 62.2038C32.991 62.2711 33.3561 62.2711 33.7211 62.2711C34.7434 62.2038 35.6926 62.2038 36.7148 62.3384C37.1529 62.4057 37.664 62.4057 38.1751 62.4057C38.6132 62.3384 39.1243 62.2711 39.5624 62.3384C40.2196 62.3384 40.8767 62.3384 41.5338 62.2711C42.045 62.2711 42.6291 62.2711 43.1402 62.2711C43.4323 62.2711 43.6513 62.2711 43.9434 62.1365C44.2354 62.0692 44.6735 61.7328 44.6735 61.2618C44.6735 61.1273 44.6735 61.06 44.6735 60.9927C44.6005 60.5217 44.6735 60.0507 44.6735 59.5797C44.8196 58.7723 44.8196 57.8976 44.7465 57.0902C44.6735 56.552 44.4545 56.081 44.0164 55.7445C43.7973 55.5427 43.5783 55.4081 43.3592 55.2736C42.9942 55.0717 42.7021 54.8026 42.4831 54.5334C42.337 54.3989 42.264 54.2643 42.191 54.1297C42.118 53.7933 41.8989 53.3896 41.9719 53.0532C41.9719 52.9186 41.9719 52.8513 41.9719 52.7168C41.9719 52.3803 41.9719 52.0439 41.8989 51.7075C41.8989 51.4384 41.8259 51.1692 41.8259 50.9674C41.8989 50.3618 41.8989 49.7563 41.8989 49.218C41.9719 48.6797 41.9719 48.2087 41.9719 47.7378C41.9719 47.6705 42.045 47.6032 42.045 47.5359C42.118 47.5359 42.264 47.5359 42.337 47.5359C42.6291 47.5359 42.8481 47.5359 43.0672 47.4686C43.2862 47.4013 43.5053 47.4013 43.7243 47.4013C44.3085 47.3341 44.9656 47.3341 45.5497 47.5359C45.9148 47.5359 46.0608 47.6705 46.2799 47.9396C46.645 48.4106 47.01 48.8816 47.2291 49.4871C47.4481 50.0254 47.7402 50.5637 48.1053 51.102C48.2513 51.3711 48.3973 51.6402 48.6164 51.9766C48.7624 52.3131 48.9815 52.6495 49.2005 52.9859C49.6386 53.5915 50.0037 54.197 50.2958 54.8026C50.5148 55.4754 50.8799 56.0137 51.1719 56.5519C51.61 57.2248 51.9751 57.8303 52.4132 58.4359C52.4862 58.6378 52.6323 58.8396 52.7053 58.9742C52.9973 59.5797 53.2894 60.118 53.5815 60.6563C53.6545 60.8581 53.8005 60.9927 53.8735 61.1945C54.1656 61.6655 54.5307 62.0019 54.9688 62.2711C55.1148 62.3384 55.2608 62.4057 55.4799 62.4057C55.918 62.4057 56.4291 62.4057 56.9402 62.4057C57.3783 62.3384 57.8894 62.2711 58.4005 62.2038C59.0577 62.1365 59.7878 62.2038 60.445 62.2038C60.9561 62.2038 61.4672 62.2038 61.9783 62.1365C62.8545 62.1365 63.3656 61.6655 63.3656 60.8581C63.3656 60.589 63.3656 60.3198 63.3656 60.0507C63.3656 59.5124 63.3656 58.9742 63.3656 58.4359C63.3656 58.0995 63.4386 57.7631 63.4386 57.3594C63.4386 57.1575 63.4386 56.9557 63.3656 56.7538C63.2196 56.2155 62.7815 55.9464 62.2704 55.8118C62.0513 55.8118 61.9053 55.8118 61.6862 55.8118C61.2481 55.7445 60.737 55.7445 60.2259 55.6773C59.7878 55.61 59.4227 55.61 58.9846 55.61H58.9116C58.6926 55.2736 58.5465 54.9371 58.3275 54.668C58.0354 54.3316 57.8894 54.0624 57.7434 53.726C57.4513 53.1205 57.1592 52.5149 56.7942 51.9766C56.064 50.9674 55.4069 49.9581 54.8958 48.8816C54.7497 48.6797 54.6767 48.4779 54.6767 48.2087C54.6767 48.0742 54.6037 47.9396 54.5307 47.8723C54.3846 47.7378 54.3116 47.5359 54.2386 47.4013C54.3846 47.3341 54.4577 47.2668 54.6037 47.2668C54.8227 47.1995 55.1148 47.1322 55.4069 46.9976C55.6989 46.7958 56.064 46.6612 56.5021 46.5266C56.6481 46.4594 56.8672 46.3248 57.0862 46.2575C57.6704 46.0557 58.1084 45.7192 58.6196 45.4501C59.0577 45.2483 59.4227 44.9791 59.7878 44.5754C60.0069 44.3063 60.2989 44.1044 60.591 43.8353C60.81 43.5662 61.1021 43.2297 61.2481 42.9606C61.6862 42.2205 62.0513 41.4131 62.3434 40.5384C62.5624 39.8655 62.7815 39.26 63.0735 38.6544C63.1465 38.5236 63.1465 38.3255 63.2155 38.1909C60.0231 38.8712 56.851 39.6525 53.7032 40.5272C53.2651 40.7365 52.8026 40.8673 52.3077 40.9234Z" fill="white"/>
<path d="M107.901 24.114C107.828 23.8449 107.682 23.5758 107.609 23.3066C107.317 22.7011 107.098 22.0955 106.733 21.5572C106.66 21.49 106.66 21.49 106.66 21.4227C106.441 21.0862 106.222 20.6825 105.93 20.4134C105.565 19.9424 105.2 19.5387 104.835 19.135C104.543 18.7313 104.104 18.3949 103.666 18.1258C103.447 17.9912 103.155 17.7893 102.863 17.6548C102.425 17.3856 101.914 17.1165 101.403 16.9146C100.965 16.7128 100.527 16.5782 100.089 16.3764C99.5774 16.2418 99.1393 16.04 98.6282 15.9054C98.4822 15.8381 98.3362 15.8381 98.1901 15.7708C97.679 15.7035 97.1679 15.7035 96.6568 15.7035C96.0727 15.7035 95.4885 15.7035 94.9044 15.569C94.6854 15.5017 94.3933 15.5017 94.1743 15.5017C93.225 15.5017 92.2758 15.5017 91.3266 15.5017C90.8885 15.5017 90.5235 15.5017 90.0854 15.5017C89.2822 15.5017 88.479 15.4344 87.6758 15.569C87.3838 15.6363 87.0187 15.6363 86.7266 15.7708C86.0695 16.04 85.3393 16.3091 84.6092 16.5109C84.2441 16.6455 83.879 16.7801 83.5139 16.9146C82.7108 17.3856 81.9806 17.8566 81.2504 18.3949C80.7393 18.8659 80.2282 19.4042 79.7171 19.9424C78.987 20.7498 78.4028 21.6245 77.8187 22.4992C77.5266 22.9702 77.3806 23.4412 77.2346 23.9795C77.2346 24.0467 77.1616 24.1813 77.0885 24.3159C76.8695 24.7869 76.7235 25.3251 76.7235 25.8634C76.6504 26.5362 76.5774 27.1418 76.5044 27.7474C76.4314 27.9492 76.4314 28.1511 76.4314 28.2856C76.4314 28.3417 76.4314 28.3903 76.4314 28.4426C78.8328 28.1249 81.2383 27.852 83.6559 27.6277C83.5991 26.91 83.8141 26.3157 84.1711 25.6616C84.4631 25.1906 84.7552 24.7196 85.0473 24.3159C85.3393 23.9122 85.7044 23.643 86.0695 23.3739C86.1425 23.3066 86.2155 23.2393 86.2885 23.1721C86.7997 22.7683 87.3838 22.4992 88.0409 22.3646C88.7711 22.2301 89.5012 22.0955 90.3044 22.0955C90.6695 22.0955 91.0346 22.0955 91.4727 22.1628C92.3489 22.1628 93.152 22.1628 94.0282 22.0955C94.9774 22.0955 95.8536 22.1628 96.8028 22.3646C97.606 22.4992 98.2631 22.8356 98.9203 23.2393C98.9933 23.3066 99.0663 23.3739 99.1393 23.4412C99.5774 23.8449 100.016 24.2486 100.381 24.7196C100.527 24.9214 100.673 25.1233 100.819 25.3924C100.965 25.7961 101.111 26.1998 101.257 26.6035C101.257 26.6671 101.265 26.7418 101.277 26.8166C103.691 26.8129 106.108 26.8428 108.534 26.9175C108.477 26.5138 108.396 26.1139 108.27 25.7288C108.12 25.1906 108.047 24.6523 107.901 24.114Z" fill="white"/>
<path d="M101.273 34.2884C101.293 34.4454 101.326 34.6136 101.326 34.7482V34.8155C101.472 35.1519 101.399 35.4883 101.399 35.8247C101.399 36.6321 101.399 37.4395 101.399 38.2469C101.399 38.6506 101.472 39.0543 101.545 39.458C101.618 40.1309 101.618 40.8037 101.618 41.4093C101.618 41.8803 101.545 42.284 101.545 42.755C101.545 43.1587 101.545 43.5624 101.545 43.9661C101.545 44.4371 101.545 44.908 101.472 45.4463C101.472 46.1192 101.545 46.7247 101.545 47.3975C101.618 48.2722 101.618 49.1469 101.472 49.9543C101.399 50.0889 101.399 50.2235 101.399 50.2908C101.399 50.6272 101.326 51.0309 101.326 51.3673C101.326 51.4346 101.253 51.5691 101.253 51.6364C101.18 52.0401 101.034 52.5111 100.888 52.9148C100.815 53.2512 100.669 53.5204 100.45 53.7222C99.8654 54.4624 99.2083 55.0679 98.4051 55.5389C98.04 55.7407 97.748 55.8753 97.3829 56.0099C96.7988 56.279 96.1416 56.279 95.4845 56.2117C94.7543 56.1445 94.0241 56.1445 93.367 56.2117C92.5638 56.279 91.8337 56.3463 91.0305 56.279C90.3734 56.279 89.6432 56.279 88.913 56.2117C88.548 56.2117 88.1829 56.1445 87.7448 56.0772C87.3797 56.0099 87.0146 55.8753 86.7226 55.6062C86.1384 55.2698 85.6273 54.8661 85.1162 54.3278C84.6051 53.7222 84.167 53.0494 83.8749 52.3766C83.6559 51.9056 83.6559 51.4346 83.6559 50.8963C83.7289 50.4926 83.7289 50.0889 83.7289 49.6852C83.7289 49.3488 83.7289 49.0796 83.6559 48.7432C83.6559 48.6759 83.6559 48.6087 83.7289 48.4741C83.7289 47.734 83.7289 46.9938 83.7289 46.2537C83.7289 46.1191 83.7289 45.9846 83.7289 45.9173C83.5829 45.3117 83.5829 44.7735 83.5099 44.2352C83.5099 44.0333 83.5099 43.7642 83.5829 43.5624C83.5829 42.9568 83.5829 42.4185 83.5829 41.813C83.5829 41.1401 83.5829 40.5346 83.5099 39.8617C83.5099 39.5926 83.5099 39.3908 83.5099 39.1216C83.5099 38.5161 83.5099 37.9105 83.5829 37.305C83.5829 36.5648 83.6559 35.8247 83.6559 35.1519C83.6559 35.1332 83.6559 35.1182 83.6518 35.0995C81.2342 35.3238 78.8247 35.5967 76.4273 35.9144C76.4273 36.3181 76.4273 36.677 76.4273 37.0358C76.5003 37.5741 76.5003 38.1124 76.4273 38.6506C76.3543 39.2562 76.3543 39.7945 76.4273 40.3327C76.5003 40.7364 76.5003 41.1401 76.5003 41.5438C76.5003 41.8803 76.5003 42.2167 76.5003 42.5531C76.5733 43.3605 76.5734 44.1679 76.5734 44.9753C76.5003 45.3117 76.5733 45.6482 76.5003 45.9846C76.5003 46.4556 76.5003 46.8593 76.5003 47.3303C76.5003 47.6667 76.5003 48.0031 76.5003 48.3395C76.5003 48.7432 76.5003 49.0796 76.5003 49.4833C76.5733 49.9543 76.5734 50.358 76.5734 50.829C76.6464 51.3673 76.6464 51.9056 76.6464 52.4438C76.6464 52.8475 76.7194 53.2512 76.7924 53.6549C76.8654 54.1259 77.0845 54.5969 77.3035 55.0679C77.5226 55.5389 77.8146 56.0099 78.1067 56.4136C78.6178 57.0864 79.1289 57.7593 79.713 58.4321C80.0051 58.7012 80.2241 58.9704 80.5162 59.3068C80.8083 59.6432 81.1733 59.9796 81.5384 60.3161C82.2686 60.9216 83.1448 61.3926 84.021 61.729C84.5321 61.9982 85.0432 62.1327 85.5543 62.2C86.1384 62.3346 86.7226 62.4691 87.3067 62.6037C87.5987 62.671 87.9638 62.7383 88.2559 62.7383C89.2781 62.7383 90.2273 62.7383 91.1765 62.7383C91.9067 62.8056 92.6368 62.8056 93.294 62.8728C93.8781 62.9401 94.5353 62.9401 95.1194 62.8728C95.7035 62.7383 96.3607 62.671 97.0178 62.7383C97.5289 62.7383 98.113 62.7383 98.6241 62.6037C99.4273 62.4019 100.23 62.1327 100.961 61.729C102.202 61.1235 103.297 60.3833 104.465 59.6432C104.83 59.4414 105.123 59.1049 105.342 58.7685C105.78 58.163 106.145 57.5574 106.583 56.9519C106.948 56.4136 107.24 55.8753 107.532 55.2698C107.678 54.9333 107.824 54.5969 107.97 54.2605C108.116 53.9241 108.262 53.5877 108.408 53.184C108.481 52.9821 108.481 52.7803 108.481 52.5784C108.554 52.242 108.554 51.8383 108.554 51.4346C108.627 50.6272 108.627 49.8198 108.7 49.0124C108.773 48.6759 108.773 48.2722 108.7 47.9358C108.554 47.3303 108.554 46.7247 108.554 46.1191C108.627 44.9753 108.627 43.8315 108.627 42.6877C108.627 42.4858 108.627 42.284 108.627 42.0821C108.7 41.6784 108.773 41.2747 108.773 40.9383C108.773 40.1309 108.773 39.3235 108.7 38.5161C108.627 37.6414 108.554 36.7667 108.627 35.9593C108.627 35.4322 108.599 34.9052 108.526 34.3893C106.104 34.3146 103.687 34.2847 101.273 34.2884Z" fill="white"/>
<path d="M132.061 28.6218C132.134 28.1509 132.134 27.6126 132.134 27.1416C132.134 26.536 132.135 25.9305 132.208 25.3249C132.354 24.5175 132.719 23.912 133.376 23.441C133.668 23.2391 133.887 23.0373 134.179 22.8354C134.471 22.6336 134.69 22.3644 134.836 22.028C134.909 21.7589 135.055 21.4897 135.055 21.1533C135.128 20.6823 135.128 20.2114 135.055 19.7404C134.909 19.1348 134.909 18.5965 134.909 17.991C134.909 17.8564 134.909 17.7218 134.836 17.5873C134.836 17.4527 134.836 17.3854 134.836 17.2509C134.69 16.8472 134.398 16.578 133.96 16.4435C133.741 16.3762 133.595 16.3762 133.449 16.3762C133.303 16.3762 133.084 16.3762 132.938 16.3762C132.5 16.3762 132.061 16.3089 131.696 16.2416C131.477 16.1743 131.331 16.1743 131.185 16.1743C130.966 16.1743 130.747 16.1743 130.455 16.1743C129.944 16.1743 129.36 16.1743 128.776 16.2416C127.827 16.3762 126.877 16.3089 126.001 16.2416C125.198 16.1743 124.395 16.2416 123.665 16.3762C123.446 16.3762 123.227 16.4435 123.081 16.5107C122.715 16.6453 122.569 16.9144 122.423 17.1836C122.423 17.3181 122.35 17.52 122.35 17.6546C122.35 17.7891 122.35 17.991 122.35 18.1256C122.277 18.3947 122.277 18.7311 122.35 19.0002C122.423 19.4712 122.496 19.9422 122.35 20.4132C122.35 20.6151 122.277 20.7496 122.277 20.9515C122.131 21.3552 122.204 21.6916 122.35 22.0953C122.569 22.499 122.861 22.7681 123.227 23.0373C123.446 23.1718 123.665 23.3064 123.884 23.441C124.249 23.6428 124.468 23.912 124.687 24.2484C124.833 24.5848 124.906 24.9212 124.979 25.2576C125.198 26.0651 125.198 26.8052 125.125 27.6126C125.125 27.7509 125.125 27.8967 125.125 28.0424C127.433 28.2779 129.745 28.5471 132.061 28.8461C132.061 28.7714 132.061 28.6966 132.061 28.6218Z" fill="white"/>
<path d="M148.344 39.7274C148.563 41.0058 148.49 42.2842 148.344 43.5626C148.271 44.1681 148.271 44.7737 148.344 45.3792C148.417 45.5811 148.417 45.8502 148.49 46.0521C148.49 46.523 148.49 46.994 148.49 47.465C148.49 48.0033 148.49 48.6088 148.417 49.2144C148.417 50.0218 148.271 50.8292 148.052 51.5693C147.833 52.1749 147.541 52.8477 147.103 53.386C146.81 53.7224 146.445 54.0588 146.08 54.4625C145.861 54.7317 145.496 54.9335 145.204 55.1354C144.255 55.6737 143.233 56.0101 142.064 56.2119C142.064 56.2119 141.991 56.2119 141.918 56.2119C140.823 56.2792 139.801 56.2119 138.706 56.1446C138.195 56.0774 137.61 55.9428 137.099 55.7409C136.515 55.4718 135.931 55.2027 135.347 54.9335C134.471 54.4625 133.814 53.7897 133.303 52.9823C133.01 52.444 132.791 51.9058 132.572 51.3002C132.353 50.8965 132.207 50.4928 132.207 50.0218C132.207 49.82 132.207 49.5508 132.134 49.349C132.134 48.7434 132.134 48.2051 132.207 47.5996C132.28 47.0613 132.28 46.523 132.207 45.9848C132.207 45.8502 132.134 45.6484 132.134 45.5138C132.134 44.7064 132.134 43.9663 132.134 43.1588C132.134 42.5533 132.134 42.015 132.134 41.4095C132.134 40.6021 132.134 39.7274 132.134 38.8527C132.134 38.7181 132.134 38.5163 132.061 38.3144C132.061 37.649 132.061 36.9837 132.061 36.3183C129.745 36.0193 127.433 35.7501 125.125 35.5146C125.125 35.937 125.125 36.3856 125.125 36.8342C125.198 37.4397 125.198 38.0453 125.125 38.7181C125.125 39.6601 125.125 40.6693 125.198 41.6113C125.271 42.1496 125.271 42.6206 125.271 43.0916C125.271 43.6971 125.271 44.3027 125.271 44.9082C125.271 45.5138 125.198 46.1193 125.198 46.7249C125.198 46.8595 125.198 47.0613 125.198 47.1959C125.198 48.2051 125.271 49.1471 125.198 50.1564C125.125 50.5601 125.198 50.9638 125.344 51.3675C125.49 51.9058 125.636 52.444 125.782 52.9823C125.928 53.4533 126.074 53.857 126.22 54.328C126.293 54.8662 126.512 55.3372 126.804 55.8082C127.023 56.0774 127.242 56.4138 127.461 56.6829C127.68 57.0193 127.899 57.2885 128.191 57.5576C128.483 57.894 128.849 58.2304 129.141 58.5669C129.506 58.9706 129.871 59.3743 130.309 59.6434C131.039 60.1817 131.842 60.6527 132.645 61.0564C133.449 61.3928 134.179 61.6619 134.909 61.9983C135.274 62.2002 135.712 62.3348 136.077 62.402C136.88 62.5366 137.683 62.6712 138.414 62.7385C139.071 62.8057 139.655 62.873 140.239 62.873C140.896 62.8057 141.553 62.8057 142.21 62.873C142.649 62.873 143.014 62.8058 143.379 62.6712C143.452 62.6712 143.598 62.6039 143.671 62.6039C144.328 62.3348 144.985 62.2002 145.715 61.9983C146.299 61.9311 146.81 61.7292 147.322 61.4601C147.76 61.2582 148.125 61.0564 148.563 60.8545C149.001 60.5854 149.439 60.3162 149.877 59.9798C150.534 59.4416 151.191 58.9706 151.849 58.4323C151.995 58.2977 152.141 58.1632 152.214 58.0286C152.506 57.6249 152.871 57.2212 153.163 56.8175C153.528 56.2792 153.893 55.6737 154.185 55.0681C154.404 54.799 154.55 54.4625 154.623 54.1934C154.696 53.7897 154.842 53.386 154.915 52.9823C155.061 52.3095 155.28 51.7039 155.353 51.0311C155.499 50.1564 155.572 49.2817 155.499 48.407C155.353 47.5996 155.353 46.7922 155.426 45.9848C155.499 45.7156 155.426 45.3792 155.426 45.1101C155.353 44.5045 155.353 43.9663 155.353 43.3607C155.353 43.0916 155.353 42.7551 155.353 42.486C155.353 42.015 155.353 41.4767 155.353 41.0058C155.353 40.6021 155.353 40.2656 155.353 39.9292C155.353 39.8694 155.353 39.8096 155.353 39.7498C153.009 39.3685 150.664 38.9947 148.315 38.6284C148.275 39.0171 148.283 39.3984 148.344 39.7274Z" fill="white"/>
<path d="M155.427 30.1655C155.427 29.6272 155.427 29.0889 155.427 28.4834C155.5 27.8105 155.5 27.1377 155.427 26.3976C155.354 26.263 155.354 26.1957 155.354 26.0611C155.427 25.5229 155.5 25.0519 155.719 24.6482C156.084 23.9753 156.449 23.3698 157.179 23.0334C157.398 22.8988 157.617 22.7642 157.763 22.6297C158.055 22.4278 158.201 22.1587 158.274 21.8895C158.347 21.6204 158.347 21.4186 158.347 21.2167C158.347 20.6784 158.274 20.1402 158.274 19.6019C158.274 19.6019 158.274 19.6019 158.347 19.6019C158.347 19.2655 158.347 18.8618 158.347 18.5253C158.347 18.1889 158.274 17.8525 158.274 17.5161C158.274 17.3815 158.274 17.1797 158.128 17.0451C157.909 16.5741 157.398 16.1031 156.595 16.2377C156.522 16.305 156.449 16.305 156.376 16.305C155.865 16.3723 155.281 16.4395 154.769 16.3723C154.258 16.3723 153.82 16.305 153.309 16.305C152.652 16.3723 151.995 16.3723 151.338 16.305C150.973 16.2377 150.608 16.2377 150.242 16.2377C149.658 16.305 149.074 16.305 148.49 16.305C148.125 16.2377 147.76 16.2377 147.395 16.305C147.176 16.305 146.957 16.305 146.811 16.3723C146.3 16.4395 145.934 16.7087 145.788 17.1797C145.715 17.3815 145.642 17.5161 145.642 17.7179C145.569 18.0544 145.569 18.4581 145.642 18.8618C145.642 19.4 145.642 19.9383 145.569 20.4766C145.496 20.813 145.496 21.1494 145.569 21.4858C145.642 22.0914 145.934 22.5624 146.446 22.8988C146.592 23.0334 146.811 23.1007 146.957 23.2352C147.76 23.7062 148.198 24.4463 148.271 25.321C148.344 25.3883 148.344 25.5229 148.344 25.5902C148.49 26.5321 148.563 27.4741 148.49 28.4161C148.417 28.7525 148.417 29.0216 148.417 29.3581C148.417 29.829 148.417 30.3673 148.344 30.9056C148.332 30.9878 148.324 31.0701 148.316 31.156C150.664 31.5224 153.013 31.8962 155.354 32.2774C155.354 31.7317 155.362 31.1859 155.427 30.6402C155.427 30.5056 155.427 30.3673 155.427 30.1655Z" fill="white"/>
<path d="M182.657 46.3214C182.511 46.7924 182.511 47.2634 182.511 47.7344C182.584 48.34 182.584 49.0128 182.657 49.6184C182.657 49.9548 182.657 50.3585 182.584 50.6949C182.511 51.2332 182.511 51.7714 182.584 52.3097C182.584 52.5788 182.584 52.848 182.584 53.1171C182.584 53.4535 182.511 53.79 182.365 54.0591C182.073 54.5301 181.781 54.9338 181.27 55.2702C181.124 55.4048 180.978 55.4721 180.832 55.6066C180.686 55.6739 180.54 55.8085 180.394 55.943C180.029 56.2122 179.883 56.6159 179.81 57.0196C179.81 57.1541 179.81 57.356 179.81 57.4906C179.81 58.0961 179.81 58.6344 179.737 59.24C179.664 59.7109 179.664 60.1146 179.664 60.5856C179.664 60.9221 179.737 61.1912 179.883 61.4603C180.029 61.7295 180.248 61.9313 180.467 62.0659C180.832 62.2004 181.124 62.335 181.489 62.335C181.927 62.335 182.365 62.335 182.803 62.335C183.095 62.335 183.387 62.335 183.679 62.4023C183.825 62.4023 183.972 62.4023 184.045 62.4023C184.994 62.4023 185.87 62.4023 186.819 62.4023C187.549 62.4023 188.352 62.4023 189.156 62.4023C189.302 62.4023 189.521 62.4023 189.74 62.4023C190.105 62.335 190.397 62.335 190.762 62.335C190.981 62.335 191.273 62.335 191.492 62.2677C191.784 62.2677 192.003 62.0659 192.222 61.864C192.368 61.5276 192.514 61.1912 192.514 60.8548C192.441 60.1819 192.441 59.5091 192.514 58.8362C192.514 58.7017 192.514 58.5671 192.514 58.4325C192.514 57.9616 192.514 57.5579 192.441 57.0869C192.441 56.885 192.368 56.6159 192.222 56.3467C192.076 56.0776 191.784 55.8085 191.492 55.6739C191.273 55.5393 191.054 55.4048 190.835 55.2029C190.397 54.9338 190.032 54.5301 189.886 54.0591C189.813 53.79 189.74 53.5208 189.667 53.1844C189.667 52.5788 189.594 51.9733 189.594 51.3677C189.594 51.2332 189.594 51.1659 189.594 51.0313C189.594 50.6276 189.667 50.2239 189.74 49.8202C189.74 49.5511 189.74 49.2819 189.74 49.0801C189.667 48.1381 189.594 47.1961 189.594 46.2542C189.521 46.0523 189.521 45.8505 189.521 45.6486C189.533 45.5066 189.541 45.3645 189.549 45.2187C187.278 44.8935 185.006 44.5571 182.73 44.2095C182.734 44.8748 182.799 45.5963 182.657 46.3214Z" fill="white"/>
<path d="M189.667 34.6062C189.813 34.0006 189.813 33.3278 189.74 32.7223C189.74 32.0494 189.74 31.3766 189.667 30.7037C189.667 30.6365 189.667 30.5019 189.667 30.4346C189.594 29.829 189.594 29.2235 189.667 28.6179C189.74 28.4161 189.74 28.2142 189.74 28.0797C189.667 27.205 189.667 26.3976 189.667 25.5229C189.667 25.1865 189.667 24.85 189.74 24.5136C189.74 24.2445 189.813 23.9753 189.813 23.7062C189.813 23.6389 189.813 23.5044 189.886 23.4371C189.959 23.1679 190.105 22.9661 190.47 22.9661C191.492 22.9661 192.514 22.9661 193.537 22.9661C193.61 22.9661 193.683 23.0334 193.756 23.0334C193.756 23.1679 193.756 23.3025 193.756 23.4371C193.756 23.5716 193.756 23.7062 193.756 23.7735C193.975 24.1772 193.975 24.5136 193.975 24.9173C193.902 25.2537 193.902 25.6574 193.902 25.9939C193.902 26.263 193.975 26.5321 194.048 26.734C194.194 27.2723 194.559 27.5414 195.143 27.6087C195.289 27.676 195.435 27.676 195.508 27.676C195.727 27.676 195.946 27.676 196.238 27.676C196.676 27.676 197.114 27.676 197.626 27.676C198.21 27.676 198.721 27.676 199.305 27.676C199.67 27.676 199.962 27.6087 200.327 27.5414C200.765 27.4741 201.057 27.1377 201.057 26.734C201.057 26.5994 201.057 26.3976 201.057 26.263C200.984 25.5902 200.984 24.9173 201.057 24.2445C201.057 23.9081 201.057 23.5716 201.13 23.2352C201.13 22.8988 201.057 22.4951 201.13 22.1587C201.13 21.4858 201.057 20.813 200.984 20.1402C200.984 19.871 200.911 19.6019 200.911 19.2655C200.911 18.7945 200.984 18.2562 200.984 17.7179C200.984 17.5161 200.984 17.3142 200.911 17.1124C200.838 16.7087 200.546 16.4395 200.108 16.3723C199.889 16.3723 199.67 16.305 199.451 16.305C198.94 16.3723 198.429 16.305 197.991 16.305C197.699 16.305 197.48 16.305 197.261 16.305C196.457 16.305 195.581 16.3723 194.705 16.3723C194.194 16.3723 193.61 16.3723 193.099 16.3723C192.514 16.3723 192.003 16.305 191.419 16.305C191.127 16.305 190.762 16.305 190.397 16.305C189.959 16.305 189.448 16.305 188.937 16.305C188.134 16.305 187.403 16.305 186.673 16.3723C186.235 16.3723 185.87 16.3723 185.505 16.3723C184.702 16.3723 183.826 16.3723 182.949 16.3723C182.365 16.3723 181.781 16.3723 181.197 16.2377C181.051 16.2377 180.905 16.1704 180.832 16.1704C179.956 16.1704 179.08 16.1704 178.203 16.305C177.327 16.3723 176.524 16.3723 175.648 16.305C175.137 16.2377 174.553 16.2377 174.041 16.305C173.603 16.305 173.165 16.305 172.727 16.3723C172.435 16.4395 172.216 16.4395 171.997 16.5068C171.778 16.6414 171.559 16.776 171.486 17.0451C171.413 17.247 171.34 17.4488 171.34 17.5834C171.34 17.9198 171.34 18.1889 171.34 18.4581C171.34 18.6599 171.267 18.9291 171.34 19.1309C171.34 19.7365 171.34 20.342 171.34 20.9476C171.267 21.2167 171.267 21.4858 171.267 21.755C171.267 22.2932 171.34 22.8315 171.267 23.3025C171.267 23.8408 171.267 24.3118 171.267 24.85C171.267 25.0519 171.34 25.321 171.34 25.5229C171.34 25.792 171.34 26.0611 171.34 26.3303C171.34 26.5321 171.413 26.734 171.413 26.9358C171.486 27.205 171.632 27.4741 171.851 27.676C171.924 27.8105 172.07 27.8778 172.216 27.8105C172.8 27.8105 173.384 27.8778 173.968 27.7432C174.041 27.7432 174.114 27.7432 174.187 27.7432C174.699 27.676 175.137 27.676 175.648 27.7432C176.086 27.7432 176.524 27.7432 176.889 27.7432C177.546 27.7432 177.984 27.4068 178.13 26.8686C178.203 26.6667 178.276 26.5321 178.276 26.3303C178.349 25.7247 178.422 25.1865 178.422 24.5809C178.349 24.4463 178.422 24.2445 178.422 24.0426C178.422 23.8408 178.495 23.7062 178.495 23.5044C178.495 23.3698 178.422 23.1679 178.495 23.0334C178.568 22.9661 178.714 22.9661 178.787 22.9661C179.08 23.0334 179.372 22.9661 179.591 22.8988C180.175 22.6969 180.832 22.7642 181.416 22.8988C181.562 22.9661 181.781 22.9661 181.927 23.0334C182.146 23.0334 182.365 23.1679 182.438 23.4371C182.438 23.6389 182.511 23.8408 182.584 24.0426C182.657 24.379 182.73 24.7155 182.73 25.0519C182.73 25.5902 182.657 26.1284 182.657 26.734C182.584 27.4741 182.584 28.2815 182.657 29.0889C182.73 29.4926 182.73 29.8963 182.73 30.3673C182.73 30.9056 182.73 31.5111 182.73 32.1167C182.73 32.655 182.73 33.126 182.657 33.6642C182.584 34.2025 182.584 34.6735 182.657 35.2118C182.657 35.6827 182.73 36.1537 182.73 36.692C182.73 36.707 182.73 36.7219 182.73 36.7331C185.002 37.0808 187.274 37.4209 189.549 37.7424C189.594 37.0135 189.594 36.2883 189.594 35.6155C189.594 35.279 189.667 34.9426 189.667 34.6062Z" fill="white"/>
<path d="M223.611 40.1235C223.684 39.5852 223.684 39.0469 223.611 38.5087C223.611 38.3741 223.538 38.1723 223.538 38.0377C223.538 37.2303 223.538 36.4902 223.538 35.6827C223.538 35.0772 223.538 34.5389 223.538 33.9334C223.538 33.126 223.538 32.2513 223.538 31.3766C223.538 31.242 223.538 31.0402 223.465 30.8383C223.465 30.0982 223.465 29.3581 223.465 28.6179C223.538 28.1469 223.538 27.6087 223.538 27.1377C223.538 26.5321 223.538 25.9266 223.611 25.321C223.757 24.5136 224.122 23.9081 224.779 23.4371C225.071 23.2352 225.29 23.0334 225.582 22.8315C225.875 22.6297 226.094 22.3605 226.24 22.0241C226.313 21.755 226.459 21.4858 226.459 21.1494C226.532 20.6784 226.532 20.2074 226.459 19.7365C226.313 19.1309 226.313 18.5926 226.313 17.9871C226.313 17.8525 226.313 17.7179 226.24 17.5834C226.24 17.4488 226.24 17.3815 226.24 17.247C226.094 16.8432 225.802 16.5741 225.363 16.4395C225.144 16.3723 224.998 16.3723 224.852 16.3723C224.706 16.3723 224.487 16.3723 224.341 16.3723C223.903 16.3723 223.465 16.305 223.1 16.2377C222.881 16.1704 222.735 16.1704 222.589 16.1704C222.37 16.1704 222.151 16.1704 221.859 16.1704C221.348 16.1704 220.763 16.1704 220.179 16.2377C219.23 16.3723 218.281 16.305 217.405 16.2377C216.602 16.1704 215.798 16.2377 215.068 16.3723C214.849 16.3723 214.63 16.4395 214.484 16.5068C214.119 16.6414 213.973 16.9105 213.827 17.1797C213.827 17.3142 213.754 17.5161 213.754 17.6507C213.754 17.7852 213.754 17.9871 213.754 18.1216C213.681 18.3908 213.681 18.7272 213.754 18.9963C213.827 19.4673 213.9 19.9383 213.754 20.4093C213.754 20.6111 213.681 20.7457 213.681 20.9476C213.535 21.3513 213.608 21.6877 213.754 22.0914C213.973 22.4951 214.265 22.7642 214.63 23.0334C214.849 23.1679 215.068 23.3025 215.287 23.4371C215.652 23.6389 215.871 23.9081 216.09 24.2445C216.236 24.5809 216.309 24.9173 216.382 25.2537C216.602 26.0611 216.602 26.8013 216.529 27.6087C216.529 28.1469 216.529 28.7525 216.529 29.3581C216.602 29.9636 216.602 30.5692 216.529 31.242C216.529 32.184 216.529 33.1932 216.602 34.1352C216.675 34.6735 216.675 35.1445 216.675 35.6155C216.675 36.221 216.675 36.8266 216.675 37.4321C216.675 38.0377 216.602 38.6432 216.602 39.2488C216.602 39.3834 216.602 39.5852 216.602 39.7198C216.602 40.03 216.61 40.3328 216.614 40.6319C218.922 40.7739 221.23 40.8898 223.546 40.9645C223.558 40.6917 223.575 40.415 223.611 40.1235Z" fill="white"/>
<path d="M246.83 38.5087C246.903 38.2395 246.83 37.9031 246.83 37.634C246.757 37.0284 246.757 36.4902 246.757 35.8846C246.757 35.6155 246.757 35.279 246.757 35.0099C246.757 34.5389 246.757 34.0006 246.757 33.5297C246.757 33.126 246.757 32.7895 246.757 32.4531C246.757 31.8476 246.757 31.242 246.83 30.6365C246.83 30.5019 246.83 30.3673 246.83 30.1655C246.83 29.6272 246.83 29.0889 246.83 28.4834C246.903 27.8105 246.903 27.1377 246.83 26.3976C246.757 26.263 246.757 26.1957 246.757 26.0611C246.83 25.5229 246.903 25.0519 247.122 24.6482C247.487 23.9753 247.852 23.3698 248.582 23.0334C248.802 22.8988 249.021 22.7642 249.167 22.6297C249.459 22.4278 249.605 22.1587 249.678 21.8895C249.751 21.6204 249.751 21.4186 249.751 21.2167C249.751 20.6784 249.678 20.1402 249.678 19.6019C249.678 19.6019 249.678 19.6019 249.751 19.6019C249.751 19.2655 249.751 18.8618 249.751 18.5253C249.751 18.1889 249.678 17.8525 249.678 17.5161C249.678 17.3815 249.678 17.1797 249.532 17.0451C249.313 16.5741 248.802 16.1031 247.998 16.2377C247.925 16.305 247.852 16.305 247.779 16.305C247.268 16.3723 246.684 16.4395 246.173 16.3723C245.662 16.3723 245.224 16.305 244.713 16.305C244.056 16.3723 243.398 16.3723 242.741 16.305C242.376 16.2377 242.011 16.2377 241.646 16.2377C241.062 16.305 240.478 16.305 239.894 16.305C239.529 16.2377 239.163 16.2377 238.798 16.305C238.579 16.305 238.36 16.305 238.214 16.3723C237.703 16.4395 237.338 16.7087 237.192 17.1797C237.119 17.3815 237.046 17.5161 237.046 17.7179C236.973 18.0544 236.973 18.4581 237.046 18.8618C237.046 19.4 237.046 19.9383 236.973 20.4766C236.9 20.813 236.9 21.1494 236.973 21.4858C237.046 22.0914 237.338 22.5624 237.849 22.8988C237.995 23.0334 238.214 23.1007 238.36 23.2352C239.163 23.7062 239.602 24.4463 239.675 25.321C239.748 25.3883 239.748 25.5229 239.748 25.5902C239.894 26.5321 239.967 27.4741 239.894 28.4161C239.821 28.7525 239.821 29.0216 239.821 29.3581C239.821 29.829 239.821 30.3673 239.748 30.9056C239.675 31.3766 239.675 31.8476 239.748 32.2513C239.967 33.5297 239.894 34.8081 239.748 36.0864C239.675 36.692 239.675 37.2976 239.748 37.9031C239.821 38.105 239.821 38.3741 239.894 38.576C239.894 39.0469 239.894 39.5179 239.894 39.9889C239.894 40.2506 239.894 40.5309 239.885 40.8187C242.202 40.6431 244.51 40.3702 246.802 39.9889C246.773 39.4955 246.785 39.0021 246.83 38.5087Z" fill="white"/>
<path d="M239.821 49.2142C239.821 50.0216 239.675 50.829 239.455 51.5692C239.236 52.1747 238.944 52.8476 238.506 53.3858C238.214 53.7222 237.849 54.0587 237.484 54.4624C237.265 54.7315 236.9 54.9334 236.608 55.1352C235.659 55.6735 234.636 56.0099 233.468 56.2118C233.468 56.2118 233.395 56.2118 233.322 56.2118C232.227 56.279 231.205 56.2118 230.109 56.1445C229.598 56.0772 229.014 55.9426 228.503 55.7408C227.919 55.4716 227.335 55.2025 226.751 54.9334C225.875 54.4624 225.217 53.7895 224.706 52.9821C224.414 52.4439 224.195 51.9056 223.976 51.3C223.757 50.8963 223.611 50.4926 223.611 50.0216C223.611 49.8198 223.611 49.5506 223.538 49.3488C223.538 49.0348 223.538 48.7395 223.55 48.4442C221.234 48.3694 218.926 48.2536 216.618 48.1115C216.634 48.7918 216.654 49.4572 216.606 50.1599C216.533 50.5636 216.606 50.9673 216.752 51.371C216.898 51.9093 217.044 52.4476 217.19 52.9859C217.336 53.4568 217.482 53.8606 217.628 54.3315C217.701 54.8698 217.92 55.3408 218.212 55.8118C218.431 56.0809 218.65 56.4173 218.869 56.6865C219.088 57.0229 219.307 57.292 219.599 57.5612C219.891 57.8976 220.256 58.234 220.548 58.5704C220.913 58.9741 221.279 59.3778 221.717 59.647C222.447 60.1852 223.25 60.6562 224.053 61.0599C224.856 61.3964 225.586 61.6655 226.317 62.0019C226.682 62.2038 227.12 62.3383 227.485 62.4056C228.288 62.5402 229.091 62.6747 229.821 62.742C230.479 62.8093 231.063 62.8766 231.647 62.8766C232.304 62.8093 232.961 62.8093 233.618 62.8766C234.056 62.8766 234.421 62.8093 234.787 62.6747C234.86 62.6747 235.006 62.6075 235.079 62.6075C235.736 62.3383 236.393 62.2038 237.123 62.0019C237.707 61.9346 238.218 61.7328 238.729 61.4636C239.167 61.2618 239.533 61.0599 239.971 60.8581C240.409 60.5889 240.847 60.3198 241.285 59.9834C241.942 59.4451 242.599 58.9741 243.256 58.4359C243.402 58.3013 243.548 58.1667 243.621 58.0322C243.913 57.6285 244.279 57.2247 244.571 56.821C244.936 56.2828 245.301 55.6772 245.593 55.0717C245.812 54.8025 245.958 54.4661 246.031 54.197C246.104 53.7933 246.25 53.3896 246.323 52.9859C246.469 52.313 246.688 51.7075 246.761 51.0346C246.907 50.1599 246.98 49.2852 246.907 48.4106C246.85 48.0966 246.822 47.7788 246.806 47.4648C244.514 47.8461 242.206 48.1227 239.89 48.2947C239.873 48.5975 239.857 48.904 239.821 49.2142Z" fill="white"/>
<path d="M289.901 19.8751C290.047 19.0677 290.121 18.2603 290.047 17.4529C290.047 16.9819 289.682 16.5109 289.171 16.3764C288.879 16.3091 288.66 16.3091 288.368 16.3091C288.076 16.2418 287.857 16.2418 287.565 16.2418C287.346 16.2418 287.054 16.2418 286.762 16.2418C286.105 16.2418 285.447 16.2418 284.79 16.2418C284.352 16.2418 283.987 16.2418 283.549 16.3091C283.257 16.3091 282.965 16.3764 282.746 16.4437C282.673 16.5109 282.673 16.5782 282.6 16.6455H282.527C282.308 16.5109 282.016 16.5109 281.797 16.5109C281.432 16.4437 281.067 16.3764 280.774 16.2418C280.482 16.1745 280.117 16.04 279.825 15.9727C279.679 15.9054 279.533 15.8381 279.314 15.8381C278.949 15.7708 278.511 15.7035 278.146 15.7035C278.073 15.7035 278.073 15.7035 278 15.6363C277.854 15.569 277.708 15.6363 277.489 15.569C277.416 15.569 277.27 15.6363 277.124 15.569C276.978 15.5017 276.759 15.569 276.54 15.569C276.028 15.5017 275.59 15.569 275.079 15.569C275.006 15.569 274.86 15.5017 274.787 15.569C274.641 15.6363 274.422 15.569 274.203 15.569C274.13 15.6363 274.057 15.569 273.984 15.6363C273.765 15.7035 273.473 15.7035 273.254 15.7035C272.816 15.7708 272.451 15.8381 272.086 15.9727C271.501 16.2418 270.917 16.4437 270.333 16.5782C269.384 16.9146 268.508 17.2511 267.632 17.7221C266.974 18.193 266.244 18.5967 265.66 19.135C265.587 19.2696 265.514 19.2696 265.441 19.3369C264.93 19.8079 264.419 20.2788 263.981 20.8171C263.616 21.2881 263.324 21.7591 263.032 22.1628C262.74 22.5665 262.521 22.9029 262.374 23.3066C262.228 23.7103 262.082 24.114 261.936 24.5177C261.936 24.6523 261.863 24.8541 261.79 25.056C261.717 25.3924 261.644 25.7288 261.644 26.1325C261.644 26.3344 261.644 26.6035 261.571 26.8727C261.571 27.2091 261.498 27.5455 261.498 27.8819C261.498 28.0838 261.498 28.3529 261.498 28.5548C261.571 29.0257 261.717 29.4967 261.863 29.9677C262.009 30.3714 262.082 30.7751 262.082 31.1788C262.082 31.3134 262.155 31.448 262.228 31.5153C262.374 31.8517 262.521 32.1208 262.667 32.4572C262.74 32.6591 262.886 32.7936 263.105 32.9955C263.251 33.1301 263.397 33.2646 263.47 33.3992C263.835 33.7356 264.127 34.1393 264.419 34.543C264.468 34.6215 264.524 34.6926 264.581 34.7636C265.51 34.3636 266.431 33.9487 267.34 33.5151C268.707 32.8385 270.09 32.1694 271.473 31.504C270.727 31.1676 270.155 30.6929 269.68 30.035C269.096 29.3622 268.804 28.5548 268.658 27.6801C268.658 27.4782 268.658 27.2091 268.658 26.9399C268.731 26.5362 268.877 26.1325 269.096 25.7288C269.242 25.527 269.315 25.2578 269.461 25.056C269.607 24.8541 269.826 24.6523 269.972 24.4504C270.337 24.0467 270.775 23.7776 271.213 23.4412C271.579 23.2393 271.871 23.0375 272.236 22.9702C272.82 22.7683 273.477 22.5665 274.061 22.3646C274.353 22.2974 274.718 22.2301 275.01 22.2301C275.448 22.1628 275.886 22.1628 276.252 22.1628C277.128 22.2301 277.931 22.3646 278.734 22.5665C279.318 22.7683 279.756 22.9702 280.194 23.3066C280.706 23.7103 281.144 24.0467 281.582 24.4504C282.121 24.9476 282.413 25.5046 282.624 26.1176C285.115 24.8803 287.577 23.6094 289.983 22.2749C289.987 21.8226 289.97 21.3778 289.901 20.9479C289.828 20.548 289.901 20.2116 289.901 19.8751Z" fill="white"/>
<path d="M282.673 26.2707C282.746 26.4725 282.746 26.6744 282.819 26.8089C282.965 27.2126 283.257 27.4818 283.695 27.5491C283.841 27.6163 284.06 27.6163 284.206 27.6163C284.425 27.6836 284.644 27.6836 284.863 27.6836C285.52 27.7509 286.177 27.7509 286.908 27.7509C287.273 27.6836 287.711 27.6836 288.076 27.6836C288.441 27.6836 288.806 27.6836 289.098 27.6163C289.755 27.4818 290.047 27.0781 290.047 26.5398C290.047 26.2034 290.047 25.867 289.974 25.5305C289.901 24.9923 289.901 24.454 289.901 23.9157C289.942 23.3662 289.978 22.8205 289.982 22.2822C287.577 23.613 285.115 24.8876 282.624 26.1249C282.64 26.1697 282.656 26.2183 282.673 26.2707Z" fill="white"/>
<path d="M264.581 42.2395C264.865 42.6171 265.246 42.946 265.733 43.2301C266.39 43.6338 266.974 44.0375 267.632 44.4412C267.778 44.5085 267.851 44.5758 267.997 44.643C269.092 45.114 270.187 45.6523 271.355 45.9887C272.159 46.2579 272.962 46.4597 273.765 46.6616C274.349 46.7288 274.86 46.9307 275.371 47.1325C275.809 47.2671 276.247 47.4017 276.759 47.469C277.416 47.5363 278.146 47.6708 278.803 47.8054C279.314 47.8727 279.752 48.0072 280.19 48.2091C280.701 48.4109 281.286 48.6801 281.797 48.9492C281.943 49.0165 282.089 49.1511 282.308 49.2183C282.673 49.4875 283.038 49.8239 283.184 50.2949C283.257 50.4967 283.257 50.6986 283.257 50.9677C283.33 51.1023 283.33 51.2369 283.33 51.3714C283.33 51.7079 283.33 52.1116 283.257 52.448C283.257 52.8517 283.038 53.1881 282.819 53.5918C282.381 54.3319 281.724 55.0048 280.92 55.4085C280.628 55.543 280.409 55.6103 280.117 55.7449C279.46 55.9467 278.73 56.1486 278 56.2832C277.343 56.3504 276.686 56.4177 275.955 56.3504C275.152 56.2832 274.422 56.2159 273.619 56.1486C272.816 56.0813 272.086 55.8795 271.428 55.4758C270.625 55.0048 269.968 54.3992 269.603 53.5918C269.457 53.2554 269.384 52.9863 269.238 52.6498C269.092 52.3807 269.019 52.1116 268.873 51.8424C268.727 51.3042 268.289 50.9677 267.632 50.9004C267.12 50.9004 266.536 50.8332 265.952 50.8332C265.368 50.7659 264.784 50.8332 264.2 50.9004C263.835 50.9004 263.47 50.9677 263.105 50.9677C262.447 51.035 262.009 51.4387 261.863 52.0443C261.863 52.1116 261.863 52.1788 261.863 52.2461C261.79 52.3807 261.79 52.5153 261.79 52.6498C261.717 53.0535 261.644 53.4572 261.644 53.8609C261.644 54.7356 261.717 55.6103 261.644 56.485C261.644 56.5523 261.644 56.5523 261.644 56.6196C261.644 56.956 261.717 57.3597 261.717 57.6961C261.717 57.9653 261.717 58.1671 261.717 58.369C261.717 58.6381 261.644 58.9072 261.644 59.1764C261.644 59.6474 261.644 60.1856 261.644 60.6566C261.644 60.993 261.717 61.2622 261.936 61.5313C262.155 61.935 262.593 62.2041 263.105 62.2041C263.251 62.2714 263.397 62.2041 263.543 62.2714C264.054 62.2714 264.492 62.2714 265.003 62.2714C265.368 62.3387 265.733 62.3387 266.098 62.3387C266.463 62.3387 266.828 62.3387 267.193 62.3387C267.632 62.406 268.143 62.3387 268.654 62.2714C268.727 62.2714 268.873 62.2714 269.019 62.2041C269.019 62.1369 269.019 62.1369 269.019 62.0696C269.019 62.0023 269.092 61.935 269.092 61.935C269.238 61.935 269.384 62.0023 269.53 62.0696C269.676 62.1369 269.895 62.1369 270.041 62.1369C270.479 62.1369 270.844 62.2041 271.209 62.2714C271.574 62.406 271.94 62.4733 272.305 62.6079C272.67 62.6751 273.035 62.7424 273.4 62.7424C273.546 62.7424 273.692 62.7424 273.838 62.7424C274.495 62.8097 275.079 62.877 275.736 62.877C276.613 62.877 277.489 62.877 278.365 62.877C278.876 62.877 279.314 62.8097 279.752 62.6751C280.044 62.5406 280.336 62.4733 280.628 62.3387C281.286 62.1369 282.016 62.0023 282.673 61.8004C283.33 61.6659 283.914 61.3295 284.498 60.993C284.79 60.7912 285.155 60.5893 285.447 60.3202C285.959 59.9838 286.397 59.6474 286.908 59.3109C287.419 58.9745 287.857 58.5035 288.149 57.9653C288.368 57.5616 288.587 57.1579 288.806 56.7541C289.39 56.014 289.755 55.1393 290.047 54.2646C290.267 53.39 290.413 52.5153 290.559 51.6406C290.632 50.9677 290.559 50.2949 290.413 49.6221C290.267 49.1511 290.12 48.6801 289.974 48.2091C289.901 47.94 289.828 47.6708 289.755 47.4017C289.463 46.9307 289.244 46.4597 288.952 45.9214C288.733 45.585 288.514 45.2486 288.149 44.9795C287.857 44.7776 287.565 44.5758 287.273 44.3739C286.762 44.1048 286.178 43.7684 285.666 43.4992C285.374 43.2974 285.009 43.1628 284.717 43.0282C284.425 42.8937 284.133 42.8264 283.841 42.6918C283.257 42.4227 282.746 42.2881 282.162 42.1535C281.286 41.9517 280.409 41.7498 279.533 41.4807C278.657 41.2788 277.854 41.077 277.051 40.8751C276.686 40.7406 276.32 40.6733 275.882 40.5387C275.736 40.4714 275.517 40.4042 275.298 40.3369C274.714 40.135 274.057 39.9332 273.473 39.664C273.254 39.5295 273.035 39.4622 272.816 39.3949C272.524 39.3276 272.305 39.2603 272.013 39.193C271.822 39.1295 271.643 39.0585 271.469 38.98C270.082 39.6453 268.702 40.3144 267.335 40.991C266.431 41.4246 265.51 41.8395 264.581 42.2395Z" fill="white"/>
<path d="M17.5278 49.1922C41.4689 40.6359 72.1843 32.8983 107.682 32.4385C156.343 31.8068 177.806 45.3196 223.607 43.1516C247.065 42.0414 276.393 36.8419 309.831 21.4937" stroke="#FDC70A" stroke-miterlimit="10"/>
<g opacity="0.75">
<path d="M16.3352 34.812L16.4244 41.5628" stroke="url(#paint0_radial_597_544)" stroke-width="0.25" stroke-miterlimit="10"/>
<path d="M17.5439 41.5741C17.7478 41.5741 17.9131 41.4084 17.9131 41.204C17.9131 40.9997 17.7478 40.834 17.5439 40.834C17.3401 40.834 17.1748 40.9997 17.1748 41.204C17.1748 41.4084 17.3401 41.5741 17.5439 41.5741Z" fill="url(#paint1_radial_597_544)"/>
<path d="M17.7305 40.6061C17.8336 40.6061 17.9171 40.5241 17.9171 40.4229C17.9171 40.3217 17.8336 40.2397 17.7305 40.2397C17.6275 40.2397 17.5439 40.3217 17.5439 40.4229C17.5439 40.5241 17.6275 40.6061 17.7305 40.6061Z" fill="url(#paint2_radial_597_544)"/>
<path d="M19.6249 36.1504L18.343 41.5667" stroke="url(#paint3_radial_597_544)" stroke-width="0.25" stroke-miterlimit="10"/>
<path d="M19.7264 35.9073C19.8294 35.9073 19.913 35.8253 19.913 35.7242C19.913 35.623 19.8294 35.541 19.7264 35.541C19.6233 35.541 19.5398 35.623 19.5398 35.7242C19.5398 35.8253 19.6233 35.9073 19.7264 35.9073Z" fill="url(#paint4_radial_597_544)"/>
<path d="M21.6855 37.4434L19.7749 41.8318" stroke="url(#paint5_radial_597_544)" stroke-width="0.25" stroke-miterlimit="10"/>
<path d="M22.3347 40.0864L20.8054 42.5199" stroke="url(#paint6_radial_597_544)" stroke-width="0.25" stroke-miterlimit="10"/>
<path d="M22.8905 39.7053C22.8296 39.8436 22.6592 39.8996 22.5051 39.8361C22.351 39.7688 22.2779 39.6043 22.3388 39.4698C22.3996 39.3352 22.57 39.2754 22.7242 39.3389C22.8742 39.4025 22.9513 39.5669 22.8905 39.7053Z" fill="url(#paint7_radial_597_544)"/>
<path d="M23.1216 39.178C23.0932 39.2453 23.004 39.2752 22.931 39.2416C22.8539 39.2079 22.8174 39.1257 22.8458 39.0584C22.8742 38.9911 22.9634 38.9612 23.0364 38.9948C23.1135 39.0247 23.15 39.107 23.1216 39.178Z" fill="url(#paint8_radial_597_544)"/>
<path d="M27.1335 38.5762L22.3145 43.3309" stroke="url(#paint9_radial_597_544)" stroke-width="0.25" stroke-miterlimit="10"/>
<path d="M23.3528 44.2543C23.5566 44.2543 23.7219 44.0886 23.7219 43.8842C23.7219 43.6798 23.5566 43.5142 23.3528 43.5142C23.1489 43.5142 22.9836 43.6798 22.9836 43.8842C22.9836 44.0886 23.1489 44.2543 23.3528 44.2543Z" fill="url(#paint10_radial_597_544)"/>
<path d="M24.0506 43.6559C24.1537 43.6559 24.2372 43.5739 24.2372 43.4727C24.2372 43.3716 24.1537 43.2896 24.0506 43.2896C23.9476 43.2896 23.864 43.3716 23.864 43.4727C23.864 43.5739 23.9476 43.6559 24.0506 43.6559Z" fill="url(#paint11_radial_597_544)"/>
<path d="M28.4517 41.8618L23.6489 44.7064" stroke="url(#paint12_radial_597_544)" stroke-width="0.25" stroke-miterlimit="10"/>
<path d="M28.8331 41.817C28.9361 41.817 29.0197 41.735 29.0197 41.6338C29.0197 41.5327 28.9361 41.4507 28.8331 41.4507C28.73 41.4507 28.6465 41.5327 28.6465 41.6338C28.6465 41.735 28.73 41.817 28.8331 41.817Z" fill="url(#paint13_radial_597_544)"/>
<path d="M28.9506 44.2354L24.448 45.91" stroke="url(#paint14_radial_597_544)" stroke-width="0.25" stroke-miterlimit="10"/>
<path d="M27.8068 46.3252L24.9875 46.9158" stroke="url(#paint15_radial_597_544)" stroke-width="0.25" stroke-miterlimit="10"/>
<path d="M28.4721 46.4596C28.3301 46.5119 28.1678 46.4297 28.1111 46.2727C28.0543 46.1157 28.1192 45.9512 28.2611 45.8951C28.4031 45.8391 28.5654 45.925 28.6222 46.082C28.679 46.239 28.6141 46.4072 28.4721 46.4596Z" fill="url(#paint16_radial_597_544)"/>
<path d="M29.0157 46.2579C28.9467 46.2841 28.8656 46.243 28.8372 46.1645C28.8088 46.086 28.8412 46.0038 28.9102 45.9776C28.9792 45.9514 29.0603 45.9925 29.0887 46.071C29.1171 46.1458 29.0846 46.2318 29.0157 46.2579Z" fill="url(#paint17_radial_597_544)"/>
<path d="M32.135 47.3604L25.4216 48.3472" stroke="url(#paint18_radial_597_544)" stroke-width="0.25" stroke-miterlimit="10"/>
<path d="M25.9287 49.7753C26.1326 49.7753 26.2978 49.6096 26.2978 49.4052C26.2978 49.2008 26.1326 49.0352 25.9287 49.0352C25.7248 49.0352 25.5596 49.2008 25.5596 49.4052C25.5596 49.6096 25.7248 49.7753 25.9287 49.7753Z" fill="url(#paint19_radial_597_544)"/>
<path d="M26.7318 49.6666C26.8348 49.6666 26.9184 49.5846 26.9184 49.4835C26.9184 49.3823 26.8348 49.3003 26.7318 49.3003C26.6287 49.3003 26.5452 49.3823 26.5452 49.4835C26.5452 49.5846 26.6287 49.6666 26.7318 49.6666Z" fill="url(#paint20_radial_597_544)"/>
<path d="M31.2385 50.7847L25.6731 50.2427" stroke="url(#paint21_radial_597_544)" stroke-width="0.25" stroke-miterlimit="10"/>
<path d="M31.6766 51.0089C31.7796 51.0089 31.8632 50.9269 31.8632 50.8257C31.8632 50.7246 31.7796 50.6426 31.6766 50.6426C31.5735 50.6426 31.49 50.7246 31.49 50.8257C31.49 50.9269 31.5735 51.0089 31.6766 51.0089Z" fill="url(#paint22_radial_597_544)"/>
<path d="M30.2244 52.986L25.6001 51.689" stroke="url(#paint23_radial_597_544)" stroke-width="0.25" stroke-miterlimit="10"/>
<path d="M27.677 53.9804L25.0525 52.7954" stroke="url(#paint24_radial_597_544)" stroke-width="0.25" stroke-miterlimit="10"/>
<path d="M28.1313 54.4774C27.9853 54.4363 27.9041 54.2756 27.9488 54.1148C27.9934 53.9541 28.1475 53.8606 28.2936 53.9018C28.4396 53.9429 28.5207 54.1036 28.4761 54.2644C28.4315 54.4251 28.2773 54.5185 28.1313 54.4774Z" fill="url(#paint25_radial_597_544)"/>
<path d="M28.691 54.6346C28.618 54.6159 28.5775 54.5337 28.6018 54.4552C28.6261 54.3767 28.7032 54.3281 28.7722 54.3468C28.8411 54.3655 28.8858 54.4477 28.8614 54.5262C28.8411 54.6084 28.7641 54.6533 28.691 54.6346Z" fill="url(#paint26_radial_597_544)"/>
<path d="M29.8229 58.511L24.4441 54.3955" stroke="url(#paint27_radial_597_544)" stroke-width="0.25" stroke-miterlimit="10"/>
<path d="M24.0342 55.8607C24.238 55.8607 24.4033 55.695 24.4033 55.4907C24.4033 55.2863 24.238 55.1206 24.0342 55.1206C23.8303 55.1206 23.665 55.2863 23.665 55.4907C23.665 55.695 23.8303 55.8607 24.0342 55.8607Z" fill="url(#paint28_radial_597_544)"/>
<path d="M24.5372 56.3053C24.6402 56.3053 24.7238 56.2233 24.7238 56.1221C24.7238 56.021 24.6402 55.939 24.5372 55.939C24.4341 55.939 24.3506 56.021 24.3506 56.1221C24.3506 56.2233 24.4341 56.3053 24.5372 56.3053Z" fill="url(#paint29_radial_597_544)"/>
<path d="M26.7278 60.2491L23.2515 55.8906" stroke="url(#paint30_radial_597_544)" stroke-width="0.25" stroke-miterlimit="10"/>
<path d="M27.0035 60.776C27.1065 60.776 27.1901 60.694 27.1901 60.5928C27.1901 60.4917 27.1065 60.4097 27.0035 60.4097C26.9004 60.4097 26.8169 60.4917 26.8169 60.5928C26.8169 60.694 26.9004 60.776 27.0035 60.776Z" fill="url(#paint31_radial_597_544)"/>
<path d="M24.4968 61.0229L22.0913 56.8774" stroke="url(#paint32_radial_597_544)" stroke-width="0.25" stroke-miterlimit="10"/>
<path d="M22.0343 60.4097L20.9553 57.752" stroke="url(#paint33_radial_597_544)" stroke-width="0.25" stroke-miterlimit="10"/>
<path d="M22.0183 61.0827C21.9412 60.9556 21.9939 60.7799 22.1399 60.6977C22.2819 60.6117 22.4604 60.6491 22.5375 60.7799C22.6145 60.907 22.5618 61.0827 22.4158 61.1649C22.2698 61.2471 22.0953 61.2135 22.0183 61.0827Z" fill="url(#paint34_radial_597_544)"/>
<path d="M22.3144 61.5797C22.2779 61.5162 22.3022 61.4302 22.3752 61.3853C22.4482 61.3405 22.5375 61.3629 22.574 61.4264C22.6105 61.49 22.5862 61.576 22.5131 61.6208C22.4401 61.6657 22.3549 61.647 22.3144 61.5797Z" fill="url(#paint35_radial_597_544)"/>
<path d="M21.3123 64.6524L19.1543 58.2529" stroke="url(#paint36_radial_597_544)" stroke-width="0.25" stroke-miterlimit="10"/>
<path d="M18.197 59.3036C18.4009 59.3036 18.5662 59.1379 18.5662 58.9335C18.5662 58.7292 18.4009 58.5635 18.197 58.5635C17.9931 58.5635 17.8279 58.7292 17.8279 58.9335C17.8279 59.1379 17.9931 59.3036 18.197 59.3036Z" fill="url(#paint37_radial_597_544)"/>
<path d="M18.262 59.92C18.3651 59.92 18.4486 59.838 18.4486 59.7369C18.4486 59.6357 18.3651 59.5537 18.262 59.5537C18.159 59.5537 18.0754 59.6357 18.0754 59.7369C18.0754 59.838 18.159 59.92 18.262 59.92Z" fill="url(#paint38_radial_597_544)"/>
<path d="M17.7712 64.3797L17.325 58.8325" stroke="url(#paint39_radial_597_544)" stroke-width="0.25" stroke-miterlimit="10"/>
<path d="M17.8035 65.0001C17.9066 65.0001 17.9901 64.9181 17.9901 64.8169C17.9901 64.7158 17.9066 64.6338 17.8035 64.6338C17.7005 64.6338 17.6169 64.7158 17.6169 64.8169C17.6169 64.9181 17.7005 65.0001 17.8035 65.0001Z" fill="url(#paint40_radial_597_544)"/>
<path d="M15.4104 63.7778L15.8809 59.0156" stroke="url(#paint41_radial_597_544)" stroke-width="0.25" stroke-miterlimit="10"/>
<path d="M13.9824 61.4564L14.6882 58.6753" stroke="url(#paint42_radial_597_544)" stroke-width="0.25" stroke-miterlimit="10"/>
<path d="M13.5688 61.9908C13.5851 61.8413 13.7311 61.7329 13.8933 61.7516C14.0597 61.7666 14.1814 61.9011 14.1651 62.0506C14.1489 62.2002 14.0029 62.3086 13.8406 62.2899C13.6743 62.2749 13.5526 62.1404 13.5688 61.9908Z" fill="url(#paint43_radial_597_544)"/>
<path d="M13.512 62.5666C13.5201 62.4919 13.5931 62.4395 13.6742 62.447C13.7553 62.4545 13.8162 62.5218 13.8121 62.5965C13.804 62.6713 13.731 62.7236 13.6499 62.7161C13.5647 62.7049 13.5038 62.6414 13.512 62.5666Z" fill="url(#paint44_radial_597_544)"/>
<path d="M9.8772 64.3571L13.0007 58.3613" stroke="url(#paint45_radial_597_544)" stroke-width="0.25" stroke-miterlimit="10"/>
<path d="M11.8406 58.5223C12.0444 58.5223 12.2097 58.3567 12.2097 58.1523C12.2097 57.9479 12.0444 57.7822 11.8406 57.7822C11.6367 57.7822 11.4714 57.9479 11.4714 58.1523C11.4714 58.3567 11.6367 58.5223 11.8406 58.5223Z" fill="url(#paint46_radial_597_544)"/>
<path d="M11.3092 58.9405C11.4122 58.9405 11.4958 58.8585 11.4958 58.7574C11.4958 58.6562 11.4122 58.5742 11.3092 58.5742C11.2061 58.5742 11.1226 58.6562 11.1226 58.7574C11.1226 58.8585 11.2061 58.9405 11.3092 58.9405Z" fill="url(#paint47_radial_597_544)"/>
<path d="M7.60986 61.6321L11.3093 57.4604" stroke="url(#paint48_radial_597_544)" stroke-width="0.25" stroke-miterlimit="10"/>
<path d="M7.3177 62.1481C7.42075 62.1481 7.5043 62.0661 7.5043 61.9649C7.5043 61.8637 7.42075 61.7817 7.3177 61.7817C7.21465 61.7817 7.1311 61.8637 7.1311 61.9649C7.1311 62.0661 7.21465 62.1481 7.3177 62.1481Z" fill="url(#paint49_radial_597_544)"/>
<path d="M5.92627 59.909L9.69064 56.9336" stroke="url(#paint50_radial_597_544)" stroke-width="0.25" stroke-miterlimit="10"/>
<path d="M6.21851 57.2362L8.72133 55.812" stroke="url(#paint51_radial_597_544)" stroke-width="0.25" stroke-miterlimit="10"/>
<path d="M5.54488 57.3146C5.66252 57.2212 5.841 57.2511 5.94647 57.3819C6.05193 57.5127 6.03976 57.6922 5.92213 57.7856C5.80449 57.8791 5.62601 57.8492 5.52054 57.7183C5.41507 57.5875 5.42724 57.4043 5.54488 57.3146Z" fill="url(#paint52_radial_597_544)"/>
<path d="M5.09064 57.6734C5.15149 57.6285 5.24073 57.6398 5.28941 57.707C5.34214 57.7706 5.33403 57.8603 5.27724 57.9089C5.21639 57.9537 5.12715 57.9425 5.07847 57.8753C5.02574 57.808 5.0298 57.7183 5.09064 57.6734Z" fill="url(#paint53_radial_597_544)"/>
<path d="M1.79272 57.3445L7.72729 54.0737" stroke="url(#paint54_radial_597_544)" stroke-width="0.25" stroke-miterlimit="10"/>
<path d="M6.87963 53.6293C7.0835 53.6293 7.24877 53.4636 7.24877 53.2592C7.24877 53.0548 7.0835 52.8892 6.87963 52.8892C6.67577 52.8892 6.5105 53.0548 6.5105 53.2592C6.5105 53.4636 6.67577 53.6293 6.87963 53.6293Z" fill="url(#paint55_radial_597_544)"/>
<path d="M6.10066 53.6515C6.20371 53.6515 6.28725 53.5695 6.28725 53.4683C6.28725 53.3672 6.20371 53.2852 6.10066 53.2852C5.9976 53.2852 5.91406 53.3672 5.91406 53.4683C5.91406 53.5695 5.9976 53.6515 6.10066 53.6515Z" fill="url(#paint56_radial_597_544)"/>
<path d="M1.42358 53.8273L6.8227 52.3882" stroke="url(#paint57_radial_597_544)" stroke-width="0.25" stroke-miterlimit="10"/>
<path d="M0.993725 54.1227C1.09678 54.1227 1.18032 54.0407 1.18032 53.9395C1.18032 53.8384 1.09678 53.7563 0.993725 53.7563C0.890671 53.7563 0.807129 53.8384 0.807129 53.9395C0.807129 54.0407 0.890671 54.1227 0.993725 54.1227Z" fill="url(#paint58_radial_597_544)"/>
<path d="M1.59009 51.4088L6.38074 51.0088" stroke="url(#paint59_radial_597_544)" stroke-width="0.25" stroke-miterlimit="10"/>
<path d="M3.62622 49.5884L6.50224 49.779" stroke="url(#paint60_radial_597_544)" stroke-width="0.25" stroke-miterlimit="10"/>
<path d="M3.02205 49.282C3.17214 49.2707 3.306 49.3941 3.31817 49.5586C3.33034 49.723 3.22081 49.8688 3.07072 49.88C2.92064 49.8913 2.78677 49.7679 2.7746 49.6034C2.76244 49.439 2.87196 49.2932 3.02205 49.282Z" fill="url(#paint61_radial_597_544)"/>
<path d="M2.446 49.3307C2.52307 49.3232 2.58798 49.3867 2.59609 49.469C2.6042 49.5512 2.54741 49.6222 2.4744 49.6297C2.39732 49.6372 2.33242 49.5736 2.32431 49.4914C2.3162 49.4092 2.36893 49.3382 2.446 49.3307Z" fill="url(#paint62_radial_597_544)"/>
<path d="M0.0161133 46.0972L6.50641 48.0708" stroke="url(#paint63_radial_597_544)" stroke-width="0.25" stroke-miterlimit="10"/>
<path d="M6.50244 47.2709C6.70631 47.2709 6.87157 47.1052 6.87157 46.9008C6.87157 46.6964 6.70631 46.5308 6.50244 46.5308C6.29857 46.5308 6.1333 46.6964 6.1333 46.9008C6.1333 47.1052 6.29857 47.2709 6.50244 47.2709Z" fill="url(#paint64_radial_597_544)"/>
<path d="M5.80867 46.6691C5.91172 46.6691 5.99526 46.5871 5.99526 46.4859C5.99526 46.3847 5.91172 46.3027 5.80867 46.3027C5.70561 46.3027 5.62207 46.3847 5.62207 46.4859C5.62207 46.5871 5.70561 46.6691 5.80867 46.6691Z" fill="url(#paint65_radial_597_544)"/>
<path d="M2.2998 43.3872L7.09451 46.2505" stroke="url(#paint66_radial_597_544)" stroke-width="0.25" stroke-miterlimit="10"/>
<path d="M1.92268 43.3458C2.02573 43.3458 2.10928 43.2638 2.10928 43.1627C2.10928 43.0615 2.02573 42.9795 1.92268 42.9795C1.81963 42.9795 1.73608 43.0615 1.73608 43.1627C1.73608 43.2638 1.81963 43.3458 1.92268 43.3458Z" fill="url(#paint67_radial_597_544)"/>
<path d="M4.19434 41.7944L7.75183 45.0091" stroke="url(#paint68_radial_597_544)" stroke-width="0.25" stroke-miterlimit="10"/>
<path d="M6.85132 42.0415L8.84303 44.1161" stroke="url(#paint69_radial_597_544)" stroke-width="0.25" stroke-miterlimit="10"/>
<path d="M6.61598 41.4099C6.73361 41.4996 6.74984 41.6828 6.64843 41.8136C6.54702 41.9444 6.36853 41.9781 6.24684 41.8846C6.1292 41.7949 6.11298 41.6117 6.21439 41.4809C6.3158 41.3501 6.49428 41.3202 6.61598 41.4099Z" fill="url(#paint70_radial_597_544)"/>
<path d="M6.15346 41.0584C6.21431 41.1032 6.21837 41.1929 6.16969 41.2602C6.11696 41.3275 6.02771 41.3424 5.97092 41.2976C5.91008 41.2527 5.90602 41.163 5.9547 41.0957C6.00743 41.0285 6.09667 41.0135 6.15346 41.0584Z" fill="url(#paint71_radial_597_544)"/>
<path d="M5.94653 37.9634L10.1652 43.2489" stroke="url(#paint72_radial_597_544)" stroke-width="0.25" stroke-miterlimit="10"/>
<path d="M10.9319 42.6356C11.1357 42.6356 11.301 42.4699 11.301 42.2656C11.301 42.0612 11.1357 41.8955 10.9319 41.8955C10.728 41.8955 10.5627 42.0612 10.5627 42.2656C10.5627 42.4699 10.728 42.6356 10.9319 42.6356Z" fill="url(#paint73_radial_597_544)"/>
<path d="M10.5467 41.7423C10.6498 41.7423 10.7333 41.6603 10.7333 41.5591C10.7333 41.458 10.6498 41.376 10.5467 41.376C10.4436 41.376 10.3601 41.458 10.3601 41.5591C10.3601 41.6603 10.4436 41.7423 10.5467 41.7423Z" fill="url(#paint74_radial_597_544)"/>
<path d="M9.86523 37.1821L12.5303 42.0752" stroke="url(#paint75_radial_597_544)" stroke-width="0.25" stroke-miterlimit="10"/>
<path d="M9.65828 36.9801C9.76133 36.9801 9.84487 36.8981 9.84487 36.7969C9.84487 36.6958 9.76133 36.6138 9.65828 36.6138C9.55522 36.6138 9.47168 36.6958 9.47168 36.7969C9.47168 36.8981 9.55522 36.9801 9.65828 36.9801Z" fill="url(#paint76_radial_597_544)"/>
<path d="M12.2097 36.9429L13.7431 41.4771" stroke="url(#paint77_radial_597_544)" stroke-width="0.25" stroke-miterlimit="10"/>
<path d="M14.3271 38.7295L14.7571 41.5666" stroke="url(#paint78_radial_597_544)" stroke-width="0.25" stroke-miterlimit="10"/>
<path d="M14.5017 38.0788C14.5463 38.2209 14.453 38.3779 14.2948 38.4265C14.1366 38.475 13.9703 38.4003 13.9257 38.2545C13.8811 38.1125 13.9744 37.9555 14.1326 37.9069C14.2908 37.8583 14.4571 37.933 14.5017 38.0788Z" fill="url(#paint79_radial_597_544)"/>
<path d="M14.3273 37.5256C14.3476 37.5966 14.303 37.6751 14.2218 37.7013C14.1407 37.7274 14.0596 37.6863 14.0393 37.6153C14.019 37.5443 14.0636 37.4658 14.1448 37.4396C14.2259 37.4172 14.307 37.4545 14.3273 37.5256Z" fill="url(#paint80_radial_597_544)"/>
</g>
<path d="M16.1201 58.8958C21.1026 58.8958 25.1417 54.9947 25.1417 50.1825C25.1417 45.3703 21.1026 41.4692 16.1201 41.4692C11.1377 41.4692 7.09863 45.3703 7.09863 50.1825C7.09863 54.9947 11.1377 58.8958 16.1201 58.8958Z" fill="#FDC70A"/>
<path d="M307.496 23.0001C311.763 23.0001 315.223 22.3619 315.223 21.5745C315.223 20.7872 311.763 20.1489 307.496 20.1489C303.228 20.1489 299.769 20.7872 299.769 21.5745C299.769 22.3619 303.228 23.0001 307.496 23.0001Z" fill="#052A43"/>
<path d="M316 9.96559C316.001 8.35626 315.59 6.77641 314.812 5.39199C314.034 4.00757 312.916 2.86968 311.577 2.09784C310.237 1.326 308.725 0.948713 307.2 1.0056C305.674 1.06249 304.191 1.55146 302.907 2.42114C301.622 3.29082 300.584 4.50912 299.9 5.94806C299.216 7.387 298.913 8.99346 299.022 10.5987C299.13 12.2039 299.647 13.7487 300.517 15.0707C301.388 16.3928 302.58 17.4433 303.969 18.1119L306.99 21.3052C307.131 21.4358 307.312 21.5078 307.5 21.5078C307.688 21.5078 307.869 21.4358 308.01 21.3052L311.031 18.1119C312.513 17.3985 313.769 16.2515 314.65 14.8073C315.53 13.3631 315.999 11.6826 316 9.96559Z" fill="#FDC70A"/>
<path d="M307.5 17.2956C311.341 17.2956 314.455 14.0131 314.455 9.96397C314.455 5.91481 311.341 2.63232 307.5 2.63232C303.659 2.63232 300.545 5.91481 300.545 9.96397C300.545 14.0131 303.659 17.2956 307.5 17.2956Z" fill="white"/>
<path d="M304.795 13.6318H306.341V14.1491C306.341 14.2417 306.324 14.3333 306.29 14.4188C306.256 14.5043 306.207 14.582 306.145 14.6474C306.083 14.7128 306.009 14.7647 305.928 14.8001C305.847 14.8356 305.76 14.8538 305.672 14.8538H305.464C305.287 14.8538 305.117 14.7795 304.991 14.6474C304.866 14.5152 304.795 14.336 304.795 14.1491V13.6318Z" fill="#052A43"/>
<path d="M308.661 13.6318H310.206V14.1491C310.206 14.336 310.136 14.5152 310.01 14.6474C309.885 14.7795 309.715 14.8538 309.538 14.8538H309.329C309.241 14.8538 309.154 14.8356 309.073 14.8001C308.992 14.7647 308.918 14.7128 308.856 14.6474C308.794 14.582 308.745 14.5043 308.712 14.4188C308.678 14.3333 308.661 14.2417 308.661 14.1491V13.6318Z" fill="#052A43"/>
<path d="M310.188 5.07666H304.817C304.38 5.07666 304.025 5.4505 304.025 5.91165V12.7953C304.025 13.2564 304.38 13.6302 304.817 13.6302H310.188C310.625 13.6302 310.98 13.2564 310.98 12.7953V5.91165C310.98 5.4505 310.625 5.07666 310.188 5.07666Z" fill="#052A43"/>
<path d="M310.975 7.521H311.747C311.85 7.521 311.948 7.56391 312.021 7.6403C312.093 7.71668 312.134 7.82028 312.134 7.92831V9.15025C312.134 9.25828 312.093 9.36188 312.021 9.43826C311.948 9.51465 311.85 9.55756 311.747 9.55756H310.975V7.521Z" fill="#FDC70A"/>
<path d="M303.251 7.521H304.024V9.55756H303.251C303.149 9.55756 303.05 9.51465 302.978 9.43826C302.905 9.36188 302.865 9.25828 302.865 9.15025V7.92831C302.865 7.82028 302.905 7.71668 302.978 7.6403C303.05 7.56391 303.149 7.521 303.251 7.521Z" fill="#FDC70A"/>
<path d="M310.98 7.11572H304.025V9.96692H310.98V7.11572Z" fill="#DADADA"/>
<path d="M305.566 12.4079C305.779 12.4079 305.952 12.2255 305.952 12.0006C305.952 11.7756 305.779 11.5933 305.566 11.5933C305.352 11.5933 305.179 11.7756 305.179 12.0006C305.179 12.2255 305.352 12.4079 305.566 12.4079Z" fill="#E6E7E8"/>
<path d="M309.432 12.4079C309.645 12.4079 309.818 12.2255 309.818 12.0006C309.818 11.7756 309.645 11.5933 309.432 11.5933C309.218 11.5933 309.045 11.7756 309.045 12.0006C309.045 12.2255 309.218 12.4079 309.432 12.4079Z" fill="#E6E7E8"/>
</g>
<defs>
<radialGradient id="paint0_radial_597_544" cx="0" cy="0" r="1" gradientUnits="userSpaceOnUse" gradientTransform="translate(16.3792 38.1876) rotate(0.0917714) scale(2.13342 2.38875)">
<stop stop-color="#FFED32"/>
<stop offset="0.2011" stop-color="#E7E000"/>
<stop offset="0.5792" stop-color="#FFED2E"/>
<stop offset="0.8228" stop-color="#FDC700"/>
<stop offset="0.9274" stop-color="#FBC700"/>
</radialGradient>
<radialGradient id="paint1_radial_597_544" cx="0" cy="0" r="1" gradientUnits="userSpaceOnUse" gradientTransform="translate(17.5437 41.2052) scale(0.370174 0.368326)">
<stop stop-color="#FFED32"/>
<stop offset="0.2011" stop-color="#E7E000"/>
<stop offset="0.5792" stop-color="#FFED2E"/>
<stop offset="0.8228" stop-color="#FDC700"/>
<stop offset="0.9274" stop-color="#FBC700"/>
</radialGradient>
<radialGradient id="paint2_radial_597_544" cx="0" cy="0" r="1" gradientUnits="userSpaceOnUse" gradientTransform="translate(17.7288 40.4219) scale(0.185067 0.184143)">
<stop stop-color="#FFED32"/>
<stop offset="0.2011" stop-color="#E7E000"/>
<stop offset="0.5792" stop-color="#FFED2E"/>
<stop offset="0.8228" stop-color="#FDC700"/>
<stop offset="0.9274" stop-color="#FBC700"/>
</radialGradient>
<radialGradient id="paint3_radial_597_544" cx="0" cy="0" r="1" gradientUnits="userSpaceOnUse" gradientTransform="translate(18.9792 38.8591) rotate(13.8671) scale(2.13277 1.96867)">
<stop stop-color="#FFED32"/>
<stop offset="0.2011" stop-color="#E7E000"/>
<stop offset="0.5792" stop-color="#FFED2E"/>
<stop offset="0.8228" stop-color="#FDC700"/>
<stop offset="0.9274" stop-color="#FBC700"/>
</radialGradient>
<radialGradient id="paint4_radial_597_544" cx="0" cy="0" r="1" gradientUnits="userSpaceOnUse" gradientTransform="translate(19.7265 35.7243) scale(0.185068 0.184143)">
<stop stop-color="#FFED32"/>
<stop offset="0.2011" stop-color="#E7E000"/>
<stop offset="0.5792" stop-color="#FFED2E"/>
<stop offset="0.8228" stop-color="#FDC700"/>
<stop offset="0.9274" stop-color="#FBC700"/>
</radialGradient>
<radialGradient id="paint5_radial_597_544" cx="0" cy="0" r="1" gradientUnits="userSpaceOnUse" gradientTransform="translate(20.7361 39.6337) rotate(23.9017) scale(2.1316 1.69372)">
<stop stop-color="#FFED32"/>
<stop offset="0.2011" stop-color="#E7E000"/>
<stop offset="0.5792" stop-color="#FFED2E"/>
<stop offset="0.8228" stop-color="#FDC700"/>
<stop offset="0.9274" stop-color="#FBC700"/>
</radialGradient>
<radialGradient id="paint6_radial_597_544" cx="0" cy="0" r="1" gradientUnits="userSpaceOnUse" gradientTransform="translate(21.5753 41.3007) rotate(32.2666) scale(2.13021 1.01659)">
<stop stop-color="#FFED32"/>
<stop offset="0.2011" stop-color="#E7E000"/>
<stop offset="0.5792" stop-color="#FFED2E"/>
<stop offset="0.8228" stop-color="#FDC700"/>
<stop offset="0.9274" stop-color="#FBC700"/>
</radialGradient>
<radialGradient id="paint7_radial_597_544" cx="0" cy="0" r="1" gradientUnits="userSpaceOnUse" gradientTransform="translate(22.6035 39.5909) rotate(23.3183) scale(0.300919 0.271606)">
<stop stop-color="#FFED32"/>
<stop offset="0.2011" stop-color="#E7E000"/>
<stop offset="0.5792" stop-color="#FFED2E"/>
<stop offset="0.8228" stop-color="#FDC700"/>
<stop offset="0.9274" stop-color="#FBC700"/>
</radialGradient>
<radialGradient id="paint8_radial_597_544" cx="0" cy="0" r="1" gradientUnits="userSpaceOnUse" gradientTransform="translate(22.9722 39.1206) rotate(23.3184) scale(0.15046 0.135803)">
<stop stop-color="#FFED32"/>
<stop offset="0.2011" stop-color="#E7E000"/>
<stop offset="0.5792" stop-color="#FFED2E"/>
<stop offset="0.8228" stop-color="#FDC700"/>
<stop offset="0.9274" stop-color="#FBC700"/>
</radialGradient>
<radialGradient id="paint9_radial_597_544" cx="0" cy="0" r="1" gradientUnits="userSpaceOnUse" gradientTransform="translate(24.7072 40.9413) rotate(45.9091) scale(2.12795 2.39498)">
<stop stop-color="#FFED32"/>
<stop offset="0.2011" stop-color="#E7E000"/>
<stop offset="0.5792" stop-color="#FFED2E"/>
<stop offset="0.8228" stop-color="#FDC700"/>
<stop offset="0.9274" stop-color="#FBC700"/>
</radialGradient>
<radialGradient id="paint10_radial_597_544" cx="0" cy="0" r="1" gradientUnits="userSpaceOnUse" gradientTransform="translate(23.3573 43.8935) rotate(45.8159) scale(0.369217 0.369279)">
<stop stop-color="#FFED32"/>
<stop offset="0.2011" stop-color="#E7E000"/>
<stop offset="0.5792" stop-color="#FFED2E"/>
<stop offset="0.8228" stop-color="#FDC700"/>
<stop offset="0.9274" stop-color="#FBC700"/>
</radialGradient>
<radialGradient id="paint11_radial_597_544" cx="0" cy="0" r="1" gradientUnits="userSpaceOnUse" gradientTransform="translate(24.0521 43.4809) rotate(45.8161) scale(0.184589 0.18462)">
<stop stop-color="#FFED32"/>
<stop offset="0.2011" stop-color="#E7E000"/>
<stop offset="0.5792" stop-color="#FFED2E"/>
<stop offset="0.8228" stop-color="#FDC700"/>
<stop offset="0.9274" stop-color="#FBC700"/>
</radialGradient>
<radialGradient id="paint12_radial_597_544" cx="0" cy="0" r="1" gradientUnits="userSpaceOnUse" gradientTransform="translate(26.0759 43.2971) rotate(59.7676) scale(2.12537 1.97555)">
<stop stop-color="#FFED32"/>
<stop offset="0.2011" stop-color="#E7E000"/>
<stop offset="0.5792" stop-color="#FFED2E"/>
<stop offset="0.8228" stop-color="#FDC700"/>
<stop offset="0.9274" stop-color="#FBC700"/>
</radialGradient>
<radialGradient id="paint13_radial_597_544" cx="0" cy="0" r="1" gradientUnits="userSpaceOnUse" gradientTransform="translate(28.8346 41.6445) rotate(45.8161) scale(0.184589 0.18462)">
<stop stop-color="#FFED32"/>
<stop offset="0.2011" stop-color="#E7E000"/>
<stop offset="0.5792" stop-color="#FFED2E"/>
<stop offset="0.8228" stop-color="#FDC700"/>
<stop offset="0.9274" stop-color="#FBC700"/>
</radialGradient>
<radialGradient id="paint14_radial_597_544" cx="0" cy="0" r="1" gradientUnits="userSpaceOnUse" gradientTransform="translate(26.7217 45.0524) rotate(69.9802) scale(2.12391 1.69985)">
<stop stop-color="#FFED32"/>
<stop offset="0.2011" stop-color="#E7E000"/>
<stop offset="0.5792" stop-color="#FFED2E"/>
<stop offset="0.8228" stop-color="#FDC700"/>
<stop offset="0.9274" stop-color="#FBC700"/>
</radialGradient>
<radialGradient id="paint15_radial_597_544" cx="0" cy="0" r="1" gradientUnits="userSpaceOnUse" gradientTransform="translate(26.3774 46.6224) rotate(78.4064) scale(2.12313 1.01997)">
<stop stop-color="#FFED32"/>
<stop offset="0.2011" stop-color="#E7E000"/>
<stop offset="0.5792" stop-color="#FFED2E"/>
<stop offset="0.8228" stop-color="#FDC700"/>
<stop offset="0.9274" stop-color="#FBC700"/>
</radialGradient>
<radialGradient id="paint16_radial_597_544" cx="0" cy="0" r="1" gradientUnits="userSpaceOnUse" gradientTransform="translate(28.3244 46.1951) rotate(69.3939) scale(0.299837 0.27256)">
<stop stop-color="#FFED32"/>
<stop offset="0.2011" stop-color="#E7E000"/>
<stop offset="0.5792" stop-color="#FFED2E"/>
<stop offset="0.8228" stop-color="#FDC700"/>
<stop offset="0.9274" stop-color="#FBC700"/>
</radialGradient>
<radialGradient id="paint17_radial_597_544" cx="0" cy="0" r="1" gradientUnits="userSpaceOnUse" gradientTransform="translate(28.9205 46.1334) rotate(69.3938) scale(0.149918 0.136281)">
<stop stop-color="#FFED32"/>
<stop offset="0.2011" stop-color="#E7E000"/>
<stop offset="0.5792" stop-color="#FFED2E"/>
<stop offset="0.8228" stop-color="#FDC700"/>
<stop offset="0.9274" stop-color="#FBC700"/>
</radialGradient>
<radialGradient id="paint18_radial_597_544" cx="0" cy="0" r="1" gradientUnits="userSpaceOnUse" gradientTransform="translate(28.813 47.8131) rotate(82.3908) scale(2.12304 2.40072)">
<stop stop-color="#FFED32"/>
<stop offset="0.2011" stop-color="#E7E000"/>
<stop offset="0.5792" stop-color="#FFED2E"/>
<stop offset="0.8228" stop-color="#FDC700"/>
<stop offset="0.9274" stop-color="#FBC700"/>
</radialGradient>
<radialGradient id="paint19_radial_597_544" cx="0" cy="0" r="1" gradientUnits="userSpaceOnUse" gradientTransform="translate(25.8964 49.4505) rotate(82.2996) scale(0.36835 0.370135)">
<stop stop-color="#FFED32"/>
<stop offset="0.2011" stop-color="#E7E000"/>
<stop offset="0.5792" stop-color="#FFED2E"/>
<stop offset="0.8228" stop-color="#FDC700"/>
<stop offset="0.9274" stop-color="#FBC700"/>
</radialGradient>
<radialGradient id="paint20_radial_597_544" cx="0" cy="0" r="1" gradientUnits="userSpaceOnUse" gradientTransform="translate(26.7013 49.5283) rotate(82.2995) scale(0.184154 0.185047)">
<stop stop-color="#FFED32"/>
<stop offset="0.2011" stop-color="#E7E000"/>
<stop offset="0.5792" stop-color="#FFED2E"/>
<stop offset="0.8228" stop-color="#FDC700"/>
<stop offset="0.9274" stop-color="#FBC700"/>
</radialGradient>
<radialGradient id="paint21_radial_597_544" cx="0" cy="0" r="1" gradientUnits="userSpaceOnUse" gradientTransform="translate(28.4075 50.5278) rotate(96.3006) scale(2.12289 1.9778)">
<stop stop-color="#FFED32"/>
<stop offset="0.2011" stop-color="#E7E000"/>
<stop offset="0.5792" stop-color="#FFED2E"/>
<stop offset="0.8228" stop-color="#FDC700"/>
<stop offset="0.9274" stop-color="#FBC700"/>
</radialGradient>
<radialGradient id="paint22_radial_597_544" cx="0" cy="0" r="1" gradientUnits="userSpaceOnUse" gradientTransform="translate(31.6466 50.8722) rotate(82.2996) scale(0.184157 0.185049)">
<stop stop-color="#FFED32"/>
<stop offset="0.2011" stop-color="#E7E000"/>
<stop offset="0.5792" stop-color="#FFED2E"/>
<stop offset="0.8228" stop-color="#FDC700"/>
<stop offset="0.9274" stop-color="#FBC700"/>
</radialGradient>
<radialGradient id="paint23_radial_597_544" cx="0" cy="0" r="1" gradientUnits="userSpaceOnUse" gradientTransform="translate(27.9609 52.3996) rotate(106.424) scale(2.12353 1.70016)">
<stop stop-color="#FFED32"/>
<stop offset="0.2011" stop-color="#E7E000"/>
<stop offset="0.5792" stop-color="#FFED2E"/>
<stop offset="0.8228" stop-color="#FDC700"/>
<stop offset="0.9274" stop-color="#FBC700"/>
</radialGradient>
<radialGradient id="paint24_radial_597_544" cx="0" cy="0" r="1" gradientUnits="userSpaceOnUse" gradientTransform="translate(26.2692 53.3248) rotate(114.839) scale(2.12443 1.01919)">
<stop stop-color="#FFED32"/>
<stop offset="0.2011" stop-color="#E7E000"/>
<stop offset="0.5792" stop-color="#FFED2E"/>
<stop offset="0.8228" stop-color="#FDC700"/>
<stop offset="0.9274" stop-color="#FBC700"/>
</radialGradient>
<radialGradient id="paint25_radial_597_544" cx="0" cy="0" r="1" gradientUnits="userSpaceOnUse" gradientTransform="translate(28.2759 54.2127) rotate(105.833) scale(0.299762 0.272664)">
<stop stop-color="#FFED32"/>
<stop offset="0.2011" stop-color="#E7E000"/>
<stop offset="0.5792" stop-color="#FFED2E"/>
<stop offset="0.8228" stop-color="#FDC700"/>
<stop offset="0.9274" stop-color="#FBC700"/>
</radialGradient>
<radialGradient id="paint26_radial_597_544" cx="0" cy="0" r="1" gradientUnits="userSpaceOnUse" gradientTransform="translate(28.7933 54.5138) rotate(105.833) scale(0.149881 0.136332)">
<stop stop-color="#FFED32"/>
<stop offset="0.2011" stop-color="#E7E000"/>
<stop offset="0.5792" stop-color="#FFED2E"/>
<stop offset="0.8228" stop-color="#FDC700"/>
<stop offset="0.9274" stop-color="#FBC700"/>
</radialGradient>
<radialGradient id="paint27_radial_597_544" cx="0" cy="0" r="1" gradientUnits="userSpaceOnUse" gradientTransform="translate(27.1683 56.4275) rotate(128.528) scale(2.12695 2.39621)">
<stop stop-color="#FFED32"/>
<stop offset="0.2011" stop-color="#E7E000"/>
<stop offset="0.5792" stop-color="#FFED2E"/>
<stop offset="0.8228" stop-color="#FDC700"/>
<stop offset="0.9274" stop-color="#FBC700"/>
</radialGradient>
<radialGradient id="paint28_radial_597_544" cx="0" cy="0" r="1" gradientUnits="userSpaceOnUse" gradientTransform="translate(24.0222 55.4964) rotate(128.437) scale(0.369045 0.36946)">
<stop stop-color="#FFED32"/>
<stop offset="0.2011" stop-color="#E7E000"/>
<stop offset="0.5792" stop-color="#FFED2E"/>
<stop offset="0.8228" stop-color="#FDC700"/>
<stop offset="0.9274" stop-color="#FBC700"/>
</radialGradient>
<radialGradient id="paint29_radial_597_544" cx="0" cy="0" r="1" gradientUnits="userSpaceOnUse" gradientTransform="translate(24.5254 56.1263) rotate(128.437) scale(0.184504 0.184712)">
<stop stop-color="#FFED32"/>
<stop offset="0.2011" stop-color="#E7E000"/>
<stop offset="0.5792" stop-color="#FFED2E"/>
<stop offset="0.8228" stop-color="#FDC700"/>
<stop offset="0.9274" stop-color="#FBC700"/>
</radialGradient>
<radialGradient id="paint30_radial_597_544" cx="0" cy="0" r="1" gradientUnits="userSpaceOnUse" gradientTransform="translate(24.9863 58.0636) rotate(142.367) scale(2.12935 1.97183)">
<stop stop-color="#FFED32"/>
<stop offset="0.2011" stop-color="#E7E000"/>
<stop offset="0.5792" stop-color="#FFED2E"/>
<stop offset="0.8228" stop-color="#FDC700"/>
<stop offset="0.9274" stop-color="#FBC700"/>
</radialGradient>
<radialGradient id="paint31_radial_597_544" cx="0" cy="0" r="1" gradientUnits="userSpaceOnUse" gradientTransform="translate(26.9926 60.5975) rotate(128.437) scale(0.184502 0.18471)">
<stop stop-color="#FFED32"/>
<stop offset="0.2011" stop-color="#E7E000"/>
<stop offset="0.5792" stop-color="#FFED2E"/>
<stop offset="0.8228" stop-color="#FDC700"/>
<stop offset="0.9274" stop-color="#FBC700"/>
</radialGradient>
<radialGradient id="paint32_radial_597_544" cx="0" cy="0" r="1" gradientUnits="userSpaceOnUse" gradientTransform="translate(23.3155 58.9602) rotate(150.714) scale(2.13085 1.69418)">
<stop stop-color="#FFED32"/>
<stop offset="0.2011" stop-color="#E7E000"/>
<stop offset="0.5792" stop-color="#FFED2E"/>
<stop offset="0.8228" stop-color="#FDC700"/>
<stop offset="0.9274" stop-color="#FBC700"/>
</radialGradient>
<radialGradient id="paint33_radial_597_544" cx="0" cy="0" r="1" gradientUnits="userSpaceOnUse" gradientTransform="translate(21.5422 59.0258) rotate(158.42) scale(2.13196 1.0157)">
<stop stop-color="#FFED32"/>
<stop offset="0.2011" stop-color="#E7E000"/>
<stop offset="0.5792" stop-color="#FFED2E"/>
<stop offset="0.8228" stop-color="#FDC700"/>
<stop offset="0.9274" stop-color="#FBC700"/>
</radialGradient>
<radialGradient id="paint34_radial_597_544" cx="0" cy="0" r="1" gradientUnits="userSpaceOnUse" gradientTransform="translate(22.206 60.9161) rotate(149.47) scale(0.300757 0.271727)">
<stop stop-color="#FFED32"/>
<stop offset="0.2011" stop-color="#E7E000"/>
<stop offset="0.5792" stop-color="#FFED2E"/>
<stop offset="0.8228" stop-color="#FDC700"/>
<stop offset="0.9274" stop-color="#FBC700"/>
</radialGradient>
<radialGradient id="paint35_radial_597_544" cx="0" cy="0" r="1" gradientUnits="userSpaceOnUse" gradientTransform="translate(22.3722 61.489) rotate(149.47) scale(0.150379 0.135864)">
<stop stop-color="#FFED32"/>
<stop offset="0.2011" stop-color="#E7E000"/>
<stop offset="0.5792" stop-color="#FFED2E"/>
<stop offset="0.8228" stop-color="#FDC700"/>
<stop offset="0.9274" stop-color="#FBC700"/>
</radialGradient>
<radialGradient id="paint36_radial_597_544" cx="0" cy="0" r="1" gradientUnits="userSpaceOnUse" gradientTransform="translate(20.2767 61.4995) rotate(162.352) scale(2.13259 2.38986)">
<stop stop-color="#FFED32"/>
<stop offset="0.2011" stop-color="#E7E000"/>
<stop offset="0.5792" stop-color="#FFED2E"/>
<stop offset="0.8228" stop-color="#FDC700"/>
<stop offset="0.9274" stop-color="#FBC700"/>
</radialGradient>
<radialGradient id="paint37_radial_597_544" cx="0" cy="0" r="1" gradientUnits="userSpaceOnUse" gradientTransform="translate(18.2717 58.9942) rotate(162.26) scale(0.370021 0.368518)">
<stop stop-color="#FFED32"/>
<stop offset="0.2011" stop-color="#E7E000"/>
<stop offset="0.5792" stop-color="#FFED2E"/>
<stop offset="0.8228" stop-color="#FDC700"/>
<stop offset="0.9274" stop-color="#FBC700"/>
</radialGradient>
<radialGradient id="paint38_radial_597_544" cx="0" cy="0" r="1" gradientUnits="userSpaceOnUse" gradientTransform="translate(18.3367 59.796) rotate(162.26) scale(0.184991 0.184239)">
<stop stop-color="#FFED32"/>
<stop offset="0.2011" stop-color="#E7E000"/>
<stop offset="0.5792" stop-color="#FFED2E"/>
<stop offset="0.8228" stop-color="#FDC700"/>
<stop offset="0.9274" stop-color="#FBC700"/>
</radialGradient>
<radialGradient id="paint39_radial_597_544" cx="0" cy="0" r="1" gradientUnits="userSpaceOnUse" gradientTransform="translate(17.5506 61.6209) rotate(176.126) scale(2.1334 1.96821)">
<stop stop-color="#FFED32"/>
<stop offset="0.2011" stop-color="#E7E000"/>
<stop offset="0.5792" stop-color="#FFED2E"/>
<stop offset="0.8228" stop-color="#FDC700"/>
<stop offset="0.9274" stop-color="#FBC700"/>
</radialGradient>
<radialGradient id="paint40_radial_597_544" cx="0" cy="0" r="1" gradientUnits="userSpaceOnUse" gradientTransform="translate(17.8803 64.8769) rotate(162.26) scale(0.184991 0.184239)">
<stop stop-color="#FFED32"/>
<stop offset="0.2011" stop-color="#E7E000"/>
<stop offset="0.5792" stop-color="#FFED2E"/>
<stop offset="0.8228" stop-color="#FDC700"/>
<stop offset="0.9274" stop-color="#FBC700"/>
</radialGradient>
<radialGradient id="paint41_radial_597_544" cx="0" cy="0" r="1" gradientUnits="userSpaceOnUse" gradientTransform="translate(15.6309 61.438) rotate(-173.849) scale(2.13326 1.69232)">
<stop stop-color="#FFED32"/>
<stop offset="0.2011" stop-color="#E7E000"/>
<stop offset="0.5792" stop-color="#FFED2E"/>
<stop offset="0.8228" stop-color="#FDC700"/>
<stop offset="0.9274" stop-color="#FBC700"/>
</radialGradient>
<radialGradient id="paint42_radial_597_544" cx="0" cy="0" r="1" gradientUnits="userSpaceOnUse" gradientTransform="translate(14.3899 60.0319) rotate(-165.504) scale(2.13274 1.0154)">
<stop stop-color="#FFED32"/>
<stop offset="0.2011" stop-color="#E7E000"/>
<stop offset="0.5792" stop-color="#FFED2E"/>
<stop offset="0.8228" stop-color="#FDC700"/>
<stop offset="0.9274" stop-color="#FBC700"/>
</radialGradient>
<radialGradient id="paint43_radial_597_544" cx="0" cy="0" r="1" gradientUnits="userSpaceOnUse" gradientTransform="translate(13.9533 61.9484) rotate(-174.438) scale(0.301166 0.271381)">
<stop stop-color="#FFED32"/>
<stop offset="0.2011" stop-color="#E7E000"/>
<stop offset="0.5792" stop-color="#FFED2E"/>
<stop offset="0.8228" stop-color="#FDC700"/>
<stop offset="0.9274" stop-color="#FBC700"/>
</radialGradient>
<radialGradient id="paint44_radial_597_544" cx="0" cy="0" r="1" gradientUnits="userSpaceOnUse" gradientTransform="translate(13.7468 62.5084) rotate(-174.438) scale(0.150583 0.13569)">
<stop stop-color="#FFED32"/>
<stop offset="0.2011" stop-color="#E7E000"/>
<stop offset="0.5792" stop-color="#FFED2E"/>
<stop offset="0.8228" stop-color="#FDC700"/>
<stop offset="0.9274" stop-color="#FBC700"/>
</radialGradient>
<radialGradient id="paint45_radial_597_544" cx="0" cy="0" r="1" gradientUnits="userSpaceOnUse" gradientTransform="translate(11.4215 61.3475) rotate(-151.895) scale(2.13107 2.39147)">
<stop stop-color="#FFED32"/>
<stop offset="0.2011" stop-color="#E7E000"/>
<stop offset="0.5792" stop-color="#FFED2E"/>
<stop offset="0.8228" stop-color="#FDC700"/>
<stop offset="0.9274" stop-color="#FBC700"/>
</radialGradient>
<radialGradient id="paint46_radial_597_544" cx="0" cy="0" r="1" gradientUnits="userSpaceOnUse" gradientTransform="translate(11.8029 58.1139) rotate(-151.988) scale(0.369757 0.368726)">
<stop stop-color="#FFED32"/>
<stop offset="0.2011" stop-color="#E7E000"/>
<stop offset="0.5792" stop-color="#FFED2E"/>
<stop offset="0.8228" stop-color="#FDC700"/>
<stop offset="0.9274" stop-color="#FBC700"/>
</radialGradient>
<radialGradient id="paint47_radial_597_544" cx="0" cy="0" r="1" gradientUnits="userSpaceOnUse" gradientTransform="translate(11.2684 58.7174) rotate(-151.988) scale(0.184859 0.184343)">
<stop stop-color="#FFED32"/>
<stop offset="0.2011" stop-color="#E7E000"/>
<stop offset="0.5792" stop-color="#FFED2E"/>
<stop offset="0.8228" stop-color="#FDC700"/>
<stop offset="0.9274" stop-color="#FBC700"/>
</radialGradient>
<radialGradient id="paint48_radial_597_544" cx="0" cy="0" r="1" gradientUnits="userSpaceOnUse" gradientTransform="translate(9.45814 59.5846) rotate(-138.076) scale(2.12867 1.97255)">
<stop stop-color="#FFED32"/>
<stop offset="0.2011" stop-color="#E7E000"/>
<stop offset="0.5792" stop-color="#FFED2E"/>
<stop offset="0.8228" stop-color="#FDC700"/>
<stop offset="0.9274" stop-color="#FBC700"/>
</radialGradient>
<radialGradient id="paint49_radial_597_544" cx="0" cy="0" r="1" gradientUnits="userSpaceOnUse" gradientTransform="translate(7.28058 61.923) rotate(-151.988) scale(0.184859 0.184343)">
<stop stop-color="#FFED32"/>
<stop offset="0.2011" stop-color="#E7E000"/>
<stop offset="0.5792" stop-color="#FFED2E"/>
<stop offset="0.8228" stop-color="#FDC700"/>
<stop offset="0.9274" stop-color="#FBC700"/>
</radialGradient>
<radialGradient id="paint50_radial_597_544" cx="0" cy="0" r="1" gradientUnits="userSpaceOnUse" gradientTransform="translate(7.78706 58.382) rotate(-128.001) scale(2.12665 1.69746)">
<stop stop-color="#FFED32"/>
<stop offset="0.2011" stop-color="#E7E000"/>
<stop offset="0.5792" stop-color="#FFED2E"/>
<stop offset="0.8228" stop-color="#FDC700"/>
<stop offset="0.9274" stop-color="#FBC700"/>
</radialGradient>
<radialGradient id="paint51_radial_597_544" cx="0" cy="0" r="1" gradientUnits="userSpaceOnUse" gradientTransform="translate(7.43514 56.5371) rotate(-119.594) scale(2.12518 1.01899)">
<stop stop-color="#FFED32"/>
<stop offset="0.2011" stop-color="#E7E000"/>
<stop offset="0.5792" stop-color="#FFED2E"/>
<stop offset="0.8228" stop-color="#FDC700"/>
<stop offset="0.9274" stop-color="#FBC700"/>
</radialGradient>
<radialGradient id="paint52_radial_597_544" cx="0" cy="0" r="1" gradientUnits="userSpaceOnUse" gradientTransform="translate(5.75743 57.5066) rotate(-128.591) scale(0.300232 0.272208)">
<stop stop-color="#FFED32"/>
<stop offset="0.2011" stop-color="#E7E000"/>
<stop offset="0.5792" stop-color="#FFED2E"/>
<stop offset="0.8228" stop-color="#FDC700"/>
<stop offset="0.9274" stop-color="#FBC700"/>
</radialGradient>
<radialGradient id="paint53_radial_597_544" cx="0" cy="0" r="1" gradientUnits="userSpaceOnUse" gradientTransform="translate(5.20945 57.748) rotate(-128.591) scale(0.150116 0.136104)">
<stop stop-color="#FFED32"/>
<stop offset="0.2011" stop-color="#E7E000"/>
<stop offset="0.5792" stop-color="#FFED2E"/>
<stop offset="0.8228" stop-color="#FDC700"/>
<stop offset="0.9274" stop-color="#FBC700"/>
</radialGradient>
<radialGradient id="paint54_radial_597_544" cx="0" cy="0" r="1" gradientUnits="userSpaceOnUse" gradientTransform="translate(4.77042 55.6504) rotate(-118.268) scale(2.12511 2.39814)">
<stop stop-color="#FFED32"/>
<stop offset="0.2011" stop-color="#E7E000"/>
<stop offset="0.5792" stop-color="#FFED2E"/>
<stop offset="0.8228" stop-color="#FDC700"/>
<stop offset="0.9274" stop-color="#FBC700"/>
</radialGradient>
<radialGradient id="paint55_radial_597_544" cx="0" cy="0" r="1" gradientUnits="userSpaceOnUse" gradientTransform="translate(6.82705 53.2252) rotate(-118.358) scale(0.368722 0.369766)">
<stop stop-color="#FFED32"/>
<stop offset="0.2011" stop-color="#E7E000"/>
<stop offset="0.5792" stop-color="#FFED2E"/>
<stop offset="0.8228" stop-color="#FDC700"/>
<stop offset="0.9274" stop-color="#FBC700"/>
</radialGradient>
<radialGradient id="paint56_radial_597_544" cx="0" cy="0" r="1" gradientUnits="userSpaceOnUse" gradientTransform="translate(6.04566 53.4334) rotate(-118.358) scale(0.184341 0.184863)">
<stop stop-color="#FFED32"/>
<stop offset="0.2011" stop-color="#E7E000"/>
<stop offset="0.5792" stop-color="#FFED2E"/>
<stop offset="0.8228" stop-color="#FDC700"/>
<stop offset="0.9274" stop-color="#FBC700"/>
</radialGradient>
<radialGradient id="paint57_radial_597_544" cx="0" cy="0" r="1" gradientUnits="userSpaceOnUse" gradientTransform="translate(4.15508 53.1281) rotate(-104.376) scale(2.1234 1.97749)">
<stop stop-color="#FFED32"/>
<stop offset="0.2011" stop-color="#E7E000"/>
<stop offset="0.5792" stop-color="#FFED2E"/>
<stop offset="0.8228" stop-color="#FDC700"/>
<stop offset="0.9274" stop-color="#FBC700"/>
</radialGradient>
<radialGradient id="paint58_radial_597_544" cx="0" cy="0" r="1" gradientUnits="userSpaceOnUse" gradientTransform="translate(0.941228 53.905) rotate(-118.358) scale(0.184341 0.184863)">
<stop stop-color="#FFED32"/>
<stop offset="0.2011" stop-color="#E7E000"/>
<stop offset="0.5792" stop-color="#FFED2E"/>
<stop offset="0.8228" stop-color="#FDC700"/>
<stop offset="0.9274" stop-color="#FBC700"/>
</radialGradient>
<radialGradient id="paint59_radial_597_544" cx="0" cy="0" r="1" gradientUnits="userSpaceOnUse" gradientTransform="translate(4.05377 51.1946) rotate(-94.2562) scale(2.12266 1.70081)">
<stop stop-color="#FFED32"/>
<stop offset="0.2011" stop-color="#E7E000"/>
<stop offset="0.5792" stop-color="#FFED2E"/>
<stop offset="0.8228" stop-color="#FDC700"/>
<stop offset="0.9274" stop-color="#FBC700"/>
</radialGradient>
<radialGradient id="paint60_radial_597_544" cx="0" cy="0" r="1" gradientUnits="userSpaceOnUse" gradientTransform="translate(5.05058 49.6405) rotate(-85.8218) scale(2.12265 1.02018)">
<stop stop-color="#FFED32"/>
<stop offset="0.2011" stop-color="#E7E000"/>
<stop offset="0.5792" stop-color="#FFED2E"/>
<stop offset="0.8228" stop-color="#FDC700"/>
<stop offset="0.9274" stop-color="#FBC700"/>
</radialGradient>
<radialGradient id="paint61_radial_597_544" cx="0" cy="0" r="1" gradientUnits="userSpaceOnUse" gradientTransform="translate(3.03261 49.5913) rotate(-94.8435) scale(0.299656 0.272727)">
<stop stop-color="#FFED32"/>
<stop offset="0.2011" stop-color="#E7E000"/>
<stop offset="0.5792" stop-color="#FFED2E"/>
<stop offset="0.8228" stop-color="#FDC700"/>
<stop offset="0.9274" stop-color="#FBC700"/>
</radialGradient>
<radialGradient id="paint62_radial_597_544" cx="0" cy="0" r="1" gradientUnits="userSpaceOnUse" gradientTransform="translate(2.44183 49.4905) rotate(-94.8435) scale(0.149828 0.136363)">
<stop stop-color="#FFED32"/>
<stop offset="0.2011" stop-color="#E7E000"/>
<stop offset="0.5792" stop-color="#FFED2E"/>
<stop offset="0.8228" stop-color="#FDC700"/>
<stop offset="0.9274" stop-color="#FBC700"/>
</radialGradient>
<radialGradient id="paint63_radial_597_544" cx="0" cy="0" r="1" gradientUnits="userSpaceOnUse" gradientTransform="translate(3.3137 47.0484) rotate(-72.1047) scale(2.12367 2.39977)">
<stop stop-color="#FFED32"/>
<stop offset="0.2011" stop-color="#E7E000"/>
<stop offset="0.5792" stop-color="#FFED2E"/>
<stop offset="0.8228" stop-color="#FDC700"/>
<stop offset="0.9274" stop-color="#FBC700"/>
</radialGradient>
<radialGradient id="paint64_radial_597_544" cx="0" cy="0" r="1" gradientUnits="userSpaceOnUse" gradientTransform="translate(6.47609 46.8752) rotate(-72.1929) scale(0.368488 0.370009)">
<stop stop-color="#FFED32"/>
<stop offset="0.2011" stop-color="#E7E000"/>
<stop offset="0.5792" stop-color="#FFED2E"/>
<stop offset="0.8228" stop-color="#FDC700"/>
<stop offset="0.9274" stop-color="#FBC700"/>
</radialGradient>
<radialGradient id="paint65_radial_597_544" cx="0" cy="0" r="1" gradientUnits="userSpaceOnUse" gradientTransform="translate(5.78227 46.4614) rotate(-72.1929) scale(0.184224 0.184985)">
<stop stop-color="#FFED32"/>
<stop offset="0.2011" stop-color="#E7E000"/>
<stop offset="0.5792" stop-color="#FFED2E"/>
<stop offset="0.8228" stop-color="#FDC700"/>
<stop offset="0.9274" stop-color="#FBC700"/>
</radialGradient>
<radialGradient id="paint66_radial_597_544" cx="0" cy="0" r="1" gradientUnits="userSpaceOnUse" gradientTransform="translate(4.66578 44.7889) rotate(-58.2155) scale(2.12562 1.97516)">
<stop stop-color="#FFED32"/>
<stop offset="0.2011" stop-color="#E7E000"/>
<stop offset="0.5792" stop-color="#FFED2E"/>
<stop offset="0.8228" stop-color="#FDC700"/>
<stop offset="0.9274" stop-color="#FBC700"/>
</radialGradient>
<radialGradient id="paint67_radial_597_544" cx="0" cy="0" r="1" gradientUnits="userSpaceOnUse" gradientTransform="translate(1.89326 43.1381) rotate(-72.1929) scale(0.184224 0.184985)">
<stop stop-color="#FFED32"/>
<stop offset="0.2011" stop-color="#E7E000"/>
<stop offset="0.5792" stop-color="#FFED2E"/>
<stop offset="0.8228" stop-color="#FDC700"/>
<stop offset="0.9274" stop-color="#FBC700"/>
</radialGradient>
<radialGradient id="paint68_radial_597_544" cx="0" cy="0" r="1" gradientUnits="userSpaceOnUse" gradientTransform="translate(5.95326 43.419) rotate(-47.0297) scale(2.12762 1.69681)">
<stop stop-color="#FFED32"/>
<stop offset="0.2011" stop-color="#E7E000"/>
<stop offset="0.5792" stop-color="#FFED2E"/>
<stop offset="0.8228" stop-color="#FDC700"/>
<stop offset="0.9274" stop-color="#FBC700"/>
</radialGradient>
<radialGradient id="paint69_radial_597_544" cx="0" cy="0" r="1" gradientUnits="userSpaceOnUse" gradientTransform="translate(7.80984 43.0208) rotate(-43.2272) scale(2.12826 1.01738)">
<stop stop-color="#FFED32"/>
<stop offset="0.2011" stop-color="#E7E000"/>
<stop offset="0.5792" stop-color="#FFED2E"/>
<stop offset="0.8228" stop-color="#FDC700"/>
<stop offset="0.9274" stop-color="#FBC700"/>
</radialGradient>
<radialGradient id="paint70_radial_597_544" cx="0" cy="0" r="1" gradientUnits="userSpaceOnUse" gradientTransform="translate(6.43843 41.6596) rotate(-52.2071) scale(0.300224 0.272241)">
<stop stop-color="#FFED32"/>
<stop offset="0.2011" stop-color="#E7E000"/>
<stop offset="0.5792" stop-color="#FFED2E"/>
<stop offset="0.8228" stop-color="#FDC700"/>
<stop offset="0.9274" stop-color="#FBC700"/>
</radialGradient>
<radialGradient id="paint71_radial_597_544" cx="0" cy="0" r="1" gradientUnits="userSpaceOnUse" gradientTransform="translate(6.07096 41.1881) rotate(-52.2071) scale(0.150112 0.136121)">
<stop stop-color="#FFED32"/>
<stop offset="0.2011" stop-color="#E7E000"/>
<stop offset="0.5792" stop-color="#FFED2E"/>
<stop offset="0.8228" stop-color="#FDC700"/>
<stop offset="0.9274" stop-color="#FBC700"/>
</radialGradient>
<radialGradient id="paint72_radial_597_544" cx="0" cy="0" r="1" gradientUnits="userSpaceOnUse" gradientTransform="translate(8.05504 40.5825) rotate(-37.4834) scale(2.12955 2.39319)">
<stop stop-color="#FFED32"/>
<stop offset="0.2011" stop-color="#E7E000"/>
<stop offset="0.5792" stop-color="#FFED2E"/>
<stop offset="0.8228" stop-color="#FDC700"/>
<stop offset="0.9274" stop-color="#FBC700"/>
</radialGradient>
<radialGradient id="paint73_radial_597_544" cx="0" cy="0" r="1" gradientUnits="userSpaceOnUse" gradientTransform="translate(10.9064 42.2424) rotate(-41.5312) scale(0.369365 0.369121)">
<stop stop-color="#FFED32"/>
<stop offset="0.2011" stop-color="#E7E000"/>
<stop offset="0.5792" stop-color="#FFED2E"/>
<stop offset="0.8228" stop-color="#FDC700"/>
<stop offset="0.9274" stop-color="#FBC700"/>
</radialGradient>
<radialGradient id="paint74_radial_597_544" cx="0" cy="0" r="1" gradientUnits="userSpaceOnUse" gradientTransform="translate(10.5213 41.5349) rotate(-41.5312) scale(0.184663 0.184541)">
<stop stop-color="#FFED32"/>
<stop offset="0.2011" stop-color="#E7E000"/>
<stop offset="0.5792" stop-color="#FFED2E"/>
<stop offset="0.8228" stop-color="#FDC700"/>
<stop offset="0.9274" stop-color="#FBC700"/>
</radialGradient>
<radialGradient id="paint75_radial_597_544" cx="0" cy="0" r="1" gradientUnits="userSpaceOnUse" gradientTransform="translate(11.174 39.6445) rotate(-27.6247) scale(2.13117 1.97022)">
<stop stop-color="#FFED32"/>
<stop offset="0.2011" stop-color="#E7E000"/>
<stop offset="0.5792" stop-color="#FFED2E"/>
<stop offset="0.8228" stop-color="#FDC700"/>
<stop offset="0.9274" stop-color="#FBC700"/>
</radialGradient>
<radialGradient id="paint76_radial_597_544" cx="0" cy="0" r="1" gradientUnits="userSpaceOnUse" gradientTransform="translate(9.63313 36.7717) rotate(-41.5314) scale(0.184663 0.184542)">
<stop stop-color="#FFED32"/>
<stop offset="0.2011" stop-color="#E7E000"/>
<stop offset="0.5792" stop-color="#FFED2E"/>
<stop offset="0.8228" stop-color="#FDC700"/>
<stop offset="0.9274" stop-color="#FBC700"/>
</radialGradient>
<radialGradient id="paint77_radial_597_544" cx="0" cy="0" r="1" gradientUnits="userSpaceOnUse" gradientTransform="translate(12.9854 39.194) rotate(-17.8909) scale(2.13246 1.69298)">
<stop stop-color="#FFED32"/>
<stop offset="0.2011" stop-color="#E7E000"/>
<stop offset="0.5792" stop-color="#FFED2E"/>
<stop offset="0.8228" stop-color="#FDC700"/>
<stop offset="0.9274" stop-color="#FBC700"/>
</radialGradient>
<radialGradient id="paint78_radial_597_544" cx="0" cy="0" r="1" gradientUnits="userSpaceOnUse" gradientTransform="translate(14.5092 40.1253) rotate(-8.17228) scale(2.1331 1.01509)">
<stop stop-color="#FFED32"/>
<stop offset="0.2011" stop-color="#E7E000"/>
<stop offset="0.5792" stop-color="#FFED2E"/>
<stop offset="0.8228" stop-color="#FDC700"/>
<stop offset="0.9274" stop-color="#FBC700"/>
</radialGradient>
<radialGradient id="paint79_radial_597_544" cx="0" cy="0" r="1" gradientUnits="userSpaceOnUse" gradientTransform="translate(14.205 38.1759) rotate(-17.1097) scale(0.301016 0.271508)">
<stop stop-color="#FFED32"/>
<stop offset="0.2011" stop-color="#E7E000"/>
<stop offset="0.5792" stop-color="#FFED2E"/>
<stop offset="0.8228" stop-color="#FDC700"/>
<stop offset="0.9274" stop-color="#FBC700"/>
</radialGradient>
<radialGradient id="paint80_radial_597_544" cx="0" cy="0" r="1" gradientUnits="userSpaceOnUse" gradientTransform="translate(14.1775 37.5801) rotate(-17.1096) scale(0.150508 0.135753)">
<stop stop-color="#FFED32"/>
<stop offset="0.2011" stop-color="#E7E000"/>
<stop offset="0.5792" stop-color="#FFED2E"/>
<stop offset="0.8228" stop-color="#FDC700"/>
<stop offset="0.9274" stop-color="#FBC700"/>
</radialGradient>
<clipPath id="clip0_597_544">
<rect width="322" height="65" fill="white"/>
</clipPath>
</defs>
</svg>
