<svg width="33" height="31" viewBox="0 0 33 31" fill="none" xmlns="http://www.w3.org/2000/svg">
<g opacity="0.75">
<path d="M16.7412 0.812012L16.8332 7.56283" stroke="url(#paint0_radial_685_5908)" stroke-width="0.25" stroke-miterlimit="10"/>
<path d="M17.9801 7.57411C18.189 7.57411 18.3584 7.40843 18.3584 7.20405C18.3584 6.99967 18.189 6.83398 17.9801 6.83398C17.7712 6.83398 17.6018 6.99967 17.6018 7.20405C17.6018 7.40843 17.7712 7.57411 17.9801 7.57411Z" fill="url(#paint1_radial_685_5908)"/>
<path d="M18.1712 6.60607C18.2768 6.60607 18.3624 6.52406 18.3624 6.42291C18.3624 6.32175 18.2768 6.23975 18.1712 6.23975C18.0656 6.23975 17.98 6.32175 17.98 6.42291C17.98 6.52406 18.0656 6.60607 18.1712 6.60607Z" fill="url(#paint2_radial_685_5908)"/>
<path d="M20.1128 2.15039L18.7991 7.56674" stroke="url(#paint3_radial_685_5908)" stroke-width="0.25" stroke-miterlimit="10"/>
<path d="M20.2166 1.90734C20.3222 1.90734 20.4079 1.82533 20.4079 1.72418C20.4079 1.62302 20.3222 1.54102 20.2166 1.54102C20.111 1.54102 20.0254 1.62302 20.0254 1.72418C20.0254 1.82533 20.111 1.90734 20.2166 1.90734Z" fill="url(#paint4_radial_685_5908)"/>
<path d="M22.2247 3.44336L20.2666 7.83177" stroke="url(#paint5_radial_685_5908)" stroke-width="0.25" stroke-miterlimit="10"/>
<path d="M22.8898 6.08643L21.3225 8.51986" stroke="url(#paint6_radial_685_5908)" stroke-width="0.25" stroke-miterlimit="10"/>
<path d="M23.4591 5.70525C23.3968 5.84356 23.2222 5.89963 23.0642 5.83608C22.9062 5.7688 22.8314 5.60433 22.8938 5.46976C22.9561 5.33519 23.1307 5.27538 23.2887 5.33893C23.4425 5.40248 23.5215 5.56695 23.4591 5.70525Z" fill="url(#paint7_radial_685_5908)"/>
<path d="M23.6961 5.17801C23.667 5.24529 23.5755 5.2752 23.5007 5.24155C23.4217 5.20791 23.3843 5.12567 23.4134 5.05839C23.4425 4.99111 23.534 4.9612 23.6088 4.99484C23.6878 5.02475 23.7252 5.10698 23.6961 5.17801Z" fill="url(#paint8_radial_685_5908)"/>
<path d="M27.8077 4.57617L22.8689 9.3309" stroke="url(#paint9_radial_685_5908)" stroke-width="0.25" stroke-miterlimit="10"/>
<path d="M23.9332 10.2543C24.1422 10.2543 24.3115 10.0886 24.3115 9.88422C24.3115 9.67984 24.1422 9.51416 23.9332 9.51416C23.7243 9.51416 23.5549 9.67984 23.5549 9.88422C23.5549 10.0886 23.7243 10.2543 23.9332 10.2543Z" fill="url(#paint10_radial_685_5908)"/>
<path d="M24.6483 9.65588C24.7539 9.65588 24.8395 9.57387 24.8395 9.47271C24.8395 9.37156 24.7539 9.28955 24.6483 9.28955C24.5426 9.28955 24.457 9.37156 24.457 9.47271C24.457 9.57387 24.5426 9.65588 24.6483 9.65588Z" fill="url(#paint11_radial_685_5908)"/>
<path d="M29.1587 7.86182L24.2366 10.7064" stroke="url(#paint12_radial_685_5908)" stroke-width="0.25" stroke-miterlimit="10"/>
<path d="M29.5496 7.81701C29.6552 7.81701 29.7409 7.735 29.7409 7.63384C29.7409 7.53269 29.6552 7.45068 29.5496 7.45068C29.444 7.45068 29.3584 7.53269 29.3584 7.63384C29.3584 7.735 29.444 7.81701 29.5496 7.81701Z" fill="url(#paint13_radial_685_5908)"/>
<path d="M29.6702 10.2354L25.0557 11.91" stroke="url(#paint14_radial_685_5908)" stroke-width="0.25" stroke-miterlimit="10"/>
<path d="M28.4979 12.3252L25.6086 12.9158" stroke="url(#paint15_radial_685_5908)" stroke-width="0.25" stroke-miterlimit="10"/>
<path d="M29.1796 12.4596C29.0341 12.5119 28.8678 12.4297 28.8096 12.2727C28.7514 12.1157 28.8179 11.9512 28.9634 11.8951C29.1089 11.8391 29.2752 11.925 29.3334 12.082C29.3916 12.239 29.3251 12.4072 29.1796 12.4596Z" fill="url(#paint16_radial_685_5908)"/>
<path d="M29.7367 12.2579C29.666 12.2841 29.5828 12.243 29.5537 12.1645C29.5246 12.086 29.5579 12.0038 29.6286 11.9776C29.6992 11.9514 29.7824 11.9925 29.8115 12.071C29.8406 12.1458 29.8073 12.2318 29.7367 12.2579Z" fill="url(#paint17_radial_685_5908)"/>
<path d="M32.9337 13.3604L26.0535 14.3472" stroke="url(#paint18_radial_685_5908)" stroke-width="0.25" stroke-miterlimit="10"/>
<path d="M26.5731 15.7753C26.7821 15.7753 26.9514 15.6096 26.9514 15.4052C26.9514 15.2008 26.7821 15.0352 26.5731 15.0352C26.3642 15.0352 26.1948 15.2008 26.1948 15.4052C26.1948 15.6096 26.3642 15.7753 26.5731 15.7753Z" fill="url(#paint19_radial_685_5908)"/>
<path d="M27.3961 15.6666C27.5017 15.6666 27.5873 15.5846 27.5873 15.4835C27.5873 15.3823 27.5017 15.3003 27.3961 15.3003C27.2905 15.3003 27.2048 15.3823 27.2048 15.4835C27.2048 15.5846 27.2905 15.6666 27.3961 15.6666Z" fill="url(#paint20_radial_685_5908)"/>
<path d="M32.0147 16.7847L26.311 16.2427" stroke="url(#paint21_radial_685_5908)" stroke-width="0.25" stroke-miterlimit="10"/>
<path d="M32.4637 17.0089C32.5693 17.0089 32.6549 16.9269 32.6549 16.8257C32.6549 16.7246 32.5693 16.6426 32.4637 16.6426C32.3581 16.6426 32.2725 16.7246 32.2725 16.8257C32.2725 16.9269 32.3581 17.0089 32.4637 17.0089Z" fill="url(#paint22_radial_685_5908)"/>
<path d="M30.9756 18.986L26.2363 17.689" stroke="url(#paint23_radial_685_5908)" stroke-width="0.25" stroke-miterlimit="10"/>
<path d="M28.3648 19.9804L25.675 18.7954" stroke="url(#paint24_radial_685_5908)" stroke-width="0.25" stroke-miterlimit="10"/>
<path d="M28.8305 20.4774C28.6808 20.4363 28.5977 20.2756 28.6434 20.1148C28.6891 19.9541 28.8471 19.8606 28.9968 19.9018C29.1464 19.9429 29.2296 20.1036 29.1838 20.2644C29.1381 20.4251 28.9801 20.5185 28.8305 20.4774Z" fill="url(#paint25_radial_685_5908)"/>
<path d="M29.4041 20.6346C29.3293 20.6159 29.2877 20.5337 29.3127 20.4552C29.3376 20.3767 29.4166 20.3281 29.4873 20.3468C29.5579 20.3655 29.6037 20.4477 29.5787 20.5262C29.5579 20.6084 29.479 20.6533 29.4041 20.6346Z" fill="url(#paint26_radial_685_5908)"/>
<path d="M30.564 24.511L25.0515 20.3955" stroke="url(#paint27_radial_685_5908)" stroke-width="0.25" stroke-miterlimit="10"/>
<path d="M24.6315 21.8607C24.8404 21.8607 25.0098 21.695 25.0098 21.4907C25.0098 21.2863 24.8404 21.1206 24.6315 21.1206C24.4225 21.1206 24.2532 21.2863 24.2532 21.4907C24.2532 21.695 24.4225 21.8607 24.6315 21.8607Z" fill="url(#paint28_radial_685_5908)"/>
<path d="M25.147 22.3053C25.2527 22.3053 25.3383 22.2233 25.3383 22.1221C25.3383 22.021 25.2527 21.939 25.147 21.939C25.0414 21.939 24.9558 22.021 24.9558 22.1221C24.9558 22.2233 25.0414 22.3053 25.147 22.3053Z" fill="url(#paint29_radial_685_5908)"/>
<path d="M27.3921 26.2491L23.8293 21.8906" stroke="url(#paint30_radial_685_5908)" stroke-width="0.25" stroke-miterlimit="10"/>
<path d="M27.6746 26.776C27.7802 26.776 27.8659 26.694 27.8659 26.5928C27.8659 26.4917 27.7802 26.4097 27.6746 26.4097C27.569 26.4097 27.4834 26.4917 27.4834 26.5928C27.4834 26.694 27.569 26.776 27.6746 26.776Z" fill="url(#paint31_radial_685_5908)"/>
<path d="M25.1056 27.0229L22.6404 22.8774" stroke="url(#paint32_radial_685_5908)" stroke-width="0.25" stroke-miterlimit="10"/>
<path d="M22.5821 26.4097L21.4763 23.752" stroke="url(#paint33_radial_685_5908)" stroke-width="0.25" stroke-miterlimit="10"/>
<path d="M22.5655 27.0827C22.4865 26.9556 22.5406 26.7799 22.6902 26.6977C22.8357 26.6117 23.0187 26.6491 23.0976 26.7799C23.1766 26.907 23.1226 27.0827 22.9729 27.1649C22.8233 27.2471 22.6445 27.2135 22.5655 27.0827Z" fill="url(#paint34_radial_685_5908)"/>
<path d="M22.869 27.5797C22.8316 27.5162 22.8565 27.4302 22.9314 27.3853C23.0062 27.3405 23.0976 27.3629 23.1351 27.4264C23.1725 27.49 23.1475 27.576 23.0727 27.6208C22.9979 27.6657 22.9106 27.647 22.869 27.5797Z" fill="url(#paint35_radial_685_5908)"/>
<path d="M21.842 30.6524L19.6304 24.2529" stroke="url(#paint36_radial_685_5908)" stroke-width="0.25" stroke-miterlimit="10"/>
<path d="M18.6493 25.3036C18.8582 25.3036 19.0276 25.1379 19.0276 24.9335C19.0276 24.7292 18.8582 24.5635 18.6493 24.5635C18.4404 24.5635 18.271 24.7292 18.271 24.9335C18.271 25.1379 18.4404 25.3036 18.6493 25.3036Z" fill="url(#paint37_radial_685_5908)"/>
<path d="M18.7159 25.92C18.8215 25.92 18.9071 25.838 18.9071 25.7369C18.9071 25.6357 18.8215 25.5537 18.7159 25.5537C18.6103 25.5537 18.5247 25.6357 18.5247 25.7369C18.5247 25.838 18.6103 25.92 18.7159 25.92Z" fill="url(#paint38_radial_685_5908)"/>
<path d="M18.2129 30.3797L17.7556 24.8325" stroke="url(#paint39_radial_685_5908)" stroke-width="0.25" stroke-miterlimit="10"/>
<path d="M18.2462 31.0001C18.3518 31.0001 18.4374 30.9181 18.4374 30.8169C18.4374 30.7158 18.3518 30.6338 18.2462 30.6338C18.1405 30.6338 18.0549 30.7158 18.0549 30.8169C18.0549 30.9181 18.1405 31.0001 18.2462 31.0001Z" fill="url(#paint40_radial_685_5908)"/>
<path d="M15.7935 29.7778L16.2757 25.0156" stroke="url(#paint41_radial_685_5908)" stroke-width="0.25" stroke-miterlimit="10"/>
<path d="M14.3301 27.4564L15.0534 24.6753" stroke="url(#paint42_radial_685_5908)" stroke-width="0.25" stroke-miterlimit="10"/>
<path d="M13.9058 27.9908C13.9224 27.8413 14.0721 27.7329 14.2384 27.7516C14.4088 27.7666 14.5335 27.9011 14.5169 28.0506C14.5003 28.2002 14.3506 28.3086 14.1843 28.2899C14.0139 28.2749 13.8892 28.1404 13.9058 27.9908Z" fill="url(#paint43_radial_685_5908)"/>
<path d="M13.8477 28.5666C13.856 28.4919 13.9308 28.4395 14.014 28.447C14.0971 28.4545 14.1595 28.5218 14.1553 28.5965C14.147 28.6713 14.0722 28.7236 13.989 28.7161C13.9017 28.7049 13.8394 28.6414 13.8477 28.5666Z" fill="url(#paint44_radial_685_5908)"/>
<path d="M10.1228 30.3571L13.3239 24.3613" stroke="url(#paint45_radial_685_5908)" stroke-width="0.25" stroke-miterlimit="10"/>
<path d="M12.1349 24.5223C12.3438 24.5223 12.5132 24.3567 12.5132 24.1523C12.5132 23.9479 12.3438 23.7822 12.1349 23.7822C11.926 23.7822 11.7566 23.9479 11.7566 24.1523C11.7566 24.3567 11.926 24.5223 12.1349 24.5223Z" fill="url(#paint46_radial_685_5908)"/>
<path d="M11.5904 24.9405C11.696 24.9405 11.7816 24.8585 11.7816 24.7574C11.7816 24.6562 11.696 24.5742 11.5904 24.5742C11.4848 24.5742 11.3992 24.6562 11.3992 24.7574C11.3992 24.8585 11.4848 24.9405 11.5904 24.9405Z" fill="url(#paint47_radial_685_5908)"/>
<path d="M7.79907 27.6321L11.5905 23.4604" stroke="url(#paint48_radial_685_5908)" stroke-width="0.25" stroke-miterlimit="10"/>
<path d="M7.49958 28.1481C7.6052 28.1481 7.69081 28.0661 7.69081 27.9649C7.69081 27.8637 7.6052 27.7817 7.49958 27.7817C7.39397 27.7817 7.30835 27.8637 7.30835 27.9649C7.30835 28.0661 7.39397 28.1481 7.49958 28.1481Z" fill="url(#paint49_radial_685_5908)"/>
<path d="M6.07373 25.909L9.93163 22.9336" stroke="url(#paint50_radial_685_5908)" stroke-width="0.25" stroke-miterlimit="10"/>
<path d="M6.37305 23.2362L8.93805 21.812" stroke="url(#paint51_radial_685_5908)" stroke-width="0.25" stroke-miterlimit="10"/>
<path d="M5.68302 23.3146C5.80358 23.2212 5.98649 23.2511 6.09458 23.3819C6.20267 23.5127 6.1902 23.6922 6.06964 23.7856C5.94908 23.8791 5.76616 23.8492 5.65807 23.7183C5.54998 23.5875 5.56246 23.4043 5.68302 23.3146Z" fill="url(#paint52_radial_685_5908)"/>
<path d="M5.21735 23.6734C5.2797 23.6285 5.37116 23.6398 5.42105 23.707C5.47509 23.7706 5.46678 23.8603 5.40858 23.9089C5.34622 23.9537 5.25476 23.9425 5.20487 23.8753C5.15083 23.808 5.15499 23.7183 5.21735 23.6734Z" fill="url(#paint53_radial_685_5908)"/>
<path d="M1.83765 23.3445L7.91966 20.0737" stroke="url(#paint54_radial_685_5908)" stroke-width="0.25" stroke-miterlimit="10"/>
<path d="M7.05067 19.6293C7.2596 19.6293 7.42898 19.4636 7.42898 19.2592C7.42898 19.0548 7.2596 18.8892 7.05067 18.8892C6.84174 18.8892 6.67236 19.0548 6.67236 19.2592C6.67236 19.4636 6.84174 19.6293 7.05067 19.6293Z" fill="url(#paint55_radial_685_5908)"/>
<path d="M6.25251 19.6515C6.35813 19.6515 6.44374 19.5695 6.44374 19.4683C6.44374 19.3672 6.35813 19.2852 6.25251 19.2852C6.1469 19.2852 6.06128 19.3672 6.06128 19.4683C6.06128 19.5695 6.1469 19.6515 6.25251 19.6515Z" fill="url(#paint56_radial_685_5908)"/>
<path d="M1.45923 19.8273L6.99249 18.3882" stroke="url(#paint57_radial_685_5908)" stroke-width="0.25" stroke-miterlimit="10"/>
<path d="M1.01862 20.1227C1.12424 20.1227 1.20986 20.0407 1.20986 19.9395C1.20986 19.8384 1.12424 19.7563 1.01862 19.7563C0.91301 19.7563 0.827393 19.8384 0.827393 19.9395C0.827393 20.0407 0.91301 20.1227 1.01862 20.1227Z" fill="url(#paint58_radial_685_5908)"/>
<path d="M1.62964 17.4088L6.53931 17.0088" stroke="url(#paint59_radial_685_5908)" stroke-width="0.25" stroke-miterlimit="10"/>
<path d="M3.71655 15.5884L6.66402 15.779" stroke="url(#paint60_radial_685_5908)" stroke-width="0.25" stroke-miterlimit="10"/>
<path d="M3.09731 15.282C3.25113 15.2707 3.38832 15.3941 3.40079 15.5586C3.41326 15.723 3.30101 15.8688 3.1472 15.88C2.99338 15.8913 2.85619 15.7679 2.84372 15.6034C2.83125 15.439 2.94349 15.2932 3.09731 15.282Z" fill="url(#paint61_radial_685_5908)"/>
<path d="M2.50691 15.3307C2.58589 15.3232 2.65241 15.3867 2.66072 15.469C2.66904 15.5512 2.61084 15.6222 2.53601 15.6297C2.45702 15.6372 2.3905 15.5736 2.38219 15.4914C2.37388 15.4092 2.42792 15.3382 2.50691 15.3307Z" fill="url(#paint62_radial_685_5908)"/>
<path d="M0.0166016 12.0972L6.66815 14.0708" stroke="url(#paint63_radial_685_5908)" stroke-width="0.25" stroke-miterlimit="10"/>
<path d="M6.6642 13.2709C6.87313 13.2709 7.0425 13.1052 7.0425 12.9008C7.0425 12.6964 6.87313 12.5308 6.6642 12.5308C6.45526 12.5308 6.28589 12.6964 6.28589 12.9008C6.28589 13.1052 6.45526 13.2709 6.6642 13.2709Z" fill="url(#paint64_radial_685_5908)"/>
<path d="M5.95319 12.6691C6.05881 12.6691 6.14443 12.5871 6.14443 12.4859C6.14443 12.3847 6.05881 12.3027 5.95319 12.3027C5.84758 12.3027 5.76196 12.3847 5.76196 12.4859C5.76196 12.5871 5.84758 12.6691 5.95319 12.6691Z" fill="url(#paint65_radial_685_5908)"/>
<path d="M2.35718 9.38721L7.27101 12.2505" stroke="url(#paint66_radial_685_5908)" stroke-width="0.25" stroke-miterlimit="10"/>
<path d="M1.97053 9.34581C2.07614 9.34581 2.16176 9.26381 2.16176 9.16265C2.16176 9.0615 2.07614 8.97949 1.97053 8.97949C1.86491 8.97949 1.7793 9.0615 1.7793 9.16265C1.7793 9.26381 1.86491 9.34581 1.97053 9.34581Z" fill="url(#paint67_radial_685_5908)"/>
<path d="M4.29858 7.79443L7.94446 11.0091" stroke="url(#paint68_radial_685_5908)" stroke-width="0.25" stroke-miterlimit="10"/>
<path d="M7.02173 8.0415L9.06292 10.1161" stroke="url(#paint69_radial_685_5908)" stroke-width="0.25" stroke-miterlimit="10"/>
<path d="M6.78069 7.40989C6.90125 7.4996 6.91788 7.68277 6.81395 7.8136C6.71002 7.94443 6.5271 7.97807 6.40239 7.88462C6.28183 7.79491 6.2652 7.61175 6.36913 7.48092C6.47306 7.35009 6.65598 7.32018 6.78069 7.40989Z" fill="url(#paint70_radial_685_5908)"/>
<path d="M6.30669 7.05835C6.36905 7.10321 6.37321 7.19292 6.32332 7.26021C6.26927 7.32749 6.17782 7.34244 6.11962 7.29759C6.05726 7.25273 6.0531 7.16302 6.10299 7.09574C6.15703 7.02845 6.24849 7.0135 6.30669 7.05835Z" fill="url(#paint71_radial_685_5908)"/>
<path d="M6.09448 3.96338L10.418 9.2489" stroke="url(#paint72_radial_685_5908)" stroke-width="0.25" stroke-miterlimit="10"/>
<path d="M11.2037 8.63563C11.4127 8.63563 11.5821 8.46995 11.5821 8.26557C11.5821 8.06119 11.4127 7.89551 11.2037 7.89551C10.9948 7.89551 10.8254 8.06119 10.8254 8.26557C10.8254 8.46995 10.9948 8.63563 11.2037 8.63563Z" fill="url(#paint73_radial_685_5908)"/>
<path d="M10.8089 7.7423C10.9145 7.7423 11.0001 7.66029 11.0001 7.55914C11.0001 7.45798 10.9145 7.37598 10.8089 7.37598C10.7033 7.37598 10.6177 7.45798 10.6177 7.55914C10.6177 7.66029 10.7033 7.7423 10.8089 7.7423Z" fill="url(#paint74_radial_685_5908)"/>
<path d="M10.1104 3.18213L12.8416 8.07516" stroke="url(#paint75_radial_685_5908)" stroke-width="0.25" stroke-miterlimit="10"/>
<path d="M9.89851 2.98009C10.0041 2.98009 10.0897 2.89809 10.0897 2.79693C10.0897 2.69578 10.0041 2.61377 9.89851 2.61377C9.79289 2.61377 9.70728 2.69578 9.70728 2.79693C9.70728 2.89809 9.79289 2.98009 9.89851 2.98009Z" fill="url(#paint76_radial_685_5908)"/>
<path d="M12.5132 2.94287L14.0846 7.47706" stroke="url(#paint77_radial_685_5908)" stroke-width="0.25" stroke-miterlimit="10"/>
<path d="M14.6833 4.72949L15.124 7.56663" stroke="url(#paint78_radial_685_5908)" stroke-width="0.25" stroke-miterlimit="10"/>
<path d="M14.862 4.07882C14.9077 4.22087 14.8121 4.37786 14.65 4.42646C14.4879 4.47505 14.3174 4.40029 14.2717 4.25451C14.226 4.11246 14.3216 3.95547 14.4837 3.90687C14.6458 3.85828 14.8163 3.93304 14.862 4.07882Z" fill="url(#paint79_radial_685_5908)"/>
<path d="M14.6832 3.52557C14.704 3.59659 14.6583 3.67509 14.5751 3.70126C14.492 3.72742 14.4088 3.6863 14.388 3.61528C14.3673 3.54426 14.413 3.46576 14.4961 3.4396C14.5793 3.41717 14.6624 3.45455 14.6832 3.52557Z" fill="url(#paint80_radial_685_5908)"/>
</g>
<path d="M16.5208 24.8958C21.627 24.8958 25.7665 20.9947 25.7665 16.1825C25.7665 11.3703 21.627 7.46924 16.5208 7.46924C11.4146 7.46924 7.27515 11.3703 7.27515 16.1825C7.27515 20.9947 11.4146 24.8958 16.5208 24.8958Z" fill="#FDC70A"/>
<defs>
<radialGradient id="paint0_radial_685_5908" cx="0" cy="0" r="1" gradientUnits="userSpaceOnUse" gradientTransform="translate(16.7866 4.18758) rotate(0.0890006) scale(2.19984 2.38875)">
<stop stop-color="#FFED32"/>
<stop offset="0.2011" stop-color="#E7E000"/>
<stop offset="0.5792" stop-color="#FFED2E"/>
<stop offset="0.8228" stop-color="#FDC700"/>
<stop offset="0.9274" stop-color="#FBC700"/>
</radialGradient>
<radialGradient id="paint1_radial_685_5908" cx="0" cy="0" r="1" gradientUnits="userSpaceOnUse" gradientTransform="translate(17.9799 7.20522) scale(0.379371 0.368326)">
<stop stop-color="#FFED32"/>
<stop offset="0.2011" stop-color="#E7E000"/>
<stop offset="0.5792" stop-color="#FFED2E"/>
<stop offset="0.8228" stop-color="#FDC700"/>
<stop offset="0.9274" stop-color="#FBC700"/>
</radialGradient>
<radialGradient id="paint2_radial_685_5908" cx="0" cy="0" r="1" gradientUnits="userSpaceOnUse" gradientTransform="translate(18.1694 6.4219) scale(0.189665 0.184143)">
<stop stop-color="#FFED32"/>
<stop offset="0.2011" stop-color="#E7E000"/>
<stop offset="0.5792" stop-color="#FFED2E"/>
<stop offset="0.8228" stop-color="#FDC700"/>
<stop offset="0.9274" stop-color="#FBC700"/>
</radialGradient>
<radialGradient id="paint3_radial_685_5908" cx="0" cy="0" r="1" gradientUnits="userSpaceOnUse" gradientTransform="translate(19.451 4.85909) rotate(13.5434) scale(2.18275 1.97138)">
<stop stop-color="#FFED32"/>
<stop offset="0.2011" stop-color="#E7E000"/>
<stop offset="0.5792" stop-color="#FFED2E"/>
<stop offset="0.8228" stop-color="#FDC700"/>
<stop offset="0.9274" stop-color="#FBC700"/>
</radialGradient>
<radialGradient id="paint4_radial_685_5908" cx="0" cy="0" r="1" gradientUnits="userSpaceOnUse" gradientTransform="translate(20.2167 1.72426) scale(0.189666 0.184143)">
<stop stop-color="#FFED32"/>
<stop offset="0.2011" stop-color="#E7E000"/>
<stop offset="0.5792" stop-color="#FFED2E"/>
<stop offset="0.8228" stop-color="#FDC700"/>
<stop offset="0.9274" stop-color="#FBC700"/>
</radialGradient>
<radialGradient id="paint5_radial_685_5908" cx="0" cy="0" r="1" gradientUnits="userSpaceOnUse" gradientTransform="translate(21.2517 5.63371) rotate(23.3852) scale(2.17595 1.70042)">
<stop stop-color="#FFED32"/>
<stop offset="0.2011" stop-color="#E7E000"/>
<stop offset="0.5792" stop-color="#FFED2E"/>
<stop offset="0.8228" stop-color="#FDC700"/>
<stop offset="0.9274" stop-color="#FBC700"/>
</radialGradient>
<radialGradient id="paint6_radial_685_5908" cx="0" cy="0" r="1" gradientUnits="userSpaceOnUse" gradientTransform="translate(22.1115 7.30071) rotate(31.6353) scale(2.16818 1.0236)">
<stop stop-color="#FFED32"/>
<stop offset="0.2011" stop-color="#E7E000"/>
<stop offset="0.5792" stop-color="#FFED2E"/>
<stop offset="0.8228" stop-color="#FDC700"/>
<stop offset="0.9274" stop-color="#FBC700"/>
</radialGradient>
<radialGradient id="paint7_radial_685_5908" cx="0" cy="0" r="1" gradientUnits="userSpaceOnUse" gradientTransform="translate(23.165 5.59091) rotate(22.8115) scale(0.307236 0.272631)">
<stop stop-color="#FFED32"/>
<stop offset="0.2011" stop-color="#E7E000"/>
<stop offset="0.5792" stop-color="#FFED2E"/>
<stop offset="0.8228" stop-color="#FDC700"/>
<stop offset="0.9274" stop-color="#FBC700"/>
</radialGradient>
<radialGradient id="paint8_radial_685_5908" cx="0" cy="0" r="1" gradientUnits="userSpaceOnUse" gradientTransform="translate(23.5429 5.12056) rotate(22.8116) scale(0.153618 0.136316)">
<stop stop-color="#FFED32"/>
<stop offset="0.2011" stop-color="#E7E000"/>
<stop offset="0.5792" stop-color="#FFED2E"/>
<stop offset="0.8228" stop-color="#FDC700"/>
<stop offset="0.9274" stop-color="#FBC700"/>
</radialGradient>
<radialGradient id="paint9_radial_685_5908" cx="0" cy="0" r="1" gradientUnits="userSpaceOnUse" gradientTransform="translate(25.3211 6.94128) rotate(45.2062) scale(2.15371 2.42513)">
<stop stop-color="#FFED32"/>
<stop offset="0.2011" stop-color="#E7E000"/>
<stop offset="0.5792" stop-color="#FFED2E"/>
<stop offset="0.8228" stop-color="#FDC700"/>
<stop offset="0.9274" stop-color="#FBC700"/>
</radialGradient>
<radialGradient id="paint10_radial_685_5908" cx="0" cy="0" r="1" gradientUnits="userSpaceOnUse" gradientTransform="translate(23.9379 9.89346) rotate(45.1129) scale(0.373701 0.373912)">
<stop stop-color="#FFED32"/>
<stop offset="0.2011" stop-color="#E7E000"/>
<stop offset="0.5792" stop-color="#FFED2E"/>
<stop offset="0.8228" stop-color="#FDC700"/>
<stop offset="0.9274" stop-color="#FBC700"/>
</radialGradient>
<radialGradient id="paint11_radial_685_5908" cx="0" cy="0" r="1" gradientUnits="userSpaceOnUse" gradientTransform="translate(24.6498 9.48092) rotate(45.1131) scale(0.186831 0.186937)">
<stop stop-color="#FFED32"/>
<stop offset="0.2011" stop-color="#E7E000"/>
<stop offset="0.5792" stop-color="#FFED2E"/>
<stop offset="0.8228" stop-color="#FDC700"/>
<stop offset="0.9274" stop-color="#FBC700"/>
</radialGradient>
<radialGradient id="paint12_radial_685_5908" cx="0" cy="0" r="1" gradientUnits="userSpaceOnUse" gradientTransform="translate(26.7239 9.29706) rotate(59.1522) scale(2.13888 2.01184)">
<stop stop-color="#FFED32"/>
<stop offset="0.2011" stop-color="#E7E000"/>
<stop offset="0.5792" stop-color="#FFED2E"/>
<stop offset="0.8228" stop-color="#FDC700"/>
<stop offset="0.9274" stop-color="#FBC700"/>
</radialGradient>
<radialGradient id="paint13_radial_685_5908" cx="0" cy="0" r="1" gradientUnits="userSpaceOnUse" gradientTransform="translate(29.5512 7.64446) rotate(45.1131) scale(0.186831 0.186937)">
<stop stop-color="#FFED32"/>
<stop offset="0.2011" stop-color="#E7E000"/>
<stop offset="0.5792" stop-color="#FFED2E"/>
<stop offset="0.8228" stop-color="#FDC700"/>
<stop offset="0.9274" stop-color="#FBC700"/>
</radialGradient>
<radialGradient id="paint14_radial_685_5908" cx="0" cy="0" r="1" gradientUnits="userSpaceOnUse" gradientTransform="translate(27.3858 11.0524) rotate(69.5237) scale(2.13017 1.73697)">
<stop stop-color="#FFED32"/>
<stop offset="0.2011" stop-color="#E7E000"/>
<stop offset="0.5792" stop-color="#FFED2E"/>
<stop offset="0.8228" stop-color="#FDC700"/>
<stop offset="0.9274" stop-color="#FBC700"/>
</radialGradient>
<radialGradient id="paint15_radial_685_5908" cx="0" cy="0" r="1" gradientUnits="userSpaceOnUse" gradientTransform="translate(27.033 12.6224) rotate(78.1265) scale(2.12529 1.04425)">
<stop stop-color="#FFED32"/>
<stop offset="0.2011" stop-color="#E7E000"/>
<stop offset="0.5792" stop-color="#FFED2E"/>
<stop offset="0.8228" stop-color="#FDC700"/>
<stop offset="0.9274" stop-color="#FBC700"/>
</radialGradient>
<radialGradient id="paint16_radial_685_5908" cx="0" cy="0" r="1" gradientUnits="userSpaceOnUse" gradientTransform="translate(29.0282 12.1951) rotate(68.9264) scale(0.300769 0.278466)">
<stop stop-color="#FFED32"/>
<stop offset="0.2011" stop-color="#E7E000"/>
<stop offset="0.5792" stop-color="#FFED2E"/>
<stop offset="0.8228" stop-color="#FDC700"/>
<stop offset="0.9274" stop-color="#FBC700"/>
</radialGradient>
<radialGradient id="paint17_radial_685_5908" cx="0" cy="0" r="1" gradientUnits="userSpaceOnUse" gradientTransform="translate(29.6392 12.1334) rotate(68.9263) scale(0.150385 0.139234)">
<stop stop-color="#FFED32"/>
<stop offset="0.2011" stop-color="#E7E000"/>
<stop offset="0.5792" stop-color="#FFED2E"/>
<stop offset="0.8228" stop-color="#FDC700"/>
<stop offset="0.9274" stop-color="#FBC700"/>
</radialGradient>
<radialGradient id="paint18_radial_685_5908" cx="0" cy="0" r="1" gradientUnits="userSpaceOnUse" gradientTransform="translate(29.5291 13.8131) rotate(82.204) scale(2.12398 2.45928)">
<stop stop-color="#FFED32"/>
<stop offset="0.2011" stop-color="#E7E000"/>
<stop offset="0.5792" stop-color="#FFED2E"/>
<stop offset="0.8228" stop-color="#FDC700"/>
<stop offset="0.9274" stop-color="#FBC700"/>
</radialGradient>
<radialGradient id="paint19_radial_685_5908" cx="0" cy="0" r="1" gradientUnits="userSpaceOnUse" gradientTransform="translate(26.5401 15.4505) rotate(82.1106) scale(0.368516 0.379159)">
<stop stop-color="#FFED32"/>
<stop offset="0.2011" stop-color="#E7E000"/>
<stop offset="0.5792" stop-color="#FFED2E"/>
<stop offset="0.8228" stop-color="#FDC700"/>
<stop offset="0.9274" stop-color="#FBC700"/>
</radialGradient>
<radialGradient id="paint20_radial_685_5908" cx="0" cy="0" r="1" gradientUnits="userSpaceOnUse" gradientTransform="translate(27.3649 15.5283) rotate(82.1106) scale(0.184237 0.189559)">
<stop stop-color="#FFED32"/>
<stop offset="0.2011" stop-color="#E7E000"/>
<stop offset="0.5792" stop-color="#FFED2E"/>
<stop offset="0.8228" stop-color="#FDC700"/>
<stop offset="0.9274" stop-color="#FBC700"/>
</radialGradient>
<radialGradient id="paint21_radial_685_5908" cx="0" cy="0" r="1" gradientUnits="userSpaceOnUse" gradientTransform="translate(29.1134 16.5278) rotate(96.4559) scale(2.12354 2.02632)">
<stop stop-color="#FFED32"/>
<stop offset="0.2011" stop-color="#E7E000"/>
<stop offset="0.5792" stop-color="#FFED2E"/>
<stop offset="0.8228" stop-color="#FDC700"/>
<stop offset="0.9274" stop-color="#FBC700"/>
</radialGradient>
<radialGradient id="paint22_radial_685_5908" cx="0" cy="0" r="1" gradientUnits="userSpaceOnUse" gradientTransform="translate(32.433 16.8722) rotate(82.1106) scale(0.18424 0.189561)">
<stop stop-color="#FFED32"/>
<stop offset="0.2011" stop-color="#E7E000"/>
<stop offset="0.5792" stop-color="#FFED2E"/>
<stop offset="0.8228" stop-color="#FDC700"/>
<stop offset="0.9274" stop-color="#FBC700"/>
</radialGradient>
<radialGradient id="paint23_radial_685_5908" cx="0" cy="0" r="1" gradientUnits="userSpaceOnUse" gradientTransform="translate(28.6558 18.3996) rotate(106.809) scale(2.12779 1.73891)">
<stop stop-color="#FFED32"/>
<stop offset="0.2011" stop-color="#E7E000"/>
<stop offset="0.5792" stop-color="#FFED2E"/>
<stop offset="0.8228" stop-color="#FDC700"/>
<stop offset="0.9274" stop-color="#FBC700"/>
</radialGradient>
<radialGradient id="paint24_radial_685_5908" cx="0" cy="0" r="1" gradientUnits="userSpaceOnUse" gradientTransform="translate(26.922 19.3248) rotate(115.379) scale(2.13383 1.03991)">
<stop stop-color="#FFED32"/>
<stop offset="0.2011" stop-color="#E7E000"/>
<stop offset="0.5792" stop-color="#FFED2E"/>
<stop offset="0.8228" stop-color="#FDC700"/>
<stop offset="0.9274" stop-color="#FBC700"/>
</radialGradient>
<radialGradient id="paint25_radial_685_5908" cx="0" cy="0" r="1" gradientUnits="userSpaceOnUse" gradientTransform="translate(28.9786 20.2127) rotate(106.206) scale(0.300322 0.278917)">
<stop stop-color="#FFED32"/>
<stop offset="0.2011" stop-color="#E7E000"/>
<stop offset="0.5792" stop-color="#FFED2E"/>
<stop offset="0.8228" stop-color="#FDC700"/>
<stop offset="0.9274" stop-color="#FBC700"/>
</radialGradient>
<radialGradient id="paint26_radial_685_5908" cx="0" cy="0" r="1" gradientUnits="userSpaceOnUse" gradientTransform="translate(29.5089 20.5138) rotate(106.206) scale(0.150161 0.139459)">
<stop stop-color="#FFED32"/>
<stop offset="0.2011" stop-color="#E7E000"/>
<stop offset="0.5792" stop-color="#FFED2E"/>
<stop offset="0.8228" stop-color="#FDC700"/>
<stop offset="0.9274" stop-color="#FBC700"/>
</radialGradient>
<radialGradient id="paint27_radial_685_5908" cx="0" cy="0" r="1" gradientUnits="userSpaceOnUse" gradientTransform="translate(27.8434 22.4275) rotate(129.215) scale(2.14761 2.43212)">
<stop stop-color="#FFED32"/>
<stop offset="0.2011" stop-color="#E7E000"/>
<stop offset="0.5792" stop-color="#FFED2E"/>
<stop offset="0.8228" stop-color="#FDC700"/>
<stop offset="0.9274" stop-color="#FBC700"/>
</radialGradient>
<radialGradient id="paint28_radial_685_5908" cx="0" cy="0" r="1" gradientUnits="userSpaceOnUse" gradientTransform="translate(24.6192 21.4964) rotate(129.124) scale(0.372615 0.375011)">
<stop stop-color="#FFED32"/>
<stop offset="0.2011" stop-color="#E7E000"/>
<stop offset="0.5792" stop-color="#FFED2E"/>
<stop offset="0.8228" stop-color="#FDC700"/>
<stop offset="0.9274" stop-color="#FBC700"/>
</radialGradient>
<radialGradient id="paint29_radial_685_5908" cx="0" cy="0" r="1" gradientUnits="userSpaceOnUse" gradientTransform="translate(25.135 22.1263) rotate(129.124) scale(0.186289 0.187487)">
<stop stop-color="#FFED32"/>
<stop offset="0.2011" stop-color="#E7E000"/>
<stop offset="0.5792" stop-color="#FFED2E"/>
<stop offset="0.8228" stop-color="#FDC700"/>
<stop offset="0.9274" stop-color="#FBC700"/>
</radialGradient>
<radialGradient id="paint30_radial_685_5908" cx="0" cy="0" r="1" gradientUnits="userSpaceOnUse" gradientTransform="translate(25.6073 24.0636) rotate(143.045) scale(2.16268 1.98967)">
<stop stop-color="#FFED32"/>
<stop offset="0.2011" stop-color="#E7E000"/>
<stop offset="0.5792" stop-color="#FFED2E"/>
<stop offset="0.8228" stop-color="#FDC700"/>
<stop offset="0.9274" stop-color="#FBC700"/>
</radialGradient>
<radialGradient id="paint31_radial_685_5908" cx="0" cy="0" r="1" gradientUnits="userSpaceOnUse" gradientTransform="translate(27.6635 26.5975) rotate(129.124) scale(0.186287 0.187485)">
<stop stop-color="#FFED32"/>
<stop offset="0.2011" stop-color="#E7E000"/>
<stop offset="0.5792" stop-color="#FFED2E"/>
<stop offset="0.8228" stop-color="#FDC700"/>
<stop offset="0.9274" stop-color="#FBC700"/>
</radialGradient>
<radialGradient id="paint32_radial_685_5908" cx="0" cy="0" r="1" gradientUnits="userSpaceOnUse" gradientTransform="translate(23.895 24.9602) rotate(151.31) scale(2.17124 1.70397)">
<stop stop-color="#FFED32"/>
<stop offset="0.2011" stop-color="#E7E000"/>
<stop offset="0.5792" stop-color="#FFED2E"/>
<stop offset="0.8228" stop-color="#FDC700"/>
<stop offset="0.9274" stop-color="#FBC700"/>
</radialGradient>
<radialGradient id="paint33_radial_685_5908" cx="0" cy="0" r="1" gradientUnits="userSpaceOnUse" gradientTransform="translate(22.0778 25.0258) rotate(158.897) scale(2.17784 1.019)">
<stop stop-color="#FFED32"/>
<stop offset="0.2011" stop-color="#E7E000"/>
<stop offset="0.5792" stop-color="#FFED2E"/>
<stop offset="0.8228" stop-color="#FDC700"/>
<stop offset="0.9274" stop-color="#FBC700"/>
</radialGradient>
<radialGradient id="paint34_radial_685_5908" cx="0" cy="0" r="1" gradientUnits="userSpaceOnUse" gradientTransform="translate(22.7579 26.9161) rotate(150.082) scale(0.306318 0.273422)">
<stop stop-color="#FFED32"/>
<stop offset="0.2011" stop-color="#E7E000"/>
<stop offset="0.5792" stop-color="#FFED2E"/>
<stop offset="0.8228" stop-color="#FDC700"/>
<stop offset="0.9274" stop-color="#FBC700"/>
</radialGradient>
<radialGradient id="paint35_radial_685_5908" cx="0" cy="0" r="1" gradientUnits="userSpaceOnUse" gradientTransform="translate(22.9283 27.489) rotate(150.082) scale(0.15316 0.136712)">
<stop stop-color="#FFED32"/>
<stop offset="0.2011" stop-color="#E7E000"/>
<stop offset="0.5792" stop-color="#FFED2E"/>
<stop offset="0.8228" stop-color="#FDC700"/>
<stop offset="0.9274" stop-color="#FBC700"/>
</radialGradient>
<radialGradient id="paint36_radial_685_5908" cx="0" cy="0" r="1" gradientUnits="userSpaceOnUse" gradientTransform="translate(20.7807 27.4995) rotate(162.755) scale(2.18076 2.39514)">
<stop stop-color="#FFED32"/>
<stop offset="0.2011" stop-color="#E7E000"/>
<stop offset="0.5792" stop-color="#FFED2E"/>
<stop offset="0.8228" stop-color="#FDC700"/>
<stop offset="0.9274" stop-color="#FBC700"/>
</radialGradient>
<radialGradient id="paint37_radial_685_5908" cx="0" cy="0" r="1" gradientUnits="userSpaceOnUse" gradientTransform="translate(18.7259 24.9942) rotate(162.664) scale(0.37837 0.36934)">
<stop stop-color="#FFED32"/>
<stop offset="0.2011" stop-color="#E7E000"/>
<stop offset="0.5792" stop-color="#FFED2E"/>
<stop offset="0.8228" stop-color="#FDC700"/>
<stop offset="0.9274" stop-color="#FBC700"/>
</radialGradient>
<radialGradient id="paint38_radial_685_5908" cx="0" cy="0" r="1" gradientUnits="userSpaceOnUse" gradientTransform="translate(18.7924 25.796) rotate(162.664) scale(0.189165 0.18465)">
<stop stop-color="#FFED32"/>
<stop offset="0.2011" stop-color="#E7E000"/>
<stop offset="0.5792" stop-color="#FFED2E"/>
<stop offset="0.8228" stop-color="#FDC700"/>
<stop offset="0.9274" stop-color="#FBC700"/>
</radialGradient>
<radialGradient id="paint39_radial_685_5908" cx="0" cy="0" r="1" gradientUnits="userSpaceOnUse" gradientTransform="translate(17.9868 27.6209) rotate(176.219) scale(2.18617 1.96842)">
<stop stop-color="#FFED32"/>
<stop offset="0.2011" stop-color="#E7E000"/>
<stop offset="0.5792" stop-color="#FFED2E"/>
<stop offset="0.8228" stop-color="#FDC700"/>
<stop offset="0.9274" stop-color="#FBC700"/>
</radialGradient>
<radialGradient id="paint40_radial_685_5908" cx="0" cy="0" r="1" gradientUnits="userSpaceOnUse" gradientTransform="translate(18.3248 30.8769) rotate(162.664) scale(0.189165 0.18465)">
<stop stop-color="#FFED32"/>
<stop offset="0.2011" stop-color="#E7E000"/>
<stop offset="0.5792" stop-color="#FFED2E"/>
<stop offset="0.8228" stop-color="#FDC700"/>
<stop offset="0.9274" stop-color="#FBC700"/>
</radialGradient>
<radialGradient id="paint41_radial_685_5908" cx="0" cy="0" r="1" gradientUnits="userSpaceOnUse" gradientTransform="translate(16.0195 27.438) rotate(-173.997) scale(2.18566 1.69278)">
<stop stop-color="#FFED32"/>
<stop offset="0.2011" stop-color="#E7E000"/>
<stop offset="0.5792" stop-color="#FFED2E"/>
<stop offset="0.8228" stop-color="#FDC700"/>
<stop offset="0.9274" stop-color="#FBC700"/>
</radialGradient>
<radialGradient id="paint42_radial_685_5908" cx="0" cy="0" r="1" gradientUnits="userSpaceOnUse" gradientTransform="translate(14.7477 26.0319) rotate(-165.841) scale(2.18244 1.01693)">
<stop stop-color="#FFED32"/>
<stop offset="0.2011" stop-color="#E7E000"/>
<stop offset="0.5792" stop-color="#FFED2E"/>
<stop offset="0.8228" stop-color="#FDC700"/>
<stop offset="0.9274" stop-color="#FBC700"/>
</radialGradient>
<radialGradient id="paint43_radial_685_5908" cx="0" cy="0" r="1" gradientUnits="userSpaceOnUse" gradientTransform="translate(14.2998 27.9484) rotate(-174.572) scale(0.308579 0.271442)">
<stop stop-color="#FFED32"/>
<stop offset="0.2011" stop-color="#E7E000"/>
<stop offset="0.5792" stop-color="#FFED2E"/>
<stop offset="0.8228" stop-color="#FDC700"/>
<stop offset="0.9274" stop-color="#FBC700"/>
</radialGradient>
<radialGradient id="paint44_radial_685_5908" cx="0" cy="0" r="1" gradientUnits="userSpaceOnUse" gradientTransform="translate(14.0884 28.5084) rotate(-174.572) scale(0.15429 0.135721)">
<stop stop-color="#FFED32"/>
<stop offset="0.2011" stop-color="#E7E000"/>
<stop offset="0.5792" stop-color="#FFED2E"/>
<stop offset="0.8228" stop-color="#FDC700"/>
<stop offset="0.9274" stop-color="#FBC700"/>
</radialGradient>
<radialGradient id="paint45_radial_685_5908" cx="0" cy="0" r="1" gradientUnits="userSpaceOnUse" gradientTransform="translate(11.7054 27.3475) rotate(-152.475) scale(2.17238 2.40429)">
<stop stop-color="#FFED32"/>
<stop offset="0.2011" stop-color="#E7E000"/>
<stop offset="0.5792" stop-color="#FFED2E"/>
<stop offset="0.8228" stop-color="#FDC700"/>
<stop offset="0.9274" stop-color="#FBC700"/>
</radialGradient>
<radialGradient id="paint46_radial_685_5908" cx="0" cy="0" r="1" gradientUnits="userSpaceOnUse" gradientTransform="translate(12.0963 24.1139) rotate(-152.567) scale(0.376936 0.37069)">
<stop stop-color="#FFED32"/>
<stop offset="0.2011" stop-color="#E7E000"/>
<stop offset="0.5792" stop-color="#FFED2E"/>
<stop offset="0.8228" stop-color="#FDC700"/>
<stop offset="0.9274" stop-color="#FBC700"/>
</radialGradient>
<radialGradient id="paint47_radial_685_5908" cx="0" cy="0" r="1" gradientUnits="userSpaceOnUse" gradientTransform="translate(11.5486 24.7174) rotate(-152.567) scale(0.188448 0.185325)">
<stop stop-color="#FFED32"/>
<stop offset="0.2011" stop-color="#E7E000"/>
<stop offset="0.5792" stop-color="#FFED2E"/>
<stop offset="0.8228" stop-color="#FDC700"/>
<stop offset="0.9274" stop-color="#FBC700"/>
</radialGradient>
<radialGradient id="paint48_radial_685_5908" cx="0" cy="0" r="1" gradientUnits="userSpaceOnUse" gradientTransform="translate(9.69327 25.5846) rotate(-138.774) scale(2.15811 1.99399)">
<stop stop-color="#FFED32"/>
<stop offset="0.2011" stop-color="#E7E000"/>
<stop offset="0.5792" stop-color="#FFED2E"/>
<stop offset="0.8228" stop-color="#FDC700"/>
<stop offset="0.9274" stop-color="#FBC700"/>
</radialGradient>
<radialGradient id="paint49_radial_685_5908" cx="0" cy="0" r="1" gradientUnits="userSpaceOnUse" gradientTransform="translate(7.46154 27.923) rotate(-152.567) scale(0.188448 0.185325)">
<stop stop-color="#FFED32"/>
<stop offset="0.2011" stop-color="#E7E000"/>
<stop offset="0.5792" stop-color="#FFED2E"/>
<stop offset="0.8228" stop-color="#FDC700"/>
<stop offset="0.9274" stop-color="#FBC700"/>
</radialGradient>
<radialGradient id="paint50_radial_685_5908" cx="0" cy="0" r="1" gradientUnits="userSpaceOnUse" gradientTransform="translate(7.98075 24.382) rotate(-128.685) scale(2.14683 1.72328)">
<stop stop-color="#FFED32"/>
<stop offset="0.2011" stop-color="#E7E000"/>
<stop offset="0.5792" stop-color="#FFED2E"/>
<stop offset="0.8228" stop-color="#FDC700"/>
<stop offset="0.9274" stop-color="#FBC700"/>
</radialGradient>
<radialGradient id="paint51_radial_685_5908" cx="0" cy="0" r="1" gradientUnits="userSpaceOnUse" gradientTransform="translate(7.6199 22.5371) rotate(-120.201) scale(2.13818 1.03796)">
<stop stop-color="#FFED32"/>
<stop offset="0.2011" stop-color="#E7E000"/>
<stop offset="0.5792" stop-color="#FFED2E"/>
<stop offset="0.8228" stop-color="#FDC700"/>
<stop offset="0.9274" stop-color="#FBC700"/>
</radialGradient>
<radialGradient id="paint52_radial_685_5908" cx="0" cy="0" r="1" gradientUnits="userSpaceOnUse" gradientTransform="translate(5.90085 23.5066) rotate(-129.278) scale(0.303156 0.27628)">
<stop stop-color="#FFED32"/>
<stop offset="0.2011" stop-color="#E7E000"/>
<stop offset="0.5792" stop-color="#FFED2E"/>
<stop offset="0.8228" stop-color="#FDC700"/>
<stop offset="0.9274" stop-color="#FBC700"/>
</radialGradient>
<radialGradient id="paint53_radial_685_5908" cx="0" cy="0" r="1" gradientUnits="userSpaceOnUse" gradientTransform="translate(5.33911 23.748) rotate(-129.278) scale(0.151578 0.13814)">
<stop stop-color="#FFED32"/>
<stop offset="0.2011" stop-color="#E7E000"/>
<stop offset="0.5792" stop-color="#FFED2E"/>
<stop offset="0.8228" stop-color="#FDC700"/>
<stop offset="0.9274" stop-color="#FBC700"/>
</radialGradient>
<radialGradient id="paint54_radial_685_5908" cx="0" cy="0" r="1" gradientUnits="userSpaceOnUse" gradientTransform="translate(4.88933 21.6504) rotate(-118.859) scale(2.13707 2.44397)">
<stop stop-color="#FFED32"/>
<stop offset="0.2011" stop-color="#E7E000"/>
<stop offset="0.5792" stop-color="#FFED2E"/>
<stop offset="0.8228" stop-color="#FDC700"/>
<stop offset="0.9274" stop-color="#FBC700"/>
</radialGradient>
<radialGradient id="paint55_radial_685_5908" cx="0" cy="0" r="1" gradientUnits="userSpaceOnUse" gradientTransform="translate(6.99678 19.2252) rotate(-118.95) scale(0.370809 0.37682)">
<stop stop-color="#FFED32"/>
<stop offset="0.2011" stop-color="#E7E000"/>
<stop offset="0.5792" stop-color="#FFED2E"/>
<stop offset="0.8228" stop-color="#FDC700"/>
<stop offset="0.9274" stop-color="#FBC700"/>
</radialGradient>
<radialGradient id="paint56_radial_685_5908" cx="0" cy="0" r="1" gradientUnits="userSpaceOnUse" gradientTransform="translate(6.19615 19.4334) rotate(-118.95) scale(0.185385 0.18839)">
<stop stop-color="#FFED32"/>
<stop offset="0.2011" stop-color="#E7E000"/>
<stop offset="0.5792" stop-color="#FFED2E"/>
<stop offset="0.8228" stop-color="#FDC700"/>
<stop offset="0.9274" stop-color="#FBC700"/>
</radialGradient>
<radialGradient id="paint57_radial_685_5908" cx="0" cy="0" r="1" gradientUnits="userSpaceOnUse" gradientTransform="translate(4.25859 19.1281) rotate(-104.717) scale(2.12669 2.02349)">
<stop stop-color="#FFED32"/>
<stop offset="0.2011" stop-color="#E7E000"/>
<stop offset="0.5792" stop-color="#FFED2E"/>
<stop offset="0.8228" stop-color="#FDC700"/>
<stop offset="0.9274" stop-color="#FBC700"/>
</radialGradient>
<radialGradient id="paint58_radial_685_5908" cx="0" cy="0" r="1" gradientUnits="userSpaceOnUse" gradientTransform="translate(0.964823 19.905) rotate(-118.95) scale(0.185385 0.18839)">
<stop stop-color="#FFED32"/>
<stop offset="0.2011" stop-color="#E7E000"/>
<stop offset="0.5792" stop-color="#FFED2E"/>
<stop offset="0.8228" stop-color="#FDC700"/>
<stop offset="0.9274" stop-color="#FBC700"/>
</radialGradient>
<radialGradient id="paint59_radial_685_5908" cx="0" cy="0" r="1" gradientUnits="userSpaceOnUse" gradientTransform="translate(4.15453 17.1946) rotate(-94.3616) scale(2.12295 1.74282)">
<stop stop-color="#FFED32"/>
<stop offset="0.2011" stop-color="#E7E000"/>
<stop offset="0.5792" stop-color="#FFED2E"/>
<stop offset="0.8228" stop-color="#FDC700"/>
<stop offset="0.9274" stop-color="#FBC700"/>
</radialGradient>
<radialGradient id="paint60_radial_685_5908" cx="0" cy="0" r="1" gradientUnits="userSpaceOnUse" gradientTransform="translate(5.1763 15.6405) rotate(-85.7184) scale(2.12293 1.04539)">
<stop stop-color="#FFED32"/>
<stop offset="0.2011" stop-color="#E7E000"/>
<stop offset="0.5792" stop-color="#FFED2E"/>
<stop offset="0.8228" stop-color="#FDC700"/>
<stop offset="0.9274" stop-color="#FBC700"/>
</radialGradient>
<radialGradient id="paint61_radial_685_5908" cx="0" cy="0" r="1" gradientUnits="userSpaceOnUse" gradientTransform="translate(3.10813 15.5913) rotate(-94.9633) scale(0.29971 0.279452)">
<stop stop-color="#FFED32"/>
<stop offset="0.2011" stop-color="#E7E000"/>
<stop offset="0.5792" stop-color="#FFED2E"/>
<stop offset="0.8228" stop-color="#FDC700"/>
<stop offset="0.9274" stop-color="#FBC700"/>
</radialGradient>
<radialGradient id="paint62_radial_685_5908" cx="0" cy="0" r="1" gradientUnits="userSpaceOnUse" gradientTransform="translate(2.50263 15.4905) rotate(-94.9633) scale(0.149855 0.139726)">
<stop stop-color="#FFED32"/>
<stop offset="0.2011" stop-color="#E7E000"/>
<stop offset="0.5792" stop-color="#FFED2E"/>
<stop offset="0.8228" stop-color="#FDC700"/>
<stop offset="0.9274" stop-color="#FBC700"/>
</radialGradient>
<radialGradient id="paint63_radial_685_5908" cx="0" cy="0" r="1" gradientUnits="userSpaceOnUse" gradientTransform="translate(3.39611 13.0484) rotate(-71.6895) scale(2.12871 2.45357)">
<stop stop-color="#FFED32"/>
<stop offset="0.2011" stop-color="#E7E000"/>
<stop offset="0.5792" stop-color="#FFED2E"/>
<stop offset="0.8228" stop-color="#FDC700"/>
<stop offset="0.9274" stop-color="#FBC700"/>
</radialGradient>
<radialGradient id="paint64_radial_685_5908" cx="0" cy="0" r="1" gradientUnits="userSpaceOnUse" gradientTransform="translate(6.6372 12.8752) rotate(-71.7794) scale(0.369354 0.378313)">
<stop stop-color="#FFED32"/>
<stop offset="0.2011" stop-color="#E7E000"/>
<stop offset="0.5792" stop-color="#FFED2E"/>
<stop offset="0.8228" stop-color="#FDC700"/>
<stop offset="0.9274" stop-color="#FBC700"/>
</radialGradient>
<radialGradient id="paint65_radial_685_5908" cx="0" cy="0" r="1" gradientUnits="userSpaceOnUse" gradientTransform="translate(5.92614 12.4614) rotate(-71.7794) scale(0.184657 0.189136)">
<stop stop-color="#FFED32"/>
<stop offset="0.2011" stop-color="#E7E000"/>
<stop offset="0.5792" stop-color="#FFED2E"/>
<stop offset="0.8228" stop-color="#FDC700"/>
<stop offset="0.9274" stop-color="#FBC700"/>
</radialGradient>
<radialGradient id="paint66_radial_685_5908" cx="0" cy="0" r="1" gradientUnits="userSpaceOnUse" gradientTransform="translate(4.78194 10.7889) rotate(-57.5825) scale(2.14041 2.01026)">
<stop stop-color="#FFED32"/>
<stop offset="0.2011" stop-color="#E7E000"/>
<stop offset="0.5792" stop-color="#FFED2E"/>
<stop offset="0.8228" stop-color="#FDC700"/>
<stop offset="0.9274" stop-color="#FBC700"/>
</radialGradient>
<radialGradient id="paint67_radial_685_5908" cx="0" cy="0" r="1" gradientUnits="userSpaceOnUse" gradientTransform="translate(1.94038 9.13811) rotate(-71.7794) scale(0.184657 0.189136)">
<stop stop-color="#FFED32"/>
<stop offset="0.2011" stop-color="#E7E000"/>
<stop offset="0.5792" stop-color="#FFED2E"/>
<stop offset="0.8228" stop-color="#FDC700"/>
<stop offset="0.9274" stop-color="#FBC700"/>
</radialGradient>
<radialGradient id="paint68_radial_685_5908" cx="0" cy="0" r="1" gradientUnits="userSpaceOnUse" gradientTransform="translate(6.10121 9.41901) rotate(-46.3278) scale(2.15234 1.719)">
<stop stop-color="#FFED32"/>
<stop offset="0.2011" stop-color="#E7E000"/>
<stop offset="0.5792" stop-color="#FFED2E"/>
<stop offset="0.8228" stop-color="#FDC700"/>
<stop offset="0.9274" stop-color="#FBC700"/>
</radialGradient>
<radialGradient id="paint69_radial_685_5908" cx="0" cy="0" r="1" gradientUnits="userSpaceOnUse" gradientTransform="translate(8.00407 9.02081) rotate(-42.5261) scale(2.15649 1.029)">
<stop stop-color="#FFED32"/>
<stop offset="0.2011" stop-color="#E7E000"/>
<stop offset="0.5792" stop-color="#FFED2E"/>
<stop offset="0.8228" stop-color="#FDC700"/>
<stop offset="0.9274" stop-color="#FBC700"/>
</radialGradient>
<radialGradient id="paint70_radial_685_5908" cx="0" cy="0" r="1" gradientUnits="userSpaceOnUse" gradientTransform="translate(6.59873 7.6596) rotate(-51.5241) scale(0.303046 0.276406)">
<stop stop-color="#FFED32"/>
<stop offset="0.2011" stop-color="#E7E000"/>
<stop offset="0.5792" stop-color="#FFED2E"/>
<stop offset="0.8228" stop-color="#FDC700"/>
<stop offset="0.9274" stop-color="#FBC700"/>
</radialGradient>
<radialGradient id="paint71_radial_685_5908" cx="0" cy="0" r="1" gradientUnits="userSpaceOnUse" gradientTransform="translate(6.22214 7.18815) rotate(-51.5242) scale(0.151523 0.138203)">
<stop stop-color="#FFED32"/>
<stop offset="0.2011" stop-color="#E7E000"/>
<stop offset="0.5792" stop-color="#FFED2E"/>
<stop offset="0.8228" stop-color="#FDC700"/>
<stop offset="0.9274" stop-color="#FBC700"/>
</radialGradient>
<radialGradient id="paint72_radial_685_5908" cx="0" cy="0" r="1" gradientUnits="userSpaceOnUse" gradientTransform="translate(8.25538 6.58253) rotate(-36.8066) scale(2.16302 2.4147)">
<stop stop-color="#FFED32"/>
<stop offset="0.2011" stop-color="#E7E000"/>
<stop offset="0.5792" stop-color="#FFED2E"/>
<stop offset="0.8228" stop-color="#FDC700"/>
<stop offset="0.9274" stop-color="#FBC700"/>
</radialGradient>
<radialGradient id="paint73_radial_685_5908" cx="0" cy="0" r="1" gradientUnits="userSpaceOnUse" gradientTransform="translate(11.1776 8.24245) rotate(-40.8344) scale(0.374535 0.37307)">
<stop stop-color="#FFED32"/>
<stop offset="0.2011" stop-color="#E7E000"/>
<stop offset="0.5792" stop-color="#FFED2E"/>
<stop offset="0.8228" stop-color="#FDC700"/>
<stop offset="0.9274" stop-color="#FBC700"/>
</radialGradient>
<radialGradient id="paint74_radial_685_5908" cx="0" cy="0" r="1" gradientUnits="userSpaceOnUse" gradientTransform="translate(10.7829 7.5349) rotate(-40.8344) scale(0.187247 0.186515)">
<stop stop-color="#FFED32"/>
<stop offset="0.2011" stop-color="#E7E000"/>
<stop offset="0.5792" stop-color="#FFED2E"/>
<stop offset="0.8228" stop-color="#FDC700"/>
<stop offset="0.9274" stop-color="#FBC700"/>
</radialGradient>
<radialGradient id="paint75_radial_685_5908" cx="0" cy="0" r="1" gradientUnits="userSpaceOnUse" gradientTransform="translate(11.4516 5.64448) rotate(-27.0511) scale(2.17284 1.98044)">
<stop stop-color="#FFED32"/>
<stop offset="0.2011" stop-color="#E7E000"/>
<stop offset="0.5792" stop-color="#FFED2E"/>
<stop offset="0.8228" stop-color="#FDC700"/>
<stop offset="0.9274" stop-color="#FBC700"/>
</radialGradient>
<radialGradient id="paint76_radial_685_5908" cx="0" cy="0" r="1" gradientUnits="userSpaceOnUse" gradientTransform="translate(9.87273 2.77172) rotate(-40.8346) scale(0.187248 0.186516)">
<stop stop-color="#FFED32"/>
<stop offset="0.2011" stop-color="#E7E000"/>
<stop offset="0.5792" stop-color="#FFED2E"/>
<stop offset="0.8228" stop-color="#FDC700"/>
<stop offset="0.9274" stop-color="#FBC700"/>
</radialGradient>
<radialGradient id="paint77_radial_685_5908" cx="0" cy="0" r="1" gradientUnits="userSpaceOnUse" gradientTransform="translate(13.3082 5.19402) rotate(-17.4839) scale(2.1805 1.69682)">
<stop stop-color="#FFED32"/>
<stop offset="0.2011" stop-color="#E7E000"/>
<stop offset="0.5792" stop-color="#FFED2E"/>
<stop offset="0.8228" stop-color="#FDC700"/>
<stop offset="0.9274" stop-color="#FBC700"/>
</radialGradient>
<radialGradient id="paint78_radial_685_5908" cx="0" cy="0" r="1" gradientUnits="userSpaceOnUse" gradientTransform="translate(14.87 6.12534) rotate(-7.97675) scale(2.18504 1.01559)">
<stop stop-color="#FFED32"/>
<stop offset="0.2011" stop-color="#E7E000"/>
<stop offset="0.5792" stop-color="#FFED2E"/>
<stop offset="0.8228" stop-color="#FDC700"/>
<stop offset="0.9274" stop-color="#FBC700"/>
</radialGradient>
<radialGradient id="paint79_radial_685_5908" cx="0" cy="0" r="1" gradientUnits="userSpaceOnUse" gradientTransform="translate(14.5579 4.17594) rotate(-16.7183) scale(0.307855 0.272072)">
<stop stop-color="#FFED32"/>
<stop offset="0.2011" stop-color="#E7E000"/>
<stop offset="0.5792" stop-color="#FFED2E"/>
<stop offset="0.8228" stop-color="#FDC700"/>
<stop offset="0.9274" stop-color="#FBC700"/>
</radialGradient>
<radialGradient id="paint80_radial_685_5908" cx="0" cy="0" r="1" gradientUnits="userSpaceOnUse" gradientTransform="translate(14.5297 3.58013) rotate(-16.7182) scale(0.153927 0.136036)">
<stop stop-color="#FFED32"/>
<stop offset="0.2011" stop-color="#E7E000"/>
<stop offset="0.5792" stop-color="#FFED2E"/>
<stop offset="0.8228" stop-color="#FDC700"/>
<stop offset="0.9274" stop-color="#FBC700"/>
</radialGradient>
</defs>
</svg>
