<svg width="28" height="28" viewBox="0 0 28 28" fill="none" xmlns="http://www.w3.org/2000/svg">
<circle cx="14" cy="14" r="13" stroke="#052A43" stroke-width="2"/>
<path d="M19.7775 12.8434V10.3279C19.7739 9.69851 19.5664 9.08726 19.1862 8.58566C18.8061 8.08407 18.2736 7.71911 17.6686 7.54545C15.2644 6.90705 12.7351 6.90705 10.3309 7.54545C9.72587 7.71911 9.19343 8.08407 8.81325 8.58566C8.43307 9.08726 8.22562 9.69851 8.22196 10.3279V12.8434C7.91549 12.8434 7.62157 12.9651 7.40486 13.1818C7.18815 13.3985 7.06641 13.6924 7.06641 13.9989V14.5766C7.06641 14.8831 7.18815 15.177 7.40486 15.3937C7.62157 15.6104 7.91549 15.7321 8.22196 15.7321V16.8876C8.22169 17.3361 8.32599 17.7785 8.52658 18.1797C8.72717 18.5809 9.01853 18.9297 9.37752 19.1986V19.4875C9.37716 19.8457 9.50991 20.1912 9.75 20.457C9.9901 20.7229 10.3204 20.89 10.6768 20.926C11.0332 20.962 11.3902 20.8643 11.6787 20.6519C11.9671 20.4394 12.1662 20.1274 12.2375 19.7764H15.762C15.8332 20.1274 16.0324 20.4394 16.3208 20.6519C16.6092 20.8643 16.9663 20.962 17.3227 20.926C17.6791 20.89 18.0094 20.7229 18.2495 20.457C18.4896 20.1912 18.6223 19.8457 18.622 19.4875V19.1986C18.981 18.9297 19.2723 18.5809 19.4729 18.1797C19.6735 17.7785 19.7778 17.3361 19.7775 16.8876V15.7321C20.084 15.7321 20.3779 15.6104 20.5946 15.3937C20.8113 15.177 20.9331 14.8831 20.9331 14.5766V13.9989C20.9331 13.6924 20.8113 13.3985 20.5946 13.1818C20.3779 12.9651 20.084 12.8434 19.7775 12.8434ZM14.5775 14.5766V11.1102H18.622V14.5766H14.5775ZM9.37752 14.5766V11.1102H13.422V14.5766H9.37752ZM10.6486 8.65588C12.8452 8.07678 15.1543 8.07678 17.3509 8.65588C17.6548 8.73989 17.9301 8.90522 18.1471 9.13408C18.364 9.36294 18.5144 9.64665 18.5821 9.95466H9.41738C9.48504 9.64665 9.63545 9.36294 9.85241 9.13408C10.0694 8.90522 10.3447 8.73989 10.6486 8.65588ZM16.8886 18.6209H11.1109C10.6511 18.6209 10.2103 18.4383 9.8852 18.1132C9.56014 17.7882 9.37752 17.3473 9.37752 16.8876V15.7321H10.5331V16.3099C10.5331 16.4631 10.5939 16.6101 10.7023 16.7184C10.8107 16.8268 10.9576 16.8876 11.1109 16.8876C11.2641 16.8876 11.411 16.8268 11.5194 16.7184C11.6278 16.6101 11.6886 16.4631 11.6886 16.3099V15.7321H16.3109V16.3099C16.3109 16.4631 16.3717 16.6101 16.4801 16.7184C16.5884 16.8268 16.7354 16.8876 16.8886 16.8876C17.0419 16.8876 17.1888 16.8268 17.2972 16.7184C17.4055 16.6101 17.4664 16.4631 17.4664 16.3099V15.7321H18.622V16.8876C18.622 17.3473 18.4393 17.7882 18.1143 18.1132C17.7892 18.4383 17.3483 18.6209 16.8886 18.6209Z" fill="#052A43"/>
</svg>
