<svg width="37" height="36" viewBox="0 0 37 36" fill="none" xmlns="http://www.w3.org/2000/svg">
<g clip-path="url(#clip0_2151_13011)">
<path d="M33.4434 24.5503C33.4434 26.6175 32.8641 28.2909 32.1553 28.2909C31.4438 28.2909 30.8672 26.6175 30.8672 24.5503C30.8672 22.4831 31.4438 20.8069 32.1553 20.8069C32.8641 20.8069 33.4434 22.4859 33.4434 24.5503Z" fill="#2F2F2F"/>
<path d="M31.5938 27.9225C31.5938 27.9225 31.9369 28.4709 32.3081 28.6565C33.1491 29.0756 34.3191 28.9209 35.0222 27.9646L34.6453 25.6865L32.2659 26.1393L31.5938 27.9225Z" fill="#2F2F2F"/>
<path d="M7.16875 29.2893C7.16875 31.4971 6.38969 33.2887 5.43344 33.2887C4.47438 33.2887 3.69531 31.4971 3.69531 29.2893C3.69531 27.0787 4.47438 25.2871 5.43344 25.2871C6.38969 25.2899 7.16875 27.0787 7.16875 29.2893Z" fill="#2F2F2F"/>
<path d="M4.67578 32.8976C4.67578 32.8976 5.13703 33.4854 5.64328 33.6823C6.77672 34.1295 8.35172 33.9635 9.29953 32.9454L8.79047 30.5098L5.58422 30.9935L4.67578 32.8976Z" fill="#2F2F2F"/>
<path d="M10.3289 29.2893C10.3289 31.4971 9.54984 33.2887 8.59359 33.2887C7.63453 33.2887 6.85547 31.4971 6.85547 29.2893C6.85547 27.0787 7.63453 25.2871 8.59359 25.2871C9.54984 25.2899 10.3289 27.0787 10.3289 29.2893Z" fill="#2F2F2F"/>
<path d="M26.032 29.2893C26.032 31.4971 25.253 33.2887 24.2967 33.2887C23.3377 33.2887 22.5586 31.4971 22.5586 29.2893C22.5586 27.0787 23.3377 25.2871 24.2967 25.2871C25.253 25.2899 26.032 27.0787 26.032 29.2893Z" fill="#2F2F2F"/>
<path d="M23.5391 32.8976C23.5391 32.8976 24.0003 33.4854 24.5066 33.6823C25.64 34.1295 27.215 33.9635 28.1656 32.9454L27.6566 30.5098L24.4503 30.9935L23.5391 32.8976Z" fill="#2F2F2F"/>
<path d="M32.5644 3.43408H5.37031C2.54938 3.43408 0.546875 5.15814 0.546875 7.69502V25.7906C0.546875 28.6088 2.83344 30.8953 5.65156 30.8953H21.3088C25.4206 30.8953 26.765 30.3638 29.2794 28.7072C31.8641 27.0056 36.5019 24.1931 36.5019 21.8869V7.66971C36.5019 4.85158 35.3825 3.43408 32.5644 3.43408Z" fill="#FCC21B"/>
<mask id="mask0_2151_13011" style="mask-type:luminance" maskUnits="userSpaceOnUse" x="0" y="3" width="37" height="28">
<path d="M32.5644 3.43408H5.37031C2.54938 3.43408 0.546875 5.15814 0.546875 7.69502V25.7906C0.546875 28.6088 2.83344 30.8953 5.65156 30.8953H21.3088C25.4206 30.8953 26.765 30.3638 29.2794 28.7072C31.8641 27.0056 36.5019 24.1931 36.5019 21.8869V7.66971C36.5019 4.85158 35.3825 3.43408 32.5644 3.43408Z" fill="white"/>
</mask>
<g mask="url(#mask0_2151_13011)">
<path d="M0.394531 23.0821H24.6748V31.3593H0.394531V23.0821ZM24.6748 33.0721L37.4352 24.7331V15.4265L24.6748 23.0821V33.0721Z" fill="#ED6C30"/>
</g>
<path d="M23.0308 18.9084C23.0308 19.8534 22.263 20.624 21.3152 20.624H4.83391C3.88891 20.624 3.12109 19.8534 3.12109 18.9084V8.01274C3.12109 7.06774 3.88891 6.29712 4.83391 6.29712H21.3123C22.2602 6.29712 23.028 7.06774 23.028 8.01274V18.9084H23.0308Z" fill="#40C0E7"/>
<mask id="mask1_2151_13011" style="mask-type:luminance" maskUnits="userSpaceOnUse" x="3" y="6" width="21" height="15">
<path d="M23.0308 18.9084C23.0308 19.8534 22.263 20.624 21.3152 20.624H4.83391C3.88891 20.624 3.12109 19.8534 3.12109 18.9084V8.01274C3.12109 7.06774 3.88891 6.29712 4.83391 6.29712H21.3123C22.2602 6.29712 23.028 7.06774 23.028 8.01274V18.9084H23.0308Z" fill="white"/>
</mask>
<g mask="url(#mask1_2151_13011)">
<path d="M2.35938 5.63623H24.0156V10.665H2.35938V5.63623Z" fill="#2F2F2F"/>
</g>
<mask id="mask2_2151_13011" style="mask-type:luminance" maskUnits="userSpaceOnUse" x="3" y="6" width="21" height="15">
<path d="M23.0308 18.9084C23.0308 19.8534 22.263 20.624 21.3152 20.624H4.83391C3.88891 20.624 3.12109 19.8534 3.12109 18.9084V8.01274C3.12109 7.06774 3.88891 6.29712 4.83391 6.29712H21.3123C22.2602 6.29712 23.028 7.06774 23.028 8.01274V18.9084H23.0308Z" fill="white"/>
</mask>
<g mask="url(#mask2_2151_13011)">
<path d="M6.19141 7.30127H20.178V9.5794H6.19141V7.30127Z" fill="white"/>
</g>
<path d="M30.9945 13.7727C30.9945 14.504 30.567 15.3365 30.0073 15.6543L27.9233 16.8384C27.1527 17.2715 26.4805 16.8862 26.4805 15.9384V8.22648C26.4805 7.28148 27.1555 6.51367 27.9233 6.51367H30.0073C30.567 6.51367 30.9945 7.10711 30.9945 7.83273V13.7727ZM34.347 7.5318C34.347 6.97773 34.1417 6.52773 33.8773 6.52773H32.938C32.6117 6.52773 32.3305 7.06492 32.3305 7.72305V13.0837C32.3305 13.7418 32.6117 14.1074 32.938 13.9021L33.8773 13.3284C34.1417 13.1652 34.347 12.5915 34.347 12.0374V7.5318Z" fill="#40C0E7"/>
<path d="M5.02203 28.3556C6.08915 28.3556 6.95422 27.4918 6.95422 26.4262C6.95422 25.3606 6.08915 24.4968 5.02203 24.4968C3.95491 24.4968 3.08984 25.3606 3.08984 26.4262C3.08984 27.4918 3.95491 28.3556 5.02203 28.3556Z" fill="white"/>
<path d="M22.755 26.4262C22.755 27.4921 21.8888 28.3556 20.82 28.3556C19.7569 28.3556 18.8906 27.4921 18.8906 26.4262C18.8906 25.3575 19.7541 24.4968 20.82 24.4968C21.8888 24.4968 22.755 25.3575 22.755 26.4262Z" fill="white"/>
<path d="M29.1922 29.2894C29.1922 31.4972 28.4131 33.2888 27.4569 33.2888C26.4978 33.2888 25.7188 31.4972 25.7188 29.2894C25.7188 27.0788 26.4978 25.2872 27.4569 25.2872C28.4131 25.29 29.1922 27.0788 29.1922 29.2894ZM35.7847 24.5503C35.7847 26.6175 35.2081 28.2909 34.4966 28.2909C33.785 28.2909 33.2084 26.6175 33.2084 24.5503C33.2084 22.4831 33.785 20.8069 34.4966 20.8069C35.2109 20.8069 35.7847 22.4859 35.7847 24.5503Z" fill="#2F2F2F"/>
</g>
<defs>
<clipPath id="clip0_2151_13011">
<rect width="36" height="36" fill="white" transform="translate(0.5)"/>
</clipPath>
</defs>
</svg>
