<svg width="56" height="57" viewBox="0 0 56 57" fill="none" xmlns="http://www.w3.org/2000/svg">
<rect y="0.5" width="56" height="56" rx="10" fill="#14AE5C"/>
<path d="M11.6796 13.7093L16.1818 9.20711C16.5723 8.81658 17.2055 8.81658 17.596 9.20711L25.0707 16.6818C25.4612 17.0723 25.4612 17.7055 25.0707 18.096L21.843 21.3237C21.5386 21.628 21.4632 22.093 21.6557 22.478L22.3491 23.8649C24.5747 28.3161 28.1839 31.9253 32.6351 34.1509L34.022 34.8443C34.407 35.0368 34.872 34.9614 35.1763 34.657L38.404 31.4293C38.7945 31.0388 39.4277 31.0388 39.8182 31.4293L47.2929 38.904C47.6834 39.2945 47.6834 39.9277 47.2929 40.3182L42.7907 44.8204C40.6794 46.9317 37.3368 47.1693 34.9481 45.3777L23.9619 37.1381C22.2184 35.8304 20.6696 34.2816 19.3619 32.5381L11.1223 21.5519C9.33072 19.1632 9.56827 15.8206 11.6796 13.7093Z" stroke="white" stroke-width="1.5"/>
</svg>
