<svg width="31" height="30" viewBox="0 0 31 30" fill="none" xmlns="http://www.w3.org/2000/svg">
<path d="M29.9244 4.71903C29.6409 4.57457 29.3007 4.57457 29.0173 4.67088L26.9196 5.53765C26.466 5.73027 26.2392 6.21181 26.466 6.6452C26.6928 7.03043 27.2597 7.22305 27.77 7.03043L28.4503 6.74151L28.5637 24.703L20.7399 27.9293V15.6019C20.7399 15.1685 20.2863 14.7832 19.7761 14.7832C19.2658 14.7832 18.8123 15.1685 18.8123 15.6019V28.0256L9.85457 24.9438V21.7656C10.8751 20.8507 13.5964 18.154 13.5964 16.3723C13.5964 14.4462 11.9523 12.8089 9.85457 12.4718V6.54889L11.5554 7.03043C12.0656 7.17489 12.5759 6.93412 12.746 6.54889C12.9161 6.16366 12.6326 5.68212 12.179 5.53765L9.17424 4.67088C8.94746 4.62273 8.66399 4.62273 8.43721 4.71903L0.896861 7.8972C0.670084 8.04167 0.5 8.33059 0.5 8.61952V28.3627C0.5 28.6516 0.670083 28.8924 0.953554 29.0369C1.23703 29.1813 1.57719 29.2295 1.86066 29.085L9.17424 26.4365L19.4926 29.9518C19.606 29.9999 19.7194 29.9999 19.8328 29.9999C20.0029 29.9999 20.1162 29.9518 20.2296 29.9036L29.9811 25.9068C30.3212 25.7624 30.548 25.4734 30.4913 25.1845L30.3212 5.44135C30.3779 5.15242 30.2078 4.8635 29.9244 4.71903ZM11.7822 16.3723C11.7822 17.1909 10.3081 18.9726 9.00415 20.2728C7.70018 18.9726 6.22613 17.2391 6.22613 16.3723C6.22613 15.0722 7.47341 14.0128 9.00415 14.0128C10.5349 14.0128 11.7822 15.0722 11.7822 16.3723ZM2.42761 9.10106L8.04035 6.74151V12.4718C5.88596 12.8571 4.29852 14.4462 4.29852 16.3723C4.29852 18.154 7.01985 20.8507 8.04035 21.7656V25.0882L2.42761 27.1588V9.10106Z" fill="white"/>
<path d="M7.81445 16.4206C7.81445 16.9503 8.3247 17.3837 8.94834 17.3837C9.57198 17.3837 10.0822 16.9503 10.0822 16.4206C10.0822 15.8909 9.57198 15.4575 8.94834 15.4575C8.3247 15.4575 7.81445 15.8909 7.81445 16.4206Z" fill="white"/>
<path d="M19.8323 0C16.2606 0 13.3691 2.45586 13.3691 5.48957C13.3691 8.33066 18.6984 13.0979 19.2654 13.6276L19.7756 14.061L20.2859 13.6276C20.9095 13.0979 26.1821 8.33066 26.1821 5.48957C26.2388 2.45586 23.3473 0 19.8323 0ZM19.8323 3.65971C20.9095 3.65971 21.8166 4.38202 21.8166 5.3451C21.8166 6.26003 20.9662 7.0305 19.8323 7.0305C18.6984 7.0305 17.848 6.30819 17.848 5.3451C17.848 4.43018 18.7551 3.65971 19.8323 3.65971Z" fill="white"/>
</svg>
