<svg width="30" height="30" viewBox="0 0 30 30" fill="none" xmlns="http://www.w3.org/2000/svg">
<path d="M19.1667 14.5833C18.5833 14.5833 18.09 14.3817 17.6867 13.9783C17.2833 13.575 17.0822 13.0822 17.0833 12.5C17.0844 11.9178 17.2861 11.4244 17.6883 11.02C18.0905 10.6156 18.5833 10.4144 19.1667 10.4167C19.75 10.4189 20.2433 10.6206 20.6467 11.0217C21.05 11.4228 21.2511 11.9156 21.25 12.5C21.2489 13.0844 21.0472 13.5778 20.645 13.98C20.2428 14.3822 19.75 14.5833 19.1667 14.5833ZM10.8333 14.5833C10.25 14.5833 9.75666 14.3817 9.35333 13.9783C8.95 13.575 8.74889 13.0822 8.75 12.5C8.75111 11.9178 8.95277 11.4244 9.355 11.02C9.75722 10.6156 10.25 10.4144 10.8333 10.4167C11.4167 10.4189 11.91 10.6206 12.3133 11.0217C12.7167 11.4228 12.9178 11.9156 12.9167 12.5C12.9155 13.0844 12.7139 13.5778 12.3117 13.98C11.9094 14.3822 11.4167 14.5833 10.8333 14.5833ZM15 23.3333C13.3333 23.3333 11.8261 22.875 10.4783 21.9583C9.13055 21.0417 8.13777 19.8333 7.5 18.3333H22.5C21.8611 19.8333 20.8683 21.0417 19.5217 21.9583C18.175 22.875 16.6678 23.3333 15 23.3333ZM15 30C12.9167 30 10.9655 29.6044 9.14666 28.8133C7.32777 28.0222 5.74444 26.9528 4.39667 25.605C3.04889 24.2572 1.97945 22.6739 1.18833 20.855C0.397224 19.0361 0.00111344 17.0844 2.331e-06 15C-0.00110878 12.9156 0.395002 10.9644 1.18833 9.14667C1.98167 7.32889 3.05056 5.74556 4.395 4.39667C5.73944 3.04778 7.32278 1.97834 9.145 1.18834C10.9672 0.398342 12.9189 0.00223152 15 9.29799e-06C17.0811 -0.00221292 19.0328 0.393898 20.855 1.18834C22.6772 1.98279 24.2605 3.05167 25.605 4.39501C26.9494 5.73834 28.0189 7.32167 28.8133 9.145C29.6078 10.9683 30.0033 12.92 30 15C29.9966 17.08 29.6011 19.0317 28.8133 20.855C28.0255 22.6783 26.9561 24.2617 25.605 25.605C24.2539 26.9483 22.6705 28.0178 20.855 28.8133C19.0394 29.6089 17.0878 30.0044 15 30ZM15 26.6667C18.2222 26.6667 20.9722 25.5278 23.25 23.25C25.5278 20.9722 26.6667 18.2222 26.6667 15C26.6667 11.7778 25.5278 9.02778 23.25 6.75C20.9722 4.47223 18.2222 3.33334 15 3.33334H14.5C14.3333 3.33334 14.1667 3.36112 14 3.41667C13.8333 3.58334 13.7222 3.7639 13.6667 3.95834C13.6111 4.15278 13.5833 4.36112 13.5833 4.58334C13.5833 5.16667 13.7844 5.66001 14.1867 6.06334C14.5889 6.46667 15.0822 6.66778 15.6667 6.66667C15.9167 6.66667 16.1461 6.625 16.355 6.54167C16.5639 6.45834 16.7789 6.41667 17 6.41667C17.3333 6.41667 17.6111 6.54167 17.8333 6.79167C18.0555 7.04167 18.1667 7.33334 18.1667 7.66667C18.1667 8.30556 17.8678 8.71556 17.27 8.89667C16.6722 9.07778 16.1378 9.16778 15.6667 9.16667C14.4167 9.16667 13.3405 8.71556 12.4383 7.81334C11.5361 6.91112 11.0844 5.83445 11.0833 4.58334V4.33334C11.0833 4.25001 11.0972 4.1389 11.125 4.00001C8.81944 4.83334 6.94444 6.23612 5.5 8.20834C4.05556 10.1806 3.33333 12.4444 3.33333 15C3.33333 18.2222 4.47222 20.9722 6.75 23.25C9.02777 25.5278 11.7778 26.6667 15 26.6667Z" fill="white"/>
</svg>
