<svg width="28" height="28" viewBox="0 0 28 28" fill="none" xmlns="http://www.w3.org/2000/svg">
<circle cx="14" cy="14" r="13" stroke="#052A43"  stroke-width="2"/>
<path d="M16.1023 10.5336C16.1023 11.6934 15.1621 12.6336 14.0023 12.6336C12.8425 12.6336 11.9023 11.6934 11.9023 10.5336C11.9023 9.3738 12.8425 8.43359 14.0023 8.43359C15.1621 8.43359 16.1023 9.3738 16.1023 10.5336Z" stroke="#052A43" stroke-linecap="round"/>
<path d="M15.5924 9.26693C15.7572 8.98145 16.003 8.75127 16.2987 8.60547C16.5943 8.45968 16.9265 8.40483 17.2534 8.44785C17.5802 8.49088 17.8869 8.62985 18.1347 8.84719C18.3825 9.06454 18.5604 9.35049 18.6457 9.6689C18.731 9.9873 18.72 10.3239 18.614 10.636C18.5081 10.9481 18.3119 11.2218 18.0504 11.4225C17.7889 11.6232 17.4737 11.7418 17.1448 11.7634C16.8159 11.7849 16.4879 11.7085 16.2025 11.5436" stroke="#052A43" />
<path d="M12.4115 9.26693C12.2467 8.98145 12.0009 8.75127 11.7052 8.60547C11.4096 8.45968 11.0774 8.40483 10.7506 8.44785C10.4237 8.49088 10.117 8.62985 9.86919 8.84719C9.62136 9.06454 9.44354 9.35049 9.35822 9.6689C9.27291 9.9873 9.28392 10.3239 9.38988 10.636C9.49584 10.9481 9.69198 11.2218 9.9535 11.4225C10.215 11.6232 10.5302 11.7418 10.8591 11.7634C11.188 11.7849 11.516 11.7085 11.8014 11.5436" stroke="#052A43" />
<path d="M14.001 14.4336C17.4342 14.4336 18.3946 17.1311 18.6633 18.6404C18.7601 19.1841 18.32 19.6336 17.7677 19.6336H10.2344C9.68209 19.6336 9.24194 19.1841 9.33874 18.6404C9.60744 17.1311 10.5679 14.4336 14.001 14.4336Z" stroke="#052A43" stroke-opacity="0.5" stroke-linecap="round"/>
<path d="M20.2878 16.8183L19.805 16.9483L20.2878 16.8183ZM14.9434 14.508L14.5741 14.1709L13.9537 14.8504L14.8614 15.0013L14.9434 14.508ZM18.4917 17.9002L18.0114 18.0392L18.1158 18.4002H18.4917V17.9002ZM17.0345 14.0669C17.8689 14.0669 18.462 14.4587 18.9055 15.0209C19.36 15.5972 19.6401 16.336 19.805 16.9483L20.7706 16.6882C20.5898 16.0171 20.2653 15.1302 19.6907 14.4016C19.105 13.6591 18.2443 13.0669 17.0345 13.0669V14.0669ZM15.3126 14.8451C15.7359 14.3815 16.2857 14.0669 17.0345 14.0669V13.0669C15.9577 13.0669 15.1527 13.5371 14.5741 14.1709L15.3126 14.8451ZM14.8614 15.0013C16.8185 15.3265 17.6489 16.7862 18.0114 18.0392L18.972 17.7613C18.5604 16.3387 17.5319 14.4313 15.0253 14.0148L14.8614 15.0013ZM19.3962 17.4002H18.4917V18.4002H19.3962V17.4002ZM19.805 16.9483C19.837 17.0672 19.8078 17.1701 19.7396 17.2508C19.6679 17.3357 19.5471 17.4002 19.3962 17.4002V18.4002C20.2637 18.4002 21.0234 17.6267 20.7706 16.6882L19.805 16.9483Z" fill="#052A43" />
<path d="M13.0603 14.508L13.1422 15.0013L14.0499 14.8504L13.4295 14.1709L13.0603 14.508ZM7.7158 16.8183L7.23301 16.6882L7.7158 16.8183ZM9.51194 17.9002V18.4002H9.88779L9.99224 18.0392L9.51194 17.9002ZM10.9691 14.0669C11.718 14.0669 12.2677 14.3815 12.691 14.8451L13.4295 14.1709C12.8509 13.5371 12.0459 13.0669 10.9691 13.0669V14.0669ZM8.19859 16.9483C8.36354 16.336 8.64359 15.5972 9.09812 15.0209C9.54161 14.4587 10.1347 14.0669 10.9691 14.0669V13.0669C9.75931 13.0669 8.89864 13.6591 8.31296 14.4016C7.73832 15.1302 7.4138 16.0171 7.23301 16.6882L8.19859 16.9483ZM8.60739 17.4002C8.45652 17.4002 8.3357 17.3357 8.26398 17.2508C8.1958 17.1701 8.16658 17.0672 8.19859 16.9483L7.23301 16.6882C6.98022 17.6267 7.73987 18.4002 8.60739 18.4002V17.4002ZM9.51194 17.4002H8.60739V18.4002H9.51194V17.4002ZM9.99224 18.0392C10.3548 16.7862 11.1851 15.3265 13.1422 15.0013L12.9783 14.0148C10.4717 14.4313 9.44321 16.3387 9.03164 17.7613L9.99224 18.0392Z" fill="#052A43" />
</svg>
