<svg width="24" height="24" viewBox="0 0 24 24" fill="none" xmlns="http://www.w3.org/2000/svg">
<path d="M7.5 2.66921C7.10218 2.66921 6.72064 2.80964 6.43934 3.05963C6.15804 3.30961 6 3.64865 6 4.00218C6 4.3557 6.15804 4.69475 6.43934 4.94473C6.72064 5.19471 7.10218 5.33515 7.5 5.33515C7.89782 5.33515 8.27935 5.19471 8.56066 4.94473C8.84196 4.69475 9 4.3557 9 4.00218C9 3.64865 8.84196 3.30961 8.56066 3.05963C8.27935 2.80964 7.89782 2.66921 7.5 2.66921ZM3.255 2.66921C3.5649 1.88871 4.13961 1.21285 4.8999 0.734787C5.66019 0.256724 6.56863 0 7.5 0C8.43137 0 9.33981 0.256724 10.1001 0.734787C10.8604 1.21285 11.4351 1.88871 11.745 2.66921H22.5C22.8978 2.66921 23.2794 2.80964 23.5607 3.05963C23.842 3.30961 24 3.64865 24 4.00218C24 4.3557 23.842 4.69475 23.5607 4.94473C23.2794 5.19471 22.8978 5.33515 22.5 5.33515H11.745C11.4351 6.11565 10.8604 6.79151 10.1001 7.26957C9.33981 7.74763 8.43137 8.00436 7.5 8.00436C6.56863 8.00436 5.66019 7.74763 4.8999 7.26957C4.13961 6.79151 3.5649 6.11565 3.255 5.33515H1.5C1.10218 5.33515 0.720645 5.19471 0.43934 4.94473C0.158036 4.69475 0 4.3557 0 4.00218C0 3.64865 0.158036 3.30961 0.43934 3.05963C0.720645 2.80964 1.10218 2.66921 1.5 2.66921H3.255ZM16.5 10.667C16.1022 10.667 15.7206 10.8075 15.4393 11.0574C15.158 11.3074 15 11.6465 15 12C15 12.3535 15.158 12.6926 15.4393 12.9426C15.7206 13.1925 16.1022 13.333 16.5 13.333C16.8978 13.333 17.2794 13.1925 17.5607 12.9426C17.842 12.6926 18 12.3535 18 12C18 11.6465 17.842 11.3074 17.5607 11.0574C17.2794 10.8075 16.8978 10.667 16.5 10.667ZM12.255 10.667C12.5649 9.88653 13.1396 9.21067 13.8999 8.73261C14.6602 8.25455 15.5686 7.99782 16.5 7.99782C17.4314 7.99782 18.3398 8.25455 19.1001 8.73261C19.8604 9.21067 20.4351 9.88653 20.745 10.667H22.5C22.8978 10.667 23.2794 10.8075 23.5607 11.0574C23.842 11.3074 24 11.6465 24 12C24 12.3535 23.842 12.6926 23.5607 12.9426C23.2794 13.1925 22.8978 13.333 22.5 13.333H20.745C20.4351 14.1135 19.8604 14.7893 19.1001 15.2674C18.3398 15.7455 17.4314 16.0022 16.5 16.0022C15.5686 16.0022 14.6602 15.7455 13.8999 15.2674C13.1396 14.7893 12.5649 14.1135 12.255 13.333H1.5C1.10218 13.333 0.720645 13.1925 0.43934 12.9426C0.158036 12.6926 0 12.3535 0 12C0 11.6465 0.158036 11.3074 0.43934 11.0574C0.720645 10.8075 1.10218 10.667 1.5 10.667H12.255ZM7.5 18.6649C7.10218 18.6649 6.72064 18.8053 6.43934 19.0553C6.15804 19.3052 6 19.6443 6 19.9978C6 20.3513 6.15804 20.6904 6.43934 20.9404C6.72064 21.1904 7.10218 21.3308 7.5 21.3308C7.89782 21.3308 8.27935 21.1904 8.56066 20.9404C8.84196 20.6904 9 20.3513 9 19.9978C9 19.6443 8.84196 19.3052 8.56066 19.0553C8.27935 18.8053 7.89782 18.6649 7.5 18.6649ZM3.255 18.6649C3.5649 17.8844 4.13961 17.2085 4.8999 16.7304C5.66019 16.2524 6.56863 15.9956 7.5 15.9956C8.43137 15.9956 9.33981 16.2524 10.1001 16.7304C10.8604 17.2085 11.4351 17.8844 11.745 18.6649H22.5C22.8978 18.6649 23.2794 18.8053 23.5607 19.0553C23.842 19.3052 24 19.6443 24 19.9978C24 20.3513 23.842 20.6904 23.5607 20.9404C23.2794 21.1904 22.8978 21.3308 22.5 21.3308H11.745C11.4351 22.1113 10.8604 22.7872 10.1001 23.2652C9.33981 23.7433 8.43137 24 7.5 24C6.56863 24 5.66019 23.7433 4.8999 23.2652C4.13961 22.7872 3.5649 22.1113 3.255 21.3308H1.5C1.10218 21.3308 0.720645 21.1904 0.43934 20.9404C0.158036 20.6904 0 20.3513 0 19.9978C0 19.6443 0.158036 19.3052 0.43934 19.0553C0.720645 18.8053 1.10218 18.6649 1.5 18.6649H3.255Z" fill="#FDC70A"/>
</svg>
