<svg width="30" height="31" viewBox="0 0 30 31" fill="none" xmlns="http://www.w3.org/2000/svg">
<path d="M11.25 6.74989C10.9185 6.74989 10.6005 6.88159 10.3661 7.11601C10.1317 7.35043 10 7.66837 10 7.99989C10 8.33141 10.1317 8.64935 10.3661 8.88377C10.6005 9.11819 10.9185 9.24989 11.25 9.24989C11.5815 9.24989 11.8995 9.11819 12.1339 8.88377C12.3683 8.64935 12.5 8.33141 12.5 7.99989C12.5 7.66837 12.3683 7.35043 12.1339 7.11601C11.8995 6.88159 11.5815 6.74989 11.25 6.74989ZM7.7125 6.74989C7.97075 6.01797 8.44967 5.38418 9.08325 4.93588C9.71683 4.48757 10.4739 4.24683 11.25 4.24683C12.0261 4.24683 12.7832 4.48757 13.4167 4.93588C14.0503 5.38418 14.5292 6.01797 14.7875 6.74989H23.75C24.0815 6.74989 24.3995 6.88159 24.6339 7.11601C24.8683 7.35043 25 7.66837 25 7.99989C25 8.33141 24.8683 8.64935 24.6339 8.88377C24.3995 9.11819 24.0815 9.24989 23.75 9.24989H14.7875C14.5292 9.98181 14.0503 10.6156 13.4167 11.0639C12.7832 11.5122 12.0261 11.753 11.25 11.753C10.4739 11.753 9.71683 11.5122 9.08325 11.0639C8.44967 10.6156 7.97075 9.98181 7.7125 9.24989H6.25C5.91848 9.24989 5.60054 9.11819 5.36612 8.88377C5.1317 8.64935 5 8.33141 5 7.99989C5 7.66837 5.1317 7.35043 5.36612 7.11601C5.60054 6.88159 5.91848 6.74989 6.25 6.74989H7.7125ZM18.75 14.2499C18.4185 14.2499 18.1005 14.3816 17.8661 14.616C17.6317 14.8504 17.5 15.1684 17.5 15.4999C17.5 15.8314 17.6317 16.1494 17.8661 16.3838C18.1005 16.6182 18.4185 16.7499 18.75 16.7499C19.0815 16.7499 19.3995 16.6182 19.6339 16.3838C19.8683 16.1494 20 15.8314 20 15.4999C20 15.1684 19.8683 14.8504 19.6339 14.616C19.3995 14.3816 19.0815 14.2499 18.75 14.2499ZM15.2125 14.2499C15.4708 13.518 15.9497 12.8842 16.5833 12.4359C17.2168 11.9876 17.9739 11.7468 18.75 11.7468C19.5261 11.7468 20.2832 11.9876 20.9167 12.4359C21.5503 12.8842 22.0292 13.518 22.2875 14.2499H23.75C24.0815 14.2499 24.3995 14.3816 24.6339 14.616C24.8683 14.8504 25 15.1684 25 15.4999C25 15.8314 24.8683 16.1494 24.6339 16.3838C24.3995 16.6182 24.0815 16.7499 23.75 16.7499H22.2875C22.0292 17.4818 21.5503 18.1156 20.9167 18.5639C20.2832 19.0122 19.5261 19.253 18.75 19.253C17.9739 19.253 17.2168 19.0122 16.5833 18.5639C15.9497 18.1156 15.4708 17.4818 15.2125 16.7499H6.25C5.91848 16.7499 5.60054 16.6182 5.36612 16.3838C5.1317 16.1494 5 15.8314 5 15.4999C5 15.1684 5.1317 14.8504 5.36612 14.616C5.60054 14.3816 5.91848 14.2499 6.25 14.2499H15.2125ZM11.25 21.7499C10.9185 21.7499 10.6005 21.8816 10.3661 22.116C10.1317 22.3504 10 22.6684 10 22.9999C10 23.3314 10.1317 23.6494 10.3661 23.8838C10.6005 24.1182 10.9185 24.2499 11.25 24.2499C11.5815 24.2499 11.8995 24.1182 12.1339 23.8838C12.3683 23.6494 12.5 23.3314 12.5 22.9999C12.5 22.6684 12.3683 22.3504 12.1339 22.116C11.8995 21.8816 11.5815 21.7499 11.25 21.7499ZM7.7125 21.7499C7.97075 21.018 8.44967 20.3842 9.08325 19.9359C9.71683 19.4876 10.4739 19.2468 11.25 19.2468C12.0261 19.2468 12.7832 19.4876 13.4167 19.9359C14.0503 20.3842 14.5292 21.018 14.7875 21.7499H23.75C24.0815 21.7499 24.3995 21.8816 24.6339 22.116C24.8683 22.3504 25 22.6684 25 22.9999C25 23.3314 24.8683 23.6494 24.6339 23.8838C24.3995 24.1182 24.0815 24.2499 23.75 24.2499H14.7875C14.5292 24.9818 14.0503 25.6156 13.4167 26.0639C12.7832 26.5122 12.0261 26.753 11.25 26.753C10.4739 26.753 9.71683 26.5122 9.08325 26.0639C8.44967 25.6156 7.97075 24.9818 7.7125 24.2499H6.25C5.91848 24.2499 5.60054 24.1182 5.36612 23.8838C5.1317 23.6494 5 23.3314 5 22.9999C5 22.6684 5.1317 22.3504 5.36612 22.116C5.60054 21.8816 5.91848 21.7499 6.25 21.7499H7.7125Z" fill="#FDC70A"/>
</svg>
