<svg width="19" height="18" viewBox="0 0 19 18" fill="none" xmlns="http://www.w3.org/2000/svg">
<path d="M17.1064 7.75004H17.4385C17.958 7.75004 18.376 7.33207 18.376 6.81254V1.81254C18.376 1.43363 18.1494 1.08988 17.7979 0.945348C17.4463 0.800817 17.0439 0.878942 16.7744 1.14847L15.1494 2.77347C11.7275 -0.605433 6.21582 -0.593714 2.81348 2.81254C-0.604492 6.2305 -0.604492 11.7696 2.81348 15.1875C6.23145 18.6055 11.7705 18.6055 15.1885 15.1875C15.6768 14.6993 15.6768 13.9063 15.1885 13.418C14.7002 12.9297 13.9072 12.9297 13.4189 13.418C10.9775 15.8594 7.02051 15.8594 4.5791 13.418C2.1377 10.9766 2.1377 7.01957 4.5791 4.57816C7.00879 2.14847 10.9346 2.13675 13.3799 4.5391L11.7744 6.14847C11.5049 6.418 11.4268 6.82035 11.5713 7.17191C11.7158 7.52347 12.0596 7.75004 12.4385 7.75004H17.1064Z" fill="#2FD159"/>
</svg>
