<svg width="28" height="28" viewBox="0 0 28 28" fill="none" xmlns="http://www.w3.org/2000/svg">
<circle cx="14" cy="14" r="13" stroke="#052A43" stroke-width="2"/>
<path d="M19.939 14.3284L19.939 14.3284L19.9428 14.3327C20.0943 14.5026 20.1726 14.5934 20.2224 14.6768C20.2591 14.7383 20.275 14.7877 20.275 14.8667C20.275 15.063 20.1232 15.2333 19.9106 15.2333H19.0463H18.5463V15.7333V20.0667C18.5463 20.2684 18.3799 20.4333 18.1819 20.4333H9.53838C9.34038 20.4333 9.17402 20.2684 9.17402 20.0667V15.7333V15.2333H8.67402H7.80967C7.5971 15.2333 7.44531 15.063 7.44531 14.8667C7.44531 14.7877 7.46116 14.7384 7.49785 14.6769C7.54763 14.5936 7.62609 14.5028 7.77771 14.333L7.77774 14.333L7.78175 14.3284L9.05106 12.8711L9.17402 12.7299V12.5427V8.79998C9.17402 8.59647 9.33866 8.43332 9.53838 8.43332C9.7381 8.43332 9.90273 8.59647 9.90273 8.79998V10.5585V11.8937L10.7798 10.8869L13.3685 7.91485C13.6295 7.63087 13.7087 7.56665 13.8602 7.56665C14.0116 7.56665 14.0908 7.63087 14.3518 7.91486L19.939 14.3284ZM9.69958 14.5H9.90273V19.2V19.7H10.4027H12.1314H12.6314V19.2V16.2333H15.0889V19.2V19.7H15.5889H17.3176H17.8176V19.2V14.5H18.0207H19.1195L18.3977 13.6715L14.2372 8.89578L13.8602 8.46304L13.4832 8.89578L9.32258 13.6715L8.60086 14.5H9.69958Z" stroke="#052A43" />
</svg>
