<svg width="56" height="57" viewBox="0 0 56 57" fill="none" xmlns="http://www.w3.org/2000/svg">
<rect y="0.5" width="56" height="56" rx="10" fill="#052A43"/>
<path d="M28.56 43.9237C29.968 43.817 31.3573 43.5773 32.728 43.2047C34.4147 43.7439 36.1943 43.8665 37.932 43.5631C38.001 43.5536 38.0704 43.5479 38.14 43.546C38.76 43.546 39.574 43.9258 40.76 44.7258V43.4116C40.7603 43.1827 40.8182 42.958 40.9276 42.761C41.037 42.564 41.1939 42.4019 41.382 42.2916C41.898 41.9865 42.378 41.6302 42.816 41.2419C44.544 39.6994 45.52 37.6449 45.52 35.4688C45.5193 34.7492 45.412 34.0342 45.202 33.3503C45.722 32.3263 46.146 31.2468 46.456 30.1288C47.456 31.7076 47.996 33.5637 48 35.4688C48 38.4258 46.692 41.1865 44.43 43.2026C44.0516 43.5384 43.6542 43.849 43.24 44.1327V47.2092C43.24 48.2673 42.08 48.8732 41.262 48.246C40.4881 47.6364 39.6872 47.0668 38.862 46.5393C38.6247 46.3905 38.3781 46.2593 38.124 46.1467C37.444 46.2548 36.752 46.3096 36.048 46.311C33.224 46.311 30.614 45.4192 28.56 43.9237ZM13.628 37.7666C10.06 34.5877 8 30.244 8 25.5974C8 16.0951 16.516 8.5 26.914 8.5C37.312 8.5 45.83 16.0951 45.83 25.5974C45.83 35.0997 37.312 42.6927 26.914 42.6927C25.7447 42.6927 24.5927 42.5981 23.458 42.4089C22.968 42.5305 21.01 43.7551 18.188 45.9248C17.168 46.7121 15.716 45.9526 15.716 44.6277V39.3794C14.9849 38.8971 14.2871 38.3595 13.628 37.7708M23.528 39.1746C23.612 39.1746 23.6987 39.1817 23.788 39.196C24.8212 39.3787 25.8667 39.4701 26.914 39.469C35.698 39.469 42.728 33.1989 42.728 25.5974C42.728 17.9959 35.698 11.7279 26.914 11.7279C18.134 11.7279 11.1 17.9981 11.1 25.5974C11.1 29.2733 12.742 32.7338 15.646 35.3238C16.3793 35.9752 17.1767 36.559 18.038 37.0753C18.52 37.3633 18.818 37.8967 18.818 38.4727V41.5001C21.05 39.9213 22.518 39.1746 23.526 39.1746" fill="white"/>
<path d="M19.25 28.4986C19.913 28.4986 20.5489 28.2177 21.0178 27.7176C21.4866 27.2174 21.75 26.5391 21.75 25.8318C21.75 25.1246 21.4866 24.4462 21.0178 23.9461C20.5489 23.446 19.913 23.165 19.25 23.165C18.587 23.165 17.9511 23.446 17.4822 23.9461C17.0134 24.4462 16.75 25.1246 16.75 25.8318C16.75 26.5391 17.0134 27.2174 17.4822 27.7176C17.9511 28.2177 18.587 28.4986 19.25 28.4986ZM27.374 28.4986C28.037 28.4986 28.6729 28.2177 29.1418 27.7176C29.6106 27.2174 29.874 26.5391 29.874 25.8318C29.874 25.1246 29.6106 24.4462 29.1418 23.9461C28.6729 23.446 28.037 23.165 27.374 23.165C26.711 23.165 26.0751 23.446 25.6062 23.9461C25.1374 24.4462 24.874 25.1246 24.874 25.8318C24.874 26.5391 25.1374 27.2174 25.6062 27.7176C26.0751 28.2177 26.711 28.4986 27.374 28.4986ZM35.5 28.5008C36.163 28.5008 36.7989 28.2198 37.2678 27.7197C37.7366 27.2196 38 26.5413 38 25.834C38 25.1267 37.7366 24.4484 37.2678 23.9483C36.7989 23.4481 36.163 23.1672 35.5 23.1672C34.837 23.1672 34.2011 23.4481 33.7322 23.9483C33.2634 24.4484 33 25.1267 33 25.834C33 26.5413 33.2634 27.2196 33.7322 27.7197C34.2011 28.2198 34.837 28.5008 35.5 28.5008Z" fill="white"/>
</svg>
