<svg width="31" height="26" viewBox="0 0 31 26" fill="none" xmlns="http://www.w3.org/2000/svg">
<path d="M20.8109 16.4722C20.5622 16.4722 20.3237 16.582 20.1479 16.7773C19.972 16.9727 19.8732 17.2376 19.8732 17.5139C19.8732 17.7902 19.972 18.0551 20.1479 18.2505C20.3237 18.4458 20.5622 18.5556 20.8109 18.5556H25.1866C25.4353 18.5556 25.6738 18.4458 25.8496 18.2505C26.0255 18.0551 26.1243 17.7902 26.1243 17.5139C26.1243 17.2376 26.0255 16.9727 25.8496 16.7773C25.6738 16.582 25.4353 16.4722 25.1866 16.4722H20.8109ZM0.5 5.70833C0.5 4.327 0.993942 3.00224 1.87317 2.02549C2.75239 1.04873 3.94487 0.5 5.18828 0.5H25.8117C27.0551 0.5 28.2476 1.04873 29.1268 2.02549C30.0061 3.00224 30.5 4.327 30.5 5.70833V20.2917C30.5 21.673 30.0061 22.9978 29.1268 23.9745C28.2476 24.9513 27.0551 25.5 25.8117 25.5H5.18953C3.94612 25.5 2.75364 24.9513 1.87442 23.9745C0.995193 22.9978 0.50125 21.673 0.50125 20.2917L0.5 5.70833ZM5.18828 2.58333C4.44224 2.58333 3.72675 2.91257 3.19921 3.49862C2.67168 4.08468 2.37531 4.87953 2.37531 5.70833V6.75H28.6247V5.70833C28.6247 4.87953 28.3283 4.08468 27.8008 3.49862C27.2733 2.91257 26.5578 2.58333 25.8117 2.58333H5.18828ZM2.37531 20.2917C2.37531 21.1205 2.67168 21.9153 3.19921 22.5014C3.72675 23.0874 4.44224 23.4167 5.18828 23.4167H25.8117C26.5578 23.4167 27.2733 23.0874 27.8008 22.5014C28.3283 21.9153 28.6247 21.1205 28.6247 20.2917V8.83333H2.37656L2.37531 20.2917Z" fill="white"/>
</svg>
