<svg width="28" height="28" viewBox="0 0 28 28" fill="none" xmlns="http://www.w3.org/2000/svg">
<circle cx="14" cy="14" r="13" stroke="#052A43" stroke-width="2"/>
<path d="M17.0862 14.4377C17.6859 13.8295 18.0923 13.0577 18.2544 12.2193C18.4165 11.3809 18.327 10.5133 17.9971 9.72564C17.6673 8.93794 17.1119 8.26527 16.4006 7.79216C15.6894 7.31906 14.8541 7.06665 13.9997 7.06665C13.1454 7.06665 12.3101 7.31906 11.5989 7.79216C10.8876 8.26527 10.3322 8.93794 10.0023 9.72564C9.67252 10.5133 9.58302 11.3809 9.7451 12.2193C9.90718 13.0577 10.3136 13.8295 10.9133 14.4377C9.78132 14.8824 8.80924 15.657 8.12326 16.6608C7.43727 17.6647 7.06906 18.8515 7.06641 20.0671C7.06634 20.1809 7.08871 20.2936 7.13225 20.3987C7.17578 20.5038 7.23961 20.5993 7.3201 20.6798C7.40059 20.7602 7.49616 20.824 7.60134 20.8675C7.70652 20.911 7.81924 20.9334 7.93307 20.9333H20.0664C20.1802 20.9334 20.293 20.911 20.3981 20.8675C20.5033 20.824 20.5989 20.7602 20.6794 20.6798C20.7599 20.5993 20.8237 20.5038 20.8672 20.3987C20.9108 20.2936 20.9331 20.1809 20.9331 20.0671C20.9304 18.8515 20.5622 17.6647 19.8762 16.6608C19.1902 15.657 18.2182 14.8824 17.0862 14.4377ZM13.9997 8.80651C14.514 8.80651 15.0167 8.95892 15.4442 9.24445C15.8718 9.52999 16.205 9.93584 16.4018 10.4107C16.5986 10.8855 16.6501 11.408 16.5498 11.9121C16.4495 12.4162 16.2018 12.8792 15.8382 13.2426C15.4746 13.606 15.0113 13.8535 14.507 13.9538C14.0026 14.0541 13.4799 14.0026 13.0048 13.8059C12.5297 13.6092 12.1236 13.2762 11.8379 12.8488C11.5522 12.4215 11.3997 11.9191 11.3997 11.4051C11.4005 10.7162 11.6747 10.0556 12.1621 9.56847C12.6495 9.0813 13.3104 8.80728 13.9997 8.80651ZM8.88607 19.2009C9.08745 18.2234 9.61976 17.3451 10.3933 16.714C11.1669 16.0829 12.1345 15.7375 13.1331 15.7361H14.8664C15.865 15.7375 16.8326 16.0829 17.6061 16.714C18.3797 17.3451 18.912 18.2234 19.1134 19.2009H8.88607Z" fill="#052A43"/>
</svg>
