<svg width="20" height="20" viewBox="0 0 20 20" fill="none" xmlns="http://www.w3.org/2000/svg">
<path fill-rule="evenodd" clip-rule="evenodd" d="M15.7382 6.196C13.8652 2.95 9.73015 1.838 6.50415 3.702C5.25688 4.41944 4.27372 5.51937 3.70015 6.839C3.64952 6.96205 3.57483 7.07376 3.48047 7.16758C3.38612 7.2614 3.27398 7.33544 3.15065 7.38537C3.02731 7.43531 2.89525 7.46012 2.7622 7.45836C2.62914 7.45661 2.49778 7.42832 2.37581 7.37515C2.25383 7.32198 2.14369 7.245 2.05184 7.14872C1.95999 7.05245 1.88828 6.93881 1.84091 6.81446C1.79354 6.69012 1.77146 6.55757 1.77596 6.42458C1.78047 6.2916 1.81147 6.16085 1.86715 6.04C2.6115 4.32831 3.88661 2.90139 5.50415 1.97C9.69215 -0.450002 15.0482 0.998998 17.4702 5.195C18.0573 6.21085 18.4354 7.33387 18.5822 8.498L16.5982 8.748C16.4845 7.84851 16.1921 6.98083 15.7382 6.196Z" fill="#FDC70A"/>
<path fill-rule="evenodd" clip-rule="evenodd" d="M19.5036 5.48902C19.9336 5.68902 20.1196 6.19902 19.9196 6.62702L18.6926 9.26202C18.6322 9.39129 18.5468 9.50738 18.4414 9.60365C18.336 9.69991 18.2127 9.77446 18.0785 9.82303C17.9443 9.87161 17.8019 9.89325 17.6593 9.88673C17.5167 9.8802 17.3768 9.84564 17.2476 9.78502L14.6116 8.54902C14.5067 8.50322 14.4119 8.43685 14.3331 8.35383C14.2542 8.2708 14.1927 8.17281 14.1524 8.06564C14.112 7.95847 14.0935 7.8443 14.098 7.72986C14.1025 7.61543 14.1299 7.50306 14.1786 7.39939C14.2272 7.29572 14.2962 7.20285 14.3813 7.12628C14.4665 7.04971 14.5661 6.99098 14.6743 6.95356C14.7826 6.91614 14.8972 6.9008 15.0115 6.90843C15.1258 6.91607 15.2373 6.94653 15.3396 6.99802L17.4036 7.96702L18.3636 5.90302C18.4112 5.80092 18.4785 5.70922 18.5616 5.63315C18.6447 5.55708 18.7419 5.49813 18.8478 5.45968C18.9537 5.42123 19.0661 5.40403 19.1786 5.40906C19.2912 5.41409 19.4016 5.44126 19.5036 5.48902ZM4.73463 13.804C6.60763 17.05 10.7426 18.162 13.9686 16.298C15.2159 15.5806 16.1991 14.4806 16.7726 13.161C16.8233 13.038 16.8979 12.9263 16.9923 12.8324C17.0867 12.7386 17.1988 12.6646 17.3221 12.6146C17.4455 12.5647 17.5775 12.5399 17.7106 12.5417C17.8436 12.5434 17.975 12.5717 18.097 12.6249C18.2189 12.678 18.3291 12.755 18.4209 12.8513C18.5128 12.9476 18.5845 13.0612 18.6319 13.1856C18.6792 13.3099 18.7013 13.4424 18.6968 13.5754C18.6923 13.7084 18.6613 13.8392 18.6056 13.96C17.8613 15.6717 16.5862 17.0986 14.9686 18.03C10.7806 20.45 5.42363 19.001 3.00263 14.805C2.41546 13.7892 2.03738 12.6661 1.89062 11.502L3.87462 11.252C3.98462 12.125 4.26463 12.992 4.73463 13.804Z" fill="#FDC70A"/>
<path fill-rule="evenodd" clip-rule="evenodd" d="M0.968347 14.5109C0.762317 14.4151 0.602759 14.2414 0.52475 14.028C0.446742 13.8146 0.456668 13.579 0.552347 13.3729L1.77935 10.7379C1.83982 10.6086 1.92518 10.4925 2.03055 10.3963C2.13593 10.3 2.25924 10.2255 2.39344 10.1769C2.52764 10.1283 2.6701 10.1067 2.81268 10.1132C2.95525 10.1197 3.09514 10.1543 3.22435 10.2149L5.85935 11.4509C5.96522 11.496 6.06091 11.562 6.14073 11.645C6.22054 11.7279 6.28283 11.826 6.32388 11.9336C6.36494 12.0411 6.38391 12.1558 6.37968 12.2708C6.37545 12.3858 6.34809 12.4988 6.29924 12.603C6.2504 12.7072 6.18106 12.8005 6.09537 12.8773C6.00968 12.9542 5.90939 13.0129 5.80049 13.0502C5.69158 13.0874 5.5763 13.1023 5.46151 13.094C5.34671 13.0857 5.23477 13.0544 5.13235 13.0019L3.06835 12.0329L2.10835 14.0969C2.06074 14.199 1.99347 14.2907 1.9104 14.3668C1.82732 14.4428 1.73006 14.5018 1.62418 14.5402C1.5183 14.5787 1.40587 14.5959 1.29334 14.5909C1.18081 14.5858 1.07037 14.5587 0.968347 14.5109Z" fill="#FDC70A"/>
</svg>
