<svg width="30" height="32" viewBox="0 0 30 32" fill="none" xmlns="http://www.w3.org/2000/svg">
<path d="M30 9V5C30 4.20435 29.6839 3.44129 29.1213 2.87868C28.5587 2.31607 27.7956 2 27 2H23V1C23 0.734784 22.8946 0.48043 22.7071 0.292893C22.5196 0.105357 22.2652 0 22 0C21.7348 0 21.4804 0.105357 21.2929 0.292893C21.1054 0.48043 21 0.734784 21 1V2H16V1C16 0.734784 15.8946 0.48043 15.7071 0.292893C15.5196 0.105357 15.2652 0 15 0C14.7348 0 14.4804 0.105357 14.2929 0.292893C14.1054 0.48043 14 0.734784 14 1V2H9V1C9 0.734784 8.89464 0.48043 8.70711 0.292893C8.51957 0.105357 8.26522 0 8 0C7.73478 0 7.48043 0.105357 7.29289 0.292893C7.10536 0.48043 7 0.734784 7 1V5C7 5.26522 7.10536 5.51957 7.29289 5.70711C7.48043 5.89464 7.73478 6 8 6C8.26522 6 8.51957 5.89464 8.70711 5.70711C8.89464 5.51957 9 5.26522 9 5V4H14V5C14 5.26522 14.1054 5.51957 14.2929 5.70711C14.4804 5.89464 14.7348 6 15 6C15.2652 6 15.5196 5.89464 15.7071 5.70711C15.8946 5.51957 16 5.26522 16 5V4H21V5C21 5.26522 21.1054 5.51957 21.2929 5.70711C21.4804 5.89464 21.7348 6 22 6C22.2652 6 22.5196 5.89464 22.7071 5.70711C22.8946 5.51957 23 5.26522 23 5V4H27C27.2652 4 27.5196 4.10536 27.7071 4.29289C27.8946 4.48043 28 4.73478 28 5V8H2V5C2 4.73478 2.10536 4.48043 2.29289 4.29289C2.48043 4.10536 2.73478 4 3 4H4C4.26522 4 4.51957 3.89464 4.70711 3.70711C4.89464 3.51957 5 3.26522 5 3C5 2.73478 4.89464 2.48043 4.70711 2.29289C4.51957 2.10536 4.26522 2 4 2H3C2.20435 2 1.44129 2.31607 0.87868 2.87868C0.31607 3.44129 0 4.20435 0 5V29C0 29.7956 0.31607 30.5587 0.87868 31.1213C1.44129 31.6839 2.20435 32 3 32H27C27.7956 32 28.5587 31.6839 29.1213 31.1213C29.6839 30.5587 30 29.7956 30 29V13C30 12.7348 29.8946 12.4804 29.7071 12.2929C29.5196 12.1054 29.2652 12 29 12C28.7348 12 28.4804 12.1054 28.2929 12.2929C28.1054 12.4804 28 12.7348 28 13V29C28 29.2652 27.8946 29.5196 27.7071 29.7071C27.5196 29.8946 27.2652 30 27 30H3C2.73478 30 2.48043 29.8946 2.29289 29.7071C2.10536 29.5196 2 29.2652 2 29V10H29C29.2652 10 29.5196 9.89464 29.7071 9.70711C29.8946 9.51957 30 9.26522 30 9Z" fill="white"/>
<path d="M10 15C10 14.4696 9.78929 13.9609 9.41421 13.5858C9.03914 13.2107 8.53043 13 8 13H6C5.46957 13 4.96086 13.2107 4.58579 13.5858C4.21071 13.9609 4 14.4696 4 15V17C4 17.5304 4.21071 18.0391 4.58579 18.4142C4.96086 18.7893 5.46957 19 6 19H8C8.53043 19 9.03914 18.7893 9.41421 18.4142C9.78929 18.0391 10 17.5304 10 17V15ZM8 17H6V15H8V17Z" fill="white"/>
<path d="M14 13C13.4696 13 12.9609 13.2107 12.5858 13.5858C12.2107 13.9609 12 14.4696 12 15V17C12 17.5304 12.2107 18.0391 12.5858 18.4142C12.9609 18.7893 13.4696 19 14 19H16C16.5304 19 17.0391 18.7893 17.4142 18.4142C17.7893 18.0391 18 17.5304 18 17V15C18 14.4696 17.7893 13.9609 17.4142 13.5858C17.0391 13.2107 16.5304 13 16 13H14ZM16 17H14V15H16V17Z" fill="white"/>
<path d="M26 15C26 14.4696 25.7893 13.9609 25.4142 13.5858C25.0391 13.2107 24.5304 13 24 13H22C21.4696 13 20.9609 13.2107 20.5858 13.5858C20.2107 13.9609 20 14.4696 20 15V17C20 17.5304 20.2107 18.0391 20.5858 18.4142C20.9609 18.7893 21.4696 19 22 19H24C24.5304 19 25.0391 18.7893 25.4142 18.4142C25.7893 18.0391 26 17.5304 26 17V15ZM24 17H22V15H24V17Z" fill="white"/>
<path d="M8 21H6C5.46957 21 4.96086 21.2107 4.58579 21.5858C4.21071 21.9609 4 22.4696 4 23V25C4 25.5304 4.21071 26.0391 4.58579 26.4142C4.96086 26.7893 5.46957 27 6 27H8C8.53043 27 9.03914 26.7893 9.41421 26.4142C9.78929 26.0391 10 25.5304 10 25V23C10 22.4696 9.78929 21.9609 9.41421 21.5858C9.03914 21.2107 8.53043 21 8 21ZM8 25H6V23H8V25Z" fill="white"/>
<path d="M24 21H22C21.4696 21 20.9609 21.2107 20.5858 21.5858C20.2107 21.9609 20 22.4696 20 23V25C20 25.5304 20.2107 26.0391 20.5858 26.4142C20.9609 26.7893 21.4696 27 22 27H24C24.5304 27 25.0391 26.7893 25.4142 26.4142C25.7893 26.0391 26 25.5304 26 25V23C26 22.4696 25.7893 21.9609 25.4142 21.5858C25.0391 21.2107 24.5304 21 24 21ZM24 25H22V23H24V25Z" fill="white"/>
<path d="M16.4146 23.9999L17.7076 22.7069C17.8897 22.5183 17.9905 22.2657 17.9882 22.0035C17.986 21.7413 17.8808 21.4905 17.6954 21.3051C17.51 21.1197 17.2592 21.0145 16.997 21.0122C16.7348 21.01 16.4822 21.1108 16.2936 21.2929L15.0006 22.5859L13.7076 21.2929C13.519 21.1108 13.2664 21.01 13.0042 21.0122C12.742 21.0145 12.4912 21.1197 12.3058 21.3051C12.1203 21.4905 12.0152 21.7413 12.0129 22.0035C12.0106 22.2657 12.1114 22.5183 12.2936 22.7069L13.5866 23.9999L12.2936 25.2929C12.1981 25.3852 12.1219 25.4955 12.0695 25.6175C12.0171 25.7395 11.9895 25.8707 11.9883 26.0035C11.9872 26.1363 12.0125 26.268 12.0627 26.3909C12.113 26.5138 12.1873 26.6254 12.2812 26.7193C12.3751 26.8132 12.4867 26.8875 12.6096 26.9377C12.7325 26.988 12.8642 27.0133 12.997 27.0122C13.1298 27.011 13.261 26.9834 13.383 26.931C13.505 26.8786 13.6153 26.8024 13.7076 26.7069L15.0006 25.4139L16.2936 26.7069C16.4822 26.8891 16.7348 26.9899 16.997 26.9876C17.2592 26.9853 17.51 26.8801 17.6954 26.6947C17.8808 26.5093 17.986 26.2585 17.9882 25.9963C17.9905 25.7341 17.8897 25.4815 17.7076 25.2929L16.4146 23.9999Z" fill="white"/>
</svg>
