<svg width="26" height="26" viewBox="0 0 26 26" fill="none" xmlns="http://www.w3.org/2000/svg">
<path d="M13.0019 16.5999C15.1107 16.5999 16.8203 14.9881 16.8203 12.9999C16.8203 11.0117 15.1107 9.3999 13.0019 9.3999C10.8931 9.3999 9.18359 11.0117 9.18359 12.9999C9.18359 14.9881 10.8931 16.5999 13.0019 16.5999Z" stroke="white" stroke-width="1.5"/>
<path d="M15.2465 1.1824C14.7793 1 14.1862 1 13 1C11.8138 1 11.2207 1 10.7535 1.1824C10.4445 1.30302 10.1637 1.47987 9.92716 1.70287C9.69064 1.92586 9.50306 2.19062 9.37512 2.482C9.25803 2.7496 9.21094 3.0628 9.19312 3.5176C9.18483 3.84631 9.08824 4.16768 8.91239 4.45163C8.73655 4.73557 8.48718 4.97283 8.18762 5.1412C7.88318 5.30173 7.54052 5.38681 7.19171 5.38849C6.8429 5.39017 6.49934 5.30839 6.19318 5.1508C5.76552 4.9372 5.45624 4.8196 5.1495 4.7812C4.48042 4.69824 3.80379 4.86917 3.26833 5.2564C2.86868 5.548 2.57085 6.0316 1.97773 7C1.38461 7.9684 1.08678 8.452 1.02187 8.926C0.978134 9.23854 1.00013 9.55615 1.08661 9.86067C1.1731 10.1652 1.32236 10.4507 1.52589 10.7008C1.71426 10.9312 1.97773 11.1244 2.38629 11.3668C2.98832 11.7232 3.37524 12.3304 3.37524 13C3.37524 13.6696 2.98832 14.2768 2.38629 14.632C1.97773 14.8756 1.71299 15.0688 1.52589 15.2992C1.32236 15.5493 1.1731 15.8348 1.08661 16.1393C1.00013 16.4439 0.978134 16.7615 1.02187 17.074C1.08806 17.5468 1.38461 18.0316 1.97646 19C2.57085 19.9684 2.8674 20.452 3.26833 20.7436C3.53362 20.9355 3.83641 21.0762 4.15941 21.1578C4.4824 21.2393 4.81927 21.26 5.15077 21.2188C5.45624 21.1804 5.76552 21.0628 6.19318 20.8492C6.49934 20.6916 6.8429 20.6098 7.19171 20.6115C7.54052 20.6132 7.88318 20.6983 8.18762 20.8588C8.80237 21.1948 9.16766 21.8128 9.19312 22.4824C9.21094 22.9384 9.25676 23.2504 9.37512 23.518C9.50306 23.8094 9.69064 24.0741 9.92716 24.2971C10.1637 24.5201 10.4445 24.697 10.7535 24.8176C11.2207 25 11.8138 25 13 25C14.1862 25 14.7793 25 15.2465 24.8176C15.5555 24.697 15.8363 24.5201 16.0728 24.2971C16.3094 24.0741 16.4969 23.8094 16.6249 23.518C16.742 23.2504 16.7891 22.9384 16.8069 22.4824C16.8323 21.8128 17.1976 21.1936 17.8124 20.8588C18.1168 20.6983 18.4595 20.6132 18.8083 20.6115C19.1571 20.6098 19.5007 20.6916 19.8068 20.8492C20.2345 21.0628 20.5438 21.1804 20.8492 21.2188C21.1807 21.26 21.5176 21.2393 21.8406 21.1578C22.1636 21.0762 22.4664 20.9355 22.7317 20.7436C23.1326 20.4532 23.4292 19.9684 24.0223 19C24.6154 18.0316 24.9132 17.548 24.9781 17.074C25.0219 16.7615 24.9999 16.4439 24.9134 16.1393C24.8269 15.8348 24.6776 15.5493 24.4741 15.2992C24.2857 15.0688 24.0223 14.8756 23.6137 14.6332C23.3158 14.4621 23.0688 14.2225 22.8958 13.9369C22.7229 13.6512 22.6296 13.3289 22.6248 13C22.6248 12.3304 23.0117 11.7232 23.6137 11.368C24.0223 11.1244 24.287 10.9312 24.4741 10.7008C24.6776 10.4507 24.8269 10.1652 24.9134 9.86067C24.9999 9.55615 25.0219 9.23854 24.9781 8.926C24.9119 8.4532 24.6154 7.9684 24.0235 7C23.4292 6.0316 23.1326 5.548 22.7317 5.2564C22.4664 5.06451 22.1636 4.92378 21.8406 4.84224C21.5176 4.7607 21.1807 4.73996 20.8492 4.7812C20.5438 4.8196 20.2345 4.9372 19.8056 5.1508C19.4995 5.30817 19.1562 5.38983 18.8077 5.38816C18.4591 5.38648 18.1167 5.30151 17.8124 5.1412C17.5128 4.97283 17.2635 4.73557 17.0876 4.45163C16.9118 4.16768 16.8152 3.84631 16.8069 3.5176C16.7891 3.0616 16.7432 2.7496 16.6249 2.482C16.4969 2.19062 16.3094 1.92586 16.0728 1.70287C15.8363 1.47987 15.5555 1.30302 15.2465 1.1824Z" stroke="white" stroke-width="1.5"/>
</svg>
