<svg width="17" height="18" viewBox="0 0 17 18" fill="none" xmlns="http://www.w3.org/2000/svg">
<path d="M5.04553 2.18112C7.19878 1.18181 9.70706 1.18181 11.8603 2.18112C14.0136 3.18043 15.5775 5.07028 16.1093 7.31571C16.6411 9.56114 16.0829 11.9177 14.5928 13.7184C13.1027 15.5191 10.8429 16.5679 8.45292 16.5679C6.06299 16.5679 3.80311 15.5191 2.31301 13.7184C0.82291 11.9177 0.264767 9.56114 0.796577 7.31571C1.32839 5.07028 2.89227 3.18043 5.04553 2.18112Z" fill="white"/>
<path d="M6.27381 7.19978C6.27381 7.53115 5.99506 7.79978 5.65121 7.79978C5.30735 7.79978 5.0286 7.53115 5.0286 7.19978C5.0286 6.86841 5.30735 6.59978 5.65121 6.59978C5.99506 6.59978 6.27381 6.86841 6.27381 7.19978Z" fill="white"/>
<path d="M11.8772 7.19978C11.8772 7.53115 11.5985 7.79978 11.2546 7.79978C10.9108 7.79978 10.632 7.53115 10.632 7.19978C10.632 6.86841 10.9108 6.59978 11.2546 6.59978C11.5985 6.59978 11.8772 6.86841 11.8772 7.19978Z" fill="white"/>
<path d="M11.7548 12.1818C10.8791 13.0257 9.69135 13.4998 8.45292 13.4998C7.21449 13.4998 6.02678 13.0257 5.15107 12.1818M0.796577 7.31571C1.32839 5.07028 2.89227 3.18043 5.04553 2.18112C7.19878 1.18181 9.70706 1.18181 11.8603 2.18112C14.0136 3.18043 15.5775 5.07028 16.1093 7.31571C16.6411 9.56114 16.0829 11.9177 14.5928 13.7184C13.1027 15.5191 10.8429 16.5679 8.45292 16.5679C6.06299 16.5679 3.80311 15.5191 2.31301 13.7184C0.82291 11.9177 0.264767 9.56114 0.796577 7.31571ZM6.27381 7.19978C6.27381 7.53115 5.99506 7.79978 5.65121 7.79978C5.30735 7.79978 5.0286 7.53115 5.0286 7.19978C5.0286 6.86841 5.30735 6.59978 5.65121 6.59978C5.99506 6.59978 6.27381 6.86841 6.27381 7.19978ZM11.8772 7.19978C11.8772 7.53115 11.5985 7.79978 11.2546 7.79978C10.9108 7.79978 10.632 7.53115 10.632 7.19978C10.632 6.86841 10.9108 6.59978 11.2546 6.59978C11.5985 6.59978 11.8772 6.86841 11.8772 7.19978Z" stroke="#052A43" stroke-opacity="0.36" stroke-linecap="round" stroke-linejoin="round"/>
</svg>
