<svg width="23" height="24" viewBox="0 0 23 24" fill="none" xmlns="http://www.w3.org/2000/svg">
<path d="M19.2773 2.95781C17.2145 1.06396 14.4167 -1.9955e-08 11.4995 0C8.58223 1.9955e-08 5.78447 1.06396 3.72167 2.95781C1.65887 4.85166 0.5 7.42028 0.5 10.0986C0.5 12.7769 1.65887 15.3455 3.72167 17.2394L7.82051 21.0025C7.91372 21.0881 8.02438 21.156 8.14617 21.2023C8.26795 21.2486 8.39848 21.2725 8.53031 21.2725C8.66213 21.2725 8.79266 21.2486 8.91445 21.2023C9.03623 21.156 9.14689 21.0881 9.2401 21.0025C9.33332 20.9169 9.40726 20.8153 9.4577 20.7035C9.50815 20.5917 9.53411 20.4719 9.53411 20.3509C9.53411 20.2298 9.50815 20.11 9.4577 19.9982C9.40726 19.8864 9.33332 19.7848 9.2401 19.6992L5.14127 15.9361C3.88183 14.7812 3.02379 13.3093 2.67572 11.7067C2.32764 10.104 2.50517 8.44254 3.18583 6.93253C3.8665 5.42251 5.01972 4.13178 6.49959 3.22365C7.97945 2.31551 9.71946 1.83078 11.4995 1.83078C13.2795 1.83078 15.0195 2.31551 16.4993 3.22365C17.9792 4.13178 19.1324 5.42251 19.8131 6.93253C20.4938 8.44254 20.6713 10.104 20.3232 11.7067C19.9751 13.3093 19.1171 14.7812 17.8577 15.9361L10.7897 22.4252C10.696 22.5105 10.6216 22.612 10.5708 22.7239C10.5201 22.8357 10.494 22.9557 10.494 23.0768C10.494 23.198 10.5201 23.318 10.5708 23.4298C10.6216 23.5417 10.696 23.6432 10.7897 23.7285C10.8826 23.8145 10.9932 23.8828 11.115 23.9294C11.2368 23.976 11.3675 24 11.4995 24C11.6314 24 11.7621 23.976 11.8839 23.9294C12.0058 23.8828 12.1163 23.8145 12.2093 23.7285L19.2773 17.2394C20.299 16.3018 21.1095 15.1886 21.6624 13.9634C22.2154 12.7381 22.5 11.4249 22.5 10.0986C22.5 8.77234 22.2154 7.45908 21.6624 6.23384C21.1095 5.0086 20.299 3.89539 19.2773 2.95781Z" fill="white"/>
<path d="M16.4972 10.1624C16.4972 9.25478 16.204 8.36751 15.6548 7.61282C15.1055 6.85813 14.3248 6.26992 13.4115 5.92258C12.4981 5.57523 11.493 5.48435 10.5234 5.66142C9.55378 5.8385 8.66312 6.27558 7.96405 6.91739C7.26499 7.5592 6.78892 8.37692 6.59605 9.26713C6.40318 10.1573 6.50217 11.0801 6.8805 11.9186C7.25883 12.7572 7.89951 13.4739 8.72152 13.9782C9.54353 14.4825 10.51 14.7516 11.4986 14.7516C12.8243 14.7516 14.0957 14.2681 15.0331 13.4075C15.9705 12.5468 16.4972 11.3796 16.4972 10.1624ZM8.49944 10.1624C8.49944 9.61785 8.67533 9.08548 9.00488 8.63267C9.33444 8.17985 9.80284 7.82693 10.3509 7.61852C10.8989 7.41011 11.5019 7.35559 12.0837 7.46183C12.6655 7.56808 13.1999 7.83032 13.6193 8.21541C14.0387 8.60049 14.3244 9.09112 14.4401 9.62525C14.5558 10.1594 14.4964 10.713 14.2694 11.2162C14.0424 11.7193 13.658 12.1493 13.1648 12.4519C12.6716 12.7545 12.0918 12.916 11.4986 12.916C10.7032 12.916 9.94032 12.6259 9.37787 12.1095C8.81542 11.5931 8.49944 10.8927 8.49944 10.1624Z" fill="white"/>
</svg>
