<svg width="21" height="20" viewBox="0 0 21 20" fill="none" xmlns="http://www.w3.org/2000/svg">
<path d="M18.81 11.8909L18.375 11.5861C18.2581 11.5045 18.1637 11.4011 18.0987 11.2835C18.0338 11.1659 18.0001 11.0371 18 10.9066V7.38736C17.9994 5.87499 17.3965 4.40964 16.2941 3.24125C15.1918 2.07287 13.6582 1.27383 11.955 0.980429C11.872 0.699848 11.6842 0.451271 11.4213 0.273792C11.1583 0.096313 10.8351 0 10.5025 0C10.1699 0 9.84667 0.096313 9.58373 0.273792C9.3208 0.451271 9.13305 0.699848 9.05 0.980429C7.3459 1.27294 5.81117 2.0716 4.7078 3.24007C3.60442 4.40854 3.00081 5.87438 3 7.38736V10.9066C2.99991 11.0371 2.96616 11.1659 2.90125 11.2835C2.83635 11.4011 2.74194 11.5045 2.625 11.5861L2.19 11.8909C1.66464 12.2568 1.24012 12.7206 0.947649 13.2482C0.655184 13.7759 0.502217 14.3539 0.5 14.9398V15.6628C0.5 16.1249 0.710714 16.568 1.08579 16.8947C1.46086 17.2214 1.96957 17.405 2.5 17.405H6.63C6.8554 18.1488 7.35701 18.8066 8.0566 19.276C8.75619 19.7454 9.61443 20 10.4975 20C11.3806 20 12.2388 19.7454 12.9384 19.276C13.638 18.8066 14.1396 18.1488 14.365 17.405H18.5C19.0304 17.405 19.5391 17.2214 19.9142 16.8947C20.2893 16.568 20.5 16.1249 20.5 15.6628V14.9485C20.4993 14.3611 20.347 13.7814 20.0545 13.2522C19.762 12.7229 19.3367 12.2577 18.81 11.8909ZM10.5 18.2761C10.151 18.2743 9.80857 18.1929 9.50683 18.0401C9.20509 17.8873 8.95451 17.6683 8.78 17.405H12.225C12.0501 17.6689 11.7987 17.8883 11.496 18.0412C11.1933 18.194 10.8499 18.275 10.5 18.2761ZM18.5 15.6628H2.5V14.9485C2.50053 14.6221 2.58529 14.3 2.74799 14.006C2.9107 13.7119 3.1472 13.4535 3.44 13.2499L3.875 12.945C4.22581 12.7003 4.50904 12.3901 4.70376 12.0373C4.89848 11.6845 4.99972 11.2981 5 10.9066V7.38736C5 6.1167 5.57946 4.89808 6.61091 3.99958C7.64236 3.10109 9.04131 2.59632 10.5 2.59632C11.9587 2.59632 13.3576 3.10109 14.3891 3.99958C15.4205 4.89808 16 6.1167 16 7.38736V10.9066C15.9995 11.2988 16.1004 11.6861 16.2952 12.0397C16.4899 12.3933 16.7735 12.7042 17.125 12.9493L17.56 13.2542C17.8521 13.4574 18.0882 13.7151 18.2509 14.0083C18.4136 14.3016 18.4987 14.6228 18.5 14.9485V15.6628Z" fill="white"/>
</svg>
