<svg width="21" height="20" viewBox="0 0 21 20" fill="none" xmlns="http://www.w3.org/2000/svg">
<path d="M7.6392 12.6224C7.6392 12.3291 7.39415 12.0913 7.09186 12.0913H5.8989C5.59663 12.0913 5.35156 12.3291 5.35156 12.6224C5.35156 12.9157 5.59663 13.1535 5.8989 13.1535H6.54452V13.78C6.54452 14.0733 6.78956 14.3111 7.09186 14.3111C7.39415 14.3111 7.6392 14.0733 7.6392 13.78V12.6224Z" fill="white"/>
<path d="M4.73298 12.6224C4.73298 12.3291 4.48793 12.0913 4.18564 12.0913H2.99265C2.69038 12.0913 2.44531 12.3291 2.44531 12.6224C2.44531 12.9157 2.69038 13.1535 2.99265 13.1535H3.63829V13.78C3.63829 14.0733 3.88334 14.3111 4.18564 14.3111C4.48793 14.3111 4.73298 14.0733 4.73298 13.78V12.6224Z" fill="white"/>
<path d="M7.09186 17.2451C7.39415 17.2451 7.6392 17.0074 7.6392 16.714V15.5565C7.6392 15.2632 7.39415 15.0254 7.09186 15.0254H5.8989C5.59663 15.0254 5.35156 15.2632 5.35156 15.5565C5.35156 15.8498 5.59663 16.0876 5.8989 16.0876H6.54452V16.714C6.54452 17.0074 6.78959 17.2451 7.09186 17.2451Z" fill="white"/>
<path d="M4.18564 17.2451C4.48793 17.2451 4.73298 17.0074 4.73298 16.714V15.5565C4.73298 15.2632 4.48793 15.0254 4.18564 15.0254H2.99265C2.69038 15.0254 2.44531 15.2632 2.44531 15.5565C2.44531 15.8498 2.69038 16.0876 2.99265 16.0876H3.63829V16.714C3.63829 17.0074 3.88337 17.2451 4.18564 17.2451Z" fill="white"/>
<path d="M15.1036 12.0913H13.9106C13.6083 12.0913 13.3633 12.3291 13.3633 12.6224V13.78C13.3633 14.0733 13.6083 14.3111 13.9106 14.3111C14.2129 14.3111 14.458 14.0733 14.458 13.78V13.1535H15.1036C15.4059 13.1535 15.6509 12.9157 15.6509 12.6224C15.6509 12.3291 15.4059 12.0913 15.1036 12.0913Z" fill="white"/>
<path d="M18.0098 12.0913H16.8169C16.5146 12.0913 16.2695 12.3291 16.2695 12.6224V13.78C16.2695 14.0733 16.5146 14.3111 16.8169 14.3111C17.1192 14.3111 17.3642 14.0733 17.3642 13.78V13.1535H18.0098C18.3121 13.1535 18.5572 12.9157 18.5572 12.6224C18.5572 12.3291 18.3121 12.0913 18.0098 12.0913Z" fill="white"/>
<path d="M15.1036 15.0254H13.9106C13.6083 15.0254 13.3633 15.2632 13.3633 15.5565V16.714C13.3633 17.0074 13.6083 17.2451 13.9106 17.2451C14.2129 17.2451 14.458 17.0074 14.458 16.714V16.0876H15.1036C15.4059 16.0876 15.6509 15.8498 15.6509 15.5565C15.6509 15.2632 15.4059 15.0254 15.1036 15.0254Z" fill="white"/>
<path d="M18.0098 15.0254H16.8169C16.5146 15.0254 16.2695 15.2632 16.2695 15.5565V16.714C16.2695 17.0074 16.5146 17.2451 16.8169 17.2451C17.1192 17.2451 17.3642 17.0074 17.3642 16.714V16.0876H18.0098C18.3121 16.0876 18.5572 15.8498 18.5572 15.5565C18.5572 15.2632 18.3121 15.0254 18.0098 15.0254Z" fill="white"/>
<path d="M8.11328 9.86767C8.11328 11.1452 9.18437 12.1845 10.501 12.1845C11.8175 12.1845 12.8887 11.1452 12.8887 9.86767C12.8887 8.59015 11.8175 7.55078 10.501 7.55078C9.18437 7.55078 8.11328 8.59013 8.11328 9.86767ZM11.794 9.86767C11.794 10.5595 11.214 11.1223 10.501 11.1223C9.78801 11.1223 9.20796 10.5595 9.20796 9.86767C9.20796 9.17583 9.78801 8.61299 10.501 8.61299C11.214 8.61299 11.794 9.17583 11.794 9.86767Z" fill="white"/>
<path d="M19.9536 11.1221C19.6513 11.1221 19.4062 11.3598 19.4062 11.6532V11.7415C19.4062 12.0348 19.6513 12.2726 19.9536 12.2726C20.2559 12.2726 20.5009 12.0348 20.5009 11.7415V11.6532C20.5009 11.3598 20.2559 11.1221 19.9536 11.1221Z" fill="white"/>
<path d="M19.9526 12.8258C19.6503 12.8258 19.4053 13.0636 19.4053 13.3569V18.9378H12.5131V16.9169C12.5131 15.8398 11.61 14.9635 10.5 14.9635C9.38993 14.9635 8.48687 15.8398 8.48687 16.9169V18.9378H1.59468V10.084L4.52777 7.17221H6.68018L4.74673 9.33652H3.58809C3.2858 9.33652 3.04075 9.57429 3.04075 9.86762C3.04075 10.1609 3.2858 10.3987 3.58809 10.3987H4.99665C5.15537 10.3987 5.30625 10.3319 5.41019 10.2155L10.5 4.51802L15.5898 10.2155C15.698 10.3366 15.8502 10.3986 16.0034 10.3987V10.3987H19.9526C20.1729 10.3987 20.3717 10.2706 20.4571 10.0737C20.5426 9.8767 20.498 9.64923 20.3441 9.49641L17.094 6.26989C16.991 6.16766 16.8499 6.11 16.7025 6.11H13.3709L11.0473 3.50903V3.09652C11.1052 3.1039 11.1622 3.10735 11.2182 3.10735C11.5449 3.10733 11.8379 2.99285 12.0856 2.896C12.4525 2.75263 12.7693 2.6288 13.2497 2.73959C13.4126 2.77717 13.5843 2.74031 13.7156 2.63958C13.847 2.53886 13.9236 2.38532 13.9236 2.22288V0.754774C13.9236 0.612916 13.8651 0.476927 13.7612 0.377159C13.4813 0.108553 13.1492 -0.0176643 12.774 0.00198654C12.4922 0.0167512 12.2325 0.11073 11.9814 0.201629C11.5593 0.354454 11.1947 0.486433 10.7343 0.274788C10.7342 0.274921 10.7341 0.275054 10.734 0.275187C10.6629 0.242497 10.5838 0.22367 10.5 0.22367C10.1977 0.22367 9.95262 0.461445 9.95262 0.754774V3.50903L7.62908 6.11H4.29736C4.15002 6.11 4.00892 6.16763 3.90593 6.26989L0.65591 9.49638C0.555938 9.59559 0.5 9.72884 0.5 9.86759V19.4689C0.5 19.7622 0.745044 20 1.04734 20H9.03421C9.33651 20 9.58155 19.7622 9.58155 19.4689V16.9169C9.58155 16.4255 9.99356 16.0257 10.5 16.0257C11.0064 16.0257 11.4185 16.4255 11.4185 16.9169V19.4689C11.4185 19.7622 11.6635 20 11.9658 20H19.9527C20.255 20 20.5 19.7622 20.5 19.4689V13.3569C20.5 13.0636 20.2549 12.8258 19.9526 12.8258ZM16.4722 7.17221L18.6523 9.33652H16.2533L14.3198 7.17221H16.4722ZM12.3641 1.19684C12.6122 1.107 12.7452 1.06773 12.8289 1.0634V1.63558C12.3493 1.64783 11.9743 1.79436 11.6766 1.91072C11.3288 2.04668 11.2088 2.0934 11.0473 1.98497V1.44051C11.5807 1.48037 12.0308 1.31748 12.3641 1.19684Z" fill="white"/>
</svg>
