<svg width="40" height="44" viewBox="0 0 40 44" fill="none" xmlns="http://www.w3.org/2000/svg">
<path d="M23.7905 23.8796C28.6841 23.8796 32.6512 20.0953 32.6512 15.4271C32.6512 10.7589 28.6841 6.97461 23.7905 6.97461C18.8968 6.97461 14.9297 10.7589 14.9297 15.4271C14.9297 20.0953 18.8968 23.8796 23.7905 23.8796Z" fill="#EFCC00"/>
<path d="M23.7891 2V4.98087" stroke="#EFCC00" stroke-width="3" stroke-miterlimit="10" stroke-linecap="round"/>
<path d="M23.7891 25.874V28.8549" stroke="#EFCC00" stroke-width="3" stroke-miterlimit="10" stroke-linecap="round"/>
<path d="M9.71484 15.4277H12.8467" stroke="#EFCC00" stroke-width="3" stroke-miterlimit="10" stroke-linecap="round"/>
<path d="M34.7383 15.4277H37.8631" stroke="#EFCC00" stroke-width="3" stroke-miterlimit="10" stroke-linecap="round"/>
<path d="M13.8359 5.93457L16.0459 8.04266" stroke="#EFCC00" stroke-width="3" stroke-miterlimit="10" stroke-linecap="round"/>
<path d="M31.5312 22.8125L33.7412 24.9206" stroke="#EFCC00" stroke-width="3" stroke-miterlimit="10" stroke-linecap="round"/>
<path d="M13.8359 24.9206L16.0459 22.8125" stroke="#EFCC00" stroke-width="3" stroke-miterlimit="10" stroke-linecap="round"/>
<path d="M31.5312 8.04266L33.7412 5.93457" stroke="#EFCC00" stroke-width="3" stroke-miterlimit="10" stroke-linecap="round"/>
<path d="M12.3164 11.3321C14.5598 11.3277 16.7618 11.9083 18.6845 13.0111C20.6071 14.1139 22.1772 15.697 23.2252 17.5892C24.5091 16.8731 25.9486 16.449 27.4322 16.3497C28.9157 16.2504 30.4033 16.4786 31.7794 17.0166C33.1555 17.5546 34.3831 18.3879 35.3669 19.4518C36.3507 20.5157 37.0642 21.7816 37.452 23.1512C37.8398 24.5208 37.8915 25.9572 37.603 27.3489C37.3145 28.7407 36.6937 30.0502 35.7886 31.176C34.8836 32.3017 33.7188 33.2133 32.3845 33.84C31.0503 34.4667 29.5826 34.7917 28.0955 34.7896L12.3164 34.8299C9.04988 34.8299 5.91716 33.592 3.60739 31.3887C1.29762 29.1854 0 26.197 0 23.081C0 19.965 1.29762 16.9766 3.60739 14.7732C5.91716 12.5699 9.04988 11.3321 12.3164 11.3321Z" fill="url(#paint0_linear_1661_16464)"/>
<path d="M37.3968 28.0372C38.835 23.127 35.828 18.0343 30.6806 16.6624C25.5332 15.2905 20.1945 18.1589 18.7564 23.0692C17.3182 27.9794 20.3252 33.0721 25.4726 34.444C30.62 35.8159 35.9587 32.9475 37.3968 28.0372Z" fill="url(#paint1_linear_1661_16464)"/>
<path d="M26.4122 31.876C26.8751 31.8813 27.3173 32.0604 27.6427 32.3746C27.9681 32.6888 28.1506 33.1127 28.1505 33.5544C28.1505 33.9995 27.9652 34.4264 27.6352 34.7412C27.3052 35.056 26.8577 35.2328 26.3911 35.2328H11.6114C11.0514 35.2328 10.5144 35.445 10.1184 35.8227C9.72245 36.2004 9.5 36.7127 9.5 37.2469C9.5 37.7811 9.72245 38.2934 10.1184 38.6711C10.5144 39.0488 11.0514 39.261 11.6114 39.261H25.5113C25.8846 39.261 26.2427 39.4025 26.5066 39.6543C26.7706 39.9061 26.9189 40.2476 26.9189 40.6037V40.6574C26.9189 41.0136 26.7706 41.3551 26.5066 41.6069C26.2427 41.8587 25.8846 42.0002 25.5113 42.0002H24.2797" stroke="#A5A9AA" stroke-width="3" stroke-miterlimit="10" stroke-linecap="round"/>
<path d="M32.0222 40.6034C32.3955 40.6034 32.7535 40.462 33.0175 40.2102C33.2815 39.9583 33.4298 39.6168 33.4298 39.2607C33.4298 38.9046 33.2815 38.5631 33.0175 38.3112C32.7535 38.0594 32.3955 37.918 32.0222 37.918H29.207" stroke="#B9C1C6" stroke-width="3" stroke-miterlimit="10" stroke-linecap="round"/>
<defs>
<linearGradient id="paint0_linear_1661_16464" x1="9.20562" y1="35.8302" x2="23.1824" y2="16.8571" gradientUnits="userSpaceOnUse">
<stop stop-color="#F2F2F2"/>
<stop offset="1" stop-color="#CFCFCF"/>
</linearGradient>
<linearGradient id="paint1_linear_1661_16464" x1="32.0337" y1="22.272" x2="21.2734" y2="32.0882" gradientUnits="userSpaceOnUse">
<stop offset="0.02" stop-color="white"/>
<stop offset="1" stop-color="white" stop-opacity="0"/>
</linearGradient>
</defs>
</svg>
