<svg width="40" height="42" viewBox="0 0 40 42" fill="none" xmlns="http://www.w3.org/2000/svg">
<path d="M13.8359 27.7482L16.0459 25.334" stroke="#EFCC00" stroke-width="3" stroke-miterlimit="10" stroke-linecap="round"/>
<path d="M9.71484 16.877H12.8467" stroke="#EFCC00" stroke-width="3" stroke-miterlimit="10" stroke-linecap="round"/>
<path d="M23.7891 28.8398V32.2535" stroke="#EFCC00" stroke-width="3" stroke-miterlimit="10" stroke-linecap="round"/>
<path d="M23.7905 26.5569C28.6841 26.5569 32.6512 22.2231 32.6512 16.8771C32.6512 11.5311 28.6841 7.19727 23.7905 7.19727C18.8968 7.19727 14.9297 11.5311 14.9297 16.8771C14.9297 22.2231 18.8968 26.5569 23.7905 26.5569Z" fill="#EFCC00"/>
<path d="M23.7891 1.5V4.91368" stroke="#EFCC00" stroke-width="3" stroke-miterlimit="10" stroke-linecap="round"/>
<path d="M34.7383 16.877H37.8631" stroke="#EFCC00" stroke-width="3" stroke-miterlimit="10" stroke-linecap="round"/>
<path d="M13.8359 6.00488L16.0459 8.41907" stroke="#EFCC00" stroke-width="3" stroke-miterlimit="10" stroke-linecap="round"/>
<path d="M31.5312 8.41907L33.7412 6.00488" stroke="#EFCC00" stroke-width="3" stroke-miterlimit="10" stroke-linecap="round"/>
<path d="M12.3164 12.1866C14.5598 12.1816 16.7618 12.8465 18.6845 14.1094C20.6071 15.3723 22.1772 17.1852 23.2252 19.3522C24.5091 18.5322 25.9486 18.0465 27.4322 17.9327C28.9157 17.819 30.4033 18.0803 31.7794 18.6964C33.1555 19.3125 34.3831 20.2669 35.3669 21.4853C36.3507 22.7037 37.0642 24.1534 37.452 25.7218C37.8398 27.2903 37.8915 28.9353 37.603 30.5291C37.3145 32.1229 36.6937 33.6226 35.7886 34.9118C34.8836 36.201 33.7188 37.245 32.3845 37.9627C31.0503 38.6804 29.5826 39.0525 28.0955 39.0501L12.3164 39.0962C9.04988 39.0962 5.91716 37.6787 3.60739 35.1554C1.29762 32.6321 0 29.2098 0 25.6414C0 22.0729 1.29762 18.6507 3.60739 16.1274C5.91716 13.6041 9.04988 12.1866 12.3164 12.1866Z" fill="url(#paint0_linear_1661_16436)"/>
<path d="M31.5312 25.334L33.7412 27.7482" stroke="#EFCC00" stroke-width="3" stroke-miterlimit="10" stroke-linecap="round"/>
<path d="M37.3968 31.3182C38.835 25.695 35.828 19.8629 30.6806 18.2918C25.5332 16.7207 20.1945 20.0056 18.7564 25.6288C17.3182 31.252 20.3252 37.0842 25.4726 38.6553C30.62 40.2263 35.9587 36.9414 37.3968 31.3182Z" fill="url(#paint1_linear_1661_16436)"/>
<defs>
<linearGradient id="paint0_linear_1661_16436" x1="9.20562" y1="40.2418" x2="25.7258" y2="20.6595" gradientUnits="userSpaceOnUse">
<stop stop-color="#F2F2F2"/>
<stop offset="1" stop-color="#CFCFCF"/>
</linearGradient>
<linearGradient id="paint1_linear_1661_16436" x1="32.0337" y1="24.7159" x2="19.9748" y2="34.3169" gradientUnits="userSpaceOnUse">
<stop offset="0.02" stop-color="white"/>
<stop offset="1" stop-color="white" stop-opacity="0"/>
</linearGradient>
</defs>
</svg>
