<svg width="40" height="41" viewBox="0 0 40 41" fill="none" xmlns="http://www.w3.org/2000/svg">
<path d="M19.5527 33.1177V33.958" stroke="#0BAEFF" stroke-width="3" stroke-miterlimit="10" stroke-linecap="round"/>
<path d="M15.334 31.437V32.2773" stroke="#0BAEFF" stroke-width="3" stroke-miterlimit="10" stroke-linecap="round"/>
<path d="M23.7715 31.437V32.2773" stroke="#0BAEFF" stroke-width="3" stroke-miterlimit="10" stroke-linecap="round"/>
<path d="M23.7715 36.479V37.3193" stroke="#0BAEFF" stroke-width="3" stroke-miterlimit="10" stroke-linecap="round"/>
<path d="M15.334 36.479V37.3193" stroke="#0BAEFF" stroke-width="3" stroke-miterlimit="10" stroke-linecap="round"/>
<path d="M19.5527 38.1597V39" stroke="#0BAEFF" stroke-width="3" stroke-miterlimit="10" stroke-linecap="round"/>
<path d="M12.3376 7.23073e-07C14.5752 -0.000838037 16.7707 0.728056 18.6874 2.10815C20.6041 3.48825 22.1694 5.46724 23.2147 7.83192C24.4985 6.9348 25.9383 6.40379 27.4219 6.2802C28.9055 6.15661 30.393 6.44378 31.7686 7.11935C33.1442 7.79493 34.3708 8.8407 35.3531 10.1753C36.3354 11.5099 37.0468 13.0974 37.432 14.8142C37.8171 16.531 37.8657 18.3309 37.5739 20.0738C37.2822 21.8167 36.6579 23.4557 35.7496 24.8632C34.8414 26.2707 33.6737 27.4088 32.3374 28.189C31.0011 28.9691 29.5322 29.3703 28.045 29.3613L12.3024 29.4117C9.03911 29.4117 5.90944 27.8623 3.60192 25.1045C1.2944 22.3466 -0.00195313 18.6061 -0.00195312 14.7059C-0.00195313 10.8056 1.2944 7.06513 3.60192 4.30725C5.90944 1.54936 9.03911 7.81191e-07 12.3024 7.23073e-07H12.3376Z" fill="url(#paint0_linear_1506_1295)"/>
<path d="M37.3976 20.9196C38.8343 14.7735 35.8303 8.39913 30.6879 6.68196C25.5455 4.9648 20.212 8.55512 18.7753 14.7012C17.3385 20.8472 20.3426 27.2216 25.485 28.9388C30.6274 30.656 35.9608 27.0656 37.3976 20.9196Z" fill="url(#paint1_linear_1506_1295)"/>
<path d="M23.9102 13.876C24.3732 13.8813 24.8153 14.0604 25.1407 14.3746C25.4661 14.6888 25.6486 15.1127 25.6486 15.5544C25.6486 15.9995 25.4632 16.4264 25.1332 16.7412C24.8033 17.056 24.3557 17.2328 23.8891 17.2328H9.10943C8.54946 17.2328 8.01242 17.445 7.61646 17.8227C7.2205 18.2004 6.99805 18.7127 6.99805 19.2469C6.99805 19.7811 7.2205 20.2934 7.61646 20.6711C8.01242 21.0488 8.54946 21.261 9.10943 21.261H23.0094C23.3827 21.261 23.7407 21.4025 24.0047 21.6543C24.2686 21.9061 24.4169 22.2476 24.4169 22.6037V22.6574C24.4169 23.0136 24.2686 23.3551 24.0047 23.6069C23.7407 23.8587 23.3827 24.0002 23.0094 24.0002H21.7777" stroke="#A5A9AA" stroke-width="3" stroke-miterlimit="10" stroke-linecap="round"/>
<path d="M29.5203 22.6034C29.8936 22.6034 30.2516 22.462 30.5156 22.2102C30.7795 21.9583 30.9278 21.6168 30.9278 21.2607C30.9278 20.9046 30.7795 20.5631 30.5156 20.3112C30.2516 20.0594 29.8936 19.918 29.5203 19.918H26.7051" stroke="#B9C1C6" stroke-width="3" stroke-miterlimit="10" stroke-linecap="round"/>
<defs>
<linearGradient id="paint0_linear_1506_1295" x1="9.23688" y1="30.6638" x2="27.4961" y2="10.8806" gradientUnits="userSpaceOnUse">
<stop stop-color="#F2F2F2"/>
<stop offset="1" stop-color="#CFCFCF"/>
</linearGradient>
<linearGradient id="paint1_linear_1506_1295" x1="32.0329" y1="13.7011" x2="19.1671" y2="23.0765" gradientUnits="userSpaceOnUse">
<stop offset="0.02" stop-color="white"/>
<stop offset="1" stop-color="white" stop-opacity="0"/>
</linearGradient>
</defs>
</svg>
