<svg width="20" height="20" viewBox="0 0 20 20" fill="none" xmlns="http://www.w3.org/2000/svg">
<g clip-path="url(#clip0_2391_10143)">
<path d="M14.1206 0.0468564C14.3159 0.128888 14.4565 0.304669 14.4956 0.5117L15.2729 4.72654L19.4878 5.49998C19.6948 5.53904 19.8706 5.67967 19.9526 5.87498C20.0346 6.07029 20.0112 6.29295 19.8901 6.46873L17.4565 9.99998L19.8901 13.5273C20.0112 13.7031 20.0346 13.9258 19.9526 14.1211C19.8706 14.3164 19.6948 14.457 19.4878 14.4961L15.2729 15.2734L14.4956 19.4883C14.4565 19.6953 14.3159 19.8711 14.1206 19.9531C13.9253 20.0351 13.7026 20.0117 13.5268 19.8906L9.99949 17.457L6.47215 19.8906C6.29637 20.0117 6.07371 20.0351 5.8784 19.9531C5.68309 19.8711 5.54246 19.6953 5.5034 19.4883L4.72606 15.2734L0.511212 14.4961C0.304181 14.457 0.128399 14.3164 0.0463681 14.1211C-0.0356631 13.9258 -0.0122256 13.7031 0.108868 13.5273L2.54246 9.99998L0.108868 6.47264C-0.0122256 6.29686 -0.0356631 6.0742 0.0463681 5.87889C0.128399 5.68357 0.304181 5.54295 0.511212 5.50389L4.72606 4.72654L5.5034 0.5117C5.54246 0.304669 5.68309 0.128888 5.8784 0.0468564C6.07371 -0.0351748 6.29637 -0.0117373 6.47215 0.109356L9.99949 2.54295L13.5268 0.109356C13.7026 -0.0117373 13.9253 -0.0351748 14.1206 0.0468564ZM6.24949 9.99998C6.24949 9.00542 6.64458 8.05159 7.34784 7.34833C8.0511 6.64507 9.00493 6.24998 9.99949 6.24998C10.9941 6.24998 11.9479 6.64507 12.6511 7.34833C13.3544 8.05159 13.7495 9.00542 13.7495 9.99998C13.7495 10.9945 13.3544 11.9484 12.6511 12.6516C11.9479 13.3549 10.9941 13.75 9.99949 13.75C9.00493 13.75 8.0511 13.3549 7.34784 12.6516C6.64458 11.9484 6.24949 10.9945 6.24949 9.99998ZM14.9995 9.99998C14.9995 8.6739 14.4727 7.40213 13.535 6.46445C12.5973 5.52677 11.3256 4.99998 9.99949 4.99998C8.67341 4.99998 7.40164 5.52677 6.46396 6.46445C5.52628 7.40213 4.99949 8.6739 4.99949 9.99998C4.99949 11.3261 5.52628 12.5978 6.46396 13.5355C7.40164 14.4732 8.67341 15 9.99949 15C11.3256 15 12.5973 14.4732 13.535 13.5355C14.4727 12.5978 14.9995 11.3261 14.9995 9.99998Z" fill="#2FD159"/>
</g>
<defs>
<clipPath id="clip0_2391_10143">
<path d="M0 0H20V20H0V0Z" fill="white"/>
</clipPath>
</defs>
</svg>
